<svg width="135" height="136" viewBox="0 0 135 136" fill="none" xmlns="http://www.w3.org/2000/svg">
<path fill-rule="evenodd" clip-rule="evenodd" d="M41.5606 18.7445C49.0491 24.5627 57.6384 28.5373 65.4639 33.7771C67.4226 35.0886 73.5249 37.8116 73.4659 40.2444C73.4314 41.6668 71.5976 43.4504 70.7946 44.4361C69.4189 46.1248 68.1248 47.8312 66.8552 49.6177C61.0443 57.7983 55.5721 66.056 49.2743 73.8257C48.326 74.9944 45.4697 80.5748 44.5476 77.8032C44.1296 76.5465 44.4739 75.1344 43.3845 73.9629C42.8239 73.3594 40.6573 73.0268 41.2884 71.7325C41.709 71.9393 42.1301 72.1468 42.5512 72.3531C42.2242 71.3187 42.2482 70.1855 41.7581 69.2077C41.4535 68.6002 40.8584 68.3128 40.6521 67.6287C40.3668 66.6835 40.8506 65.5851 40.7696 64.6108C40.6897 63.6393 40.2294 62.7209 39.9546 61.8043C38.325 56.3707 37.7404 50.8932 36.906 45.2871C36.0805 39.7398 34.7947 34.3663 34.29 28.7573C33.7566 22.8328 33.103 16.9204 32.231 11.0434C33.7874 11.2823 34.9839 13.1321 36.0847 14.1779C37.8151 15.8215 39.6938 17.2941 41.5606 18.7445ZM35.6902 76.1013C35.3329 75.7945 35.0534 75.4173 34.8517 74.9704C38.522 72.9817 36.3073 76.3745 35.6902 76.1013ZM33.4582 71.8599C31.8585 72.3422 30.709 72.4399 29.4755 71.7199C29.3585 71.6519 29.4933 71.1255 29.2822 71.0175C29.0978 70.9238 28.8162 71.0398 28.6584 70.9518C28.1213 70.6529 27.1808 71.3078 27.0894 70.1638C29.1312 69.4803 31.139 68.219 33.2947 68.0065C36.2905 67.7116 36.1521 71.0473 33.4582 71.8599ZM26.4489 65.2651C24.266 65.8234 22.4677 67.1275 20.1485 66.7869C17.9714 66.4681 16.0795 65.2331 14.3622 63.8102C18.6584 62.4798 23.1636 62.2398 27.4562 60.9528C28.8538 60.5339 30.6902 59.4293 32.1965 59.8744C33.87 60.3693 33.9755 62.0837 34.4771 63.6438C31.7989 64.1707 29.1004 64.5873 26.4489 65.2651ZM12.7964 58.6452C10.6992 59.1932 8.55555 60.3916 6.80216 58.3235C6.51898 57.9897 6.27132 58.3229 6.30476 57.2948C6.33976 56.2107 7.23946 55.5124 8.01323 55.1306C9.83245 54.2334 12.3826 54.8135 14.3146 54.6815C17.3967 54.4717 20.5336 53.7711 23.5821 53.2317C25.6929 52.8585 27.8731 52.0299 30.0304 52.1933C31.696 52.3196 33.7054 53.8723 31.278 55.0049C29.0675 56.037 25.753 55.8787 23.358 56.3256C19.8178 56.9862 16.2901 57.732 12.7964 58.6452ZM10.7478 47.8535C10.8836 48.005 11.0195 48.1564 11.1553 48.3079C11.1328 48.3021 11.9594 47.5701 12.1783 47.5489C13.2415 47.4478 14.311 47.5278 15.3758 47.4621C17.8293 47.3107 20.3021 46.8432 22.7117 46.3283C24.6746 45.9088 26.6741 45.1859 28.6944 45.3671C30.4436 45.5237 30.6275 45.9157 30.742 47.7621C26.277 47.7621 21.6777 47.6592 17.2896 48.693C14.4327 49.3657 11.2844 51.3692 9.85333 47.7575C10.1517 47.7895 10.4495 47.8215 10.7478 47.8535ZM13.5393 40.0364C14.6464 40.9587 17.6647 39.4249 18.9918 39.2718C20.4327 39.1049 21.7885 38.9317 23.1851 38.5391C24.4233 38.1905 28.5199 36.4498 29.4698 38.1145C30.9259 40.665 25.0299 41.133 24.0952 41.2593C20.1751 41.7891 16.1078 42.2588 12.2933 43.3835C12.7086 42.268 13.1239 41.1525 13.5393 40.0364ZM18.9165 31.3735C19.2028 32.5524 28.068 28.2081 28.2294 31.3655C28.3538 33.7879 19.4583 34.9949 17.859 34.7823C18.2337 33.6668 19.23 32.6678 18.9165 31.3735ZM21.893 23.9632C22.0816 21.5853 22.3731 21.599 24.1166 21.375C25.4463 21.2041 27.2739 20.3515 26.928 22.9437C26.6318 25.1633 21.7033 26.3628 21.893 23.9632ZM25.0617 15.7815C25.4813 14.5048 26.4254 16.2232 26.4452 16.8724C26.498 18.5999 25.3005 18.2262 24.148 18.2262C24.4688 17.4193 24.7739 16.6032 25.0617 15.7815ZM39.6526 6.19846C39.4175 5.88872 38.0977 5.77042 37.7221 5.62013C36.7984 5.24981 36.9295 4.46062 35.7477 5.23896C35.6887 5.17381 35.801 4.58863 35.7367 4.56177C35.7043 4.54805 34.8762 4.20631 34.6072 4.01772C33.9577 3.56283 33.3726 3.11766 32.7759 2.54676C32.1417 1.94043 31.5063 1.06037 30.7817 0.577474C30.476 0.374031 30.2263 0.0854371 29.858 0.0231468C28.9024 -0.138008 29.1761 0.590043 28.3407 0.734625C27.8261 0.823775 27.4515 0.166583 26.7786 0.450032C26.1971 0.694622 25.8595 1.58669 25.6004 2.11758C24.6584 4.04973 23.9317 6.12931 23.0095 8.08202C18.2938 18.0673 12.9338 27.6738 8.36588 37.7522C6.16579 42.6074 3.8701 47.4964 2.32151 52.6562C1.20501 56.3776 -1.31642 61.814 0.85285 65.5326C2.43017 68.2362 5.58848 69.4037 8.10832 70.7101C11.8998 72.676 15.3951 75.2453 19.2284 77.1511C23.7995 79.4239 28.2383 81.8012 32.6939 84.3391C34.5941 85.4215 36.3088 86.9804 38.2027 88.0056C39.361 88.6326 41.15 87.5628 41.5272 89C42.9791 87.0764 45.3292 88.3588 47.0089 87.0044C47.9969 86.2078 48.7189 84.6385 49.5428 83.6573C50.779 82.1864 52.1207 80.8217 53.3819 79.3764C58.3876 73.636 63.0099 67.6573 67.5642 61.4917C71.9142 55.6038 76.9962 50.0411 80.6707 43.5961C82.13 41.0376 82.3943 38.3546 81.4314 35.5281C80.7282 33.4662 79.0344 30.3528 76.6148 31.7181C77.5323 30.0517 73.9931 28.2721 72.9194 27.9464C72.9032 27.9418 72.6916 29.2219 72.3923 29.1899C72.4988 29.2013 71.4926 26.3537 71.0506 25.9885C69.7381 24.9021 68.1415 23.6346 66.7094 22.7403C65.3959 21.9202 64.0098 21.5139 62.7376 20.5961C61.1953 19.484 59.7795 18.1651 58.2314 17.0604C56.7366 15.994 55.0705 14.7334 53.4185 14.0002C51.9859 13.3641 50.6996 13.2395 49.4106 12.1972C47.8161 10.9074 46.4253 10.0325 44.5862 9.14382C42.9953 8.37519 40.7905 7.70371 39.6526 6.19846Z" fill="#E8E8E8"/>
<path fill-rule="evenodd" clip-rule="evenodd" d="M111.192 88.9326C111.798 94.8186 113.568 100.508 114.535 106.328C114.778 107.785 116.075 111.787 115.083 112.716C114.503 113.26 113.078 113.081 112.372 113.083C111.162 113.087 109.978 113.136 108.771 113.23C103.246 113.658 97.8228 114.279 92.2715 114.311C91.4361 114.316 88.0995 115.14 88.8432 113.606C89.1804 112.911 89.877 112.521 89.9183 111.537C89.9398 111.03 89.2266 109.858 89.9883 109.652C90.0701 109.936 90.1518 110.219 90.234 110.503C90.5182 109.939 90.9788 109.504 91.1769 108.884C91.2999 108.499 91.1821 108.1 91.3739 107.732C91.6389 107.223 92.265 107.023 92.6214 106.601C92.977 106.18 93.163 105.598 93.4207 105.105C94.9482 102.184 96.9009 99.748 98.8074 97.1413C100.694 94.562 102.332 91.83 104.368 89.3806C106.519 86.7931 108.618 84.1527 110.617 81.4214C111.13 82.2629 110.86 83.5654 110.873 84.5057C110.894 85.9835 111.041 87.4653 111.192 88.9326ZM86.064 108.683C86.0468 108.39 86.0878 108.107 86.1871 107.835C88.4113 108.815 86.1961 109.086 86.064 108.683ZM86.8817 105.942C86.0653 105.363 85.5779 104.849 85.3832 103.974C85.3646 103.891 85.6267 103.748 85.5874 103.604C85.5527 103.479 85.3966 103.389 85.3701 103.279C85.2795 102.903 84.6517 102.709 85.0715 102.215C86.1405 102.927 87.4262 103.395 88.3522 104.347C89.6387 105.67 88.2566 106.916 86.8817 105.942ZM86.772 99.9801C85.6978 99.1513 84.4767 98.8008 83.7072 97.5529C82.9845 96.3817 82.7379 94.9872 82.6342 93.6024C84.8406 95.1424 86.6944 97.2117 88.8821 98.767C89.5943 99.2734 90.7508 99.7208 91.1614 100.619C91.6174 101.618 90.976 102.343 90.5506 103.198C89.2956 102.119 88.0766 100.987 86.772 99.9801ZM84.0796 90.818C83.043 90.0264 81.7292 89.4684 81.8684 87.8125C81.8908 87.5451 81.6614 87.5573 82.0838 87.1688C82.5291 86.759 83.1583 86.9164 83.6123 87.1378C84.6795 87.6585 85.4437 89.1115 86.2503 89.9875C87.5366 91.3853 89.0398 92.6162 90.4444 93.8681C91.4167 94.7351 92.5975 95.4561 93.3743 96.5566C93.9741 97.4062 94.1401 98.9823 92.7418 98.2621C91.4681 97.6065 90.2376 95.9523 89.125 94.9779C87.4804 93.5375 85.8067 92.1367 84.0796 90.818ZM87.5769 85.5877C87.5696 85.7125 87.5623 85.8373 87.555 85.9622C87.5485 85.9491 88.1626 86.0581 88.2564 86.1549C88.7117 86.6257 89.0972 87.1709 89.5389 87.6564C90.5567 88.7752 91.7079 89.779 92.8533 90.7337C93.7863 91.5114 94.8545 92.1872 95.5708 93.2289C96.1912 94.1306 96.1068 94.3732 95.4163 95.1547C93.6738 93.0102 91.9198 90.7608 89.7957 89.06C88.4129 87.9525 86.3865 87.2288 87.266 85.1203C87.3697 85.2762 87.4732 85.4318 87.5769 85.5877ZM91.7788 83.8524C91.8436 84.7471 93.6322 85.5932 94.2111 86.1703C94.8399 86.7967 95.438 87.3798 96.1393 87.896C96.7613 88.3536 99.0532 89.6362 98.7611 90.7474C98.3138 92.4504 95.8265 89.8028 95.4114 89.4035C93.6707 87.7292 91.8963 85.9606 89.9598 84.571C90.566 84.3316 91.1723 84.0921 91.7788 83.8524ZM97.3265 83.0263C96.9688 83.6277 102.158 86.1761 100.964 87.496C100.048 88.509 96.096 84.7115 95.5566 83.8597C96.1469 83.6007 96.9335 83.6862 97.3265 83.0263ZM101.439 81.54C102.459 80.6949 102.567 80.8403 103.337 81.5895C103.924 82.1609 104.977 82.7032 103.809 83.5571C102.81 84.2882 100.409 82.3931 101.439 81.54ZM105.933 79.8424C106.605 79.5416 106.289 80.6712 106.038 80.9362C105.371 81.6413 105.053 80.9191 104.603 80.3656C105.049 80.2021 105.493 80.0275 105.933 79.8424ZM115.443 83.0795C115.474 82.8447 115.006 82.1642 114.919 81.9247C114.706 81.3353 115.072 81.0878 114.301 80.8264C114.304 80.7724 114.58 80.5961 114.566 80.5547C114.559 80.5337 114.372 80.0015 114.342 79.7981C114.27 79.3072 114.218 78.851 114.213 78.3398C114.207 77.7965 114.309 77.1451 114.219 76.607C114.18 76.3802 114.198 76.1467 114.079 75.9453C113.77 75.4229 113.587 75.8409 113.203 75.4965C112.967 75.2844 113.083 74.8459 112.707 74.6342C112.383 74.4512 111.896 74.6401 111.583 74.7246C110.446 75.0324 109.335 75.5017 108.197 75.8271C102.381 77.4913 96.4647 78.697 90.6692 80.4689C87.8775 81.3227 85.035 82.1439 82.3762 83.4304C80.4588 84.3585 77.3102 85.2867 76.6762 87.7918C76.2153 89.6132 76.9831 91.5895 77.4463 93.3138C78.1433 95.9084 78.4844 98.5981 79.2216 101.189C80.1006 104.279 80.8864 107.346 81.6148 110.485C81.9254 111.823 81.9739 113.26 82.3048 114.573C82.5073 115.376 83.6314 115.815 83.2063 116.561C84.5388 116.502 84.9454 118.135 86.1402 118.409C86.8429 118.57 87.7495 118.299 88.4618 118.309C89.5299 118.324 90.5968 118.431 91.6645 118.468C95.9036 118.614 100.088 118.481 104.32 118.242C108.362 118.015 112.56 118.267 116.561 117.496C118.149 117.19 119.32 116.261 120.07 114.686C120.616 113.537 121.195 111.499 119.707 110.874C120.728 110.659 120.056 108.259 119.766 107.615C119.762 107.605 119.17 108.007 119.066 107.851C119.103 107.907 119.844 106.303 119.817 105.947C119.737 104.889 119.619 103.623 119.416 102.584C119.23 101.63 118.851 100.804 118.719 99.8323C118.56 98.654 118.533 97.4549 118.369 96.2767C118.21 95.1392 118.061 93.8429 117.709 92.761C117.403 91.8226 116.95 91.1558 116.862 90.1266C116.754 88.8532 116.559 87.841 116.195 86.608C115.881 85.5415 115.287 84.2183 115.443 83.0795Z" fill="#E8E8E8"/>
</svg>
