<svg width="342" height="273" viewBox="0 0 342 273" fill="none" xmlns="http://www.w3.org/2000/svg">
<path fill-rule="evenodd" clip-rule="evenodd" d="M249.979 208.131C248.528 209.809 246.386 211.054 244.742 212.588C243.016 214.199 241.143 215.607 239.423 217.199C231.839 207.93 221.45 202.246 212.449 194.554C208.183 190.907 205.039 185.96 202.738 180.884C201.559 178.281 200.688 175.603 200.006 172.83C199.699 171.582 199.398 170.337 199.198 169.071C198.955 167.538 198.892 167.408 197.857 166.211C197.412 165.696 196.55 164.192 195.678 164.358C194.944 164.498 193.602 166.731 193.138 167.283C190.908 169.937 188.746 172.671 186.398 175.223C182.805 179.126 179.535 182.967 176.199 187.105C169.376 195.569 162.016 203.537 154.589 211.502C154.038 212.093 152.754 213.825 151.963 214.058C151 214.341 149.437 213.161 148.468 212.501C146.128 210.908 144.285 208.937 142.285 206.964C138.383 203.112 135.741 197.706 133.964 192.562C132.899 189.483 132.208 186.291 131.11 183.222C130.652 181.944 129.614 180.372 130.141 179.258C130.298 178.926 131.296 178.043 131.648 177.976C132.064 177.896 132.758 178.467 132.903 178.427C134.284 178.049 133.518 176.604 134.339 175.826C134.805 175.384 137.174 175.449 137.881 175.207C140.467 174.319 142.787 172.627 145.231 171.617C155.465 167.389 165.823 163.277 174.658 156.372C176.949 154.582 178.471 153.237 181.205 152.08C183.968 150.91 186.745 149.867 189.564 148.847C192.051 147.946 194.552 147.102 197.121 146.457C199.899 145.759 203.841 144.874 206.617 145.773C212.068 147.538 213.828 152.03 215.999 156.768C218.936 163.179 222.487 169.245 226.337 175.146C233.744 186.499 242.751 196.686 249.979 208.131Z" fill="#E8E8E8"/>
<path fill-rule="evenodd" clip-rule="evenodd" d="M85.8057 107.764C85.5057 107.612 83.1637 108.565 82.7705 108.711C81.2003 109.293 79.7213 110.261 78.242 111.049C79.3757 112.429 80.5098 113.809 81.6432 115.189C82.7545 112.463 84.1828 110.214 85.8057 107.764ZM86.5787 124.724C86.193 124.767 89.4497 132.593 89.83 133.472C91.214 136.668 92.667 139.833 94.0692 143.021C95.4278 146.11 97.1512 148.952 98.8875 151.838C100.373 154.307 101.9 158.137 104.14 159.965C102.726 153.69 102.912 146.475 98.8551 141.206C94.6496 135.744 90.4916 130.41 86.5787 124.724ZM249.979 208.409C243.694 198.458 235.827 189.654 229.274 179.88C225.604 174.407 222.033 168.864 218.944 163.039C216.698 158.801 215.301 152.755 211.831 149.515C210.302 148.088 208.668 146.691 206.616 146.051C203.808 145.176 199.942 146.044 197.121 146.735C191.864 148.024 186.729 150.026 181.75 152.128C176.699 154.26 172.39 158.09 167.827 161.167C162.932 164.468 157.633 166.872 152.149 168.977C147.374 170.81 143.125 173.442 138.376 175.286C137.429 175.654 135.497 175.6 134.703 176.08C133.848 176.596 134.185 178.12 133.146 178.683C132.678 178.936 132.521 178.016 132.162 178.032C131.722 178.05 131.321 178.566 130.897 178.893C129.17 180.225 130.228 181.113 130.911 182.946C133.139 188.917 134.337 194.993 137.465 200.63C140.037 205.263 143.718 209.416 148.052 212.483C148.711 212.95 150.86 214.759 151.634 214.639C152.331 214.531 153.748 212.679 154.229 212.176C156.411 209.894 158.406 207.438 160.587 205.153C163.958 201.62 167.202 197.993 170.473 194.412C174.27 190.255 177.631 185.545 181.051 181.103C182.624 179.06 184.649 177.396 186.397 175.501C188.749 172.953 190.907 170.215 193.138 167.562C193.812 166.759 194.943 164.705 195.992 164.729C196.727 164.746 198.022 166.476 198.407 167.018C199.835 169.033 199.829 172.673 200.539 175.189C202.273 181.323 205.399 187.315 209.686 192.049C213.95 196.756 219.411 200.104 224.453 203.888C229.916 207.987 235.091 212.182 239.423 217.477C241.142 215.886 243.016 214.477 244.742 212.866C246.386 211.332 248.528 210.087 249.979 208.409ZM169.084 236.564C170.306 236.576 172.375 237.328 173.468 236.875C170.226 233.288 167.249 230.21 163.147 227.581C158.89 224.853 154.648 222.15 150.514 219.24C142.182 213.376 136.054 206.421 132.574 196.656C131.678 194.141 131.077 191.503 130.421 188.918C130.067 187.526 129.364 181.012 128.169 180.45C127.462 180.117 122.137 183.859 121.293 184.326C119.32 185.417 117.34 186.263 115.301 187.116C110.917 188.952 106.398 190.352 101.749 191.521C96.1758 192.922 92.3795 190.603 88.9268 186.223C85.0098 181.253 81.7547 175.646 78.1732 170.426C76.5445 168.053 75.1953 165.683 73.9925 163.064C73.2053 161.351 70.0831 156.729 71.1619 154.904C74.2398 157.247 75.3472 161.907 77.4438 165.044C80.0569 168.954 83.0018 172.641 85.6284 176.548C87.8371 179.833 90.0905 183.814 93.3536 186.176C96.224 188.253 98.9508 187.614 102.04 186.68C105.784 185.549 109.665 184.992 113.334 183.589C117.304 182.07 121.061 179.917 124.935 178.16C126.741 177.341 128.904 176.876 130.606 175.855C132.072 174.976 131.854 174.511 131.961 172.638C132.087 170.453 132.232 168.267 132.329 166.08C132.394 164.611 131.599 162.618 132.138 161.521C127.74 162.284 123.441 163.305 119.074 164.209C116.683 164.703 114.377 165.315 111.962 165.703C111.041 165.852 109.782 165.847 108.958 166.249C108.3 166.06 107.965 166.18 107.952 166.609C107.92 166.841 107.87 167.071 107.802 167.297C106.453 167.91 105.669 166.594 104.499 165.332C103.056 163.775 101.975 162.02 100.916 160.19C98.5487 156.097 95.8196 152.248 93.6286 148.041C91.3954 143.751 89.5817 139.159 87.6884 134.709C85.9515 130.626 84.8392 126.21 82.9199 122.224C82.0633 120.445 80.9777 118.974 79.7101 117.47C78.664 116.23 77.0546 113.554 75.4924 112.985C75.0793 112.834 73.9976 113.087 73.5284 113.054C72.5931 112.987 71.7596 112.644 70.8025 112.719C68.7303 112.881 66.4712 114.191 64.8152 115.343C65.8853 116.297 68.5623 117.457 66.6395 119.175C64.7734 120.843 63.7428 117.851 63.0307 116.54C59.6776 119.293 60.1623 123.09 59.7749 126.98C59.5726 129.011 59.0404 131.012 58.6971 133.012C58.4498 134.452 58.6232 135.941 58.5526 137.411C58.3724 141.147 57.9969 144.723 58.0146 148.406C58.0345 152.343 58.3027 156.145 58.6177 160.053C59.148 166.634 60.363 173.216 61.4049 179.744C61.9911 183.413 62.7934 186.979 63.5722 190.589C64.4561 194.686 66.0912 198.567 67.0082 202.653C67.9425 201.466 68.6452 201.46 70.1563 201.617C71.3187 201.738 72.0995 201.462 72.0314 203.075C71.9874 204.121 71.0643 204.92 70.043 205.103C68.711 205.341 68.2585 204.677 67.5722 203.668C67.4116 205.578 68.6963 207.576 69.2044 209.441C69.6852 211.209 70.0038 212.942 70.8119 214.635C71.6003 216.286 72.2755 217.914 73.0733 219.549C73.4407 220.301 73.7843 221.065 74.1559 221.816C74.3438 222.196 74.5651 222.719 74.8455 223.039C75.5033 223.79 75.3986 223.426 76.1684 223.854C77.8456 224.786 77.2158 224.553 77.255 226.477C77.2932 228.375 78.2664 229.769 79.827 230.836C83.138 233.099 86.4037 233.729 90.1679 234.873C93.6751 235.938 97.3693 236.853 101.083 236.832C105.632 236.806 110.12 236.21 114.668 236.15C119.686 236.083 124.752 236.111 129.76 236.284C131.823 236.355 133.739 236.447 135.731 236.974C138.043 237.586 140.281 237.343 142.665 237.25C147.75 237.053 153.011 236.659 158.03 236.624C161.644 236.598 165.457 236.346 169.084 236.564ZM300.955 238.535C301.859 239.013 303.886 238.817 304.795 238.684C306.396 238.451 306.568 237.816 307.583 236.388C309.332 233.93 310.752 231.575 311.78 228.727C313.749 223.277 314.553 217.7 315.417 211.999C316.378 205.663 314.624 199.096 313.996 192.803C313.852 191.36 313.655 189.929 313.427 188.496C313.29 187.64 313.255 184.726 312.691 183.984C311.608 182.559 306.572 183.709 304.592 183.838C299.065 184.199 293.502 184.283 287.978 184.346C285.032 184.379 282.07 184.503 279.154 184.525C277.815 184.536 276.505 184.47 275.161 184.339C274.711 184.296 274.272 184.192 273.819 184.167C272.269 184.082 272.385 183.857 271.985 185.23C271.283 187.635 271.823 190.696 271.638 193.193C271.392 196.529 271.258 199.913 271.319 203.256C271.376 206.346 271.271 209.428 271.386 212.525C271.434 213.807 271.574 214.853 271.912 216.077C272.295 217.462 272.716 220.697 273.668 221.655C273.776 221.764 274.586 221.51 274.801 221.782C275.132 222.2 275.071 223.086 275.299 223.356C276.035 224.231 277.555 224.301 278.659 224.694C281.686 225.774 284.463 226.946 287.316 228.401C289.865 229.702 293.975 230.809 295.508 233.374C296.21 234.55 296.305 236.101 296.951 237.315C297.687 238.697 296.215 237.974 298.018 238.535C298.829 238.788 300.123 238.535 300.955 238.535ZM32.2093 222.901C31.98 226.093 30.1817 229.134 29.5558 232.272C29.2629 233.742 28.766 235.186 28.4217 236.648C28.0915 238.049 26.8987 239.709 27.0194 241.096C31.4221 239.527 35.8817 239.133 40.4832 238.71C44.8444 238.309 49.4517 238.149 53.7763 238.147C58.1832 238.145 62.8952 237.714 67.4328 237.648C72.1781 237.578 76.9951 237.455 81.6718 236.963C79.2264 235.152 76.1665 233.451 74.3609 230.931C72.3978 228.192 71.3784 224.759 69.6511 221.869C66.185 216.068 63.9814 208.87 62.1645 202.353C58.4963 189.197 54.3972 176.284 53.4092 162.638C51.5291 163.601 50.0366 167.336 49.0952 169.197C47.8937 171.572 47.2645 174.146 46.4834 176.671C44.8749 181.87 43.7617 187.262 41.7923 192.412C38.0281 202.256 35.6087 212.864 32.2093 222.901ZM271.201 146.224C272.015 152.108 273.722 158.068 273.788 164.023C273.802 165.333 273.58 166.788 273.853 168.08C274.145 169.459 275.093 170.678 275.641 171.989C276.51 174.069 278.711 178.334 276.588 180.097C276.545 178.424 275.014 176.299 274.243 174.836C273.081 172.632 271.554 170.617 270.294 168.467C267.656 163.968 264.701 159.565 261.302 155.598C257.991 151.735 254.175 148.307 250.665 144.628C249.61 143.523 241.148 132.883 240.812 133.032C243.437 143.153 247.898 151.96 254.004 160.435C256.998 164.589 260.591 167.323 264.235 170.842C267.27 173.773 272.99 176.907 271.941 181.71C276.685 181.254 281.398 180.525 286.185 180.525C285.398 174.466 284.795 168.503 283.389 162.544C281.794 155.777 280.713 148.808 279.363 141.981C277.985 135.011 275.648 128.264 274.194 121.308C272.801 114.646 271.605 107.997 270.585 101.262C269.741 104.994 270.052 109.093 269.753 112.901C269.447 116.791 269.477 120.61 269.579 124.523C269.767 131.792 270.542 138.973 271.201 146.224ZM291.758 111.57C291.784 108.459 292.387 105.389 292.573 102.286C292.63 101.333 293.579 94.8362 292.694 94.4971C291.967 96.083 291.797 98.1125 291.137 99.7766C290.477 101.439 289.594 103.023 288.96 104.697C287.588 108.323 287.115 112.426 286.967 116.282C286.633 125.002 286.46 133.703 287.046 142.424C287.297 146.162 287.49 149.906 287.421 153.651C287.346 157.772 286.715 161.349 287.481 165.437C288.24 169.484 288.716 173.515 288.969 177.621C289.146 180.504 289.218 180.3 291.968 180.097C293.953 179.951 295.958 180.107 297.946 180.016C297.016 168.783 296.864 157.526 295.379 146.336C294.622 140.627 294.602 134.835 293.66 129.147C293.193 126.322 292.408 123.554 291.957 120.725C291.473 117.688 291.712 114.63 291.758 111.57ZM90.6667 104.5C95.9606 104.959 101.592 106.542 107.018 105.497C106.124 105.134 103.783 104.635 104.836 103.205C105.907 101.751 107.712 103.595 108.781 103.405C109.439 103.287 110.895 100.534 111.301 99.9635C112.222 98.6679 112.334 98.4421 113.991 98.11C115.596 97.7888 115.96 98.1366 116.163 96.5407C116.396 94.7055 115.761 92.6423 115.824 90.7656C115.96 86.7256 117.263 83.1827 118.476 79.3815C113.322 80.5028 108.283 81.8324 103.013 82.5551C100.76 82.864 97.2553 83.5767 95.2087 82.0454C94.6766 81.6471 94.7617 81.1095 94.3261 80.6479C93.5958 79.8736 92.2411 79.0726 91.2053 78.8519C84.8309 77.4949 84.2091 86.582 87.4035 89.9823C88.2036 90.8344 89.3168 91.2551 90.1361 92.0359C91.2297 93.0771 91.3193 94.174 91.4789 95.7635C91.7783 98.744 91.3717 101.736 90.1001 104.463L90.6667 104.5ZM168.02 147.4C169.902 147.757 171.866 147.676 173.753 147.98C174.423 148.089 176.433 148.466 177.022 148.074C177.922 147.476 178.242 145.281 178.667 144.26C179.416 142.462 180.475 140.894 181.188 139.064C184.105 131.587 186.824 124.081 190.351 116.86C188.999 116.509 187.961 116.495 186.599 116.313C185.18 116.124 183.893 115.285 182.539 114.924C181.252 114.582 179.904 114.669 178.629 114.27C177.926 114.051 177.323 113.563 176.631 113.393C175.527 113.121 174.239 112.962 173.582 113.687C172.909 114.43 172.673 116.468 172.307 117.428C171.332 119.986 170.199 122.454 169.383 125.07C168.645 127.43 167.945 129.764 167.296 132.146C166.611 134.66 165.26 136.731 164.437 139.133C163.811 140.961 163.221 142.829 163.127 144.778C163.036 146.68 162.76 146.801 164.661 147.105C165.621 147.258 167.117 147.828 168.02 147.4ZM291.831 236.403C292.321 236.631 292.783 236.601 293.217 236.312C288.967 234.517 284.834 232.028 280.401 230.797C276.243 229.642 272.201 228.262 268.195 226.84C264.94 225.684 262.014 224.785 259.071 222.751C257.284 221.517 255.697 220.128 254.47 218.324C253.103 216.316 252.799 213.457 251.319 211.648C249.321 213.842 246.975 215.504 244.611 217.247C243.793 217.85 241.832 219.165 241.552 220.099C241.199 221.276 242.145 222.403 242.612 223.595C243.81 226.647 244.395 229.698 245.045 232.872C245.305 234.144 245.868 236.056 246.913 236.588C247.864 237.073 250.619 236.721 251.803 236.631C257.979 236.163 264.046 235.684 270.259 236.11C277.29 236.592 284.818 236.925 291.831 236.403ZM304.167 179.84C305.289 179.844 306.386 179.704 307.504 179.704C306.859 176.689 308.368 172.789 308.903 169.78C309.502 166.415 309.957 162.934 310.357 159.542C311.198 152.396 311.579 145.337 311.59 138.139C311.6 131.173 312.868 124.808 314.645 118.112C316.552 110.921 319.675 104.454 322.257 97.519C319.425 99.0163 317.857 102.52 316.368 105.199C314.487 108.585 313.234 112.336 312.465 116.138C310.983 123.472 309.357 130.829 307.647 138.152C305.866 145.776 304.819 153.471 302.779 161.033C301.784 164.72 300.431 169.257 300.356 173.06C300.325 174.633 299.851 177.928 300.564 179.294C301.231 180.573 302.705 179.97 304.167 179.84ZM134.73 170.38C134.671 171.163 134.615 171.908 134.476 172.681C136.031 172.667 138 171.053 139.333 170.329C140.958 169.447 142.584 168.474 144.173 167.587C147.24 165.874 150.723 164.746 153.998 163.339C157.76 161.723 161.218 159.77 164.816 157.825C166.072 157.145 175.105 153.23 174.953 152.16C172.97 152.094 170.987 152.028 169.004 151.963C167.304 151.906 164.671 152.29 163.043 151.765C162.151 151.477 161.15 150.416 160.814 149.586C160.48 148.765 161.229 144.986 160.794 144.745C158.575 147.011 157.179 150.023 155.195 152.467C153.002 155.169 150.169 156.747 147.046 158.182C143.598 159.768 140.028 160.996 136.504 162.355C135.018 162.928 135.047 163.255 134.918 164.885C134.773 166.707 134.789 168.554 134.73 170.38ZM313.929 238.906C317.667 239.307 321.498 239.079 325.266 239.392C326.637 239.505 328.537 239.675 327.158 241.515C326.289 242.673 323.507 242.302 322.246 242.382C318.857 242.598 315.27 242.482 311.874 242.432C311.159 242.421 310.369 242.209 309.647 242.257C308.813 242.311 307.814 242.911 307.054 242.907C306.585 242.904 306.417 242.41 306.013 242.364C305.133 242.266 304.253 242.193 303.365 242.194C289.943 242.196 276.705 241.927 263.317 241.912C256.915 241.906 250.41 241.795 244.01 241.494C242.667 241.431 235.014 241.706 235.226 239.286C235.335 238.04 237.832 237.864 238.744 237.732C239.419 237.634 240.12 237.65 240.797 237.613C242.595 237.517 243.382 237.95 243.003 235.982C241.564 228.521 238.987 222.354 233.479 216.989C228.976 212.602 223.553 208.623 218.452 204.96C212.258 200.511 207.234 195.833 203.557 189.026C201.409 185.051 199.612 180.988 198.508 176.593C198.111 175.012 198.102 173.213 197.616 171.689C197.241 170.515 196.388 169.694 195.886 168.478C189.724 178.771 181.557 187.382 174.068 196.662C170.49 201.096 166.408 205.306 162.133 209.163C160.864 210.308 159.68 211.503 158.496 212.735C157.506 213.766 155.933 214.682 155.097 215.826C154.295 216.923 154.492 216.871 155.713 217.742C157.327 218.894 159.106 219.85 160.746 220.973C163.367 222.768 166.228 224.285 168.571 226.445C171.105 228.781 173.32 231.487 175.535 234.122C177.011 235.878 178.948 238.131 179.32 240.351C179.443 241.085 179.91 242.902 179.293 243.44C178.767 243.899 178.82 243.725 178.166 243.445C177.309 243.077 177.057 242.234 176.01 241.832C173.332 240.805 170.091 241.157 167.304 241.145C164.516 241.132 161.705 241.446 158.919 241.434C152.555 241.408 146.328 241.923 139.967 242.2C133.21 242.493 126.371 241.789 119.637 241.888C114.648 241.962 109.526 241.589 104.399 241.867C101.762 242.009 99.1721 241.679 96.6007 241.642C93.2342 241.594 89.7767 242.052 86.3812 242.117C80.8082 242.224 75.3032 242.224 69.6961 242.358C57.6353 242.646 45.6397 242.945 33.5718 243.136C31.962 243.161 30.1997 243.106 28.6089 243.288C26.9205 243.48 27.7922 243.839 26.6337 244.447C23.3905 246.148 24.1395 239.842 24.2172 238.601C24.6341 231.954 26.3215 225.435 28.3494 219.124C30.2733 213.139 31.8352 206.875 33.4645 200.761C35.248 194.068 37.5717 187.65 39.6818 181.023C41.844 174.233 43.6044 167.178 47.5314 161.159C48.4259 159.788 49.3502 158.313 50.7891 157.449C52.402 156.48 52.4714 157.046 52.4701 155.272C52.4691 153.602 52.5719 151.371 52.1778 149.777C51.8217 148.337 51.8766 149.191 51.0746 148.157C50.422 147.316 49.7391 146.741 49.2709 145.72C46.3944 148.636 39.81 147.097 37.0308 144.997C33.6293 142.426 31.0383 138.089 30.0889 133.959C29.3265 130.642 30.262 124.32 33.9331 122.725C35.7227 121.947 42.2959 121.36 42.5589 118.826C42.6945 117.517 40.381 115.678 39.8472 114.553C38.858 112.469 37.908 109.698 37.633 107.413C37.096 102.955 39.1201 97.9693 42.3444 94.9576C48.2592 89.4327 58.6662 86.5974 66.2746 90.1027C64.6668 83.9609 63.6962 78.6624 64.5059 72.2736C65.2035 66.7696 68.4509 63.6901 72.9194 60.9486C80.5448 56.2697 90.9143 54.4229 99.6333 55.7834C101.615 56.0927 103.516 56.7559 105.351 57.2836C108.016 58.0503 111.206 57.7949 113.723 59.0405C115.547 59.9433 116.933 61.7419 118.535 62.9428C120.406 64.3447 121.96 66.4372 123.26 68.3722C126.04 72.5103 124.954 80.1903 122.627 84.344C122.128 85.235 121.512 85.9849 120.687 86.5929C119.827 87.2256 118.517 87.4225 118.074 88.2431C116.94 90.3452 118.034 94.896 118.185 97.168C118.362 99.8061 117.028 101.788 114.036 101.998C112.306 102.12 112.251 101.116 111.422 103.182C110.885 104.521 110.397 105.98 109.622 107.207C108.024 109.737 105.098 109.49 102.432 109.422C99.3461 109.342 96.3065 108.855 93.2191 108.547C94.0345 111.16 96.2667 113.188 97.6606 115.515C99.5453 118.663 100.68 121.273 100.986 124.941C101.221 127.759 100.714 129.984 98.7854 132.081C97.9872 132.95 97.2797 132.992 97.4779 133.994C97.5986 134.605 98.655 135.612 99.0288 136.1C100.018 137.39 101.166 138.574 102.036 139.951C105.386 145.251 106.375 153.331 106.383 159.501C106.383 159.784 106.534 160.385 106.409 160.678C106.317 160.894 105.614 161.578 105.604 161.637C105.466 162.43 106.24 163.79 107.454 163.925C108.728 164.066 111.063 163.002 112.249 162.653C114.146 162.093 116.08 161.68 117.974 161.106C121.032 160.178 124.075 159.438 127.184 158.711C128.589 158.382 130.001 158.109 131.411 157.802C133.016 157.452 133.762 156.777 134.59 158.41C135.301 159.812 134.859 160.066 136.581 159.359C138.291 158.658 139.961 157.788 141.63 156.996C144.574 155.599 148.08 154.354 150.62 152.293C154.856 148.853 156.424 143.376 160.479 139.726C161.607 138.71 162.281 138.692 162.995 137.285C163.759 135.778 164.153 133.846 164.554 132.225C165.258 129.387 165.759 126.539 166.397 123.704C167.192 120.172 168.91 116.973 170.163 113.604C170.652 112.291 170.905 110.622 171.693 109.443C171.902 109.13 172.3 108.954 172.463 108.695C173.024 107.806 173.018 107.562 173.163 106.493C173.842 101.497 176.825 104.125 180.083 105.271C181.456 105.753 187.976 108.884 185.486 110.966C188.454 111.827 193.207 111.359 193.167 115.612C193.147 117.791 191.843 120.122 191.144 122.162C190.522 123.973 189.922 125.791 189.291 127.599C187.908 131.561 186.23 135.403 184.881 139.376C184.266 141.187 183.759 143.04 182.902 144.749C182.147 146.257 180.319 147.919 180.018 149.567C187.926 146.193 195.242 141.315 204.094 141.626C207.97 141.762 211.487 143.391 213.628 146.799C216.312 151.071 218.078 155.854 220.701 160.165C230.243 175.848 241.624 190.095 252.1 205.129C252.904 206.284 253.939 207.376 254.218 208.804C254.401 209.735 254.047 210.667 254.266 211.562C254.719 213.421 257.008 215.743 258.561 216.812C261.537 218.86 266.375 221.749 270.089 221.494C267.758 215.892 267.789 209.755 267.897 203.78C268 198.105 268.614 192.475 269.342 186.858C269.507 185.587 269.65 184.409 270.015 183.177C270.435 181.764 271.01 181.898 269.755 180.628C267.822 178.672 265.524 177.062 263.576 175.082C259.363 170.799 255.045 167.443 251.73 162.329C248.576 157.464 245.25 152.459 242.915 147.133C240.512 141.649 239.552 135.793 238.359 129.986C237.875 127.63 236.11 124.999 236.464 122.538C236.912 119.428 238.355 121.693 238.942 123.366C240.733 128.475 244.928 133.048 248.403 137.157C252.156 141.595 256.748 145.309 260.666 149.619C264.933 154.312 267.856 159.706 271.65 164.717C271.65 158.499 269.527 152.167 268.658 146.016C267.894 140.602 267.655 135.171 267.171 129.733C266.075 117.382 267.022 104.666 268.562 92.4023C269.293 86.5781 268.879 80.8911 268.901 75.0469C268.908 73.187 268.138 68.9003 269.119 67.2497C270.998 64.0884 272.094 71.0011 272.19 72.0317C272.758 78.1713 271.739 84.2425 272.259 90.3558C272.803 96.7398 273.984 102.945 274.989 109.255C276.077 116.087 277.849 122.765 279.545 129.467C281.327 136.503 282.825 143.686 284.805 150.665C285.339 148.471 284.59 145.776 284.442 143.542C284.23 140.344 283.818 137.146 283.782 133.94C283.725 128.83 283.685 123.626 283.974 118.54C284.259 113.527 284.173 108.274 285.71 103.445C286.44 101.152 287.51 98.9161 288.557 96.7569C289.849 94.0943 290.306 91.5127 291.021 88.6809C291.634 86.2557 292.531 83.8944 292.939 81.4207C293.193 79.8822 293.901 75.3408 295.662 78.7816C296.685 80.7787 296.243 83.7393 296.271 85.8847C296.308 88.6353 295.887 91.3097 295.822 94.0487C295.697 99.4226 295.606 104.79 295.206 110.155C294.785 115.784 295.152 120.828 296.223 126.374C297.395 132.445 297.738 138.529 298.345 144.674C298.659 147.847 299.187 151.002 299.442 154.18C299.577 155.862 298.885 160.687 300.09 161.886C300.207 158.971 301.042 156.054 301.675 153.215C302.425 149.85 302.728 146.313 303.281 142.901C304.176 137.372 305.913 132.092 307.062 126.626C309.431 115.357 311.399 100.873 321.326 93.4969C322.625 92.5318 324.052 91.8194 325.456 91.0251C326.251 90.5755 327.432 89.4122 328.341 89.2092C329.334 88.9876 329.748 89.1597 330.151 90.3115C330.712 91.917 329.686 92.667 328.728 93.8332C325.412 97.8685 323.996 103.041 321.948 107.774C317.261 118.611 315.186 130.041 315.163 141.755C315.15 147.887 314.727 153.801 314.073 159.896C313.369 166.456 312.443 173.393 310.45 179.703C312.449 180.151 314.617 179.483 315.16 181.807C315.293 182.377 315.052 183.052 315.2 183.795C315.343 184.517 315.687 185.235 315.891 185.945C316.313 187.414 316.536 188.863 316.741 190.371C317.533 196.2 318.893 201.744 319.038 207.654C319.172 213.117 318.102 218.652 317.117 224.01C316.124 229.406 313.277 234.006 311.035 238.886C312 238.886 312.964 238.896 313.929 238.906Z" fill="#E8E8E8"/>
<path fill-rule="evenodd" clip-rule="evenodd" d="M187.064 226.502C186.001 226.802 180.869 227.37 180.87 228.98C180.871 229.946 185.996 229.927 186.903 230.032C186.957 228.855 187.011 227.679 187.064 226.502ZM198.392 237.614C201.35 238.176 205.364 237.386 207.255 234.778C208.138 233.56 208.557 231.707 208.845 230.253C209.12 228.868 209.968 225.41 209.391 224.112C208.683 222.517 201.887 224.183 199.909 224.367C196.456 224.685 192.886 224.723 189.432 224.498C189.432 228.065 189.249 231.541 191.347 234.611C192.861 236.826 195.703 237.349 198.392 237.614ZM197.798 242.02C194.585 240.844 191.211 241.608 189.118 238.159C188.588 237.283 188.14 236.342 187.819 235.37C187.662 234.944 187.54 234.508 187.453 234.061C187.617 233.1 187.265 232.829 186.397 233.248C184.694 232.917 182.826 234.086 181.032 233.741C176.681 232.905 177.471 226.672 180.391 224.515C180.968 224.088 181.544 223.97 182.204 223.759C183.66 223.295 184.448 223.813 185.779 223.681C186.855 223.575 187.151 222.447 188.307 221.95C189.064 221.625 190.115 221.65 190.911 221.617C195.076 221.446 199.254 221.448 203.446 221.176C205.401 221.05 207.512 221.359 209.427 221.025C210.323 220.869 210.195 220.272 211.044 220.795C211.923 221.338 211.543 223.342 211.499 224.142C211.242 228.764 210.967 233.722 208.491 237.763C206.225 241.461 201.767 241.84 197.798 242.02Z" fill="#E8E8E8"/>
<path fill-rule="evenodd" clip-rule="evenodd" d="M28.0923 243.293C29.1262 243.282 30.1597 243.271 31.19 243.261C30.1549 243.272 29.1236 243.282 28.0923 243.293Z" fill="#E8E8E8"/>
<path fill-rule="evenodd" clip-rule="evenodd" d="M315.169 144.732C315.167 143.739 315.164 142.746 315.162 141.755C315.164 142.749 315.166 143.74 315.169 144.732Z" fill="#E8E8E8"/>
<path fill-rule="evenodd" clip-rule="evenodd" d="M52.181 148.81C52.1778 149.777 52.1746 150.745 52.1714 151.71C52.1743 150.742 52.1775 149.776 52.181 148.81Z" fill="#E8E8E8"/>
<path fill-rule="evenodd" clip-rule="evenodd" d="M138.118 242.197C138.94 242.198 139.763 242.199 140.581 242.201C139.758 242.2 138.938 242.199 138.118 242.197Z" fill="#E8E8E8"/>
<path fill-rule="evenodd" clip-rule="evenodd" d="M88.1758 241.999C88.9983 242.002 89.8205 242.005 90.6392 242.008C89.8154 242.005 88.9957 242.002 88.1758 241.999Z" fill="#E8E8E8"/>
<path fill-rule="evenodd" clip-rule="evenodd" d="M268.006 201.823C267.97 202.476 267.933 203.129 267.897 203.781C267.933 203.127 267.97 202.475 268.006 201.823Z" fill="#E8E8E8"/>
<path fill-rule="evenodd" clip-rule="evenodd" d="M313.929 238.907C313.293 238.9 312.658 238.894 312.022 238.887C312.66 238.621 313.296 238.633 313.929 238.907Z" fill="#E8E8E8"/>
<path fill-rule="evenodd" clip-rule="evenodd" d="M257.497 241.798C257.953 241.791 258.409 241.784 258.861 241.776C258.404 241.783 257.95 241.791 257.497 241.798Z" fill="#E8E8E8"/>
<path fill-rule="evenodd" clip-rule="evenodd" d="M314.921 152.79C314.933 152.296 314.944 151.803 314.955 151.311C314.944 151.805 314.933 152.297 314.921 152.79Z" fill="#E8E8E8"/>
<path fill-rule="evenodd" clip-rule="evenodd" d="M272.259 90.3564C272.221 89.8473 272.184 89.3386 272.146 88.8308C272.184 89.3402 272.221 89.8483 272.259 90.3564Z" fill="#E8E8E8"/>
<path fill-rule="evenodd" clip-rule="evenodd" d="M315.146 146.676C315.153 146.166 315.159 145.656 315.165 145.147C315.159 145.658 315.153 146.167 315.146 146.676Z" fill="#E8E8E8"/>
<path fill-rule="evenodd" clip-rule="evenodd" d="M171.682 241.165C172.087 241.171 172.493 241.177 172.895 241.182C172.489 241.175 172.085 241.17 171.682 241.165Z" fill="#E8E8E8"/>
<path fill-rule="evenodd" clip-rule="evenodd" d="M276.163 241.997C276.559 242.005 276.956 242.013 277.348 242.021C276.95 242.013 276.557 242.005 276.163 241.997Z" fill="#E8E8E8"/>
<path fill-rule="evenodd" clip-rule="evenodd" d="M318.992 206.118C318.964 205.671 318.935 205.223 318.907 204.776C318.936 205.224 318.964 205.671 318.992 206.118Z" fill="#E8E8E8"/>
<path fill-rule="evenodd" clip-rule="evenodd" d="M311.875 242.432C312.197 242.43 312.52 242.428 312.839 242.428C312.515 242.43 312.195 242.431 311.875 242.432Z" fill="#E8E8E8"/>
<path fill-rule="evenodd" clip-rule="evenodd" d="M267.899 242.017C268.219 242.009 268.539 242.001 268.855 241.994C268.534 242.002 268.216 242.01 267.899 242.017Z" fill="#E8E8E8"/>
<path fill-rule="evenodd" clip-rule="evenodd" d="M196.056 241.774C196.408 241.772 196.759 241.77 197.108 241.767C196.755 241.769 196.405 241.771 196.056 241.774Z" fill="#E8E8E8"/>
<path fill-rule="evenodd" clip-rule="evenodd" d="M114.924 241.772C115.258 241.774 115.593 241.777 115.924 241.78C115.588 241.778 115.256 241.775 114.924 241.772Z" fill="#E8E8E8"/>
<path fill-rule="evenodd" clip-rule="evenodd" d="M95.1875 241.826C95.5286 241.807 95.869 241.788 96.2069 241.769C95.8649 241.788 95.5263 241.807 95.1875 241.826Z" fill="#E8E8E8"/>
<path fill-rule="evenodd" clip-rule="evenodd" d="M189.679 111.872C189.172 111.829 188.664 111.785 188.157 111.741C188.665 111.777 189.202 111.476 189.679 111.872Z" fill="#E8E8E8"/>
<path fill-rule="evenodd" clip-rule="evenodd" d="M319.041 239.099C318.54 239.049 318.04 238.998 317.54 238.947C318.04 238.998 318.54 239.049 319.041 239.099Z" fill="#E8E8E8"/>
<path fill-rule="evenodd" clip-rule="evenodd" d="M284.137 114.953C284.104 115.391 284.07 115.83 284.037 116.267C284.07 115.828 284.104 115.39 284.137 114.953Z" fill="#E8E8E8"/>
<path fill-rule="evenodd" clip-rule="evenodd" d="M315.272 133.232C315.307 132.817 315.341 132.401 315.375 131.987C315.341 132.403 315.306 132.818 315.272 133.232Z" fill="#E8E8E8"/>
<path fill-rule="evenodd" clip-rule="evenodd" d="M283.938 121.754C283.903 122.191 283.866 122.629 283.831 123.065C283.867 122.627 283.903 122.19 283.938 121.754Z" fill="#E8E8E8"/>
<path fill-rule="evenodd" clip-rule="evenodd" d="M315.06 150.01C315.057 149.587 315.054 149.164 315.051 148.742C315.324 149.164 315.313 149.586 315.06 150.01Z" fill="#E8E8E8"/>
<path fill-rule="evenodd" clip-rule="evenodd" d="M268.013 210.754C268.009 211.178 268.005 211.602 268.001 212.024C267.721 211.597 267.777 211.174 268.013 210.754Z" fill="#E8E8E8"/>
<path fill-rule="evenodd" clip-rule="evenodd" d="M299.907 161.703C299.858 161.274 299.809 160.845 299.76 160.417C299.809 160.847 299.858 161.275 299.907 161.703Z" fill="#E8E8E8"/>
<path fill-rule="evenodd" clip-rule="evenodd" d="M35.8148 122.318C35.483 122.756 35.0311 122.456 34.6367 122.509C35.0298 122.445 35.4223 122.382 35.8148 122.318Z" fill="#E8E8E8"/>
<path fill-rule="evenodd" clip-rule="evenodd" d="M199.868 221.48C199.449 221.481 199.03 221.481 198.611 221.482C199.03 221.481 199.449 221.48 199.868 221.48Z" fill="#E8E8E8"/>
<path fill-rule="evenodd" clip-rule="evenodd" d="M266.833 124.119C266.872 124.476 266.911 124.832 266.95 125.187C266.911 124.83 266.872 124.475 266.833 124.119Z" fill="#E8E8E8"/>
<path fill-rule="evenodd" clip-rule="evenodd" d="M59.6909 88.7123C59.2695 88.7206 58.8481 88.729 58.4268 88.7373C58.8436 88.492 59.2637 88.421 59.6909 88.7123Z" fill="#E8E8E8"/>
<path fill-rule="evenodd" clip-rule="evenodd" d="M283.928 127.921C283.901 128.294 283.874 128.668 283.847 129.04C283.874 128.666 283.901 128.293 283.928 127.921Z" fill="#E8E8E8"/>
<path fill-rule="evenodd" clip-rule="evenodd" d="M272.372 82.0305C272.405 81.6897 272.437 81.349 272.47 81.0101C272.437 81.3515 272.405 81.691 272.372 82.0305Z" fill="#E8E8E8"/>
<path fill-rule="evenodd" clip-rule="evenodd" d="M269.061 80.9624C269.028 81.3321 268.995 81.7021 268.962 82.0705C268.995 81.7001 269.028 81.3311 269.061 80.9624Z" fill="#E8E8E8"/>
<path fill-rule="evenodd" clip-rule="evenodd" d="M86.0248 56.2668C85.596 56.3189 85.1672 56.3709 84.7388 56.4226C85.1675 56.3706 85.596 56.3189 86.0248 56.2668Z" fill="#E8E8E8"/>
<path fill-rule="evenodd" clip-rule="evenodd" d="M55.0556 89.0063C54.6155 89.0513 54.1755 89.0963 53.7358 89.1412C54.1759 89.0963 54.6159 89.0513 55.0556 89.0063Z" fill="#E8E8E8"/>
<path fill-rule="evenodd" clip-rule="evenodd" d="M296.174 90.0904C296.201 89.7464 296.227 89.4021 296.254 89.0601C296.227 89.4044 296.2 89.7474 296.174 90.0904Z" fill="#E8E8E8"/>
<path fill-rule="evenodd" clip-rule="evenodd" d="M40.6138 146.86C40.8672 146.864 41.1203 146.867 41.3698 146.871C41.1154 146.867 40.8646 146.864 40.6138 146.86Z" fill="#E8E8E8"/>
<path fill-rule="evenodd" clip-rule="evenodd" d="M269.074 189.315C269.049 189.696 269.023 190.076 268.998 190.456C269.024 190.075 269.049 189.695 269.074 189.315Z" fill="#E8E8E8"/>
<path fill-rule="evenodd" clip-rule="evenodd" d="M294.924 115.187C294.914 114.82 294.904 114.453 294.894 114.087C294.904 114.454 294.914 114.82 294.924 115.187Z" fill="#E8E8E8"/>
<path fill-rule="evenodd" clip-rule="evenodd" d="M96.8185 55.3984C96.4276 55.3984 96.0367 55.3987 95.6465 55.3987C96.0374 55.1302 96.4279 55.137 96.8185 55.3984Z" fill="#E8E8E8"/>
<path fill-rule="evenodd" clip-rule="evenodd" d="M201.172 141.802C200.744 141.813 200.316 141.824 199.889 141.835C200.309 141.537 200.738 141.53 201.172 141.802Z" fill="#E8E8E8"/>
<path fill-rule="evenodd" clip-rule="evenodd" d="M238.585 241.15C238.839 241.155 239.093 241.161 239.344 241.167C239.089 241.162 238.837 241.156 238.585 241.15Z" fill="#E8E8E8"/>
<path fill-rule="evenodd" clip-rule="evenodd" d="M248.143 241.596C248.396 241.587 248.649 241.578 248.899 241.569C248.645 241.578 248.394 241.587 248.143 241.596Z" fill="#E8E8E8"/>
<path fill-rule="evenodd" clip-rule="evenodd" d="M98.5728 241.772C98.8371 241.779 99.1014 241.785 99.3622 241.792C99.0969 241.785 98.8348 241.779 98.5728 241.772Z" fill="#E8E8E8"/>
<path fill-rule="evenodd" clip-rule="evenodd" d="M318.773 201.871C318.736 201.508 318.698 201.145 318.66 200.784C318.698 201.147 318.736 201.509 318.773 201.871Z" fill="#E8E8E8"/>
<path fill-rule="evenodd" clip-rule="evenodd" d="M284.251 140.687C284.282 141.033 284.312 141.379 284.341 141.723C284.311 141.377 284.281 141.032 284.251 140.687Z" fill="#E8E8E8"/>
<path fill-rule="evenodd" clip-rule="evenodd" d="M297.537 134.749C297.496 134.382 297.455 134.016 297.414 133.65C297.455 134.017 297.496 134.383 297.537 134.749Z" fill="#E8E8E8"/>
<path fill-rule="evenodd" clip-rule="evenodd" d="M100.717 241.991C100.983 241.987 101.25 241.982 101.514 241.979C101.246 241.983 100.981 241.987 100.717 241.991Z" fill="#E8E8E8"/>
<path fill-rule="evenodd" clip-rule="evenodd" d="M197.798 242.02C198.057 242.008 198.316 241.997 198.573 241.985C198.313 241.997 198.055 242.008 197.798 242.02Z" fill="#E8E8E8"/>
<path fill-rule="evenodd" clip-rule="evenodd" d="M295.369 107.966C295.357 107.595 295.345 107.223 295.333 106.852C295.345 107.224 295.357 107.595 295.369 107.966Z" fill="#E8E8E8"/>
<path fill-rule="evenodd" clip-rule="evenodd" d="M75.4395 242.234C75.6996 242.232 75.9594 242.23 76.2161 242.228C75.9546 242.23 75.6974 242.232 75.4395 242.234Z" fill="#E8E8E8"/>
<path fill-rule="evenodd" clip-rule="evenodd" d="M295.259 242.23C295.526 242.233 295.794 242.236 296.058 242.239C295.789 242.236 295.524 242.233 295.259 242.23Z" fill="#E8E8E8"/>
<path fill-rule="evenodd" clip-rule="evenodd" d="M301.033 242.198C301.291 242.217 301.549 242.235 301.804 242.253C301.545 242.235 301.289 242.217 301.033 242.198Z" fill="#E8E8E8"/>
<path fill-rule="evenodd" clip-rule="evenodd" d="M303.365 242.194C303.627 242.201 303.891 242.209 304.15 242.215C303.886 242.207 303.626 242.2 303.365 242.194Z" fill="#E8E8E8"/>
<path fill-rule="evenodd" clip-rule="evenodd" d="M315.337 136.222C315.319 135.856 315.302 135.491 315.285 135.126C315.302 135.492 315.319 135.857 315.337 136.222Z" fill="#E8E8E8"/>
<path fill-rule="evenodd" clip-rule="evenodd" d="M138.904 237.403C139.703 237.361 140.503 237.32 141.303 237.278C140.503 237.32 139.703 237.361 138.904 237.403Z" fill="#E8E8E8"/>
<path fill-rule="evenodd" clip-rule="evenodd" d="M90.666 104.501C91.3601 104.561 92.0541 104.621 92.7476 104.681C92.0535 104.621 91.3598 104.561 90.666 104.501Z" fill="#E8E8E8"/>
<path fill-rule="evenodd" clip-rule="evenodd" d="M286.632 134.676C286.653 135.338 286.676 136.001 286.697 136.661C286.675 135.998 286.653 135.337 286.632 134.676Z" fill="#E8E8E8"/>
<path fill-rule="evenodd" clip-rule="evenodd" d="M300.955 238.535C301.68 238.579 302.404 238.623 303.128 238.667C302.399 238.7 301.659 238.908 300.955 238.535Z" fill="#E8E8E8"/>
<path fill-rule="evenodd" clip-rule="evenodd" d="M296.668 160.198C296.673 159.567 296.679 158.935 296.684 158.305C296.679 158.937 296.673 159.568 296.668 160.198Z" fill="#E8E8E8"/>
<path fill-rule="evenodd" clip-rule="evenodd" d="M294.813 180.047C295.449 180.055 296.085 180.064 296.72 180.072C296.084 180.064 295.449 180.055 294.813 180.047Z" fill="#E8E8E8"/>
<path fill-rule="evenodd" clip-rule="evenodd" d="M134.776 168.94C134.76 169.422 134.744 169.903 134.729 170.382C134.745 169.9 134.76 169.42 134.776 168.94Z" fill="#E8E8E8"/>
<path fill-rule="evenodd" clip-rule="evenodd" d="M305.393 148.554C305.367 149.034 305.341 149.512 305.316 149.989C305.342 149.51 305.368 149.032 305.393 148.554Z" fill="#E8E8E8"/>
<path fill-rule="evenodd" clip-rule="evenodd" d="M291.831 236.403C292.293 236.372 292.756 236.341 293.217 236.311C292.869 236.589 292.519 236.613 291.831 236.403Z" fill="#E8E8E8"/>
<path fill-rule="evenodd" clip-rule="evenodd" d="M288.735 173.774C288.767 174.291 288.799 174.807 288.83 175.322C288.799 174.805 288.767 174.29 288.735 173.774Z" fill="#E8E8E8"/>
<path fill-rule="evenodd" clip-rule="evenodd" d="M115.81 92.2584C115.814 91.7596 115.819 91.2608 115.824 90.7639C115.82 91.2633 115.815 91.7608 115.81 92.2584Z" fill="#E8E8E8"/>
<path fill-rule="evenodd" clip-rule="evenodd" d="M289.295 180.152L291.019 180.114C290.45 180.389 289.876 180.399 289.295 180.152Z" fill="#E8E8E8"/>
<path fill-rule="evenodd" clip-rule="evenodd" d="M305.199 183.833C304.792 183.836 304.386 183.839 303.982 183.844C304.39 183.84 304.794 183.836 305.199 183.833Z" fill="#E8E8E8"/>
<path fill-rule="evenodd" clip-rule="evenodd" d="M156.342 236.602C156.904 236.609 157.467 236.616 158.03 236.624C157.463 236.908 156.9 236.948 156.342 236.602Z" fill="#E8E8E8"/>
<path fill-rule="evenodd" clip-rule="evenodd" d="M286.83 138.93C286.858 139.448 286.885 139.966 286.913 140.483C286.885 139.964 286.858 139.447 286.83 138.93Z" fill="#E8E8E8"/>
<path fill-rule="evenodd" clip-rule="evenodd" d="M104.549 105.718C105.03 105.481 105.516 105.441 106.006 105.692C105.52 105.701 105.034 105.71 104.549 105.718Z" fill="#E8E8E8"/>
<path fill-rule="evenodd" clip-rule="evenodd" d="M271.082 144.915C271.121 145.353 271.161 145.79 271.201 146.226C271.161 145.788 271.121 145.352 271.082 144.915Z" fill="#E8E8E8"/>
<path fill-rule="evenodd" clip-rule="evenodd" d="M311.751 134.712C311.504 134.284 311.512 133.859 311.763 133.437C311.759 133.863 311.755 134.288 311.751 134.712Z" fill="#E8E8E8"/>
<path fill-rule="evenodd" clip-rule="evenodd" d="M286.909 119.861C286.909 120.294 286.909 120.727 286.909 121.158C286.909 120.724 286.909 120.293 286.909 119.861Z" fill="#E8E8E8"/>
<path fill-rule="evenodd" clip-rule="evenodd" d="M304.167 179.841C304.662 179.689 305.158 179.474 305.651 179.846C305.156 179.844 304.661 179.842 304.167 179.841Z" fill="#E8E8E8"/>
<path fill-rule="evenodd" clip-rule="evenodd" d="M75.6655 237.208C76.1222 237.007 76.578 236.902 77.028 237.223C76.5735 237.218 76.1197 237.213 75.6655 237.208Z" fill="#E8E8E8"/>
<path fill-rule="evenodd" clip-rule="evenodd" d="M169.084 236.564C169.572 236.351 170.06 236.234 170.542 236.579C170.056 236.574 169.57 236.569 169.084 236.564Z" fill="#E8E8E8"/>
<path fill-rule="evenodd" clip-rule="evenodd" d="M60.3696 173.38C60.4062 173.821 60.4432 174.262 60.4795 174.702C60.4425 174.261 60.4059 173.821 60.3696 173.38Z" fill="#E8E8E8"/>
<path fill-rule="evenodd" clip-rule="evenodd" d="M173.752 147.981C174.233 147.806 174.712 147.715 175.184 148.007C174.706 147.998 174.229 147.989 173.752 147.981Z" fill="#E8E8E8"/>
<path fill-rule="evenodd" clip-rule="evenodd" d="M286.822 161.107C286.849 161.538 286.876 161.969 286.902 162.399C286.875 161.968 286.849 161.537 286.822 161.107Z" fill="#E8E8E8"/>
<path fill-rule="evenodd" clip-rule="evenodd" d="M60.0591 122.215C60.0193 122.562 59.9794 122.91 59.9399 123.255C59.9798 122.907 60.0193 122.561 60.0591 122.215Z" fill="#E8E8E8"/>
<path fill-rule="evenodd" clip-rule="evenodd" d="M32.2093 222.901C32.1846 223.239 32.1602 223.577 32.1357 223.913C32.1611 223.575 32.1852 223.238 32.2093 222.901Z" fill="#E8E8E8"/>
<path fill-rule="evenodd" clip-rule="evenodd" d="M296.881 163.388C296.854 163.038 296.827 162.689 296.8 162.341C296.827 162.691 296.854 163.04 296.881 163.388Z" fill="#E8E8E8"/>
<path fill-rule="evenodd" clip-rule="evenodd" d="M134.614 171.914C134.694 172.168 134.773 172.423 134.853 172.678C134.319 172.807 134.239 172.552 134.614 171.914Z" fill="#E8E8E8"/>
<path fill-rule="evenodd" clip-rule="evenodd" d="M166.716 147.405C167.151 147.403 167.586 147.402 168.02 147.4C167.586 147.606 167.152 147.748 166.716 147.405Z" fill="#E8E8E8"/>
<path fill-rule="evenodd" clip-rule="evenodd" d="M60.6133 175.468C60.6281 175.853 60.6428 176.239 60.657 176.623C60.6419 176.237 60.6274 175.853 60.6133 175.468Z" fill="#E8E8E8"/>
<path fill-rule="evenodd" clip-rule="evenodd" d="M272.137 179.532C272.152 179.887 272.168 180.242 272.184 180.595C272.169 180.239 272.152 179.886 272.137 179.532Z" fill="#E8E8E8"/>
<path fill-rule="evenodd" clip-rule="evenodd" d="M56.3022 238.062C56.715 237.788 57.1286 237.812 57.543 238.058C57.1293 238.06 56.7156 238.061 56.3022 238.062Z" fill="#E8E8E8"/>
<path fill-rule="evenodd" clip-rule="evenodd" d="M67.1704 117.257C67.1926 117.619 67.2151 117.982 67.2382 118.342C67.216 117.979 67.1932 117.618 67.1704 117.257Z" fill="#E8E8E8"/>
<path fill-rule="evenodd" clip-rule="evenodd" d="M54.1553 238.1C54.5844 238.102 55.0135 238.104 55.4422 238.105C55.0119 238.398 54.5831 238.412 54.1553 238.1Z" fill="#E8E8E8"/>
<path fill-rule="evenodd" clip-rule="evenodd" d="M291.758 111.57C291.761 111.202 291.765 110.834 291.768 110.467C291.764 110.836 291.761 111.203 291.758 111.57Z" fill="#E8E8E8"/>
<path fill-rule="evenodd" clip-rule="evenodd" d="M94.7642 105.133C95.1746 105.187 95.5851 105.241 95.9952 105.294C95.5848 105.24 95.1743 105.187 94.7642 105.133Z" fill="#E8E8E8"/>
<path fill-rule="evenodd" clip-rule="evenodd" d="M58.5439 136.897C58.5494 137.241 58.5549 137.585 58.5613 137.927C58.5558 137.583 58.55 137.24 58.5439 136.897Z" fill="#E8E8E8"/>
<path fill-rule="evenodd" clip-rule="evenodd" d="M294.521 136.848C294.499 136.498 294.476 136.148 294.454 135.8C294.476 136.15 294.499 136.5 294.521 136.848Z" fill="#E8E8E8"/>
<path fill-rule="evenodd" clip-rule="evenodd" d="M198.787 237.689C199.294 237.735 199.8 237.781 200.306 237.827C199.8 237.781 199.294 237.735 198.787 237.689Z" fill="#E8E8E8"/>
<path fill-rule="evenodd" clip-rule="evenodd" d="M197.096 224.578C196.822 224.582 196.548 224.587 196.277 224.592C196.551 224.589 196.823 224.583 197.096 224.578Z" fill="#E8E8E8"/>
<path fill-rule="evenodd" clip-rule="evenodd" d="M197.118 237.489C197.543 237.531 197.968 237.573 198.393 237.614C197.968 237.572 197.543 237.531 197.118 237.489Z" fill="#E8E8E8"/>
<path fill-rule="evenodd" clip-rule="evenodd" d="M120.672 208.882C121.224 212.005 116.371 215.06 115.986 210.62C115.845 208.996 116.931 207.855 118.147 206.862C119.872 205.454 120.836 206.803 120.672 208.882Z" fill="#E8E8E8"/>
<path fill-rule="evenodd" clip-rule="evenodd" d="M67.1723 170.778C68.3156 171.246 77.0513 174.093 72.5137 175.525C71.3125 175.904 69.4969 175.96 68.4557 175.292C67.2031 174.489 65.9396 172.118 67.1723 170.778Z" fill="#E8E8E8"/>
<path fill-rule="evenodd" clip-rule="evenodd" d="M69.322 128.484C72.2871 128.14 75.019 133.01 71.3634 132.852C68.7024 132.737 65.1239 128.484 69.322 128.484Z" fill="#E8E8E8"/>
<path fill-rule="evenodd" clip-rule="evenodd" d="M79.9294 140.425C82.4053 142.586 77.816 147.42 75.994 145.549C75.0636 144.593 75.9217 142.534 76.6897 141.735C77.4778 140.914 78.8801 140.76 79.9294 140.425Z" fill="#E8E8E8"/>
<path fill-rule="evenodd" clip-rule="evenodd" d="M87.2997 196.429C85.838 196.661 79.41 198.761 80.7506 194.946C81.2619 193.491 82.6879 193.923 83.9916 193.99C86.0927 194.097 87.2997 193.996 87.2997 196.429Z" fill="#E8E8E8"/>
<path fill-rule="evenodd" clip-rule="evenodd" d="M83.066 206.255C85.2541 207.426 82.0555 213.978 80.2419 212.584C77.7254 210.65 81.1672 206.844 83.066 206.255Z" fill="#E8E8E8"/>
<path fill-rule="evenodd" clip-rule="evenodd" d="M92.6092 200.989C93.6733 200.554 98.6891 205.379 96.7797 206.721C95.8011 207.409 93.9469 206.23 93.3569 205.519C92.2508 204.185 92.1506 202.54 92.6092 200.989Z" fill="#E8E8E8"/>
<path fill-rule="evenodd" clip-rule="evenodd" d="M63.6705 161.553C64.758 161.732 66.6356 161.788 66.7059 163.317C66.7676 164.66 65.0837 165.095 63.8982 165.2C62.6681 165.309 61.0397 164.962 61.0163 163.416C60.9916 161.747 63.6319 161.848 63.6705 161.553Z" fill="#E8E8E8"/>
<path fill-rule="evenodd" clip-rule="evenodd" d="M90.4877 228.054C91.6458 228.757 97.048 231.289 94.7323 233.117C93.8658 233.802 91.2389 232.388 90.6476 231.67C89.942 230.812 89.2524 228.803 90.4877 228.054Z" fill="#E8E8E8"/>
<path fill-rule="evenodd" clip-rule="evenodd" d="M105.505 209.684C105.338 206.89 110.052 205.778 109.075 209.744C108.799 210.862 108.533 212.56 107.15 212.625C105.516 212.702 105.457 210.768 105.505 209.684Z" fill="#E8E8E8"/>
<path fill-rule="evenodd" clip-rule="evenodd" d="M90.9433 161.093C90.976 163.213 86.9144 165.082 86.883 161.723C86.855 158.72 91.0949 157.842 90.9433 161.093Z" fill="#E8E8E8"/>
<path fill-rule="evenodd" clip-rule="evenodd" d="M88.2609 150.054C89.2617 150.376 90.5917 150.542 90.6797 151.814C90.7732 153.16 89.5232 153.759 88.3984 153.683C87.476 153.621 86.111 152.938 85.9433 151.938C85.6976 150.468 87.1314 150.372 88.2609 150.054Z" fill="#E8E8E8"/>
<path fill-rule="evenodd" clip-rule="evenodd" d="M69.6514 188.862C69.6344 187.113 73.1397 185.011 73.7853 187.041C73.9918 187.69 72.3397 190.602 71.7901 190.82C70.3362 191.397 70.1332 190.052 69.6514 188.862Z" fill="#E8E8E8"/>
<path fill-rule="evenodd" clip-rule="evenodd" d="M98.3753 217.975C97.1908 219.035 93.6377 222.013 93.9033 218.015C94.0729 215.461 98.6879 215.595 98.3753 217.975Z" fill="#E8E8E8"/>
<path fill-rule="evenodd" clip-rule="evenodd" d="M156.265 229.401C156.653 227.72 162.212 230.636 160.357 232.76C159.735 233.472 158.107 232.827 157.481 232.405C156.242 231.569 156.215 230.797 156.265 229.401Z" fill="#E8E8E8"/>
<path fill-rule="evenodd" clip-rule="evenodd" d="M125.292 193.417C125.509 192.668 125.75 191.343 126.465 190.865C127.759 189.999 128.885 191.305 128.885 192.68C128.886 195.246 125.965 196.056 125.292 193.417Z" fill="#E8E8E8"/>
<path fill-rule="evenodd" clip-rule="evenodd" d="M111.515 223.421C112.959 223.752 116.172 227.26 114.309 228.692C112.515 230.069 110.129 224.469 111.515 223.421Z" fill="#E8E8E8"/>
<path fill-rule="evenodd" clip-rule="evenodd" d="M112.889 196.864C114.745 197.012 117.296 200.017 114.411 200.494C112.155 200.868 109.531 197.6 112.889 196.864Z" fill="#E8E8E8"/>
<path fill-rule="evenodd" clip-rule="evenodd" d="M129.69 210.693C130.155 209.125 134.758 210.805 134.499 212.531C134.362 213.448 132.48 213.664 131.491 213.421C130.035 213.064 129.657 212.109 129.69 210.693Z" fill="#E8E8E8"/>
<path fill-rule="evenodd" clip-rule="evenodd" d="M75.4379 123.138C75.4713 121.111 79.3656 120.285 79.6508 122.328C79.9087 124.173 75.3891 126.136 75.4379 123.138Z" fill="#E8E8E8"/>
<path fill-rule="evenodd" clip-rule="evenodd" d="M128.403 231.575C128.684 230.556 128.805 229.329 130.077 229.195C131.535 229.041 131.492 230.159 131.321 231.317C130.854 234.468 129.074 234.625 128.403 231.575Z" fill="#E8E8E8"/>
<path fill-rule="evenodd" clip-rule="evenodd" d="M66.9059 147.251C64.8757 147.709 61.1575 143.799 63.4301 142.96C65.0315 142.368 66.9059 146.071 66.9059 147.251Z" fill="#E8E8E8"/>
<path fill-rule="evenodd" clip-rule="evenodd" d="M92.7995 177.622C91.7663 178.108 91.5283 178.404 90.7347 177.605C90.0435 176.91 90.074 174.973 90.6673 174.249C92.9393 171.479 92.8859 176.501 92.7995 177.622Z" fill="#E8E8E8"/>
<path fill-rule="evenodd" clip-rule="evenodd" d="M101.229 172.004C102.306 172.142 105.508 175.179 103.841 176.386C101.798 177.864 100.642 173.232 101.229 172.004Z" fill="#E8E8E8"/>
<path fill-rule="evenodd" clip-rule="evenodd" d="M124.543 172.804C123.759 175.82 121.804 173.791 121.915 171.509C122.093 167.853 124.119 171.037 124.543 172.804Z" fill="#E8E8E8"/>
<path fill-rule="evenodd" clip-rule="evenodd" d="M136.43 221.246C137.755 221.794 139.554 226.86 137.661 227.132C135.535 227.436 136.243 222.301 136.43 221.246Z" fill="#E8E8E8"/>
<path fill-rule="evenodd" clip-rule="evenodd" d="M119.882 218.4C121.398 217.888 121.954 221.087 121.072 221.681C119.133 222.988 119.542 219.155 119.882 218.4Z" fill="#E8E8E8"/>
<path fill-rule="evenodd" clip-rule="evenodd" d="M105.506 209.685C105.487 210.109 105.468 210.534 105.448 210.956C105.467 210.531 105.486 210.108 105.506 209.685Z" fill="#E8E8E8"/>
<path fill-rule="evenodd" clip-rule="evenodd" d="M156.265 229.402C156.249 229.837 156.234 230.272 156.217 230.706C156.232 230.269 156.249 229.836 156.265 229.402Z" fill="#E8E8E8"/>
<path fill-rule="evenodd" clip-rule="evenodd" d="M129.69 210.693C129.681 211.062 129.672 211.432 129.663 211.799C129.671 211.428 129.681 211.061 129.69 210.693Z" fill="#E8E8E8"/>
<path fill-rule="evenodd" clip-rule="evenodd" d="M297.407 204.336C300.551 204.235 304.058 203.052 307.147 203.429C307.997 203.532 309.955 203.747 308.592 205.008C307.941 205.611 304.821 205.299 303.877 205.499C298.105 206.721 291.553 207.509 285.635 207.408C282.864 207.36 280.073 207.138 277.304 206.992C274.537 206.845 274.265 205.721 277.379 205.363C280.612 204.992 283.931 205.129 287.181 205.126C290.598 205.121 293.997 204.564 297.407 204.336Z" fill="#E8E8E8"/>
<path fill-rule="evenodd" clip-rule="evenodd" d="M304.308 196.763C304.006 197.624 303.74 199.601 302.581 199.731C300.957 199.912 300.688 197.124 300.748 196.104C300.82 194.874 301.263 192.829 302.793 193.256C304.085 193.615 304.215 195.778 304.308 196.763Z" fill="#E8E8E8"/>
<path fill-rule="evenodd" clip-rule="evenodd" d="M294.478 196.131C294.715 195.209 294.831 193.129 296.136 193.058C297.594 192.98 298.011 195.147 298.001 196.185C297.992 197.171 297.627 199.033 296.466 199.26C294.892 199.569 294.751 197.185 294.478 196.131Z" fill="#E8E8E8"/>
<path fill-rule="evenodd" clip-rule="evenodd" d="M278.106 197.786C277.633 198.895 277.321 200.422 275.859 199.666C274.728 199.081 274.571 196.724 274.784 195.644C275.005 194.526 275.473 193.243 276.758 193.746C278.24 194.326 278.09 196.565 278.106 197.786Z" fill="#E8E8E8"/>
<path fill-rule="evenodd" clip-rule="evenodd" d="M290.503 196.763C289.11 200.987 286.568 198.129 287.533 194.975C288.542 191.678 290.375 194.88 290.503 196.763Z" fill="#E8E8E8"/>
<path fill-rule="evenodd" clip-rule="evenodd" d="M283.714 196.972C283.327 197.715 282.915 199.32 281.872 199.151C280.593 198.944 280.552 196.482 280.692 195.566C280.815 194.763 281.175 193.426 282.246 193.444C283.792 193.469 283.689 196.009 283.714 196.972Z" fill="#E8E8E8"/>
<path fill-rule="evenodd" clip-rule="evenodd" d="M311.512 197.782C310.475 200.11 309.048 198.105 309.505 196.452C310.182 194 311.454 196.172 311.512 197.782Z" fill="#E8E8E8"/>
<path fill-rule="evenodd" clip-rule="evenodd" d="M286.106 205.128C284.973 205.124 283.84 205.12 282.707 205.116C283.841 204.902 284.975 204.819 286.106 205.128Z" fill="#E8E8E8"/>
<path fill-rule="evenodd" clip-rule="evenodd" d="M308.621 203.419C307.638 203.426 306.655 203.432 305.673 203.438C306.654 203.144 307.637 203.137 308.621 203.419Z" fill="#E8E8E8"/>
<path fill-rule="evenodd" clip-rule="evenodd" d="M278.106 197.786C278.098 197.222 278.091 196.657 278.084 196.094C278.375 196.655 278.354 197.219 278.106 197.786Z" fill="#E8E8E8"/>
<path fill-rule="evenodd" clip-rule="evenodd" d="M284.271 207.396C284.727 207.4 285.183 207.404 285.635 207.408C285.178 207.404 284.724 207.4 284.271 207.396Z" fill="#E8E8E8"/>
<path fill-rule="evenodd" clip-rule="evenodd" d="M276.612 206.992C277.074 206.992 277.536 206.992 277.994 206.992C277.531 206.992 277.071 206.992 276.612 206.992Z" fill="#E8E8E8"/>
<path fill-rule="evenodd" clip-rule="evenodd" d="M280.399 205.178C279.757 205.23 279.114 205.283 278.472 205.336C279.115 205.283 279.757 205.23 280.399 205.178Z" fill="#E8E8E8"/>
<path fill-rule="evenodd" clip-rule="evenodd" d="M289.084 205.122C288.449 205.123 287.815 205.124 287.181 205.126C287.815 204.858 288.449 204.851 289.084 205.122Z" fill="#E8E8E8"/>
<path fill-rule="evenodd" clip-rule="evenodd" d="M283.713 196.971C283.698 196.383 283.682 195.794 283.667 195.207C283.683 195.795 283.698 196.383 283.713 196.971Z" fill="#E8E8E8"/>
<path fill-rule="evenodd" clip-rule="evenodd" d="M274.784 195.645C274.78 196.218 274.776 196.792 274.772 197.364C274.776 196.79 274.779 196.217 274.784 195.645Z" fill="#E8E8E8"/>
<path fill-rule="evenodd" clip-rule="evenodd" d="M301.011 204.123C300.45 204.173 299.89 204.224 299.33 204.275C299.89 204.224 300.451 204.173 301.011 204.123Z" fill="#E8E8E8"/>
<path fill-rule="evenodd" clip-rule="evenodd" d="M311.512 197.782C311.494 197.281 311.476 196.78 311.458 196.279C311.476 196.781 311.494 197.281 311.512 197.782Z" fill="#E8E8E8"/>
<path fill-rule="evenodd" clip-rule="evenodd" d="M287.659 207.412C288.049 207.405 288.439 207.397 288.826 207.391C288.434 207.398 288.046 207.405 287.659 207.412Z" fill="#E8E8E8"/>
<path fill-rule="evenodd" clip-rule="evenodd" d="M304.308 196.763C304.274 196.402 304.24 196.042 304.206 195.682C304.24 196.043 304.274 196.403 304.308 196.763Z" fill="#E8E8E8"/>
<path fill-rule="evenodd" clip-rule="evenodd" d="M290.504 196.762C290.479 196.392 290.453 196.022 290.428 195.653C290.454 196.023 290.479 196.393 290.504 196.762Z" fill="#E8E8E8"/>
<path fill-rule="evenodd" clip-rule="evenodd" d="M89.2431 88.0349C87.7082 87.6321 87.4204 85.4751 87.6671 84.1503C87.9468 83.5118 88.2265 82.8736 88.5063 82.2351C88.3968 81.999 88.2876 81.763 88.1784 81.5269C88.3187 80.212 87.96 79.6406 89.4711 80.1731C92.2782 81.163 92.7269 87.9334 89.2431 88.0349Z" fill="#E8E8E8"/>
<path fill-rule="evenodd" clip-rule="evenodd" d="M111.964 83.8643C113.228 83.7647 115.525 85.2373 114.266 86.662C113.486 87.5446 110.917 87.1271 109.868 87.3115C108.478 87.5559 107.028 87.8902 107.78 85.8077C108.371 84.1723 110.48 83.8216 111.964 83.8643Z" fill="#E8E8E8"/>
<path fill-rule="evenodd" clip-rule="evenodd" d="M110.633 93.6596C109.349 92.6296 109.922 87.9381 111.877 88.7822C113.887 89.651 111.705 92.9825 110.633 93.6596Z" fill="#E8E8E8"/>
<path fill-rule="evenodd" clip-rule="evenodd" d="M87.6672 84.1501C87.6672 84.6438 87.6668 85.1378 87.6659 85.6292C87.398 85.1346 87.4064 84.6422 87.6672 84.1501Z" fill="#E8E8E8"/>
<path fill-rule="evenodd" clip-rule="evenodd" d="M89.2427 88.0348C89.5044 88.0274 89.7665 88.0197 90.0251 88.0129C89.762 88.0213 89.5025 88.028 89.2427 88.0348Z" fill="#E8E8E8"/>
<path fill-rule="evenodd" clip-rule="evenodd" d="M247.834 223.143C247.714 225.277 245.422 223.699 245.585 222.271C245.88 219.681 247.345 222.241 247.834 223.143Z" fill="#E8E8E8"/>
<path fill-rule="evenodd" clip-rule="evenodd" d="M31.4047 83.3047C31.5266 83.021 31.648 82.7373 31.7698 82.4537C31.9204 82.9483 31.9626 83.1942 31.4047 83.3047ZM31.5668 84.6153C31.3029 84.6621 31.4069 83.8411 31.4069 83.6981C31.8627 83.9539 31.4852 84.2608 31.5668 84.6153ZM31.1554 82.2468C31.3804 82.115 31.6053 81.9834 31.8303 81.8516C31.517 82.4272 31.6399 82.0675 31.7692 82.452C31.5329 82.5193 31.3031 82.4408 31.1554 82.2468ZM29.8222 86.7459C28.9789 89.7802 26.3005 92.1732 23.4715 93.4128C21.8458 94.1248 20.2476 94.303 18.4921 94.2236C17.815 94.193 17.0183 93.9748 16.3667 94.0154C15.865 94.0467 15.8876 94.0683 15.4721 94.4894C15.2882 94.1537 15.4214 93.9181 15.0526 93.7226C14.5925 93.4788 14.4014 93.7628 14.1732 94.1004C13.8745 93.7934 13.7522 93.6331 13.3652 93.4508C13.3774 93.4566 12.9947 93.4421 13.0103 93.4469C12.9411 93.4257 12.5249 93.1603 12.3946 93.112C11.8599 92.9131 11.2415 92.8313 10.7481 92.5458C10.3164 92.2966 9.96095 91.5969 9.46708 92.1346C9.46664 91.2362 8.24633 90.8635 7.67435 90.393C6.7806 89.6576 6.07003 88.5689 5.62446 87.5158C5.1493 86.3927 4.99069 85.3161 4.76834 84.1587C4.613 83.35 3.59567 82.181 4.20659 81.365C4.35214 81.7072 4.28383 82.0576 4.52554 82.3679C4.7431 81.9521 4.86277 81.4869 4.9611 81.0319C5.0094 80.809 5.28919 80.1548 5.25743 79.9606C5.19281 79.5632 4.69676 79.5416 4.97177 79.0544C5.54222 79.67 6.00258 78.589 5.57159 78.1581C5.35881 78.3961 5.28071 78.6665 5.18259 78.9612C4.6217 77.8384 6.17403 78.2 5.83441 77.1863C6.40094 77.0782 6.72664 76.9367 6.94203 76.3815C7.18157 75.7638 7.00534 75.6292 7.54925 75.2209C7.73635 75.0807 8.26547 74.879 8.36229 74.6481C8.54961 74.2021 8.07293 74.0698 8.49043 73.6519C8.63141 73.8972 9.18098 74.3829 9.48187 73.9208C9.54214 73.8286 9.28911 73.7632 9.47317 73.5509C9.74578 73.2368 10.0508 72.9287 10.5118 72.9947C10.1467 72.0896 12.4795 72.0179 13.0769 71.8043C13.6756 71.5905 14.1837 71.45 14.8185 71.4004C15.4527 71.3508 15.4843 71.1665 16.0212 70.7879C16.0667 71.3297 16.1981 71.2105 16.5864 71.3061C16.6798 71.1473 16.7755 71.1294 16.8734 71.2526C16.9709 71.3445 17.0901 71.3877 17.2306 71.3825C17.4439 71.3935 17.6858 71.3659 17.9092 71.3704C18.4338 71.3806 18.9749 71.3372 19.4894 71.3482C19.6221 71.3262 19.7461 71.2805 19.8623 71.2108C19.9108 71.3014 19.9595 71.3922 20.0078 71.4831C20.2805 71.5169 20.3016 71.8557 20.6368 71.4852C20.736 71.9562 21.021 71.7111 21.3222 71.8389C21.5967 71.9556 21.6405 72.142 21.8939 72.2721C22.0606 72.4061 22.2392 72.4238 22.4302 72.3256C22.6119 72.4592 22.7964 72.5888 22.9835 72.7146C23.3283 72.9077 23.7347 73.026 24.0981 73.1785C24.3398 73.2773 24.58 73.3803 24.8182 73.4869C24.8254 73.7721 24.9544 73.8729 25.205 73.7889C25.4315 73.9769 25.4953 73.9695 25.715 74.2895C26.2128 75.0147 26.6544 75.578 27.2832 76.2262C30.016 79.044 30.8556 83.0279 29.8222 86.7459ZM30.6609 74.7637C29.4271 73.1252 27.6807 71.249 26.1114 70.2142C25.316 69.6894 24.1994 68.7476 23.2267 68.4701C22.9961 68.4043 22.7574 68.4 22.5307 68.331C22.3556 68.2777 22.2603 68.0995 22.0606 68.0673C21.9209 68.0449 21.9054 68.3549 21.7571 68.3264C21.4468 68.2665 21.2501 67.9612 21.0311 67.7702C20.5605 68.5744 20.305 67.222 19.6141 68.1312C18.7917 66.8524 16.8597 67.132 15.5465 67.1965C15.157 67.2155 14.9741 67.3529 14.6288 67.4548C14.3074 67.5495 14.2757 67.5251 13.9248 67.5225C13.0508 67.5158 12.275 67.6248 11.4671 68.0054C10.11 68.6447 8.86421 69.6409 7.57514 70.4114C6.13443 71.2725 4.83579 72.3686 3.73361 73.628C-0.250865 78.1819 -1.31628 84.8289 1.86081 90.1082C6.90722 98.4929 19.9243 99.389 27.3004 93.6998C32.999 89.304 35.1677 80.7477 30.6609 74.7637Z" fill="#E8E8E8"/>
<path fill-rule="evenodd" clip-rule="evenodd" d="M215.24 102.883C215.307 102.729 215.373 102.575 215.439 102.421C215.521 102.69 215.544 102.823 215.24 102.883ZM215.329 103.594C215.185 103.619 215.242 103.174 215.242 103.096C215.489 103.235 215.284 103.402 215.329 103.594ZM215.105 102.309C215.227 102.237 215.349 102.166 215.472 102.095C215.301 102.407 215.368 102.212 215.439 102.42C215.31 102.457 215.185 102.414 215.105 102.309ZM214.38 104.75C213.922 106.396 212.465 107.695 210.927 108.367C210.043 108.753 209.174 108.85 208.22 108.807C207.852 108.79 207.419 108.672 207.064 108.694C206.792 108.711 206.804 108.723 206.578 108.951C206.478 108.769 206.55 108.641 206.35 108.535C206.1 108.403 205.996 108.557 205.872 108.74C205.709 108.574 205.643 108.487 205.433 108.388C205.439 108.391 205.231 108.383 205.24 108.386C205.202 108.374 204.976 108.23 204.905 108.204C204.614 108.096 204.278 108.052 204.01 107.897C203.775 107.762 203.582 107.382 203.313 107.674C203.313 107.186 202.649 106.984 202.338 106.729C201.853 106.33 201.466 105.739 201.224 105.168C200.966 104.558 200.879 103.974 200.759 103.346C200.674 102.908 200.121 102.273 200.453 101.831C200.532 102.016 200.495 102.206 200.627 102.375C200.745 102.149 200.81 101.897 200.863 101.65C200.89 101.529 201.042 101.174 201.024 101.069C200.989 100.853 200.72 100.841 200.869 100.577C201.179 100.911 201.43 100.324 201.195 100.091C201.08 100.22 201.037 100.366 200.984 100.526C200.679 99.9172 201.523 100.113 201.338 99.5634C201.646 99.5047 201.823 99.4279 201.94 99.1267C202.071 98.7916 201.975 98.7185 202.27 98.4971C202.372 98.421 202.66 98.3115 202.713 98.1863C202.814 97.9443 202.555 97.8725 202.782 97.6458C202.859 97.7789 203.158 98.0424 203.321 97.7916C203.354 97.7417 203.216 97.7062 203.316 97.591C203.465 97.4206 203.631 97.2534 203.881 97.2892C203.683 96.7981 204.951 96.7593 205.276 96.6434C205.601 96.5274 205.878 96.4512 206.223 96.4242C206.567 96.3973 206.585 96.2973 206.877 96.0919C206.901 96.3858 206.973 96.3212 207.184 96.3731C207.235 96.2869 207.287 96.2772 207.34 96.344C207.393 96.3939 207.458 96.4173 207.534 96.4145C207.65 96.4205 207.782 96.4055 207.903 96.408C208.188 96.4135 208.482 96.3899 208.762 96.3959C208.834 96.384 208.902 96.3591 208.965 96.3213C208.991 96.3705 209.018 96.4198 209.044 96.4691C209.192 96.4874 209.204 96.6712 209.386 96.4702C209.44 96.7258 209.595 96.5928 209.759 96.6621C209.908 96.7254 209.932 96.8266 210.07 96.8972C210.16 96.9699 210.257 96.9795 210.361 96.9262C210.46 96.9987 210.56 97.069 210.662 97.1373C210.849 97.242 211.07 97.3062 211.268 97.3889C211.399 97.4426 211.53 97.4984 211.659 97.5562C211.663 97.711 211.733 97.7657 211.87 97.7201C211.993 97.8221 212.028 97.8181 212.147 97.9917C212.418 98.3852 212.658 98.6908 213 99.0425C214.485 100.571 214.942 102.733 214.38 104.75ZM214.836 98.249C214.165 97.36 213.216 96.3421 212.363 95.7806C211.93 95.4959 211.323 94.9849 210.794 94.8344C210.669 94.7987 210.539 94.7963 210.416 94.7589C210.321 94.73 210.269 94.6333 210.16 94.6158C210.084 94.6037 210.076 94.7719 209.995 94.7564C209.826 94.7239 209.719 94.5582 209.6 94.4546C209.345 94.8909 209.206 94.1572 208.83 94.6505C208.383 93.9567 207.332 94.1084 206.618 94.1434C206.407 94.1537 206.307 94.2282 206.12 94.2835C205.945 94.3349 205.928 94.3217 205.737 94.3203C205.262 94.3166 204.84 94.3757 204.401 94.5822C203.663 94.9291 202.985 95.4696 202.285 95.8876C201.501 96.3548 200.795 96.9495 200.196 97.6328C198.03 100.104 197.45 103.71 199.178 106.574C201.921 111.123 208.999 111.61 213.009 108.523C216.107 106.138 217.286 101.496 214.836 98.249Z" fill="#E8E8E8"/>
<path fill-rule="evenodd" clip-rule="evenodd" d="M22.6842 147.692C21.505 147.287 19.5322 147.375 19.2405 148.836C19.1184 149.448 19.3562 150.095 19.7965 150.539C20.3071 151.054 21.1202 151.102 21.0768 150.205C21.0466 149.584 20.4307 149.044 21.5136 148.919C22.1875 148.841 23.1842 149.325 23.2177 150.039C23.2935 151.649 20.3891 151.775 19.3187 151.497C17.1943 150.945 17.7715 148.81 19.2303 147.835C19.6072 147.584 20.6885 147.196 20.7379 146.673C20.8036 145.979 19.9097 146.121 19.4716 146.212C16.2514 146.885 15.5495 152.061 18.9143 153.037C20.4424 153.48 22.5943 153.023 23.5152 151.695C24.3786 150.45 24.3903 148.278 22.6842 147.692Z" fill="#E8E8E8"/>
<path fill-rule="evenodd" clip-rule="evenodd" d="M49.6793 66.3295C48.6992 66.7979 47.7192 67.2662 46.7394 67.7346C46.4154 67.0464 45.8681 65.1665 45.0464 64.9264C43.7162 64.5377 44.5633 66.587 44.7928 67.0556C44.9814 67.4404 45.4189 68.0368 45.3127 68.4956C45.1702 69.1136 44.2919 69.3326 43.8321 69.6514C42.6943 70.4407 42.7034 72.0983 44.3511 71.3959C45.2835 70.9983 46.4379 69.8957 47.1526 71.1476C47.4826 71.7252 48.2644 74.9523 49.0809 72.8418C49.5862 71.5352 47.1543 70.1777 48.3532 69.0723C48.7392 68.7166 49.191 68.6866 49.5765 68.4821C50.5076 67.9882 49.9827 67.0756 49.6793 66.3295Z" fill="#E8E8E8"/>
<path fill-rule="evenodd" clip-rule="evenodd" d="M214.37 47.2339C218.447 50.1314 223.123 52.1107 227.383 54.7202C228.45 55.3733 231.772 56.7294 231.74 57.9409C231.721 58.6493 230.723 59.5375 230.286 60.0284C229.537 60.8694 228.832 61.7192 228.141 62.6088C224.977 66.6828 221.998 70.7952 218.569 74.6646C218.053 75.2466 216.498 78.0256 215.996 76.6453C215.768 76.0195 215.956 75.3163 215.363 74.7329C215.057 74.4323 213.878 74.2667 214.221 73.6221C214.45 73.7251 214.68 73.8284 214.909 73.9312C214.731 73.416 214.744 72.8517 214.477 72.3648C214.311 72.0622 213.987 71.9191 213.875 71.5784C213.72 71.1077 213.983 70.5607 213.939 70.0755C213.895 69.5917 213.645 69.1343 213.495 68.6778C212.608 65.9719 212.29 63.2441 211.836 60.4522C211.386 57.6896 210.686 55.0136 210.411 52.2203C210.121 49.2699 209.765 46.3255 209.29 43.3987C210.138 43.5177 210.789 44.4389 211.388 44.9597C212.33 45.7782 213.353 46.5116 214.37 47.2339ZM211.174 75.7978C210.979 75.645 210.827 75.4572 210.717 75.2346C212.715 74.2442 211.51 75.9339 211.174 75.7978ZM209.958 73.6856C209.087 73.9258 208.462 73.9744 207.79 73.6158C207.726 73.582 207.8 73.3199 207.685 73.2661C207.584 73.2194 207.431 73.2772 207.345 73.2333C207.053 73.0845 206.541 73.4106 206.491 72.8409C207.603 72.5005 208.696 71.8724 209.869 71.7665C211.5 71.6197 211.425 73.2809 209.958 73.6856ZM206.142 70.4013C204.954 70.6794 203.975 71.3288 202.712 71.1592C201.527 71.0004 200.497 70.3854 199.562 69.6768C201.901 69.0142 204.354 68.8947 206.691 68.2538C207.452 68.0452 208.451 67.4951 209.272 67.7168C210.183 67.9632 210.24 68.817 210.513 69.5939C209.055 69.8563 207.586 70.0638 206.142 70.4013ZM198.709 67.1046C197.568 67.3775 196.401 67.9743 195.446 66.9444C195.292 66.7782 195.157 66.9441 195.175 66.4321C195.194 65.8922 195.684 65.5444 196.105 65.3543C197.096 64.9075 198.484 65.1964 199.536 65.1306C201.214 65.0262 202.922 64.6773 204.582 64.4086C205.731 64.2228 206.918 63.8101 208.092 63.8915C208.999 63.9544 210.093 64.7276 208.771 65.2917C207.568 65.8057 205.763 65.7269 204.46 65.9494C202.532 66.2784 200.612 66.6498 198.709 67.1046ZM197.594 61.7303C197.668 61.8057 197.742 61.8811 197.816 61.9566C197.804 61.9537 198.254 61.5891 198.373 61.5786C198.952 61.5282 199.534 61.5681 200.114 61.5354C201.45 61.4599 202.796 61.2271 204.108 60.9707C205.176 60.7618 206.265 60.4018 207.365 60.492C208.317 60.57 208.417 60.7652 208.48 61.6848C206.049 61.6848 203.545 61.6335 201.156 62.1484C199.6 62.4833 197.886 63.4811 197.107 61.6825C197.27 61.6984 197.432 61.7144 197.594 61.7303ZM199.114 57.8373C199.717 58.2967 201.36 57.5328 202.082 57.4565C202.867 57.3734 203.605 57.2872 204.365 57.0917C205.04 56.9181 207.27 56.0512 207.787 56.8802C208.58 58.1504 205.37 58.3835 204.861 58.4464C202.727 58.7102 200.512 58.9441 198.436 59.5042C198.662 58.9487 198.888 58.3931 199.114 57.8373ZM202.041 53.5232C202.197 54.1103 207.024 51.9468 207.112 53.5192C207.179 54.7256 202.336 55.3266 201.466 55.2208C201.67 54.6652 202.212 54.1678 202.041 53.5232ZM203.662 49.8328C203.765 48.6486 203.923 48.6554 204.873 48.5439C205.596 48.4588 206.591 48.0342 206.403 49.3251C206.242 50.4305 203.559 51.0278 203.662 49.8328ZM205.387 45.7583C205.616 45.1225 206.13 45.9783 206.14 46.3016C206.169 47.1619 205.517 46.9758 204.89 46.9758C205.064 46.5739 205.23 46.1675 205.387 45.7583ZM213.331 40.9859C213.203 40.8317 212.484 40.7727 212.28 40.6979C211.777 40.5135 211.848 40.1205 211.205 40.5081C211.173 40.4756 211.234 40.1842 211.199 40.1708C211.181 40.164 210.73 39.9938 210.584 39.8999C210.23 39.6734 209.912 39.4517 209.587 39.1673C209.242 38.8654 208.896 38.4271 208.501 38.1866C208.335 38.0853 208.199 37.9416 207.998 37.9106C207.478 37.8303 207.627 38.1929 207.172 38.2649C206.892 38.3093 206.688 37.982 206.322 38.1232C206.005 38.245 205.821 38.6892 205.68 38.9536C205.168 39.9158 204.772 40.9515 204.27 41.9239C201.702 46.8967 198.784 51.6807 196.297 56.6998C195.1 59.1177 193.85 61.5524 193.007 64.122C192.399 65.9753 191.026 68.6827 192.207 70.5345C193.066 71.8809 194.785 72.4624 196.157 73.113C198.221 74.092 200.124 75.3715 202.211 76.3206C204.7 77.4525 207.117 78.6364 209.542 79.9003C210.577 80.4393 211.51 81.2156 212.542 81.7262C213.172 82.0384 214.146 81.5056 214.351 82.2214C215.142 81.2635 216.421 81.9021 217.336 81.2276C217.874 80.8309 218.267 80.0494 218.715 79.5607C219.388 78.8282 220.119 78.1486 220.806 77.4288C223.531 74.5701 226.047 71.5926 228.527 68.5222C230.895 65.59 233.662 62.8197 235.662 59.6101C236.457 58.3359 236.601 56.9998 236.077 55.5922C235.694 54.5653 234.772 53.0149 233.454 53.6948C233.954 52.8649 232.027 51.9787 231.442 51.8164C231.434 51.8142 231.318 52.4517 231.155 52.4357C231.213 52.4414 230.666 51.0233 230.425 50.8414C229.71 50.3004 228.841 49.6692 228.061 49.2238C227.346 48.8154 226.592 48.613 225.899 48.156C225.059 47.6022 224.289 46.9453 223.446 46.3952C222.632 45.8641 221.725 45.2363 220.825 44.8712C220.046 44.5544 219.345 44.4924 218.643 43.9733C217.775 43.331 217.018 42.8952 216.017 42.4527C215.151 42.0699 213.95 41.7355 213.331 40.9859Z" fill="#E8E8E8"/>
<path fill-rule="evenodd" clip-rule="evenodd" d="M169.145 78.8257C169.479 81.7599 170.451 84.5959 170.983 87.4973C171.117 88.2235 171.83 90.2186 171.285 90.6817C170.966 90.9524 170.182 90.8632 169.794 90.8643C169.129 90.8662 168.478 90.8911 167.815 90.9375C164.777 91.1509 161.796 91.4605 158.744 91.4768C158.285 91.479 156.45 91.8897 156.859 91.1253C157.044 90.7787 157.427 90.5841 157.45 90.0935C157.462 89.841 157.07 89.257 157.489 89.1542C157.534 89.2955 157.579 89.437 157.624 89.5783C157.78 89.2971 158.033 89.0805 158.142 88.7714C158.21 88.5793 158.145 88.3805 158.25 88.1969C158.396 87.9432 158.74 87.8436 158.936 87.6331C159.132 87.4234 159.234 87.133 159.376 86.8874C160.215 85.4315 161.289 84.2171 162.337 82.9177C163.374 81.6319 164.274 80.2701 165.394 79.049C166.576 77.7592 167.73 76.443 168.829 75.0815C169.111 75.501 168.963 76.1503 168.97 76.619C168.982 77.3556 169.062 78.0943 169.145 78.8257ZM155.331 88.6708C155.322 88.5251 155.344 88.3842 155.399 88.2482C156.622 88.7369 155.404 88.8721 155.331 88.6708ZM155.781 87.3045C155.332 87.0161 155.064 86.7601 154.957 86.3235C154.947 86.2821 155.091 86.2112 155.069 86.1394C155.05 86.0769 154.964 86.0322 154.95 85.9772C154.9 85.79 154.555 85.6933 154.786 85.447C155.373 85.8018 156.08 86.0351 156.589 86.5095C157.296 87.1689 156.537 87.7901 155.781 87.3045ZM155.72 84.3328C155.13 83.9197 154.459 83.7449 154.036 83.1228C153.638 82.539 153.503 81.8439 153.446 81.1536C154.659 81.9212 155.678 82.9528 156.88 83.7281C157.272 83.9805 157.908 84.2035 158.134 84.6515C158.384 85.1492 158.032 85.5107 157.798 85.9368C157.108 85.399 156.438 84.8346 155.72 84.3328ZM154.24 79.7656C153.67 79.371 152.948 79.0928 153.025 78.2674C153.037 78.1341 152.911 78.1402 153.143 77.9465C153.388 77.7422 153.734 77.8207 153.983 77.931C154.57 78.1906 154.99 78.9149 155.434 79.3516C156.141 80.0484 156.967 80.662 157.739 81.286C158.274 81.7182 158.923 82.0776 159.35 82.6262C159.68 83.0497 159.771 83.8354 159.002 83.4764C158.302 83.1496 157.626 82.325 157.014 81.8392C156.11 81.1212 155.19 80.4229 154.24 79.7656ZM156.163 77.1583C156.159 77.2206 156.155 77.2828 156.151 77.345C156.147 77.3385 156.485 77.3928 156.537 77.4411C156.787 77.6758 156.999 77.9475 157.242 78.1896C157.801 78.7473 158.434 79.2476 159.064 79.7235C159.577 80.1112 160.164 80.4481 160.558 80.9674C160.899 81.4169 160.852 81.5378 160.473 81.9274C159.515 80.8584 158.551 79.7371 157.383 78.8892C156.623 78.3372 155.509 77.9764 155.992 76.9254C156.049 77.0031 156.106 77.0806 156.163 77.1583ZM158.473 76.2933C158.509 76.7393 159.492 77.1611 159.81 77.4488C160.156 77.761 160.485 78.0517 160.87 78.309C161.212 78.5371 162.472 79.1765 162.311 79.7304C162.066 80.5793 160.698 79.2595 160.47 79.0605C159.513 78.2259 158.538 77.3442 157.473 76.6515C157.806 76.5322 158.14 76.4128 158.473 76.2933ZM161.523 75.8815C161.326 76.1813 164.179 77.4516 163.523 78.1096C163.019 78.6146 160.846 76.7216 160.55 76.297C160.874 76.1678 161.307 76.2105 161.523 75.8815ZM163.783 75.1406C164.344 74.7193 164.404 74.7918 164.827 75.1653C165.15 75.4501 165.728 75.7204 165.087 76.1461C164.537 76.5105 163.218 75.5659 163.783 75.1406ZM166.254 74.2944C166.624 74.1444 166.45 74.7075 166.312 74.8396C165.945 75.1911 165.77 74.8311 165.523 74.5552C165.768 74.4737 166.013 74.3867 166.254 74.2944ZM171.482 75.908C171.5 75.791 171.242 75.4518 171.195 75.3324C171.077 75.0386 171.278 74.9152 170.854 74.7849C170.856 74.758 171.008 74.6701 171 74.6494C170.996 74.639 170.894 74.3737 170.877 74.2723C170.837 74.0276 170.809 73.8002 170.806 73.5453C170.803 73.2745 170.859 72.9498 170.809 72.6816C170.788 72.5685 170.798 72.4521 170.732 72.3517C170.563 72.0913 170.462 72.2997 170.251 72.128C170.121 72.0223 170.185 71.8037 169.978 71.6982C169.8 71.6069 169.532 71.7011 169.361 71.7432C168.736 71.8966 168.124 72.1306 167.499 72.2928C164.302 73.1224 161.049 73.7234 157.863 74.6067C156.328 75.0323 154.766 75.4416 153.304 76.083C152.25 76.5456 150.519 77.0083 150.17 78.2571C149.917 79.165 150.339 80.1502 150.594 81.0097C150.977 82.3031 151.164 83.6439 151.57 84.9355C152.053 86.4757 152.485 88.0047 152.885 89.5693C153.056 90.2366 153.083 90.9529 153.265 91.6074C153.376 92.0077 153.994 92.2262 153.76 92.5984C154.493 92.5687 154.716 93.3829 155.373 93.5194C155.759 93.5997 156.258 93.4647 156.649 93.4695C157.237 93.4769 157.823 93.5305 158.41 93.549C160.741 93.6214 163.041 93.5554 165.368 93.4364C167.59 93.3229 169.898 93.4485 172.097 93.0641C172.97 92.9116 173.614 92.4486 174.026 91.6637C174.326 91.0909 174.644 90.0746 173.827 89.7631C174.388 89.6559 174.018 88.4595 173.859 88.1386C173.857 88.1338 173.531 88.3342 173.474 88.2563C173.494 88.284 173.902 87.4846 173.887 87.3071C173.843 86.7798 173.778 86.1489 173.666 85.6306C173.564 85.1553 173.356 84.7437 173.284 84.2591C173.196 83.6717 173.181 83.074 173.091 82.4867C173.003 81.9197 172.922 81.2735 172.728 80.7341C172.56 80.2664 172.311 79.934 172.263 79.4209C172.203 78.7862 172.096 78.2816 171.896 77.6669C171.723 77.1353 171.397 76.4757 171.482 75.908Z" fill="#E8E8E8"/>
<path fill-rule="evenodd" clip-rule="evenodd" d="M51.5711 217.44C51.362 217.939 49.4096 217.771 49.3669 217.183C49.3033 216.304 51.9344 216.573 51.5711 217.44ZM53.6449 217.114C54.7514 217.203 56.5693 217.955 57.6356 217.501C59.263 216.808 57.554 215.744 56.681 215.426C55.7927 215.103 54.4694 215.275 54.0127 214.346C53.669 213.647 54.5182 211.697 53.4648 212.01C52.3593 212.339 52.6808 215.133 50.9461 214.191C50.1187 213.742 50.4563 211.005 49.0704 212.403C48.6911 212.786 48.658 213.488 48.1557 213.773C47.6431 214.065 47.0001 213.761 46.4589 213.786C45.0262 213.854 44.5698 215.194 46.0215 215.725C46.5588 215.922 48.5842 216.163 47.3573 217.041C46.5842 217.594 44.8669 216.433 44.203 217.396C43.2905 218.718 45.7347 218.748 46.3912 219.144C47.5037 219.814 46.5848 221.379 46.6735 222.494C46.8093 224.196 47.7986 223.841 48.158 222.399C48.4628 221.177 48.0851 219.417 49.9283 219.903C52.93 220.694 48.2591 224.505 50.4579 225.48C51.8598 226.102 52.0583 222.741 52.1672 222.162C52.5703 220.026 53.7702 220.524 55.5881 220.59C57.7117 220.666 58.2243 219.095 55.9754 218.645C55.2579 218.502 54.2709 218.683 53.6478 218.226C53.2791 217.956 52.7723 217.043 53.6449 217.114Z" fill="#E8E8E8"/>
<path fill-rule="evenodd" clip-rule="evenodd" d="M33.1024 163.392C32.2372 163.737 31.0141 163.992 30.4312 164.799C29.8116 165.656 30.1912 166.705 30.0457 167.669C29.6504 170.292 27.0832 169.205 25.3257 168.922C23.666 168.656 22.4909 169.282 21.9103 170.876C21.6791 171.511 20.7836 174.276 21.7352 174.684C22.4198 174.977 22.9404 173.699 23.1575 173.307C23.6292 172.457 24.0785 171.68 25.0892 171.402C26.9848 170.879 28.9221 172.36 30.7601 171.218C32.6607 170.038 31.3169 168.426 31.9634 166.789C32.397 165.692 33.5688 165.901 34.2027 165.084C34.8071 164.305 34.2012 162.955 33.1024 163.392Z" fill="#E8E8E8"/>
<path fill-rule="evenodd" clip-rule="evenodd" d="M301.46 62.317C302.24 62.4862 302.748 60.9744 303.236 60.591C304.045 59.9553 305.449 59.8272 306.273 60.467C307.882 61.7157 307.328 64.4117 309.619 65.1144C311.667 65.7426 312.632 63.0451 314.356 62.3735C315.359 61.9829 316.459 61.7273 316.068 60.326C315.798 59.357 315.002 59.1081 314.137 59.4803C312.649 60.1195 312.145 62.7232 310.382 62.7698C308.558 62.818 308.36 60.1885 307.577 59.0432C306.383 57.2976 303.929 56.8759 302.534 58.5451C302.113 59.0487 299.976 61.9955 301.46 62.317Z" fill="#E8E8E8"/>
</svg>
