<svg width="391" height="298" viewBox="0 0 391 298" fill="none" xmlns="http://www.w3.org/2000/svg">
<path fill-rule="evenodd" clip-rule="evenodd" d="M102.208 64.875C103.435 64.7715 106.606 62.3217 104.942 61.0827C103.263 59.8324 102.057 64.0219 102.208 64.875ZM38.3216 74.2708C38.6422 74.2144 38.5022 72.4599 37.9975 72.2357C36.4044 71.5286 36.2699 74.1867 36.231 74.898C36.1826 75.7958 36.0701 78.3245 38.0071 77.6312C39.1068 77.2377 38.4245 74.9438 38.3216 74.2708ZM132.372 82.4666C132.328 84.0326 135.492 87.0439 136.671 85.2374C137.663 83.72 132.453 79.3495 132.372 82.4666ZM20.5198 47.1495C21.4365 49.4876 25.9695 46.301 26.138 44.5859C26.4839 41.0735 20.4725 44.8125 20.5198 47.1495ZM58.3398 57.2305C60.4509 57.057 63.2288 54.3731 65.2645 53.3704C66.6421 52.6919 70.3905 51.8832 70.7982 50.3428C71.1531 49.0042 64.7929 51.8693 64.2499 52.1238C61.7548 53.2928 59.5051 54.6253 58.3398 57.2305ZM216.822 38.7227C218.505 37.4216 220.55 36.5823 222.707 36.6373C223.784 36.6648 226.031 37.3386 226.116 35.4759C226.253 32.4468 216.741 36.1409 215.254 36.7351C215.777 37.398 216.3 38.0603 216.822 38.7227ZM111.852 156.765C110.617 154.715 108.397 153.53 106.727 151.781C107.339 154.653 105.96 157.207 105.012 159.828C107.292 158.807 109.571 157.786 111.852 156.765ZM326.222 200.465C326.903 198.188 327.584 195.924 328.38 193.682C329.269 191.172 329.712 190.954 327.582 189.199C325.814 192.541 324.046 195.883 322.277 199.225C323.536 199.76 324.85 200.281 326.222 200.465ZM143.234 35.6507C140.893 33.012 129.922 32.8463 131.28 38.67C131.754 40.7036 134.451 38.5433 136.141 38.0693C137.818 37.5987 142.566 37.5361 143.234 35.6507ZM142.832 73.0083C142.548 72.3349 141.982 69.9044 141.141 69.7129C140.322 69.5262 137.089 72.0755 136.482 72.4646C133.451 74.4067 130.496 76.4959 127.543 78.5547C128.674 78.5547 129.701 78.152 130.825 78.1434C132.16 78.132 133.119 78.6806 134.421 78.3675C137.219 77.6957 140.467 74.595 142.832 73.0083ZM145.864 12.7998C146.127 11.5928 159.844 15.2159 161.492 15.8793C162.39 16.2401 167.024 18.6489 166.029 15.0185C165.462 12.9508 160.107 11.3745 158.391 10.8078C154.028 9.36786 149.429 8.34362 144.784 8.58115C143.881 8.62697 137.05 9.02117 139.903 11.767C140.886 12.7127 144.409 12.4146 145.864 12.7998ZM148.867 178.623C151.423 179.88 154.032 180.842 156.703 181.825C157.89 182.262 159.738 183.406 161.047 183.118C162.119 182.882 162.463 181.25 163.026 180.157C165.085 176.158 167.545 172.933 170.594 169.636C169.178 168.604 161.991 173.158 160.213 173.831C158.433 174.504 156.753 175.182 155.011 175.986C153.37 176.743 150.133 177.42 148.867 178.623ZM194.116 144.539C197.841 142.854 201.371 139.865 204.425 137.189C207.933 134.117 211.077 130.897 213.645 126.921C212.099 127 208.688 131.969 208.65 126.559C208.631 123.799 212.413 121.08 213.587 118.52C210.667 116.871 207.99 126.723 204.639 124.335C201.411 122.034 206.505 114.123 207.486 111.626C205.592 110.367 194.804 124.467 193.243 126.272C192.266 127.401 189.957 128.904 189.406 130.222C189.078 131.006 189.031 133.495 189.19 134.216C189.52 135.725 191.193 137.531 191.938 138.936C192.881 140.714 193.703 142.562 194.116 144.539ZM348.09 195.376C344.869 190.83 348.196 188.847 350.815 185.074C352.91 182.056 354.837 178.728 356.164 175.358C359.485 166.927 362.481 159.09 364.121 150.172C361.864 151.202 360.453 155.123 359.324 157.189C357.806 159.967 356.47 162.882 354.783 165.573C351.625 170.609 348.525 175.981 344.509 180.347C342.689 182.325 341.148 184.55 339.049 186.333C338.089 187.147 336.254 187.815 335.547 188.833C334.88 189.795 335.626 190.409 335.373 191.558C335.113 192.735 333.922 193.991 333.41 195.126C332.738 196.616 332.113 198.109 331.363 199.566C330.546 201.155 330.322 201.986 330.102 203.538C329.861 205.236 330.6 205.412 329.117 206.977C331.804 208.162 334.491 209.346 337.177 210.531C338.084 210.931 338.99 211.33 339.897 211.73C340.089 211.372 340.28 211.014 340.471 210.656C341.209 209.938 341.888 208.17 342.31 207.223C344.076 203.27 346.069 199.301 348.09 195.376ZM88.6446 176.292C81.0159 196.376 107.824 213.287 124.326 217.028C126.611 217.545 128.842 218.224 131.117 218.78C133.598 219.386 135.801 219.266 138.277 219.52C140.247 219.721 141.186 221.243 143.043 221.663C146.145 222.363 145.955 220.032 146.177 217.534C147.119 206.942 152.525 196.723 158.246 187.885C155.632 186.951 153.043 185.93 150.463 184.907C148.256 184.03 144.875 181.567 142.502 181.437C140.747 181.341 138.072 182.84 136.368 183.497C133.529 184.593 130.681 185.526 127.722 186.273C122.548 187.58 116.79 189.36 111.436 189.495C109.893 189.534 105.659 190.253 104.548 189.3C102.43 187.48 105.37 185.964 107.143 185.315C117.71 181.445 128.93 179.8 139.528 175.833C144.981 173.79 150.378 171.511 155.866 169.499C160.596 167.765 165.551 166.23 170.122 164.097C176.159 161.282 182.222 157.774 187.45 153.642C188.496 152.815 190.689 151.587 191.406 150.388C192.037 149.334 191.958 150.386 191.827 149.107C191.733 148.188 190.609 146.943 190.147 146.075C188.424 142.839 186.867 139.514 185.558 136.09C177.219 139.667 169.286 144.535 161.069 148.357C152.799 152.205 143.471 154.919 134.624 157.084C130.859 158.005 126.53 158.296 123.077 160.117C121.609 160.89 120.159 161.785 118.587 162.233C118.123 163.123 117.666 163.297 117.216 162.756C116.934 162.439 116.569 162.306 116.122 162.355C115.161 162.518 114.18 162.972 113.281 163.32C108.731 165.084 104.374 167.293 100.055 169.547C98.0071 170.615 95.9071 171.666 93.9476 172.886C92.8973 173.539 91.9561 174.199 91.0968 175.096C90.0666 176.172 90.3118 177.057 88.6446 176.292ZM260.308 57.0414C262.236 57.0726 263.993 56.0285 266.004 56.0865C269.165 56.1779 271.668 58.629 273.502 60.9927C277.133 65.6698 276.207 71.3119 274.383 76.5459C273.511 79.0472 272.313 81.4482 270.816 83.638C269.49 85.5763 267.121 87.4097 266.196 89.5682C264.671 93.1276 267.748 91.6141 269.633 90.8538C272.002 89.8971 274.223 88.7081 276.234 87.1065C285.197 79.9682 292.016 70.0459 294.299 58.6508C295.414 53.0912 295.328 46.5917 291.455 42.054C287.914 37.9048 281.802 36.5491 276.577 37.3184C270.93 38.1506 265.811 40.5427 261.212 43.6221C259.877 44.5169 258.653 45.4935 257.399 46.4942C255.754 47.807 254.768 47.8416 255.179 49.8992C255.485 51.4289 256.318 53.0137 256.855 54.4815C257.86 57.2309 257.493 57.9423 260.308 57.0414ZM266.455 104.438L266.065 105.104C268.754 105.233 271.258 102.86 273.55 101.702C276.526 100.197 279.169 98.144 281.778 96.0707C286.377 92.4137 291.037 88.2927 294.461 83.4921C302.136 72.7302 309.108 59.0865 307.014 45.4423C304.756 30.7369 291.894 25.0763 278.189 27.023C272.013 27.9002 266.499 30.6577 260.971 33.457C258.185 34.8684 255.834 36.6991 253.281 38.4713C251.957 39.3914 250.748 39.5107 250.662 41.1195C250.596 42.3318 252.692 45.0731 253.259 46.1717C260.199 39.0919 267.678 33.2351 278.158 32.8732C290.627 32.4427 298 44.2651 297.946 55.5863C297.892 66.6888 293.103 77.3687 285.47 85.3479C282 88.9742 278.693 91.8839 274.433 94.5305C272.309 95.8498 270.743 97.0343 268.369 97.9103C266.689 98.5304 266.864 98.2036 266.436 99.7583C266.072 101.078 266.444 103.068 266.455 104.438ZM198.704 255.281C198.541 257.281 198.135 259.251 197.682 261.203C197.519 261.904 196.604 264.116 196.765 264.904C197.03 266.206 196.677 265.369 197.818 266.048C199.008 266.758 200.394 266.715 201.697 266.93C202.502 267.063 205.449 268.45 205.944 268.231C206.811 267.848 206.783 266.498 207.734 265.963C209.03 265.233 210.939 265.858 212.161 266.429C215.428 267.953 217.673 271.108 220.834 272.835C226.449 275.901 233.11 277.598 239.374 278.298C242.767 278.678 246.24 279.344 249.591 278.549C252.231 277.922 255.662 277.98 257.098 275.147C244.343 271.639 224.875 267.347 219.832 252.71C217.091 255.195 212.509 253.857 209.196 253.514C205.551 253.136 202.294 253.224 198.961 251.562C198.717 252.869 198.643 253.952 198.704 255.281ZM85.7737 164.625C91.7778 164.988 97.47 162.147 101.165 157.353C102.074 156.172 103.007 154.966 103.553 153.568C103.672 153.213 103.79 152.858 103.908 152.504C104.481 151.525 104.23 151.063 103.155 151.118C102.55 150.288 101.015 150.009 101.452 148.503C101.78 147.368 102.994 147.349 104.049 146.992C103.524 146.11 103.21 145.667 102.457 144.881C100.503 146.639 96.9566 150.09 95.5833 146.051C94.9238 144.112 96.0849 142.259 95.7972 140.389C95.6787 139.615 94.6981 137.639 94.13 137.177C91.1031 134.713 86.7435 135.732 83.5321 137.183C81.3188 138.183 80.8426 138.652 80.4815 140.944C80.1148 143.274 79.7746 145.604 79.3678 147.927C80.6959 147.235 81.4563 146.323 82.3223 145.246C83.0368 145.246 82.4528 145.845 82.7783 146.436C83.2353 146.18 83.6624 146.193 84.0585 146.477C84.6994 147.463 84.296 148.924 84.0991 149.957C86.2363 149.757 87.1396 152.142 84.9849 153.107C81.6708 154.593 81.7464 151.381 81.6708 149.614C79.9814 150.708 79.9483 149.446 79.3678 149.957C78.7878 150.468 78.5937 152.163 78.3872 153.33C78.0481 155.246 77.1804 158.011 77.9832 159.934C79.1754 162.789 82.9764 164.275 85.7737 164.625ZM259.758 72.9119C257.771 75.6747 254.384 79.2914 253.675 82.6294C255.863 81.3453 260.49 75.1664 261.682 80.0884C262.366 82.9137 258.857 86.2801 257.995 89.0156C261.446 87.8803 263.904 84.3243 266.057 81.5799C268.802 78.0808 271.606 73.4681 272.307 69.0187C272.873 65.4182 270.375 62.0624 266.664 61.7096C264.769 61.529 262.789 61.8299 260.957 62.2697C260.122 62.4698 258.876 62.7184 258.131 63.1659C257.195 63.7278 257.067 65.0437 256.186 63.949C255.014 66.1567 253.843 68.3644 252.672 70.5715C253.837 70.1485 256.216 68.3533 257.49 68.5389C259.35 68.8103 259.732 71.5124 259.758 72.9119ZM73.742 18.8647C68.5335 19.0183 63.0894 20.1274 58.1588 21.7761C56.9343 22.1859 51.7687 23.6433 52.8565 25.7559C53.5755 27.1524 57.4522 25.1791 58.6242 24.85C63.6469 23.4395 68.8187 22.5093 73.9634 21.6604C75.2093 21.4549 79.4351 21.4753 79.6531 19.8423C79.9203 17.8499 75.2127 18.8625 73.742 18.8647ZM215.493 246.117C212.67 246.462 209.959 246.333 207.133 245.987C204.755 245.696 202.333 244.723 199.967 244.723C199.967 247.256 199.795 247.272 202.468 247.814C204.333 248.192 206.225 248.405 208.11 248.668C211.428 249.133 215.113 250.435 218.473 249.766C218.391 249.326 218.134 246.358 217.786 246.064C217.59 245.899 215.778 246.12 215.493 246.117ZM169.866 58.71C170.655 59.213 172.47 61.2185 173.41 61.2539C173.074 58.9319 170.484 54.8891 167.509 56.3241C166.78 56.6759 165.249 58.4279 165.941 59.2008C166.311 59.614 168.898 58.7127 169.866 58.71ZM142.342 79.3661C142.371 78.9615 142.4 78.5569 142.43 78.1523C141.338 78.7943 139.986 79.098 139.211 80.132C140.142 80.5447 141.073 80.9579 142.005 81.3711C142.117 80.7027 142.229 80.0344 142.342 79.3661ZM228.313 141.013C233.471 142.819 238.199 145.231 241.995 149.326C245.277 152.867 246.819 159.106 247.62 163.747C249.602 175.232 245.778 185.878 243.256 196.865C241.976 202.439 240.066 207.802 238.278 213.232C236.716 217.973 235.377 222.938 233.222 227.447C231.395 231.269 229.06 235.038 227.452 239.004C226.587 241.138 225.185 248.461 221.901 246.161C221.005 248.504 220.787 248.305 221.745 249.932C222.438 251.11 224.79 252.746 225.9 253.705C228.857 256.263 232.603 258.37 236.073 260.16C242.427 263.44 249.239 265.894 255.783 268.884C258.676 270.207 261.814 271.769 261.164 275.554C260.621 278.727 258.785 281.133 255.921 282.544C253.233 283.87 249.388 284.893 246.43 285.309C244.676 285.556 244.273 284.826 242.843 284.573C241.25 284.293 239.392 284.835 237.75 284.821C230.376 284.757 223.921 282.902 217.962 278.626C215.833 277.098 212.698 272.953 209.912 272.954C208.487 272.954 208.788 273.819 207.535 274.327C205.989 274.953 203.325 273.771 201.805 273.493C198.566 272.902 195.273 272.302 193.116 269.512C190.785 266.498 191.614 262.764 192.616 259.416C193.745 255.643 195.645 251.814 196.453 247.984C196.649 247.052 196.83 245.315 196.631 244.367C196.32 242.896 194.835 242.018 194.791 240.426C194.777 239.941 195.47 239.302 195.591 238.802C195.859 237.704 195.818 236.564 195.928 235.447C196.125 233.453 196.58 231.542 196.893 229.572C197.606 225.087 199.012 221.088 200.374 216.767C201.694 212.574 202.951 209.453 205.504 205.823C206.826 203.942 211.248 197.243 209.088 195.315C206.133 201.12 202.677 205.647 198.154 210.268C194.695 213.803 191.313 218.555 186.984 221.072C182.223 223.841 176.406 225.469 171.15 226.933C168.649 227.628 166.575 229.172 163.88 229.457C160.959 229.766 157.986 229.402 155.125 228.751C154.32 228.567 151.997 227.33 151.268 227.409C150.195 227.525 148.651 229.439 147.473 229.79C144.605 230.645 142.647 229.011 140.472 227.501C138.111 225.862 137.397 225.455 134.673 225.258C131.337 225.017 128.092 223.841 124.811 223.12C119.041 221.855 114.137 219.289 108.893 216.604C102.882 213.526 97.7396 209.282 93.2085 204.268C86.5476 196.896 77.2713 176.471 88.152 169.319C81.7465 168.449 75.8798 165.652 75.0991 158.402C74.6911 154.608 75.459 150.406 76.4129 146.749C76.8482 145.079 77.3674 143.42 77.8648 141.767C78.2392 141.209 78.4376 140.599 78.4583 139.935C78.688 139.075 78.3566 138.647 77.4641 138.651C75.7769 136.678 74.5084 134.937 74.1675 132.136C74.0602 131.248 73.964 129.887 74.5955 129.133C74.8878 128.829 75.2404 128.626 75.6523 128.525C76.6409 128.581 76.9203 128.094 76.4906 127.064C76.9706 125.604 76.2587 124.467 78.0676 123.857C78.6477 123.981 79.225 124.116 79.8001 124.262C80.5338 124.596 81.0111 124.354 81.233 123.537C82.9374 122.87 82.1511 121.884 84.467 122.742C85.8686 123.261 87.202 124.156 88.2225 125.245C89.5028 124.423 86.5912 119.343 86.4939 117.723C86.2637 113.903 87.843 110.744 89.8979 107.606C93.892 101.509 99.467 96.2651 104.964 91.5473C115.495 82.5123 126.557 73.9108 138.447 66.7126C133.542 63.306 127.812 62.3825 121.975 63.9657C116.595 65.4255 112.233 68.0763 107.28 70.3952C102.692 72.5426 97.8218 73.4248 96.3587 67.5645C94.7196 61.0004 99.9493 58.5636 104.64 55.6201C103.469 54.7464 99.6129 55.3709 98.1543 55.4743C94.9057 55.7039 91.7991 56.4374 88.6422 57.086C87.1282 57.3966 85.7373 57.3268 84.2373 57.6312C82.0075 58.0837 79.6794 58.591 77.4233 59.2357C72.0561 60.7708 66.7286 63.1004 62.0908 66.2394C58.0822 68.9511 55.3013 72.7801 52.0718 76.3068C48.3884 80.328 44.8593 84.2843 39.3988 85.7563C36.8421 86.4457 33.8427 87.0714 32.0298 84.7877C30.3432 82.6642 30.2494 80.1051 30.3047 77.5085C30.4265 71.7734 33.1973 65.5758 36.4201 60.8893C39.9185 55.8022 44.6039 52.8889 49.0311 48.794C42.6323 49.2515 36.4481 52.6246 30.5634 54.9559C29.325 55.4469 28.0749 55.9983 26.8298 56.4525C25.5019 56.9368 24.6223 56.6402 23.3504 56.862C20.4472 57.3687 17.9536 58.5921 15.1297 56.6413C9.78717 52.9514 15.1398 45.4449 18.8181 43.1416C23.9416 39.9338 29.154 37.2328 34.7984 34.9446C31.7426 31.6301 34.3524 26.9 37.169 24.5487C40.7328 21.5733 45.2706 19.8683 49.5648 18.2756C52.9609 17.0159 56.2961 15.8064 59.8241 15.0483C63.5326 14.2517 67.8693 13.0344 71.6325 13.1512C75.1616 13.2607 78.2912 12.6389 81.8656 12.5394C84.8398 12.4568 87.8206 12.5283 90.7943 12.4512C98.7953 12.2445 106.826 12.7841 114.645 13.3595C108.45 -4.7574 149.259 0.837457 157.965 3.20389C165.877 5.35468 174.943 7.8496 181.588 12.9528C184.404 15.1143 187.078 17.5717 189.576 20.0935C193.262 23.8141 195.302 28.6866 197.251 33.496C202.196 31.0737 206.924 28.4341 212.334 27.233C217.482 26.0906 222.755 24.542 227.934 23.6789C231.871 23.0225 237.585 22.5772 240.898 25.3571C244.497 28.3765 246.372 33.0753 248.52 37.0993C258.836 27.3106 270.343 20.1695 285.051 20.6443C299.444 21.1091 308.908 33.5379 310.653 47.0063C312.575 61.8468 305.964 77.3543 297.003 88.8468C292.985 94.0009 288.827 98.9784 283.419 102.824C280.737 104.73 277.907 106.818 274.967 108.306C273.5 109.048 271.897 109.718 270.357 110.289C269.663 110.547 268.947 110.806 268.225 110.98C266.162 111.481 266.562 110.813 265.795 112.619C265.172 114.085 265.249 116.608 264.982 118.218C264.678 120.057 264.497 121.922 264.052 123.737C263.281 126.882 262.479 129.95 261.514 133.021C259.686 138.834 257.227 144.693 254.215 149.995C256.77 151.104 260.347 151.216 263.077 151.552C266.031 151.916 268.99 152.68 272.059 153.538C278.209 155.258 283.704 156.709 289.552 159.283C295.622 161.956 301.033 165.946 306.879 169.122C312.254 172.043 317.688 175.701 322.68 179.207C323.868 180.041 324.603 180.766 325.549 181.822C326.516 182.902 326.824 183.113 327.98 184.048C328.501 184.469 330.017 186.596 330.612 186.674C331.677 186.815 331.514 186.02 332.35 184.909C334.097 182.591 336.534 180.795 338.268 178.418C339.715 176.435 341.224 174.428 342.771 172.724C346.513 168.599 349.614 164.027 352.275 159.082C353.66 156.507 355.118 154.057 356.622 151.628C358.119 149.209 360.78 146.016 363.762 146.159C363.522 144.927 362.76 144.722 364.075 143.969C364.922 143.484 366.57 144.266 367.222 144.758C368.949 146.063 369.026 148.595 368.917 150.497C368.636 155.398 367.611 160.236 366.181 164.87C364.463 170.441 362.31 175.356 359.96 180.672C358.089 184.908 355.766 190.509 351.11 192.442C354.237 196.906 352.735 200.544 350.646 205.283C349.118 208.748 347.101 212.329 344.029 214.621C340.565 217.206 336.808 215.013 333.186 213.305C330.998 212.273 324.307 209.838 325.668 206.662C323.997 206.439 322.945 205.225 321.424 204.851C319.814 204.456 320.09 205.11 318.386 205.355C317.08 205.543 315.125 204.373 313.895 203.954C311.841 203.255 309.792 202.538 307.74 201.832C301.964 199.842 296.286 197.884 290.453 196.29C279.601 193.324 268.614 191.642 257.8 188.994C255.632 188.464 253.477 187.951 251.22 187.526C250.754 187.439 248.335 187.304 248.042 186.805C247.527 185.931 249.109 181.038 249.245 180.041C250.136 173.496 249.845 166.331 248.589 159.86C248.068 157.17 245.739 153.687 245.759 151.061C245.773 149.3 247.333 147.376 248.25 145.781C250.517 141.836 252.892 137.573 254.571 133.468C257.142 127.187 258.717 120.098 259.852 113.371C260.443 109.865 261.132 106.063 261.293 102.516C261.416 99.8119 261.194 96.9757 261.586 94.2064C260.09 94.3483 257.972 95.1237 256.624 94.2936C254.922 93.2461 254.465 90.2557 254.682 88.4697C248.854 89.487 249.047 83.9597 249.408 79.6375C238.875 79.6375 252.365 63.9847 254.05 60.6233C254.825 59.0781 254.802 60.8138 254.46 58.424C254.31 57.3731 253.591 56.2089 253.185 55.243C252.3 53.1341 251.343 51.0576 250.32 49.0119C248.161 44.6907 245.714 40.5154 243.044 36.4898C240.64 38.1646 238.473 40.1472 236.466 42.2746C237.754 38.907 241.688 34.7351 240.005 30.9111C238.446 27.3665 233.237 27.6123 230.16 28.2603C221.801 30.0229 213.784 32.5899 205.82 35.5619C208.287 36.9764 212.064 35.8836 214.515 34.8021C217.55 33.4625 220.813 32.0569 224.084 31.3474C226.937 30.7284 230.684 30.9396 229.859 34.782C229.191 37.8953 226.146 40.8936 224.137 43.2215C219.71 48.3504 214.159 52.3207 208.706 56.2877C202.845 60.5524 197.197 65.1858 191.262 69.3265C180.532 76.8124 168.996 83.3184 157.911 90.306C152.15 93.9366 145.623 96.8583 139.376 99.5493C132.504 102.51 125.915 105.679 118.785 108.017C114.826 109.316 110.902 110.384 107.011 111.862C104.572 112.788 100.325 114.643 98.7143 111.894C95.4417 106.31 107.284 98.9667 110.529 95.5528C112.768 97.727 101.728 105.829 102.592 108.995C103.271 111.483 105.897 108.27 107.165 107.592C109.214 106.496 111.641 105.945 113.701 104.695C117.925 102.13 122.934 99.1728 123.898 93.8713C123.227 93.1629 123.235 92.5093 123.923 91.9098C124.23 91.5456 124.473 91.1456 124.651 90.7093C124.952 89.8764 125.073 88.8328 125.234 87.9496C125.709 85.3385 124.516 82.8938 125.631 80.3386C119.121 85.2714 112.863 90.8434 106.683 96.1835C101.14 100.973 95.3561 107.245 93.3191 114.393C93.0582 115.308 92.6245 116.347 92.672 117.314C92.7648 119.211 92.9542 118.802 94.4827 119.412C96.0117 120.022 98.2375 119.97 99.8817 120.034C100.819 120.071 105.004 119.079 104.172 121.135C103.692 122.32 100.791 122.276 99.752 122.385C97.145 122.661 95.7311 122.378 96.9662 125.204C97.52 126.471 98.6416 127.329 99.5218 128.309C101.971 131.036 103.301 135.22 105.227 138.424C107.422 142.074 109.835 145.546 112.398 148.945C113.456 150.348 114.87 152.985 116.336 153.986C117.706 154.92 116.094 154.843 118.369 154.463C119.36 154.298 120.259 153.653 121.207 153.423C126.877 152.041 132.706 150.484 138.57 148.779C146.07 146.598 153.941 144.738 161.097 141.598C167.508 138.783 173.871 135.433 180.348 132.583C182.24 131.751 184.13 131.199 185.6 129.668C187.375 127.821 188.844 125.402 190.481 123.416C193.264 120.038 195.83 116.601 198.827 113.4C201.057 111.018 205.01 106.589 208.157 105.639C214.136 103.832 210.935 112.94 210.162 115.241C211.568 115.56 212.307 113.757 213.956 114.276C215.931 114.897 216.136 117.524 216.383 119.17C216.448 119.608 215.855 120.428 216.035 120.819C216.097 120.952 217.385 121.714 217.634 122.067C218.537 123.351 218.359 124.911 218.017 126.295C216.248 133.462 209.958 138.696 205.333 143.983C207.402 143.591 208.936 142.412 210.889 141.828C212.723 141.279 214.566 141.308 216.414 141.151C218.349 140.986 220.208 140.262 222.187 140.225C224.264 140.186 226.253 140.778 228.313 141.013Z" fill="white"/>
<path fill-rule="evenodd" clip-rule="evenodd" d="M9.55051 76.543C8.40988 77.2886 8.08835 78.0201 8.04897 79.74C8.03322 80.4455 8.08187 83.0771 9.06776 82.9777C9.99296 82.8845 9.55051 77.4479 9.55051 76.543ZM3.65828 80.8293C4.18978 75.3166 6.20658 69.7116 10.951 66.2768C12.1243 65.4273 13.4516 65.4575 14.7375 64.9216C15.5103 64.5996 16.7313 63.103 17.6087 63.2801C20.8385 63.9335 17.1071 68.225 16.5607 69.354C14.8674 72.8514 14.9817 75.9246 15.0323 79.6976C15.0708 82.5652 15.6666 87.3994 14.2209 89.9948C12.6799 92.7584 9.33752 90.9639 7.47183 89.3281C5.11716 87.2631 3.33881 83.9746 3.65828 80.8293Z" fill="white"/>
<path fill-rule="evenodd" clip-rule="evenodd" d="M60.3557 97.1195C60.3557 100.196 62.8525 98.1131 62.7633 95.9252C62.6328 92.7038 60.2393 94.6874 60.3557 97.1195ZM73.6289 80.1141C70.8962 82.5717 68.7885 83.9506 68.2618 87.7294C67.8632 90.5917 68.2596 93.4267 68.2764 96.3098C68.3051 101.143 64.4023 106.224 60.2025 100.684C57.1392 96.6429 58.2379 90.2889 60.7359 86.2279C62.0469 84.0973 63.9183 81.9895 66.08 80.6616C67.706 79.6623 72.2797 77.6962 73.6289 80.1141Z" fill="white"/>
<path fill-rule="evenodd" clip-rule="evenodd" d="M35.4674 154.598C35.1505 155.347 34.4069 158.407 35.9242 157.715C37.2638 157.104 36.3959 155.075 35.4674 154.598ZM27.4497 145.15C27.2154 143.999 27.3109 136.785 29.2979 137.326C30.8587 137.75 31.1165 141.443 31.7524 142.728C34.1201 147.513 39.5546 150.494 41.4286 155.434C43.5204 160.95 37.1962 161.121 33.8404 158.887C29.8668 156.242 27.5676 149.766 27.4497 145.15Z" fill="white"/>
<path fill-rule="evenodd" clip-rule="evenodd" d="M22.5784 115.57C23.4408 114.406 23.528 113.784 23.0364 112.754C22.408 113.437 22.5196 114.414 22.5784 115.57ZM23.2024 120.779C18.7068 121.282 18.4818 112.997 19.2518 110.153C19.8648 107.887 21.183 105.453 22.5398 103.607C22.8139 103.235 25.4131 99.8873 25.9226 99.8792C27.8778 99.8485 27.3405 102.058 27.1296 102.88C26.4654 105.471 26.2022 107.637 26.3809 110.509C26.5727 113.583 28.0282 120.881 23.2024 120.779Z" fill="white"/>
<path fill-rule="evenodd" clip-rule="evenodd" d="M227.324 49.0299C220.896 54.4208 214.793 60.2572 207.803 64.9728C204.383 67.2804 200.807 69.3221 197.394 71.6674C195.656 72.862 193.882 73.9313 191.954 74.8095C190.251 75.5851 189.137 75.686 190.55 73.8448C191.495 72.6148 193.613 71.7577 194.9 70.8834C196.88 69.5371 198.751 68.0434 200.834 66.8488C204.507 64.7417 208.157 63.0408 211.542 60.4567C214.548 58.164 217.648 55.9251 220.515 53.4884C221.745 52.4434 225.823 47.6459 227.324 49.0299Z" fill="white"/>
<path fill-rule="evenodd" clip-rule="evenodd" d="M227.454 68.4961C230.345 70.9691 223.112 77.7436 221.462 79.279C219.723 80.8983 217.807 82.3427 215.916 83.7773C215.25 84.2825 211.617 87.6635 210.695 87.3906C208.875 86.852 211.264 84.6584 211.885 84.0864C213.894 82.2342 215.946 80.4363 217.91 78.5343C219.682 76.8203 221.6 75.2328 223.313 73.4634C224.701 72.0299 225.867 69.6008 227.454 68.4961Z" fill="white"/>
<path fill-rule="evenodd" clip-rule="evenodd" d="M13.2773 168.179C12.5225 166.43 11.1708 168.372 11.8561 169.245C12.5042 170.072 13.1808 168.515 13.2773 168.179ZM8.85156 164.725C9.2562 162.154 10.1914 160.724 12.604 162.92C14.2619 164.428 17.5962 168.717 17.2798 171.056C16.8644 174.123 13.4863 173.253 11.7351 171.649C9.94014 170.005 9.14773 167.006 8.85156 164.725Z" fill="white"/>
<path fill-rule="evenodd" clip-rule="evenodd" d="M14.1383 215.341C11.1828 215.116 8.66131 212.847 7.40616 210.188C6.35014 207.952 5.35061 204.347 9.06067 205.523C11.4787 206.289 20.8 215.702 14.1383 215.341Z" fill="white"/>
<path fill-rule="evenodd" clip-rule="evenodd" d="M49.9565 200.763C47.6726 201.283 45.4132 199.778 44.0087 198.082C43.1349 197.026 41.1008 193.322 42.1256 191.798C43.554 189.671 45.7107 193.945 46.4546 194.791C47.6215 196.116 51.437 198.65 49.9565 200.763Z" fill="white"/>
<path fill-rule="evenodd" clip-rule="evenodd" d="M52.0136 142.93C50.2234 142.099 48.5611 141.099 47.8412 139.114C47.3833 137.85 46.9988 134.061 49.032 134.078C51.3839 134.099 56.7698 142.55 52.0136 142.93Z" fill="white"/>
<path fill-rule="evenodd" clip-rule="evenodd" d="M39.4615 103.501C41.8587 103.458 42.4263 104.78 42.7597 106.679C42.9859 107.969 44.0841 112.345 42.9436 113.241C41.3142 114.522 38.7221 111.587 38.1981 110.435C37.1181 108.063 38.6114 105.729 39.4615 103.501Z" fill="white"/>
<path fill-rule="evenodd" clip-rule="evenodd" d="M80.653 234.72C81.8202 235.251 84.4757 236.428 83.461 238.256C82.4001 240.167 79.354 238.31 78.2161 237.474C77.7398 237.125 74.7132 234.836 74.8398 234.069C75.1067 232.438 79.2787 234.566 80.653 234.72Z" fill="white"/>
<path fill-rule="evenodd" clip-rule="evenodd" d="M3.75243 115.372C4.55004 117.37 5.44787 124.231 1.24772 120.526C-0.0340564 119.395 -0.227488 117.983 0.214142 116.43C0.8527 114.18 1.78199 114.626 3.75243 115.372Z" fill="white"/>
<path fill-rule="evenodd" clip-rule="evenodd" d="M226.333 89.8203C225.403 87.9201 227.7 86.6945 228.927 85.4699C229.728 84.6698 233.097 80.3313 234.201 80.5764C236.473 81.0807 227.451 88.9729 226.333 89.8203Z" fill="white"/>
<path fill-rule="evenodd" clip-rule="evenodd" d="M39.4313 227.456C41.6228 227.105 42.1341 229.539 43.5461 230.6C44.1516 231.055 46.2302 231.455 45.8121 232.422C44.7135 234.959 39.3238 229.162 39.4313 227.456Z" fill="white"/>
<path fill-rule="evenodd" clip-rule="evenodd" d="M57.9375 169.964C59.4438 169.333 63.7916 172.721 62.5433 174.184C60.6772 176.373 58.0438 171.162 57.9375 169.964Z" fill="white"/>
<path fill-rule="evenodd" clip-rule="evenodd" d="M89.6893 218.967C88.5913 219.076 83.9575 217.619 85.6743 215.669C86.8796 214.3 90.0833 217.727 89.6893 218.967Z" fill="white"/>
<path fill-rule="evenodd" clip-rule="evenodd" d="M34.1992 209.609C33.1091 210.045 29.1774 209.149 30.4136 207.441C31.5912 205.816 34.2008 208.26 34.1992 209.609Z" fill="white"/>
<path fill-rule="evenodd" clip-rule="evenodd" d="M66.3867 216.976C67.6612 216.843 68.5819 217.612 68.8008 218.913C67.2068 219.141 66.7151 218.761 66.3867 216.976Z" fill="white"/>
<path fill-rule="evenodd" clip-rule="evenodd" d="M232.152 28.0566C232.691 28.0591 233.228 28.0619 233.762 28.0643C233.223 28.0615 232.688 28.0591 232.152 28.0566Z" fill="white"/>
<path fill-rule="evenodd" clip-rule="evenodd" d="M223.703 140.112C222.898 140.113 222.093 140.114 221.289 140.115C222.094 140.113 222.899 140.113 223.703 140.112Z" fill="white"/>
<path fill-rule="evenodd" clip-rule="evenodd" d="M113.918 8.94922C113.881 9.75483 113.844 10.5604 113.807 11.3633C113.843 10.557 113.881 9.75275 113.918 8.94922Z" fill="white"/>
<path fill-rule="evenodd" clip-rule="evenodd" d="M363.238 145.746C363.495 146.641 363.119 146.79 362.109 146.191C362.485 146.043 362.862 145.894 363.238 145.746Z" fill="white"/>
<path fill-rule="evenodd" clip-rule="evenodd" d="M340.383 215.951C340.787 215.954 341.19 215.956 341.59 215.959C341.185 215.956 340.784 215.954 340.383 215.951Z" fill="white"/>
<path fill-rule="evenodd" clip-rule="evenodd" d="M263.938 151.188C263.263 151.702 262.592 151.774 261.926 151.16C262.596 151.17 263.267 151.179 263.938 151.188Z" fill="white"/>
<path fill-rule="evenodd" clip-rule="evenodd" d="M248.876 82.5781C248.859 83.2498 248.842 83.9208 248.824 84.5898C248.841 83.9175 248.859 83.2478 248.876 82.5781Z" fill="white"/>
<path fill-rule="evenodd" clip-rule="evenodd" d="M283.652 20.4961C282.982 20.4957 282.311 20.4949 281.641 20.4941C282.312 20.2431 282.982 20.3255 283.652 20.4961Z" fill="white"/>
<path fill-rule="evenodd" clip-rule="evenodd" d="M103.402 12.4376C102.866 12.3921 102.329 12.3462 101.793 12.3008C102.329 12.3462 102.865 12.3921 103.402 12.4376Z" fill="white"/>
<path fill-rule="evenodd" clip-rule="evenodd" d="M112.254 13.0752C111.718 13.2752 111.181 13.3934 110.645 13.078C111.181 13.0772 111.718 13.076 112.254 13.0752Z" fill="white"/>
<path fill-rule="evenodd" clip-rule="evenodd" d="M64.375 14.1772C63.704 14.3136 63.0336 14.45 62.3633 14.5852C63.0343 14.45 63.7047 14.3136 64.375 14.1772Z" fill="white"/>
<path fill-rule="evenodd" clip-rule="evenodd" d="M249.279 177.934C249.261 178.337 249.242 178.739 249.225 179.141C249.244 178.737 249.261 178.335 249.279 177.934Z" fill="white"/>
<path fill-rule="evenodd" clip-rule="evenodd" d="M27.5488 145.344C27.5569 145.613 27.5645 145.881 27.5718 146.148C27.5633 145.879 27.5565 145.612 27.5488 145.344Z" fill="white"/>
<path fill-rule="evenodd" clip-rule="evenodd" d="M365.73 143.9L363.719 143.91C364.388 143.41 365.059 143.474 365.73 143.9Z" fill="white"/>
<path fill-rule="evenodd" clip-rule="evenodd" d="M228.129 141.051C227.592 140.962 227.055 140.874 226.52 140.785C227.055 140.874 227.592 140.962 228.129 141.051Z" fill="white"/>
<path fill-rule="evenodd" clip-rule="evenodd" d="M80.8711 234.659C80.2003 234.529 79.5302 234.397 78.8594 234.267L80.8711 234.659Z" fill="white"/>
<path fill-rule="evenodd" clip-rule="evenodd" d="M216.279 119.191C216.267 118.789 216.254 118.386 216.242 117.984C216.254 118.387 216.267 118.79 216.279 119.191Z" fill="white"/>
<path fill-rule="evenodd" clip-rule="evenodd" d="M154.902 2.49317C154.5 2.37126 154.097 2.24935 153.695 2.12744C154.098 2.24935 154.5 2.37126 154.902 2.49317Z" fill="white"/>
<path fill-rule="evenodd" clip-rule="evenodd" d="M202.781 273.868C203.05 273.885 203.32 273.901 203.586 273.917C203.316 273.901 203.048 273.884 202.781 273.868Z" fill="white"/>
<path fill-rule="evenodd" clip-rule="evenodd" d="M18.1055 57.8179C18.5094 57.8283 18.9133 57.8392 19.3125 57.8501C18.9065 57.8392 18.506 57.8283 18.1055 57.8179Z" fill="white"/>
<path fill-rule="evenodd" clip-rule="evenodd" d="M288.078 20.8892C287.408 20.8421 286.737 20.795 286.066 20.7476C286.738 20.795 287.408 20.8421 288.078 20.8892Z" fill="white"/>
<path fill-rule="evenodd" clip-rule="evenodd" d="M76.043 19.0054C75.1019 19.007 74.1621 19.0086 73.2266 19.0102C74.1695 19.0086 75.1062 19.007 76.043 19.0054Z" fill="white"/>
<path fill-rule="evenodd" clip-rule="evenodd" d="M266.131 101.891C266.143 102.562 266.156 103.234 266.169 103.902C266.157 103.23 266.145 102.56 266.131 101.891Z" fill="white"/>
<path fill-rule="evenodd" clip-rule="evenodd" d="M216.863 245.942C216.325 245.934 215.788 245.925 215.254 245.917C215.793 245.924 216.328 245.933 216.863 245.942Z" fill="white"/>
<path fill-rule="evenodd" clip-rule="evenodd" d="M273.996 32.7655C274.801 32.6762 275.605 32.5869 276.41 32.4976C275.638 33.1807 274.803 32.7261 273.996 32.7655Z" fill="white"/>
<path fill-rule="evenodd" clip-rule="evenodd" d="M212.438 246.154C212.034 246.138 211.631 246.123 211.23 246.109C211.635 246.124 212.036 246.139 212.438 246.154Z" fill="white"/>
<path fill-rule="evenodd" clip-rule="evenodd" d="M198.525 253.172C198.546 253.844 198.566 254.515 198.587 255.184C198.567 254.511 198.546 253.841 198.525 253.172Z" fill="white"/>
<path fill-rule="evenodd" clip-rule="evenodd" d="M259.914 57.4706C260.451 57.4207 260.987 57.3708 261.523 57.3213C261.034 57.6987 260.459 57.4778 259.914 57.4706Z" fill="white"/>
<path fill-rule="evenodd" clip-rule="evenodd" d="M84.0898 164.508C84.6263 164.607 85.1633 164.705 85.6992 164.804C85.1628 164.705 84.6263 164.607 84.0898 164.508Z" fill="white"/>
<path fill-rule="evenodd" clip-rule="evenodd" d="M167.777 58.6401C168.447 58.0696 169.118 58.1315 169.789 58.6337C169.118 58.6353 168.448 58.6377 167.777 58.6401Z" fill="white"/>
<path fill-rule="evenodd" clip-rule="evenodd" d="M142.602 78.957C142.621 78.6887 142.64 78.4203 142.66 78.1523C142.642 78.421 142.622 78.689 142.602 78.957Z" fill="white"/>
<path fill-rule="evenodd" clip-rule="evenodd" d="M259.705 71.3125C259.711 71.8498 259.716 72.3872 259.722 72.9219C259.717 72.3832 259.711 71.8479 259.705 71.3125Z" fill="white"/>
<path fill-rule="evenodd" clip-rule="evenodd" d="M82.1923 155.415C83.0751 155.714 84.8506 156.618 85.8793 156.498C86.7028 156.402 87.3816 155.401 88.1757 155.402C90.3143 155.405 89.9178 157.877 88.8845 159.204C87.153 161.428 79.8463 158.901 82.1923 155.415Z" fill="white"/>
<path fill-rule="evenodd" clip-rule="evenodd" d="M92.4655 144.076C95.3818 144.828 92.3839 149.695 89.9324 150.136C87.0458 150.656 86.4334 146.741 87.0037 144.856C88.4893 145.738 87.6789 147.586 89.551 146.716C90.7414 146.161 92.1058 145.148 92.4655 144.076Z" fill="white"/>
</svg>
