<?xml version="1.0" encoding="UTF-8"?>
<svg id="Layer_1" data-name="Layer 1" xmlns="http://www.w3.org/2000/svg" viewBox="0 0 1080 600">
  <path d="M221.97,238.18c2.18,0,4.05,.78,5.6,2.33,1.55,1.55,2.33,3.39,2.33,5.51s-.78,4.05-2.33,5.6c-1.55,1.55-3.42,2.33-5.6,2.33h-74.19c-2.18,0-4.02-.78-5.51-2.33-1.55-1.55-2.33-3.42-2.33-5.6s.78-3.96,2.33-5.51c1.49-1.55,3.33-2.33,5.51-2.33h74.19Zm0,53.94c2.18,0,4.05,.78,5.6,2.33s2.33,3.42,2.33,5.6-.78,3.96-2.33,5.51c-1.55,1.55-3.42,2.33-5.6,2.33h-74.19c-2.18,0-4.02-.78-5.51-2.33-1.55-1.55-2.33-3.39-2.33-5.51s.78-4.05,2.33-5.6c1.49-1.55,3.33-2.33,5.51-2.33h74.19Zm7.93,61.87c0,2.18-.78,4.02-2.33,5.51-1.55,1.55-3.42,2.33-5.6,2.33h-74.19c-2.18,0-4.02-.78-5.51-2.33-1.55-1.49-2.33-3.33-2.33-5.51s.78-4.05,2.33-5.6c1.49-1.55,3.33-2.33,5.51-2.33h74.19c2.18,0,4.05,.78,5.6,2.33,1.55,1.55,2.33,3.42,2.33,5.6Z" fill="#fff"/>
  <path d="M266.73,361.82c-2.18,0-4.02-.78-5.51-2.33-1.55-1.49-2.33-3.33-2.33-5.51v-107.96c0-2.13,.78-3.96,2.33-5.51,1.49-1.55,3.33-2.33,5.51-2.33s4.05,.78,5.6,2.33c1.55,1.55,2.33,3.39,2.33,5.51v100.04h68.5c2.18,0,4.05,.78,5.6,2.33,1.55,1.55,2.33,3.42,2.33,5.6s-.78,4.02-2.33,5.51c-1.55,1.55-3.42,2.33-5.6,2.33h-76.43Z" fill="#fff"/>
  <path d="M357.26,253.95c-2.18,0-4.02-.78-5.51-2.33-1.55-1.55-2.33-3.42-2.33-5.6s.78-3.96,2.33-5.51c1.49-1.55,3.33-2.33,5.51-2.33h83.23c2.13,0,3.96,.78,5.51,2.33,1.55,1.55,2.33,3.39,2.33,5.51s-.78,4.05-2.33,5.6-3.39,2.33-5.51,2.33h-33.78v100.04c0,2.18-.75,4.02-2.24,5.51-1.55,1.55-3.42,2.33-5.6,2.33s-4.05-.78-5.6-2.33-2.24-3.33-2.24-5.51v-100.04h-33.78Z" fill="#fff"/>
  <path d="M559.35,238.18c2.18,0,4.05,.78,5.6,2.33s2.33,3.39,2.33,5.51-.78,4.05-2.33,5.6c-1.55,1.55-3.42,2.33-5.6,2.33h-74.19c-2.18,0-4.02-.78-5.51-2.33-1.55-1.55-2.33-3.42-2.33-5.6s.78-3.96,2.33-5.51c1.49-1.55,3.33-2.33,5.51-2.33h74.19Zm0,53.94c2.18,0,4.05,.78,5.6,2.33,1.55,1.55,2.33,3.42,2.33,5.6s-.78,3.96-2.33,5.51-3.42,2.33-5.6,2.33h-74.19c-2.18,0-4.02-.78-5.51-2.33-1.55-1.55-2.33-3.39-2.33-5.51s.78-4.05,2.33-5.6c1.49-1.55,3.33-2.33,5.51-2.33h74.19Zm7.93,61.87c0,2.18-.78,4.02-2.33,5.51-1.55,1.55-3.42,2.33-5.6,2.33h-74.19c-2.18,0-4.02-.78-5.51-2.33-1.55-1.49-2.33-3.33-2.33-5.51s.78-4.05,2.33-5.6c1.49-1.55,3.33-2.33,5.51-2.33h74.19c2.18,0,4.05,.78,5.6,2.33s2.33,3.42,2.33,5.6Z" fill="#fff"/>
  <path d="M605.4,361.82c-3.22,0-5.54-1.43-6.98-4.31-1.43-2.87-1.2-5.6,.69-8.19l69.54-95.38h-63.25c-2.12,0-3.96-.78-5.51-2.33-1.55-1.55-2.33-3.42-2.33-5.6s.78-3.96,2.33-5.51c1.55-1.55,3.39-2.33,5.51-2.33h78.76c3.22,0,5.54,1.44,6.98,4.31,1.43,2.87,1.2,5.6-.69,8.18l-69.54,95.38h63.25c2.12,0,3.96,.78,5.51,2.33,1.55,1.55,2.33,3.42,2.33,5.6s-.78,4.02-2.33,5.51c-1.55,1.55-3.39,2.33-5.51,2.33h-78.76Z" fill="#fff"/>
  <path d="M723.78,361.82c-3.22,0-5.54-1.43-6.98-4.31-1.43-2.87-1.2-5.6,.69-8.19l69.54-95.38h-63.25c-2.12,0-3.96-.78-5.51-2.33-1.55-1.55-2.33-3.42-2.33-5.6s.78-3.96,2.33-5.51c1.55-1.55,3.39-2.33,5.51-2.33h78.76c3.22,0,5.54,1.44,6.98,4.31,1.43,2.87,1.2,5.6-.69,8.18l-69.54,95.38h63.25c2.12,0,3.96,.78,5.51,2.33,1.55,1.55,2.33,3.42,2.33,5.6s-.78,4.02-2.33,5.51c-1.55,1.55-3.39,2.33-5.51,2.33h-78.76Z" fill="#fff"/>
  <path d="M938.72,358.29c-1.55,2.36-3.76,3.53-6.63,3.53h-58.42c-2.18,0-4.05-.78-5.6-2.33-1.49-1.55-2.24-3.39-2.24-5.51s.75-4.05,2.24-5.6c1.55-1.55,3.42-2.33,5.6-2.33h46.44l-35.24-80.39-39.98,91.42c-1.38,3.16-3.76,4.74-7.15,4.74-1.09,0-2.15-.23-3.19-.69-2.01-.86-3.39-2.3-4.14-4.31-.8-2.01-.78-4.02,.09-6.03l47.22-107.87c1.38-3.16,3.76-4.74,7.15-4.74s5.86,1.58,7.24,4.74l47.22,107.87c1.15,2.59,.95,5.09-.6,7.5Z" fill="#fff"/>
</svg>