<svg width="117" height="211" viewBox="0 0 117 211" fill="none" xmlns="http://www.w3.org/2000/svg">
<g clip-path="url(#clip0_9_805)">
<path d="M46.4451 167.634C46.4451 167.208 46.5972 166.842 46.8994 166.54C47.2017 166.237 47.5605 166.084 47.9739 166.084C48.3873 166.084 48.7636 166.237 49.0659 166.54C49.3681 166.842 49.5202 167.208 49.5202 167.634L49.5202 182.128C49.5202 182.554 49.3681 182.914 49.0659 183.205C48.7636 183.508 48.399 183.66 47.9739 183.66C47.5488 183.66 47.2017 183.508 46.8994 183.205C46.5972 182.914 46.4451 182.554 46.4451 182.128L46.4451 167.634ZM56.9634 167.634C56.9634 167.208 57.1155 166.842 57.4177 166.54C57.72 166.237 58.0846 166.084 58.5097 166.084C58.9348 166.084 59.2819 166.237 59.5842 166.54C59.8864 166.842 60.0385 167.208 60.0385 167.634L60.0385 182.128C60.0385 182.554 59.8864 182.914 59.5842 183.205C59.2819 183.508 58.9231 183.66 58.5097 183.66C58.0963 183.66 57.72 183.508 57.4177 183.205C57.1155 182.914 56.9634 182.554 56.9634 182.128L56.9634 167.634ZM69.028 166.084C69.4531 166.084 69.8119 166.237 70.1025 166.54C70.4047 166.842 70.5568 167.208 70.5568 167.634L70.5568 182.128C70.5568 182.554 70.4047 182.914 70.1025 183.205C69.8119 183.508 69.4531 183.66 69.028 183.66C68.6029 183.66 68.2383 183.508 67.936 183.205C67.6338 182.914 67.4817 182.554 67.4817 182.128L67.4817 167.634C67.4817 167.208 67.6338 166.842 67.936 166.54C68.2383 166.237 68.6029 166.084 69.028 166.084Z" fill="white"/>
<path d="M70.5549 158.889C70.5549 159.315 70.4028 159.674 70.1005 159.965C69.81 160.268 69.4512 160.421 69.0261 160.421L47.9739 160.421C47.5585 160.421 47.2017 160.268 46.8994 159.965C46.5972 159.674 46.4451 159.315 46.4451 158.889C46.4451 158.463 46.5972 158.098 46.8994 157.795C47.2017 157.492 47.5605 157.34 47.9739 157.34L67.4817 157.34L67.4817 143.957C67.4817 143.531 67.6338 143.166 67.936 142.863C68.2383 142.56 68.6029 142.408 69.028 142.408C69.4531 142.408 69.8119 142.56 70.1025 142.863C70.4047 143.166 70.5568 143.531 70.5568 143.957L70.5568 158.889L70.5549 158.889Z" fill="white"/>
<path d="M49.5202 141.202C49.5202 141.628 49.3681 141.987 49.0659 142.278C48.7636 142.581 48.399 142.734 47.9739 142.734C47.5488 142.734 47.2017 142.581 46.8994 142.278C46.5972 141.987 46.4451 141.628 46.4451 141.202L46.4451 124.941C46.4451 124.525 46.5972 124.168 46.8994 123.865C47.2017 123.562 47.5605 123.41 47.9739 123.41C48.3873 123.41 48.7636 123.562 49.0659 123.865C49.3681 124.168 49.5202 124.527 49.5202 124.941L49.5202 131.541L69.028 131.541C69.4531 131.541 69.8119 131.687 70.1025 131.979C70.4047 132.281 70.5568 132.647 70.5568 133.073C70.5568 133.498 70.4047 133.864 70.1025 134.167C69.8002 134.469 69.4531 134.604 69.028 134.604L49.5202 134.604L49.5202 141.204L49.5202 141.202Z" fill="white"/>
<path d="M46.4451 101.72C46.4451 101.294 46.5972 100.928 46.8994 100.626C47.2017 100.323 47.5605 100.17 47.9739 100.17C48.3873 100.17 48.7636 100.323 49.0659 100.626C49.3681 100.928 49.5202 101.294 49.5202 101.72L49.5202 116.214C49.5202 116.64 49.3681 117 49.0659 117.291C48.7636 117.593 48.399 117.746 47.9739 117.746C47.5488 117.746 47.2017 117.593 46.8994 117.291C46.5972 117 46.4451 116.64 46.4451 116.214L46.4451 101.72ZM56.9634 101.72C56.9634 101.294 57.1155 100.928 57.4177 100.626C57.72 100.323 58.0846 100.17 58.5097 100.17C58.9348 100.17 59.2819 100.323 59.5842 100.626C59.8864 100.928 60.0385 101.294 60.0385 101.72L60.0385 116.214C60.0385 116.64 59.8864 117 59.5842 117.291C59.2819 117.593 58.9231 117.746 58.5097 117.746C58.0963 117.746 57.72 117.593 57.4177 117.291C57.1155 117 56.9634 116.64 56.9634 116.214L56.9634 101.72ZM69.028 100.17C69.4531 100.17 69.8119 100.323 70.1025 100.626C70.4047 100.928 70.5568 101.294 70.5568 101.72L70.5568 116.214C70.5568 116.64 70.4047 117 70.1025 117.291C69.8119 117.593 69.4531 117.746 69.028 117.746C68.6029 117.746 68.2383 117.593 67.936 117.291C67.6338 117 67.4817 116.64 67.4817 116.214L67.4817 101.72C67.4817 101.294 67.6338 100.928 67.936 100.626C68.2383 100.323 68.6029 100.17 69.028 100.17Z" fill="white"/>
<path d="M70.5549 92.7226C70.5549 93.3517 70.276 93.805 69.7144 94.0863C69.1548 94.3657 68.6224 94.3208 68.1174 93.9515L49.5183 80.3655L49.5183 92.7226C49.5183 93.1368 49.3662 93.4963 49.0639 93.7991C48.7617 94.102 48.397 94.2544 47.9719 94.2544C47.5468 94.2544 47.1997 94.102 46.8975 93.7991C46.5952 93.4963 46.4431 93.1368 46.4431 92.7226L46.4431 77.3353C46.4431 76.7062 46.7239 76.2529 47.2836 75.9716C47.8432 75.6922 48.3756 75.7372 48.8787 76.1064L67.4778 89.6925L67.4778 77.3353C67.4778 76.9211 67.6299 76.5616 67.9321 76.2588C68.2344 75.956 68.599 75.8036 69.0241 75.8036C69.4492 75.8036 69.808 75.956 70.0986 76.2588C70.4008 76.5616 70.5529 76.9211 70.5529 77.3353L70.5529 92.7226L70.5549 92.7226Z" fill="white"/>
<path d="M70.5549 69.5947C70.5549 70.2238 70.276 70.6771 69.7144 70.9584C69.1548 71.2378 68.6224 71.1929 68.1174 70.8236L49.5183 57.2375L49.5183 69.5947C49.5183 70.0089 49.3662 70.3684 49.0639 70.6712C48.7617 70.974 48.397 71.1264 47.9719 71.1264C47.5468 71.1264 47.1997 70.974 46.8975 70.6712C46.5952 70.3684 46.4431 70.0089 46.4431 69.5947L46.4431 54.2074C46.4431 53.5783 46.7239 53.125 47.2836 52.8437C47.8432 52.5643 48.3756 52.6092 48.8787 52.9785L67.4778 66.5645L67.4778 54.2074C67.4778 53.7932 67.6299 53.4337 67.9321 53.1309C68.2344 52.828 68.599 52.6757 69.0241 52.6757C69.4492 52.6757 69.808 52.828 70.0986 53.1309C70.4008 53.4337 70.5529 53.7932 70.5529 54.2074L70.5529 69.5947L70.5549 69.5947Z" fill="white"/>
<path d="M69.8665 27.602C70.3267 27.9048 70.5549 28.3365 70.5549 28.8973L70.5549 40.3108C70.5549 40.7367 70.4028 41.1021 70.1005 41.4049C69.7983 41.696 69.4395 41.8425 69.0261 41.8425C68.6127 41.8425 68.2363 41.696 67.9341 41.4049C67.6318 41.1021 67.4797 40.7367 67.4797 40.3108L67.4797 31.2378L51.8037 38.1227L69.6306 45.9336C70.2468 46.2032 70.5549 46.6682 70.5549 47.3305C70.5549 47.5434 70.51 47.7505 70.4203 47.9537C70.2526 48.3464 69.9718 48.616 69.5799 48.7625C69.1879 48.9188 68.796 48.9149 68.404 48.7449L47.3694 39.5196C46.7532 39.2499 46.4451 38.785 46.4451 38.1227C46.4451 37.4604 46.7532 36.9778 47.3694 36.7082L68.404 27.4828C68.9091 27.2581 69.3966 27.2972 69.8665 27.6L69.8665 27.602Z" fill="white"/>
</g>
<defs>
<clipPath id="clip0_9_805">
<rect width="211" height="117" fill="white" transform="translate(0 211) rotate(-90)"/>
</clipPath>
</defs>
</svg>
