<svg width="32" height="32" viewBox="0 0 32 32" fill="none" xmlns="http://www.w3.org/2000/svg">
<g id="_Instagram">
<path id="Vector" d="M8.11436 31.8868C6.21131 31.8003 5.17752 31.4836 4.48991 31.2154C3.5788 30.8606 2.92924 30.4384 2.24543 29.7555C1.56163 29.0727 1.13841 28.4231 0.785568 27.512C0.517372 26.8244 0.200672 25.7906 0.114126 23.8875C0.019021 21.8304 0 21.2132 0 16.0014C0 10.7897 0.0209231 10.1734 0.113175 8.11436C0.199721 6.21131 0.518323 5.17942 0.784617 4.48991C1.13936 3.5788 1.56258 2.92924 2.24448 2.24448C2.92733 1.56163 3.5769 1.13746 4.48896 0.784617C5.17657 0.516421 6.21036 0.199721 8.11341 0.113175C10.1715 0.019021 10.7897 0 15.9995 0C21.2113 0 21.8276 0.0209231 23.8866 0.113175C25.7896 0.199721 26.8215 0.518323 27.511 0.784617C28.4221 1.13746 29.0717 1.56163 29.7555 2.24448C30.4393 2.92733 30.8606 3.57785 31.2154 4.48896C31.4836 5.17657 31.8003 6.21036 31.8868 8.11341C31.981 10.1724 32 10.7887 32 16.0005C32 21.2103 31.981 21.8285 31.8868 23.8875C31.8003 25.7906 31.4817 26.8244 31.2154 27.512C30.8606 28.4231 30.4384 29.0727 29.7555 29.7555C29.0727 30.4384 28.4221 30.8606 27.511 31.2154C26.8234 31.4836 25.7896 31.8003 23.8866 31.8868C21.8295 31.981 21.2113 32 15.9995 32C10.7897 32 10.1715 31.9819 8.11436 31.8868Z" fill="#5F34E0"/>
<path id="Vector_2" d="M12.3701 15.8868C12.3701 13.9441 13.9446 12.3688 15.8873 12.3688C17.8301 12.3688 19.4054 13.9441 19.4054 15.8868C19.4054 17.8296 17.8301 19.4049 15.8873 19.4049C13.9446 19.4049 12.3701 17.8296 12.3701 15.8868ZM10.4683 15.8868C10.4683 18.8798 12.8944 21.3058 15.8873 21.3058C18.8802 21.3058 21.3063 18.8798 21.3063 15.8868C21.3063 12.8939 18.8802 10.4678 15.8873 10.4678C12.8944 10.4678 10.4684 12.8937 10.4684 15.8868M20.2545 10.253C20.2544 10.5034 20.3286 10.7483 20.4677 10.9566C20.6068 11.1649 20.8045 11.3273 21.0358 11.4233C21.2672 11.5192 21.5218 11.5444 21.7675 11.4956C22.0132 11.4469 22.2389 11.3263 22.4161 11.1493C22.5932 10.9723 22.7139 10.7467 22.7629 10.501C22.8119 10.2554 22.7869 10.0007 22.6911 9.7693C22.5954 9.53786 22.4331 9.34001 22.2249 9.20077C22.0167 9.06153 21.7719 8.98716 21.5214 8.98706H21.5209C21.1852 8.98722 20.8633 9.12062 20.6258 9.35797C20.3884 9.59533 20.2548 9.91722 20.2545 10.253ZM11.6238 24.4771C10.5949 24.4302 10.0356 24.2588 9.66397 24.114C9.17126 23.9222 8.81971 23.6938 8.45009 23.3246C8.08047 22.9555 7.85167 22.6043 7.6607 22.1116C7.51582 21.7401 7.34444 21.1807 7.29766 20.1518C7.2465 19.0394 7.23629 18.7052 7.23629 15.887C7.23629 13.0688 7.24735 12.7355 7.29766 11.6222C7.34452 10.5933 7.51717 10.035 7.6607 9.66239C7.85252 9.16967 8.08097 8.81812 8.45009 8.4485C8.8192 8.07888 9.17042 7.85009 9.66397 7.65911C10.0355 7.51424 10.5949 7.34285 11.6238 7.29608C12.7362 7.24492 13.0703 7.2347 15.8873 7.2347C18.7043 7.2347 19.0388 7.24559 20.1521 7.29625C21.181 7.3431 21.7394 7.51576 22.1119 7.65928C22.6046 7.85026 22.9562 8.07956 23.3258 8.44867C23.6954 8.81778 23.9234 9.16984 24.1152 9.66256C24.2601 10.034 24.4315 10.5934 24.4782 11.6224C24.5294 12.7357 24.5396 13.0689 24.5396 15.8872C24.5396 18.7054 24.5294 19.0386 24.4782 20.152C24.4314 21.1809 24.2591 21.7401 24.1152 22.1118C23.9234 22.6045 23.6949 22.956 23.3258 23.3248C22.9567 23.6936 22.6046 23.9224 22.1119 24.1142C21.7404 24.2591 21.181 24.4305 20.1521 24.4772C19.0397 24.5284 18.7056 24.5386 15.8873 24.5386C13.0691 24.5386 12.7358 24.5284 11.6238 24.4772M11.5364 5.39741C10.4129 5.44857 9.64523 5.62671 8.9748 5.88759C8.2809 6.15699 7.6927 6.51842 7.10534 7.10485C6.51798 7.69128 6.15748 8.27956 5.88808 8.97431C5.6272 9.64517 5.44906 10.4124 5.3979 11.5359C5.34589 12.6611 5.33398 13.0209 5.33398 15.8868C5.33398 18.7528 5.34589 19.1125 5.3979 20.2378C5.44906 21.3613 5.6272 22.1285 5.88808 22.7993C6.15748 23.4932 6.51807 24.0826 7.10534 24.6688C7.69261 25.255 8.28005 25.6159 8.9748 25.8861C9.6465 26.1469 10.4129 26.3251 11.5364 26.3763C12.6622 26.4274 13.0214 26.4402 15.8873 26.4402C18.7533 26.4402 19.113 26.4283 20.2382 26.3763C21.3618 26.3251 22.129 26.1469 22.7998 25.8861C23.4937 25.6159 24.0819 25.2552 24.6693 24.6688C25.2567 24.0824 25.6164 23.4932 25.8866 22.7993C26.1474 22.1285 26.3264 21.3612 26.3767 20.2378C26.4279 19.1117 26.4398 18.7528 26.4398 15.8868C26.4398 13.0209 26.4279 12.6611 26.3767 11.5359C26.3256 10.4124 26.1474 9.64474 25.8866 8.97431C25.6164 8.28041 25.2557 7.69221 24.6693 7.10485C24.0829 6.5175 23.4937 6.15699 22.8007 5.88759C22.129 5.62671 21.3617 5.44773 20.2391 5.39741C19.1137 5.34599 18.7541 5.3335 15.8886 5.3335C13.0231 5.3335 12.6626 5.3454 11.5368 5.39741" fill="#030304"/>
</g>
</svg>
