<svg width="20" height="20" viewBox="0 0 20 20" fill="none" xmlns="http://www.w3.org/2000/svg">
<g id="LinkedIn logo">
<g clip-path="url(#clip0_2311_2761)">
<path id="Vector" d="M0.666016 3.15654C0.666016 2.55593 0.876232 2.06044 1.29665 1.67006C1.71706 1.27966 2.26362 1.08447 2.93629 1.08447C3.59695 1.08447 4.13148 1.27665 4.53989 1.66105C4.9603 2.05745 5.17052 2.57395 5.17052 3.2106C5.17052 3.78718 4.96632 4.26764 4.55791 4.65204C4.13749 5.04844 3.58493 5.24663 2.90025 5.24663H2.88223C2.22157 5.24663 1.68704 5.04844 1.27863 4.65204C0.870214 4.25564 0.666016 3.75714 0.666016 3.15654ZM0.90025 18.9223V6.88627H4.90025V18.9223H0.90025ZM7.11647 18.9223H11.1165V12.2016C11.1165 11.7812 11.1645 11.4568 11.2606 11.2286C11.4288 10.8202 11.684 10.4749 12.0264 10.1926C12.3687 9.91029 12.7981 9.76916 13.3147 9.76916C14.66 9.76916 15.3327 10.6761 15.3327 12.4899V18.9223H19.3327V12.0214C19.3327 10.2436 18.9123 8.89528 18.0714 7.97636C17.2306 7.05745 16.1195 6.59799 14.7381 6.59799C13.1885 6.59799 11.9813 7.26465 11.1165 8.59799V8.63402H11.0984L11.1165 8.59799V6.88627H7.11647C7.14048 7.27065 7.1525 8.46584 7.1525 10.4719C7.1525 12.4779 7.14048 15.2947 7.11647 18.9223Z" fill="#030304"/>
</g>
</g>
<defs>
<clipPath id="clip0_2311_2761">
<rect x="0.666016" y="0.666504" width="18.6667" height="18.6667" fill="white"/>
</clipPath>
</defs>
</svg>
