<svg width="120" height="21" viewBox="0 0 120 21" fill="none" xmlns="http://www.w3.org/2000/svg">
<path d="M11.0686 1.52973C10.8682 1.11384 10.4448 0.849182 9.97974 0.849182C9.5147 0.849182 9.09502 1.11384 8.89086 1.52973L6.45979 6.53176L1.03052 7.3333C0.57682 7.40136 0.198737 7.71894 0.0588465 8.15374C-0.0810441 8.58853 0.0323806 9.0687 0.357532 9.39007L4.29715 13.2881L3.36707 18.7968C3.29145 19.2505 3.4805 19.7117 3.8548 19.9802C4.2291 20.2486 4.72439 20.2826 5.13272 20.0671L9.98352 17.4773L14.8343 20.0671C15.2426 20.2826 15.7379 20.2524 16.1122 19.9802C16.4865 19.7079 16.6756 19.2505 16.6 18.7968L15.6661 13.2881L19.6057 9.39007C19.9309 9.0687 20.0481 8.58853 19.9044 8.15374C19.7607 7.71894 19.3864 7.40136 18.9327 7.3333L13.4997 6.53176L11.0686 1.52973Z" fill="#5F34E0"/>
<path d="M35.8733 1.52973C35.6729 1.11384 35.2495 0.849182 34.7844 0.849182C34.3194 0.849182 33.8997 1.11384 33.6955 1.52973L31.2645 6.53176L25.8352 7.3333C25.3815 7.40136 25.0034 7.71894 24.8635 8.15374C24.7236 8.58853 24.8371 9.0687 25.1622 9.39007L29.1018 13.2881L28.1718 18.7968C28.0961 19.2505 28.2852 19.7117 28.6595 19.9802C29.0338 20.2486 29.5291 20.2826 29.9374 20.0671L34.7882 17.4773L39.639 20.0671C40.0473 20.2826 40.5426 20.2524 40.9169 19.9802C41.2912 19.7079 41.4803 19.2505 41.4047 18.7968L40.4708 13.2881L44.4104 9.39007C44.7356 9.0687 44.8528 8.58853 44.7091 8.15374C44.5654 7.71894 44.1911 7.40136 43.7374 7.3333L38.3044 6.53176L35.8733 1.52973Z" fill="#5F34E0"/>
<path d="M60.678 1.52973C60.4776 1.11384 60.0542 0.849182 59.5891 0.849182C59.1241 0.849182 58.7044 1.11384 58.5002 1.52973L56.0692 6.53176L50.6399 7.3333C50.1862 7.40136 49.8081 7.71894 49.6682 8.15374C49.5283 8.58853 49.6418 9.0687 49.9669 9.39007L53.9065 13.2881L52.9764 18.7968C52.9008 19.2505 53.0899 19.7117 53.4642 19.9802C53.8385 20.2486 54.3338 20.2826 54.7421 20.0671L59.5929 17.4773L64.4437 20.0671C64.852 20.2826 65.3473 20.2524 65.7216 19.9802C66.0959 19.7079 66.285 19.2505 66.2093 18.7968L65.2755 13.2881L69.2151 9.39007C69.5403 9.0687 69.6575 8.58853 69.5138 8.15374C69.3701 7.71894 68.9958 7.40136 68.5421 7.3333L63.1091 6.53176L60.678 1.52973Z" fill="#5F34E0"/>
<path d="M85.4837 1.52973C85.2833 1.11384 84.8598 0.849182 84.3948 0.849182C83.9297 0.849182 83.5101 1.11384 83.3059 1.52973L80.8748 6.53176L75.4456 7.3333C74.9919 7.40136 74.6138 7.71894 74.4739 8.15374C74.334 8.58853 74.4474 9.0687 74.7726 9.39007L78.7122 13.2881L77.7821 18.7968C77.7065 19.2505 77.8955 19.7117 78.2698 19.9802C78.6441 20.2486 79.1394 20.2826 79.5478 20.0671L84.3986 17.4773L89.2494 20.0671C89.6577 20.2826 90.153 20.2524 90.5273 19.9802C90.9016 19.7079 91.0906 19.2505 91.015 18.7968L90.0811 13.2881L94.0208 9.39007C94.3459 9.0687 94.4631 8.58853 94.3194 8.15374C94.1758 7.71894 93.8015 7.40136 93.3478 7.3333L87.9147 6.53176L85.4837 1.52973Z" fill="#5F34E0"/>
<path d="M110.288 1.52973C110.088 1.11384 109.665 0.849182 109.199 0.849182C108.734 0.849182 108.315 1.11384 108.111 1.52973L105.68 6.53176L100.25 7.3333C99.7965 7.40136 99.4185 7.71894 99.2786 8.15374C99.1387 8.58853 99.2521 9.0687 99.5773 9.39007L103.517 13.2881L102.587 18.7968C102.511 19.2505 102.7 19.7117 103.075 19.9802C103.449 20.2486 103.944 20.2826 104.352 20.0671L109.203 17.4773L114.054 20.0671C114.462 20.2826 114.958 20.2524 115.332 19.9802C115.706 19.7079 115.895 19.2505 115.82 18.7968L114.886 13.2881L118.825 9.39007C119.151 9.0687 119.268 8.58853 119.124 8.15374C118.98 7.71894 118.606 7.40136 118.152 7.3333L112.719 6.53176L110.288 1.52973Z" fill="#5F34E0"/>
</svg>
