<svg width="120" height="20" viewBox="0 0 120 20" fill="none" xmlns="http://www.w3.org/2000/svg">
<path d="M11.0686 1.14197C10.8682 0.726084 10.4448 0.461426 9.97974 0.461426C9.5147 0.461426 9.09502 0.726084 8.89086 1.14197L6.45979 6.14401L1.03052 6.94554C0.57682 7.0136 0.198737 7.33119 0.0588465 7.76598C-0.0810441 8.20078 0.0323806 8.68094 0.357532 9.00231L4.29715 12.9003L3.36707 18.409C3.29145 18.8627 3.4805 19.324 3.8548 19.5924C4.2291 19.8608 4.72439 19.8949 5.13272 19.6794L9.98352 17.0895L14.8343 19.6794C15.2426 19.8949 15.7379 19.8646 16.1122 19.5924C16.4865 19.3202 16.6756 18.8627 16.6 18.409L15.6661 12.9003L19.6057 9.00231C19.9309 8.68094 20.0481 8.20078 19.9044 7.76598C19.7607 7.33119 19.3864 7.0136 18.9327 6.94554L13.4997 6.14401L11.0686 1.14197Z" fill="#FF6947"/>
<path d="M35.8733 1.14197C35.6729 0.726084 35.2495 0.461426 34.7844 0.461426C34.3194 0.461426 33.8997 0.726084 33.6955 1.14197L31.2645 6.14401L25.8352 6.94554C25.3815 7.0136 25.0034 7.33119 24.8635 7.76598C24.7236 8.20078 24.8371 8.68094 25.1622 9.00231L29.1018 12.9003L28.1718 18.409C28.0961 18.8627 28.2852 19.324 28.6595 19.5924C29.0338 19.8608 29.5291 19.8949 29.9374 19.6794L34.7882 17.0895L39.639 19.6794C40.0473 19.8949 40.5426 19.8646 40.9169 19.5924C41.2912 19.3202 41.4803 18.8627 41.4047 18.409L40.4708 12.9003L44.4104 9.00231C44.7356 8.68094 44.8528 8.20078 44.7091 7.76598C44.5654 7.33119 44.1911 7.0136 43.7374 6.94554L38.3044 6.14401L35.8733 1.14197Z" fill="#FF6947"/>
<path d="M60.6785 1.14197C60.4781 0.726084 60.0546 0.461426 59.5896 0.461426C59.1246 0.461426 58.7049 0.726084 58.5007 1.14197L56.0697 6.14401L50.6404 6.94554C50.1867 7.0136 49.8086 7.33119 49.6687 7.76598C49.5288 8.20078 49.6422 8.68094 49.9674 9.00231L53.907 12.9003L52.9769 18.409C52.9013 18.8627 53.0904 19.324 53.4647 19.5924C53.839 19.8608 54.3343 19.8949 54.7426 19.6794L59.5934 17.0895L64.4442 19.6794C64.8525 19.8949 65.3478 19.8646 65.7221 19.5924C66.0964 19.3202 66.2854 18.8627 66.2098 18.409L65.276 12.9003L69.2156 9.00231C69.5407 8.68094 69.6579 8.20078 69.5143 7.76598C69.3706 7.33119 68.9963 7.0136 68.5426 6.94554L63.1096 6.14401L60.6785 1.14197Z" fill="#FF6947"/>
<path d="M85.4832 1.14197C85.2828 0.726084 84.8593 0.461426 84.3943 0.461426C83.9292 0.461426 83.5096 0.726084 83.3054 1.14197L80.8743 6.14401L75.4451 6.94554C74.9914 7.0136 74.6133 7.33119 74.4734 7.76598C74.3335 8.20078 74.4469 8.68094 74.7721 9.00231L78.7117 12.9003L77.7816 18.409C77.706 18.8627 77.895 19.324 78.2693 19.5924C78.6436 19.8608 79.1389 19.8949 79.5473 19.6794L84.3981 17.0895L89.2489 19.6794C89.6572 19.8949 90.1525 19.8646 90.5268 19.5924C90.9011 19.3202 91.0901 18.8627 91.0145 18.409L90.0807 12.9003L94.0203 9.00231C94.3454 8.68094 94.4626 8.20078 94.319 7.76598C94.1753 7.33119 93.801 7.0136 93.3473 6.94554L87.9142 6.14401L85.4832 1.14197Z" fill="#FF6947"/>
<path d="M110.288 1.14197C110.088 0.726084 109.665 0.461426 109.199 0.461426C108.734 0.461426 108.315 0.726084 108.111 1.14197L105.68 6.14401L100.25 6.94554C99.7965 7.0136 99.4185 7.33119 99.2786 7.76598C99.1387 8.20078 99.2521 8.68094 99.5773 9.00231L103.517 12.9003L102.587 18.409C102.511 18.8627 102.7 19.324 103.075 19.5924C103.449 19.8608 103.944 19.8949 104.352 19.6794L109.203 17.0895L114.054 19.6794C114.462 19.8949 114.958 19.8646 115.332 19.5924C115.706 19.3202 115.895 18.8627 115.82 18.409L114.886 12.9003L118.825 9.00231C119.151 8.68094 119.268 8.20078 119.124 7.76598C118.98 7.33119 118.606 7.0136 118.152 6.94554L112.719 6.14401L110.288 1.14197Z" fill="#FF6947"/>
</svg>
