<?xml version="1.0" encoding="UTF-8"?>
<svg id="Layer_1" data-name="Layer 1" xmlns="http://www.w3.org/2000/svg" viewBox="0 0 338.99 387.35">
  <defs>
    <style>
      .cls-1 {
        fill: #fff;
      }
    </style>
  </defs>
  <g>
    <path d="M29.21,343.43v42.7c0,.95-.53,.95-1.38,.95h-7.86c-.85,0-1.49-.11-1.49-.95v-13.17c0-1.06-.32-1.27-1.06-1.27h-5.42c-1.17,.11-1.17,.53-1.17,1.27v13.17c0,.85-.42,.95-1.49,.95H1.27c-.85,0-1.27-.21-1.27-.95v-40.79c0-3.4,2.23-6.9,9.24-7.01h15.08c3.61,.11,4.89,2.66,4.89,5.1Zm-10.73,5.95c0-.42-.32-.74-.74-.74h-6.16c-.42,0-.74,.32-.74,.74v11.37c0,.43,.32,.74,.74,.74h6.16c.42,0,.74-.32,.74-.74v-11.37Z"/>
    <path d="M68.4,377v9.35c0,.32-.42,.74-.74,.74h-20.82c-.42,0-.74-.32-.74-.74v-47.27c0-.32,.32-.63,.74-.63h9.35c.32,0,.64,.32,.64,.63v37.18h10.84c.32,0,.74,.32,.74,.74Z"/>
    <path d="M135.83,379.02c0,6.59-3.93,8.07-8.71,8.29-4.46,.11-17.95,0-19.12,0s-1.49-.95-1.49-1.91v-45.57c0-.95,.32-1.38,1.49-1.38h20.71c4.35,0,7.01,3.93,7.01,8.29v11.58c0,1.7-1.06,3.93-3.5,4.88,2.34,.53,3.5,2.23,3.5,3.93,0,3.71,.11,9.66,.11,11.89Zm-10.84-27.51c0-2.02-.32-2.87-2.44-2.87h-4.46c-.42,0-.74,.32-.74,.74v7.12c0,.42,.32,.74,.74,.74h4.46c1.8,0,2.44-1.06,2.44-3.19v-2.55Zm0,18.7c0-1.91-.32-2.87-2.44-2.87h-4.46c-.42,0-.74,.32-.74,.74v7.12c0,.43,.32,.74,.74,.74h4.46c1.8,0,2.44-1.06,2.44-3.19v-2.55Z"/>
    <path d="M184.37,386.35c0,.43-.32,.74-.74,.74h-10.62c-.42,0-.74-.11-1.06-.74l-8.6-18.59v18.59c0,.43-.32,.74-.64,.74h-9.35c-.42,0-.74-.32-.74-.74v-47.16c0-.43,.32-.74,.74-.74h20.5c2.97,0,6.91,2.65,6.91,7.12v12.32c-.11,3.93-2.34,8.82-7.01,8.71,0,0,1.91,3.61,10.62,19.76Zm-21.03-27.73c0,.53,.32,.53,1.28,.53h2.34c1.91,0,2.76-.32,2.76-2.44v-6.16c0-2.13-.85-2.45-2.76-2.45h-2.44c-1.17,0-1.17,.43-1.17,.85v9.66Z"/>
    <path d="M227.27,375.73c.11,6.48-3.61,11.26-8.39,11.47-1.27,.11-11.05,.11-12.43,0-4.67-.21-8.39-4.88-8.39-11.47v-29.11c0-2.23,2.66-8.18,7.12-8.18h15.08c4.35,0,7.01,5.95,7.01,8.18v29.11Zm-10.73-24.32c0-1.91-.32-2.76-2.44-2.76h-2.87c-2.13,0-2.44,.85-2.44,2.76v22.41c0,2.13,.64,3.19,2.55,3.19h2.76c1.8,0,2.44-1.06,2.44-3.19v-22.41Z"/>
    <path d="M294.07,339.19l-12.11,47.27c-.11,.32-.53,.64-.96,.64h-6.8c-.32,0-.74-.32-.85-.74l-5.74-23.79-6.48,23.9c-.11,.32-.32,.64-.85,.64h-6.8c-.42,0-.85-.21-.95-.74l-10.2-47.16c-.11-.43,.21-.74,.53-.74h9.35c.42,0,.85,.32,.95,.74l4.68,23.79c0-.21,4.99-18.7,6.48-23.79,.11-.43,.53-.74,.95-.74h4.89c.43,0,.74,.32,.85,.74l5.84,23.9,6.37-23.9c.11-.43,.42-.74,.96-.74h9.35c.32,0,.64,.32,.53,.74Z"/>
    <path d="M338.99,386.35c0,.43-.32,.74-.74,.74h-7.12c-.32,0-.96-.32-1.06-.64l-8.71-19.01c-.21-.43-.85-.43-.85,0v18.91c0,.43-.42,.74-.74,.74h-9.35c-.42,0-.74-.32-.74-.74v-47.16c0-.32,.32-.74,.74-.74h7.76c.42,0,.85,.32,1.06,.63l8.18,19.02c.21,.32,.74,.32,.74-.11v-18.8c0-.43,.42-.74,.74-.74h9.35c.42,0,.74,.32,.74,.74v47.16Z"/>
  </g>
  <path d="M298.54,77.59c-.04-1.8-.31-3.61-.82-5.38-1.96-6.77-7.26-12.93-14.93-15.28-3.99-1.22-8.21-1.33-12.3-2.02-4.7-.79-9.41-1.54-14.13-2.17-1.91-.26-2.93-1.39-3.26-2.78-.07,0-.15,0-.22,0C241.99,23.46,217.04,5.41,188.36,3.58c-15.08-3.7-30.7-5.03-46-1.56-10.13,2.3-18.67,6.87-26.38,12.72-.3,.02-.61,.05-.94,.12-6.28,1.33-10,5.76-12.32,11.07-.45,.24-.87,.57-1.26,1.01-.04,.05-.09,.09-.13,.14-.04,.05-.09,.08-.13,.13-.01,.01-.02,.02-.03,.04-2.16,2.35-5.08,3.87-7.34,6.15-7.39,7.45-10.66,18-13.86,27.72-1.79,5.45-3.81,10.79-5.28,16.35-.82,3.09-1.51,6.21-2.03,9.35-.46,2.78,0,6.91-1.01,9.46-6.18,15.69-7.54,33.26-.14,48.79,.4,.83,.82,1.65,1.25,2.45-1.63,11.1,1.53,21.54,8.56,30.48,3.88,4.94,7,9.12,8.1,15.47,.84,4.88,1.33,9.85,1.76,14.81-.01,.09-.04,.17-.05,.26-.22,2.64-.35,5.27-.39,7.91-3.47,18.04,1.88,36.82,12.37,51.74,4.1,5.84,9.22,11,15.63,14.24,7.22,3.66,15.4,4.65,22.86,7.66,6.6,2.66,13.81,2.79,19.52,7.59,2.77,2.33,4.89,5.54,5.46,9.12,.42,2.61-.06,5.3-1.35,7.6-1.09,1.93-4.14,4.61-2.61,7.11,1.88,1.69,5.86,1.64,8.84,.66,10.49-2,18.32-14.24,26.24-21.7,5.73-4.56,11.88-8.56,18.65-11.03,1.39-.51,3.75-1.17,4.2-2.83,.17-.61,.11-1.26,.05-1.89-.77-8.23-2.78-16.92,.3-24.92,.99-2.57,2.23-5.1,2.44-7.89,.17-2.22,.56-8.33-.98-9.98-.01-.04-.02-.07-.03-.11,0-.02,0-.05,0-.08,1.04-1.11,2.19-2.14,3.48-3.12,3.62-2.75,6.66-6.26,8.51-10.55,2.33-5.38,4.84-10.74,7.11-16.15,1.68-3.98,3.2-8.03,4.56-12.13,1.31-3.93,1.84-8.72,3.6-12.43,7.83-16.59,9.33-35.89,3.92-53.52,.03-5.2,.06-10.4,.09-15.6,.03-6.04,1.27-11.48,6.13-14.61,0,0,7.72-4.37,12.52-5,3.91-.52,7.77-1.72,11.43-3.05,.91-.33,1.81-.71,2.7-1.12,.04-.01,.08-.02,.13-.03,1.3-.46,2.48-1.02,3.57-1.64,.77-.32,1.52-.68,2.28-1.1,.4-.22,.6-.59,.63-.99,.97-.68,1.9-1.44,2.8-2.27,.35-.32,.44-.74,.35-1.14,2.06-2.77,2.93-6.23,2.37-9.7"/>
  <path class="cls-1" d="M274.42,130.16c-.93,12.05-8.45,20.79-17.88,20.79-15.56,0-17.88-12.92-17.88-20.63,0-11.59,7.38-20.01,17.54-20.01h.35c5.01,.1,9.25,1.64,12.4,4.49l-14.41,.26c-.91,3.17-.34,8.21-.34,8.21l19.77,.31c.46,2.04,.63,4.24,.45,6.57m-61.83-4.99c-1.06,12.93-9.62,22.31-20.36,22.31-17.71,0-20.36-13.87-20.36-22.14,0-12.44,8.4-21.47,19.97-21.47h.4c6.63,.12,12.08,2.33,15.77,6.4,3.48,3.84,5.06,9,4.58,14.9m68.6-11.33c-1.72-.4-2.96-1.01-4.56-1.74-1.36-.62-2.71-1.27-4.07-1.9-2.65-1.22-5.35-2.44-8.19-3.14-3.2-.79-6.31-.9-9.57-.99-3.6-.1-7.17,.6-10.65,1.48-5.25,1.33-10.54,2.94-15.99,3.1-2.73,.08-5.47-.23-8.09-1.06-2.62-.84-4.2-2.31-6.4-3.83-6.17-4.26-13.84-6.34-21.29-6.48-.46,0-1.71,.25-2.12,.03-4.09-.11-8.16,.64-12.13,1.59-1.86,.45-10.38,1.79-10.95,3.23-.15,.37-.01,.93-.35,1.14-1.1,.67-5.81,.91-7.19,1.01-4.99,.37-9.97,.73-14.96,1.09-12.48,.91-24.96,1.82-37.44,2.72-2.48,.18-7.75,.59-10.23,.8-4.98,.43-8.22,1.07-11.93,3.69-.18,.13-.31,.34-.32,.57-.12,1.42,3.64,1.01,4.33,.97,5.94-.33,10.51,2.16,16.25,3.16,.33-.02,1.67,.15,2.06,.12,2.81-.18,5.62-.36,8.43-.53,6.92-.44,13.83-.87,20.74-1.31,9.41-.6,18.82-1.19,28.24-1.79,.02,0,.04,0,.06,0,0,0,1.99,.31,2.23,1.78,.23,1.47,.54,5.07,.54,7.79,0,16.54,9.2,26.41,24.63,26.41,12.59,0,23.83-10.44,25.61-24.87,.41-3.65,1.15-8.59,5.27-9.7,1.79-.48,4.12-.7,5.93-.36,3.15,.59,4.17,3.53,4.85,6.3,.02,.06,.04,.11,.06,.16,.46,3.79,.74,7.56,1.16,11.34,.32,2.95,1.01,5.89,2.23,8.61,2.16,4.8,6,8.57,10.99,10.36,2.62,.94,5.42,1.33,8.2,1.33,11.06,0,20.93-9.73,22.5-23.17,.2-1.93,.53-4.09,1.57-5.78,.82-1.32,2.38-1.72,3.41-2.81,.14-.15,.25-.32,.35-.49,.06-1.95,.13-3.9,.28-5.85,0-.07,0-.13,.01-.2,0-.51,.01-1.02,.02-1.53,0-.73-2.98-1.17-3.47-1.29"/>
  <path d="M256.53,155.18c-3.01,0-5.79-.45-8.28-1.35-4.93-1.77-8.88-5.5-11.13-10.49-1.14-2.54-1.9-5.47-2.25-8.69-.18-1.64-.34-3.26-.49-4.89-.2-2.1-.41-4.27-.67-6.41-.03-.07-.04-.11-.06-.16-.66-2.67-1.62-5.56-4.66-6.13-1.63-.31-3.87-.17-5.83,.36-3.84,1.03-4.64,5.44-5.09,9.49-1.77,14.3-12.88,25.08-25.85,25.08-15.57,0-24.87-9.97-24.87-26.65,0-2.81-.32-6.37-.53-7.76-.2-1.28-2.01-1.58-2.02-1.58l-48.98,3.1c-2.12,.13-4.25,.27-6.37,.4l-2.06,.13c-.22,.02-.66-.02-1.12-.06-.37-.03-.79-.06-.93-.06-2.15-.37-4.1-.93-5.98-1.48-3.36-.98-6.53-1.89-10.28-1.68l-.26,.02c-1.54,.11-3.39,.15-4.06-.53-.19-.2-.28-.45-.26-.72,.02-.29,.18-.56,.42-.74,3.69-2.61,6.83-3.28,12.06-3.74,2.51-.21,7.77-.63,10.24-.8,12.48-.9,24.96-1.81,37.44-2.72l15.5-1.13c1.68-.11,5.61-.37,6.54-.94,.1-.06,.13-.24,.15-.5,.02-.18,.03-.36,.1-.52,.47-1.18,4.88-2.14,9.36-3.02,.77-.15,1.39-.27,1.76-.36,3.57-.86,7.82-1.7,12.19-1.59l.11,.03c.21,.11,.9,.04,1.35-.01,.27-.03,.52-.04,.67-.05,7.94,.14,15.55,2.46,21.43,6.52,.49,.34,.95,.68,1.4,1,1.58,1.16,2.94,2.15,4.94,2.79,2.46,.78,5.17,1.15,8,1.05,4.6-.14,9.15-1.33,13.55-2.47,.8-.21,1.59-.42,2.38-.62,3.14-.8,6.86-1.61,10.72-1.49,2.94,.08,6.27,.18,9.62,1,2.77,.68,5.37,1.83,8.24,3.15,.61,.28,1.21,.56,1.81,.85,.75,.35,1.5,.71,2.26,1.05l.43,.2c1.43,.66,2.55,1.17,4.09,1.53h0c.07,.02,.19,.04,.34,.07,2,.38,3.33,.77,3.33,1.46l-.02,1.61c0,.05,0,.1-.01,.15-.14,1.85-.21,3.66-.28,5.82l-.03,.11c-.13,.23-.26,.4-.39,.54-.45,.48-1.01,.84-1.55,1.18-.71,.46-1.39,.88-1.83,1.59-1,1.61-1.33,3.68-1.54,5.67-1.55,13.33-11.33,23.39-22.74,23.39Zm-29.43-38.77c.68,0,1.35,.05,1.99,.17,3.17,.6,4.3,3.47,5.04,6.49,0,.02,.02,.05,.03,.08l.04,.11c.26,2.16,.47,4.35,.67,6.46,.15,1.63,.31,3.25,.49,4.89,.35,3.17,1.09,6.04,2.21,8.54,2.19,4.87,6.04,8.51,10.85,10.23,2.43,.87,5.16,1.32,8.11,1.32,11.16,0,20.73-9.87,22.25-22.95,.22-2.05,.56-4.18,1.61-5.88,.5-.8,1.25-1.28,1.98-1.75,.54-.34,1.04-.66,1.46-1.1,.1-.1,.19-.22,.29-.39,.07-2.15,.14-3.94,.28-5.8,0-.05,0-.09,0-.12v-.07s.02-1.52,.02-1.52c0-.1-.21-.46-2.93-.98-.16-.03-.28-.05-.36-.07h0c-1.59-.37-2.79-.92-4.18-1.56l-.43-.2c-.76-.35-1.51-.7-2.27-1.06-.6-.28-1.2-.57-1.81-.85-2.84-1.31-5.42-2.45-8.15-3.12-3.3-.81-6.61-.9-9.52-.99-3.79-.11-7.48,.68-10.59,1.47-.79,.2-1.59,.41-2.38,.62-4.43,1.16-9.01,2.35-13.66,2.49-2.92,.07-5.66-.28-8.17-1.08-2.08-.66-3.54-1.73-5.08-2.86-.44-.32-.9-.66-1.39-1-5.8-4.01-13.32-6.29-21.16-6.43-.15-.03-.36,.02-.61,.05-.69,.07-1.24,.12-1.57-.02-4.3-.11-8.49,.74-12.01,1.58-.37,.09-1,.21-1.78,.36-2.57,.5-8.6,1.69-9,2.72-.04,.1-.05,.24-.07,.4-.03,.3-.07,.67-.38,.86-1.04,.63-4.9,.89-6.76,1.01l-.54,.04-14.96,1.1c-12.48,.91-24.96,1.82-37.44,2.72-2.46,.18-7.72,.59-10.23,.8-5.14,.45-8.22,1.11-11.82,3.65-.12,.09-.21,.24-.22,.39-.01,.14,.03,.25,.12,.34,.6,.61,2.92,.44,3.68,.39l.27-.02c3.83-.22,7.04,.72,10.44,1.7,1.87,.54,3.8,1.1,5.87,1.46,.11-.01,.5,.02,.95,.06,.41,.03,.86,.06,1.05,.06l2.06-.13c2.12-.14,4.25-.27,6.37-.4l49.02-3.1h.1c.06,.01,2.15,.35,2.4,1.98,.22,1.4,.54,4.99,.54,7.83,0,16.38,9.12,26.17,24.39,26.17,12.73,0,23.63-10.6,25.37-24.65,.34-3.04,.97-8.7,5.45-9.91,1.09-.29,2.57-.54,4.05-.54Zm29.43,34.79c-15.77,0-18.13-13.08-18.13-20.88,0-11.73,7.48-20.25,17.78-20.25h.35c5.03,.1,9.38,1.67,12.57,4.55l.46,.41-14.84,.26c-.72,2.73-.39,6.76-.3,7.73l19.75,.31,.04,.19c.48,2.12,.63,4.35,.45,6.65-.94,12.18-8.56,21.02-18.13,21.02Zm-.35-40.64c-10.02,0-17.29,8.31-17.29,19.76,0,7.61,2.29,20.39,17.64,20.39,9.31,0,16.72-8.65,17.64-20.57h0c.17-2.18,.04-4.3-.4-6.32l-19.79-.31-.02-.21c-.02-.21-.56-5.12,.34-8.3l.05-.17h.18s13.78-.25,13.78-.25c-3.05-2.54-7.11-3.93-11.77-4.01h-.35Zm-63.96,37.16c-17.92,0-20.6-14.02-20.6-22.38,0-12.58,8.5-21.72,20.21-21.72h.4c6.7,.12,12.22,2.36,15.95,6.48,3.53,3.89,5.13,9.11,4.64,15.08h0c-1.07,13.06-9.73,22.54-20.6,22.54Zm-.39-43.61c-11.43,0-19.72,8.93-19.72,21.23,0,8.18,2.61,21.89,20.11,21.89,10.61,0,19.07-9.29,20.12-22.09,.48-5.84-1.09-10.92-4.52-14.71-3.64-4.02-9.03-6.2-15.6-6.32h-.4Z"/>
</svg>