<svg width="164" height="54" viewBox="0 0 164 54" fill="none" xmlns="http://www.w3.org/2000/svg">
<path id="AM Logo - Black 1 (Traced)" fill-rule="evenodd" clip-rule="evenodd" d="M0.514648 26.9449V53.8764L8.88679 53.8426L17.2589 53.8089L18.8408 49.8775C19.7107 47.7152 23.0744 39.3499 26.3154 31.288L32.2082 16.63L36.0429 26.2426L39.8774 35.8553L41.9147 35.8913L43.9519 35.9274L39.0827 23.7366L34.2133 11.5458L32.1712 11.5477L30.129 11.5495L22.3878 30.8773L14.6464 50.2051H9.41919H4.19182V27.0095V3.81397H82.0035H159.815V27.0095V50.2051H131.974H104.132V30.8754V11.5458H102.119H100.105L92.7114 30.0564C88.6449 40.2373 85.2793 48.61 85.2327 48.6625C85.186 48.7151 81.7846 40.3854 77.6741 30.1519L70.2005 11.5458H68.1895C67.0835 11.5458 66.1785 11.5608 66.1785 11.579C66.1785 11.5972 69.9844 21.1064 74.636 32.7105L83.0936 53.8089H85.1553H87.2172L93.8033 37.4508L100.389 21.0928L100.423 37.4836L100.456 53.8744H132.04H163.624V26.944V0.0135651H82.0692H0.514648V26.9449ZM127.115 13.9047V16.3946H127.633H128.151L128.191 15.7823C128.213 15.4457 128.294 15.1494 128.371 15.1241C128.448 15.0988 128.65 15.3744 128.82 15.7364C129.122 16.3778 129.144 16.3946 129.698 16.3946C130.011 16.3946 130.266 16.3554 130.266 16.3075C130.266 16.2596 130.03 15.7906 129.741 15.2652C129.452 14.74 129.216 14.2548 129.216 14.1872C129.216 14.1196 129.452 13.7789 129.741 13.4299C130.03 13.081 130.266 12.7503 130.266 12.6948C130.266 12.6395 130.031 12.5942 129.744 12.5942C129.273 12.5942 129.17 12.6595 128.693 13.2612L128.165 13.9283V12.6715V11.4148H127.64H127.115V13.9047ZM131.054 11.8734C131.054 12.3212 131.067 12.3321 131.58 12.3321C132.093 12.3321 132.105 12.3212 132.105 11.8734C132.105 11.4256 132.093 11.4148 131.58 11.4148C131.067 11.4148 131.054 11.4256 131.054 11.8734ZM36.4984 11.6111C36.4984 11.647 38.8623 17.5738 41.7515 24.7817C44.6408 31.9896 47.0047 37.9164 47.0047 37.9523C47.0047 37.9882 43.1633 38.0176 38.4684 38.0176C33.7734 38.0176 29.9321 37.9884 29.9321 37.9527C29.9321 37.9171 30.8776 35.5284 32.0333 32.6446C33.189 29.7607 34.1353 27.3278 34.1364 27.2382C34.1401 26.9285 32.2514 22.2838 32.1636 22.386C32.0684 22.4965 19.6923 53.2627 19.5878 53.6486C19.5291 53.8654 19.6631 53.8789 21.5352 53.8452L23.5456 53.8089L25.9688 47.8127L28.392 41.8164L38.4995 41.85L48.607 41.8835L50.997 47.8462L53.3872 53.8089L55.4372 53.8449L57.4874 53.881L49.0024 32.7134L40.5175 11.5458H38.5079C37.4028 11.5458 36.4984 11.5752 36.4984 11.6111ZM59.8748 32.7068V53.8744H61.7785H63.6822L63.7156 37.5704L63.7489 21.2666L70.3118 37.5704L76.8747 53.8744H78.8898C80.7494 53.8744 80.8993 53.8567 80.8313 53.6451C80.7908 53.5189 76.9869 44.0098 72.3781 32.5135L63.9985 11.6113L61.9366 11.5753L59.8748 11.5391V32.7068ZM93.8444 11.6441C93.8116 11.6981 91.3879 17.6985 88.4585 24.9783L83.1324 38.2141L84.1582 40.7501L85.1838 43.286L91.5062 27.5142C94.9835 18.8397 97.8286 11.6981 97.8285 11.6441C97.8285 11.5901 96.9456 11.5458 95.8663 11.5458C94.7871 11.5458 93.8772 11.5901 93.8444 11.6441ZM109.648 12.0045V12.4632H110.305H110.961V14.4289V16.3946H111.487H112.012V14.4289V12.4632H112.669H113.325V12.0045V11.5458H111.487H109.648V12.0045ZM114.161 11.7424C113.976 12.2228 114.198 12.3321 115.357 12.3321H116.477V11.939V11.5458H115.357C114.482 11.5458 114.22 11.5889 114.161 11.7424ZM114.409 12.7408C113.943 12.8749 113.918 12.9341 114.112 13.4427C114.221 13.73 114.283 13.7625 114.497 13.6478C114.869 13.4493 115.377 13.481 115.614 13.7174C115.954 14.057 115.857 14.131 115.083 14.1199C114.434 14.1106 114.309 14.1525 114.033 14.4729C113.665 14.8991 113.612 15.6602 113.92 16.0982C114.192 16.4853 114.908 16.6068 115.419 16.3524C115.64 16.2425 115.82 16.2071 115.82 16.2736C115.82 16.3401 116.057 16.3946 116.346 16.3946H116.871V15.1455C116.871 13.6039 116.675 13.0565 116.026 12.7861C115.512 12.5715 115.042 12.5584 114.409 12.7408ZM117.615 12.6816C117.567 12.7296 117.528 13.5847 117.528 14.5818V16.3946H118.053H118.578V15.2065C118.578 13.944 118.707 13.5115 119.082 13.5115C119.534 13.5115 119.629 13.789 119.629 15.1103V16.3946H120.154H120.679V15.1103C120.679 13.789 120.774 13.5115 121.226 13.5115C121.602 13.5115 121.73 13.944 121.73 15.2065V16.3946H122.269H122.808L122.762 14.8105C122.716 13.2629 122.706 13.2192 122.346 12.9103C121.926 12.5494 121.437 12.5089 120.897 12.7903C120.566 12.9623 120.491 12.9622 120.244 12.7895C119.879 12.5342 119.307 12.5411 118.902 12.8058C118.604 13.0007 118.578 13.0007 118.578 12.8058C118.578 12.6533 118.456 12.5942 118.141 12.5942C117.9 12.5942 117.663 12.6335 117.615 12.6816ZM123.93 12.7465C123.576 12.8753 123.474 13.1607 123.671 13.4699C123.729 13.5602 124.035 13.6148 124.405 13.6009C124.923 13.5814 125.075 13.6287 125.231 13.8592C125.419 14.1364 125.411 14.1411 124.779 14.1213C123.99 14.0968 123.493 14.3437 123.317 14.8473C123.005 15.7398 123.496 16.4597 124.396 16.4291C124.7 16.4187 125.258 16.4102 125.637 16.4099L126.327 16.4097V14.952C126.327 14.1503 126.263 13.3753 126.185 13.2298C125.898 12.6945 124.748 12.4482 123.93 12.7465ZM131.054 14.4865V16.3946H131.583H132.112L132.076 14.5272L132.039 12.6597L131.547 12.6191L131.054 12.5783V14.4865ZM115.82 15.1524C115.82 15.3754 115.716 15.5302 115.5 15.6284C115.075 15.8219 114.77 15.6876 114.77 15.3066C114.77 14.8954 114.863 14.822 115.383 14.822C115.763 14.822 115.82 14.8653 115.82 15.1524ZM125.38 15.101C125.436 15.3948 125.037 15.7618 124.715 15.7135C124.324 15.6551 124.132 15.2886 124.353 15.0229C124.583 14.7464 125.323 14.8026 125.38 15.101ZM139.065 18.4914V19.0156H139.591H140.116V18.4914V17.9672H139.591H139.065V18.4914ZM110.042 20.5882V23.0781H110.567H111.093V22.3573C111.093 21.666 111.107 21.6365 111.438 21.6365C112.065 21.6365 112.81 21.3345 113.136 20.9481C113.388 20.6488 113.456 20.419 113.456 19.8674C113.456 18.6083 112.73 18.1005 110.928 18.099L110.042 18.0982V20.5882ZM134.688 18.1856C134.64 18.2336 134.6 19.3541 134.6 20.6756V23.0781H135.126H135.651V22.0952V21.1123H136.439H137.227V22.0952V23.0781H137.821H138.415L138.379 20.6209L138.343 18.1638H137.818H137.292L137.254 19.1139L137.215 20.064H136.433H135.651V19.0811V18.0982H135.213C134.972 18.0982 134.736 18.1375 134.688 18.1856ZM112.2 19.3525C112.438 19.5902 112.465 19.971 112.27 20.3347C112.171 20.5199 111.994 20.5882 111.613 20.5882H111.093V19.8674V19.1466H111.543C111.79 19.1466 112.086 19.2393 112.2 19.3525ZM114.146 19.4128C113.808 19.5483 113.809 19.545 113.973 19.9748C114.084 20.2664 114.15 20.2898 114.694 20.2286C115.073 20.1858 115.366 20.2212 115.491 20.3251C115.873 20.6419 115.707 20.7847 114.955 20.7847C114.314 20.7847 114.182 20.8311 113.905 21.1524C113.039 22.1565 114.036 23.5185 115.262 23.0073C115.497 22.9094 115.689 22.8853 115.689 22.9537C115.689 23.0221 115.925 23.0781 116.214 23.0781H116.74V21.7082C116.74 20.1865 116.606 19.7443 116.064 19.4644C115.663 19.2575 114.604 19.229 114.146 19.4128ZM118.12 19.5618C117.175 20.3035 117.165 22.0441 118.102 22.7791C118.64 23.2015 119.272 23.2631 119.957 22.9604C120.618 22.6691 120.663 22.5676 120.289 22.2293C120.067 22.0285 119.974 22.018 119.642 22.1554C119.182 22.3452 118.762 22.2407 118.574 21.8897C118.444 21.6487 118.491 21.6365 119.559 21.6365H120.679V21.0994C120.679 20.4698 120.365 19.7414 119.976 19.4697C119.553 19.1739 118.551 19.2235 118.12 19.5618ZM121.292 19.3651C121.244 19.413 121.205 20.2681 121.205 21.2653V23.0781H121.791H122.378L122.415 21.6693L122.452 20.2605H122.846H123.24L123.278 21.6693L123.315 23.0781H123.918H124.52L124.464 21.5085C124.413 20.0785 124.381 19.9096 124.097 19.6083C123.764 19.2545 123.107 19.1642 122.649 19.4091C122.484 19.4969 122.376 19.4969 122.321 19.4091C122.231 19.2627 121.429 19.2284 121.292 19.3651ZM125.637 19.4192C125.112 19.7244 124.823 20.9422 125.078 21.7773C125.329 22.602 126.231 23.0133 126.976 22.6427C127.349 22.457 127.377 22.4595 127.377 22.6789C127.377 22.8088 127.289 22.988 127.181 23.0775C126.976 23.2474 126.115 23.2847 125.668 23.1429C125.467 23.0794 125.376 23.1425 125.271 23.4188C125.168 23.6889 125.176 23.8034 125.304 23.8843C125.6 24.0723 126.321 24.1604 127.016 24.0937C127.562 24.0414 127.76 23.9509 128.059 23.6171L128.428 23.2049V21.2413V19.2777H127.975C127.7 19.2777 127.476 19.3585 127.407 19.4825C127.302 19.6683 127.276 19.6683 127.121 19.4825C126.927 19.2488 125.998 19.2093 125.637 19.4192ZM129.722 19.4184C129.401 19.5421 129.386 19.5821 129.521 19.9397C129.653 20.2884 129.711 20.3191 130.098 20.2466C130.686 20.1364 131.141 20.2721 131.222 20.5824C131.284 20.8176 131.24 20.8349 130.745 20.769C129.979 20.6669 129.505 20.8856 129.269 21.4503C129.11 21.8304 129.101 22.0099 129.224 22.3813C129.459 23.0914 130.426 23.3771 131.022 22.912C131.132 22.8261 131.186 22.8324 131.186 22.931C131.186 23.0152 131.41 23.0781 131.711 23.0781H132.236V21.5784C132.236 20.1932 132.213 20.0512 131.928 19.7206C131.667 19.4182 131.5 19.3567 130.844 19.3235C130.418 19.302 129.913 19.3446 129.722 19.4184ZM139.065 21.1779V23.0781H139.591H140.116V21.1779V19.2777H139.591H139.065V21.1779ZM140.86 19.3651C140.812 19.413 140.773 20.2681 140.773 21.2653V23.0781H141.364H141.955V21.9642C141.955 21.0249 141.996 20.8091 142.217 20.5882C142.362 20.444 142.569 20.3261 142.677 20.3261C142.819 20.3261 142.874 20.1805 142.874 19.8019C142.874 19.3765 142.827 19.2777 142.627 19.2777C142.492 19.2777 142.304 19.3698 142.21 19.4825C142.056 19.6683 142.029 19.6683 141.925 19.4825C141.81 19.2778 141.033 19.1921 140.86 19.3651ZM143.695 19.4128C143.357 19.5483 143.358 19.545 143.521 19.9748C143.633 20.2664 143.699 20.2898 144.243 20.2286C144.857 20.1594 145.238 20.325 145.238 20.6615C145.238 20.7847 145.109 20.8129 144.785 20.7605C143.816 20.6036 143.137 21.0757 143.137 21.9057C143.137 22.8457 143.936 23.372 144.811 23.0073C145.046 22.9094 145.238 22.8853 145.238 22.9537C145.238 23.0221 145.479 23.0781 145.774 23.0781H146.311L146.267 21.56L146.223 20.0418L145.794 19.6598C145.432 19.3373 145.258 19.279 144.678 19.2859C144.299 19.2905 143.857 19.3476 143.695 19.4128ZM119.423 20.2698C119.807 20.6534 119.676 20.8502 119.038 20.8502C118.392 20.8502 118.346 20.7909 118.651 20.3553C118.892 20.0123 119.137 19.9852 119.423 20.2698ZM127.22 20.3523C127.446 20.5779 127.414 21.4499 127.171 21.6928C126.69 22.1727 126.064 21.7799 126.064 20.9982C126.064 20.4233 126.251 20.195 126.721 20.195C126.908 20.195 127.133 20.2658 127.22 20.3523ZM115.481 21.454C115.596 21.4978 115.689 21.6759 115.689 21.8499C115.689 22.2589 115.142 22.5455 114.839 22.2951C114.57 22.0723 114.585 21.6807 114.868 21.516C115.142 21.3568 115.21 21.3499 115.481 21.454ZM131.022 21.457C131.414 21.562 131.401 21.9686 130.998 22.2325C130.414 22.6139 129.859 22.0618 130.341 21.5803C130.572 21.3509 130.603 21.3451 131.022 21.457ZM145.091 21.4934C145.353 21.6586 145.172 22.2441 144.832 22.3327C144.429 22.4379 144.187 22.3041 144.187 21.9763C144.187 21.4677 144.655 21.2177 145.091 21.4934ZM121.861 27.7381V30.3016L122.354 30.2608C122.84 30.2207 122.847 30.2125 122.912 29.5752C122.948 29.2203 123.039 28.91 123.114 28.8856C123.189 28.8611 123.41 29.1661 123.605 29.5634C123.944 30.2524 123.983 30.2857 124.465 30.2857C124.742 30.2857 125.003 30.2524 125.044 30.2118C125.084 30.1712 124.858 29.6691 124.54 29.0961C124.223 28.5231 123.963 28.0098 123.963 27.9554C123.963 27.901 124.206 27.5628 124.504 27.2037L125.046 26.5508L124.474 26.509C123.874 26.4653 123.86 26.4747 123.182 27.3801L122.92 27.7303L122.916 26.4526L122.912 25.1748H122.387H121.861V27.7381ZM125.67 27.7381V30.3016L126.162 30.2608L126.655 30.2202L126.691 27.6975L126.726 25.1748H126.198H125.67V27.7381ZM137.489 25.955V26.7352L137.11 26.5181C136.557 26.201 135.82 26.41 135.426 26.9962C135.187 27.3497 135.126 27.6224 135.126 28.32C135.126 29.0176 135.187 29.2903 135.426 29.6439C135.817 30.2254 136.557 30.4389 137.101 30.1274C137.422 29.9436 137.48 29.9411 137.544 30.1087C137.596 30.2423 137.77 30.2891 138.112 30.261L138.606 30.2202L138.641 27.6975L138.677 25.1748H138.083H137.489V25.955ZM110.522 27.691C110.041 29.01 109.647 30.1333 109.648 30.1874C109.648 30.2416 109.88 30.2857 110.162 30.2857C110.651 30.2857 110.686 30.2577 110.862 29.7288L111.048 29.1718L111.86 29.1328L112.672 29.0937L112.928 29.6897C113.163 30.2365 113.223 30.2857 113.649 30.2857C113.942 30.2857 114.113 30.2231 114.113 30.1152C114.113 30.0214 113.74 28.9157 113.284 27.6581L112.455 25.3714L111.925 25.3321L111.396 25.2928L110.522 27.691ZM119.143 26.6106C117.616 27.5403 118.065 30.0553 119.794 30.2498C120.422 30.3205 121.205 30.0226 121.205 29.7129C121.205 29.6179 121.091 29.4377 120.953 29.3127C120.748 29.1273 120.649 29.1135 120.416 29.238C119.482 29.7365 118.82 28.1983 119.647 27.4515C119.869 27.2513 119.963 27.2413 120.325 27.3792C120.702 27.5227 120.769 27.5105 120.975 27.2598C121.288 26.8795 121.267 26.7863 120.817 26.5543C120.29 26.2822 119.648 26.3038 119.143 26.6106ZM128.1 26.5136C127.883 26.5899 127.69 26.6641 127.672 26.6786C127.654 26.693 127.702 26.8848 127.778 27.1047C127.912 27.4884 127.936 27.4989 128.369 27.3664C128.895 27.2052 129.478 27.4003 129.478 27.7378C129.478 27.8929 129.367 27.9397 129.052 27.9181C128.27 27.8643 128.024 27.9244 127.7 28.2486C127.348 28.599 127.281 29.145 127.523 29.6754C127.783 30.245 128.643 30.4616 129.173 30.091C129.42 29.9188 129.46 29.9188 129.527 30.091C129.573 30.2123 129.776 30.2857 130.065 30.2857H130.529L130.527 28.877C130.525 27.2677 130.404 26.9166 129.739 26.5839C129.229 26.3286 128.691 26.3055 128.1 26.5136ZM132.639 26.5675C132.414 26.7286 132.303 26.7504 132.266 26.641C132.238 26.5554 131.981 26.4853 131.696 26.4853H131.178L131.215 28.3528L131.251 30.2202L131.744 30.2608L132.236 30.3016V28.9925C132.236 27.6615 132.369 27.2716 132.821 27.2716C133.166 27.2716 133.278 27.6421 133.315 28.9171L133.353 30.2202L133.845 30.2608L134.338 30.3016V28.67C134.338 27.3105 134.299 26.9918 134.108 26.7579C133.79 26.3707 133.048 26.2743 132.639 26.5675ZM114.507 27.9207C114.507 29.4804 114.627 29.9168 115.119 30.1403C115.543 30.3332 115.812 30.3227 116.247 30.0961C116.561 29.9327 116.608 29.9328 116.608 30.0969C116.608 30.2298 116.764 30.2857 117.134 30.2857H117.659V28.3855V26.4853H117.134H116.608V27.6734C116.608 28.9359 116.48 29.3684 116.105 29.3684C115.653 29.3684 115.558 29.091 115.558 27.7696V26.4853H115.032H114.507V27.9207ZM112.182 27.5665L112.39 28.189H111.878H111.367L111.555 27.6576C111.755 27.0913 111.886 26.8351 111.94 26.9025C111.959 26.9254 112.067 27.224 112.182 27.5665ZM137.249 27.4885C137.564 27.7726 137.578 28.7914 137.272 29.1287C136.782 29.6693 136.176 29.2349 136.176 28.3428C136.176 27.4232 136.708 26.9998 137.249 27.4885ZM129.478 28.8937C129.478 29.065 129.393 29.276 129.289 29.3624C129.023 29.5828 128.505 29.4806 128.451 29.197C128.368 28.7627 128.534 28.5821 129.015 28.5821C129.415 28.5821 129.478 28.6244 129.478 28.8937ZM65.6532 42.8402V53.8744H67.5574H69.4617V47.4532V41.0321L67.6696 36.5434C66.684 34.0747 65.8271 31.9988 65.7653 31.9304C65.7032 31.8615 65.6532 36.7308 65.6532 42.8402ZM96.4167 36.5458L94.5453 41.2298V47.5521V53.8744H96.4495H98.3538V42.8664C98.3538 36.8119 98.3391 31.8591 98.321 31.86C98.3028 31.8608 97.4459 33.9695 96.4167 36.5458ZM147.131 32.4305C147.089 32.5378 147.075 32.7625 147.099 32.9299C147.135 33.1869 147.23 33.2406 147.709 33.2751L148.275 33.3157L148.234 32.8164C148.195 32.3423 148.168 32.3149 147.699 32.2762C147.355 32.2478 147.183 32.2946 147.131 32.4305ZM152.949 32.3326C152.897 32.3841 152.855 33.5368 152.855 34.8943V37.3623H153.449H154.042L154.007 34.8397L153.971 32.317L153.507 32.2779C153.251 32.2566 153 32.2811 152.949 32.3326ZM109.712 32.6774C109.742 32.7675 109.951 33.4899 110.176 34.2827C110.401 35.0755 110.703 36.1256 110.846 36.6163L111.108 37.5083L111.589 37.4681L112.07 37.4279L112.491 35.9863C112.723 35.1935 112.921 34.5153 112.932 34.4793C112.95 34.4178 113.106 34.9106 113.648 36.7471C113.873 37.5058 113.874 37.5078 114.347 37.4678L114.821 37.4279L115.515 35.069C115.897 33.7716 116.211 32.6625 116.212 32.6044C116.213 32.546 115.968 32.5166 115.668 32.5388L115.121 32.5791L114.748 34.0101C114.543 34.7972 114.355 35.4608 114.331 35.4847C114.307 35.5087 114.186 35.1595 114.061 34.7089C113.411 32.3552 113.491 32.5135 112.949 32.5135H112.459L112.078 33.9551C111.868 34.7479 111.662 35.3966 111.621 35.3966C111.579 35.3966 111.377 34.7479 111.17 33.9551L110.794 32.5135H110.225C109.828 32.5135 109.673 32.563 109.712 32.6774ZM124.882 34.9379V37.3623H125.403H125.924L125.961 35.9536L125.998 34.5448L126.503 35.4393C126.78 35.9313 127.026 36.3146 127.048 36.2911C127.071 36.2676 127.331 35.8356 127.625 35.3311L128.161 34.4137L128.163 35.888L128.165 37.3623H128.69H129.216V34.9379V32.5135H128.652C128.09 32.5135 128.088 32.5147 127.593 33.4309C127.32 33.9354 127.074 34.3482 127.047 34.3482C127.021 34.3482 126.773 33.9358 126.498 33.4318C126.001 32.5196 125.996 32.5153 125.44 32.5145L124.882 32.5135V34.9379ZM116.969 33.7071C116.576 33.8582 116.537 33.9707 116.745 34.3575C116.857 34.5663 116.971 34.5975 117.384 34.5316C117.918 34.4464 118.447 34.6371 118.447 34.9145C118.447 35.0261 118.212 35.0783 117.709 35.0783C117.066 35.0783 116.931 35.1248 116.659 35.4413C116.313 35.8426 116.239 36.6236 116.514 36.9806C116.903 37.4863 117.5 37.609 118.086 37.3038C118.284 37.2004 118.447 37.1713 118.447 37.239C118.447 37.3069 118.688 37.3623 118.984 37.3623H119.52L119.476 35.8579C119.434 34.4279 119.414 34.336 119.079 34.002C118.802 33.7254 118.578 33.6417 118.029 33.6095C117.645 33.587 117.168 33.6309 116.969 33.7071ZM120.242 33.6493C120.194 33.6973 120.154 34.5524 120.154 35.5495V37.3623H120.679H121.205V36.4512C121.205 35.3358 121.39 34.8812 121.886 34.7823C122.223 34.715 122.255 34.6589 122.255 34.1353C122.255 33.4692 122.012 33.3751 121.509 33.8468L121.205 34.1319V33.8468C121.205 33.6113 121.129 33.5619 120.767 33.5619C120.526 33.5619 120.29 33.6012 120.242 33.6493ZM130.55 34.0369C129.967 34.6212 129.79 35.2605 129.999 36.0329C130.191 36.7465 130.59 37.1997 131.18 37.3761C132.165 37.6706 133.22 37.1861 132.899 36.5869C132.744 36.2982 132.438 36.2255 132.302 36.445C132.104 36.764 131.054 36.4843 131.054 36.1128C131.054 35.9592 131.278 35.9208 132.171 35.9208H133.287V35.5756C133.287 35.0056 133.005 34.2447 132.681 33.9409C132.481 33.7539 132.148 33.6335 131.716 33.5921C131.09 33.5319 131.031 33.5543 130.55 34.0369ZM134.163 33.6493C134.114 33.6973 134.075 34.5524 134.075 35.5495V37.3623H134.6H135.126V36.1743C135.126 34.9117 135.254 34.4793 135.629 34.4793C136.081 34.4793 136.176 34.7567 136.176 36.0781V37.3623H136.701H137.227V36.0781C137.227 34.7567 137.322 34.4793 137.774 34.4793C138.149 34.4793 138.277 34.9117 138.277 36.1743V37.3623H138.803H139.328V35.9122C139.328 34.4643 139.23 34.0486 138.814 33.7299C138.528 33.511 137.894 33.5239 137.444 33.758C137.114 33.93 137.038 33.9299 136.791 33.7572C136.426 33.5019 135.854 33.5089 135.449 33.7736C135.151 33.9684 135.126 33.9684 135.126 33.7736C135.126 33.621 135.003 33.5619 134.688 33.5619C134.447 33.5619 134.211 33.6012 134.163 33.6493ZM141.09 33.6817C140.668 33.8632 140.136 34.5689 140.041 35.0728C139.759 36.5741 140.969 37.7901 142.339 37.3807C143.709 36.9712 144.09 35.0579 143.008 34.0236C142.593 33.6262 141.622 33.4532 141.09 33.6817ZM144.406 33.6493C144.358 33.6973 144.318 34.5524 144.318 35.5495V37.3623H144.844H145.369V36.4512C145.369 35.3358 145.555 34.8812 146.051 34.7823C146.388 34.715 146.42 34.6589 146.42 34.1353C146.42 33.4692 146.176 33.3751 145.673 33.8468L145.369 34.1319V33.8468C145.369 33.6113 145.293 33.5619 144.931 33.5619C144.691 33.5619 144.454 33.6012 144.406 33.6493ZM147.208 35.4543V37.3623H147.737H148.266L148.229 35.4949L148.193 33.6275L147.7 33.5868L147.208 33.5461V35.4543ZM149.539 33.7071C149.145 33.8582 149.106 33.9707 149.314 34.3575C149.426 34.5663 149.54 34.5975 149.953 34.5316C150.487 34.4464 151.016 34.6371 151.016 34.9145C151.016 35.0261 150.781 35.0783 150.279 35.0783C149.635 35.0783 149.501 35.1248 149.228 35.4413C148.92 35.7989 148.819 36.4352 148.997 36.8978C149.091 37.1444 149.714 37.4938 150.057 37.4926C150.188 37.4921 150.456 37.4072 150.655 37.3038C150.854 37.2004 151.016 37.1713 151.016 37.239C151.016 37.3069 151.258 37.3623 151.553 37.3623H152.089L152.045 35.8579C152.003 34.4279 151.984 34.336 151.649 34.002C151.371 33.7254 151.147 33.6417 150.598 33.6095C150.214 33.587 149.737 33.6309 149.539 33.7071ZM132.1 34.7327C132.305 35.115 132.283 35.1345 131.645 35.1345C131.248 35.1345 131.054 35.0787 131.054 34.9642C131.054 34.4795 131.868 34.2995 132.1 34.7327ZM142.411 34.8659C142.877 35.7655 142.373 36.7678 141.581 36.5168C141.29 36.4247 141.035 35.9129 141.035 35.4195C141.035 34.5063 142.019 34.1101 142.411 34.8659ZM118.447 36.1201C118.447 36.3432 118.343 36.4979 118.127 36.5961C117.701 36.7897 117.396 36.6553 117.396 36.2744C117.396 35.8631 117.489 35.7898 118.009 35.7898C118.39 35.7898 118.447 35.833 118.447 36.1201ZM151.016 36.1201C151.016 36.3432 150.912 36.4979 150.696 36.5961C150.271 36.7897 149.966 36.6553 149.966 36.2744C149.966 35.8631 150.058 35.7898 150.578 35.7898C150.959 35.7898 151.016 35.833 151.016 36.1201ZM109.911 41.949V44.4389H110.436H110.961L110.964 42.8991L110.968 41.3593L111.5 42.3094C111.792 42.832 112.072 43.2582 112.12 43.2565C112.169 43.2548 112.445 42.8337 112.734 42.3209L113.259 41.3884L113.297 42.9213L113.334 44.4543L113.822 44.4138L114.31 44.3734V41.949V39.5246L113.765 39.4849L113.22 39.4453L112.719 40.3695C112.444 40.8778 112.177 41.2938 112.125 41.2938C112.073 41.2938 111.807 40.881 111.534 40.3764C111.038 39.4603 111.037 39.4591 110.474 39.4591H109.911V41.949ZM120.209 40.6497C119.679 40.8016 119.352 41.1761 119.339 41.6466C119.322 42.2342 119.569 42.5558 120.284 42.8784C120.646 43.0416 120.942 43.2549 120.942 43.3526C120.942 43.6496 120.55 43.7019 120.062 43.4697C119.625 43.2617 119.59 43.2624 119.421 43.484C119.323 43.6128 119.241 43.7904 119.239 43.8786C119.232 44.1408 119.966 44.4389 120.617 44.4389C121.114 44.4389 121.295 44.3688 121.609 44.0559C122.287 43.379 122.046 42.704 120.924 42.1366C120.563 41.954 120.292 41.734 120.322 41.6475C120.38 41.4822 120.822 41.4679 121.278 41.6164C121.487 41.6844 121.584 41.6268 121.705 41.3619C121.906 40.9206 121.919 40.9544 121.5 40.7942C120.884 40.5585 120.628 40.5298 120.209 40.6497ZM123.712 40.6772C122.468 41.1163 122.188 43.0572 123.231 44.013C123.62 44.3694 123.799 44.4388 124.322 44.4384C124.721 44.4382 125.108 44.3405 125.39 44.1687L125.833 43.8996L125.545 43.5941C125.272 43.3034 125.238 43.2984 124.85 43.4915C124.493 43.6696 124.402 43.6711 124.105 43.5051C123.919 43.4012 123.748 43.2148 123.724 43.0912C123.686 42.893 123.814 42.8664 124.807 42.8664C125.887 42.8664 125.933 42.8544 125.932 42.5715C125.928 41.1963 124.85 40.2758 123.712 40.6772ZM132.204 40.7135C131.994 40.8267 131.842 40.8522 131.842 40.7738C131.842 40.6994 131.575 40.6385 131.248 40.6385H130.653L130.69 42.506L130.726 44.3734H131.251H131.777L131.842 42.9974L131.908 41.6214H132.302H132.696L132.733 43.0302L132.771 44.4389H133.291H133.812V43.2509C133.812 41.9239 133.938 41.5559 134.394 41.5559C134.807 41.5559 134.863 41.753 134.863 43.2047V44.4389H135.388H135.914V42.8841C135.914 41.5316 135.88 41.2861 135.653 40.9985C135.275 40.5193 134.805 40.4441 134.164 40.7602C133.869 40.9061 133.594 40.9715 133.553 40.9058C133.479 40.7874 132.829 40.5026 132.655 40.5127C132.605 40.5156 132.402 40.6059 132.204 40.7135ZM115.295 42.217C115.295 43.7183 115.311 43.8114 115.617 44.1172C115.994 44.4935 116.659 44.546 117.104 44.2349C117.369 44.0503 117.396 44.0503 117.396 44.2349C117.396 44.3856 117.534 44.4389 117.922 44.4389H118.447V42.5387V40.6385H117.926H117.406L117.368 41.9679C117.337 43.0654 117.291 43.3223 117.101 43.4415C116.934 43.5465 116.808 43.5465 116.641 43.4415C116.451 43.3223 116.405 43.0654 116.374 41.9679L116.336 40.6385H115.816H115.295V42.217ZM126.743 42.2886C126.784 43.8384 126.805 43.9537 127.096 44.1888C127.471 44.4915 128.132 44.5129 128.53 44.2349C128.794 44.0503 128.822 44.0503 128.822 44.2349C128.822 44.3856 128.959 44.4389 129.347 44.4389H129.872V42.5387V40.6385H129.352H128.831L128.794 41.9679C128.763 43.0654 128.716 43.3223 128.526 43.4415C128.359 43.5465 128.234 43.5465 128.067 43.4415C127.877 43.3223 127.83 43.0654 127.799 41.9679L127.762 40.6385H127.231H126.699L126.743 42.2886ZM124.642 41.6417C125.059 42.0182 124.94 42.2111 124.291 42.2111C123.809 42.2111 123.7 42.1675 123.7 41.9752C123.7 41.4539 124.227 41.2673 124.642 41.6417ZM29.681 44.0786C29.6186 44.2408 29.295 45.049 28.9618 45.8748C28.6288 46.7006 28.3561 47.4229 28.3561 47.4802C28.3561 47.5373 32.0141 47.5841 36.485 47.5841H44.614L45.8616 50.6965L47.1092 53.8089L49.1483 53.8449L51.1874 53.881L49.1617 48.8787C48.0475 46.1275 47.136 43.8555 47.136 43.8301C47.136 43.8045 43.2341 43.7837 38.4651 43.7837H29.7942L29.681 44.0786Z" fill="white"/>
</svg>
