<?xml version="1.0" encoding="UTF-8"?>
<svg version="1.1" xmlns="http://www.w3.org/2000/svg" width="793" height="1007">
<path d="M0 0 C1.53771367 0.40512538 3.07547081 0.81008584 4.61328125 1.21484375 C43.23666555 11.68748522 78.28825825 32.75974725 109 58 C109.67466309 58.55429688 110.34932617 59.10859375 111.04443359 59.6796875 C113.145477 61.41888186 115.23140943 63.17449845 117.3125 64.9375 C117.96557129 65.48140381 118.61864258 66.02530762 119.29150391 66.58569336 C120.19328369 67.3611853 120.19328369 67.3611853 121.11328125 68.15234375 C121.64735596 68.60601318 122.18143066 69.05968262 122.73168945 69.52709961 C124.32663315 71.379322 124.83600142 72.55645046 125 75 C123.84423828 76.70751953 123.84423828 76.70751953 122.0703125 78.3828125 C121.43996094 78.99253906 120.80960938 79.60226563 120.16015625 80.23046875 C119.48855469 80.85566406 118.81695313 81.48085937 118.125 82.125 C116.81322882 83.3756401 115.50324393 84.6281573 114.1953125 85.8828125 C113.60766113 86.43340332 113.02000977 86.98399414 112.41455078 87.55126953 C110.89056008 88.96481203 110.89056008 88.96481203 110 91 C109.34 91 108.68 91 108 91 C107.73662842 91.59006836 107.47325684 92.18013672 107.2019043 92.78808594 C105.94798348 95.09572815 104.64804739 96.56727394 102.76953125 98.390625 C102.1350708 99.01348389 101.50061035 99.63634277 100.84692383 100.27807617 C100.17556396 100.92881104 99.5042041 101.5795459 98.8125 102.25 C94.29114062 106.69491512 89.88991544 111.13056541 85.80078125 115.98046875 C82.81652529 119.32723737 79.58850148 122.43088231 76.39941406 125.58105469 C73.67539112 128.28460908 71.04634782 131.00767451 68.5625 133.9375 C64.87523665 138.27705564 60.81054677 142.21545826 56.76464844 146.21582031 C53.26250836 149.69368213 49.94851079 153.25552746 46.7578125 157.0234375 C43.71582437 160.44398415 40.41218361 163.6055728 37.13671875 166.80078125 C34.8647287 169.00578065 34.8647287 169.00578065 33 172 C32.34 172 31.68 172 31 172 C30.74476563 172.58265625 30.48953125 173.1653125 30.2265625 173.765625 C28.88258913 176.21388223 27.38189704 177.81743248 25.375 179.75 C24.74335937 180.36359375 24.11171875 180.9771875 23.4609375 181.609375 C22.97882813 182.06828125 22.49671875 182.5271875 22 183 C18.33668563 181.72635198 16.05190183 180.34717289 13.3125 177.625 C-11.31606364 155.12382059 -43.21703647 143.83095417 -76.25 143.8125 C-77.38824219 143.80025391 -78.52648437 143.78800781 -79.69921875 143.77539062 C-87.64377086 143.76186415 -95.1930897 144.54578457 -103 146 C-103.73025391 146.13543213 -104.46050781 146.27086426 -105.21289062 146.41040039 C-127.19571633 150.81776371 -147.21894157 161.28430261 -164 176 C-164.81726563 176.67289063 -165.63453125 177.34578125 -166.4765625 178.0390625 C-178.26853462 188.03416267 -186.86744866 200.40462046 -194 214 C-194.66902344 215.16789062 -194.66902344 215.16789062 -195.3515625 216.359375 C-204.26548808 232.57696864 -206.99791084 250.98746503 -210 269 C-260.49 269 -310.98 269 -363 269 C-361.82825924 244.393444 -361.82825924 244.393444 -360.3125 234.75 C-360.05194824 233.06040161 -360.05194824 233.06040161 -359.78613281 231.33666992 C-355.33946922 203.74153879 -347.3180045 177.10503122 -335 152 C-334.37569092 150.72261963 -334.37569092 150.72261963 -333.73876953 149.41943359 C-314.19626819 109.8563494 -285.37002845 74.46976 -250 48 C-249.45972168 47.59217285 -248.91944336 47.1843457 -248.36279297 46.76416016 C-208.49294979 16.84070491 -163.02255654 -0.48315623 -114 -8 C-113.17999512 -8.13277344 -112.35999023 -8.26554688 -111.51513672 -8.40234375 C-74.84579464 -14.17985461 -35.52145849 -9.77250856 0 0 Z " fill="#000000" transform="translate(513,19)"/>
<path d="M0 0 C5.25105442 -0.02464928 10.50207545 -0.04283568 15.75317383 -0.05493164 C17.54094021 -0.05997218 19.32870245 -0.06680454 21.11645508 -0.07543945 C23.68051168 -0.0875173 26.24451397 -0.09323094 28.80859375 -0.09765625 C29.6127623 -0.10281754 30.41693085 -0.10797882 31.24546814 -0.11329651 C33.16401715 -0.11349215 35.08245368 -0.06201983 37 0 C38.63886149 1.63886149 38.4597223 3.67734127 38.76171875 5.93359375 C41.55726731 25.70762568 46.4316521 42.48077452 56 60 C56.48082031 60.89976562 56.96164062 61.79953125 57.45703125 62.7265625 C73.69569786 91.46011091 101.71718238 111.60126807 133 121 C164.91107208 129.70244177 200.22995097 128.25660369 230 113 C231.01191406 112.49855469 232.02382813 111.99710937 233.06640625 111.48046875 C244.91812561 105.39059611 255.49348721 97.95618261 264.9140625 88.51953125 C267 87 267 87 268.92822266 87.22558594 C271.27996285 88.10464791 272.47038478 89.09706236 274.234375 90.87109375 C274.80800781 91.44537109 275.38164063 92.01964844 275.97265625 92.61132812 C276.55917969 93.21396484 277.14570312 93.81660156 277.75 94.4375 C278.35199219 95.03626953 278.95398438 95.63503906 279.57421875 96.25195312 C284 100.73293119 284 100.73293119 284 103 C284.66 103 285.32 103 286 103 C287.3046875 104.328125 287.3046875 104.328125 288.875 106.25 C292.07888202 110.03031267 295.47312837 113.52669003 299 117 C302.89956757 120.85056151 306.60829704 124.76428087 310.16015625 128.94140625 C312.50495089 131.56498752 314.99630842 134.02989811 317.5 136.5 C320.5740377 139.53285146 323.57999179 142.5793933 326.375 145.875 C329.56129412 149.61543222 333.00879969 153.04803768 336.5 156.5 C340.53298837 160.48776282 344.39402467 164.51494911 348.0625 168.84375 C350.76031889 171.84616135 353.63060899 174.66241507 356.5 177.5 C362.74864128 183.6857563 368.58214524 190.0651459 374 197 C368.92113859 202.34080842 363.57051462 207.1310883 357.81640625 211.734375 C356.05131551 213.15428156 354.3054783 214.59884205 352.58984375 216.078125 C316.40538403 247.04422365 269.36226878 266.20858826 223.0625 275.3125 C222.32040283 275.45985596 221.57830566 275.60721191 220.8137207 275.7590332 C204.4297807 278.75564582 187.99204829 279.37654543 171.375 279.3125 C170.36464691 279.31034485 169.35429382 279.3081897 168.31332397 279.30596924 C153.01569801 279.25369342 138.07691137 278.81919705 123 276 C121.96101563 275.81195801 120.92203125 275.62391602 119.8515625 275.43017578 C94.31319884 270.66448054 69.26976202 262.58558066 46 251 C45.2059375 250.60844727 44.411875 250.21689453 43.59375 249.81347656 C32.72641951 244.4102886 22.08349467 238.53531003 12.21690941 231.43553257 C10.02208201 229.91916532 10.02208201 229.91916532 7.45911598 228.94895077 C4.13717131 227.32438162 2.29195536 225.93186433 0 223 C-1.97923355 216.22021899 -1.26007101 208.71422119 -1.13525391 201.73461914 C-1.13243223 199.53657155 -1.13401834 197.33851453 -1.13967896 195.14047241 C-1.14254751 189.17950613 -1.0837703 183.22055324 -1.01393938 177.26005483 C-0.95141304 171.02881542 -0.94555109 164.79752949 -0.9336853 158.56602478 C-0.90613836 148.10901723 -0.84368389 137.65269852 -0.75439453 127.19604492 C-0.66254082 116.42785318 -0.59178843 105.65986207 -0.54931641 94.89135742 C-0.54668917 94.22709647 -0.54406194 93.56283552 -0.54135509 92.87844545 C-0.52830429 89.54589323 -0.51568988 86.21333964 -0.50323606 82.88078511 C-0.39871854 55.25334285 -0.22283389 27.62672337 0 0 Z " fill="#000000" transform="translate(265,303)"/>
<path d="M0 0 C32.67 0 65.34 0 99 0 C99 68.97 99 137.94 99 209 C86.87386907 202.93693453 76.63096106 190.31028922 68.28125 179.84375 C65.90953115 176.88722377 63.45907473 174.00909999 61 171.125 C22.72991123 125.13013214 -1.33250548 60.98398876 -1 1 C-0.67 0.67 -0.34 0.34 0 0 Z " fill="#000000" transform="translate(151,303)"/>
<path d="M0 0 C0.92606049 -0.00365067 1.85212097 -0.00730133 2.8062439 -0.01106262 C5.869551 -0.01916879 8.93232858 -0.00554267 11.99560547 0.0090332 C14.14012654 0.00955242 16.2846481 0.00903235 18.4291687 0.00752258 C22.93331985 0.00761235 27.43729223 0.01803964 31.94140625 0.03613281 C37.66218789 0.05862857 43.38270403 0.05939928 49.10351753 0.05261517 C53.54102862 0.04923845 57.97848136 0.0559772 62.41598129 0.0657444 C64.52150032 0.06954779 66.62702591 0.07076523 68.73254776 0.06915855 C111.21292098 0.06374661 111.21292098 0.06374661 121.67529297 9.68481445 C128.36878308 17.03977888 128.98056152 25.5707308 128.89404297 35.1418457 C128.57528371 41.73219342 127.24925406 48.04913546 122.28076172 52.7512207 C120.20067734 54.52764313 118.19137361 56.14552413 115.73779297 57.37231445 C116.31787109 57.57985352 116.89794922 57.78739258 117.49560547 58.0012207 C123.39927371 60.32956511 127.39186481 62.89406597 130.73779297 68.37231445 C134.34816917 77.39825496 134.32883134 90.54668105 130.64794922 99.55200195 C126.6090415 107.62981738 121.22540441 112.28591029 112.73779297 115.37231445 C109.30147088 116.19036641 106.12244906 116.49929086 102.59431458 116.50602722 C101.58063309 116.51029221 100.5669516 116.51455719 99.52255249 116.51895142 C97.87109726 116.51827164 97.87109726 116.51827164 96.1862793 116.51757812 C95.01833328 116.52093674 93.85038727 116.52429535 92.64704895 116.52775574 C88.78796322 116.53725245 84.9289209 116.53920787 81.06982422 116.5402832 C79.06812822 116.54268377 77.06643222 116.54508601 75.06473655 116.54774362 C68.77679706 116.55587501 62.48887188 116.55832887 56.20092773 116.55761719 C49.70986717 116.55701514 43.21888938 116.56759512 36.72784978 116.58336085 C31.15408684 116.59641723 25.58035103 116.60180196 20.0065729 116.60116178 C16.67766036 116.60090644 13.34883842 116.60469169 10.01993752 116.61433983 C6.31359484 116.62408034 2.60746882 116.6212858 -1.09887695 116.61523438 C-2.2059198 116.62085388 -3.31296265 116.62647339 -4.45355225 116.63226318 C-5.96138527 116.62597145 -5.96138527 116.62597145 -7.49967957 116.61955261 C-8.37626315 116.62009738 -9.25284674 116.62064215 -10.15599346 116.62120342 C-12.26220703 116.37231445 -12.26220703 116.37231445 -14.26220703 114.37231445 C-14.52226925 112.40107059 -14.52226925 112.40107059 -14.53636169 109.93800354 C-14.54633682 109.00561859 -14.55631195 108.07323364 -14.56658936 107.1125946 C-14.56725403 106.08656631 -14.5679187 105.06053802 -14.56860352 104.00341797 C-14.57692703 102.92529846 -14.58525055 101.84717896 -14.59382629 100.73638916 C-14.61800281 97.15796339 -14.62670734 93.57971958 -14.63330078 90.0012207 C-14.6422605 87.52261803 -14.65138221 85.04401593 -14.66065979 82.56541443 C-14.67717264 77.36423424 -14.68485422 72.1631186 -14.68774414 66.96191406 C-14.6909791 61.61212529 -14.71213047 56.26274501 -14.74926758 50.91308594 C-14.79336131 44.46573518 -14.81320559 38.01876987 -14.81447029 31.5712719 C-14.81868841 29.10919363 -14.83118581 26.64711554 -14.85198784 24.18512154 C-14.87873063 20.74649303 -14.87412722 17.30928352 -14.86157227 13.87060547 C-14.87640656 12.84660141 -14.89124084 11.82259735 -14.90652466 10.76756287 C-14.8358392 3.99699642 -14.8358392 3.99699642 -12.30363464 1.23944092 C-8.1389671 0.05207304 -4.31296348 -0.03795672 0 0 Z M26.73779297 26.37231445 C26.73779297 31.98231445 26.73779297 37.59231445 26.73779297 43.37231445 C34.62144242 43.49590647 42.50452805 43.58665388 50.38891602 43.64697266 C53.07117751 43.6692944 55.75284717 43.70408239 58.43481445 43.74951172 C62.28988552 43.8101597 66.14405067 43.83852572 69.99951172 43.8605957 C71.19863693 43.88640213 72.39776215 43.91220856 73.63322449 43.938797 C80.24886913 44.01322273 80.24886913 44.01322273 85.9987793 41.06445312 C88.2841356 37.52653034 88.4144384 35.50736985 87.73779297 31.37231445 C85.38352096 28.17723101 83.56026246 27.07954742 79.73779297 26.37231445 C77.96633677 26.28686848 76.19196775 26.25456642 74.41845703 26.25878906 C72.82726044 26.25890236 72.82726044 26.25890236 71.20391846 26.25901794 C70.0652533 26.26417923 68.92658813 26.26934052 67.75341797 26.2746582 C66.58268738 26.27607315 65.41195679 26.2774881 64.20574951 26.27894592 C60.46640468 26.28454356 56.72711971 26.29709565 52.98779297 26.30981445 C50.45263758 26.31482976 47.91748126 26.31939261 45.38232422 26.32348633 C39.1674574 26.33451222 32.95263534 26.35177526 26.73779297 26.37231445 Z M26.73779297 71.37231445 C26.73779297 77.31231445 26.73779297 83.25231445 26.73779297 89.37231445 C34.5848586 89.44659132 42.43171857 89.50097763 50.27905273 89.53710938 C52.94752369 89.55047806 55.61551015 89.57263051 58.28393555 89.59863281 C62.12408549 89.6351103 65.96390735 89.65206304 69.80419922 89.6652832 C70.99300186 89.68076706 72.1818045 89.69625092 73.40663147 89.71220398 C79.60039872 89.71345636 84.32792273 89.52827191 89.73779297 86.37231445 C91.3339604 83.1799796 91.25245411 79.83769949 90.73779297 76.37231445 C88.86764203 73.94111823 87.45640952 72.73162273 84.73779297 71.37231445 C82.88922217 71.28129833 81.03732918 71.25478299 79.18652344 71.25878906 C78.02547089 71.25886459 76.86441833 71.25894012 75.66818237 71.25901794 C73.78064743 71.26675987 73.78064743 71.26675987 71.85498047 71.2746582 C70.57043976 71.27607315 69.28589905 71.2774881 67.96243286 71.27894592 C64.54622455 71.28276534 61.13005871 71.29259072 57.71386719 71.3036499 C54.22835871 71.31387638 50.74284337 71.3184462 47.25732422 71.32348633 C40.41746126 71.3342135 33.57763352 71.35180566 26.73779297 71.37231445 Z " fill="#000000" transform="translate(511.26220703125,693.627685546875)"/>
<path d="M0 0 C1.63801633 -0.0013512 3.27603227 -0.0032955 4.91404724 -0.00579834 C8.32709618 -0.00872738 11.74003961 -0.00452358 15.15307617 0.00488281 C19.4989819 0.01628511 23.84464071 0.00969877 28.19053745 -0.00226212 C31.56656207 -0.00953334 34.94252937 -0.00716894 38.31855583 -0.00200653 C39.91992155 -0.00068502 41.52129269 -0.00226436 43.12265205 -0.00696564 C57.37466629 -0.03964406 71.68644934 0.30594855 83.015625 10.19140625 C88.96913621 16.64626577 91.18753833 22.58601478 90.9140625 31.32421875 C90.87925781 31.96488281 90.84445312 32.60554687 90.80859375 33.265625 C87.47704124 34.93140125 83.74323316 34.38570356 80.08203125 34.36328125 C78.78780746 34.36115883 78.78780746 34.36115883 77.46743774 34.35899353 C74.70612145 34.35338688 71.94488563 34.34083327 69.18359375 34.328125 C67.31380325 34.32311086 65.44401149 34.3185478 63.57421875 34.31445312 C58.98564598 34.30341529 54.39713352 34.2861462 49.80859375 34.265625 C49.49921875 33.09 49.49921875 33.09 49.18359375 31.890625 C48.02894069 29.07485276 48.02894069 29.07485276 45.29711914 27.96972656 C40.8149826 27.06508091 36.55368295 26.9793415 31.9921875 27 C31.05810562 26.99808655 30.12402374 26.9961731 29.16163635 26.99420166 C27.19409922 26.99284514 25.22655297 26.99650422 23.2590332 27.00488281 C20.2525622 27.01560194 17.24668706 27.00496314 14.24023438 26.9921875 C12.32421744 26.99350895 10.40820087 26.99607105 8.4921875 27 C7.14827187 26.99392731 7.14827187 26.99392731 5.77720642 26.98773193 C1.40344588 27.02051282 -2.28130912 27.05135021 -6.19140625 29.265625 C-7.68639538 32.25560325 -7.30718071 34.96605275 -7.19140625 38.265625 C-6.86140625 39.255625 -6.53140625 40.245625 -6.19140625 41.265625 C-5.31381149 41.27149124 -4.43621674 41.27735748 -3.5320282 41.28340149 C4.77934164 41.34154786 13.09044899 41.41374852 21.40156269 41.50133991 C25.67336923 41.54587571 29.94508408 41.58516772 34.21704102 41.61206055 C38.34750002 41.63826249 42.47760294 41.67878109 46.60783958 41.72881126 C48.17566654 41.74536671 49.74355493 41.75695091 51.31145668 41.76323891 C65.34356851 41.82515344 77.18907031 43.16595608 87.81640625 53.15234375 C95.22512458 61.04154381 96.31810753 68.65280051 96.24609375 79.140625 C96.26607422 80.16542969 96.28605469 81.19023438 96.30664062 82.24609375 C96.30041159 92.0505901 93.81614521 100.25807354 86.80859375 107.265625 C78.49341966 114.2447879 70.15676582 116.41712872 59.39746094 116.41088867 C58.5626268 116.41424728 57.72779266 116.4176059 56.86766052 116.42106628 C54.11358136 116.43054812 51.35956321 116.43251816 48.60546875 116.43359375 C46.68361384 116.43680879 44.76175918 116.44017305 42.83990479 116.44367981 C38.81172112 116.44966455 34.78355889 116.45152044 30.75537109 116.45092773 C25.60982018 116.45082627 20.46440776 116.46446478 15.31888962 116.48169994 C11.34846371 116.49285509 7.37807089 116.49484584 3.40763092 116.49431801 C1.51154352 116.49549335 -0.38454487 116.49988996 -2.28061676 116.50765038 C-4.94140626 116.51751919 -7.60190039 116.51454498 -10.26269531 116.50854492 C-11.03599686 116.51416443 -11.8092984 116.51978394 -12.60603333 116.52557373 C-24.17652418 116.45973845 -35.00423052 112.90303595 -43.65625 105.0078125 C-49.67487465 98.17751583 -51.62120765 91.14818734 -51.19140625 82.265625 C-49.19140625 80.265625 -49.19140625 80.265625 -45.38427734 80.03857422 C-43.74443205 80.03889154 -42.10456608 80.05022819 -40.46484375 80.0703125 C-39.17061996 80.07455734 -39.17061996 80.07455734 -37.85025024 80.07888794 C-35.08882905 80.09010167 -32.32772975 80.11520816 -29.56640625 80.140625 C-27.69661926 80.15065327 -25.8268272 80.15977938 -23.95703125 80.16796875 C-19.36836516 80.19004488 -14.77994032 80.22458266 -10.19140625 80.265625 C-9.86140625 82.245625 -9.53140625 84.225625 -9.19140625 86.265625 C-3.45971939 88.71831341 1.99984554 88.57175059 8.12109375 88.56640625 C9.75171753 88.57283394 9.75171753 88.57283394 11.4152832 88.57939148 C13.7081635 88.58512121 16.00106197 88.58564507 18.29394531 88.58129883 C21.79653953 88.57813589 25.29829115 88.60162622 28.80078125 88.62695312 C31.03255102 88.62922599 33.26432306 88.62992968 35.49609375 88.62890625 C36.53999268 88.638116 37.5838916 88.64732574 38.65942383 88.65681458 C44.04806917 88.62260736 48.26560177 88.52925243 52.80859375 85.265625 C53.844101 81.70606883 54.20404405 79.42155664 52.99609375 75.890625 C51.88873648 74.11474256 51.88873648 74.11474256 49.80859375 73.265625 C47.86132639 73.16073522 45.91050449 73.11959277 43.96044922 73.10791016 C42.73091522 73.09764801 41.50138123 73.08738586 40.23458862 73.07681274 C39.24411844 73.07165586 39.24411844 73.07165586 38.23363876 73.06639481 C36.15388373 73.05456292 34.07433239 73.03508894 31.99465942 73.01327515 C26.07968201 72.95187836 20.16471583 72.89808793 14.24951172 72.86425781 C10.62895347 72.84299775 7.00875184 72.80743451 3.38840103 72.76350021 C1.36829602 72.74287676 -0.65194559 72.73734262 -2.67214966 72.73233032 C-17.3093636 72.54194504 -31.76844248 71.21251649 -43.00390625 61.015625 C-49.99240903 53.31418659 -50.85251244 45.38146029 -50.75390625 35.265625 C-50.77775391 34.1415625 -50.80160156 33.0175 -50.82617188 31.859375 C-50.81099486 23.19836068 -48.88367603 17.54747878 -43.234375 10.99609375 C-30.21029537 0.16554332 -16.35422261 -0.04808334 0 0 Z " fill="#000000" transform="translate(379.19140625,693.734375)"/>
<path d="M0 0 C1.23889732 -0.0049926 1.23889732 -0.0049926 2.50282288 -0.01008606 C4.24691207 -0.01514079 5.99101091 -0.01749483 7.73510742 -0.01733398 C10.39713525 -0.01952055 13.05874855 -0.0376917 15.72070312 -0.05664062 C17.41796734 -0.05957487 19.11523351 -0.06155946 20.8125 -0.0625 C22.00177345 -0.07327827 22.00177345 -0.07327827 23.21507263 -0.08427429 C27.37754855 -0.06714199 30.85625578 -0.00080135 34.47265625 2.16796875 C36.07495117 4.3125 36.07495117 4.3125 37.453125 6.98046875 C37.97181152 7.96378174 38.49049805 8.94709473 39.02490234 9.96020508 C39.56453613 11.01876709 40.10416992 12.0773291 40.66015625 13.16796875 C41.82210421 15.38063518 42.98487045 17.59287207 44.1484375 19.8046875 C44.71643066 20.89571777 45.28442383 21.98674805 45.86962891 23.11083984 C47.96392207 27.10486041 50.14150683 31.04746414 52.34765625 34.98046875 C53.14990991 36.41917587 53.95198648 37.85798175 54.75390625 39.296875 C55.39199219 40.43987061 55.39199219 40.43987061 56.04296875 41.60595703 C58.98268165 46.87394664 61.91575486 52.14562855 64.84765625 57.41796875 C65.32949875 58.28440002 65.32949875 58.28440002 65.82107544 59.16833496 C70.67126378 67.8927359 75.48887124 76.63414349 80.23657227 85.41479492 C82.59206117 89.7634209 84.98545472 94.08059112 87.47265625 98.35546875 C87.94662842 99.17845459 88.42060059 100.00144043 88.90893555 100.84936523 C89.79928316 102.38982298 90.70108811 103.92373937 91.61645508 105.44946289 C92.20463013 106.47221313 92.20463013 106.47221313 92.8046875 107.515625 C93.32639526 108.3974646 93.32639526 108.3974646 93.85864258 109.29711914 C94.47265625 111.16796875 94.47265625 111.16796875 93.47265625 116.16796875 C80.93265625 116.16796875 68.39265625 116.16796875 55.47265625 116.16796875 C53.82265625 113.23921875 52.17265625 110.31046875 50.47265625 107.29296875 C49.95058594 106.3714502 49.42851562 105.44993164 48.890625 104.50048828 C48.48457031 103.77458496 48.07851563 103.04868164 47.66015625 102.30078125 C47.24121094 101.55715332 46.82226562 100.81352539 46.390625 100.04736328 C45.47265625 98.16796875 45.47265625 98.16796875 45.47265625 96.16796875 C10.82265625 96.66296875 10.82265625 96.66296875 -24.52734375 97.16796875 C-27.82734375 103.43796875 -31.12734375 109.70796875 -34.52734375 116.16796875 C-47.06734375 116.16796875 -59.60734375 116.16796875 -72.52734375 116.16796875 C-73.63393424 110.63501632 -73.34957685 109.99657177 -70.765625 105.328125 C-70.14695557 104.1932666 -69.52828613 103.0584082 -68.89086914 101.88916016 C-68.20747898 100.66943665 -67.52379725 99.44987646 -66.83984375 98.23046875 C-66.14768273 96.97257031 -65.45685811 95.71393565 -64.76733398 94.45458984 C-63.3684197 91.90427985 -61.96196123 89.35837587 -60.54882812 86.81591797 C-58.72370003 83.52919918 -56.92514176 80.22873999 -55.13671875 76.921875 C-50.89405857 69.07865456 -46.61719338 61.26215444 -42.15234375 53.54296875 C-39.89965742 49.63524756 -37.76219031 45.71797357 -35.77734375 41.66796875 C-32.85253739 35.70586349 -29.70348377 29.87463378 -26.52734375 24.04296875 C-26.02879883 23.12451172 -25.53025391 22.20605469 -25.01660156 21.25976562 C-14.36254145 1.76807532 -14.36254145 1.76807532 -10.64378357 0.55204773 C-7.12120622 -0.08720877 -3.56877136 0.00499628 0 0 Z M-11.52734375 43.16796875 C-11.80639004 46.27835819 -11.80639004 46.27835819 -11.72265625 49.92578125 C-11.71982635 50.5888327 -11.71699646 51.25188416 -11.71408081 51.93502808 C-11.7028781 54.05452458 -11.67777426 56.17359979 -11.65234375 58.29296875 C-11.64231403 59.72916057 -11.63318816 61.165359 -11.625 62.6015625 C-11.60293875 66.12383503 -11.56840869 69.64586078 -11.52734375 73.16796875 C-8.562787 74.52250808 -8.562787 74.52250808 -5.90209961 73.06323242 C-4.33794312 72.20822144 -4.33794312 72.20822144 -2.7421875 71.3359375 C-1.88912521 70.87487358 -1.88912521 70.87487358 -1.01882935 70.40449524 C0.83791984 69.39776988 2.68644083 68.37686045 4.53515625 67.35546875 C5.81213279 66.65933274 7.08956035 65.96402343 8.36743164 65.26953125 C12.07680299 63.24935844 15.77564412 61.21067383 19.47265625 59.16796875 C20.41979492 58.64541504 21.36693359 58.12286133 22.34277344 57.58447266 C26.09626769 55.51055473 29.84384476 53.42644284 33.5859375 51.33203125 C39.17721867 48.20761495 44.82183195 45.18307288 50.47265625 42.16796875 C50.47265625 41.83796875 50.47265625 41.50796875 50.47265625 41.16796875 C42.68419275 41.1216782 34.89576133 41.08611633 27.1071949 41.06434441 C23.49084752 41.05389626 19.87459409 41.03971843 16.25830078 41.01708984 C12.76996814 40.99539795 9.28172601 40.9834079 5.79333115 40.97821426 C3.81125654 40.97270706 1.82921846 40.95708841 -0.15280151 40.94137573 C-1.35389557 40.94122467 -2.55498962 40.94107361 -3.79248047 40.94091797 C-5.38465897 40.93425613 -5.38465897 40.93425613 -7.00900269 40.92745972 C-9.69847332 40.91464561 -9.69847332 40.91464561 -11.52734375 43.16796875 Z " fill="#000000" transform="translate(225.52734375,693.83203125)"/>
<path d="M0 0 C4.32061505 3.33220962 8.20443102 7.08941378 12 11 C10.3383196 15.12417063 7.37661982 18.06554039 4.375 21.25 C3.6015625 22.08144531 3.6015625 22.08144531 2.8125 22.9296875 C1.54574965 24.2902712 0.27342185 25.64565837 -1 27 C-4.74875249 26.42844132 -6.45514442 24.87059625 -9.125 22.25 C-18.53240637 13.64453647 -29.21403409 10.41875137 -41.8203125 10.69140625 C-52.75347011 11.75248666 -62.73925532 15.98049407 -70.03125 24.32421875 C-79.09393847 36.55500807 -82.14418124 50.69277088 -80.53125 65.77734375 C-78.52641083 77.93905193 -73.919325 89.98338207 -63.87109375 97.7265625 C-53.4059813 104.84895636 -42.61189853 107.70573847 -29.984375 105.46484375 C-20.13148272 103.19966877 -12.99922867 99.47677593 -5.5 92.75 C-4.86835937 92.19570313 -4.23671875 91.64140625 -3.5859375 91.0703125 C-2.05062091 89.72109489 -0.52432864 88.3616194 1 87 C4.1268791 88.38132461 6.19920392 89.97903763 8.5625 92.4375 C9.14128906 93.03433594 9.72007812 93.63117188 10.31640625 94.24609375 C10.87199219 94.82488281 11.42757812 95.40367187 12 96 C12.58652344 96.48597656 13.17304687 96.97195313 13.77734375 97.47265625 C15 99 15 99 14.8828125 100.9453125 C13.1559514 104.96446709 9.99459914 107.87784187 7 111 C6.27876953 111.77730469 6.27876953 111.77730469 5.54296875 112.5703125 C-6.65633193 124.35116751 -24.16693436 128.53407968 -40.51733398 128.49267578 C-58.79854827 127.99453319 -74.07796538 120.8554262 -87 108 C-87.62648438 107.40832031 -88.25296875 106.81664062 -88.8984375 106.20703125 C-97.68676989 97.1999847 -102.81019149 84.1949681 -105 72 C-105.3403125 70.2984375 -105.3403125 70.2984375 -105.6875 68.5625 C-107.67045537 45.95680877 -101.56165312 26.25343594 -87.25 8.875 C-65.1413448 -14.93432098 -26.42862025 -17.37624445 0 0 Z " fill="#000000" transform="translate(773,873)"/>
<path d="M0 0 C2.99588101 2.37941365 5.82160814 4.88580671 8.32226562 7.78320312 C8.32226562 8.44320312 8.32226562 9.10320313 8.32226562 9.78320312 C8.98226562 9.78320312 9.64226562 9.78320312 10.32226562 9.78320312 C8.66058523 13.90737376 5.69888545 16.84874351 2.69726562 20.03320312 C1.92382812 20.86464844 1.92382812 20.86464844 1.13476562 21.71289062 C-0.13198472 23.07347433 -1.40431253 24.42886149 -2.67773438 25.78320312 C-6.42648687 25.21164445 -8.1328788 23.65379938 -10.80273438 21.03320312 C-20.22503684 12.39996047 -30.64290783 9.22674531 -43.24023438 9.47460938 C-54.31387825 10.46872059 -64.13221542 14.71677436 -71.67382812 22.96679688 C-80.89717822 35.04641022 -83.46784118 49.22269309 -82.45507812 64.04101562 C-80.72733862 76.89002982 -75.28794233 88.57795664 -65.13867188 96.85351562 C-55.0670218 103.79047346 -43.74089381 106.3195337 -31.70507812 104.27929688 C-18.75772729 101.41483873 -10.38092741 94.34660841 -0.67773438 85.78320312 C2.71362282 87.21428132 4.5599152 88.95385495 6.88476562 91.78320312 C8.99582878 94.34092775 10.52196813 95.91633813 13.32226562 97.78320312 C12.41321882 103.02770395 8.89439082 106.05891844 5.32226562 109.78320312 C4.60103516 110.56050781 4.60103516 110.56050781 3.86523438 111.35351562 C-8.33406631 123.13437064 -25.84466873 127.31728281 -42.19506836 127.27587891 C-60.47628264 126.77773632 -75.75569975 119.63862932 -88.67773438 106.78320312 C-89.30421875 106.19152344 -89.93070313 105.59984375 -90.57617188 104.99023438 C-94.66178048 100.80294773 -97.30099811 96.08278926 -99.92773438 90.90820312 C-100.25725098 90.26036865 -100.58676758 89.61253418 -100.92626953 88.94506836 C-105.96907623 78.55637068 -107.25773325 69.12347139 -107.17773438 57.59570312 C-107.17563965 56.90655823 -107.17354492 56.21741333 -107.17138672 55.50738525 C-107.0474078 35.77120372 -100.75660504 20.48754113 -87.01367188 5.99414062 C-63.66236174 -16.10760107 -26.10062977 -18.92979319 0 0 Z " fill="#000000" transform="translate(112.677734375,874.216796875)"/>
<path d="M0 0 C7.59 0 15.18 0 23 0 C30.23995623 16.49339141 37.45191944 32.99663338 44.53051758 49.56005859 C49.4797774 61.13695886 54.48724239 72.68828723 59.50056458 84.23753357 C61.51615338 88.88186534 63.52645199 93.52846835 65.53515625 98.17578125 C66.40887272 100.19609685 67.28268063 102.21637287 68.15652466 104.2366333 C68.70836231 105.51297374 69.25986901 106.78945734 69.81100464 108.06610107 C72.81447455 115.0226922 75.86123016 121.94361912 79.1171875 128.78637695 C80 131 80 131 80 134 C76.25058747 134.17432891 72.50221491 134.28085841 68.75 134.375 C67.68652344 134.42527344 66.62304688 134.47554687 65.52734375 134.52734375 C57.73143107 134.67443644 57.73143107 134.67443644 54.59375 131.78125 C53.80761719 130.13037109 53.80761719 130.13037109 53 128 C52.5968457 127.06365723 52.19369141 126.12731445 51.77832031 125.16259766 C50.376165 121.83689523 49.05660572 118.48948804 47.75 115.125 C46.1825 111.12375 44.615 107.1225 43 103 C18.745 102.505 18.745 102.505 -6 102 C-6.33 103.65 -6.66 105.3 -7 107 C-8.5119036 111.28095781 -10.2420647 115.47625747 -11.9375 119.6875 C-12.39318359 120.84056641 -12.84886719 121.99363281 -13.31835938 123.18164062 C-13.75857422 124.28056641 -14.19878906 125.37949219 -14.65234375 126.51171875 C-15.05445068 127.51678467 -15.45655762 128.52185059 -15.87084961 129.55737305 C-17 132 -17 132 -19 134 C-21.24658203 134.22705078 -21.24658203 134.22705078 -24.0078125 134.1953125 C-24.99394531 134.18886719 -25.98007812 134.18242188 -26.99609375 134.17578125 C-28.54490234 134.15064453 -28.54490234 134.15064453 -30.125 134.125 C-31.16527344 134.11597656 -32.20554687 134.10695313 -33.27734375 134.09765625 C-35.85179092 134.07403747 -38.42578212 134.04110149 -41 134 C-40.43071765 130.79552498 -39.69127521 127.95421923 -38.390625 124.97265625 C-38.05514648 124.19664062 -37.71966797 123.420625 -37.37402344 122.62109375 C-37.0030957 121.77675781 -36.63216797 120.93242188 -36.25 120.0625 C-35.65880371 118.70125 -35.65880371 118.70125 -35.05566406 117.3125 C-34.18088702 115.29883699 -33.30415523 113.28602238 -32.42578125 111.27392578 C-30.93095375 107.84145373 -29.44866404 104.40377059 -27.96875 100.96484375 C-22.55310167 88.39116118 -17.06150129 75.85700345 -11.4375 63.375 C-9.56456182 59.2030145 -7.69491556 55.02957407 -5.8291626 50.85437012 C-5.26402862 49.59048344 -4.69820425 48.3269053 -4.1317749 47.06359863 C-2.38626745 43.16919042 -0.655007 39.26900138 1.05685425 35.35968018 C1.85640956 33.54225687 2.66938608 31.73075684 3.48266602 29.91943359 C3.96018311 28.82195801 4.4377002 27.72448242 4.9296875 26.59375 C5.35491699 25.63146484 5.78014648 24.66917969 6.21826172 23.67773438 C7.80109244 18.25597069 5.15285783 13.7315196 2.9375 8.8125 C0 2.25858124 0 2.25858124 0 0 Z M18 45 C17.55269531 46.16015625 17.10539062 47.3203125 16.64453125 48.515625 C12.29477303 59.76778812 7.7524547 70.91093903 3 82 C13.23 82 23.46 82 34 82 C31.39445057 74.18335171 28.53322485 66.62337499 25.4375 59 C24.93806368 57.74873278 24.43871412 56.49743093 23.93945312 55.24609375 C23.46314453 54.07175781 22.98683594 52.89742187 22.49609375 51.6875 C22.06482178 50.61886719 21.6335498 49.55023437 21.18920898 48.44921875 C20.24309163 45.86768624 20.24309163 45.86768624 18 45 Z " fill="#000000" transform="translate(291,865)"/>
<path d="M0 0 C5.14706694 4.26785265 5.14706694 4.26785265 6.46875 7.1640625 C6.5703125 9.1953125 6.5703125 9.1953125 5.3828125 11.125 C4.7846875 11.76695312 4.1865625 12.40890625 3.5703125 13.0703125 C2.92964844 13.75867188 2.28898437 14.44703125 1.62890625 15.15625 C-1.26094765 18.01868593 -4.2787991 20.6231587 -7.4296875 23.1953125 C-8.11933594 22.59203125 -8.80898438 21.98875 -9.51953125 21.3671875 C-18.21902631 13.96843999 -24.83998646 9.31276935 -36.5546875 9.74609375 C-41.03011214 10.44537885 -44.15378337 12.09182438 -47.4296875 15.1953125 C-50.8166408 19.85237328 -51.29526552 24.60931481 -50.4296875 30.1953125 C-45.36175051 41.4329119 -29.86213728 46.15448024 -19.32421875 51.13671875 C-6.92979093 57.0606869 3.96949786 63.41925997 9.59765625 76.6015625 C12.8639742 86.11452539 12.66168164 95.96666031 8.5703125 105.1953125 C6.82345027 108.11733659 4.82135668 110.6469606 2.5703125 113.1953125 C2.044375 113.8140625 1.5184375 114.4328125 0.9765625 115.0703125 C-3.47714761 119.94418394 -8.36858459 122.68059959 -14.4296875 125.1953125 C-15.51636719 125.67677734 -15.51636719 125.67677734 -16.625 126.16796875 C-31.39541991 131.70044311 -47.17767393 128.28347645 -61.00390625 122.03125 C-68.90641869 117.97655775 -76.64219547 111.94738653 -82.4296875 105.1953125 C-82.4296875 102.1953125 -82.4296875 102.1953125 -80.85546875 100.58203125 C-79.80939453 99.74091797 -79.80939453 99.74091797 -78.7421875 98.8828125 C-75.1680453 95.89907034 -72.29004109 92.86014053 -69.4296875 89.1953125 C-65.43803149 89.74462296 -63.52992542 91.70400087 -60.6796875 94.4453125 C-51.97814062 102.48242408 -44.32960392 106.7113772 -32.20703125 106.4453125 C-24.88716522 105.78642161 -19.6571358 103.29207459 -14.4296875 98.1953125 C-12.45182118 94.23957986 -13.00770168 89.50690673 -13.4296875 85.1953125 C-18.41796645 74.17952982 -32.11172483 69.81987986 -42.34375 65.13867188 C-51.68535337 60.77681335 -60.4762564 55.96679432 -67.4296875 48.1953125 C-68.1309375 47.4321875 -68.8321875 46.6690625 -69.5546875 45.8828125 C-73.87740562 39.68691652 -74.96699775 33.63198224 -74.8671875 26.2578125 C-74.85473999 25.06877319 -74.85473999 25.06877319 -74.84204102 23.85571289 C-74.66899163 17.87411619 -73.8421572 13.22315248 -70.4296875 8.1953125 C-69.93210937 7.42960938 -69.43453125 6.66390625 -68.921875 5.875 C-62.69761092 -2.89686984 -54.18736015 -8.25315297 -43.63671875 -10.36328125 C-27.51941423 -12.58161914 -13.10949581 -9.73727824 0 0 Z " fill="#000000" transform="translate(463.4296875,872.8046875)"/>
<path d="M0 0 C3.45228982 2.68387692 6.51580991 5.61968822 9.421875 8.8828125 C8.05294563 11.97984578 6.50070141 14.00042858 4.046875 16.3203125 C1.26042227 19.01950679 -1.23045881 21.78389313 -3.578125 24.8828125 C-6.68545404 23.49720441 -8.8194974 21.85650525 -11.265625 19.5078125 C-18.25658747 13.34083088 -24.49089832 11.2140964 -33.83984375 11.55859375 C-39.32146148 12.2076298 -43.1633903 14.61439412 -46.578125 18.8828125 C-48.83591432 23.6134187 -49.01004856 27.89510559 -47.578125 32.8828125 C-42.84450698 42.29232149 -31.70098266 45.83024352 -22.578125 49.8828125 C-7.6888209 56.49917716 6.06609407 63.74705507 12.53515625 79.61328125 C14.86791117 88.21467274 14.81020489 99.50009445 10.87109375 107.61328125 C3.90523997 118.52207114 -5.73466426 125.41133227 -18.046875 129.1875 C-35.56432994 132.63673338 -51.693229 128.53635441 -66.578125 118.8828125 C-70.10386865 116.06127863 -73.38019623 113.06839405 -76.578125 109.8828125 C-77.16335938 109.36203125 -77.74859375 108.84125 -78.3515625 108.3046875 C-79.578125 106.8828125 -79.578125 106.8828125 -79.578125 103.8828125 C-78.918125 103.8828125 -78.258125 103.8828125 -77.578125 103.8828125 C-76.918125 102.5628125 -76.258125 101.2428125 -75.578125 99.8828125 C-74.918125 99.8828125 -74.258125 99.8828125 -73.578125 99.8828125 C-73.35125 99.3259375 -73.124375 98.7690625 -72.890625 98.1953125 C-71.17190341 95.16708875 -69.25024103 93.10957586 -66.578125 90.8828125 C-62.43545315 91.0320189 -60.26673753 93.86021473 -57.453125 96.6328125 C-49.1042404 104.44522259 -41.01155425 108.28642166 -29.6015625 108.1640625 C-23.26439951 107.57455897 -17.49233229 105.79701979 -12.953125 101.2578125 C-10.17286964 96.45555324 -9.70183435 92.20515189 -11.12109375 86.82421875 C-15.88768313 75.3441232 -30.42284274 70.8624878 -40.98291016 66.08325195 C-54.45677129 59.95356468 -65.89344622 52.88099127 -71.453125 38.5078125 C-74.2437431 28.95658983 -72.93057425 19.24306668 -68.32421875 10.50390625 C-61.848002 0.07490326 -53.05583051 -5.69373511 -41.1796875 -8.73046875 C-26.40716647 -10.92638404 -12.42714745 -8.49310964 0 0 Z " fill="#000000" transform="translate(572.578125,871.1171875)"/>
<path d="M0 0 C7.92 0 15.84 0 24 0 C24 37.29 24 74.58 24 113 C65.52110146 114.83481107 65.52110146 114.83481107 88 104 C88.66 104 89.32 104 90 104 C89.37204819 107.75032662 88.29649739 110.96405455 86.78515625 114.44921875 C86.34623047 115.46177734 85.90730469 116.47433594 85.45507812 117.51757812 C84.99552734 118.56365234 84.53597656 119.60972656 84.0625 120.6875 C83.60681641 121.74517578 83.15113281 122.80285156 82.68164062 123.89257812 C79.25442 131.74558 79.25442 131.74558 77 134 C74.5661637 134.19292423 72.24665644 134.26241022 69.81225586 134.24291992 C69.07229874 134.24481827 68.33234161 134.24671661 67.56996155 134.24867249 C65.11814868 134.25238461 62.6666304 134.24167089 60.21484375 134.23046875 C58.51615941 134.22927719 56.81747441 134.22882374 55.11878967 134.2290802 C51.55693443 134.22751464 47.9951796 134.21921875 44.43334961 134.20581055 C39.85754413 134.18880769 35.28184896 134.18499652 30.70601559 134.18575573 C27.19827716 134.18548441 23.69056307 134.18000955 20.18283272 134.17275429 C18.49505358 134.16956244 16.80727167 134.16759902 15.11948967 134.16686058 C12.76572806 134.16470318 10.41208577 134.15597247 8.05834961 134.14526367 C7.35443085 134.14571686 6.65051208 134.14617004 5.92526245 134.14663696 C1.11447518 134.11447518 1.11447518 134.11447518 0 133 C-0.09624593 131.27907347 -0.12187598 129.55416618 -0.12025452 127.83055115 C-0.12162918 126.71009399 -0.12300385 125.58963684 -0.12442017 124.43522644 C-0.12082489 123.19517349 -0.11722961 121.95512054 -0.11352539 120.67749023 C-0.11367142 119.38011932 -0.11381744 118.08274841 -0.1139679 116.74606323 C-0.11425586 113.17804071 -0.10835932 109.61005152 -0.10139394 106.04203677 C-0.09516021 102.3170938 -0.09455659 98.59215014 -0.09336853 94.86720276 C-0.09025527 87.80882637 -0.08204195 80.7504654 -0.07201904 73.69209582 C-0.06085774 65.65837029 -0.05534741 57.62464404 -0.05032361 49.5909127 C-0.03985933 33.06059918 -0.02205954 16.53030216 0 0 Z " fill="#000000" transform="translate(150,865)"/>
<path d="M0 0 C3.81248426 -0.02887236 7.6249407 -0.04675492 11.4375 -0.0625 C12.52611328 -0.07087891 13.61472656 -0.07925781 14.73632812 -0.08789062 C15.77080078 -0.09111328 16.80527344 -0.09433594 17.87109375 -0.09765625 C18.82943115 -0.10289307 19.78776855 -0.10812988 20.77514648 -0.11352539 C23 0 23 0 24 1 C24.09839707 2.70594091 24.12632028 4.41597971 24.12698364 6.12475586 C24.12980347 7.2353537 24.13262329 8.34595154 24.13552856 9.49020386 C24.13350433 10.71933502 24.1314801 11.94846619 24.12939453 13.21484375 C24.13114685 14.5008548 24.13289917 15.78686584 24.13470459 17.11184692 C24.13927853 20.64894164 24.13748953 24.18600732 24.1343255 27.72310257 C24.1318017 31.41688366 24.1341395 35.11066218 24.13571167 38.80444336 C24.13753331 45.00863087 24.13512721 51.21280648 24.13037109 57.41699219 C24.12492848 64.59983364 24.12669114 71.78264671 24.1321975 78.96548748 C24.1367288 85.12173805 24.1373791 91.27798006 24.13475883 97.43423176 C24.13319615 101.11581704 24.13300205 104.79738896 24.13629532 108.47897339 C24.13970812 112.58105157 24.13498402 116.68308047 24.12939453 120.78515625 C24.13141876 122.01428741 24.13344299 123.24341858 24.13552856 124.50979614 C24.13129883 126.1756929 24.13129883 126.1756929 24.12698364 127.87524414 C24.12660662 128.84643692 24.12622959 129.8176297 24.12584114 130.81825256 C24 133 24 133 23 134 C21.37742456 134.0991657 19.75060169 134.13079777 18.125 134.1328125 C17.14015625 134.13410156 16.1553125 134.13539063 15.140625 134.13671875 C14.10421875 134.13285156 13.0678125 134.12898437 12 134.125 C10.96359375 134.12886719 9.9271875 134.13273438 8.859375 134.13671875 C7.87453125 134.13542969 6.8896875 134.13414062 5.875 134.1328125 C4.96492187 134.13168457 4.05484375 134.13055664 3.1171875 134.12939453 C1 134 1 134 0 133 C-0.09624593 131.27907347 -0.12187598 129.55416618 -0.12025452 127.83055115 C-0.12162918 126.71009399 -0.12300385 125.58963684 -0.12442017 124.43522644 C-0.12082489 123.19517349 -0.11722961 121.95512054 -0.11352539 120.67749023 C-0.11367142 119.38011932 -0.11381744 118.08274841 -0.1139679 116.74606323 C-0.11425586 113.17804071 -0.10835932 109.61005152 -0.10139394 106.04203677 C-0.09516021 102.3170938 -0.09455659 98.59215014 -0.09336853 94.86720276 C-0.09025527 87.80882637 -0.08204195 80.7504654 -0.07201904 73.69209582 C-0.06085774 65.65837029 -0.05534741 57.62464404 -0.05032361 49.5909127 C-0.03985934 33.06059943 -0.02226 16.53030168 0 0 Z " fill="#000000" transform="translate(615,865)"/>
<path d="M0 0 C1.24072266 -0.020625 2.48144531 -0.04125 3.75976562 -0.0625 C4.95150391 -0.06765625 6.14324219 -0.0728125 7.37109375 -0.078125 C8.46220459 -0.0874707 9.55331543 -0.09681641 10.67749023 -0.10644531 C13.86996125 0.28798709 15.2216322 1.10293493 17.5625 3.25 C15.9503086 9.19741339 12.90286249 14.1650401 9.8125 19.4375 C5.61774972 26.6518381 1.52860708 33.9073254 -2.4375 41.25 C-3.58067571 43.35810191 -4.72390643 45.46617398 -5.8671875 47.57421875 C-7.01579229 49.69522191 -8.16422899 51.81631611 -9.3125 53.9375 C-9.90546875 55.03255859 -10.4984375 56.12761719 -11.109375 57.25585938 C-12.55223285 59.92049201 -13.99493889 62.58520671 -15.4375 65.25 C-16.7575 65.25 -18.0775 65.25 -19.4375 65.25 C-19.50698567 57.34843395 -19.56030364 49.44699537 -19.59293652 41.54519939 C-19.60859805 37.87613324 -19.62984475 34.20727599 -19.66381836 30.53833008 C-19.69639514 26.99811053 -19.71434934 23.45809201 -19.72213173 19.91773415 C-19.73037924 17.90852345 -19.75380137 15.89939372 -19.77738953 13.89030457 C-19.77761612 12.66926529 -19.77784271 11.44822601 -19.77807617 10.19018555 C-19.78473801 9.11318893 -19.79139984 8.03619232 -19.79826355 6.92655945 C-19.4375 4.25 -19.4375 4.25 -18.10371399 2.4412384 C-13.03792384 -1.18048354 -5.92630158 0.02455226 0 0 Z " fill="#000000" transform="translate(169.4375,693.75)"/>
</svg>
