<?xml version="1.0" encoding="UTF-8"?>
<svg id="Layer_1" data-name="Layer 1" xmlns="http://www.w3.org/2000/svg" viewBox="0 0 392.8 396.49">
  <path d="M59.11,373.11c-1.29,12.9-11.93,23.38-28.47,23.38-18.71,0-30.64-11.77-30.64-30.23,0-13.15,8.14-30.24,30.64-30.24,12.58,0,26.21,5.72,27.98,20.88h-5.97c-1.78-10.96-11.61-15.4-22.02-15.4-14.27,0-24.19,7.98-24.19,24.76,0,12.82,6.7,24.75,24.19,24.75,13.71,0,20.49-6.94,22.5-17.9h5.97Z"/>
  <polygon points="73.79 337.46 79.75 337.46 79.75 389.55 116.29 389.55 116.29 395.03 73.79 395.03 73.79 337.46"/>
  <path d="M166.44,377.54h-30.32l-7.82,17.49h-6.45l26.13-57.57h6.94l26.12,57.57h-6.94l-7.66-17.49Zm-15.08-34.11l-12.82,28.63h25.47l-12.66-28.63Z"/>
  <path d="M230.95,353.92c-.81-9.84-8.79-12.42-18.06-12.42s-16.29,3.63-16.29,10.16c0,7.5,7.01,9.27,21.05,11.61,10.48,1.78,20.96,4.2,20.96,15.24,0,14.12-12.82,17.99-24.03,17.99-14.59,0-25.24-5.01-26.12-20.49h5.97c1.05,12.1,9.1,15,20.15,15,8.63,0,17.58-2.34,17.58-11.45s-10.48-9.84-20.96-11.54c-13.71-2.18-21.05-6.04-21.05-15.32,0-12.58,11.61-16.69,22.74-16.69,11.77,0,23.63,4.19,24.03,17.9h-5.97Z"/>
  <path d="M290.87,353.92c-.81-9.84-8.8-12.42-18.06-12.42s-16.3,3.63-16.3,10.16c0,7.5,7.02,9.27,21.05,11.61,10.49,1.78,20.97,4.2,20.97,15.24,0,14.12-12.82,17.99-24.03,17.99-14.59,0-25.24-5.01-26.12-20.49h5.96c1.05,12.1,9.12,15,20.16,15,8.63,0,17.58-2.34,17.58-11.45s-10.48-9.84-20.96-11.54c-13.71-2.18-21.05-6.04-21.05-15.32,0-12.58,11.61-16.69,22.74-16.69,11.77,0,23.62,4.19,24.03,17.9h-5.97Z"/>
  <rect x="312.41" y="337.46" width="5.97" height="57.57"/>
  <path d="M392.8,373.11c-1.29,12.9-11.93,23.38-28.47,23.38-18.71,0-30.64-11.77-30.64-30.23,0-13.15,8.14-30.24,30.64-30.24,12.58,0,26.21,5.72,27.98,20.88h-5.97c-1.78-10.96-11.61-15.4-22.02-15.4-14.27,0-24.19,7.98-24.19,24.76,0,12.82,6.69,24.75,24.19,24.75,13.71,0,20.49-6.94,22.5-17.9h5.97Z"/>
  <path d="M232.77,8.08l-108.24,56.49-2.25-4.13L221.96,3.86c-8.15-2.57-16.63-3.86-25.25-3.86-46.66,0-84.62,37.96-84.62,84.61,0,32.14,18.64,61.92,47.52,76.04l108.84-56.79,2.25,4.14-100.41,56.98c8.5,2.81,17.38,4.24,26.42,4.24,46.66,0,84.61-37.96,84.61-84.61,0-32.63-19.03-62.61-48.55-76.54"/>
  <path d="M118.88,251.3h-36.66c-1.61,0-2.98,1.08-2.98,2.95v17.23c0,1.59,1.13,2.44,2.52,1.65,8.65-4.74,36.71-20.15,37.25-20.43,1.05-.54,1.45-1.4-.12-1.4m26.06,47.98h-21.78l-6.94-12.86h-45.24l-6.54,12.86h-21.92c-1.33,0-2.54-.88-1.64-2.49,6.73-12.46,36.29-67.04,36.57-67.58,.86-1.5,1.4-2.66,3.96-2.66h24.1c2.69,0,3.08,1.16,3.95,2.68,.25,.45,30.25,55.02,37.14,67.52,.88,1.62-.3,2.53-1.67,2.53m116-2.71v-67.25c0-1.49,1.23-2.76,2.77-2.76h61.22c17.71,0,26.34,4.22,26.34,18.98,0,10.75-3.6,14.01-8.79,15.88-1.09,.4-1.01,1.24,0,1.4,8.27,1.53,11.39,5.81,11.39,16.5,0,15.9-9.41,19.97-22.14,19.97h-68.04c-1.63,0-2.76-1.34-2.76-2.71m25.02-54.56v11.54h33.85c4.1,0,6.5-1.69,6.5-5.77s-2.39-5.77-6.5-5.77h-33.85Zm0,28.34v12.62h34.33c4.8,0,8.01-1.91,8.01-6.15,0-4.88-3.21-6.47-8.01-6.47h-34.33ZM39.53,229.54v36.64c0,1.58,.85,1.18,1.38,.14,.28-.55,15.7-28.62,20.45-37.25,.77-1.4-.06-2.52-1.66-2.52h-17.22c-1.85,0-2.95,1.38-2.95,2.98m146.51,23.54h37.75c12.11,0,21.98,8.13,21.98,18.15v9.92c0,10.02-9.86,18.14-21.98,18.14h-44.14c-18.89,0-26.12-9.63-26.59-19.31-.02-.89-.32-2.96,2.92-2.96h22.11c.07,4.12,3.25,5.97,8,5.97h26.59c4.81,0,8.01-1.88,8.01-6.08,0-4.91-3.2-6.06-8.01-6.06h-33.57c-18.81,0-25.65-9.93-25.65-19.58v-7.21c0-9.66,9.48-17.47,21.17-17.47h47.01c11.58,0,20.99,7.67,21.17,17.2,0,1.24,.38,3.01-2.98,3.01h-22.42c0-.2-.04-.36-.07-.53,0-.11,0-.19-.04-.28-.53-3-2.81-3.94-6.37-3.94h-24.9c-4.13,0-6.53,1.27-6.53,5.48s2.39,5.58,6.53,5.58"/>
</svg>