<svg width="116" height="46" viewBox="0 0 116 46" fill="none" xmlns="http://www.w3.org/2000/svg">
<g id="Bee+">
<path id="Layer 5" fill-rule="evenodd" clip-rule="evenodd" d="M0 0.216688C0 0.401425 0.664157 1.68888 1.47559 3.07783L2.95118 5.60257H13.0125H23.0743L24.8826 8.75907L26.6908 11.9161L25.4574 14.4608C24.3151 16.8197 23.3137 17.7525 23.3137 16.4593C23.3137 16.1582 22.612 14.7471 21.754 13.3233L20.1948 10.7342H13.2246H6.2549V25.5587V40.3833H4.59735C3.21786 40.3833 2.69416 40.8246 1.4699 43.021C0.661314 44.4715 0 45.759 0 45.8821C0 46.0053 6.04394 46.0372 13.4304 45.9528L26.8608 45.8L30.2146 39.8685L33.5678 33.9369L30.421 28.5191L27.2742 23.1007L30.4079 17.5518L33.5411 12.0022L30.2009 6.09407L26.8608 0.185898L13.4304 0.0330909C6.04394 -0.0512952 0 0.0313804 0 0.216688ZM18.7425 19.7937L20.5473 22.9445L19.2782 25.2497C17.1828 29.0562 16.8911 29.3065 14.3578 29.4759L11.9412 29.6372V23.0101V16.3835L14.4392 16.5129C16.8285 16.6372 17.0162 16.7803 18.7425 19.7937ZM25.5177 31.8267L26.7937 34.1034L24.9212 37.2434L23.0482 40.3833H17.4944H11.9412V37.8175V35.2517L16.0637 35.2512L20.1863 35.2506L21.783 32.4003C22.6609 30.8329 23.5736 29.55 23.8107 29.55C24.0478 29.55 24.816 30.5746 25.5177 31.8267Z" fill="white"/>
<path id="Layer 8" fill-rule="evenodd" clip-rule="evenodd" d="M106.902 8.45347V10.7342H104.628H102.353V13.0149V15.2956H104.628H106.902V17.5763V19.857H109.461H112.02V17.5763C112.02 15.3497 112.067 15.2956 114.01 15.2956C115.953 15.2956 116 15.2414 116 13.0149C116 10.7883 115.953 10.7342 114.01 10.7342C112.067 10.7342 112.02 10.68 112.02 8.45347V6.17276H109.461H106.902V8.45347ZM44.353 22.993V35.8219L49.3285 35.8208C55.1223 35.8202 57.5571 34.8834 59.5524 31.8889C61.1048 29.5585 61.1986 27.0104 59.8151 24.7269C58.8263 23.0939 58.8291 22.9741 59.905 21.0042C61.285 18.4789 60.8722 15.5254 58.7939 13.0485C57.005 10.9166 54.4086 10.1714 48.7599 10.1674L44.353 10.164V22.993ZM64.6343 10.5443C64.4256 10.753 64.255 16.526 64.255 23.3733V35.8219H71.9315H79.6079V33.2561V30.6903H74.4903H69.3726V28.1245V25.5588H73.9217H78.4707V22.9496V20.3405L73.9205 20.5264L69.3698 20.7123L69.3715 18.0039L69.3726 15.2956H74.4903H79.6079V12.7298V10.164H72.3107C68.2968 10.164 64.8424 10.335 64.6343 10.5443ZM83.5883 22.993V35.8219H91.2648H98.9413V33.2168V30.6122L93.5382 30.7935L88.1351 30.9754L88.1345 28.1245V25.2737L92.9695 25.4578L97.804 25.6426V22.993V20.3434L92.9695 20.5281L88.1345 20.7123L88.1362 18.0039L88.1373 15.2956H93.5393H98.9413V12.7298V10.164H91.2648H83.5883V22.993ZM55.7961 16.6492C56.2425 17.631 56.2339 18.3346 55.7642 19.215C55.2252 20.2242 54.5968 20.4272 52.0096 20.4272H48.902V17.8614V15.2956H52.0414C54.7942 15.2956 55.257 15.4626 55.7961 16.6492ZM55.7961 26.9124C56.2425 27.8942 56.2339 28.5978 55.7642 29.4781C55.2252 30.4874 54.5968 30.6903 52.0096 30.6903H48.902V28.1245V25.5588H52.0414C54.7942 25.5588 55.257 25.7258 55.7961 26.9124Z" fill="white"/>
</g>
</svg>
