<svg width="155" height="61" viewBox="0 0 155 61" fill="none" xmlns="http://www.w3.org/2000/svg">
<g id="Black Pearl">
<path id="Vector" d="M30.1355 0.424438C24.1934 0.424438 18.3848 2.18391 13.4441 5.48035C8.50345 8.77679 4.65268 13.4622 2.37875 18.9439C0.104815 24.4257 -0.49015 30.4577 0.669091 36.2771C1.82833 42.0966 4.68971 47.4421 8.89139 51.6376C13.0931 55.8332 18.4463 58.6904 24.2742 59.848C30.1021 61.0055 36.1429 60.4114 41.6327 58.1408C47.1224 55.8702 51.8146 52.025 55.1159 47.0915C58.4171 42.1581 60.1791 36.3579 60.1791 30.4244C60.169 22.471 57.0005 14.8463 51.3684 9.2224C45.7363 3.5985 38.1004 0.434544 30.1355 0.424438ZM30.1355 56.2551C25.828 56.2595 21.5886 55.1826 17.8069 53.1233V35.835C17.8069 35.7204 17.8069 35.5995 17.8069 35.4785C17.8563 34.2536 18.3782 33.0953 19.2633 32.2458C20.1485 31.3963 21.3283 30.9216 22.556 30.9209C28.0552 30.8955 33.5523 30.8955 39.0472 30.9209C39.9568 30.9049 40.8509 31.1573 41.6174 31.6464C42.384 32.1356 42.989 32.8398 43.3565 33.6708C43.7709 34.4536 43.9379 35.3435 43.8354 36.2231C43.733 37.1027 43.366 37.9306 42.7827 38.5976C42.294 39.2114 41.665 39.6994 40.9485 40.0205C40.232 40.3417 39.4489 40.4868 38.6647 40.4435C33.361 40.4435 28.051 40.4435 22.7281 40.4117H22.0907V44.4919C22.2182 44.4919 22.3202 44.4919 22.4222 44.4919C27.9553 44.4919 33.4822 44.5619 38.9962 44.4919C41.262 44.5475 43.4627 43.7327 45.1446 42.2156C46.8264 40.6985 47.8611 38.5948 48.0352 36.3383C48.2094 34.0818 47.5097 31.8446 46.0805 30.0881C44.6513 28.3316 42.6016 27.1898 40.354 26.898C39.5444 26.7707 38.7157 26.7643 37.8615 26.7007L38.0018 26.427C39.1022 24.6132 39.4927 22.4573 39.0982 20.3735C38.6974 18.4013 37.6489 16.6191 36.1189 15.3093C34.5889 13.9994 32.6649 13.2369 30.6518 13.1425C28.7777 13.0915 26.8972 13.0852 25.0166 13.0915H20.6819V22.2131H25.0549V21.6593C25.0687 21.5665 25.0687 21.4721 25.0549 21.3792C25.0549 20.8255 25.0549 20.2653 25.0549 19.7051V19.1068C25.0549 18.4703 25.0549 17.8719 25.0549 17.2354H25.9665C27.5091 17.2354 29.0518 17.2354 30.5944 17.2354C30.7667 17.2469 30.9374 17.2746 31.1044 17.3181C32.2499 17.528 33.2781 18.1514 33.9929 19.0695C34.7078 19.9876 35.0593 21.1363 34.9805 22.2966C34.9017 23.4569 34.3982 24.5477 33.5658 25.361C32.7334 26.1744 31.6304 26.6535 30.4669 26.7071C28.0255 26.7898 25.5776 26.7071 23.1361 26.7643C22.3402 26.7525 21.5453 26.825 20.7648 26.9808C16.94 27.8847 14.5049 30.1635 13.7527 33.8554C13.6315 34.4359 13.5611 35.0259 13.5423 35.6186V50.1507C8.89633 46.2395 5.77842 40.8193 4.73582 34.8413C3.69323 28.8633 4.79258 22.7097 7.84092 17.4605C10.8893 12.2112 15.6918 8.20183 21.4055 6.13603C27.1193 4.07022 33.3792 4.08 39.0864 6.16366C44.7937 8.24732 49.5836 12.2717 52.6155 17.5304C55.6474 22.7892 56.7274 28.9462 55.6661 34.9209C54.6048 40.8956 51.4699 46.3061 46.8117 50.2027C42.1535 54.0994 36.2696 56.2332 30.1928 56.2297L30.1355 56.2551Z" fill="white"/>
<path id="Vector_2" d="M85.0021 23.4862C85.0236 24.0182 84.9194 24.5478 84.6979 25.0322C84.4764 25.5165 84.1439 25.942 83.7272 26.2742C82.7721 26.9945 81.5952 27.3592 80.3996 27.3054H74.025C73.9991 27.3085 73.9729 27.3057 73.9483 27.2971C73.9237 27.2886 73.9013 27.2747 73.8829 27.2563C73.8645 27.2379 73.8505 27.2156 73.842 27.191C73.8335 27.1665 73.8306 27.1403 73.8337 27.1145V14.0527C73.8306 14.0269 73.8335 14.0007 73.842 13.9762C73.8505 13.9516 73.8645 13.9293 73.8829 13.9109C73.9013 13.8925 73.9237 13.8785 73.9483 13.87C73.9729 13.8615 73.9991 13.8587 74.025 13.8617H79.641C80.8295 13.7954 82.0065 14.1245 82.9877 14.7975C83.397 15.0885 83.7276 15.4763 83.9501 15.9262C84.1726 16.3761 84.28 16.874 84.2626 17.3754C84.2799 17.9696 84.1345 18.5573 83.8419 19.075C83.5311 19.5866 83.0916 20.008 82.567 20.2971C83.2797 20.5334 83.9056 20.9767 84.3646 21.5702C84.7888 22.1181 85.0137 22.7938 85.0021 23.4862ZM77.3525 16.7835V19.1132H79.2649C79.6238 19.1465 79.9813 19.0367 80.2594 18.8076C80.3767 18.6906 80.468 18.5502 80.5273 18.3955C80.5867 18.2409 80.6126 18.0755 80.6036 17.9101C80.6099 17.7546 80.5804 17.5998 80.5174 17.4574C80.4544 17.3151 80.3596 17.189 80.2402 17.089C79.9624 16.8736 79.6162 16.7652 79.2649 16.7835H77.3525ZM81.3048 23.0852C81.3121 22.9197 81.2807 22.7548 81.2132 22.6034C81.1457 22.4521 81.044 22.3185 80.9159 22.2131C80.6223 21.9839 80.2555 21.8686 79.8833 21.8885H77.3334V24.4346H79.8833C80.2593 24.4593 80.63 24.3359 80.9159 24.0909C81.0451 23.9649 81.1461 23.8129 81.212 23.645C81.2779 23.4771 81.3074 23.2971 81.2984 23.117L81.3048 23.0852Z" fill="white"/>
<path id="Vector_3" d="M90.7774 27.3054C90.7516 27.3084 90.7253 27.3056 90.7007 27.2971C90.6761 27.2886 90.6538 27.2746 90.6354 27.2562C90.617 27.2378 90.603 27.2155 90.5944 27.191C90.5859 27.1664 90.5831 27.1402 90.5862 27.1144V14.0527C90.5831 14.0268 90.5859 14.0007 90.5944 13.9761C90.603 13.9515 90.617 13.9292 90.6354 13.9108C90.6538 13.8924 90.6761 13.8785 90.7007 13.87C90.7253 13.8615 90.7516 13.8586 90.7774 13.8617H93.9329C93.9587 13.8586 93.9849 13.8615 94.0095 13.87C94.0341 13.8785 94.0565 13.8924 94.0749 13.9108C94.0933 13.9292 94.1073 13.9515 94.1158 13.9761C94.1243 14.0007 94.1272 14.0268 94.1241 14.0527V24.059H98.9369C99.0644 24.059 99.1282 24.129 99.1282 24.2691L98.9752 27.1144C98.9759 27.1377 98.9711 27.1608 98.9612 27.1818C98.9512 27.2028 98.9363 27.2212 98.9178 27.2353C98.8808 27.2679 98.8333 27.286 98.7839 27.2863L90.7774 27.3054Z" fill="white"/>
<path id="Vector_4" d="M112.49 13.8617C112.529 13.8617 112.567 13.8752 112.598 13.8999C112.625 13.9203 112.647 13.9464 112.662 13.9763L117.213 26.9999C117.223 27.0245 117.223 27.0516 117.213 27.0763C117.215 27.1049 117.21 27.1335 117.199 27.1599C117.188 27.1863 117.171 27.21 117.15 27.229C117.103 27.2676 117.044 27.288 116.984 27.2863H113.618C113.583 27.2874 113.549 27.2767 113.521 27.2558C113.494 27.235 113.474 27.2053 113.465 27.1717L112.662 25.0521H108.537L107.734 27.1717C107.732 27.1894 107.726 27.2064 107.717 27.2217C107.708 27.2371 107.696 27.2505 107.682 27.2611C107.668 27.2718 107.651 27.2795 107.634 27.2838C107.617 27.2882 107.599 27.289 107.581 27.2863H104.394C104.358 27.2868 104.323 27.279 104.291 27.2636C104.259 27.2481 104.231 27.2254 104.209 27.1972C104.192 27.1672 104.183 27.1332 104.183 27.0985C104.183 27.0639 104.192 27.0299 104.209 26.9999L108.799 13.9763C108.814 13.9464 108.836 13.9203 108.863 13.8999C108.893 13.8752 108.931 13.8617 108.971 13.8617H112.49ZM111.763 22.0922L110.622 18.0438L109.475 22.0922H111.763Z" fill="white"/>
<path id="Vector_5" d="M136.375 21.9585C136.432 21.9677 136.484 21.997 136.522 22.0412C136.533 22.0641 136.538 22.0891 136.538 22.1144C136.538 22.1397 136.533 22.1647 136.522 22.1876C136.354 23.2081 135.926 24.1682 135.279 24.9757C134.612 25.799 133.76 26.4533 132.793 26.8853C131.748 27.3589 130.612 27.598 129.465 27.5855C128.185 27.6072 126.921 27.2934 125.8 26.6752C124.75 26.093 123.883 25.2314 123.294 24.1864C122.702 23.0878 122.393 21.8597 122.393 20.6122C122.393 19.3647 122.702 18.1366 123.294 17.038C123.893 15.984 124.777 15.1193 125.844 14.5428C126.96 13.9353 128.214 13.6261 129.484 13.6453C130.601 13.6275 131.708 13.8444 132.735 14.2818C133.684 14.6896 134.526 15.3104 135.196 16.096C135.831 16.8569 136.268 17.7618 136.471 18.7312V18.7694C136.472 18.7936 136.467 18.8176 136.457 18.8397C136.447 18.8618 136.432 18.8813 136.413 18.8967C136.374 18.928 136.329 18.9497 136.28 18.9604L132.837 19.3041H132.799C132.735 19.3041 132.691 19.2659 132.665 19.1895C132.431 18.5126 131.984 17.9297 131.39 17.5282C130.803 17.1407 130.111 16.9409 129.408 16.9553C128.797 16.9451 128.195 17.1085 127.674 17.4263C127.168 17.7326 126.757 18.1734 126.488 18.6994C126.2 19.283 126.056 19.9268 126.067 20.5772C126.055 21.2216 126.199 21.8595 126.488 22.4359C126.752 22.9614 127.159 23.4024 127.661 23.709C128.183 24.0196 128.781 24.1783 129.389 24.1673C130.164 24.2016 130.928 23.9777 131.562 23.5307C132.15 23.0789 132.559 22.434 132.716 21.7102C132.727 21.6607 132.754 21.616 132.793 21.5829C132.813 21.5718 132.836 21.5659 132.86 21.5659C132.883 21.5659 132.906 21.5718 132.927 21.5829L136.375 21.9585Z" fill="white"/>
<path id="Vector_6" d="M145.886 13.8617C145.912 13.8586 145.938 13.8615 145.963 13.87C145.988 13.8785 146.01 13.8924 146.028 13.9108C146.047 13.9292 146.061 13.9515 146.069 13.9761C146.078 14.0007 146.081 14.0268 146.078 14.0527V19.5523L150.075 13.9381C150.087 13.9133 150.107 13.8931 150.132 13.8808H150.208H153.765C153.834 13.8797 153.9 13.9048 153.95 13.9508C153.991 13.994 154.014 14.0508 154.014 14.1099C154.011 14.1713 153.991 14.2307 153.957 14.2818L149.463 20.3034L154.052 26.8916C154.083 26.9362 154.097 26.9905 154.091 27.0444C154.092 27.0739 154.087 27.1033 154.076 27.1307C154.065 27.1582 154.048 27.183 154.027 27.2035C153.976 27.2495 153.91 27.2746 153.842 27.2735H150.075C150.044 27.2775 150.014 27.2723 149.986 27.2587C149.959 27.2451 149.937 27.2236 149.922 27.1971L146.097 21.4301V27.0826C146.1 27.1084 146.097 27.1346 146.088 27.1591C146.08 27.1837 146.066 27.206 146.048 27.2244C146.029 27.2428 146.007 27.2568 145.982 27.2653C145.958 27.2738 145.931 27.2766 145.906 27.2735H142.75C142.724 27.2766 142.698 27.2738 142.673 27.2653C142.649 27.2568 142.626 27.2428 142.608 27.2244C142.59 27.206 142.576 27.1837 142.567 27.1591C142.559 27.1346 142.556 27.1084 142.559 27.0826V14.0527C142.556 14.0268 142.559 14.0007 142.567 13.9761C142.576 13.9515 142.59 13.9292 142.608 13.9108C142.626 13.8924 142.649 13.8785 142.673 13.87C142.698 13.8615 142.724 13.8586 142.75 13.8617H145.886Z" fill="white"/>
<path id="Vector_7" d="M74.0313 46.9744C74.0055 46.9775 73.9792 46.9747 73.9546 46.9662C73.93 46.9576 73.9077 46.9437 73.8893 46.9253C73.8709 46.9069 73.8569 46.8846 73.8484 46.86C73.8398 46.8355 73.837 46.8093 73.8401 46.7835V33.7472C73.837 33.7214 73.8398 33.6952 73.8484 33.6706C73.8569 33.6461 73.8709 33.6237 73.8893 33.6054C73.9077 33.587 73.93 33.573 73.9546 33.5645C73.9792 33.556 74.0055 33.5532 74.0313 33.5562H79.437C80.3706 33.5395 81.2961 33.7308 82.1462 34.1164C82.9218 34.4729 83.574 35.051 84.0204 35.7777C84.4902 36.5795 84.7243 37.4972 84.6961 38.4257C84.7264 39.3666 84.4923 40.2971 84.0204 41.1119C83.577 41.8419 82.9271 42.4244 82.1526 42.786C81.3072 43.1722 80.3856 43.3636 79.4561 43.3462H77.3971V46.7644C77.3955 46.8145 77.3749 46.8622 77.3393 46.8976C77.3038 46.9331 77.2561 46.9537 77.2059 46.9553L74.0313 46.9744ZM77.378 36.6689V40.2526H79.2458C79.4774 40.2676 79.7096 40.2359 79.9286 40.1594C80.1477 40.0828 80.3491 39.963 80.5207 39.807C80.686 39.6193 80.8118 39.4002 80.8907 39.1629C80.9695 38.9256 80.9998 38.6749 80.9797 38.4257C81.0003 38.1843 80.9701 37.9412 80.8911 37.7121C80.812 37.483 80.6859 37.2729 80.5207 37.0954C80.1683 36.7915 79.7104 36.6383 79.2458 36.6689H77.378Z" fill="white"/>
<path id="Vector_8" d="M91.5421 46.9553C91.5162 46.9584 91.49 46.9555 91.4654 46.947C91.4408 46.9385 91.4184 46.9245 91.4 46.9062C91.3816 46.8878 91.3676 46.8655 91.3591 46.8409C91.3506 46.8163 91.3477 46.7902 91.3508 46.7643V33.728C91.3477 33.7022 91.3506 33.6761 91.3591 33.6515C91.3676 33.6269 91.3816 33.6046 91.4 33.5862C91.4184 33.5678 91.4408 33.5539 91.4654 33.5454C91.49 33.5368 91.5162 33.534 91.5421 33.5371H99.8291C99.8777 33.535 99.9253 33.5508 99.963 33.5816C99.9816 33.5971 99.9964 33.6166 100.006 33.6387C100.016 33.6607 100.021 33.6848 100.02 33.709L100.173 36.5543C100.173 36.6943 100.11 36.7643 99.9821 36.7643H94.8824V38.6739H99.5486C99.5745 38.6709 99.6007 38.6737 99.6253 38.6822C99.6499 38.6907 99.6722 38.7047 99.6906 38.7231C99.709 38.7415 99.723 38.7638 99.7316 38.7883C99.7401 38.8129 99.7429 38.8391 99.7398 38.8649V41.5193C99.7429 41.5451 99.7401 41.5713 99.7316 41.5958C99.723 41.6204 99.709 41.6427 99.6906 41.6611C99.6722 41.6795 99.6499 41.6934 99.6253 41.702C99.6007 41.7105 99.5745 41.7133 99.5486 41.7102H94.8824V43.7535H100.103C100.129 43.7504 100.155 43.7533 100.18 43.7618C100.204 43.7703 100.227 43.7843 100.245 43.8026C100.264 43.821 100.278 43.8433 100.286 43.8679C100.295 43.8925 100.298 43.9187 100.294 43.9445V46.7898C100.298 46.8156 100.295 46.8418 100.286 46.8663C100.278 46.8909 100.264 46.9132 100.245 46.9316C100.227 46.95 100.204 46.964 100.18 46.9725C100.155 46.981 100.129 46.9838 100.103 46.9808L91.5421 46.9553Z" fill="white"/>
<path id="Vector_9" d="M115.129 33.5371C115.168 33.537 115.206 33.5505 115.237 33.5753C115.264 33.5956 115.286 33.6217 115.301 33.6517L119.852 46.6688C119.862 46.6935 119.862 46.7206 119.852 46.7452C119.853 46.7743 119.847 46.8032 119.835 46.8297C119.823 46.8562 119.805 46.8796 119.782 46.898C119.739 46.9373 119.681 46.9578 119.623 46.9553H116.257C116.222 46.9564 116.188 46.9456 116.16 46.9248C116.133 46.904 116.113 46.8743 116.104 46.8407L115.339 44.721H111.208L110.412 46.8407C110.409 46.8583 110.403 46.8753 110.394 46.8907C110.385 46.906 110.373 46.9194 110.359 46.9301C110.345 46.9408 110.329 46.9485 110.311 46.9528C110.294 46.9571 110.276 46.958 110.259 46.9553H107.071C107.035 46.9574 107 46.9504 106.967 46.9348C106.935 46.9192 106.907 46.8955 106.886 46.8662C106.869 46.8362 106.86 46.8021 106.86 46.7675C106.86 46.7329 106.869 46.6988 106.886 46.6688L111.476 33.6517C111.491 33.6199 111.515 33.5926 111.544 33.5725C111.573 33.5524 111.607 33.5402 111.642 33.5371H115.129ZM114.402 41.7611L113.255 37.7128L112.107 41.7611H114.402Z" fill="white"/>
<path id="Vector_10" d="M127.272 46.9553C127.246 46.9584 127.22 46.9555 127.195 46.947C127.171 46.9385 127.148 46.9245 127.13 46.9062C127.112 46.8878 127.098 46.8655 127.089 46.8409C127.081 46.8163 127.078 46.7902 127.081 46.7643V33.728C127.078 33.7022 127.081 33.6761 127.089 33.6515C127.098 33.6269 127.112 33.6046 127.13 33.5862C127.148 33.5678 127.171 33.5539 127.195 33.5454C127.22 33.5368 127.246 33.534 127.272 33.5371H132.678C133.589 33.5225 134.493 33.6936 135.336 34.04C136.086 34.3466 136.732 34.8613 137.197 35.5231C137.661 36.2078 137.9 37.02 137.879 37.8464C137.901 38.7201 137.639 39.5773 137.134 40.2907C136.609 40.9984 135.882 41.531 135.049 41.8184L138.338 46.5734C138.369 46.6179 138.383 46.6723 138.377 46.7261C138.377 46.7561 138.37 46.7857 138.358 46.813C138.346 46.8404 138.329 46.865 138.307 46.8853C138.283 46.9085 138.255 46.9266 138.225 46.9387C138.194 46.9507 138.161 46.9564 138.128 46.9553H134.418C134.388 46.9592 134.357 46.9541 134.33 46.9404C134.303 46.9268 134.28 46.9054 134.265 46.8789L131.186 42.2386H130.638V46.7643C130.641 46.7902 130.638 46.8163 130.63 46.8409C130.621 46.8655 130.607 46.8878 130.589 46.9062C130.57 46.9245 130.548 46.9385 130.523 46.947C130.499 46.9555 130.472 46.9584 130.447 46.9553H127.272ZM130.593 36.6307V39.3996H132.467C132.909 39.4206 133.344 39.2928 133.704 39.0368C133.86 38.9131 133.984 38.7535 134.065 38.5718C134.146 38.39 134.182 38.1914 134.169 37.9928C134.18 37.8 134.143 37.6076 134.062 37.4323C133.981 37.257 133.858 37.1042 133.704 36.9871C133.348 36.7397 132.92 36.6166 132.486 36.637L130.593 36.6307Z" fill="white"/>
<path id="Vector_11" d="M145.618 46.9553C145.592 46.9584 145.566 46.9555 145.542 46.947C145.517 46.9385 145.495 46.9245 145.476 46.9062C145.458 46.8878 145.444 46.8655 145.435 46.8409C145.427 46.8163 145.424 46.7902 145.427 46.7643V33.728C145.424 33.7022 145.427 33.6761 145.435 33.6515C145.444 33.6269 145.458 33.6046 145.476 33.5862C145.495 33.5678 145.517 33.5539 145.542 33.5454C145.566 33.5368 145.592 33.534 145.618 33.5371H148.774C148.8 33.534 148.826 33.5368 148.85 33.5454C148.875 33.5539 148.897 33.5678 148.916 33.5862C148.934 33.6046 148.948 33.6269 148.957 33.6515C148.965 33.6761 148.968 33.7022 148.965 33.728V43.728H153.784C153.912 43.728 153.975 43.7981 153.975 43.9381L153.822 46.7834C153.824 46.8068 153.819 46.8301 153.809 46.8512C153.799 46.8723 153.784 46.8906 153.765 46.9044C153.728 46.9369 153.68 46.955 153.631 46.9553H145.618Z" fill="white"/>
</g>
</svg>
