<svg width="122" height="60" viewBox="0 0 122 60" fill="none" xmlns="http://www.w3.org/2000/svg">
<g id="CONSTRUCTO - Yellow - White text 1 (Traced)">
<path id="Layer 2" fill-rule="evenodd" clip-rule="evenodd" d="M87.9691 5.37632C88.1758 5.5895 88.3697 5.76392 88.4002 5.76392C88.4306 5.76392 88.2865 5.5895 88.0799 5.37632C87.8732 5.16313 87.6793 4.98871 87.6489 4.98871C87.6184 4.98871 87.7625 5.16313 87.9691 5.37632ZM93.315 18.1673C93.315 18.4414 93.3366 18.5536 93.3631 18.4165C93.3894 18.2794 93.3894 18.0553 93.3631 17.9182C93.3366 17.7811 93.315 17.8933 93.315 18.1673ZM27.1918 18.3335C27.194 18.5162 27.2188 18.5775 27.2469 18.4698C27.2751 18.362 27.2732 18.2125 27.2429 18.1376C27.2125 18.0626 27.1896 18.1507 27.1918 18.3335ZM34.5989 18.7856C34.6042 18.9147 34.6304 18.9409 34.6657 18.8526C34.6978 18.7727 34.6938 18.6771 34.657 18.6403C34.6202 18.6036 34.5941 18.6689 34.5989 18.7856ZM67.0384 26.1828C67.0384 26.2058 67.1256 26.293 67.2322 26.3766C67.4078 26.5143 67.4117 26.5104 67.274 26.3348C67.1293 26.1503 67.0384 26.0917 67.0384 26.1828ZM60.239 29.1126C60.2076 29.1634 60.2522 29.205 60.3383 29.205C60.4243 29.205 60.469 29.1634 60.4376 29.1126C60.4063 29.0619 60.3615 29.0203 60.3383 29.0203C60.315 29.0203 60.2703 29.0619 60.239 29.1126ZM73.9946 29.4282C74.0744 29.4602 74.17 29.4562 74.2068 29.4195C74.2435 29.3827 74.1782 29.3566 74.0615 29.3613C73.9324 29.3666 73.9062 29.3929 73.9946 29.4282ZM75.7665 36.5159C75.8463 36.5479 75.9419 36.5439 75.9787 36.5071C76.0154 36.4704 75.9501 36.4442 75.8334 36.449C75.7044 36.4543 75.6781 36.4806 75.7665 36.5159Z" fill="white"/>
<path id="Layer 3" fill-rule="evenodd" clip-rule="evenodd" d="M89.487 8.78171C89.2661 14.0271 87.9426 18.3461 85.0348 23.3108C84.1544 24.814 83.8368 25.2433 82.6588 26.5228C79.9469 29.4683 77.1463 31.6706 74.0698 33.2767C72.7075 33.988 70.1336 35.0409 69.2727 35.239L68.6831 35.3747L69.4942 35.6383C71.5647 36.3117 74.1391 36.6126 76.3719 36.4421C82.9236 35.942 88.4759 32.2052 91.4309 26.3071C92.8111 23.5522 93.3618 20.9166 93.2523 17.5897C93.1622 14.8503 92.6914 12.8597 91.5614 10.4391C91.1518 9.56136 89.7183 7.2036 89.5943 7.2036C89.5718 7.2036 89.5235 7.91369 89.487 8.78171Z" fill="white"/>
<path id="Layer 4" fill-rule="evenodd" clip-rule="evenodd" d="M43.1174 0.186468C36.122 1.24707 30.389 6.05152 28.1832 12.7021C27.4846 14.8083 27.3347 15.856 27.3458 18.5549C27.3539 20.5131 27.3937 21.0553 27.5979 21.987C28.6542 26.8043 31.3974 30.9023 35.3138 33.5141C41.6572 37.7443 49.5143 37.6901 55.9374 33.3721C57.0687 32.6116 58.9349 30.8576 59.7494 29.7892L60.3382 29.017L60.5597 29.3224C62.19 31.5708 65.3774 34.0326 68.0606 35.1156C68.6392 35.3492 68.7467 35.3599 69.2788 35.2376C70.1343 35.0406 72.7114 33.986 74.0698 33.2767C76.3974 32.0615 78.5022 30.5608 80.5492 28.6568C81.512 27.7613 83.0252 26.1353 82.2592 26.8194C81.6804 27.3362 80.5956 28.0163 79.6474 28.4568C76.522 29.9083 72.5803 29.752 69.6408 28.0601C67.4545 26.8017 66.1348 25.4347 65.0614 23.317C64.6339 22.4735 64.0482 20.7058 64.0482 20.2591C64.0482 20.0584 63.9038 20.05 60.4757 20.05H56.9031L56.7082 20.9083C55.9934 24.0554 53.722 26.9362 50.8142 28.3838C49.172 29.2013 47.1107 29.6343 45.3323 29.5355C38.2159 29.1402 33.2625 22.5008 34.9811 15.6607C36.0394 11.4486 39.3701 8.25014 43.6104 7.37436C44.6316 7.1634 46.6162 7.13316 47.7133 7.31179C49.2975 7.56983 51.3089 8.44848 52.614 9.45282C53.4372 10.0862 54.5747 11.2952 55.1157 12.1117C55.9341 13.3466 56.8498 15.6522 56.8498 16.4778V16.7308L60.4213 16.7015L63.9928 16.6723V9.14163V1.61098L60.4213 1.58174L56.8498 1.55251V2.6491V3.7457L55.8254 3.06129C52.1568 0.610068 47.4081 -0.464158 43.1174 0.186468ZM56.9236 0.079046C56.883 0.119579 56.8498 0.292673 56.8498 0.463663V0.774413L60.4078 0.805089C64.2177 0.837981 64.1449 0.848501 64.0027 0.28182L63.9332 0.00517913H60.4654C58.558 0.00517913 56.9642 0.0384026 56.9236 0.079046ZM73.3507 0.0798212C71.6418 0.252805 69.6265 0.747834 68.1796 1.35018L67.3705 1.68706V5.96204V10.2371L67.7304 9.89669C68.2094 9.44352 69.2643 8.74539 70.0838 8.33906C73.4269 6.68188 77.5614 6.84135 80.7706 8.75137C82.9562 10.0521 84.785 12.3325 85.6249 14.8046C86.3905 17.0578 86.3376 19.7771 85.4786 22.3203L85.4039 22.5418L85.5868 22.3203C85.8722 21.975 87.2315 19.114 87.6652 17.9459C88.789 14.9191 89.3584 12.0235 89.4874 8.67872L89.5523 6.9975L88.0685 5.51917C86.3798 3.8364 85.0336 2.83637 83.2624 1.94842C80.6527 0.64019 77.8123 -0.0185203 74.9594 0.0228983C74.2879 0.0326439 73.5639 0.0582259 73.3507 0.0798212Z" fill="white"/>
<path id="Layer 7" fill-rule="evenodd" clip-rule="evenodd" d="M58.6494 0.863237C59.6088 0.881731 61.1785 0.881731 62.1379 0.863237C63.0973 0.844853 62.3123 0.829681 60.3937 0.829681C58.475 0.829681 57.6901 0.844853 58.6494 0.863237Z" fill="white"/>
<path id="Layer 8" fill-rule="evenodd" clip-rule="evenodd" d="M3.68242 44.636C1.60318 44.7721 0.769384 45.1058 0.418987 45.9419C0.145448 46.595 0.00557686 48.1588 0.0703626 49.8404C0.170254 52.4361 0.482998 53.0968 1.78126 53.4547C2.42867 53.6333 2.94729 53.6611 5.63031 53.6611C8.95708 53.6611 9.58855 53.5773 10.2632 53.0466C10.6014 52.7805 10.8411 52.0417 10.9528 50.9201L11.0272 50.1726H9.5746H8.12207V50.4837C8.12207 51.2082 7.63778 51.3782 5.55268 51.3859C3.85806 51.3922 3.16601 51.2478 3.0041 50.8541C2.86147 50.5073 2.82326 48.305 2.94951 47.7099C3.08617 47.0655 3.26579 47.0164 5.48379 47.0164C7.2989 47.0164 7.46413 47.0333 7.75406 47.2488C7.95872 47.401 8.07866 47.6018 8.10136 47.8302L8.13613 48.1792H9.56873C11.2151 48.1792 11.0867 48.3009 10.8883 46.9284C10.6706 45.4234 10.2083 44.982 8.61433 44.757C7.48296 44.5974 5.14802 44.54 3.68242 44.636ZM15.7635 44.636C14.2629 44.7234 13.0744 44.9745 12.7344 45.2757C12.1158 45.824 11.8236 47.5513 11.9248 50.0619C11.9991 51.9024 12.1016 52.356 12.5613 52.8796C13.1617 53.5636 13.5632 53.6367 17.0097 53.6897C21.156 53.7536 22.6365 53.5407 23.1143 52.8116C23.4949 52.2308 23.6588 51.1737 23.6611 49.2866C23.6642 46.6635 23.4024 45.583 22.6603 45.156C21.8869 44.7111 18.6571 44.4676 15.7635 44.636ZM89.4088 44.6377C87.311 44.773 86.5623 45.0258 86.2112 45.7174C85.863 46.403 85.7242 47.3731 85.7244 49.1205C85.7249 51.6422 86.0314 52.846 86.7706 53.2283C87.4349 53.5718 88.7076 53.7087 91.2361 53.7087C93.8265 53.7087 95.1051 53.5645 95.7165 53.2032C96.2255 52.9026 96.5114 52.209 96.5801 51.1083L96.6385 50.1726H95.2508H93.8633L93.7904 50.5611C93.6593 51.2596 93.4042 51.3354 91.1856 51.3354C88.9977 51.3354 88.8181 51.2865 88.639 50.6419C88.4651 50.0159 88.4928 48.0224 88.6817 47.5704C88.8944 47.0613 89.1066 47.0164 91.2964 47.0164C93.3934 47.0164 93.6606 47.0993 93.7904 47.7907L93.8633 48.1792H95.2352H96.6072V47.5933C96.6072 46.8098 96.3208 45.7517 96.0204 45.4253C95.8863 45.2797 95.6271 45.0972 95.4444 45.0196C94.6491 44.6825 91.6521 44.4928 89.4088 44.6377ZM113.219 44.635C111.717 44.7236 110.529 44.9748 110.19 45.2757C109.572 45.8229 109.276 47.6099 109.386 50.1172C109.465 51.9218 109.567 52.3672 110.017 52.8796C110.617 53.5636 111.019 53.6367 114.465 53.6897C117.741 53.7402 119.123 53.6358 119.937 53.2763C120.861 52.8687 121.078 52.09 121.08 49.1715C121.083 46.2905 120.856 45.4789 119.937 45.0776C119.023 44.678 115.937 44.4748 113.219 44.635ZM40.8472 44.7081C38.989 44.9798 38.3894 45.7498 38.4898 47.7362C38.5636 49.1998 38.9629 49.8005 40.0371 50.064C40.2999 50.1285 41.7079 50.2299 43.1658 50.2892C46.1099 50.4092 46.2604 50.4499 46.196 51.1083C46.1651 51.424 46.1266 51.4509 45.6092 51.5195C44.8719 51.6172 42.7789 51.6135 41.9741 51.5132C41.305 51.4297 41.1287 51.2949 41.1257 50.8648C41.124 50.6197 41.101 50.6156 39.7397 50.6156H38.3554V51.1517C38.3554 51.8912 38.6159 52.6881 38.9828 53.071C39.5443 53.6572 40.1746 53.7567 43.3389 53.7592C47.4157 53.7624 48.2008 53.5761 48.7465 52.4766C49.1908 51.5815 49.0756 49.7108 48.5338 49.0221C48 48.3434 47.3458 48.1987 44.2446 48.0729C41.5822 47.9649 41.2348 47.8836 41.2348 47.3682C41.2348 46.8831 41.3824 46.8503 43.5614 46.8503C45.7701 46.8503 45.9509 46.891 46.0166 47.404L46.0522 47.6808L47.4774 47.712L48.9025 47.7431L48.8291 47.1029C48.719 46.142 48.2593 45.3065 47.6546 44.9678C47.1628 44.6925 47.1404 44.6906 44.1695 44.6751C42.525 44.6666 41.0299 44.6814 40.8472 44.7081ZM24.9553 49.1759V53.6057H26.3396H27.7239V50.4567C27.7239 48.6787 27.6768 47.1839 27.6159 47.0236C27.5565 46.8673 27.521 46.7395 27.537 46.7395C27.5529 46.7395 28.6606 48.2831 29.9983 50.1696L32.4306 53.5997L34.7285 53.6027L37.0265 53.6057V49.1759V44.7461H35.5806H34.1346L34.1759 47.93C34.1987 49.6812 34.2582 51.2385 34.3081 51.3908C34.372 51.5857 34.3078 51.5365 34.0914 51.2247C33.9223 50.981 32.8141 49.4237 31.6286 47.7639L29.4731 44.7461H27.2143H24.9553V49.1759ZM49.8729 45.9089V47.0717H51.8109H53.749V50.3387V53.6057H55.1919H56.6348L56.6038 50.3386L56.573 47.0716H58.5387L60.5044 47.0717V45.9089V44.7461H55.1886H49.8729V45.9089ZM61.5011 49.1759V53.6057H62.9408H64.3805V52.3875V51.1693H66.698H69.0157L69.2452 51.4611C69.4359 51.7035 69.4747 51.9097 69.4747 52.6793V53.6057H70.859H72.2433L72.2417 52.2491C72.2399 50.7131 72.1624 50.4695 71.549 50.0714L71.1371 49.804L71.4634 49.6056C71.6428 49.4965 71.8761 49.243 71.982 49.0423C72.2283 48.5751 72.3192 46.8775 72.1346 46.1924C71.9705 45.5837 71.4349 45.0302 70.8538 44.8689C70.5697 44.79 68.8526 44.7471 65.9586 44.7468L61.5011 44.7461V49.1759ZM73.796 47.5978C73.7972 49.1663 73.8472 50.788 73.907 51.2019C74.1032 52.559 74.6544 53.2629 75.7009 53.493C77.2158 53.826 81.7803 53.8245 83.303 53.4906C84.0965 53.3166 84.6924 52.7801 84.9418 52.0153C85.0936 51.5495 85.1357 50.8381 85.1737 48.0961L85.22 44.7461H83.7706H82.3211V47.7115C82.3211 51.1187 82.3314 51.0775 81.4299 51.2709C80.7694 51.4125 78.27 51.4221 77.5631 51.2858C76.6714 51.1137 76.6731 51.1209 76.6731 47.7239V44.7461H75.2335H73.7938L73.796 47.5978ZM97.4932 45.9089V47.0717H99.4866H101.48V50.3387V53.6057H102.864H104.249V50.3387V47.0717H106.187H108.125V45.9089V44.7461H102.809H97.4932V45.9089ZM20.325 47.1619C20.7202 47.3221 20.8565 47.8388 20.8565 49.1759C20.8565 50.5105 20.7202 51.0282 20.325 51.1942C19.9753 51.3412 16.1501 51.382 15.5059 51.2457C14.8627 51.1096 14.7361 50.7047 14.7839 48.9366C14.828 47.3035 14.8874 47.1861 15.7345 47.0575C16.5008 46.941 19.9753 47.0199 20.325 47.1619ZM117.782 47.1674C118.21 47.3339 118.349 47.9556 118.291 49.4528C118.232 50.9479 118.149 51.127 117.455 51.2456C116.753 51.3654 113.251 51.3328 112.831 51.2026C112.378 51.0619 112.236 50.5983 112.229 49.2313C112.223 48.1088 112.352 47.3631 112.574 47.2256C112.995 46.9659 117.143 46.9196 117.782 47.1674ZM69.2519 47.2474C69.4774 47.4733 69.5159 48.1552 69.3202 48.4539L69.1374 48.7329H66.7589H64.3805V47.8962V47.0596L66.7562 47.0933C68.2741 47.1149 69.1753 47.1705 69.2519 47.2474ZM10.6065 56.741C10.5758 56.8208 10.565 57.4563 10.5823 58.153L10.6138 59.4198H11.0014C11.3853 59.4198 11.3894 59.4147 11.4228 58.8938L11.4566 58.3677H12.3304H13.2042L13.2379 58.8938C13.2714 59.4147 13.2755 59.4198 13.6593 59.4198H14.0469V58.0355V56.6512L13.6316 56.6168L13.2163 56.5824V57.0875V57.5925H12.3304H11.4444V57.0942C11.4444 56.5976 11.443 56.5958 11.0534 56.5958C10.8329 56.5958 10.638 56.6591 10.6065 56.741ZM14.9603 56.7246C14.6063 56.8539 14.5003 57.1559 14.5003 58.0355C14.5003 59.37 14.7451 59.5379 16.5633 59.4503C17.9961 59.3813 18.1125 59.2826 18.1188 58.1305C18.1245 57.086 18.0467 56.8628 17.6251 56.7158C17.1994 56.5674 15.3742 56.5734 14.9603 56.7246ZM18.3587 56.741C18.328 56.8208 18.3171 57.4563 18.3344 58.153L18.366 59.4198H18.8089H19.2519L19.3073 58.4924L19.3627 57.565L19.6102 58.0768C20.1345 59.1604 20.4025 59.4916 20.7249 59.4542C20.9808 59.4248 21.0912 59.28 21.4905 58.4508C21.7471 57.9179 21.9714 57.4816 21.9889 57.4815C22.0063 57.4815 22.0205 57.9175 22.0205 58.4506V59.4198H22.4635H22.9065V58.0355V56.6512H22.1867H21.4668L21.0758 57.4541L20.6849 58.2571L20.2739 57.4264L19.8628 56.5958H19.1386C18.6434 56.5958 18.3968 56.6418 18.3587 56.741ZM23.2327 56.7378C23.2013 56.8194 23.1899 57.4563 23.2072 58.153L23.2387 59.4198L24.5123 59.4519C26.1097 59.4922 26.2404 59.4627 26.2232 59.0637L26.21 58.7553L25.1951 58.7234C24.3928 58.6983 24.1801 58.6576 24.1801 58.5296C24.1801 58.3996 24.376 58.3677 25.1768 58.3677H26.1735V58.0355V57.7032H25.1768C24.376 57.7032 24.1801 57.6714 24.1801 57.5413C24.1801 57.4132 24.3933 57.3727 25.1991 57.3475L26.2182 57.3156L26.2181 56.9834V56.6512L24.7538 56.6203C23.6101 56.5961 23.2772 56.6218 23.2327 56.7378ZM27.0777 56.6752C26.7608 56.7356 26.5014 57.2983 26.5861 57.7417C26.6233 57.9365 26.7781 58.1373 26.9913 58.2673L27.3363 58.4777L26.921 58.478C26.5766 58.4783 26.5057 58.5171 26.5057 58.7049C26.5057 58.8295 26.6281 59.0538 26.7776 59.2033C27.0258 59.4516 27.1356 59.4752 28.0439 59.4752C29.0363 59.4752 29.5829 59.357 29.741 59.1083C29.8608 58.92 29.8473 58.2783 29.7184 58.0376C29.5947 57.8065 28.7667 57.5925 27.9953 57.5925C27.7242 57.5925 27.5024 57.5427 27.5024 57.4818C27.5024 57.4204 27.7956 57.371 28.1604 57.371C28.5223 57.371 28.8491 57.4208 28.8867 57.4818C28.9244 57.5427 29.1569 57.5925 29.4036 57.5925C29.8365 57.5925 29.8496 57.5819 29.78 57.288C29.6471 56.7266 29.3561 56.5941 28.293 56.6109C27.7669 56.6192 27.2199 56.6481 27.0777 56.6752ZM33.4202 56.7403C33.3894 56.8206 33.3784 57.4563 33.3957 58.153L33.4273 59.4198L35.4761 59.4392L37.5248 59.4586L37.9846 59.0115L38.4443 58.5645L38.8558 59.0198C39.2306 59.4349 39.3151 59.4752 39.8079 59.4752C40.1054 59.4752 40.3488 59.4455 40.3488 59.4092C40.3488 59.3728 40.0765 59.033 39.7437 58.6539L39.1386 57.9646L39.7437 57.367C40.3291 56.7889 40.3488 56.7793 40.3488 57.0702C40.3488 57.3607 40.3695 57.371 40.9537 57.371H41.5587L41.5905 58.3954L41.6224 59.4198H42.01H42.3976L42.4295 58.3954L42.4613 57.371H43.0733H43.6852L43.6505 57.0111L43.6158 56.6512L41.4564 56.6275L39.2971 56.6037L38.8417 57.0506L38.3862 57.4976L38.0055 57.0528L37.6247 56.608L35.5505 56.6012C33.9322 56.596 33.4639 56.6266 33.4202 56.7403ZM43.9407 56.741C43.91 56.8208 43.8992 57.4563 43.9165 58.153L43.948 59.4198H45.3877H46.8274L46.8621 59.0599L46.8968 58.7H45.8285C45.0233 58.7 44.7714 58.6658 44.8059 58.5615C44.836 58.4704 45.1893 58.4042 45.8394 58.3677C46.8157 58.313 46.8278 58.3088 46.8621 58.012L46.8966 57.7118L45.8743 57.6798C45.1786 57.6581 44.8372 57.6037 44.8061 57.5094C44.7714 57.4051 45.0218 57.371 45.8215 57.371H46.8828V56.9834V56.5958H45.4397C44.3514 56.5958 43.9828 56.6315 43.9407 56.741ZM47.3738 56.741C47.3431 56.8208 47.3323 57.4563 47.3496 58.153L47.3811 59.4198L47.7964 59.4541L48.2117 59.4886L48.2179 58.4574L48.224 57.4264L48.4356 57.7032C48.5519 57.8555 48.8867 58.304 49.1795 58.7L49.7119 59.4198H50.3738H51.0357V58.0355V56.6512L50.6246 56.6171L50.2136 56.583L50.1816 57.5947L50.1497 58.6066L49.4535 57.6011L48.7574 56.5958H48.0934C47.648 56.5958 47.4112 56.6435 47.3738 56.741ZM51.9953 56.6752C51.6784 56.7356 51.419 57.2983 51.5037 57.7417C51.5409 57.9365 51.6957 58.1373 51.9089 58.2673L52.2539 58.4777L51.8386 58.478C51.4942 58.4783 51.4233 58.5171 51.4233 58.7049C51.4233 58.8295 51.5457 59.0538 51.6952 59.2033C51.9434 59.4516 52.0532 59.4752 52.9615 59.4752C53.9539 59.4752 54.5005 59.357 54.6586 59.1083C54.7784 58.92 54.7649 58.2783 54.636 58.0376C54.5123 57.8065 53.6843 57.5925 52.9129 57.5925C52.6418 57.5925 52.42 57.5427 52.42 57.4818C52.42 57.4204 52.7132 57.371 53.078 57.371C53.4399 57.371 53.7667 57.4208 53.8043 57.4818C53.842 57.5427 54.0745 57.5925 54.3212 57.5925C54.7541 57.5925 54.7671 57.5819 54.6976 57.288C54.5647 56.7266 54.2737 56.5941 53.2106 56.6109C52.6845 56.6192 52.1375 56.6481 51.9953 56.6752ZM55.0152 56.741C54.9845 56.8208 54.9737 57.4563 54.991 58.153L55.0225 59.4198H55.4101H55.7977L55.8287 58.0078L55.8598 56.5958H55.4653C55.2421 56.5958 55.0468 56.6588 55.0152 56.741ZM56.6292 56.6889C56.233 56.8075 56.0781 57.2043 56.0763 58.1062C56.0749 58.7217 56.1216 58.9549 56.2865 59.1583C56.4887 59.4079 56.5611 59.4198 57.8884 59.4198C59.6661 59.4198 59.6738 59.4138 59.6738 58.0355C59.6738 56.6919 59.6399 56.6618 58.0934 56.6305C57.4399 56.6172 56.781 56.6434 56.6292 56.6889ZM60.1095 56.741C60.0788 56.8208 60.068 57.4563 60.0852 58.153L60.1168 59.4198L60.5279 59.4539L60.9388 59.488L60.9708 58.476L61.0027 57.464L61.7142 58.4744L62.4256 59.4847L63.0985 59.4522L63.7714 59.4198V58.0355V56.6512L63.3603 56.6171L62.9493 56.583L62.9173 57.5984L62.8854 58.6138L62.2275 57.6879C61.8656 57.1787 61.5167 56.7253 61.4523 56.6805C61.243 56.5353 60.1698 56.5836 60.1095 56.741ZM64.6057 56.732C64.0168 57.0414 64.0722 58.0916 64.6903 58.3365C64.9861 58.4535 64.9847 58.455 64.5743 58.4667C64.2116 58.477 64.159 58.5126 64.159 58.7475C64.159 59.3437 64.607 59.5144 66.0268 59.4587C66.8067 59.428 67.0646 59.3753 67.2483 59.2088C67.5008 58.9802 67.5625 58.3941 67.3717 58.0376C67.248 57.8065 66.4199 57.5925 65.6486 57.5925C65.3775 57.5925 65.1557 57.5427 65.1557 57.4818C65.1557 57.4202 65.451 57.371 65.8201 57.371C66.1893 57.371 66.4846 57.4202 66.4846 57.4818C66.4846 57.5427 66.684 57.5925 66.9276 57.5925C67.3165 57.5925 67.3706 57.5613 67.3706 57.3368C67.3706 56.7693 67.1443 56.6537 65.9677 56.6198C65.235 56.5988 64.7894 56.6354 64.6057 56.732ZM71.0495 58.0078L71.0805 59.4198H71.4681C71.8245 59.4198 71.8585 59.3908 71.8904 59.0599L71.9252 58.7H72.6863H73.4475L73.4823 59.0599C73.5142 59.3908 73.5481 59.4198 73.9045 59.4198C74.2788 59.4198 74.2932 59.4043 74.3254 58.9673C74.3475 58.6644 74.3028 58.4684 74.1899 58.3748C74.0416 58.2517 74.041 58.2154 74.1845 58.0719C74.3538 57.9027 74.4049 57.1851 74.2628 56.9723C74.0676 56.6801 73.6412 56.5958 72.3581 56.5958H71.0185L71.0495 58.0078ZM74.8148 58.0046L74.8459 59.4198H76.2855H77.7252L77.7599 59.0599L77.7947 58.7H76.7355C75.8679 58.7 75.6764 58.6699 75.6764 58.5338C75.6764 58.3985 75.8611 58.3677 76.6731 58.3677H77.6698V58.0355V57.7032H76.6731C75.8611 57.7032 75.6764 57.6725 75.6764 57.5371C75.6764 57.401 75.8679 57.371 76.7355 57.371H77.7947L77.7599 57.0111L77.7252 56.6512L76.2545 56.6203L74.7838 56.5894L74.8148 58.0046ZM78.2236 58.0369V59.4886L78.6389 59.4541L79.0542 59.4198L79.0864 58.4365L79.1186 57.4532L79.8109 58.4365L80.503 59.4198L81.1907 59.4528L81.8782 59.4857V58.034V56.5824L81.4629 56.6168L81.0476 56.6512L81.0155 57.6286L80.9833 58.6062L80.2928 57.6286L79.6025 56.6512L78.913 56.6182L78.2236 56.5853V58.0369ZM82.8757 56.6889C82.4795 56.8075 82.3247 57.2043 82.3228 58.1062C82.3215 58.7217 82.3681 58.9549 82.533 59.1583C82.7352 59.4079 82.8076 59.4198 84.1349 59.4198C85.9126 59.4198 85.9203 59.4138 85.9203 58.0355C85.9203 56.6919 85.8865 56.6618 84.3399 56.6305C83.6864 56.6172 83.0276 56.6434 82.8757 56.6889ZM86.091 56.6789C86.0934 56.7246 86.405 57.3599 86.7832 58.0909L87.4708 59.4198L88.0245 59.4486C88.329 59.4644 88.6344 59.4395 88.7029 59.3932C88.8415 59.2996 90.0733 56.8864 90.0733 56.7084C90.0733 56.6464 89.8769 56.5958 89.6368 56.5958C89.2006 56.5958 89.2002 56.5962 88.6678 57.5914C88.3749 58.139 88.1103 58.5867 88.0799 58.5863C88.0494 58.5859 87.875 58.2818 87.6923 57.9104C87.071 56.6478 87.025 56.5958 86.5311 56.5958C86.2866 56.5958 86.0885 56.6331 86.091 56.6789ZM90.6279 57.9231C90.2619 58.653 89.9625 59.3009 89.9625 59.3628C89.9625 59.4246 90.1608 59.4752 90.403 59.4752C90.7506 59.4752 90.8816 59.4168 91.0248 59.1983C91.1897 58.9467 91.2767 58.9214 91.9804 58.9214C92.6743 58.9214 92.7772 58.9501 92.9725 59.1983C93.1387 59.4096 93.2931 59.4752 93.6252 59.4752C93.8644 59.4752 94.0601 59.4246 94.0601 59.3628C94.0601 59.3009 93.7607 58.653 93.3947 57.9231L92.7295 56.5958H92.0113H91.2931L90.6279 57.9231ZM94.2476 56.6667C94.2054 56.709 94.1708 56.8846 94.1708 57.0573C94.1708 57.3635 94.1853 57.371 94.7757 57.371H95.3807L95.4125 58.3954L95.4444 59.4198H95.832H96.2196L96.2515 58.3954L96.2833 57.371H96.8953H97.5072L97.4725 57.0111L97.4378 56.6512L95.8811 56.6206C95.0249 56.6038 94.2898 56.6245 94.2476 56.6667ZM97.7147 58.0355V59.4886L98.13 59.4541L98.5453 59.4198V58.0355V56.6512L98.13 56.6168L97.7147 56.5824V58.0355ZM99.4045 56.6739C98.9694 56.7577 98.8221 57.118 98.8221 58.0984C98.8221 59.3054 98.9189 59.3944 100.296 59.4545C100.862 59.4792 101.521 59.443 101.78 59.3732C102.185 59.264 102.262 59.1934 102.361 58.8353C102.506 58.3132 102.507 57.7602 102.363 57.2426C102.277 56.9347 102.167 56.8082 101.904 56.7165C101.573 56.6012 99.9269 56.5731 99.4045 56.6739ZM102.809 58.0369V59.4886L103.224 59.4541L103.64 59.4198L103.672 58.4365L103.704 57.4532L104.396 58.4365L105.088 59.4198L105.776 59.4528L106.464 59.4857V58.034V56.5824L106.048 56.6168L105.633 56.6512L105.601 57.6286L105.569 58.6062L104.878 57.6286L104.188 56.6512L103.498 56.6182L102.809 56.5853V58.0369ZM107.46 56.6743C106.934 56.8677 106.713 57.6184 107.048 58.0758C107.22 58.3106 107.867 58.4723 108.651 58.4758C108.971 58.4772 109.232 58.5283 109.232 58.5892C109.232 58.6517 108.918 58.7 108.512 58.7C108.106 58.7 107.792 58.6517 107.792 58.5892C107.792 58.5283 107.59 58.4785 107.342 58.4785C106.902 58.4785 106.893 58.4861 106.927 58.8358C106.951 59.0858 107.045 59.2352 107.239 59.3325C107.532 59.4804 109.192 59.5102 109.675 59.3764C110.268 59.2123 110.373 58.2079 109.835 57.8554C109.68 57.7539 109.206 57.6577 108.682 57.6219C107.616 57.5488 107.496 57.371 108.512 57.371C108.918 57.371 109.232 57.4193 109.232 57.4818C109.232 57.5427 109.431 57.5925 109.675 57.5925C110.048 57.5925 110.118 57.5564 110.118 57.366C110.118 57.2414 109.996 57.0172 109.846 56.8677C109.597 56.6185 109.493 56.5966 108.6 56.6046C108.065 56.6093 107.552 56.6408 107.46 56.6743ZM37.5754 58.0156C37.5728 58.057 37.3242 58.3649 37.0229 58.7C36.4987 59.283 36.4752 59.296 36.474 59.0045L36.4728 58.7H35.4207C34.7931 58.7 34.3686 58.6552 34.3686 58.5892C34.3686 58.5235 34.7747 58.4785 35.3653 58.4785H36.362V58.0355V57.5925H35.3653C34.7747 57.5925 34.3686 57.5474 34.3686 57.4818C34.3686 57.4158 34.7931 57.371 35.4207 57.371H36.4728L36.477 57.0665C36.4811 56.7713 36.4983 56.7802 37.0307 57.3511C37.3329 57.6751 37.5781 57.9741 37.5754 58.0156ZM16.954 57.4408C17.1685 57.4983 17.2031 57.5815 17.2031 58.0387V58.5697L16.7602 58.6446C16.5165 58.6858 16.1178 58.6858 15.8742 58.6446L15.4312 58.5697V58.0338C15.4312 57.6166 15.4741 57.4867 15.625 57.4473C15.9217 57.3698 16.6752 57.3661 16.954 57.4408ZM58.4833 57.4408C58.6978 57.4983 58.7325 57.5815 58.7325 58.0387V58.5697L58.2919 58.6441C57.7948 58.7282 57.1675 58.6239 57.0453 58.4368C56.9041 58.2208 56.9537 57.726 57.1345 57.545C57.3117 57.3678 58.0098 57.3139 58.4833 57.4408ZM84.9158 57.545C85.0966 57.726 85.1462 58.2208 85.005 58.4368C84.8828 58.6239 84.2555 58.7282 83.7584 58.6441L83.3178 58.5697V58.0338C83.3178 57.4327 83.3559 57.4053 84.2236 57.3839C84.5612 57.3754 84.8024 57.4317 84.9158 57.545ZM92.1668 58.1264C91.6966 58.2047 91.6266 58.1226 91.8064 57.7032L91.9725 57.3156L92.1764 57.7032C92.3759 58.0824 92.3757 58.0916 92.1668 58.1264ZM101.231 57.4408C101.446 57.4984 101.48 57.5814 101.48 58.0416V58.5756L100.974 58.6516C100.695 58.6933 100.309 58.6823 100.116 58.6272C99.8065 58.539 99.759 58.4736 99.7277 58.0917C99.7017 57.7746 99.7448 57.618 99.8873 57.5139C100.091 57.3647 100.803 57.3261 101.231 57.4408ZM73.4615 57.6479C73.4615 57.7797 73.3016 57.814 72.6863 57.814C72.071 57.814 71.9111 57.7797 71.9111 57.6479C71.9111 57.5161 72.071 57.4818 72.6863 57.4818C73.3016 57.4818 73.4615 57.5161 73.4615 57.6479ZM0.259183 58.3677V58.8132L4.71666 58.7842L9.17414 58.7553V58.3677V57.9801L4.71666 57.9512L0.259183 57.9222V58.3677ZM111.632 57.9986C111.591 58.0391 111.558 58.2385 111.558 58.4416V58.8107H116.043H120.528V58.3677V57.9247H116.117C113.691 57.9247 111.672 57.958 111.632 57.9986ZM28.9421 58.5983C28.9421 58.7593 27.5354 58.7241 27.4726 58.5615C27.4323 58.457 27.6054 58.4321 28.1807 58.4599C28.5995 58.4801 28.9421 58.5424 28.9421 58.5983ZM53.8597 58.5983C53.8597 58.7593 52.453 58.7241 52.3902 58.5615C52.3499 58.457 52.523 58.4321 53.0983 58.4599C53.5171 58.4801 53.8597 58.5424 53.8597 58.5983ZM66.54 58.6042C66.6115 58.6734 66.3795 58.6994 65.8844 58.6779C65.4629 58.6595 65.1014 58.5947 65.0813 58.5338C65.034 58.3915 66.3875 58.4568 66.54 58.6042Z" fill="white"/>
</g>
</svg>
