<svg width="115" height="73" viewBox="0 0 115 73" fill="none" xmlns="http://www.w3.org/2000/svg">
<g id="Cupples">
<path id="CUPPLES CONSTRUCTION - Combination Mark (-slogan) - Final 1 (Traced)" fill-rule="evenodd" clip-rule="evenodd" d="M23.6178 0.809287C22.4338 1.5166 15.4651 5.56832 14.1226 6.32997C12.519 7.23995 2.33614 13.148 1.35265 13.7391L0.189544 14.4384L0.147506 39.3557L0.105469 64.2731L2.1414 65.8497C6.81161 69.4663 11.0666 72.65 11.2297 72.65C11.3505 72.65 11.417 64.7142 11.4462 46.7884L11.4883 20.9267L12.9006 20.0996C13.6774 19.6446 14.799 18.992 15.393 18.6491C15.987 18.3065 18.4427 16.8877 20.8501 15.4962C23.2574 14.1049 25.3161 12.9895 25.4248 13.0175C25.7408 13.0988 30.1811 15.715 30.1811 15.8199C30.1811 15.872 29.6763 16.1942 29.0595 16.5357C27.8367 17.2128 27.2102 17.5737 24.9471 18.9038C24.1246 19.3871 23.19 19.9291 22.8701 20.1081C21.9418 20.6276 16.7565 23.627 16.3895 23.857C16.059 24.064 16.0561 24.2037 16.0982 38.0666L16.1407 52.0672H28.1872H40.2336L40.2767 43.3983C40.3187 34.9072 40.3265 34.725 40.655 34.5194C40.8394 34.4037 42.4651 33.4599 44.2674 32.4218C46.0699 31.3838 47.9508 30.292 48.4471 29.9958L49.3499 29.4573L50.0256 29.8292C50.3975 30.0338 51.1128 30.4423 51.6154 30.7371C52.1181 31.0318 53.8004 32.0088 55.354 32.9081C56.9076 33.8072 58.2161 34.5735 58.2618 34.6109C58.3075 34.648 58.3822 38.5911 58.4279 43.373L58.511 52.0672L62.0419 52.1122L65.5727 52.1572V41.179V30.201L62.0834 28.163L58.5941 26.1251V25.1641C58.5941 24.456 58.5175 24.1367 58.3033 23.9508C58.0262 23.7107 56.7245 22.9255 55.1048 22.0217C54.6935 21.7922 53.4804 21.0882 52.4092 20.4576L50.4612 19.3106L50.4153 16.8699L50.3693 14.4291L49.3723 13.8183C48.824 13.4823 47.9267 12.9598 47.3784 12.6575C46.8301 12.355 46.3067 12.0513 46.2153 11.9828C46.1239 11.9142 44.5163 10.9787 42.6429 9.90404C40.7695 8.82924 39.1619 7.89109 39.0705 7.81926C38.9791 7.74743 38.3062 7.35428 37.5751 6.94579C36.844 6.53713 35.5729 5.80849 34.7504 5.32683C33.9279 4.84501 32.9559 4.28253 32.5904 4.0767C32.2248 3.87104 30.9756 3.14756 29.8145 2.46891C28.6532 1.79043 27.4943 1.12228 27.2391 0.984115C26.9837 0.845952 26.5043 0.564793 26.1737 0.359132C25.843 0.153471 25.4318 -0.00802456 25.2598 0.000308546C25.0878 0.00847499 24.3489 0.372632 23.6178 0.809287ZM40.0259 24.3577C40.8256 24.8148 41.479 25.2366 41.4778 25.2951C41.4768 25.3535 41.0468 25.6436 40.5224 25.9396C39.998 26.2358 39.3821 26.5896 39.1536 26.7261C38.742 26.9719 36.1214 28.4929 33.963 29.7387L32.8431 30.385L32.7999 37.4416L32.7565 44.4983H29.1841H25.6117L25.5685 37.0923L25.5253 29.6863L27.4793 28.5609C28.554 27.9419 29.882 27.1596 30.4303 26.8226C30.9786 26.4856 31.5394 26.1596 31.6765 26.0983C31.8136 26.0369 32.0379 25.9104 32.175 25.8174C32.312 25.7243 33.5396 25.0113 34.9029 24.233L37.3815 22.818L37.9769 23.1723C38.3042 23.3672 39.2264 23.9007 40.0259 24.3577ZM17.3038 55.6321C16.5348 55.9881 15.9883 56.5358 15.7365 57.2029C15.6389 57.4609 15.5592 58.8139 15.5592 60.2092C15.5592 62.51 15.5941 62.8153 15.933 63.4864C16.2213 64.0572 16.5107 64.3321 17.1981 64.6884L18.0894 65.1502H23.5537H29.018V63.9002V62.6503H24.5207C18.7936 62.6503 18.8963 62.6946 18.8876 60.2145C18.8832 58.9279 18.9347 58.6286 19.2246 58.2587L19.5671 57.8222L24.2509 57.7779L28.9349 57.7337L28.9837 56.5254L29.0326 55.3171L23.5005 55.3208C18.4776 55.3241 17.9073 55.3528 17.3038 55.6321ZM29.6862 59.0254C29.6904 63.3308 29.7991 63.7816 31.0281 64.5976L31.7353 65.0669H36.412H41.0887L41.7892 64.6019C43.106 63.7278 43.1401 63.5916 43.1407 59.192L43.1414 55.3171H41.4798H39.8182V58.5746C39.8182 61.811 39.8156 61.8348 39.4103 62.2411C39.0137 62.6391 38.9346 62.6503 36.5153 62.6503C34.082 62.6503 34.0172 62.6409 33.517 62.2188L33.0057 61.7873V58.5522V55.3171H31.3442H29.6826L29.6862 59.0254ZM43.9722 60.2337V65.1502H45.6338H47.2953V63.8169V62.4836L50.9924 62.4826C54.9401 62.4816 55.6346 62.3828 56.4349 61.7073C57.2429 61.0253 57.431 60.4955 57.431 58.9004C57.431 57.3794 57.2575 56.8348 56.5744 56.2116C55.6041 55.3263 55.532 55.3171 49.5468 55.3171H43.9722V60.2337ZM58.0956 60.2337V65.1502H59.7572H61.4188V63.8169V62.4836L65.1158 62.4826C69.0635 62.4816 69.7581 62.3828 70.5583 61.7073C71.3663 61.0253 71.5544 60.4955 71.5544 58.9004C71.5544 57.3794 71.3809 56.8348 70.6979 56.2116C69.7275 55.3263 69.6554 55.3171 63.6702 55.3171H58.0956V60.2337ZM72.219 60.2337V65.1502H78.9484H85.6778V63.9002V62.6503H80.61H75.5422V58.9837V55.3171H73.8806H72.219V60.2337ZM86.3425 60.2337V65.1502H93.0719H99.8013V63.9002V62.6503H94.7334H89.6656V61.9836V61.317H93.4118H97.1579L97.1088 60.192L97.0597 59.067L93.3626 59.0222L89.6656 58.9774V58.3997V57.8219L94.6919 57.7779L99.7182 57.7337L99.767 56.5254L99.8159 55.3171H93.0792H86.3425V60.2337ZM102.336 55.6678C101.028 56.317 100.483 57.3599 100.68 58.8339C100.795 59.6994 101.443 60.5302 102.342 60.9667C103.008 61.2902 103.343 61.317 106.729 61.317C110.673 61.317 110.856 61.3563 110.739 62.1828L110.685 62.567L105.658 62.6111L100.632 62.6551V63.9107V65.1665L106.335 65.1167L112.039 65.0669L112.739 64.6019C113.702 63.9621 114.09 63.2699 114.09 62.1853C114.091 60.963 113.627 60.1164 112.637 59.5325L111.848 59.067L107.943 58.9837L104.038 58.9004V58.4004V57.9004L109.023 57.8171L114.008 57.7337L114.057 56.5254L114.105 55.3171L108.573 55.3173C103.286 55.3175 103.01 55.333 102.336 55.6678ZM53.9084 58.0171C54.1987 58.3082 54.1524 59.3247 53.8328 59.6789C53.5849 59.9537 53.2491 59.9837 50.4266 59.9837H47.2953V58.9004V57.8171H50.5022C52.7749 57.8171 53.7672 57.8754 53.9084 58.0171ZM68.0319 58.0171C68.3221 58.3082 68.2758 59.3247 67.9562 59.6789C67.7083 59.9537 67.3725 59.9837 64.55 59.9837H61.4188V58.9004V57.8171H64.6256C66.8983 57.8171 67.8906 57.8754 68.0319 58.0171ZM16.7728 67.1428C15.8167 67.7275 15.6881 68.0971 15.7516 70.0749C15.8077 71.8245 15.8144 71.85 16.3379 72.3189C17.0217 72.9313 17.6336 73.012 21.1255 72.95L23.9501 72.9V72.15V71.4L21.1255 71.3577C18.483 71.3182 18.282 71.2927 18.01 70.9642C17.4482 70.2857 17.735 68.6078 18.4457 68.4165C18.6401 68.3641 19.977 68.3203 21.4162 68.3191L24.0332 68.3168V67.5668V66.8168L20.6685 66.8175C17.6265 66.818 17.2528 66.8492 16.7728 67.1428ZM25.5976 67.0537C25.3158 67.1768 24.917 67.4918 24.7116 67.7538C24.3674 68.1928 24.3426 68.3706 24.3934 70.0372C24.4481 71.8304 24.4528 71.8485 24.9782 72.3189C25.6483 72.919 26.3976 73.0343 29.1301 72.9577C32.3328 72.8677 32.6734 72.5722 32.6734 69.8839C32.6734 67.0965 32.2948 66.8135 28.5775 66.8233C26.8905 66.8278 25.948 66.9007 25.5976 67.0537ZM33.0794 67.0313C33.0343 67.1492 33.018 68.518 33.0431 70.0729L33.0888 72.9L34.0442 72.95L34.9996 73V70.6441V68.2881L36.9243 68.3441C39.3736 68.4155 39.3198 68.3553 39.3198 71.0236V73L40.2752 72.95L41.2306 72.9L41.2768 70.6092C41.3517 66.8968 41.2492 66.8168 36.4231 66.8168C33.9175 66.8168 33.1425 66.8665 33.0794 67.0313ZM43.0442 67.0537C42.7624 67.1768 42.3626 67.4927 42.1561 67.7555C41.5255 68.5578 41.8696 69.7846 42.8903 70.3739C43.0792 70.4829 44.2711 70.6029 45.6338 70.6501C47.6277 70.7191 48.043 70.7766 48.043 70.9834C48.043 71.1936 47.5539 71.2467 44.9691 71.3167L41.8952 71.4V72.15V72.9L45.0522 72.9468C47.6436 72.9853 48.3363 72.9453 48.9189 72.7233C50.0281 72.3009 50.4211 71.2174 49.8598 70.1287C49.4492 69.3323 48.7733 69.1501 46.2304 69.1501C43.9707 69.1501 43.5754 69.0464 43.9782 68.5595C44.1403 68.3636 44.7515 68.3168 47.1495 68.3168H50.12V67.5668V66.8168L46.8384 66.8233C44.4693 66.828 43.4142 66.8922 43.0442 67.0537ZM50.5632 66.928C50.5022 66.989 50.4523 67.3265 50.4523 67.678V68.3168H52.0262H53.6L53.6462 70.6084L53.6924 72.9L54.6478 72.95L55.6032 73V70.6584V68.3168H57.1817H58.7602V67.5668V66.8168H54.7171C52.4933 66.8168 50.624 66.8668 50.5632 66.928ZM59.1662 67.0313C59.1211 67.1492 59.1049 68.518 59.1299 70.0729L59.1756 72.9L60.131 72.95L61.0865 73V72.1584V71.3167L62.5403 71.3197L63.9942 71.3227L64.5356 72.153L65.0767 72.9833H66.1279C66.7059 72.9833 67.2258 72.9363 67.2831 72.8788C67.3405 72.8213 67.166 72.4515 66.8955 72.0572C66.3836 71.3109 66.2849 70.9834 66.5722 70.9834C66.9229 70.9834 67.3993 69.8996 67.3998 69.1001C67.4006 68.0741 67.0633 67.4317 66.3442 67.0893C65.5888 66.7298 59.3011 66.679 59.1662 67.0313ZM67.9637 67.0547C67.9137 67.1853 67.8973 68.3028 67.9273 69.5376C67.9878 72.023 68.0937 72.2945 69.1813 72.7563C69.9895 73.0995 74.1604 73.0683 75.0467 72.7127C76.0742 72.3004 76.2068 71.894 76.2068 69.1584V66.8168H75.2099H74.2129V68.7445C74.2129 69.8046 74.1355 70.8171 74.041 70.9944C73.8878 71.2814 73.6792 71.3167 72.1396 71.3167C69.9025 71.3167 69.8928 71.3055 69.8928 68.6963V66.8168H68.9738C68.3311 66.8168 68.0274 66.8883 67.9637 67.0547ZM77.5866 67.1428C76.6305 67.7275 76.5019 68.0971 76.5654 70.0749C76.6216 71.8245 76.6282 71.85 77.1518 72.3189C77.8355 72.9313 78.4475 73.012 81.9393 72.95L84.764 72.9V72.15V71.4L81.9393 71.3577C79.2969 71.3182 79.0958 71.2927 78.8238 70.9642C78.262 70.2857 78.5488 68.6078 79.2595 68.4165C79.4539 68.3641 80.7906 68.3203 82.2301 68.3191L84.847 68.3168V67.5668V66.8168L81.4823 66.8175C78.4403 66.818 78.0666 66.8492 77.5866 67.1428ZM85.2902 66.928C85.2292 66.989 85.1794 67.3265 85.1794 67.678V68.3168H86.7532H88.3271L88.3732 70.6084L88.4194 72.9L89.3748 72.95L90.3303 73V70.6584V68.3168H91.9088H93.4873V67.5668V66.8168H89.4441C87.2203 66.8168 85.351 66.8668 85.2902 66.928ZM94.0593 67.0313C94.0143 67.1492 93.998 68.518 94.0231 70.0729L94.0688 72.9L95.0242 72.95L95.9796 73V69.9084V66.8168H95.0606C94.4646 66.8168 94.1127 66.8922 94.0593 67.0313ZM97.544 67.0537C97.2622 67.1768 96.8634 67.4918 96.6581 67.7538C96.3138 68.1928 96.289 68.3706 96.3399 70.0372C96.3945 71.8304 96.3992 71.8485 96.9246 72.3189C97.5947 72.919 98.3441 73.0343 101.077 72.9577C104.279 72.8677 104.62 72.5722 104.62 69.8839C104.62 67.0965 104.241 66.8135 100.524 66.8233C98.8369 66.8278 97.8944 66.9007 97.544 67.0537ZM105.192 67.0313C105.147 67.1492 105.131 68.518 105.156 70.0729L105.201 72.9L106.157 72.95L107.112 73V70.6441V68.2881L109.037 68.3441C111.486 68.4155 111.432 68.3553 111.432 71.0236V73L112.388 72.95L113.343 72.9L113.389 70.6092C113.464 66.8968 113.362 66.8168 108.536 66.8168C106.03 66.8168 105.255 66.8665 105.192 67.0313ZM30.3472 68.6501C30.5921 68.8958 30.6795 69.2056 30.6795 69.8278C30.6795 71.2614 30.6026 71.3167 28.6062 71.3167C27.0074 71.3167 26.8572 71.2887 26.6181 70.9462C26.1345 70.2536 26.39 68.5923 27.0056 68.4271C27.1528 68.3878 27.8901 68.3468 28.6441 68.3361C29.809 68.3196 30.0648 68.3668 30.3472 68.6501ZM65.1455 68.5786C65.5019 68.9363 65.4737 69.4358 65.0852 69.6443C64.9084 69.7391 63.9364 69.8168 62.9252 69.8168H61.0865V69.0668V68.3168H62.9855C64.4902 68.3168 64.9385 68.3711 65.1455 68.5786ZM102.294 68.6501C102.539 68.8958 102.626 69.2056 102.626 69.8278C102.626 71.2614 102.549 71.3167 100.553 71.3167C98.9539 71.3167 98.8037 71.2887 98.5646 70.9462C98.0809 70.2536 98.3364 68.5923 98.952 68.4271C99.0992 68.3878 99.8365 68.3468 100.591 68.3361C101.755 68.3196 102.011 68.3668 102.294 68.6501Z" fill="white"/>
</g>
</svg>
