<svg width="136" height="69" viewBox="0 0 136 69" fill="none" xmlns="http://www.w3.org/2000/svg">
<g id="Group">
<g id="Group_2">
<path id="Vector" d="M94.7504 31.8885V62.283H111.952V68.6988H88.4434V31.8885H94.7504Z" fill="white"/>
<path id="Vector_2" d="M119.287 47.0853L128.174 31.8877H135.771V32.2029L122.44 53.5004V68.698H116.133V53.5004L103.28 32.2029V31.8877H110.782L119.287 47.0853Z" fill="white"/>
</g>
<path id="Vector_3" d="M94.7504 31.8885V62.2829H111.952V68.6988H88.4434V31.8885H94.7504Z" fill="white"/>
<path id="Vector_4" d="M63.104 16.7204V37.807C63.104 48.6924 57.0353 54.2662 48.626 54.2662C40.5992 54.2662 33.7661 48.9025 33.7661 37.807V16.7204H40.0257V37.807C40.0257 44.433 43.466 47.9562 48.6741 47.9562C53.8822 47.9562 56.8444 44.1171 56.8444 37.807V16.7204H63.104Z" fill="white"/>
<path id="Vector_5" d="M30.4371 48.7982C26.9968 52.5322 22.5531 54.267 17.7269 54.267C5.30456 54.267 0.0483792 44.8541 0.000293585 35.2832C-0.0470849 25.6601 5.63904 15.8791 17.7276 15.8791C22.2668 15.8791 26.5676 17.7718 30.0071 21.5058L25.8025 25.9753C23.6047 23.6087 20.6424 22.5043 17.7276 22.5043C9.65277 22.5043 6.16444 29.1303 6.21253 35.2824C6.26061 41.3823 9.46184 47.7452 17.7276 47.7452C20.6424 47.7452 23.9391 46.43 26.1369 44.0112L30.4371 48.7982Z" fill="white"/>
<g id="Group_3">
<path id="Vector_6" d="M80.2002 13.2852L62.7558 6.29812L64.7223 0.351532C73.8176 3.99451 96.4143 13.0463 105.555 16.7072L103.588 22.6538L86.1437 15.6659L68.5055 69L62.562 66.6193L80.2002 13.2852Z" fill="white"/>
</g>
</g>
</svg>
