<?xml version="1.0" encoding="utf-8"?>
<!-- Generator: Adobe Illustrator 27.0.0, SVG Export Plug-In . SVG Version: 6.00 Build 0)  -->
<svg version="1.1" xmlns="http://www.w3.org/2000/svg" xmlns:xlink="http://www.w3.org/1999/xlink" x="0px" y="0px"
	 viewBox="0 0 1920 882.09" style="enable-background:new 0 0 1920 882.09;" xml:space="preserve">
<style type="text/css">
	.st0{fill:#798E5D;}
	.st1{fill:#FFFFFF;}
</style>
<g id="Cutly">
	<g>
		<g>
			<path d="M1339.9,405.23l0,390.55l243.25,0l0,82.44l-332.44,0l0-472.99L1339.9,405.23z"/>
			<path d="M1686.89,600.5l125.68-195.28l107.43,0v4.05l-188.52,273.66l0,195.28l-89.19,0l0-195.28l-181.76-273.66v-4.05l106.08,0
				L1686.89,600.5z"/>
		</g>
		<path d="M1339.9,405.23l0,390.55l243.25,0l0,82.44l-332.44,0l0-472.99L1339.9,405.23z"/>
		<path d="M892.38,210.33l0,270.95c0,139.87-85.82,211.49-204.74,211.49c-113.51,0-210.14-68.92-210.14-211.49l0-270.95l88.52,0
			l0,270.95c0,85.14,48.65,130.41,122.3,130.41s115.54-49.33,115.54-130.41l0-270.95L892.38,210.33z"/>
		<path d="M430.42,622.51c-48.65,47.98-111.49,70.27-179.74,70.27C75.01,692.78,0.68,571.83,0,448.85
			C-0.67,325.2,79.74,199.52,250.69,199.52c64.19,0,125.01,24.32,173.65,72.3l-59.46,57.43c-31.08-30.41-72.97-44.6-114.19-44.6
			c-114.19,0-163.52,85.14-162.84,164.19c0.68,78.38,45.95,160.14,162.84,160.14c41.22,0,87.84-16.9,118.92-47.98L430.42,622.51z"/>
		<g>
			<path d="M1134.14,166.19L887.45,76.41L915.26,0c128.62,46.81,448.17,163.12,577.43,210.16l-27.81,76.41l-246.69-89.79
				L968.76,882.09l-84.05-30.59L1134.14,166.19z"/>
		</g>
	</g>
</g>
<g id="Label">
</g>
</svg>
