<svg width="150" height="44" viewBox="0 0 150 44" fill="none" xmlns="http://www.w3.org/2000/svg">
<g id="EatKinda Logo - White 1" clip-path="url(#clip0_1636_7876)">
<g id="Group">
<path id="Vector" d="M11.1627 36.2761C12.8324 36.2761 13.5622 36.4844 14.362 37.1463C15.1619 37.8412 15.6134 38.8165 15.6134 39.8599C15.6134 40.9033 15.1269 41.9817 14.362 42.6416C13.5972 43.2685 12.9356 43.4417 11.1977 43.4417H5.25052C3.47764 43.4417 2.98917 43.3716 2.32945 43.1283C1.14624 42.6416 0.381431 41.7014 0.138171 40.3446C0.0330833 39.8579 0 39.6496 0 38.0495V25.4566C0 23.508 0.0350294 23.2647 0.348348 22.5347C0.661666 21.6646 1.39145 20.9696 2.19128 20.6212C3.06118 20.2727 3.23438 20.2377 5.49572 20.2377H10.0865C12.2778 20.2377 12.486 20.2727 13.0076 20.4109C14.6073 20.8275 15.6503 22.1493 15.6503 23.7494C15.6503 24.8629 15.1989 25.9063 14.399 26.5662C13.7043 27.158 12.9044 27.4013 11.478 27.4013H7.65197V29.0015H10.6781C12.5561 29.0015 13.7724 30.115 13.7724 31.7501C13.7724 32.6203 13.389 33.4204 12.7643 33.9421C12.1727 34.3937 11.6161 34.5338 10.3998 34.5338H7.65197V36.2722H11.1646L11.1627 36.2761Z" fill="white"/>
<path id="Vector_2" d="M19.2255 43.615C17.1043 43.615 15.4346 41.9448 15.4346 39.7879C15.4346 39.126 15.6078 38.4311 15.9211 37.7712L23.1897 22.3615C23.8514 20.9346 25.1727 20.0664 26.7024 20.0664C28.232 20.0664 29.5884 20.9366 30.2851 22.3965L37.5887 37.9814C37.902 38.5732 38.0402 39.2331 38.0402 39.8249C38.0402 41.9117 36.3023 43.6169 34.1811 43.6169C32.4083 43.6169 31.3652 42.7818 30.287 40.4167H23.1936C22.2205 42.6787 21.0724 43.6169 19.2294 43.6169L19.2255 43.615ZM27.8856 34.8843L26.7024 32.1006L25.5191 34.8843H27.8836H27.8856Z" fill="white"/>
<path id="Vector_3" d="M38.3187 27.3702C36.9973 27.3702 36.1274 27.0568 35.4326 26.3618C34.7379 25.6318 34.3545 24.7617 34.3545 23.8234C34.3545 22.5016 35.2244 21.1098 36.3375 20.6231C37.1374 20.2747 37.4507 20.2396 40.4749 20.2396H48.195C49.6325 20.2396 50.5017 20.263 50.8027 20.3097C52.6457 20.553 53.932 21.9799 53.932 23.7884C53.932 24.7967 53.4455 25.8401 52.6807 26.537C52.0891 27.0938 51.1161 27.3721 49.7246 27.3721H48.0198V38.9216C48.0198 40.3135 47.8466 41.0785 47.3582 41.8786C46.6634 42.992 45.5152 43.6169 44.1939 43.6169C42.8725 43.6169 41.7593 43.0251 41.0295 42.0168C40.508 41.2167 40.3679 40.5548 40.3679 38.9897V27.3721H38.3167L38.3187 27.3702Z" fill="white"/>
</g>
<g id="Group_2">
<path id="Vector_4" d="M66.6412 21.8398C67.406 20.6913 68.5192 20.0664 69.8056 20.0664C71.8918 20.0664 73.6646 21.8398 73.6646 23.8935C73.6646 24.6235 73.4564 25.3535 73.073 25.9102L69.1789 31.5808L73.9079 37.6329C74.3944 38.2247 74.6377 38.9197 74.6377 39.7197C74.6377 41.8416 72.8998 43.615 70.8117 43.615C69.7336 43.615 68.6905 43.1634 68.1339 42.4665L62.3968 35.1957V39.1961C62.3968 41.8747 60.8672 43.613 58.5709 43.613C56.2745 43.613 54.6768 41.9078 54.6768 39.2292V24.3432C54.6768 21.8048 56.2064 20.0645 58.5027 20.0645C59.6159 20.0645 60.694 20.5511 61.3888 21.3512C62.1186 22.1162 62.3968 22.9864 62.3968 24.3782V28.1002L66.6393 21.8378L66.6412 21.8398Z" fill="white"/>
<path id="Vector_5" d="M82.7682 39.1981C82.7682 40.658 82.4899 41.5632 81.7952 42.3283C81.0654 43.1283 79.9522 43.615 78.9442 43.615C77.9361 43.615 76.7529 43.1283 76.0932 42.3983C75.3634 41.5983 75.1201 40.7982 75.1201 39.1981V24.8318C75.1201 22.8832 75.2933 22.1883 76.0932 21.3181C76.7879 20.518 77.7979 20.0664 78.9111 20.0664C80.0242 20.0664 81.0673 20.518 81.7621 21.2831C82.5269 22.1532 82.7701 22.9533 82.7701 24.8318V39.1981H82.7682Z" fill="white"/>
<path id="Vector_6" d="M97.5117 24.7617C97.5117 23.2316 97.6499 22.5347 98.2065 21.7347C98.8682 20.7263 100.084 20.0645 101.336 20.0645C102.484 20.0645 103.527 20.5862 104.257 21.4563C104.917 22.2914 105.162 23.0915 105.162 24.5184V38.7114C105.162 40.5549 104.989 41.3199 104.327 42.19C103.632 43.0952 102.519 43.6169 101.336 43.6169C100.153 43.6169 99.1095 43.0952 98.3096 42.0518L92.2593 34.2944V39.165C92.2593 40.695 92.051 41.3919 91.3894 42.227C90.6596 43.0972 89.5815 43.6189 88.4333 43.6189C87.2851 43.6189 86.1038 43.0621 85.3721 42.1239C84.7455 41.2537 84.5723 40.5588 84.5723 38.8535V24.1699C84.5723 21.6996 86.1719 20.0645 88.5715 20.0645C89.6846 20.0645 90.5545 20.5161 91.4225 21.5945L97.5078 29.0735V24.7598L97.5117 24.7617Z" fill="white"/>
<path id="Vector_7" d="M116.048 20.2396C119.526 20.2396 122.204 21.1779 124.463 23.1966C126.898 25.3535 128.289 28.5187 128.289 31.8241C128.289 35.1295 126.933 38.1546 124.568 40.3465C123.074 41.7384 121.125 42.7468 119.107 43.1633C118.169 43.3366 116.778 43.4417 115.178 43.4417H111.944C110.136 43.4417 109.406 43.3035 108.71 42.8149C107.84 42.2582 107.353 41.6313 107.11 40.7281C106.972 40.2064 106.972 39.8229 106.972 38.2228V25.4566C106.972 23.508 106.972 23.2998 107.145 22.7781C107.701 21.1078 109.128 20.2396 111.352 20.2396H116.046H116.048ZM114.622 36.3111C117.264 36.2761 117.891 36.1729 118.794 35.5461C119.942 34.711 120.672 33.2841 120.672 31.8592C120.672 30.1539 119.699 28.5888 118.202 27.8588C117.473 27.5104 116.673 27.3721 115.246 27.3721H114.62V36.3111H114.622Z" fill="white"/>
<path id="Vector_8" d="M131.049 43.615C128.928 43.615 127.258 41.9448 127.258 39.7879C127.258 39.126 127.431 38.4311 127.744 37.7712L135.013 22.3615C135.675 20.9346 136.996 20.0664 138.526 20.0664C140.055 20.0664 141.412 20.9366 142.108 22.3965L149.412 37.9814C149.725 38.5732 149.863 39.2331 149.863 39.8249C149.863 41.9117 148.126 43.6169 146.004 43.6169C144.231 43.6169 143.188 42.7818 142.11 40.4167H135.017C134.044 42.6787 132.896 43.6169 131.053 43.6169L131.049 43.615ZM139.709 34.8843L138.526 32.1006L137.342 34.8843H139.707H139.709Z" fill="white"/>
</g>
<path id="Vector_9" d="M79.8374 8.12374C81.295 5.55222 84.0935 1.56549 87.8066 4.4582C90.0349 6.19461 89.778 8.83037 87.935 12.0443C85.9092 15.5794 81.6745 18.3612 77.4593 17.5728C70.9244 16.3522 67.8554 7.40738 70.0039 3.29995C70.0817 3.15006 71.0762 1.4409 72.8958 0.921146C76.0445 0.021795 78.1657 2.01322 79.131 4.71516C79.6486 6.16541 79.8647 7.40738 79.8374 8.1218V8.12374Z" fill="white"/>
</g>
<defs>
<clipPath id="clip0_1636_7876">
<rect width="149.862" height="42.9119" fill="white" transform="translate(0 0.703125)"/>
</clipPath>
</defs>
</svg>
