<svg xmlns="http://www.w3.org/2000/svg" xmlns:xlink="http://www.w3.org/1999/xlink" width="1080" zoomAndPan="magnify" viewBox="0 0 810 809.999993" height="1080" preserveAspectRatio="xMidYMid meet" version="1.0"><defs><g/></defs><g fill="#000000" fill-opacity="1"><g transform="translate(255.674905, 475.129726)"><g><path d="M -21.078125 -66.796875 C -26.796875 -79.722656 -29.25 -92.476562 -28.4375 -105.0625 C -27.632812 -117.644531 -23.757812 -129.070312 -16.8125 -139.34375 C -9.863281 -149.625 0.0703125 -157.625 13 -163.34375 C 24.875 -168.59375 36.359375 -170.484375 47.453125 -169.015625 C 58.546875 -167.554688 68.582031 -163.171875 77.5625 -155.859375 C 86.539062 -148.546875 93.773438 -138.6875 99.265625 -126.28125 L 105.515625 -112.140625 L 16.40625 -72.75 C 22.1875 -64.851562 28.976562 -59.753906 36.78125 -57.453125 C 44.582031 -55.160156 52.679688 -55.867188 61.078125 -59.578125 C 67.890625 -62.585938 72.800781 -67.054688 75.8125 -72.984375 C 78.820312 -78.921875 79.601562 -85.429688 78.15625 -92.515625 L 113.6875 -100.71875 C 116.300781 -91.007812 116.3125 -81.40625 113.71875 -71.90625 C 111.132812 -62.414062 106.457031 -53.875 99.6875 -46.28125 C 92.914062 -38.6875 84.460938 -32.644531 74.328125 -28.15625 C 61.222656 -22.363281 48.421875 -20.253906 35.921875 -21.828125 C 23.429688 -23.410156 12.21875 -28.113281 2.28125 -35.9375 C -7.65625 -43.769531 -15.441406 -54.054688 -21.078125 -66.796875 Z M 6.0625 -98.234375 L 62.671875 -123.265625 C 59.941406 -128.953125 55.207031 -132.914062 48.46875 -135.15625 C 41.738281 -137.40625 34.351562 -136.753906 26.3125 -133.203125 C 19.144531 -130.035156 13.789062 -125.367188 10.25 -119.203125 C 6.71875 -113.046875 5.320312 -106.054688 6.0625 -98.234375 Z M 6.0625 -98.234375 "/></g></g></g><g fill="#000000" fill-opacity="1"><g transform="translate(395.08794, 413.487577)"><g><path d="M -22.234375 -69.4375 C -27.492188 -81.3125 -29.734375 -93.210938 -28.953125 -105.140625 C -28.171875 -117.078125 -24.660156 -127.921875 -18.421875 -137.671875 C -12.191406 -147.429688 -3.398438 -154.820312 7.953125 -159.84375 C 15.460938 -163.164062 22.660156 -164.835938 29.546875 -164.859375 C 36.441406 -164.878906 42.945312 -163.632812 49.0625 -161.125 L 43.953125 -172.65625 L 80.65625 -188.875 L 135.359375 -65.171875 C 141.304688 -51.722656 143.722656 -38.691406 142.609375 -26.078125 C 141.492188 -13.472656 137.191406 -2.175781 129.703125 7.8125 C 122.222656 17.800781 111.847656 25.726562 98.578125 31.59375 C 86.347656 37.007812 74.550781 39.507812 63.1875 39.09375 C 51.832031 38.6875 41.734375 35.578125 32.890625 29.765625 C 24.054688 23.960938 17.425781 15.566406 13 4.578125 L 45.78125 -16.171875 C 49.101562 -8.660156 54.164062 -3.117188 60.96875 0.453125 C 67.769531 4.023438 75.710938 3.800781 84.796875 -0.21875 C 93.535156 -4.082031 99.34375 -10.203125 102.21875 -18.578125 C 105.09375 -26.953125 104.175781 -36.460938 99.46875 -47.109375 L 93.328125 -61 C 90.992188 -54.957031 87.507812 -49.5 82.875 -44.625 C 78.238281 -39.757812 72.253906 -35.703125 64.921875 -32.453125 C 53.484375 -27.609375 42.03125 -25.988281 30.5625 -27.59375 C 19.09375 -29.207031 8.722656 -33.65625 -0.546875 -40.9375 C -9.828125 -48.226562 -17.054688 -57.726562 -22.234375 -69.4375 Z M 14.453125 -85.671875 C 18.160156 -77.273438 23.847656 -71.484375 31.515625 -68.296875 C 39.191406 -65.109375 47.316406 -65.410156 55.890625 -69.203125 C 64.265625 -72.910156 69.875 -78.628906 72.71875 -86.359375 C 75.5625 -94.085938 75.09375 -102.238281 71.3125 -110.8125 C 67.519531 -119.363281 61.769531 -125.273438 54.0625 -128.546875 C 46.351562 -131.828125 38.3125 -131.613281 29.9375 -127.90625 C 21.363281 -124.113281 15.691406 -118.265625 12.921875 -110.359375 C 10.148438 -102.453125 10.660156 -94.222656 14.453125 -85.671875 Z M 14.453125 -85.671875 "/></g></g></g><g fill="#000000" fill-opacity="1"><g transform="translate(544.983194, 347.210664)"><g><path d="M -2.078125 -23.828125 C -4.785156 -29.941406 -4.898438 -36.101562 -2.421875 -42.3125 C 0.046875 -48.53125 4.515625 -53.070312 10.984375 -55.9375 C 16.921875 -58.5625 22.972656 -58.675781 29.140625 -56.28125 C 35.316406 -53.894531 39.757812 -49.644531 42.46875 -43.53125 C 45.332031 -37.0625 45.585938 -30.695312 43.234375 -24.4375 C 40.878906 -18.1875 36.734375 -13.75 30.796875 -11.125 C 24.328125 -8.257812 17.945312 -8.039062 11.65625 -10.46875 C 5.363281 -12.90625 0.785156 -17.359375 -2.078125 -23.828125 Z M -2.078125 -23.828125 "/></g></g></g><g fill="#000000" fill-opacity="1"><g transform="translate(220.809165, 514.158941)"><g><path d="M 2.421875 0.90625 L 14.4375 -31.109375 L 37.3125 -22.515625 L 35.015625 -16.390625 L 18.546875 -22.578125 L 15.765625 -15.15625 L 30.359375 -9.671875 L 28.0625 -3.546875 L 13.46875 -9.03125 L 8.828125 3.3125 Z M 2.421875 0.90625 "/></g></g></g><g fill="#000000" fill-opacity="1"><g transform="translate(248.308775, 524.366044)"><g><path d="M 2.234375 0.6875 L 9.21875 -22.15625 L 15.765625 -20.15625 L 15.171875 -18.25 C 16.078125 -18.851562 17.082031 -19.238281 18.1875 -19.40625 C 19.300781 -19.582031 20.484375 -19.484375 21.734375 -19.109375 C 23.765625 -18.484375 25.164062 -17.269531 25.9375 -15.46875 C 26.707031 -13.664062 26.554688 -11.054688 25.484375 -7.640625 L 18.703125 -8.53125 C 18.785156 -8.675781 18.847656 -8.832031 18.890625 -9 C 18.941406 -9.175781 18.988281 -9.328125 19.03125 -9.453125 C 19.769531 -11.859375 19.253906 -13.332031 17.484375 -13.875 C 16.546875 -14.164062 15.625 -13.984375 14.71875 -13.328125 C 13.820312 -12.679688 13.082031 -11.40625 12.5 -9.5 L 8.78125 2.6875 Z M 2.234375 0.6875 "/></g></g></g><g fill="#000000" fill-opacity="1"><g transform="translate(270.900323, 531.295621)"><g><path d="M 4.078125 -11.234375 C 4.640625 -13.566406 5.625 -15.539062 7.03125 -17.15625 C 8.445312 -18.78125 10.15625 -19.929688 12.15625 -20.609375 C 14.164062 -21.285156 16.34375 -21.335938 18.6875 -20.765625 C 20.832031 -20.242188 22.582031 -19.304688 23.9375 -17.953125 C 25.289062 -16.609375 26.195312 -14.972656 26.65625 -13.046875 C 27.113281 -11.128906 27.070312 -9.046875 26.53125 -6.796875 L 25.921875 -4.25 L 9.765625 -8.15625 C 9.722656 -6.476562 10.109375 -5.078125 10.921875 -3.953125 C 11.742188 -2.835938 12.914062 -2.097656 14.4375 -1.734375 C 15.664062 -1.441406 16.789062 -1.539062 17.8125 -2.03125 C 18.84375 -2.519531 19.628906 -3.316406 20.171875 -4.421875 L 25.828125 -1.84375 C 25.179688 -0.257812 24.1875 1.035156 22.84375 2.046875 C 21.507812 3.066406 19.992188 3.738281 18.296875 4.0625 C 16.597656 4.394531 14.828125 4.335938 12.984375 3.890625 C 10.609375 3.316406 8.65625 2.273438 7.125 0.765625 C 5.59375 -0.742188 4.5625 -2.539062 4.03125 -4.625 C 3.5 -6.71875 3.515625 -8.921875 4.078125 -11.234375 Z M 11 -12.671875 L 21.25 -10.1875 C 21.46875 -11.238281 21.238281 -12.265625 20.5625 -13.265625 C 19.882812 -14.273438 18.820312 -14.953125 17.375 -15.296875 C 16.070312 -15.609375 14.863281 -15.53125 13.75 -15.0625 C 12.632812 -14.601562 11.71875 -13.804688 11 -12.671875 Z M 11 -12.671875 "/></g></g></g><g fill="#000000" fill-opacity="1"><g transform="translate(296.910346, 537.556672)"><g><path d="M 3.34375 -11.46875 C 3.757812 -13.832031 4.625 -15.867188 5.9375 -17.578125 C 7.25 -19.285156 8.882812 -20.535156 10.84375 -21.328125 C 12.800781 -22.128906 14.96875 -22.320312 17.34375 -21.90625 C 19.519531 -21.519531 21.320312 -20.695312 22.75 -19.4375 C 24.1875 -18.175781 25.195312 -16.597656 25.78125 -14.703125 C 26.363281 -12.816406 26.453125 -10.738281 26.046875 -8.46875 L 25.59375 -5.875 L 9.234375 -8.75 C 9.296875 -7.070312 9.769531 -5.703125 10.65625 -4.640625 C 11.539062 -3.578125 12.753906 -2.910156 14.296875 -2.640625 C 15.546875 -2.421875 16.664062 -2.585938 17.65625 -3.140625 C 18.644531 -3.703125 19.375 -4.546875 19.84375 -5.671875 L 25.65625 -3.46875 C 25.113281 -1.851562 24.207031 -0.5 22.9375 0.59375 C 21.675781 1.695312 20.203125 2.460938 18.515625 2.890625 C 16.835938 3.328125 15.066406 3.382812 13.203125 3.0625 C 10.796875 2.632812 8.78125 1.71875 7.15625 0.3125 C 5.539062 -1.09375 4.398438 -2.820312 3.734375 -4.875 C 3.066406 -6.925781 2.9375 -9.125 3.34375 -11.46875 Z M 10.1875 -13.359375 L 20.5625 -11.53125 C 20.71875 -12.582031 20.425781 -13.585938 19.6875 -14.546875 C 18.945312 -15.503906 17.84375 -16.113281 16.375 -16.375 C 15.050781 -16.601562 13.847656 -16.445312 12.765625 -15.90625 C 11.679688 -15.375 10.820312 -14.523438 10.1875 -13.359375 Z M 10.1875 -13.359375 "/></g></g></g><g fill="#000000" fill-opacity="1"><g transform="translate(323.073513, 541.971702)"><g/></g></g><g fill="#000000" fill-opacity="1"><g transform="translate(334.951067, 543.743059)"><g><path d="M 2.59375 0.203125 L 5.234375 -33.890625 L 20.71875 -32.703125 C 22.957031 -32.523438 24.859375 -31.921875 26.421875 -30.890625 C 27.992188 -29.859375 29.171875 -28.5 29.953125 -26.8125 C 30.734375 -25.132812 31.046875 -23.242188 30.890625 -21.140625 C 30.710938 -18.859375 30.019531 -16.898438 28.8125 -15.265625 C 27.601562 -13.628906 26.015625 -12.457031 24.046875 -11.75 L 29.46875 2.328125 L 22.078125 1.75 L 17.140625 -11.375 L 10.375 -11.90625 L 9.40625 0.71875 Z M 10.890625 -18.421875 L 19.078125 -17.78125 C 20.492188 -17.675781 21.648438 -17.957031 22.546875 -18.625 C 23.453125 -19.289062 23.960938 -20.304688 24.078125 -21.671875 C 24.171875 -22.992188 23.820312 -24.054688 23.03125 -24.859375 C 22.238281 -25.660156 21.132812 -26.113281 19.71875 -26.21875 L 11.53125 -26.859375 Z M 10.890625 -18.421875 "/></g></g></g><g fill="#000000" fill-opacity="1"><g transform="translate(366.548786, 546.044202)"><g><path d="M 1.71875 -6.390625 C 1.738281 -8.734375 2.546875 -10.53125 4.140625 -11.78125 C 5.742188 -13.039062 8.023438 -13.914062 10.984375 -14.40625 L 15.59375 -15.1875 L 15.59375 -16.015625 C 15.601562 -16.828125 15.300781 -17.519531 14.6875 -18.09375 C 14.070312 -18.675781 13.164062 -18.972656 11.96875 -18.984375 C 10.664062 -19.003906 9.675781 -18.632812 9 -17.875 C 8.320312 -17.113281 7.992188 -16.097656 8.015625 -14.828125 L 1.921875 -15.515625 C 1.835938 -17.503906 2.25 -19.171875 3.15625 -20.515625 C 4.070312 -21.859375 5.304688 -22.863281 6.859375 -23.53125 C 8.410156 -24.195312 10.082031 -24.519531 11.875 -24.5 C 15.226562 -24.46875 17.757812 -23.644531 19.46875 -22.03125 C 21.1875 -20.425781 22.03125 -18.335938 22 -15.765625 L 21.84375 0.21875 L 15.484375 0.15625 L 15.515625 -2.1875 C 15.085938 -1.46875 14.394531 -0.78125 13.4375 -0.125 C 12.488281 0.53125 11.25 0.847656 9.71875 0.828125 C 7.925781 0.816406 6.4375 0.445312 5.25 -0.28125 C 4.070312 -1.019531 3.1875 -1.9375 2.59375 -3.03125 C 2 -4.125 1.707031 -5.242188 1.71875 -6.390625 Z M 8.1875 -7.15625 C 8.175781 -6.46875 8.4375 -5.910156 8.96875 -5.484375 C 9.5 -5.054688 10.207031 -4.835938 11.09375 -4.828125 C 12.394531 -4.816406 13.457031 -5.226562 14.28125 -6.0625 C 15.101562 -6.894531 15.519531 -8.046875 15.53125 -9.515625 L 15.546875 -10.59375 L 11.828125 -9.9375 C 10.847656 -9.75 10 -9.460938 9.28125 -9.078125 C 8.5625 -8.703125 8.195312 -8.0625 8.1875 -7.15625 Z M 8.1875 -7.15625 "/></g></g></g><g fill="#000000" fill-opacity="1"><g transform="translate(391.474054, 546.309246)"><g><path d="M 2.34375 -0.125 L 1.109375 -23.984375 L 7.9375 -24.328125 L 8.046875 -22.328125 C 8.785156 -23.210938 9.703125 -23.925781 10.796875 -24.46875 C 11.898438 -25.019531 13.148438 -25.332031 14.546875 -25.40625 C 17.140625 -25.539062 19.210938 -24.789062 20.765625 -23.15625 C 22.328125 -21.519531 23.179688 -19.253906 23.328125 -16.359375 L 24.109375 -1.234375 L 17.28125 -0.890625 L 16.5625 -14.796875 C 16.40625 -17.847656 15.070312 -19.3125 12.5625 -19.1875 C 11.257812 -19.113281 10.234375 -18.578125 9.484375 -17.578125 C 8.734375 -16.585938 8.40625 -15.226562 8.5 -13.5 L 9.171875 -0.46875 Z M 2.34375 -0.125 "/></g></g></g><g fill="#000000" fill-opacity="1"><g transform="translate(418.716724, 544.903656)"><g><path d="M -0.15625 -12.4375 C -0.414062 -14.632812 -0.179688 -16.6875 0.546875 -18.59375 C 1.273438 -20.5 2.394531 -22.085938 3.90625 -23.359375 C 5.414062 -24.628906 7.222656 -25.390625 9.328125 -25.640625 C 10.710938 -25.804688 11.960938 -25.71875 13.078125 -25.375 C 14.203125 -25.039062 15.207031 -24.515625 16.09375 -23.796875 L 15.84375 -25.921875 L 22.640625 -26.71875 L 25.34375 -3.828125 C 25.632812 -1.328125 25.367188 0.914062 24.546875 2.90625 C 23.734375 4.894531 22.46875 6.515625 20.75 7.765625 C 19.03125 9.023438 16.9375 9.800781 14.46875 10.09375 C 12.207031 10.363281 10.160156 10.179688 8.328125 9.546875 C 6.503906 8.910156 5.015625 7.894531 3.859375 6.5 C 2.710938 5.113281 2.050781 3.410156 1.875 1.390625 L 8.265625 -0.328125 C 8.429688 1.054688 8.976562 2.207031 9.90625 3.125 C 10.84375 4.050781 12.148438 4.414062 13.828125 4.21875 C 15.453125 4.019531 16.707031 3.3125 17.59375 2.09375 C 18.488281 0.875 18.816406 -0.71875 18.578125 -2.6875 L 18.28125 -5.265625 C 17.59375 -4.390625 16.75 -3.671875 15.75 -3.109375 C 14.75 -2.554688 13.570312 -2.203125 12.21875 -2.046875 C 10.101562 -1.828125 8.148438 -2.132812 6.359375 -2.96875 C 4.578125 -3.800781 3.109375 -5.046875 1.953125 -6.703125 C 0.804688 -8.359375 0.101562 -10.269531 -0.15625 -12.4375 Z M 6.640625 -13.234375 C 6.828125 -11.679688 7.46875 -10.453125 8.5625 -9.546875 C 9.65625 -8.640625 10.992188 -8.28125 12.578125 -8.46875 C 14.128906 -8.65625 15.332031 -9.304688 16.1875 -10.421875 C 17.039062 -11.546875 17.375 -12.898438 17.1875 -14.484375 C 17 -16.054688 16.359375 -17.300781 15.265625 -18.21875 C 14.171875 -19.144531 12.847656 -19.515625 11.296875 -19.328125 C 9.710938 -19.140625 8.492188 -18.46875 7.640625 -17.3125 C 6.785156 -16.164062 6.453125 -14.804688 6.640625 -13.234375 Z M 6.640625 -13.234375 "/></g></g></g><g fill="#000000" fill-opacity="1"><g transform="translate(447.246787, 541.473322)"><g><path d="M -0.859375 -11.90625 C -1.304688 -14.269531 -1.210938 -16.476562 -0.578125 -18.53125 C 0.046875 -20.59375 1.132812 -22.34375 2.6875 -23.78125 C 4.25 -25.21875 6.21875 -26.15625 8.59375 -26.59375 C 10.757812 -27 12.734375 -26.859375 14.515625 -26.171875 C 16.304688 -25.492188 17.800781 -24.367188 19 -22.796875 C 20.207031 -21.234375 21.019531 -19.3125 21.4375 -17.03125 L 21.921875 -14.453125 L 5.59375 -11.421875 C 6.226562 -9.890625 7.148438 -8.78125 8.359375 -8.09375 C 9.566406 -7.40625 10.9375 -7.203125 12.46875 -7.484375 C 13.71875 -7.710938 14.710938 -8.257812 15.453125 -9.125 C 16.191406 -9.988281 16.578125 -11.03125 16.609375 -12.25 L 22.828125 -12.234375 C 22.878906 -10.515625 22.5 -8.914062 21.6875 -7.4375 C 20.882812 -5.96875 19.773438 -4.738281 18.359375 -3.75 C 16.941406 -2.757812 15.300781 -2.09375 13.4375 -1.75 C 11.039062 -1.300781 8.832031 -1.453125 6.8125 -2.203125 C 4.800781 -2.960938 3.125 -4.1875 1.78125 -5.875 C 0.445312 -7.5625 -0.429688 -9.570312 -0.859375 -11.90625 Z M 4.875 -16.0625 L 15.234375 -17.984375 C 15.003906 -19.023438 14.375 -19.863281 13.34375 -20.5 C 12.320312 -21.144531 11.082031 -21.332031 9.625 -21.0625 C 8.300781 -20.820312 7.222656 -20.257812 6.390625 -19.375 C 5.566406 -18.488281 5.0625 -17.382812 4.875 -16.0625 Z M 4.875 -16.0625 "/></g></g></g><g fill="#000000" fill-opacity="1"><g transform="translate(473.302713, 536.463912)"><g/></g></g><g fill="#000000" fill-opacity="1"><g transform="translate(485.011936, 533.943016)"><g><path d="M 2.5 -0.703125 L -6.875 -33.59375 L 16.65625 -40.3125 L 18.453125 -34.015625 L 1.5 -29.1875 L 3.390625 -22.5625 L 18.421875 -26.84375 L 20.21875 -20.546875 L 5.1875 -16.265625 L 7.28125 -8.890625 L 24.234375 -13.71875 L 26.03125 -7.421875 Z M 2.5 -0.703125 "/></g></g></g><g fill="#000000" fill-opacity="1"><g transform="translate(513.569546, 525.757495)"><g><path d="M -2.96875 -12.078125 C -3.71875 -14.160156 -3.953125 -16.210938 -3.671875 -18.234375 C -3.398438 -20.253906 -2.675781 -22.054688 -1.5 -23.640625 C -0.320312 -25.222656 1.257812 -26.375 3.25 -27.09375 C 4.5625 -27.5625 5.800781 -27.757812 6.96875 -27.6875 C 8.144531 -27.613281 9.242188 -27.328125 10.265625 -26.828125 L 9.53125 -28.84375 L 15.953125 -31.171875 L 23.796875 -9.484375 C 24.648438 -7.117188 24.90625 -4.875 24.5625 -2.75 C 24.21875 -0.625 23.351562 1.238281 21.96875 2.84375 C 20.582031 4.457031 18.722656 5.6875 16.390625 6.53125 C 14.242188 7.3125 12.207031 7.597656 10.28125 7.390625 C 8.363281 7.191406 6.6875 6.546875 5.25 5.453125 C 3.8125 4.359375 2.78125 2.851562 2.15625 0.9375 L 7.984375 -2.1875 C 8.453125 -0.875 9.242188 0.117188 10.359375 0.796875 C 11.472656 1.484375 12.828125 1.539062 14.421875 0.96875 C 15.953125 0.414062 17.015625 -0.550781 17.609375 -1.9375 C 18.203125 -3.332031 18.160156 -4.960938 17.484375 -6.828125 L 16.609375 -9.265625 C 16.140625 -8.273438 15.476562 -7.390625 14.625 -6.609375 C 13.769531 -5.835938 12.703125 -5.222656 11.421875 -4.765625 C 9.421875 -4.078125 7.453125 -3.9375 5.515625 -4.34375 C 3.585938 -4.75 1.875 -5.625 0.375 -6.96875 C -1.113281 -8.320312 -2.226562 -10.023438 -2.96875 -12.078125 Z M 3.46875 -14.390625 C 4 -12.921875 4.898438 -11.867188 6.171875 -11.234375 C 7.441406 -10.609375 8.828125 -10.566406 10.328125 -11.109375 C 11.796875 -11.640625 12.816406 -12.546875 13.390625 -13.828125 C 13.972656 -15.109375 13.992188 -16.5 13.453125 -18 C 12.910156 -19.5 12 -20.570312 10.71875 -21.21875 C 9.445312 -21.863281 8.078125 -21.921875 6.609375 -21.390625 C 5.109375 -20.847656 4.070312 -19.921875 3.5 -18.609375 C 2.9375 -17.296875 2.925781 -15.890625 3.46875 -14.390625 Z M 3.46875 -14.390625 "/></g></g></g><g fill="#000000" fill-opacity="1"><g transform="translate(540.614195, 515.956334)"><g><path d="M -3.78125 -11.84375 C -4.675781 -13.875 -5.050781 -15.90625 -4.90625 -17.9375 C -4.769531 -19.96875 -4.164062 -21.8125 -3.09375 -23.46875 C -2.03125 -25.132812 -0.535156 -26.394531 1.390625 -27.25 C 2.671875 -27.8125 3.898438 -28.09375 5.078125 -28.09375 C 6.265625 -28.101562 7.375 -27.894531 8.40625 -27.46875 L 7.546875 -29.421875 L 13.8125 -32.171875 L 23.109375 -11.078125 C 24.117188 -8.773438 24.523438 -6.550781 24.328125 -4.40625 C 24.128906 -2.257812 23.390625 -0.335938 22.109375 1.359375 C 20.828125 3.054688 19.050781 4.40625 16.78125 5.40625 C 14.695312 6.320312 12.6875 6.742188 10.75 6.671875 C 8.820312 6.609375 7.101562 6.082031 5.59375 5.09375 C 4.09375 4.101562 2.960938 2.664062 2.203125 0.78125 L 7.8125 -2.734375 C 8.375 -1.460938 9.234375 -0.523438 10.390625 0.078125 C 11.554688 0.691406 12.910156 0.660156 14.453125 -0.015625 C 15.953125 -0.679688 16.945312 -1.722656 17.4375 -3.140625 C 17.925781 -4.566406 17.773438 -6.1875 16.984375 -8 L 15.9375 -10.375 C 15.539062 -9.351562 14.941406 -8.425781 14.140625 -7.59375 C 13.347656 -6.757812 12.328125 -6.070312 11.078125 -5.53125 C 9.117188 -4.707031 7.160156 -4.429688 5.203125 -4.703125 C 3.253906 -4.984375 1.492188 -5.742188 -0.078125 -6.984375 C -1.660156 -8.234375 -2.894531 -9.851562 -3.78125 -11.84375 Z M 2.484375 -14.59375 C 3.117188 -13.164062 4.085938 -12.175781 5.390625 -11.625 C 6.703125 -11.082031 8.085938 -11.132812 9.546875 -11.78125 C 10.972656 -12.40625 11.929688 -13.378906 12.421875 -14.703125 C 12.910156 -16.023438 12.832031 -17.414062 12.1875 -18.875 C 11.550781 -20.332031 10.570312 -21.335938 9.25 -21.890625 C 7.9375 -22.453125 6.566406 -22.421875 5.140625 -21.796875 C 3.679688 -21.148438 2.710938 -20.148438 2.234375 -18.796875 C 1.765625 -17.453125 1.847656 -16.050781 2.484375 -14.59375 Z M 2.484375 -14.59375 "/></g></g></g><g fill="#000000" fill-opacity="1"><g transform="translate(566.830359, 504.306377)"><g><path d="M -2.71875 -7.515625 L 2.03125 -11.375 C 3.882812 -9.21875 5.953125 -8.734375 8.234375 -9.921875 C 9.335938 -10.484375 10.046875 -11.082031 10.359375 -11.71875 C 10.671875 -12.351562 10.707031 -12.90625 10.46875 -13.375 C 10.257812 -13.78125 9.84375 -14.050781 9.21875 -14.1875 C 8.59375 -14.320312 7.46875 -14.09375 5.84375 -13.5 C 3.175781 -12.425781 0.832031 -12.132812 -1.1875 -12.625 C -3.207031 -13.125 -4.734375 -14.375 -5.765625 -16.375 C -6.429688 -17.675781 -6.671875 -19 -6.484375 -20.34375 C -6.304688 -21.6875 -5.742188 -22.957031 -4.796875 -24.15625 C -3.859375 -25.351562 -2.625 -26.347656 -1.09375 -27.140625 C 0.8125 -28.128906 2.796875 -28.46875 4.859375 -28.15625 C 6.929688 -27.851562 8.726562 -26.898438 10.25 -25.296875 L 6.265625 -21.21875 C 5.523438 -21.894531 4.769531 -22.3125 4 -22.46875 C 3.238281 -22.625 2.421875 -22.476562 1.546875 -22.03125 C 0.878906 -21.6875 0.390625 -21.285156 0.078125 -20.828125 C -0.234375 -20.367188 -0.273438 -19.921875 -0.046875 -19.484375 C 0.128906 -19.140625 0.445312 -18.910156 0.90625 -18.796875 C 1.363281 -18.691406 2.25 -18.890625 3.5625 -19.390625 C 6.550781 -20.585938 9.097656 -20.972656 11.203125 -20.546875 C 13.304688 -20.117188 14.890625 -18.878906 15.953125 -16.828125 C 16.703125 -15.367188 16.984375 -13.875 16.796875 -12.34375 C 16.609375 -10.820312 16.007812 -9.40625 15 -8.09375 C 13.988281 -6.78125 12.617188 -5.679688 10.890625 -4.796875 C 8.484375 -3.546875 6.039062 -3.160156 3.5625 -3.640625 C 1.082031 -4.128906 -1.007812 -5.421875 -2.71875 -7.515625 Z M -2.71875 -7.515625 "/></g></g></g></svg>