<?xml version="1.0" encoding="utf-8"?>
<!-- Generator: Adobe Illustrator 27.0.0, SVG Export Plug-In . SVG Version: 6.00 Build 0)  -->
<svg version="1.1" id="Layer_1" xmlns="http://www.w3.org/2000/svg" xmlns:xlink="http://www.w3.org/1999/xlink" x="0px" y="0px"
	 viewBox="0 0 595.3 595.3" style="enable-background:new 0 0 595.3 595.3;" xml:space="preserve">
<style type="text/css">
	.st0{fill:#FFFFFF;}
	.st1{fill:none;stroke:#FFFFFF;stroke-width:1.203;stroke-linecap:round;}
</style>
<path d="M164.8,415.5h13.1v-7.1h-13.1V415.5z M214.8,395.1h14.1v-6.2H208v45.7h6.8v-20.1H227v-5.8h-12.2V395.1z M268.5,418.3h-9.3
	l4.6-22.6L268.5,418.3z M271.9,434.6h7l-11-45.7H260l-10.9,45.7h6.9l2.2-11h11.4L271.9,434.6z M320.1,402.2c0,5.3-1.3,7.5-5,7.5
	h-4.6v-14.9h4.7C318.7,394.9,320.1,396.7,320.1,402.2 M328.8,434.6l-8.2-20.9c4-1.4,6.2-5.2,6.2-12c0-8.2-3.5-12.8-11.3-12.8h-11.8
	v45.7h6.8v-19.3h4.1l7,19.3H328.8z M381.2,434.6h6.2v-45.7h-6.3l-10.5,28l-10.4-28h-6.3v45.7h6.2v-29.5l9,21.8h3.1l9.1-21.8V434.6z
	 M430.6,408.4h-13.1v7.1h13.1V408.4z"/>
<path d="M504.5,197.3c0-1.9,0.8-3.5,2-4.4l-15.5-4.8c1.2,1.7,2,3.7,2,5.6v43.5l-19.3-54.4l-11.6-3.6c1.2,1.7,2,3.7,2,5.6v74.8
	c0,1.9-0.8,3.5-2,4.4l15.5,4.8c-1.2-1.7-2-3.6-2-5.6v-43.5l19.3,54.4l11.6,3.6c-1.2-1.7-2-3.7-2-5.6V197.3z M449.5,249.5l-23.7-4.9
	v-24.2l17.8,3.7v-7.1c0-1.9,0.8-3.6,2-4.6l-19.8-4.1V184l23.7,4.9v-7.1c0-1.9,0.8-3.6,2-4.6l-39.6-8.1c1.2,1.5,2,3.5,2,5.4v74.8
	c0,2-0.8,3.6-2,4.6l39.6,8.1c-1.2-1.5-2-3.5-2-5.4V249.5z M401.3,252.7c-1.3-1.4-2-3.3-2-5.2v-7.1l-24.1-2.9v-67.7
	c0-1.9,0.8-3.6,2-4.7l-16.1-2c1.3,1.4,2,3.3,2,5.2V243c0,1.9-0.8,3.6-2,4.7L401.3,252.7z M328.2,197.8c1.3,1.3,2.1,3.1,2.1,5.1v7.1
	l6.1,0.3V232l-2.5,2.4l-13.1-0.6l-2.5-2.6v-55.6l2.5-2.4l13.1,0.6l2.5,2.6v4.6c0,1.9-0.8,3.7-2.1,4.9l16.2,0.7
	c-1.3-1.3-2.1-3.1-2.1-5.1v-9.6l-9.6-10l-23.2-1L306,170v65.6l9.6,10l23.2,1l9.6-9.2v-33.9c0-1.9,0.8-3.7,2.1-4.9L328.2,197.8z
	 M293.3,165.7c0-1.9,0.8-3.7,2.1-5.1l-16.2,0.5c1.3,1.2,2.1,3,2.1,4.9v43.5L261,161.8l-12.1,0.4c1.3,1.2,2.1,3,2.1,4.9v74.8
	c0,2-0.8,3.7-2.1,5.1l16.2-0.5c-1.3-1.2-2-3-2.1-4.9V198l20.2,47.8l12.1-0.4c-1.3-1.2-2.1-3-2.1-4.9V165.7z M234,243.4L223.1,219
	l9.1-10.2v-35.3l-9.5-8.5l-34.7,4c1.3,1.1,2,2.8,2,4.8v74.8c0,1.9-0.8,3.8-2,5.2l16.1-1.9c-1.3-1.1-2-2.8-2-4.8v-25.3l8.1-0.9
	l11.3,25.1c0.3,0.6,0.8,2.8-0.5,3.9l17.3-2C236.8,247.3,235.1,245.8,234,243.4 M220.1,205.1l-2.5,2.8l-15.6,1.8v-30.3l15.6-1.8
	l2.5,2.2V205.1z M175.5,244.3l-23.7,4.9v-24.2l17.8-3.7v-7.1c0-1.9,0.8-3.9,2-5.4l-19.8,4.1v-24.2l23.7-4.9v-7.1
	c0-1.9,0.8-3.9,2-5.4l-39.6,8.1c1.2,1,2,2.6,2,4.6v74.8c0,1.9-0.8,3.9-2,5.4l39.6-8.1c-1.2-1-2-2.6-2-4.6V244.3z M89,194.2
	c1.2,0.9,2,2.4,2,4.4v74.8c0,1.9-0.8,3.9-2,5.6l15.5-4.8c-1.2-0.9-2-2.4-2-4.4v-31.3l17.4-5.4V226c0-1.9,0.8-3.9,2-5.6l-19.3,6
	v-24.2l23.2-7.1v-7.1c0-1.9,0.8-3.9,2-5.6L89,194.2z"/>
<path d="M338.9,281.5c-8.4-4.1-15.8-0.7-22.7,0.3c-6.8,1-13.4,2.4-16.6,2.1c-3.2-0.3-3.3-0.2-7-0.2c-3.6,0-6.9,1-8.8,0.5
	c-1.8-0.5-1.2-2.1-2.3-3.2c-1.1-1.1-3.5-3.3-1.5-3.8c2-0.5,10.9,1.5,10.4-6.7c-2.7-1.3-8.7,2.7-11.1,2.4c-2.4-0.3-1-2.7-10.8-3.6
	c-9.7-0.2-8.4,1.8-11,3c-2.6,1.1-7.9-2.6-12.8-2.2c-1.1,0.2-0.3,4.9,2.4,7.1c2.3,1.9,6.4,1.3,6.8,1.9c0.8,1.3-0.5,3.6-0.9,7.7
	c-0.5,4.1,1.2,3.9,1.7,6c0.5,2.1,0.6,13.1,1.4,22.9s2.2,16.6,9.1,20.2c5.5,2.9,6.4,4.6,6.4,4.6l1.2,0.4c0,0,0.2,5.4,0.5,7
	c0.3,1.6,1.2,8.5-0.9,9.8c-1.7,1-2.4,4.6-2.4,4.6s-0.2,1.5-0.2,2.1c0,0.2,1.6-0.7,1.8-0.7c0.1,0,0.3,1.4,0.4,1.4
	c3.7-0.7,3.9-1.4,3.8-2.8c-0.2-2.9,1.4-4.8,1.4-4.8s0.9-5.9,1.4-10.6c0.3-3.4,1.6-5.3,2.1-6.6c1.2-2.7,0.4-1.8,1.2-2.3
	c0.9-0.5,0.4-0.6,1.6-0.6s3.4,0.5,3.4,0.5s1.6,2.1,1.8,4.2c0.2,2.1,0.5,6.8,2.1,9.9c2.4,4.5,0.9,8,1,8.3c0.6,2.9,0.5,3.5,0.5,3.5
	s-0.3,2.7,1.5,2.7c0.2,0,0.6-1.9,0.8-1.9c0.2,0,0.9,1.9,1.1,1.9c1.4-0.1,1.3-2.7,1.2-3.6c-0.1-1.3,0.1-2.5-0.8-3.8
	c-1.6-2.3-1.6-6.7-1.1-7.9c0.5-1.5,0-7.7,0-8.5c0-0.8-0.6-3.3,0.9-3.6c2-0.4,2.8-1.8,2.8-1.8s0.6-2.6,3.6-2.1
	c14.9,2.9,17.9-4.4,20.6-4.4c2.7,0,3.6,1,4.6,2.2c2.4,2.8,1.3,0.9,2.3,2.3c0.9,1.5,3.2,14.4,1.2,18.1c-0.8,1.3-0.9,1.5-1.5,2.3
	c-0.9,1.3-0.7,2.3-1.2,4.2c0,0,0.4,0.1,0.8-0.3c0.4-0.5,0.7-1.7,0.7-1.1c-0.1,1.1-0.2,1.7-0.2,1.7c0.3,0.1,3.6,0.3,4-3.8
	c1.2-1.1,1.3,0.2,1.6-1.8c0.3-2,0.7-9.1,0.7-9.1l0.9-5.8c0,0-0.6-2.2-0.2-1.2c0.5,1.6,1.3,0.5,1.3,1.9c0.1,8-0.7,14.5-0.9,14.5
	s-1.1,1.5-1.1,2.4c0,0.9-0.3,2-0.3,2s-0.2,2.4-0.5,3.1c0.8-0.1,1.3-0.9,1.6-0.8c0.8-0.2,0.2,0,0.2,0v1.3c2.3,0,2.5-0.7,3.1-1.3
	c1.6-1.5-0.1-4.3,0.9-5.8c1.7,0.7,1.1-6.5,1.3-9.7c0-2.6,0.9-5.8,1.2-7.9c0.3-2.1-2-5.4-0.9-8c1.1-2.6,6.9-7.8,8.4-25.4
	C352.3,287.8,347.3,285.6,338.9,281.5"/>
<path class="st0" d="M273.8,284.8c0,0-1.6,4.6-4.1,6.8c-1.1,1-0.8,3-2.2,3.3c-3.1,0.6-5,0.2-5.6-1.8c-1-3.7-2.8-5.3-3.3-9.1
	c-0.3-1.9-2.9-5.2-0.9-8.6c1.2-1.9,2-2.5,3-1.4c1,1.1,0.4,2.2,4.6,1c2.2-0.7,4.1,2,5.7-0.5c1.5-2.3,2.4-2.4,4.2-0.5
	c1.7,1.9,2.4,3.1,1.7,5.7C276,283.3,273.8,284.8,273.8,284.8"/>
<path class="st0" d="M254.1,278.1c0.1-0.5,0.1-0.8,0.2-1.6c0.1-0.8-1.4-0.4-2.3-1.6c-0.8-1.2-3.6-3.2-3.6-3.2s-0.3-0.8-1.9-0.8
	c-1.6,0-1.4,4.9,1.1,5.8s5.4,1.4,5.8,1.4C253.8,278.1,254.1,278.1,254.1,278.1"/>
<path class="st0" d="M279.7,276.3c0,0,2.9-1.7,3.7-2.5c0.8-0.8,3.8-2,5.3-2.4c1.4-0.5,1.1,0.6,1,0.9c-0.1,0.3-0.3,2.6-1,3
	c-0.8,0.4-5.7,1.7-8,1.6C279.9,276.8,279.7,276.3,279.7,276.3"/>
<path d="M265.1,292.4c0,0,0.2-0.8-0.3-1.3c-0.5-0.5-0.9-0.4-1.4-0.9c-0.4-0.5-1.2-1.8-0.6-2c0.7-0.2,0.9,0.4,1.8,0.6
	c0.9,0.2,1.8,0.1,2.1,0c0.3-0.1,1.1-0.4,1.4-0.4c0.3,0,1.3,0.4,0.4,1.4c-0.9,0.9-2.6,0.7-2.8,2.5c-0.1,0.6,1.1-0.1,1.1-0.1
	s0.7-0.2,0.9,0c0.1,0.2,0.5,1.3-2,1.4c-2.5,0.1-2.4-1.3-2-1.2C264.3,292.4,265.1,292.4,265.1,292.4"/>
<path d="M258.1,278.2c0,0,1.6-0.5,2,0.7c0.4,1.2-1,1-1.3,0.8C258.4,279.5,258.1,278.2,258.1,278.2"/>
<path d="M274.9,277.8c0,0-1.8-0.2-2,1.1c-0.2,1.4,1.2,0.9,1.6,0.6C274.8,279.2,274.9,277.8,274.9,277.8"/>
<path class="st1" d="M283.3,286.8c0.1,0.5-0.7,9.1-2.2,10.2c-1.5,1.1-2,1.4-4.6,2.6c-2.6,1.2-4.3,0.6-5.2,2.6c-0.9,2-1.1,4-1.1,4"/>
<path class="st1" d="M272.5,333.7c0,0,2.3-6.2,4.9-4.7c2.6,1.5,5.3,2.4,5.7,3c0.4,0.6,2.6,2.4,2.6,2.4s2,2.6,4.4,2.4
	c2.4-0.2,4.4-0.2,6.6-1.7c2.1-1.5,4.4-1.1,4.6-4.4c0.1-3.3-0.6-5.9,0.7-10.1c1.3-4.2,1.3-7.9,1.3-7.9s-2.6-2.3-2.6-4.5
	c0-2.3,1-3.2,1.6-0.5c0.6,2.7,0.1,2.6,1,3.8s0,5.5,0.3,8.9c0.3,3.5,2.6,7.7,5.3,7.7c2.7,0,10.2-4.5,11.7-4.4c1.6,0.2,1.6,2,2.6,2.1
	c1,0.2,0.6,0.5,4.3-1.4c3.7-1.8,6.1-3.8,6.7-8.3c0.6-4.5-2.7-11.2-0.6-12c2.1-0.8-0.7,3.3,2.9,3.5c3.6,0.2,7.3-8,6.7-5
	c-0.6,3-8,13-9.9,18.8c-1.9,5.8,2.1,4.8,6,3c3.9-1.8,5-2.3,3.6-0.9c-1.4,1.4-2.7,2.1-2.7,2.1"/>
</svg>
