<svg width="89" height="45" viewBox="0 0 89 45" fill="none" xmlns="http://www.w3.org/2000/svg">
<path id="goju_logo 1 (Traced)" fill-rule="evenodd" clip-rule="evenodd" d="M12.006 2.0424C7.53284 4.48486 5.26497 7.02343 2.63205 12.5309C-1.88429 21.9815 -0.353565 32.9408 6.12733 37.5559C12.8013 42.3086 21.1251 41.9867 26.1096 36.7835C28.2814 34.5174 28.724 33.2547 28.9771 28.6079C29.3836 21.1253 28.7822 20.4085 23.2175 21.7434C20.1543 22.4788 17.8441 22.5397 15.6838 21.9436C12.1815 20.9763 11.3165 21.8201 12.513 25.0385C13.4864 27.6574 16.4491 29.084 20.0423 28.6643C22.4177 28.3866 23.0279 28.6273 23.0279 29.8388C23.0279 35.3692 12.9345 36.4158 8.36522 31.3607C4.25272 26.8109 7.65188 12.1491 13.6699 8.48008C16.9359 6.4882 22.1462 6.21045 22.1462 8.02774C22.1462 9.44913 20.268 10.3265 17.2242 10.3265C15.7587 10.3265 15.0921 10.8229 15.0921 11.9136C15.0921 16.1416 21.2759 16.9775 25.6053 13.3341C28.8122 10.636 29.2646 6.39914 26.6863 3.21513C24.5242 0.54606 15.9942 -0.136417 12.006 2.0424ZM33.6927 4.66032C28.4048 9.10877 27.9305 18.0092 32.7246 22.8033C34.757 24.8366 36.01 25.3163 39.2857 25.3163C42.6663 25.3163 43.8779 24.8181 46.6281 22.2981C49.7997 19.3909 49.9214 19.062 49.9214 13.4082C49.9214 7.89107 49.7477 7.38142 47.0416 4.96365C43.1584 1.49306 37.6059 1.36697 33.6927 4.66032ZM50.5827 3.01321C49.492 3.22307 48.5988 3.76446 48.5988 4.21592C48.5988 5.35956 51.9177 8.56297 53.1028 8.56297C54.1512 8.56297 53.3567 26.1125 52.2581 27.2129C51.9424 27.5277 49.4638 27.3734 46.7489 26.8691C40.3826 25.6858 35.9906 26.5525 32.4882 29.6819C30.1975 31.7293 29.6807 32.8544 29.6807 35.8074C29.6807 40.9066 32.8277 43.9319 38.7178 44.498C44.7111 45.0738 48.7072 43.5466 52.788 39.1193L56.2374 35.378L60.5739 36.5604C62.9599 37.2112 67.8871 37.8187 71.5244 37.9113C77.0274 38.0515 78.6754 37.7473 81.3401 36.0993C85.4147 33.5792 87.0203 30.0381 85.5522 26.8144L84.495 24.4954L81.3163 28.0559C78.835 30.8361 77.3263 31.7231 74.4403 32.1032C70.804 32.5811 59.4593 30.9375 58.843 29.8432C58.6693 29.5355 58.9003 24.1462 59.3571 17.8672C60.4831 2.35189 59.8226 1.23295 50.5827 3.01321ZM64.6802 3.41529C63.0128 5.08268 63.3779 7.49516 65.3944 8.13532C67.7108 8.8707 69.9213 7.04282 69.5828 4.67267C69.2794 2.54676 66.3097 1.78581 64.6802 3.41529ZM76.0266 4.86048C74.8486 7.06222 76.7029 9.76568 79.0775 9.30805C81.6593 8.81074 81.4732 3.8112 78.8588 3.4391C77.6632 3.26892 76.5909 3.80767 76.0266 4.86048ZM43.8567 9.92528C45.8821 13.0176 44.2544 18.8733 41.1532 19.651C37.5663 20.5513 35.3725 18.674 35.3725 14.7044C35.3725 8.48008 40.8773 5.37895 43.8567 9.92528ZM61.7828 13.1287C58.8077 24.1762 65.4861 32.3756 75.2595 29.6766C80.3199 28.2799 82.1054 25.2995 82.1054 18.2517C82.1054 11.7637 80.9221 9.74364 77.7178 10.7612C76.1095 11.2708 75.9499 11.836 76.3855 15.4627C77.0442 20.9366 75.4932 23.9037 71.7836 24.2652C68.0697 24.6276 66.9745 22.4594 67.3017 15.3904C67.5512 9.99494 67.5098 9.88031 65.1802 9.61137C63.0516 9.36536 62.6971 9.73217 61.7828 13.1287ZM84.0409 20.4666C84.0585 21.9215 84.256 22.41 84.48 21.5521C84.704 20.6941 84.689 19.5038 84.4474 18.9068C84.2058 18.3099 84.0232 19.0118 84.0409 20.4666ZM85.6324 21.0548C85.6324 21.9436 86.2276 22.671 86.9551 22.671C87.6825 22.671 88.2777 21.9436 88.2777 21.0548C88.2777 20.1651 87.6825 19.4376 86.9551 19.4376C86.2276 19.4376 85.6324 20.1651 85.6324 21.0548ZM49.1922 33.5519C50.2882 34.6479 46.3556 37.7561 42.8832 38.5391C40.9751 38.9694 38.6526 38.9517 37.4596 38.4976C34.988 37.5586 34.6847 34.6444 36.9155 33.2715C38.5512 32.2654 48.1244 32.4841 49.1922 33.5519Z" fill="white"/>
</svg>
