<svg width="151" height="45" viewBox="0 0 151 45" fill="none" xmlns="http://www.w3.org/2000/svg">
<path id="Greenhill Seltzers logo 1 (Traced)" fill-rule="evenodd" clip-rule="evenodd" d="M123.845 2.07641C123.594 3.57381 123.026 6.99814 122.579 9.70631C122.424 10.6507 122.161 12.2405 121.996 13.2392C121.831 14.2379 121.691 15.1347 121.685 15.2321L121.674 15.4092L122.878 15.5931C123.54 15.6943 124.164 15.788 124.265 15.8013L124.448 15.8256L124.6 14.8284C125.006 12.1731 125.111 11.6466 125.346 11.0861C125.605 10.4676 126.121 9.8869 126.616 9.65606C126.872 9.53701 126.917 9.5288 127.311 9.53077C127.836 9.53338 128.107 9.62448 128.345 9.87865C128.574 10.1235 128.649 10.3769 128.624 10.8255C128.607 11.1331 128.248 13.514 127.894 15.6668C127.839 16.0033 127.793 16.2912 127.793 16.3065C127.793 16.3218 127.854 16.3457 127.929 16.3596C128.286 16.4254 130.583 16.7605 130.596 16.7486C130.605 16.7413 130.662 16.4194 130.723 16.0333C131.449 11.4338 131.614 10.3512 131.632 10.0813C131.697 9.06131 131.068 8.09014 130.041 7.62573C129.505 7.38305 129.154 7.32009 128.334 7.31906L127.612 7.31816L127.2 7.46105C126.683 7.64065 126.221 7.91192 125.841 8.25956C125.679 8.40826 125.546 8.50576 125.546 8.47627C125.546 8.44678 125.609 8.06756 125.686 7.63359C125.763 7.19958 125.997 5.84974 126.206 4.63395C126.416 3.41816 126.638 2.1355 126.701 1.78364L126.816 1.14385L126.712 1.12297C126.656 1.11148 126.365 1.06573 126.067 1.02136C125.373 0.917901 124.312 0.750809 124.179 0.723928L124.075 0.703125L123.845 2.07641ZM140.915 4.24908C140.82 4.591 140.575 5.47474 140.371 6.21289C140.167 6.95105 139.808 8.24776 139.573 9.09447C138.978 11.2423 138.241 13.9035 137.803 15.4892C137.599 16.2274 137.346 17.1386 137.241 17.5142C137.129 17.9133 137.064 18.2111 137.085 18.2306C137.105 18.2491 137.41 18.3365 137.763 18.4249C138.116 18.5133 138.711 18.6659 139.084 18.764C139.458 18.8621 139.769 18.9366 139.776 18.9295C139.788 18.9174 140.874 15.201 141.595 12.7063C141.767 12.1093 142.38 9.99814 142.958 8.01486C143.535 6.03163 144.002 4.40492 143.995 4.40003C143.952 4.37007 141.209 3.62737 141.141 3.62737C141.106 3.62737 141.028 3.8423 140.915 4.24908ZM78.9837 4.00549C78.9175 4.01461 78.6918 4.04125 78.4822 4.0647C76.9665 4.23428 75.3275 4.80562 74.1655 5.56947C71.8508 7.09102 70.6612 9.71582 70.9398 12.6866C71.099 14.3831 71.5826 15.8221 72.3893 16.9987C72.8056 17.6059 73.6137 18.3951 74.2306 18.797C75.2148 19.4382 76.27 19.8191 77.5393 19.9914C78.2599 20.0893 79.6198 20.0538 80.408 19.9166C81.4517 19.735 81.9931 19.5618 82.9759 19.0955C83.9532 18.6318 84.7764 18.114 85.423 17.5562C85.7237 17.2968 85.985 16.9717 85.985 16.8571C85.985 16.8102 85.8217 16.0747 85.6219 15.2226C85.4222 14.3706 85.2049 13.4336 85.1391 13.1405C84.8448 11.8315 84.5296 10.513 84.5043 10.486C84.4891 10.4698 84.0803 10.5463 83.5959 10.656C82.2331 10.9647 79.2087 11.6395 78.9737 11.6875C78.8126 11.7203 78.763 11.7473 78.763 11.8023C78.763 11.8918 79.3991 14.6084 79.4263 14.6352C79.4372 14.6459 79.8566 14.5626 80.3584 14.4499C81.8273 14.1203 82.0517 14.0734 82.0711 14.0925C82.0813 14.1025 82.1814 14.5096 82.2935 14.9973L82.4975 15.8839L82.3856 15.9745C81.8104 16.4402 80.4251 16.8501 79.2044 16.916C77.5555 17.0049 76.068 16.3597 75.1518 15.1583C74.7311 14.6066 74.3764 13.7312 74.2283 12.8787C73.9577 11.3217 74.191 10.1134 74.9545 9.1165C75.6073 8.26414 76.7265 7.62566 78.1812 7.27572C79.1537 7.0418 80.62 7.05917 81.8758 7.3195L81.9996 7.34512L82.0846 6.64087C82.2537 5.24007 82.3477 4.33829 82.3267 4.31769C82.2917 4.28319 81.4557 4.10757 81.1102 4.06209C80.7778 4.01836 79.1957 3.97624 78.9837 4.00549ZM135.957 4.70658C135.479 4.86349 135.151 5.12441 134.98 5.48263C134.83 5.79838 134.831 6.24053 134.983 6.55908C135.121 6.8487 135.424 7.13997 135.753 7.29948C136.247 7.53866 136.942 7.48876 137.371 7.18339C137.859 6.8352 138.058 6.11701 137.811 5.58771C137.672 5.28771 137.31 4.91879 137.025 4.7864C136.755 4.66048 136.22 4.62049 135.957 4.70658ZM145.831 5.08182C145.798 5.18287 145.679 5.59414 145.565 5.99579C145.452 6.39743 145.226 7.17901 145.063 7.73263C143.797 12.0317 141.675 19.4328 141.702 19.4589C141.753 19.508 144.289 20.2518 144.34 20.2325C144.365 20.2232 144.432 20.0581 144.49 19.8656C144.548 19.673 144.768 18.9382 144.978 18.2326C145.188 17.527 145.48 16.5501 145.627 16.0616C146.153 14.3081 146.69 12.5153 146.909 11.7787C147.032 11.3662 147.343 10.327 147.6 9.46947C148.731 5.68778 148.732 5.68391 148.661 5.66287C148.625 5.65213 148.127 5.51749 147.553 5.3637C146.979 5.20987 146.371 5.04218 146.201 4.99107L145.892 4.89811L145.831 5.08182ZM49.4285 5.39082C49.3705 5.42642 49.2938 5.50434 49.258 5.56399C49.1981 5.66362 49.1928 7.21655 49.1928 24.6874V43.7024L49.3486 43.8557L49.5044 44.0089H52.6406C56.0602 44.0089 55.9164 44.0183 56.0779 43.7839C56.1524 43.6758 56.1543 43.2608 56.1658 24.7458C56.1737 11.9008 56.1643 5.773 56.1364 5.67763C56.1138 5.60034 56.0484 5.49376 55.9911 5.44079L55.8868 5.34447L52.7104 5.33528C49.8253 5.32687 49.5242 5.332 49.4285 5.39082ZM105.222 6.01399C103.896 6.25083 102.858 7.00576 102.196 8.21413C101.615 9.27455 101.455 10.6292 101.769 11.8461C101.964 12.6027 102.276 13.1691 102.794 13.7046C103.982 14.9351 106.002 15.2234 107.802 14.4194C108.234 14.2264 108.631 13.9386 109.067 13.5019C109.615 12.9538 109.618 12.9724 108.889 12.5121C108.524 12.2814 108.282 12.1537 108.21 12.1537C108.149 12.1537 107.985 12.2163 107.845 12.2928C106.974 12.7695 106.499 12.922 105.968 12.8954C105.701 12.882 105.58 12.8555 105.423 12.7761C105.07 12.5981 104.725 12.1503 104.723 11.8682C104.722 11.7397 104.673 11.7533 105.614 11.6226C106.452 11.506 106.999 11.389 107.849 11.1437C108.955 10.825 109.251 10.7248 109.324 10.6444C109.388 10.5745 109.395 10.4942 109.387 9.92874C109.367 8.59406 109.188 7.88661 108.709 7.26044C107.968 6.28999 106.537 5.77884 105.222 6.01399ZM116.538 5.99753C115.668 6.13031 114.912 6.55706 114.285 7.26929L114.12 7.45726L114.097 7.3285C114.085 7.25768 114.063 6.98413 114.048 6.7206C114.033 6.45708 114.009 6.22268 113.995 6.19971C113.972 6.1643 111.47 5.97416 111.44 6.00558C111.427 6.0188 111.383 6.66325 111.123 10.6537C111.002 12.5099 110.891 14.1664 110.877 14.3346C110.856 14.5808 110.861 14.6404 110.906 14.6399C110.936 14.6396 111.562 14.6778 112.296 14.7249C113.03 14.7719 113.641 14.8003 113.653 14.7878C113.666 14.7754 113.738 13.8979 113.813 12.838C113.889 11.778 113.969 10.8041 113.993 10.6737C114.092 10.1181 114.295 9.56432 114.517 9.24372C115.01 8.53232 115.453 8.27034 116.156 8.27598C116.977 8.28258 117.404 8.68864 117.41 9.46947C117.411 9.6323 117.334 10.9418 117.238 12.3795C117.142 13.8172 117.073 15.002 117.083 15.0123C117.103 15.032 119.485 15.1931 119.756 15.1931H119.912L120.002 13.8214C120.051 13.067 120.146 11.6415 120.213 10.6537C120.346 8.69575 120.347 8.17007 120.218 7.81071C120.064 7.38246 119.922 7.16417 119.572 6.81992C119.171 6.4255 118.776 6.20441 118.233 6.07114C117.853 5.97795 116.93 5.93784 116.538 5.99753ZM96.8582 6.85031C96.2215 6.94438 95.8843 7.04551 95.4138 7.2835C93.9349 8.03144 93.0473 9.56926 93.047 11.3839C93.0467 12.9113 93.7035 14.2923 94.7941 15.058C95.421 15.4981 96.0992 15.7086 96.9786 15.736C97.8836 15.7643 98.5817 15.6144 99.3525 15.2265C99.9881 14.9066 100.482 14.4864 100.938 13.8763C101.21 13.5128 101.202 13.4989 100.509 13.1329C100.189 12.9639 99.8864 12.8254 99.836 12.8252C99.695 12.8245 99.5038 12.9161 99.2259 13.1173C98.8999 13.3534 98.3147 13.6358 97.9823 13.7175C97.4273 13.8538 96.9087 13.7141 96.562 13.3348C96.3628 13.1168 96.2182 12.807 96.285 12.7413C96.3075 12.7192 96.6669 12.6238 97.0836 12.5293C98.0087 12.3197 98.2901 12.2333 99.3658 11.8291C100.363 11.4546 100.671 11.3215 100.744 11.2336C100.814 11.1496 100.81 10.8755 100.728 10.2147C100.54 8.70222 100.074 7.88342 99.0662 7.29708C98.4753 6.95318 97.499 6.75562 96.8582 6.85031ZM12.8019 7.71629C12.7246 7.72481 12.4358 7.7509 12.1599 7.77423C9.80513 7.97334 7.45925 8.82356 5.67212 10.1255C3.58018 11.6496 2.26465 13.7884 1.85119 16.3379C1.56207 18.1206 1.68352 20.117 2.16667 21.5242C2.44071 22.3223 2.71771 22.8611 3.25475 23.6405C4.25613 25.0939 5.41827 26.0766 7.44553 27.1844C8.24325 27.6203 10.5197 28.6213 12.18 29.2661C15.0956 30.3986 16.8576 31.7995 17.2617 33.3064C17.425 33.9151 17.3509 34.9034 17.0927 35.5606C16.9402 35.9485 16.7584 36.208 16.3805 36.5768C15.6461 37.2936 14.6991 37.707 13.1763 37.9759C12.4911 38.0969 10.9974 38.107 10.2742 37.9956C9.14776 37.8222 8.05319 37.5311 6.96406 37.1153C6.23745 36.838 4.94382 36.2065 4.25581 35.7933C3.43807 35.3022 3.29841 35.2363 3.12347 35.2585C2.80835 35.2984 2.75021 35.3687 2.13213 36.4568C1.50819 37.5552 1.11703 38.2357 0.436598 39.4067C-0.0334352 40.2156 -0.0659343 40.3215 0.0697996 40.6029C0.228644 40.9323 2.33142 42.102 3.9445 42.7583C5.80164 43.5139 7.82473 44.0172 9.9933 44.2631C12.4227 44.5385 15.1633 44.3625 17.0554 43.8095C18.9311 43.2612 20.5928 42.3221 21.9045 41.0687C23.0644 39.9604 23.9064 38.6518 24.3936 37.1997C24.7814 36.0442 24.9189 35.1932 24.9187 33.951C24.9182 31.2814 24.3479 29.3683 23.0417 27.6554C22.4017 26.816 21.4011 25.9156 20.3248 25.2106C19.3651 24.5819 17.7526 23.8331 15.7709 23.0957C13.6417 22.3034 11.9418 21.4627 10.9502 20.7118C10.1206 20.0835 9.5977 19.4558 9.35195 18.7933C8.92055 17.6304 9.25252 16.1308 10.1187 15.3291C11.0223 14.4929 12.4393 14.049 14.2061 14.0486C15.4435 14.0483 16.576 14.2592 18.1424 14.7818C19.4665 15.2236 20.6811 15.7223 21.6669 16.2288C22.0789 16.4405 22.1456 16.463 22.3138 16.4471C22.5444 16.4253 22.7196 16.3078 22.8138 16.1117C22.8531 16.0298 23.3724 14.9948 23.9678 13.8116C24.9096 11.94 25.0525 11.632 25.0671 11.4431C25.08 11.2751 25.0659 11.1981 25.0046 11.1022C24.8127 10.8018 22.6717 9.68326 21.0671 9.04505C19.1509 8.28293 17.5442 7.93193 15.2493 7.77408C14.628 7.73136 13.0108 7.69315 12.8019 7.71629ZM106.098 7.94464C106.258 8.01167 106.383 8.14694 106.439 8.31404C106.504 8.50371 106.583 9.23452 106.542 9.26938C106.49 9.31497 104.859 9.63514 104.755 9.62045C104.673 9.60897 104.665 9.58891 104.675 9.42999C104.723 8.73198 105.007 8.17185 105.415 7.97322C105.612 7.8773 105.908 7.86494 106.098 7.94464ZM90.4186 8.06721C89.5953 8.245 88.9786 8.72365 88.6982 9.40256L88.6054 9.6272L88.5127 9.19307C88.4618 8.9543 88.4004 8.75918 88.3762 8.75942C88.3121 8.76017 86.2677 9.25718 86.2476 9.27695C86.2383 9.28611 86.2838 9.50638 86.3487 9.76643C86.5657 10.6359 87.2542 13.4159 87.7514 15.43C88.022 16.5264 88.2589 17.4403 88.2777 17.4609C88.2989 17.484 88.711 17.4034 89.3588 17.2495C90.757 16.9171 90.6907 16.937 90.6606 16.8599C90.6114 16.7338 89.8816 13.7061 89.8016 13.2962C89.6837 12.6923 89.6235 12.0265 89.6511 11.6325C89.6939 11.0213 89.9001 10.6649 90.3305 10.4581C90.7284 10.267 91.2252 10.2583 91.684 10.4346C91.7367 10.4549 91.7682 10.2905 91.8991 9.31043C91.9835 8.67909 92.0433 8.15346 92.032 8.14236C92.0207 8.13123 91.8698 8.09732 91.6965 8.06693C91.3056 7.9984 90.7366 7.99852 90.4186 8.06721ZM97.4365 8.86852C97.5046 8.90693 97.599 9.01339 97.6463 9.10505C97.7396 9.28592 97.8875 9.97686 97.8522 10.0673C97.8315 10.1204 96.2253 10.6142 96.0731 10.6142C96.0109 10.6142 96.0063 10.5743 96.026 10.2096C96.0582 9.61284 96.2631 9.12257 96.5603 8.93097C96.8407 8.75022 97.1834 8.72579 97.4365 8.86852ZM134.272 8.80828C134.262 8.83544 134.083 9.62144 133.874 10.555C133.665 11.4885 133.305 13.0961 133.074 14.1274C132.487 16.7465 132.396 17.1696 132.415 17.1884C132.429 17.2021 134.909 17.7408 135.091 17.7697C135.171 17.7823 135.009 18.4699 136.459 11.9563C136.699 10.8816 136.929 9.85588 136.972 9.67686L137.051 9.35136L136.905 9.31367C136.664 9.25098 134.384 8.75894 134.335 8.75894C134.31 8.75894 134.282 8.78117 134.272 8.80828ZM61.4903 13.1963C61.4241 13.2252 61.3248 13.297 61.2697 13.3558L61.1694 13.4627L61.1493 17.8172C61.1296 22.1016 61.128 22.1731 61.049 22.2602C60.8803 22.4464 60.7963 22.4563 59.3906 22.4563C58.0974 22.4563 58.0685 22.458 57.9601 22.5419C57.7374 22.7142 57.7389 22.6966 57.7389 25.1405C57.7389 27.5933 57.7383 27.587 57.9644 27.7328C58.0657 27.7982 58.2081 27.8068 59.4754 27.8247L60.8747 27.8444L61.012 27.9919L61.1493 28.1394V35.8787C61.1493 44.3293 61.1328 43.7393 61.3746 43.9265C61.4806 44.0085 61.4963 44.0089 64.6353 44.0075C68.0473 44.006 67.9009 44.0153 68.0525 43.7891C68.1285 43.6757 68.1301 43.5176 68.1305 35.9365C68.1309 28.3329 68.1322 28.1975 68.2092 28.0734C68.3678 27.8175 68.2927 27.8247 70.7987 27.8247C72.7501 27.8247 73.0862 27.8163 73.1873 27.7648C73.4322 27.6402 73.4268 27.6999 73.4268 25.1405C73.4268 22.5811 73.4322 22.6408 73.1873 22.5162C73.0862 22.4647 72.7513 22.4563 70.8108 22.4562C68.2838 22.4562 68.3444 22.4626 68.2009 22.18C68.1354 22.051 68.1307 21.7581 68.1307 17.7746L68.1306 13.5075L68.0389 13.3733C67.9866 13.2967 67.8877 13.219 67.8082 13.1921C67.5947 13.1197 61.6564 13.1236 61.4903 13.1963ZM140.953 21.6503C139.489 21.8068 138.3 22.1866 137.17 22.8586C136.326 23.3599 135.512 24.0818 135.019 24.7655C134.526 25.4486 134.056 26.5493 133.845 27.5158C133.77 27.8581 133.755 28.0499 133.754 28.7129C133.751 29.6143 133.822 30.0706 134.075 30.7942C134.76 32.7498 136.216 34.1357 138.544 35.0479C138.936 35.2015 139.157 35.2715 141.093 35.8568C143.161 36.482 143.796 36.9177 143.965 37.8276C144.05 38.2847 143.896 38.82 143.597 39.1069C143.141 39.5437 141.676 39.8625 140.635 39.7514C140.173 39.7021 139.48 39.5331 139.067 39.3692C138.219 39.0329 137.162 38.4027 136.291 37.715C136.052 37.5267 135.807 37.3656 135.739 37.3522C135.497 37.3045 135.397 37.3912 134.822 38.1437C134.522 38.5363 133.962 39.2652 133.577 39.7635C132.964 40.5559 132.874 40.6913 132.856 40.8444L132.836 41.0194L133.215 41.3793C134.621 42.714 136.591 43.7145 138.661 44.1445C140.964 44.6228 143.855 44.5061 145.767 43.8577C147.078 43.4132 148.357 42.5831 149.228 41.6104C150.058 40.684 150.661 39.4403 150.912 38.1349C150.986 37.7478 151 37.5365 151 36.8247C150.999 35.884 150.939 35.4824 150.702 34.8423C150.559 34.4568 150.148 33.7006 149.903 33.3721C149.117 32.317 148.025 31.5556 146.481 30.9869C145.616 30.6679 144.441 30.2931 143.745 30.1141C142.943 29.9075 142.509 29.7582 142.074 29.5381C141.449 29.2216 141.064 28.8397 140.933 28.406C140.861 28.1686 140.857 27.5862 140.926 27.3999C141.02 27.1439 141.344 26.7715 141.64 26.5776C142.526 25.9981 143.74 25.9475 145.206 26.429C145.645 26.5736 146.726 27.1073 147.215 27.4215C147.709 27.7391 147.795 27.7682 148.003 27.6865C148.141 27.6322 148.234 27.5052 148.997 26.3396C150.481 24.0727 150.431 24.1579 150.41 23.9662C150.386 23.7515 150.348 23.709 149.96 23.4623C147.854 22.1234 145.654 21.5782 142.417 21.5924C141.888 21.5947 141.229 21.6208 140.953 21.6503ZM106.508 21.7862C104.725 21.9425 103.072 22.504 101.603 23.4521C99.6353 24.7227 98.1763 26.5014 97.2071 28.8115C96.5344 30.4147 96.1575 32.5142 96.2325 34.2392C96.364 37.2582 97.4025 39.8582 99.2024 41.6744C99.7644 42.2415 100.137 42.5479 100.777 42.9681C102.997 44.4267 106.032 45.0122 108.923 44.5398C111.175 44.1719 112.802 43.4714 114.451 42.1594C114.833 41.8554 116.072 40.6596 116.141 40.5275C116.218 40.3804 116.211 40.183 116.123 40.0418C116.043 39.9125 113.631 38.1966 113.391 38.0976C113.199 38.0184 112.805 38.0231 112.541 38.1078C112.423 38.146 112.109 38.2982 111.844 38.4462C111.123 38.8493 110.025 39.2968 109.283 39.4897C108.643 39.6563 108.185 39.7194 107.611 39.7197C106.527 39.7202 105.769 39.4287 105.06 38.7392C104.433 38.1294 104.038 37.3095 104.076 36.6973C104.085 36.5547 104.244 36.5151 105.143 36.4315C108.045 36.162 108.678 36.0793 110.314 35.7563C111.526 35.5169 113.783 34.9804 115.141 34.6088C116.206 34.3173 116.289 34.2261 116.359 33.2721C116.408 32.591 116.407 30.6759 116.356 30.0333C116.191 27.944 115.71 26.4973 114.758 25.2194C114.492 24.8634 113.844 24.1992 113.427 23.8563C112.11 22.7738 110.379 22.0496 108.574 21.8253C108.093 21.7655 106.983 21.7445 106.508 21.7862ZM128.755 21.7901C127.974 21.8784 127.128 22.1101 126.562 22.3908C126.104 22.6173 125.561 22.9973 125.171 23.3638C124.969 23.5535 124.762 23.7212 124.713 23.7366C124.585 23.7759 124.361 23.694 124.285 23.5807C124.236 23.5076 124.222 23.3786 124.222 23.0274C124.222 22.5539 124.195 22.4472 124.046 22.3289C123.967 22.2658 123.762 22.2606 121.32 22.2598L118.679 22.2589L118.561 22.3743L118.444 22.4897V33.2289V43.9682L118.561 44.0971L118.678 44.226L121.56 44.2367C123.605 44.2442 124.473 44.2346 124.55 44.2034C124.609 44.1793 124.69 44.1238 124.73 44.0801C124.8 44.0045 124.805 43.7786 124.827 39.4357C124.852 34.6031 124.858 34.4275 125.064 32.7737C125.456 29.6316 126.193 28.2368 127.732 27.7235C127.988 27.6383 128.153 27.6125 128.54 27.597C129.365 27.564 130.159 27.7392 130.937 28.1263C131.538 28.4249 131.651 28.3627 131.966 27.5561C132.082 27.2588 132.389 26.4826 132.649 25.8313C132.908 25.18 133.249 24.3244 133.405 23.93C133.562 23.5356 133.691 23.1595 133.691 23.0942C133.691 22.8929 133.532 22.7612 133.02 22.5358C131.558 21.8932 130.099 21.6381 128.755 21.7901ZM36.775 21.8311C34.8276 22.0469 32.7353 22.9327 31.218 24.1839C29.3109 25.7566 27.9105 27.997 27.2718 30.4972C26.7344 32.6007 26.7084 34.6224 27.1912 36.7457C27.5517 38.3308 28.3112 39.905 29.294 41.1043C30.61 42.71 32.5381 43.8662 34.7618 44.3832C36.7269 44.84 38.7083 44.8078 40.7872 44.2855C42.8277 43.7728 44.3285 42.9176 46.0184 41.305C46.6111 40.7393 46.8256 40.4739 46.8256 40.3065C46.8256 40.0612 46.7294 39.9742 45.4808 39.0903C44.8094 38.6149 44.1828 38.1848 44.0884 38.1345C43.9367 38.0536 43.8749 38.0448 43.5557 38.0586C43.1568 38.0758 43.016 38.1285 42.3119 38.5239C42.1133 38.6355 41.698 38.8335 41.389 38.9641C38.8286 40.0462 37.0126 39.9902 35.7277 38.7895C35.444 38.5242 35.1185 38.1018 34.9588 37.7913C34.8584 37.5963 34.7227 37.145 34.6889 36.8943C34.6671 36.7321 34.6763 36.6951 34.7581 36.6145C34.8398 36.5342 34.917 36.5156 35.3323 36.476C38.8714 36.1389 39.5673 36.0466 41.3289 35.6798C42.2732 35.4833 44.7867 34.8792 45.7022 34.6288C46.4315 34.4293 46.6162 34.3523 46.7417 34.1954C46.9244 33.9668 46.9539 33.7581 46.9835 32.4826C47.0533 29.4674 46.8235 27.9151 46.0851 26.415C45.7717 25.7783 45.5532 25.4409 45.1125 24.9132C43.7435 23.274 41.5718 22.1385 39.2488 21.8473C38.7039 21.779 37.3268 21.77 36.775 21.8311ZM75.6883 22.6841C75.6413 22.7217 75.5807 22.7945 75.5538 22.8461C75.4866 22.9749 75.406 27.7944 75.4687 27.9299C75.4922 27.9807 75.5705 28.0577 75.6427 28.101C75.7712 28.1781 75.8483 28.1797 79.398 28.1798L83.0222 28.18L83.1394 28.2953C83.2332 28.3876 83.2567 28.4452 83.2567 28.583C83.2567 28.7678 83.303 28.6959 81.7735 30.8839C81.5155 31.253 80.91 32.1234 80.4281 32.8181C79.9461 33.5129 79.3773 34.33 79.1642 34.6339C78.7858 35.1736 78.5736 35.4784 76.9377 37.8313C76.4999 38.4609 75.9491 39.2513 75.7136 39.5878C75.4781 39.9244 75.0442 40.5461 74.7494 40.9694C74.4546 41.3928 73.9537 42.1097 73.6363 42.5625C73.2884 43.0588 73.0508 43.4367 73.0381 43.5137C73.011 43.6783 73.1113 43.8708 73.2649 43.949C73.3693 44.0021 74.5797 44.0089 83.9207 44.0089H94.4589L94.5953 43.8747L94.7317 43.7405V41.228C94.7317 38.5014 94.7356 38.551 94.5122 38.4508C94.4324 38.415 93.2263 38.4036 89.5327 38.4036C84.2807 38.4036 84.4744 38.4111 84.3252 38.2017C84.2365 38.0771 84.241 37.8066 84.3338 37.6886C84.3745 37.6368 85.0907 36.6175 85.9254 35.4234C86.7602 34.2293 87.7199 32.8571 88.0582 32.374C89.2628 30.6539 89.9368 29.6918 90.3325 29.1273C90.5532 28.8125 90.9259 28.2796 91.1608 27.9431C91.3957 27.6066 91.7749 27.0648 92.0034 26.7392C92.2319 26.4135 92.6111 25.8717 92.846 25.5352C93.4783 24.6294 94.1359 23.6916 94.3246 23.4267C94.5502 23.11 94.5474 22.8687 94.3158 22.6841C94.2352 22.6199 93.6857 22.6159 85.002 22.6159C76.3184 22.6159 75.7688 22.6199 75.6883 22.6841ZM38.4202 26.759C39.4267 27.0122 39.7079 27.6023 39.7866 29.6264C39.8074 30.1603 39.8016 30.3058 39.7574 30.3628C39.713 30.4199 39.4152 30.4798 38.2386 30.6684C34.8398 31.2134 35.0276 31.1877 34.9235 31.1206C34.7973 31.0393 34.7986 30.8342 34.9297 30.136C35.1682 28.8653 35.6127 27.9447 36.2866 27.3255C36.636 27.0045 36.8868 26.8623 37.2842 26.7599C37.6662 26.6615 38.0314 26.6611 38.4202 26.759ZM107.768 26.7408C108.095 26.8167 108.461 27.0083 108.621 27.1876C108.804 27.3926 108.962 27.759 109.033 28.1405C109.177 28.9282 109.23 30.297 109.119 30.3877C109.088 30.4132 108.515 30.5211 107.845 30.6275C107.176 30.734 106.131 30.9004 105.525 30.9974C104.272 31.1976 104.23 31.1956 104.208 30.9338C104.19 30.7165 104.349 29.845 104.505 29.3137C104.903 27.9513 105.743 26.9645 106.699 26.7367C106.988 26.6677 107.461 26.6695 107.768 26.7408Z" fill="white"/>
</svg>
