<svg xmlns="http://www.w3.org/2000/svg" xmlns:xlink="http://www.w3.org/1999/xlink" width="600" zoomAndPan="magnify" viewBox="0 0 450 225" height="300" preserveAspectRatio="xMidYMid meet" version="1.2"><defs><clipPath id="1518ffc913"><path d="M 24.816406 84 L 43 84 L 43 149 L 24.816406 149 Z M 24.816406 84 "/></clipPath><clipPath id="e50a26b707"><path d="M 286 42.796875 L 309 42.796875 L 309 100 L 286 100 Z M 286 42.796875 "/></clipPath><clipPath id="af18bf0650"><path d="M 417 140 L 425.316406 140 L 425.316406 149 L 417 149 Z M 417 140 "/></clipPath><clipPath id="caa8909479"><path d="M 107 167 L 119 167 L 119 182.296875 L 107 182.296875 Z M 107 167 "/></clipPath><clipPath id="f0d3101db4"><path d="M 305 167 L 316 167 L 316 182.296875 L 305 182.296875 Z M 305 167 "/></clipPath><clipPath id="b1a4464b24"><path d="M 330 167 L 344 167 L 344 182.296875 L 330 182.296875 Z M 330 167 "/></clipPath></defs><g id="66af868ff4"><g clip-rule="nonzero" clip-path="url(#1518ffc913)"><path style=" stroke:none;fill-rule:nonzero;fill:#000000;fill-opacity:1;" d="M 24.816406 84.617188 L 43 84.617188 L 43 148.085938 L 24.816406 148.085938 Z M 24.816406 84.617188 "/><path style=" stroke:none;fill-rule:nonzero;fill:#000000;fill-opacity:1;" d="M 24.816406 84.617188 L 43 84.617188 L 43 148.085938 L 24.816406 148.085938 Z M 24.816406 84.617188 "/></g><path style=" stroke:none;fill-rule:nonzero;fill:#000000;fill-opacity:1;" d="M 72.992188 84.617188 L 90.492188 84.617188 L 90.492188 148.085938 L 72.992188 148.085938 L 72.992188 126.324219 L 48.683594 126.316406 L 48.675781 111.269531 L 72.996094 111.261719 Z M 72.992188 84.617188 "/><path style=" stroke:none;fill-rule:nonzero;fill:#000000;fill-opacity:1;" d="M 72.992188 84.617188 L 90.492188 84.617188 L 90.492188 148.085938 L 72.992188 148.085938 L 72.992188 126.324219 L 48.683594 126.316406 L 48.675781 111.269531 L 72.996094 111.261719 Z M 72.992188 84.617188 "/><path style=" stroke:none;fill-rule:nonzero;fill:#000000;fill-opacity:1;" d="M 151.394531 148.089844 L 117.308594 148.089844 C 103.773438 148.214844 92.664062 137.105469 92.535156 123.316406 C 92.40625 109.261719 103.980469 97.675781 117.761719 98.066406 L 151.867188 98.0625 L 151.855469 112.894531 L 139.808594 130.722656 L 121.863281 130.714844 L 132.542969 112.417969 L 121.179688 112.417969 C 115.492188 112.960938 111.335938 117.496094 111.175781 123.316406 C 111 129.574219 115.941406 134.816406 122.078125 134.898438 L 151.398438 134.898438 L 151.398438 148.089844 Z M 151.394531 148.089844 "/><path style=" stroke:none;fill-rule:nonzero;fill:#000000;fill-opacity:1;" d="M 151.394531 148.089844 L 117.308594 148.089844 C 103.773438 148.214844 92.664062 137.105469 92.535156 123.316406 C 92.40625 109.261719 103.980469 97.675781 117.761719 98.066406 L 151.867188 98.0625 L 151.855469 112.894531 L 139.808594 130.722656 L 121.863281 130.714844 L 132.542969 112.417969 L 121.179688 112.417969 C 115.492188 112.960938 111.335938 117.496094 111.175781 123.316406 C 111 129.574219 115.941406 134.816406 122.078125 134.898438 L 151.398438 134.898438 L 151.398438 148.089844 Z M 151.394531 148.089844 "/><path style=" stroke:none;fill-rule:nonzero;fill:#000000;fill-opacity:1;" d="M 189.351562 148.089844 C 189.132812 149.476562 187.535156 149.484375 187.535156 149.484375 L 177.757812 149.484375 C 163.675781 148.089844 152.941406 136.972656 152.53125 124.472656 C 152.085938 111.027344 162.542969 98.984375 175.714844 98.066406 L 212.085938 98.0625 L 211.847656 148.089844 L 194.125 148.089844 L 194.136719 113.113281 L 181.167969 113.121094 C 175.476562 113.441406 171.128906 117.96875 170.945312 123.777344 C 170.753906 129.664062 174.960938 134.554688 180.714844 135.125 L 189.355469 135.125 L 189.355469 148.089844 Z M 189.351562 148.089844 "/><path style=" stroke:none;fill-rule:nonzero;fill:#000000;fill-opacity:1;" d="M 189.351562 148.089844 C 189.132812 149.476562 187.535156 149.484375 187.535156 149.484375 L 177.757812 149.484375 C 163.675781 148.089844 152.941406 136.972656 152.53125 124.472656 C 152.085938 111.027344 162.542969 98.984375 175.714844 98.066406 L 212.085938 98.0625 L 211.847656 148.089844 L 194.125 148.089844 L 194.136719 113.113281 L 181.167969 113.121094 C 175.476562 113.441406 171.128906 117.96875 170.945312 123.777344 C 170.753906 129.664062 174.960938 134.554688 180.714844 135.125 L 189.355469 135.125 L 189.355469 148.089844 Z M 189.351562 148.089844 "/><path style=" stroke:none;fill-rule:nonzero;fill:#000000;fill-opacity:1;" d="M 250.9375 148.089844 L 230.714844 148.089844 C 214.585938 145.773438 214.351562 131.882812 214.351562 131.882812 L 214.578125 84.617188 L 232.53125 84.617188 L 232.542969 98.058594 L 251.167969 98.0625 L 251.167969 113.582031 L 232.996094 113.574219 L 232.757812 128.175781 C 233.679688 134.886719 241.167969 135.359375 241.167969 135.359375 L 250.949219 135.347656 Z M 250.9375 148.089844 "/><path style=" stroke:none;fill-rule:nonzero;fill:#000000;fill-opacity:1;" d="M 250.9375 148.089844 L 230.714844 148.089844 C 214.585938 145.773438 214.351562 131.882812 214.351562 131.882812 L 214.578125 84.617188 L 232.53125 84.617188 L 232.542969 98.058594 L 251.167969 98.0625 L 251.167969 113.582031 L 232.996094 113.574219 L 232.757812 128.175781 C 233.679688 134.886719 241.167969 135.359375 241.167969 135.359375 L 250.949219 135.347656 Z M 250.9375 148.089844 "/><path style=" stroke:none;fill-rule:nonzero;fill:#000000;fill-opacity:1;" d="M 253.664062 148.089844 L 253.675781 114.96875 C 254.582031 97.363281 273.449219 98.0625 273.449219 98.0625 L 285.484375 98.066406 L 285.484375 112.660156 L 276.160156 112.660156 C 270.722656 113.339844 270.710938 119.605469 270.710938 119.605469 L 270.710938 148.085938 L 253.660156 148.085938 Z M 253.664062 148.089844 "/><path style=" stroke:none;fill-rule:nonzero;fill:#000000;fill-opacity:1;" d="M 253.664062 148.089844 L 253.675781 114.96875 C 254.582031 97.363281 273.449219 98.0625 273.449219 98.0625 L 285.484375 98.066406 L 285.484375 112.660156 L 276.160156 112.660156 C 270.722656 113.339844 270.710938 119.605469 270.710938 119.605469 L 270.710938 148.085938 L 253.660156 148.085938 Z M 253.664062 148.089844 "/><path style=" stroke:none;fill-rule:nonzero;fill:#000000;fill-opacity:1;" d="M 289.347656 102 L 307.539062 102 L 307.539062 148.085938 L 289.347656 148.085938 Z M 289.347656 102 "/><path style=" stroke:none;fill-rule:nonzero;fill:#000000;fill-opacity:1;" d="M 289.347656 102 L 307.539062 102 L 307.539062 148.085938 L 289.347656 148.085938 Z M 289.347656 102 "/><path style=" stroke:none;fill-rule:nonzero;fill:#000000;fill-opacity:1;" d="M 348.21875 148.089844 L 327.992188 148.089844 C 311.863281 145.773438 311.625 131.882812 311.625 131.882812 L 311.855469 84.617188 L 329.808594 84.617188 L 329.816406 98.058594 L 348.445312 98.0625 L 348.445312 113.582031 L 330.269531 113.574219 L 330.035156 128.175781 C 330.949219 134.886719 338.441406 135.359375 338.441406 135.359375 L 348.21875 135.347656 L 348.214844 148.089844 Z M 348.21875 148.089844 "/><path style=" stroke:none;fill-rule:nonzero;fill:#000000;fill-opacity:1;" d="M 348.21875 148.089844 L 327.992188 148.089844 C 311.863281 145.773438 311.625 131.882812 311.625 131.882812 L 311.855469 84.617188 L 329.808594 84.617188 L 329.816406 98.058594 L 348.445312 98.0625 L 348.445312 113.582031 L 330.269531 113.574219 L 330.035156 128.175781 C 330.949219 134.886719 338.441406 135.359375 338.441406 135.359375 L 348.21875 135.347656 L 348.214844 148.089844 Z M 348.21875 148.089844 "/><path style=" stroke:none;fill-rule:nonzero;fill:#000000;fill-opacity:1;" d="M 407.535156 148.089844 L 373.445312 148.089844 C 359.90625 148.214844 348.800781 137.105469 348.671875 123.316406 C 348.542969 109.261719 360.117188 97.675781 373.898438 98.066406 L 407.996094 98.054688 L 407.992188 112.890625 L 395.945312 130.722656 L 377.996094 130.714844 L 388.679688 112.414062 L 377.316406 112.414062 C 371.632812 112.960938 367.46875 117.492188 367.304688 123.3125 C 367.136719 129.570312 372.066406 134.8125 378.214844 134.894531 L 407.535156 134.894531 Z M 407.535156 148.089844 "/><path style=" stroke:none;fill-rule:nonzero;fill:#000000;fill-opacity:1;" d="M 407.535156 148.089844 L 373.445312 148.089844 C 359.90625 148.214844 348.800781 137.105469 348.671875 123.316406 C 348.542969 109.261719 360.117188 97.675781 373.898438 98.066406 L 407.996094 98.054688 L 407.992188 112.890625 L 395.945312 130.722656 L 377.996094 130.714844 L 388.679688 112.414062 L 377.316406 112.414062 C 371.632812 112.960938 367.46875 117.492188 367.304688 123.3125 C 367.136719 129.570312 372.066406 134.8125 378.214844 134.894531 L 407.535156 134.894531 Z M 407.535156 148.089844 "/><g clip-rule="nonzero" clip-path="url(#e50a26b707)"><path style=" stroke:none;fill-rule:nonzero;fill:#000000;fill-opacity:1;" d="M 308.476562 74.269531 C 308.492188 74.3125 310.527344 81.6875 300.75 98.828125 L 298.269531 99.097656 C 296.433594 101.371094 305.976562 82.84375 297.398438 75.082031 C 292.117188 84.933594 293.476562 87.480469 296.960938 99.097656 L 295.523438 99.058594 C 295.523438 99.058594 284.113281 81.097656 287.113281 74.738281 C 293.023438 62.230469 297.003906 44.398438 297.617188 42.84375 C 299.617188 47.875 305.070312 65.703125 308.476562 74.277344 "/></g><path style=" stroke:none;fill-rule:nonzero;fill:#000000;fill-opacity:1;" d="M 414.851562 141.96875 L 417.109375 141.96875 L 417.109375 140.621094 L 411.050781 140.621094 L 411.050781 141.96875 L 413.300781 141.96875 L 413.300781 148.214844 L 414.851562 148.214844 Z M 414.851562 141.96875 "/><g clip-rule="nonzero" clip-path="url(#af18bf0650)"><path style=" stroke:none;fill-rule:nonzero;fill:#000000;fill-opacity:1;" d="M 425.175781 140.625 L 422.925781 140.625 L 421.601562 146.605469 L 421.578125 146.605469 L 420.226562 140.625 L 417.957031 140.625 L 417.957031 148.214844 L 419.410156 148.214844 L 419.410156 141.867188 L 419.429688 141.867188 L 420.785156 148.214844 L 422.316406 148.214844 L 423.703125 141.867188 L 423.726562 141.867188 L 423.726562 148.214844 L 425.175781 148.214844 Z M 425.175781 140.625 "/></g><path style=" stroke:none;fill-rule:nonzero;fill:#000000;fill-opacity:1;" d="M 33.109375 163.511719 C 33.109375 163.765625 32.933594 164.316406 32.574219 165.164062 C 32.21875 166.007812 31.824219 167.019531 31.394531 168.1875 L 30.804688 168.1875 C 30.835938 167.070312 30.855469 166.121094 30.855469 165.347656 C 30.855469 164.570312 30.878906 164.039062 30.933594 163.746094 C 30.984375 163.453125 31.125 163.191406 31.359375 162.972656 C 31.589844 162.753906 31.878906 162.644531 32.21875 162.644531 C 32.519531 162.644531 32.746094 162.730469 32.890625 162.894531 C 33.035156 163.0625 33.109375 163.265625 33.109375 163.511719 M 29.453125 163.511719 C 29.453125 163.765625 29.277344 164.316406 28.917969 165.164062 C 28.5625 166.007812 28.167969 167.019531 27.742188 168.1875 L 27.148438 168.1875 C 27.179688 167.070312 27.199219 166.121094 27.199219 165.347656 C 27.199219 164.570312 27.222656 164.039062 27.277344 163.746094 C 27.328125 163.453125 27.472656 163.191406 27.703125 162.972656 C 27.933594 162.753906 28.222656 162.644531 28.566406 162.644531 C 28.867188 162.644531 29.09375 162.730469 29.238281 162.894531 C 29.382812 163.0625 29.453125 163.265625 29.453125 163.511719 "/><path style=" stroke:none;fill-rule:nonzero;fill:#000000;fill-opacity:1;" d="M 45.21875 166.558594 C 45.21875 167.359375 45.042969 168.070312 44.699219 168.695312 C 44.351562 169.320312 43.90625 169.84375 43.359375 170.257812 C 42.789062 170.691406 42.148438 171.019531 41.441406 171.242188 C 40.734375 171.464844 39.996094 171.574219 39.226562 171.574219 L 37.542969 171.574219 L 36.558594 175.914062 C 36.546875 175.972656 36.539062 176.03125 36.53125 176.097656 C 36.527344 176.167969 36.519531 176.222656 36.519531 176.265625 C 36.519531 176.414062 36.546875 176.542969 36.597656 176.652344 C 36.648438 176.765625 36.753906 176.855469 36.910156 176.921875 C 37.003906 176.964844 37.203125 177.007812 37.496094 177.046875 C 37.789062 177.089844 38.054688 177.109375 38.285156 177.117188 L 38.140625 177.761719 L 32.226562 177.761719 L 32.371094 177.117188 C 32.535156 177.101562 32.765625 177.082031 33.0625 177.046875 C 33.359375 177.015625 33.578125 176.972656 33.714844 176.921875 C 33.945312 176.828125 34.121094 176.691406 34.242188 176.519531 C 34.363281 176.34375 34.445312 176.140625 34.488281 175.910156 L 36.804688 165.679688 C 36.820312 165.621094 36.828125 165.558594 36.835938 165.484375 C 36.847656 165.410156 36.851562 165.339844 36.851562 165.273438 C 36.851562 165.136719 36.828125 165.011719 36.773438 164.898438 C 36.722656 164.785156 36.625 164.699219 36.480469 164.640625 C 36.273438 164.5625 36.054688 164.5 35.820312 164.464844 C 35.589844 164.425781 35.375 164.402344 35.183594 164.386719 L 35.324219 163.738281 L 41.457031 163.738281 C 42.566406 163.738281 43.46875 163.988281 44.167969 164.492188 C 44.863281 164.996094 45.210938 165.6875 45.210938 166.5625 M 42.105469 169.222656 C 42.371094 168.835938 42.558594 168.417969 42.667969 167.980469 C 42.78125 167.542969 42.835938 167.136719 42.835938 166.753906 C 42.835938 166.449219 42.796875 166.164062 42.714844 165.894531 C 42.632812 165.625 42.492188 165.382812 42.300781 165.164062 C 42.105469 164.953125 41.859375 164.785156 41.554688 164.664062 C 41.253906 164.542969 40.871094 164.484375 40.414062 164.484375 L 39.15625 164.484375 L 37.746094 170.738281 L 38.84375 170.738281 C 39.589844 170.738281 40.238281 170.613281 40.78125 170.355469 C 41.328125 170.105469 41.765625 169.726562 42.109375 169.21875 "/><path style=" stroke:none;fill-rule:nonzero;fill:#000000;fill-opacity:1;" d="M 50.417969 162.609375 L 47.703125 174.511719 C 47.648438 174.757812 47.59375 175.011719 47.539062 175.261719 C 47.488281 175.511719 47.460938 175.714844 47.460938 175.871094 C 47.460938 176.25 47.542969 176.507812 47.707031 176.644531 C 47.875 176.78125 48.140625 176.851562 48.507812 176.851562 C 48.636719 176.851562 48.828125 176.839844 49.082031 176.804688 C 49.339844 176.769531 49.53125 176.734375 49.65625 176.691406 L 49.511719 177.316406 C 48.929688 177.550781 48.480469 177.71875 48.167969 177.820312 C 47.855469 177.914062 47.503906 177.964844 47.109375 177.964844 C 46.589844 177.964844 46.199219 177.828125 45.929688 177.554688 C 45.660156 177.28125 45.527344 176.945312 45.527344 176.542969 C 45.527344 176.390625 45.539062 176.230469 45.570312 176.066406 C 45.597656 175.902344 45.636719 175.695312 45.691406 175.445312 L 48.050781 165.039062 C 48.097656 164.835938 48.128906 164.691406 48.144531 164.609375 C 48.160156 164.535156 48.167969 164.433594 48.167969 164.316406 C 48.167969 164.078125 48.128906 163.898438 48.054688 163.769531 C 47.976562 163.636719 47.867188 163.542969 47.722656 163.476562 C 47.585938 163.417969 47.417969 163.375 47.207031 163.359375 C 47.003906 163.335938 46.792969 163.316406 46.578125 163.289062 L 46.71875 162.679688 L 50.320312 162.460938 Z M 50.417969 162.609375 "/><path style=" stroke:none;fill-rule:nonzero;fill:#000000;fill-opacity:1;" d="M 57.128906 176.375 L 57.070312 176.375 C 56.773438 176.621094 56.488281 176.84375 56.21875 177.046875 C 55.945312 177.25 55.675781 177.425781 55.414062 177.5625 C 55.101562 177.71875 54.820312 177.835938 54.566406 177.902344 C 54.316406 177.972656 53.984375 178.003906 53.582031 178.003906 C 52.960938 178.003906 52.476562 177.824219 52.136719 177.460938 C 51.792969 177.09375 51.625 176.617188 51.625 176.027344 C 51.625 175.871094 51.636719 175.679688 51.660156 175.464844 C 51.6875 175.25 51.75 174.929688 51.84375 174.5 L 52.59375 171.378906 C 52.660156 171.09375 52.710938 170.835938 52.753906 170.617188 C 52.792969 170.390625 52.816406 170.179688 52.816406 169.972656 C 52.816406 169.609375 52.757812 169.363281 52.636719 169.238281 C 52.515625 169.117188 52.273438 169.054688 51.902344 169.054688 C 51.761719 169.054688 51.582031 169.085938 51.359375 169.140625 C 51.140625 169.195312 50.96875 169.246094 50.84375 169.28125 L 50.996094 168.625 C 51.503906 168.386719 51.949219 168.207031 52.339844 168.085938 C 52.726562 167.960938 53.039062 167.902344 53.273438 167.902344 C 53.792969 167.902344 54.179688 168.023438 54.421875 168.273438 C 54.667969 168.519531 54.785156 168.867188 54.785156 169.320312 C 54.785156 169.441406 54.773438 169.601562 54.746094 169.804688 C 54.722656 170.007812 54.683594 170.210938 54.632812 170.414062 L 53.777344 174.070312 C 53.710938 174.34375 53.660156 174.605469 53.617188 174.847656 C 53.574219 175.085938 53.554688 175.269531 53.554688 175.394531 C 53.554688 175.832031 53.648438 176.183594 53.835938 176.441406 C 54.019531 176.695312 54.3125 176.824219 54.71875 176.824219 C 55.121094 176.824219 55.546875 176.710938 55.976562 176.492188 C 56.410156 176.273438 56.84375 175.941406 57.28125 175.488281 L 58.964844 168.054688 L 60.660156 167.9375 L 60.777344 168.085938 L 59.34375 174.445312 C 59.28125 174.714844 59.222656 174.988281 59.171875 175.257812 C 59.121094 175.535156 59.09375 175.722656 59.09375 175.835938 C 59.09375 176.210938 59.171875 176.46875 59.332031 176.601562 C 59.488281 176.738281 59.75 176.804688 60.113281 176.804688 C 60.234375 176.804688 60.410156 176.785156 60.632812 176.746094 C 60.855469 176.710938 61.03125 176.667969 61.152344 176.621094 L 61.007812 177.25 C 60.46875 177.472656 60.023438 177.640625 59.664062 177.75 C 59.304688 177.863281 58.972656 177.917969 58.667969 177.917969 C 58.144531 177.917969 57.757812 177.761719 57.5 177.453125 C 57.246094 177.140625 57.117188 176.78125 57.117188 176.367188 "/><path style=" stroke:none;fill-rule:nonzero;fill:#000000;fill-opacity:1;" d="M 78.589844 176.652344 L 78.441406 177.277344 C 77.839844 177.519531 77.359375 177.6875 77 177.78125 C 76.640625 177.878906 76.332031 177.921875 76.078125 177.921875 C 75.554688 177.921875 75.160156 177.785156 74.898438 177.511719 C 74.640625 177.238281 74.507812 176.902344 74.507812 176.5 C 74.507812 176.351562 74.519531 176.195312 74.546875 176.015625 C 74.570312 175.839844 74.613281 175.636719 74.675781 175.398438 L 75.628906 171.710938 C 75.703125 171.425781 75.761719 171.171875 75.800781 170.941406 C 75.839844 170.707031 75.863281 170.523438 75.863281 170.386719 C 75.863281 169.945312 75.769531 169.597656 75.585938 169.339844 C 75.402344 169.082031 75.105469 168.953125 74.703125 168.953125 C 74.273438 168.953125 73.855469 169.058594 73.441406 169.265625 C 73.03125 169.472656 72.5625 169.859375 72.046875 170.429688 L 70.347656 177.757812 L 68.542969 177.757812 L 70.070312 171.148438 C 70.101562 171 70.132812 170.851562 70.164062 170.691406 C 70.195312 170.527344 70.207031 170.40625 70.207031 170.328125 C 70.207031 169.898438 70.101562 169.5625 69.894531 169.320312 C 69.6875 169.074219 69.378906 168.953125 68.976562 168.953125 C 68.613281 168.953125 68.207031 169.050781 67.765625 169.238281 C 67.324219 169.425781 66.808594 169.847656 66.226562 170.5 L 64.570312 177.761719 L 62.753906 177.761719 L 64.207031 171.351562 C 64.257812 171.121094 64.3125 170.871094 64.359375 170.605469 C 64.410156 170.34375 64.429688 170.121094 64.429688 169.933594 C 64.429688 169.550781 64.371094 169.296875 64.246094 169.175781 C 64.121094 169.054688 63.882812 168.992188 63.527344 168.992188 C 63.382812 168.992188 63.199219 169.019531 62.976562 169.078125 C 62.753906 169.132812 62.582031 169.179688 62.457031 169.214844 L 62.601562 168.570312 C 63.109375 168.335938 63.558594 168.164062 63.945312 168.046875 C 64.335938 167.9375 64.671875 167.878906 64.949219 167.878906 C 65.46875 167.878906 65.835938 168.023438 66.054688 168.308594 C 66.273438 168.597656 66.386719 168.992188 66.402344 169.488281 L 66.460938 169.488281 C 67.222656 168.875 67.847656 168.4375 68.339844 168.171875 C 68.828125 167.910156 69.414062 167.777344 70.089844 167.777344 C 70.664062 167.777344 71.128906 167.945312 71.488281 168.285156 C 71.84375 168.625 72.046875 169.050781 72.09375 169.566406 L 72.132812 169.566406 C 72.824219 168.976562 73.433594 168.53125 73.972656 168.230469 C 74.507812 167.929688 75.132812 167.777344 75.851562 167.777344 C 76.46875 167.777344 76.945312 167.960938 77.273438 168.324219 C 77.605469 168.691406 77.773438 169.171875 77.773438 169.765625 C 77.773438 169.882812 77.753906 170.09375 77.71875 170.398438 C 77.6875 170.699219 77.628906 171 77.550781 171.296875 L 76.738281 174.46875 C 76.679688 174.683594 76.625 174.921875 76.570312 175.199219 C 76.519531 175.472656 76.492188 175.6875 76.492188 175.835938 C 76.492188 176.210938 76.570312 176.46875 76.730469 176.601562 C 76.886719 176.738281 77.148438 176.804688 77.519531 176.804688 C 77.640625 176.804688 77.820312 176.792969 78.054688 176.757812 C 78.289062 176.726562 78.46875 176.6875 78.589844 176.644531 "/><path style=" stroke:none;fill-rule:nonzero;fill:#000000;fill-opacity:1;" d="M 89.5 171.566406 C 89.5 172.445312 89.34375 173.285156 89.035156 174.082031 C 88.722656 174.886719 88.3125 175.578125 87.800781 176.15625 C 87.277344 176.753906 86.683594 177.21875 86.023438 177.558594 C 85.363281 177.898438 84.664062 178.066406 83.925781 178.066406 C 83.371094 178.066406 82.875 178.019531 82.453125 177.925781 C 82.027344 177.828125 81.667969 177.695312 81.371094 177.535156 C 81.066406 177.363281 80.8125 177.167969 80.609375 176.957031 C 80.410156 176.742188 80.230469 176.5 80.066406 176.238281 L 82.5625 165.039062 C 82.59375 164.890625 82.621094 164.757812 82.644531 164.652344 C 82.667969 164.542969 82.675781 164.429688 82.675781 164.320312 C 82.675781 164.082031 82.636719 163.898438 82.5625 163.769531 C 82.484375 163.640625 82.375 163.542969 82.234375 163.476562 C 82.097656 163.417969 81.925781 163.378906 81.726562 163.359375 C 81.519531 163.339844 81.3125 163.316406 81.097656 163.292969 L 81.230469 162.683594 L 84.808594 162.460938 L 84.90625 162.613281 L 83.441406 169.179688 L 83.480469 169.179688 C 84.066406 168.652344 84.582031 168.289062 85.027344 168.085938 C 85.472656 167.886719 85.90625 167.785156 86.324219 167.785156 C 87.3125 167.785156 88.089844 168.128906 88.652344 168.808594 C 89.214844 169.492188 89.5 170.414062 89.5 171.566406 M 87.511719 171.59375 C 87.511719 171.246094 87.480469 170.890625 87.417969 170.539062 C 87.359375 170.183594 87.253906 169.886719 87.113281 169.648438 C 86.964844 169.398438 86.757812 169.203125 86.496094 169.054688 C 86.234375 168.910156 85.914062 168.835938 85.527344 168.835938 C 85.296875 168.835938 85.085938 168.875 84.882812 168.957031 C 84.679688 169.035156 84.472656 169.140625 84.253906 169.273438 C 84.066406 169.394531 83.882812 169.539062 83.703125 169.707031 C 83.523438 169.875 83.359375 170.027344 83.210938 170.15625 L 81.917969 176.039062 C 81.9375 176.171875 81.996094 176.316406 82.09375 176.476562 C 82.191406 176.636719 82.3125 176.773438 82.464844 176.894531 C 82.648438 177.046875 82.851562 177.164062 83.078125 177.242188 C 83.308594 177.320312 83.558594 177.359375 83.832031 177.359375 C 84.347656 177.359375 84.832031 177.207031 85.28125 176.898438 C 85.730469 176.59375 86.121094 176.175781 86.449219 175.652344 C 86.804688 175.085938 87.074219 174.449219 87.25 173.746094 C 87.425781 173.050781 87.511719 172.328125 87.511719 171.597656 "/><path style=" stroke:none;fill-rule:nonzero;fill:#000000;fill-opacity:1;" d="M 95.523438 176.691406 L 95.382812 177.316406 C 94.785156 177.5625 94.3125 177.730469 93.953125 177.820312 C 93.601562 177.917969 93.296875 177.964844 93.046875 177.964844 C 92.527344 177.964844 92.140625 177.828125 91.878906 177.554688 C 91.625 177.28125 91.492188 176.949219 91.492188 176.542969 C 91.492188 176.394531 91.507812 176.234375 91.535156 176.070312 C 91.558594 175.90625 91.601562 175.695312 91.660156 175.449219 L 92.6875 171.257812 C 92.738281 171.027344 92.792969 170.785156 92.835938 170.519531 C 92.886719 170.257812 92.910156 170.035156 92.910156 169.851562 C 92.910156 169.480469 92.851562 169.238281 92.734375 169.113281 C 92.609375 168.992188 92.367188 168.933594 92 168.933594 C 91.859375 168.933594 91.667969 168.953125 91.433594 169 C 91.199219 169.042969 91.019531 169.082031 90.894531 169.113281 L 91.042969 168.464844 C 91.550781 168.230469 92.003906 168.058594 92.402344 167.945312 C 92.804688 167.835938 93.121094 167.777344 93.355469 167.777344 C 93.886719 167.777344 94.273438 167.902344 94.511719 168.160156 C 94.75 168.414062 94.867188 168.761719 94.867188 169.199219 C 94.867188 169.316406 94.855469 169.476562 94.832031 169.683594 C 94.804688 169.882812 94.765625 170.09375 94.714844 170.296875 L 93.675781 174.5 C 93.609375 174.753906 93.550781 175.007812 93.507812 175.253906 C 93.457031 175.503906 93.433594 175.703125 93.433594 175.863281 C 93.433594 176.238281 93.515625 176.496094 93.679688 176.636719 C 93.84375 176.773438 94.109375 176.839844 94.472656 176.839844 C 94.597656 176.839844 94.769531 176.828125 95 176.796875 C 95.230469 176.761719 95.402344 176.722656 95.523438 176.679688 M 96.222656 164.050781 C 96.222656 164.425781 96.101562 164.753906 95.859375 165.039062 C 95.617188 165.316406 95.320312 165.457031 94.960938 165.457031 C 94.628906 165.457031 94.339844 165.320312 94.097656 165.054688 C 93.859375 164.785156 93.738281 164.480469 93.738281 164.136719 C 93.738281 163.773438 93.859375 163.457031 94.097656 163.183594 C 94.339844 162.914062 94.625 162.78125 94.960938 162.78125 C 95.332031 162.78125 95.632812 162.90625 95.867188 163.164062 C 96.101562 163.417969 96.222656 163.710938 96.222656 164.046875 "/><path style=" stroke:none;fill-rule:nonzero;fill:#000000;fill-opacity:1;" d="M 107.246094 176.589844 L 107.097656 177.234375 C 106.511719 177.472656 106.054688 177.652344 105.726562 177.761719 C 105.398438 177.871094 105.070312 177.925781 104.738281 177.925781 C 104.214844 177.925781 103.820312 177.789062 103.5625 177.515625 C 103.300781 177.242188 103.167969 176.90625 103.167969 176.503906 C 103.167969 176.355469 103.183594 176.199219 103.207031 176.019531 C 103.234375 175.84375 103.273438 175.636719 103.335938 175.402344 L 104.292969 171.714844 C 104.363281 171.429688 104.421875 171.171875 104.460938 170.941406 C 104.503906 170.710938 104.527344 170.523438 104.527344 170.386719 C 104.527344 169.945312 104.421875 169.597656 104.21875 169.339844 C 104.015625 169.082031 103.710938 168.953125 103.308594 168.953125 C 102.90625 168.953125 102.480469 169.085938 101.996094 169.347656 C 101.511719 169.613281 101.054688 169.992188 100.628906 170.492188 L 98.972656 177.757812 L 97.15625 177.757812 L 98.609375 171.34375 C 98.640625 171.183594 98.691406 170.953125 98.75 170.652344 C 98.808594 170.351562 98.84375 170.113281 98.84375 169.925781 C 98.84375 169.554688 98.78125 169.304688 98.660156 169.179688 C 98.539062 169.054688 98.292969 168.996094 97.921875 168.996094 C 97.777344 168.996094 97.597656 169.023438 97.375 169.078125 C 97.152344 169.136719 96.984375 169.179688 96.859375 169.222656 L 97.003906 168.574219 C 97.511719 168.339844 97.960938 168.167969 98.351562 168.054688 C 98.742188 167.941406 99.078125 167.886719 99.355469 167.886719 C 99.867188 167.886719 100.234375 168.023438 100.457031 168.308594 C 100.679688 168.59375 100.796875 168.984375 100.804688 169.488281 L 100.863281 169.488281 C 101.574219 168.910156 102.1875 168.480469 102.703125 168.203125 C 103.21875 167.921875 103.804688 167.785156 104.460938 167.785156 C 105.082031 167.785156 105.566406 167.96875 105.910156 168.332031 C 106.257812 168.699219 106.433594 169.179688 106.433594 169.773438 C 106.433594 169.890625 106.417969 170.101562 106.378906 170.40625 C 106.34375 170.707031 106.289062 171.011719 106.210938 171.304688 L 105.394531 174.476562 C 105.335938 174.691406 105.28125 174.933594 105.226562 175.207031 C 105.171875 175.480469 105.144531 175.695312 105.144531 175.84375 C 105.144531 176.21875 105.222656 176.476562 105.386719 176.613281 C 105.550781 176.746094 105.816406 176.8125 106.1875 176.8125 C 106.308594 176.8125 106.488281 176.789062 106.71875 176.742188 C 106.945312 176.695312 107.125 176.644531 107.246094 176.59375 "/><g clip-rule="nonzero" clip-path="url(#caa8909479)"><path style=" stroke:none;fill-rule:nonzero;fill:#000000;fill-opacity:1;" d="M 114.6875 176.433594 L 114.621094 176.410156 C 114.492188 176.519531 114.308594 176.664062 114.074219 176.859375 C 113.835938 177.050781 113.589844 177.21875 113.328125 177.363281 C 113.03125 177.542969 112.730469 177.6875 112.425781 177.800781 C 112.121094 177.914062 111.78125 177.96875 111.414062 177.96875 C 110.472656 177.96875 109.75 177.628906 109.242188 176.953125 C 108.734375 176.277344 108.480469 175.347656 108.480469 174.160156 C 108.480469 173.34375 108.625 172.546875 108.917969 171.773438 C 109.214844 171.003906 109.617188 170.316406 110.128906 169.714844 C 110.625 169.136719 111.210938 168.667969 111.898438 168.3125 C 112.585938 167.960938 113.304688 167.785156 114.054688 167.785156 C 114.519531 167.785156 114.960938 167.84375 115.378906 167.96875 C 115.789062 168.085938 116.125 168.230469 116.375 168.394531 L 118.15625 167.929688 L 118.273438 168.078125 L 116.644531 175.878906 C 116.402344 177.058594 116.082031 178.058594 115.699219 178.871094 C 115.3125 179.6875 114.863281 180.332031 114.359375 180.808594 C 113.839844 181.292969 113.269531 181.640625 112.644531 181.851562 C 112.019531 182.058594 111.308594 182.164062 110.519531 182.164062 C 109.980469 182.164062 109.539062 182.121094 109.203125 182.03125 C 108.859375 181.945312 108.589844 181.835938 108.398438 181.691406 C 108.203125 181.554688 108.070312 181.398438 108.003906 181.222656 C 107.9375 181.046875 107.902344 180.878906 107.902344 180.71875 C 107.902344 180.425781 107.988281 180.171875 108.164062 179.972656 C 108.339844 179.769531 108.582031 179.671875 108.886719 179.671875 C 109.125 179.671875 109.332031 179.742188 109.5 179.886719 C 109.667969 180.023438 109.800781 180.179688 109.90625 180.34375 C 110.019531 180.515625 110.125 180.71875 110.226562 180.960938 C 110.328125 181.195312 110.40625 181.375 110.460938 181.492188 L 110.753906 181.492188 C 111.109375 181.492188 111.492188 181.410156 111.898438 181.246094 C 112.3125 181.082031 112.679688 180.8125 113.019531 180.445312 C 113.363281 180.0625 113.683594 179.550781 113.984375 178.914062 C 114.28125 178.265625 114.519531 177.441406 114.691406 176.433594 M 115.976562 170.113281 C 115.976562 169.929688 115.949219 169.738281 115.894531 169.546875 C 115.839844 169.351562 115.738281 169.171875 115.585938 169.007812 C 115.445312 168.851562 115.261719 168.722656 115.042969 168.632812 C 114.820312 168.539062 114.539062 168.496094 114.195312 168.496094 C 113.695312 168.496094 113.226562 168.648438 112.78125 168.953125 C 112.335938 169.257812 111.9375 169.683594 111.582031 170.210938 C 111.25 170.714844 110.980469 171.320312 110.773438 172.03125 C 110.566406 172.742188 110.460938 173.453125 110.460938 174.175781 C 110.460938 174.566406 110.488281 174.921875 110.542969 175.25 C 110.597656 175.574219 110.691406 175.859375 110.832031 176.101562 C 110.96875 176.34375 111.148438 176.535156 111.371094 176.671875 C 111.597656 176.804688 111.890625 176.871094 112.246094 176.871094 C 112.703125 176.871094 113.152344 176.742188 113.605469 176.472656 C 114.050781 176.207031 114.476562 175.863281 114.882812 175.449219 L 115.972656 170.113281 Z M 115.976562 170.113281 "/></g><path style=" stroke:none;fill-rule:nonzero;fill:#000000;fill-opacity:1;" d="M 123.175781 176.796875 C 123.175781 177.359375 123.046875 177.878906 122.796875 178.367188 C 122.542969 178.847656 122.222656 179.285156 121.828125 179.675781 C 121.449219 180.046875 121.0625 180.375 120.660156 180.636719 C 120.257812 180.902344 119.902344 181.113281 119.59375 181.265625 L 119.28125 180.601562 C 119.578125 180.4375 119.878906 180.253906 120.179688 180.046875 C 120.484375 179.835938 120.742188 179.625 120.945312 179.417969 C 121.203125 179.160156 121.421875 178.90625 121.601562 178.652344 C 121.777344 178.40625 121.917969 178.097656 122.019531 177.746094 L 121.566406 177.746094 C 121.175781 177.746094 120.882812 177.644531 120.6875 177.441406 C 120.492188 177.242188 120.394531 176.980469 120.394531 176.65625 C 120.394531 176.3125 120.523438 176 120.78125 175.707031 C 121.039062 175.417969 121.390625 175.273438 121.828125 175.273438 C 122.300781 175.273438 122.640625 175.410156 122.855469 175.691406 C 123.070312 175.972656 123.175781 176.339844 123.175781 176.796875 "/><path style=" stroke:none;fill-rule:nonzero;fill:#000000;fill-opacity:1;" d="M 140.796875 164.289062 C 141.152344 164.484375 141.429688 164.746094 141.628906 165.074219 C 141.832031 165.398438 141.933594 165.785156 141.933594 166.214844 C 141.933594 166.816406 141.816406 167.339844 141.582031 167.800781 C 141.351562 168.253906 141.046875 168.636719 140.671875 168.945312 C 140.285156 169.265625 139.859375 169.523438 139.375 169.734375 C 138.890625 169.941406 138.40625 170.09375 137.914062 170.195312 L 137.914062 170.28125 C 138.289062 170.328125 138.679688 170.417969 139.082031 170.554688 C 139.484375 170.6875 139.84375 170.867188 140.167969 171.089844 C 140.511719 171.320312 140.789062 171.617188 141.007812 171.984375 C 141.226562 172.351562 141.335938 172.785156 141.335938 173.285156 C 141.335938 174.03125 141.167969 174.6875 140.824219 175.257812 C 140.488281 175.828125 140.058594 176.292969 139.539062 176.648438 C 138.984375 177.03125 138.382812 177.3125 137.746094 177.492188 C 137.109375 177.675781 136.449219 177.765625 135.777344 177.765625 L 129.050781 177.765625 L 129.203125 177.117188 C 129.359375 177.105469 129.59375 177.078125 129.902344 177.035156 C 130.214844 176.992188 130.433594 176.9375 130.570312 176.878906 C 130.800781 176.789062 130.972656 176.660156 131.089844 176.5 C 131.210938 176.335938 131.292969 176.140625 131.347656 175.910156 L 133.652344 165.71875 C 133.667969 165.652344 133.675781 165.589844 133.6875 165.527344 C 133.695312 165.460938 133.703125 165.398438 133.703125 165.332031 C 133.703125 165.191406 133.675781 165.074219 133.617188 164.96875 C 133.5625 164.867188 133.46875 164.78125 133.332031 164.707031 C 133.148438 164.601562 132.945312 164.523438 132.734375 164.476562 C 132.527344 164.425781 132.332031 164.394531 132.148438 164.382812 L 132.304688 163.734375 L 138.378906 163.734375 C 138.839844 163.734375 139.269531 163.773438 139.664062 163.855469 C 140.0625 163.9375 140.4375 164.082031 140.796875 164.285156 M 138.734375 168.855469 C 139.035156 168.492188 139.257812 168.113281 139.386719 167.707031 C 139.523438 167.300781 139.589844 166.84375 139.589844 166.332031 C 139.589844 165.984375 139.527344 165.683594 139.40625 165.441406 C 139.28125 165.199219 139.109375 165.003906 138.898438 164.863281 C 138.683594 164.722656 138.445312 164.628906 138.1875 164.570312 C 137.929688 164.511719 137.65625 164.484375 137.371094 164.484375 C 137.15625 164.484375 136.917969 164.492188 136.652344 164.5 C 136.390625 164.511719 136.171875 164.519531 135.984375 164.523438 L 134.761719 169.96875 L 135.976562 169.96875 C 136.613281 169.96875 137.160156 169.867188 137.625 169.667969 C 138.085938 169.460938 138.457031 169.191406 138.738281 168.855469 M 138.105469 175.628906 C 138.382812 175.242188 138.597656 174.8125 138.738281 174.351562 C 138.882812 173.890625 138.949219 173.4375 138.949219 172.988281 C 138.949219 172.28125 138.714844 171.726562 138.253906 171.320312 C 137.785156 170.917969 137.128906 170.71875 136.285156 170.71875 C 135.878906 170.71875 135.523438 170.722656 135.234375 170.734375 C 134.945312 170.742188 134.722656 170.75 134.574219 170.757812 L 133.476562 175.59375 C 133.457031 175.691406 133.445312 175.777344 133.433594 175.855469 C 133.425781 175.9375 133.421875 176.015625 133.421875 176.085938 C 133.421875 176.425781 133.59375 176.679688 133.9375 176.828125 C 134.28125 176.980469 134.71875 177.058594 135.25 177.058594 C 135.90625 177.058594 136.472656 176.921875 136.960938 176.644531 C 137.441406 176.371094 137.824219 176.035156 138.109375 175.628906 "/><path style=" stroke:none;fill-rule:nonzero;fill:#000000;fill-opacity:1;" d="M 149.101562 176.453125 L 149.035156 176.453125 C 148.890625 176.570312 148.722656 176.722656 148.523438 176.90625 C 148.324219 177.089844 148.097656 177.261719 147.828125 177.429688 C 147.574219 177.597656 147.296875 177.742188 147 177.863281 C 146.703125 177.988281 146.378906 178.046875 146.027344 178.046875 C 145.085938 178.046875 144.351562 177.707031 143.8125 177.019531 C 143.277344 176.335938 143.011719 175.394531 143.011719 174.207031 C 143.011719 173.390625 143.160156 172.59375 143.460938 171.820312 C 143.753906 171.050781 144.167969 170.355469 144.691406 169.742188 C 145.191406 169.152344 145.78125 168.683594 146.46875 168.324219 C 147.15625 167.960938 147.859375 167.78125 148.582031 167.78125 C 149.042969 167.78125 149.480469 167.84375 149.898438 167.964844 C 150.316406 168.089844 150.644531 168.230469 150.882812 168.386719 L 152.664062 167.921875 L 152.78125 168.070312 L 151.316406 174.453125 C 151.265625 174.660156 151.210938 174.90625 151.15625 175.199219 C 151.101562 175.496094 151.074219 175.710938 151.074219 175.847656 C 151.074219 176.226562 151.152344 176.476562 151.304688 176.613281 C 151.460938 176.742188 151.722656 176.808594 152.09375 176.808594 C 152.214844 176.808594 152.386719 176.789062 152.613281 176.75 C 152.839844 176.710938 153.019531 176.671875 153.140625 176.628906 L 152.992188 177.253906 C 152.414062 177.488281 151.976562 177.660156 151.691406 177.761719 C 151.40625 177.867188 151.0625 177.921875 150.652344 177.921875 C 150.1875 177.921875 149.816406 177.78125 149.546875 177.503906 C 149.273438 177.230469 149.125 176.878906 149.097656 176.445312 M 150.484375 170.210938 C 150.484375 169.996094 150.464844 169.789062 150.417969 169.589844 C 150.371094 169.390625 150.277344 169.207031 150.132812 169.035156 C 150.003906 168.871094 149.824219 168.742188 149.597656 168.640625 C 149.367188 168.539062 149.082031 168.492188 148.738281 168.492188 C 148.265625 168.492188 147.800781 168.648438 147.351562 168.96875 C 146.902344 169.285156 146.5 169.707031 146.144531 170.246094 C 145.804688 170.746094 145.527344 171.351562 145.316406 172.0625 C 145.101562 172.773438 144.996094 173.496094 144.996094 174.226562 C 144.996094 174.628906 145.015625 174.984375 145.0625 175.292969 C 145.105469 175.605469 145.195312 175.890625 145.324219 176.148438 C 145.449219 176.398438 145.628906 176.59375 145.863281 176.730469 C 146.097656 176.867188 146.390625 176.9375 146.75 176.9375 C 147.105469 176.9375 147.496094 176.832031 147.898438 176.625 C 148.296875 176.414062 148.75 176.050781 149.246094 175.53125 L 150.480469 170.210938 Z M 150.484375 170.210938 "/><path style=" stroke:none;fill-rule:nonzero;fill:#000000;fill-opacity:1;" d="M 156.640625 177.96875 C 156.027344 177.96875 155.578125 177.839844 155.292969 177.585938 C 155.007812 177.332031 154.867188 176.96875 154.867188 176.492188 C 154.867188 176.34375 154.878906 176.199219 154.898438 176.066406 C 154.914062 175.925781 154.941406 175.773438 154.976562 175.605469 L 156.488281 169 L 154.75 169 L 154.957031 168.113281 L 156.722656 168.113281 L 157.398438 165.214844 L 159.144531 165.214844 L 158.492188 168.113281 L 161.183594 168.113281 L 160.980469 169 L 158.3125 169 L 157.0625 174.445312 C 157.003906 174.691406 156.957031 174.9375 156.914062 175.171875 C 156.875 175.402344 156.855469 175.605469 156.855469 175.773438 C 156.855469 176.132812 156.945312 176.398438 157.125 176.566406 C 157.300781 176.734375 157.621094 176.816406 158.085938 176.816406 C 158.253906 176.816406 158.488281 176.796875 158.789062 176.753906 C 159.09375 176.710938 159.328125 176.65625 159.496094 176.59375 L 159.332031 177.316406 C 158.878906 177.492188 158.453125 177.648438 158.054688 177.777344 C 157.652344 177.90625 157.183594 177.972656 156.640625 177.972656 "/><path style=" stroke:none;fill-rule:nonzero;fill:#000000;fill-opacity:1;" d="M 171.238281 176.589844 L 171.089844 177.234375 C 170.503906 177.472656 170.050781 177.652344 169.722656 177.761719 C 169.394531 177.871094 169.066406 177.925781 168.730469 177.925781 C 168.210938 177.925781 167.820312 177.789062 167.558594 177.515625 C 167.300781 177.242188 167.167969 176.90625 167.167969 176.503906 C 167.167969 176.355469 167.179688 176.199219 167.207031 176.019531 C 167.234375 175.84375 167.273438 175.636719 167.332031 175.402344 L 168.28125 171.714844 C 168.351562 171.429688 168.410156 171.171875 168.449219 170.941406 C 168.492188 170.710938 168.511719 170.523438 168.511719 170.386719 C 168.511719 169.945312 168.410156 169.597656 168.207031 169.339844 C 168 169.082031 167.699219 168.953125 167.292969 168.953125 C 166.886719 168.953125 166.4375 169.085938 165.960938 169.359375 C 165.488281 169.632812 165.03125 170.011719 164.605469 170.5 L 162.960938 177.761719 L 161.144531 177.761719 L 164.027344 165.039062 C 164.0625 164.886719 164.085938 164.757812 164.113281 164.652344 C 164.136719 164.546875 164.144531 164.433594 164.144531 164.316406 C 164.144531 164.078125 164.105469 163.898438 164.027344 163.769531 C 163.953125 163.636719 163.84375 163.542969 163.699219 163.476562 C 163.578125 163.417969 163.410156 163.375 163.195312 163.355469 C 162.984375 163.335938 162.769531 163.316406 162.558594 163.289062 L 162.695312 162.679688 L 166.300781 162.460938 L 166.394531 162.609375 L 164.847656 169.445312 L 164.882812 169.445312 C 165.546875 168.898438 166.144531 168.484375 166.667969 168.203125 C 167.191406 167.925781 167.785156 167.785156 168.453125 167.785156 C 169.070312 167.785156 169.554688 167.96875 169.90625 168.332031 C 170.25 168.699219 170.425781 169.179688 170.425781 169.773438 C 170.425781 169.890625 170.410156 170.101562 170.371094 170.40625 C 170.335938 170.707031 170.28125 171.011719 170.203125 171.304688 L 169.386719 174.476562 C 169.335938 174.691406 169.28125 174.933594 169.226562 175.207031 C 169.167969 175.480469 169.136719 175.695312 169.136719 175.84375 C 169.136719 176.21875 169.21875 176.476562 169.378906 176.613281 C 169.542969 176.746094 169.808594 176.8125 170.179688 176.8125 C 170.300781 176.8125 170.480469 176.789062 170.710938 176.742188 C 170.941406 176.695312 171.117188 176.644531 171.242188 176.59375 "/><path style=" stroke:none;fill-rule:nonzero;fill:#000000;fill-opacity:1;" d="M 181.035156 169.394531 C 181.035156 169.578125 181.011719 169.78125 180.957031 170.003906 C 180.910156 170.222656 180.832031 170.40625 180.738281 170.550781 C 180.621094 170.730469 180.496094 170.863281 180.359375 170.960938 C 180.21875 171.058594 180.027344 171.101562 179.765625 171.101562 C 179.421875 171.101562 179.160156 171.011719 178.988281 170.835938 C 178.816406 170.65625 178.730469 170.460938 178.730469 170.246094 C 178.730469 170.027344 178.78125 169.808594 178.875 169.554688 C 178.972656 169.300781 179.074219 169.046875 179.179688 168.796875 C 179.101562 168.796875 178.972656 168.816406 178.792969 168.863281 C 178.617188 168.910156 178.402344 168.992188 178.148438 169.113281 C 177.894531 169.242188 177.609375 169.429688 177.289062 169.679688 C 176.96875 169.925781 176.625 170.261719 176.265625 170.675781 L 174.703125 177.765625 L 172.894531 177.765625 L 174.308594 171.347656 C 174.339844 171.1875 174.382812 170.953125 174.445312 170.632812 C 174.507812 170.316406 174.535156 170.082031 174.535156 169.933594 C 174.535156 169.558594 174.476562 169.3125 174.351562 169.1875 C 174.230469 169.0625 173.980469 169.003906 173.613281 169.003906 C 173.46875 169.003906 173.289062 169.027344 173.066406 169.085938 C 172.847656 169.140625 172.675781 169.1875 172.550781 169.222656 L 172.699219 168.582031 C 173.203125 168.34375 173.652344 168.171875 174.039062 168.058594 C 174.429688 167.945312 174.761719 167.886719 175.042969 167.886719 C 175.558594 167.886719 175.929688 168.027344 176.148438 168.316406 C 176.371094 168.601562 176.480469 169.035156 176.480469 169.609375 L 176.539062 169.609375 C 177.308594 168.933594 177.886719 168.457031 178.285156 168.1875 C 178.683594 167.917969 179.09375 167.785156 179.527344 167.785156 C 179.734375 167.785156 179.933594 167.808594 180.128906 167.863281 C 180.320312 167.917969 180.484375 168.003906 180.621094 168.128906 C 180.761719 168.269531 180.867188 168.429688 180.933594 168.613281 C 181 168.792969 181.035156 169.054688 181.035156 169.398438 "/><path style=" stroke:none;fill-rule:nonzero;fill:#000000;fill-opacity:1;" d="M 190.972656 171.675781 C 190.972656 172.453125 190.84375 173.234375 190.585938 174.007812 C 190.328125 174.789062 189.953125 175.46875 189.460938 176.058594 C 188.960938 176.667969 188.367188 177.152344 187.664062 177.519531 C 186.964844 177.882812 186.152344 178.066406 185.226562 178.066406 C 184.160156 178.066406 183.285156 177.714844 182.617188 177.007812 C 181.949219 176.300781 181.613281 175.351562 181.613281 174.15625 C 181.613281 173.277344 181.757812 172.460938 182.042969 171.703125 C 182.328125 170.941406 182.707031 170.277344 183.183594 169.703125 C 183.667969 169.128906 184.269531 168.667969 184.980469 168.3125 C 185.695312 167.960938 186.46875 167.785156 187.300781 167.785156 C 188.449219 167.785156 189.347656 168.140625 189.996094 168.859375 C 190.644531 169.574219 190.96875 170.515625 190.96875 171.675781 M 188.988281 171.300781 C 188.988281 170.363281 188.824219 169.664062 188.5 169.195312 C 188.171875 168.730469 187.707031 168.496094 187.097656 168.496094 C 186.5625 168.496094 186.0625 168.664062 185.585938 168.996094 C 185.113281 169.335938 184.707031 169.882812 184.367188 170.640625 C 184.101562 171.210938 183.910156 171.851562 183.789062 172.550781 C 183.664062 173.253906 183.605469 173.898438 183.605469 174.496094 C 183.605469 175.4375 183.761719 176.148438 184.082031 176.632812 C 184.398438 177.117188 184.878906 177.359375 185.519531 177.359375 C 186.09375 177.359375 186.601562 177.175781 187.046875 176.804688 C 187.492188 176.4375 187.851562 175.972656 188.125 175.402344 C 188.398438 174.847656 188.613281 174.21875 188.761719 173.503906 C 188.910156 172.785156 188.984375 172.054688 188.984375 171.304688 "/><path style=" stroke:none;fill-rule:nonzero;fill:#000000;fill-opacity:1;" d="M 201.628906 171.675781 C 201.628906 172.453125 201.5 173.234375 201.242188 174.007812 C 200.988281 174.789062 200.609375 175.46875 200.117188 176.058594 C 199.621094 176.667969 199.023438 177.152344 198.320312 177.519531 C 197.621094 177.882812 196.808594 178.066406 195.886719 178.066406 C 194.816406 178.066406 193.941406 177.714844 193.273438 177.007812 C 192.605469 176.300781 192.269531 175.351562 192.269531 174.15625 C 192.269531 173.277344 192.414062 172.460938 192.699219 171.703125 C 192.984375 170.941406 193.363281 170.277344 193.839844 169.703125 C 194.324219 169.128906 194.925781 168.667969 195.640625 168.3125 C 196.351562 167.960938 197.125 167.785156 197.957031 167.785156 C 199.105469 167.785156 200.003906 168.140625 200.652344 168.859375 C 201.300781 169.574219 201.625 170.515625 201.625 171.675781 M 199.644531 171.300781 C 199.644531 170.363281 199.484375 169.664062 199.15625 169.195312 C 198.832031 168.730469 198.367188 168.496094 197.753906 168.496094 C 197.222656 168.496094 196.71875 168.664062 196.246094 168.996094 C 195.773438 169.335938 195.367188 169.882812 195.027344 170.640625 C 194.761719 171.210938 194.570312 171.851562 194.445312 172.550781 C 194.324219 173.253906 194.261719 173.898438 194.261719 174.496094 C 194.261719 175.4375 194.421875 176.148438 194.738281 176.632812 C 195.058594 177.117188 195.539062 177.359375 196.179688 177.359375 C 196.753906 177.359375 197.257812 177.175781 197.703125 176.804688 C 198.148438 176.4375 198.511719 175.972656 198.785156 175.402344 C 199.058594 174.847656 199.273438 174.21875 199.421875 173.503906 C 199.570312 172.785156 199.644531 172.054688 199.644531 171.304688 "/><path style=" stroke:none;fill-rule:nonzero;fill:#000000;fill-opacity:1;" d="M 219.183594 176.652344 L 219.035156 177.277344 C 218.433594 177.519531 217.953125 177.6875 217.597656 177.78125 C 217.238281 177.878906 216.929688 177.921875 216.675781 177.921875 C 216.152344 177.921875 215.757812 177.785156 215.496094 177.511719 C 215.234375 177.238281 215.105469 176.902344 215.105469 176.5 C 215.105469 176.351562 215.117188 176.195312 215.144531 176.015625 C 215.167969 175.839844 215.210938 175.636719 215.269531 175.398438 L 216.226562 171.710938 C 216.296875 171.425781 216.355469 171.171875 216.398438 170.941406 C 216.4375 170.707031 216.460938 170.523438 216.460938 170.386719 C 216.460938 169.945312 216.367188 169.597656 216.179688 169.339844 C 215.996094 169.082031 215.699219 168.953125 215.300781 168.953125 C 214.871094 168.953125 214.449219 169.058594 214.039062 169.265625 C 213.625 169.472656 213.15625 169.859375 212.644531 170.429688 L 210.941406 177.757812 L 209.136719 177.757812 L 210.664062 171.148438 C 210.695312 171 210.730469 170.851562 210.757812 170.691406 C 210.789062 170.527344 210.800781 170.40625 210.800781 170.328125 C 210.800781 169.898438 210.695312 169.5625 210.488281 169.320312 C 210.277344 169.074219 209.972656 168.953125 209.570312 168.953125 C 209.207031 168.953125 208.800781 169.050781 208.359375 169.238281 C 207.917969 169.425781 207.40625 169.847656 206.820312 170.5 L 205.164062 177.761719 L 203.347656 177.761719 L 204.800781 171.351562 C 204.851562 171.121094 204.902344 170.871094 204.953125 170.605469 C 205 170.34375 205.023438 170.121094 205.023438 169.933594 C 205.023438 169.550781 204.960938 169.296875 204.839844 169.175781 C 204.71875 169.054688 204.472656 168.992188 204.121094 168.992188 C 203.976562 168.992188 203.792969 169.019531 203.570312 169.078125 C 203.347656 169.132812 203.171875 169.179688 203.050781 169.214844 L 203.195312 168.570312 C 203.703125 168.335938 204.152344 168.164062 204.542969 168.046875 C 204.933594 167.9375 205.269531 167.878906 205.546875 167.878906 C 206.066406 167.878906 206.433594 168.023438 206.652344 168.308594 C 206.871094 168.597656 206.984375 168.992188 207 169.488281 L 207.058594 169.488281 C 207.816406 168.875 208.445312 168.4375 208.933594 168.171875 C 209.425781 167.910156 210.007812 167.777344 210.683594 167.777344 C 211.257812 167.777344 211.722656 167.945312 212.082031 168.285156 C 212.4375 168.625 212.640625 169.050781 212.6875 169.566406 L 212.726562 169.566406 C 213.417969 168.976562 214.03125 168.53125 214.566406 168.230469 C 215.105469 167.929688 215.730469 167.777344 216.445312 167.777344 C 217.0625 167.777344 217.542969 167.960938 217.871094 168.324219 C 218.203125 168.691406 218.367188 169.171875 218.367188 169.765625 C 218.367188 169.882812 218.351562 170.09375 218.3125 170.398438 C 218.28125 170.699219 218.222656 171 218.144531 171.296875 L 217.332031 174.46875 C 217.273438 174.683594 217.21875 174.921875 217.164062 175.199219 C 217.113281 175.472656 217.085938 175.6875 217.085938 175.835938 C 217.085938 176.210938 217.164062 176.46875 217.324219 176.601562 C 217.476562 176.738281 217.742188 176.804688 218.113281 176.804688 C 218.234375 176.804688 218.414062 176.792969 218.648438 176.757812 C 218.878906 176.726562 219.058594 176.6875 219.183594 176.644531 "/><path style=" stroke:none;fill-rule:nonzero;fill:#000000;fill-opacity:1;" d="M 239.503906 168.875 L 239.347656 169.523438 C 239.070312 169.546875 238.710938 169.617188 238.269531 169.722656 C 237.828125 169.824219 237.441406 170.035156 237.113281 170.335938 C 236.953125 170.488281 236.757812 170.722656 236.535156 171.042969 C 236.308594 171.363281 236.039062 171.75 235.722656 172.195312 C 235.480469 172.53125 235.171875 172.957031 234.789062 173.472656 C 234.40625 173.988281 234.054688 174.40625 233.738281 174.738281 C 233.976562 175.132812 234.226562 175.5 234.480469 175.828125 C 234.738281 176.15625 234.976562 176.402344 235.195312 176.554688 C 235.421875 176.710938 235.761719 176.84375 236.207031 176.945312 C 236.65625 177.046875 237.03125 177.105469 237.332031 177.117188 L 237.167969 177.765625 L 233.449219 177.765625 L 232.34375 175.972656 C 232.050781 176.242188 231.761719 176.492188 231.472656 176.738281 C 231.1875 176.980469 230.847656 177.210938 230.457031 177.425781 C 230.070312 177.652344 229.691406 177.820312 229.316406 177.9375 C 228.9375 178.046875 228.550781 178.109375 228.140625 178.109375 C 227.15625 178.109375 226.34375 177.824219 225.699219 177.257812 C 225.058594 176.691406 224.734375 175.917969 224.734375 174.941406 C 224.734375 173.964844 225.074219 173.039062 225.757812 172.257812 C 226.441406 171.476562 227.492188 170.714844 228.914062 169.96875 C 228.617188 169.398438 228.382812 168.890625 228.222656 168.457031 C 228.054688 168.019531 227.972656 167.566406 227.972656 167.089844 C 227.972656 166.53125 228.078125 166.019531 228.292969 165.566406 C 228.507812 165.113281 228.792969 164.71875 229.15625 164.390625 C 229.5 164.082031 229.917969 163.839844 230.414062 163.65625 C 230.910156 163.476562 231.410156 163.390625 231.914062 163.390625 C 232.664062 163.390625 233.28125 163.597656 233.773438 164.015625 C 234.265625 164.433594 234.507812 165.003906 234.507812 165.730469 C 234.507812 166.550781 234.242188 167.265625 233.699219 167.878906 C 233.164062 168.492188 232.222656 169.128906 230.871094 169.789062 C 231.347656 170.695312 231.75 171.441406 232.078125 172.035156 C 232.410156 172.628906 232.835938 173.351562 233.355469 174.203125 C 233.691406 173.8125 233.992188 173.429688 234.261719 173.050781 C 234.535156 172.667969 234.808594 172.238281 235.09375 171.757812 C 235.273438 171.445312 235.414062 171.164062 235.511719 170.90625 C 235.609375 170.648438 235.660156 170.4375 235.660156 170.269531 C 235.660156 170.097656 235.53125 169.960938 235.269531 169.84375 C 235.007812 169.734375 234.632812 169.625 234.152344 169.515625 L 234.304688 168.871094 L 239.496094 168.871094 Z M 233.230469 165.769531 C 233.230469 165.28125 233.105469 164.902344 232.859375 164.628906 C 232.609375 164.355469 232.253906 164.21875 231.785156 164.21875 C 231.171875 164.21875 230.683594 164.441406 230.308594 164.890625 C 229.9375 165.339844 229.753906 165.875 229.753906 166.5 C 229.753906 166.929688 229.828125 167.355469 229.972656 167.789062 C 230.121094 168.222656 230.328125 168.699219 230.59375 169.226562 C 231.523438 168.757812 232.195312 168.25 232.609375 167.699219 C 233.019531 167.152344 233.230469 166.507812 233.230469 165.769531 M 231.980469 175.429688 C 231.441406 174.519531 230.941406 173.664062 230.492188 172.875 C 230.039062 172.078125 229.613281 171.296875 229.222656 170.53125 C 228.484375 170.933594 227.90625 171.460938 227.5 172.109375 C 227.09375 172.761719 226.890625 173.480469 226.890625 174.277344 C 226.890625 175.070312 227.085938 175.660156 227.476562 176.113281 C 227.871094 176.566406 228.421875 176.789062 229.132812 176.789062 C 229.652344 176.789062 230.148438 176.671875 230.636719 176.433594 C 231.121094 176.191406 231.570312 175.859375 231.984375 175.425781 "/><path style=" stroke:none;fill-rule:nonzero;fill:#000000;fill-opacity:1;" d="M 260.648438 163.734375 L 260.503906 164.382812 C 260.324219 164.386719 260.09375 164.417969 259.824219 164.46875 C 259.554688 164.523438 259.347656 164.570312 259.203125 164.617188 C 258.953125 164.703125 258.773438 164.839844 258.660156 165.023438 C 258.550781 165.207031 258.472656 165.410156 258.417969 165.621094 L 256.105469 175.839844 C 256.089844 175.894531 256.082031 175.953125 256.074219 176.015625 C 256.070312 176.082031 256.066406 176.140625 256.066406 176.183594 C 256.066406 176.324219 256.097656 176.445312 256.152344 176.550781 C 256.210938 176.65625 256.304688 176.753906 256.4375 176.839844 C 256.535156 176.898438 256.710938 176.957031 256.964844 177.015625 C 257.222656 177.074219 257.441406 177.109375 257.617188 177.117188 L 257.476562 177.761719 L 251.761719 177.761719 L 251.90625 177.117188 C 252.066406 177.101562 252.300781 177.082031 252.597656 177.058594 C 252.894531 177.03125 253.105469 176.988281 253.226562 176.9375 C 253.453125 176.851562 253.628906 176.722656 253.75 176.5625 C 253.871094 176.398438 253.960938 176.195312 254.015625 175.949219 L 255.160156 170.882812 L 248.691406 170.882812 L 247.566406 175.839844 C 247.550781 175.890625 247.542969 175.949219 247.535156 176.007812 C 247.53125 176.066406 247.523438 176.121094 247.523438 176.175781 C 247.523438 176.304688 247.554688 176.429688 247.617188 176.546875 C 247.679688 176.667969 247.773438 176.761719 247.894531 176.835938 C 247.992188 176.894531 248.167969 176.957031 248.421875 177.015625 C 248.679688 177.074219 248.898438 177.105469 249.078125 177.113281 L 248.929688 177.757812 L 243.21875 177.757812 L 243.363281 177.113281 C 243.527344 177.097656 243.753906 177.082031 244.054688 177.054688 C 244.351562 177.027344 244.5625 176.988281 244.683594 176.933594 C 244.910156 176.847656 245.085938 176.722656 245.207031 176.558594 C 245.332031 176.394531 245.421875 176.191406 245.472656 175.945312 L 247.785156 165.714844 C 247.800781 165.660156 247.808594 165.609375 247.816406 165.550781 C 247.824219 165.492188 247.824219 165.4375 247.824219 165.375 C 247.824219 165.230469 247.800781 165.105469 247.742188 165.003906 C 247.691406 164.894531 247.589844 164.804688 247.449219 164.726562 C 247.292969 164.640625 247.101562 164.566406 246.867188 164.5 C 246.632812 164.433594 246.429688 164.394531 246.246094 164.378906 L 246.390625 163.730469 L 252.113281 163.730469 L 251.964844 164.378906 C 251.789062 164.382812 251.5625 164.414062 251.285156 164.46875 C 251.015625 164.519531 250.808594 164.570312 250.667969 164.617188 C 250.414062 164.703125 250.234375 164.835938 250.125 165.023438 C 250.015625 165.207031 249.933594 165.40625 249.882812 165.617188 L 248.875 170.042969 L 255.347656 170.042969 L 256.328125 165.714844 C 256.339844 165.660156 256.351562 165.605469 256.359375 165.550781 C 256.367188 165.492188 256.367188 165.441406 256.367188 165.386719 C 256.367188 165.242188 256.339844 165.113281 256.285156 165.003906 C 256.230469 164.894531 256.132812 164.804688 255.988281 164.722656 C 255.835938 164.636719 255.640625 164.558594 255.410156 164.492188 C 255.175781 164.425781 254.972656 164.390625 254.789062 164.375 L 254.933594 163.726562 L 260.652344 163.726562 Z M 260.648438 163.734375 "/><path style=" stroke:none;fill-rule:nonzero;fill:#000000;fill-opacity:1;" d="M 268.648438 169.84375 C 268.648438 170.546875 268.433594 171.148438 268.003906 171.648438 C 267.574219 172.148438 266.945312 172.546875 266.121094 172.84375 C 265.519531 173.066406 264.910156 173.25 264.292969 173.390625 C 263.679688 173.53125 262.996094 173.644531 262.253906 173.738281 C 262.253906 174.78125 262.441406 175.578125 262.824219 176.128906 C 263.203125 176.679688 263.757812 176.957031 264.496094 176.957031 C 265.140625 176.957031 265.714844 176.789062 266.210938 176.460938 C 266.707031 176.132812 267.195312 175.640625 267.679688 174.992188 L 268.234375 175.402344 C 267.710938 176.207031 267.066406 176.847656 266.285156 177.328125 C 265.507812 177.808594 264.703125 178.046875 263.863281 178.046875 C 262.714844 178.046875 261.839844 177.71875 261.230469 177.066406 C 260.625 176.414062 260.324219 175.488281 260.324219 174.285156 C 260.324219 173.453125 260.453125 172.660156 260.707031 171.90625 C 260.964844 171.152344 261.339844 170.460938 261.832031 169.835938 C 262.308594 169.21875 262.894531 168.726562 263.589844 168.347656 C 264.285156 167.972656 265.058594 167.785156 265.898438 167.785156 C 266.832031 167.785156 267.519531 167.976562 267.972656 168.363281 C 268.417969 168.75 268.644531 169.242188 268.644531 169.84375 M 266.878906 169.605469 C 266.878906 169.347656 266.84375 169.144531 266.773438 169 C 266.703125 168.851562 266.609375 168.742188 266.5 168.667969 C 266.382812 168.589844 266.257812 168.539062 266.125 168.519531 C 265.996094 168.5 265.863281 168.492188 265.726562 168.492188 C 264.945312 168.492188 264.222656 168.921875 263.5625 169.785156 C 262.902344 170.652344 262.484375 171.730469 262.308594 173.023438 C 262.765625 172.957031 263.277344 172.867188 263.851562 172.738281 C 264.425781 172.621094 264.898438 172.460938 265.277344 172.265625 C 265.816406 171.980469 266.21875 171.621094 266.480469 171.179688 C 266.746094 170.734375 266.878906 170.207031 266.878906 169.597656 "/><path style=" stroke:none;fill-rule:nonzero;fill:#000000;fill-opacity:1;" d="M 275.816406 176.453125 L 275.75 176.453125 C 275.605469 176.570312 275.4375 176.722656 275.242188 176.90625 C 275.042969 177.089844 274.8125 177.261719 274.546875 177.429688 C 274.292969 177.597656 274.019531 177.742188 273.71875 177.863281 C 273.421875 177.988281 273.09375 178.046875 272.746094 178.046875 C 271.804688 178.046875 271.070312 177.707031 270.53125 177.019531 C 269.996094 176.335938 269.726562 175.394531 269.726562 174.207031 C 269.726562 173.390625 269.878906 172.59375 270.175781 171.820312 C 270.472656 171.050781 270.886719 170.355469 271.40625 169.742188 C 271.910156 169.152344 272.5 168.683594 273.1875 168.324219 C 273.871094 167.960938 274.578125 167.78125 275.304688 167.78125 C 275.765625 167.78125 276.203125 167.84375 276.621094 167.964844 C 277.035156 168.089844 277.363281 168.230469 277.605469 168.386719 L 279.386719 167.921875 L 279.503906 168.070312 L 278.039062 174.453125 C 277.988281 174.660156 277.933594 174.90625 277.882812 175.199219 C 277.824219 175.496094 277.796875 175.710938 277.796875 175.847656 C 277.796875 176.226562 277.875 176.476562 278.03125 176.613281 C 278.183594 176.742188 278.445312 176.808594 278.816406 176.808594 C 278.941406 176.808594 279.113281 176.789062 279.339844 176.75 C 279.566406 176.710938 279.742188 176.671875 279.863281 176.628906 L 279.714844 177.253906 C 279.132812 177.488281 278.699219 177.660156 278.414062 177.761719 C 278.128906 177.867188 277.785156 177.921875 277.378906 177.921875 C 276.914062 177.921875 276.542969 177.78125 276.269531 177.503906 C 276 177.230469 275.851562 176.878906 275.824219 176.445312 M 277.203125 170.210938 C 277.203125 169.996094 277.179688 169.789062 277.136719 169.589844 C 277.089844 169.390625 276.996094 169.207031 276.851562 169.035156 C 276.722656 168.871094 276.542969 168.738281 276.316406 168.640625 C 276.085938 168.539062 275.800781 168.492188 275.457031 168.492188 C 274.980469 168.492188 274.523438 168.648438 274.070312 168.96875 C 273.625 169.285156 273.21875 169.707031 272.863281 170.246094 C 272.523438 170.746094 272.246094 171.351562 272.035156 172.0625 C 271.820312 172.773438 271.714844 173.496094 271.714844 174.226562 C 271.714844 174.628906 271.734375 174.984375 271.78125 175.292969 C 271.828125 175.605469 271.914062 175.890625 272.046875 176.148438 C 272.171875 176.398438 272.347656 176.59375 272.582031 176.730469 C 272.816406 176.867188 273.113281 176.9375 273.472656 176.9375 C 273.828125 176.9375 274.214844 176.832031 274.617188 176.625 C 275.019531 176.414062 275.472656 176.050781 275.96875 175.53125 Z M 277.203125 170.210938 "/><path style=" stroke:none;fill-rule:nonzero;fill:#000000;fill-opacity:1;" d="M 283.359375 177.96875 C 282.746094 177.96875 282.300781 177.839844 282.015625 177.585938 C 281.730469 177.332031 281.585938 176.96875 281.585938 176.492188 C 281.585938 176.34375 281.597656 176.199219 281.621094 176.066406 C 281.636719 175.925781 281.660156 175.773438 281.695312 175.605469 L 283.207031 169 L 281.476562 169 L 281.679688 168.113281 L 283.445312 168.113281 L 284.121094 165.214844 L 285.867188 165.214844 L 285.214844 168.113281 L 287.90625 168.113281 L 287.703125 169 L 285.039062 169 L 283.785156 174.445312 C 283.726562 174.691406 283.679688 174.9375 283.640625 175.171875 C 283.601562 175.402344 283.582031 175.605469 283.582031 175.773438 C 283.582031 176.132812 283.671875 176.398438 283.847656 176.566406 C 284.027344 176.734375 284.347656 176.816406 284.8125 176.816406 C 284.980469 176.816406 285.214844 176.796875 285.515625 176.753906 C 285.820312 176.710938 286.054688 176.65625 286.222656 176.59375 L 286.054688 177.316406 C 285.605469 177.492188 285.179688 177.648438 284.777344 177.777344 C 284.378906 177.90625 283.90625 177.972656 283.367188 177.972656 "/><path style=" stroke:none;fill-rule:nonzero;fill:#000000;fill-opacity:1;" d="M 292.671875 176.691406 L 292.527344 177.316406 C 291.933594 177.5625 291.460938 177.730469 291.101562 177.820312 C 290.746094 177.917969 290.445312 177.964844 290.191406 177.964844 C 289.671875 177.964844 289.289062 177.828125 289.027344 177.554688 C 288.773438 177.28125 288.640625 176.949219 288.640625 176.542969 C 288.640625 176.394531 288.65625 176.234375 288.683594 176.070312 C 288.707031 175.90625 288.75 175.695312 288.808594 175.449219 L 289.835938 171.257812 C 289.886719 171.027344 289.9375 170.785156 289.984375 170.519531 C 290.035156 170.257812 290.058594 170.035156 290.058594 169.851562 C 290.058594 169.480469 290 169.238281 289.878906 169.113281 C 289.757812 168.992188 289.515625 168.933594 289.148438 168.933594 C 289.007812 168.933594 288.816406 168.953125 288.582031 169 C 288.347656 169.042969 288.171875 169.082031 288.046875 169.113281 L 288.191406 168.464844 C 288.695312 168.230469 289.152344 168.058594 289.550781 167.945312 C 289.953125 167.835938 290.269531 167.777344 290.503906 167.777344 C 291.035156 167.777344 291.421875 167.902344 291.660156 168.160156 C 291.898438 168.414062 292.015625 168.761719 292.015625 169.199219 C 292.015625 169.316406 292.003906 169.476562 291.980469 169.683594 C 291.953125 169.882812 291.914062 170.09375 291.863281 170.296875 L 290.824219 174.5 C 290.757812 174.753906 290.699219 175.007812 290.65625 175.253906 C 290.605469 175.503906 290.582031 175.703125 290.582031 175.863281 C 290.582031 176.238281 290.664062 176.496094 290.828125 176.636719 C 290.992188 176.773438 291.257812 176.839844 291.621094 176.839844 C 291.746094 176.839844 291.917969 176.828125 292.148438 176.796875 C 292.378906 176.761719 292.550781 176.722656 292.671875 176.679688 M 293.367188 164.050781 C 293.367188 164.425781 293.246094 164.753906 293.007812 165.039062 C 292.765625 165.316406 292.464844 165.457031 292.109375 165.457031 C 291.777344 165.457031 291.488281 165.320312 291.246094 165.054688 C 291.007812 164.785156 290.882812 164.480469 290.882812 164.136719 C 290.882812 163.773438 291.007812 163.457031 291.246094 163.183594 C 291.488281 162.914062 291.773438 162.78125 292.109375 162.78125 C 292.480469 162.78125 292.78125 162.90625 293.015625 163.164062 C 293.25 163.417969 293.367188 163.710938 293.367188 164.046875 "/><path style=" stroke:none;fill-rule:nonzero;fill:#000000;fill-opacity:1;" d="M 304.398438 176.589844 L 304.25 177.234375 C 303.660156 177.472656 303.203125 177.652344 302.875 177.761719 C 302.546875 177.871094 302.21875 177.925781 301.886719 177.925781 C 301.363281 177.925781 300.972656 177.789062 300.707031 177.515625 C 300.449219 177.242188 300.316406 176.90625 300.316406 176.503906 C 300.316406 176.355469 300.332031 176.199219 300.355469 176.019531 C 300.382812 175.84375 300.421875 175.636719 300.480469 175.402344 L 301.4375 171.714844 C 301.511719 171.429688 301.566406 171.171875 301.609375 170.941406 C 301.648438 170.710938 301.675781 170.523438 301.675781 170.386719 C 301.675781 169.945312 301.570312 169.597656 301.363281 169.339844 C 301.160156 169.082031 300.855469 168.953125 300.457031 168.953125 C 300.0625 168.953125 299.628906 169.085938 299.144531 169.347656 C 298.660156 169.613281 298.199219 169.992188 297.773438 170.492188 L 296.117188 177.757812 L 294.300781 177.757812 L 295.757812 171.34375 C 295.789062 171.183594 295.835938 170.953125 295.894531 170.652344 C 295.957031 170.351562 295.988281 170.113281 295.988281 169.925781 C 295.988281 169.554688 295.929688 169.304688 295.804688 169.179688 C 295.683594 169.054688 295.433594 168.996094 295.066406 168.996094 C 294.921875 168.996094 294.738281 169.023438 294.519531 169.078125 C 294.296875 169.136719 294.125 169.179688 294.003906 169.222656 L 294.148438 168.574219 C 294.65625 168.339844 295.101562 168.167969 295.492188 168.054688 C 295.886719 167.941406 296.21875 167.886719 296.5 167.886719 C 297.011719 167.886719 297.378906 168.023438 297.601562 168.308594 C 297.820312 168.59375 297.9375 168.984375 297.949219 169.488281 L 298.007812 169.488281 C 298.71875 168.910156 299.332031 168.480469 299.84375 168.203125 C 300.363281 167.921875 300.949219 167.785156 301.605469 167.785156 C 302.222656 167.785156 302.707031 167.96875 303.054688 168.332031 C 303.402344 168.699219 303.578125 169.179688 303.578125 169.773438 C 303.578125 169.890625 303.558594 170.101562 303.523438 170.40625 C 303.488281 170.707031 303.429688 171.011719 303.355469 171.304688 L 302.539062 174.476562 C 302.480469 174.691406 302.425781 174.933594 302.371094 175.207031 C 302.3125 175.480469 302.289062 175.695312 302.289062 175.84375 C 302.289062 176.21875 302.371094 176.476562 302.53125 176.613281 C 302.695312 176.746094 302.960938 176.8125 303.328125 176.8125 C 303.453125 176.8125 303.628906 176.789062 303.859375 176.742188 C 304.089844 176.695312 304.265625 176.644531 304.390625 176.59375 "/><g clip-rule="nonzero" clip-path="url(#f0d3101db4)"><path style=" stroke:none;fill-rule:nonzero;fill:#000000;fill-opacity:1;" d="M 311.835938 176.433594 L 311.769531 176.410156 C 311.640625 176.519531 311.457031 176.664062 311.21875 176.859375 C 310.984375 177.050781 310.734375 177.21875 310.476562 177.363281 C 310.175781 177.542969 309.875 177.6875 309.570312 177.800781 C 309.265625 177.914062 308.929688 177.96875 308.558594 177.96875 C 307.621094 177.96875 306.894531 177.628906 306.386719 176.953125 C 305.878906 176.277344 305.621094 175.347656 305.621094 174.160156 C 305.621094 173.34375 305.773438 172.546875 306.066406 171.773438 C 306.359375 171.003906 306.765625 170.316406 307.277344 169.714844 C 307.769531 169.132812 308.355469 168.667969 309.042969 168.3125 C 309.726562 167.960938 310.449219 167.785156 311.199219 167.785156 C 311.667969 167.785156 312.105469 167.84375 312.523438 167.96875 C 312.9375 168.085938 313.269531 168.230469 313.523438 168.394531 L 315.300781 167.929688 L 315.414062 168.078125 L 313.792969 175.878906 C 313.546875 177.058594 313.230469 178.058594 312.84375 178.871094 C 312.457031 179.6875 312.011719 180.332031 311.503906 180.808594 C 310.984375 181.292969 310.414062 181.640625 309.789062 181.851562 C 309.164062 182.058594 308.453125 182.164062 307.664062 182.164062 C 307.125 182.164062 306.6875 182.121094 306.347656 182.03125 C 306.007812 181.945312 305.738281 181.835938 305.542969 181.691406 C 305.347656 181.554688 305.21875 181.398438 305.152344 181.222656 C 305.085938 181.046875 305.046875 180.878906 305.046875 180.71875 C 305.046875 180.425781 305.132812 180.171875 305.3125 179.972656 C 305.488281 179.769531 305.726562 179.671875 306.03125 179.671875 C 306.269531 179.671875 306.476562 179.742188 306.640625 179.886719 C 306.808594 180.023438 306.949219 180.179688 307.050781 180.34375 C 307.164062 180.515625 307.269531 180.71875 307.371094 180.960938 C 307.476562 181.195312 307.554688 181.375 307.605469 181.492188 L 307.898438 181.492188 C 308.253906 181.492188 308.636719 181.410156 309.046875 181.246094 C 309.453125 181.082031 309.828125 180.8125 310.164062 180.445312 C 310.507812 180.0625 310.828125 179.550781 311.125 178.914062 C 311.425781 178.265625 311.660156 177.441406 311.835938 176.433594 M 313.125 170.113281 C 313.125 169.929688 313.097656 169.738281 313.039062 169.546875 C 312.988281 169.351562 312.886719 169.171875 312.734375 169.007812 C 312.59375 168.851562 312.410156 168.722656 312.1875 168.632812 C 311.96875 168.539062 311.6875 168.496094 311.34375 168.496094 C 310.84375 168.496094 310.375 168.648438 309.929688 168.953125 C 309.484375 169.257812 309.085938 169.683594 308.730469 170.210938 C 308.398438 170.714844 308.128906 171.320312 307.921875 172.03125 C 307.714844 172.742188 307.609375 173.453125 307.609375 174.175781 C 307.609375 174.566406 307.636719 174.921875 307.691406 175.25 C 307.75 175.574219 307.847656 175.859375 307.980469 176.101562 C 308.117188 176.34375 308.300781 176.535156 308.523438 176.671875 C 308.746094 176.804688 309.039062 176.871094 309.398438 176.871094 C 309.851562 176.871094 310.304688 176.742188 310.753906 176.472656 C 311.203125 176.207031 311.628906 175.863281 312.03125 175.449219 Z M 313.125 170.113281 "/></g><path style=" stroke:none;fill-rule:nonzero;fill:#000000;fill-opacity:1;" d="M 325.898438 178.046875 C 325.105469 178.046875 324.40625 177.945312 323.808594 177.746094 C 323.210938 177.542969 322.730469 177.308594 322.359375 177.046875 L 321.808594 177.765625 L 321.03125 177.765625 L 321.988281 172.96875 L 322.78125 172.96875 C 322.8125 173.542969 322.886719 174.074219 323.007812 174.574219 C 323.125 175.074219 323.320312 175.519531 323.589844 175.921875 C 323.859375 176.335938 324.210938 176.65625 324.640625 176.882812 C 325.070312 177.105469 325.605469 177.222656 326.242188 177.222656 C 327.199219 177.222656 327.96875 176.953125 328.546875 176.414062 C 329.125 175.871094 329.414062 175.132812 329.414062 174.199219 C 329.414062 173.6875 329.292969 173.238281 329.050781 172.84375 C 328.804688 172.449219 328.4375 172.140625 327.949219 171.921875 C 327.484375 171.71875 327.023438 171.539062 326.570312 171.375 C 326.117188 171.210938 325.671875 171.019531 325.230469 170.804688 C 324.652344 170.519531 324.183594 170.113281 323.828125 169.582031 C 323.472656 169.054688 323.296875 168.453125 323.296875 167.785156 C 323.296875 167.15625 323.433594 166.570312 323.707031 166.039062 C 323.980469 165.5 324.347656 165.039062 324.796875 164.652344 C 325.238281 164.273438 325.769531 163.972656 326.390625 163.753906 C 327.011719 163.527344 327.632812 163.414062 328.246094 163.414062 C 328.816406 163.414062 329.363281 163.484375 329.875 163.625 C 330.390625 163.765625 330.90625 164.027344 331.421875 164.410156 L 331.957031 163.738281 L 332.730469 163.738281 L 331.757812 168.394531 L 330.960938 168.394531 C 330.941406 167.886719 330.894531 167.367188 330.8125 166.828125 C 330.730469 166.289062 330.59375 165.84375 330.402344 165.484375 C 330.1875 165.097656 329.894531 164.796875 329.515625 164.574219 C 329.136719 164.351562 328.628906 164.242188 328 164.242188 C 327.242188 164.242188 326.605469 164.511719 326.089844 165.042969 C 325.574219 165.578125 325.320312 166.210938 325.320312 166.945312 C 325.320312 167.433594 325.417969 167.847656 325.605469 168.1875 C 325.792969 168.523438 326.089844 168.800781 326.488281 169.011719 C 326.914062 169.238281 327.359375 169.429688 327.828125 169.589844 C 328.296875 169.75 328.714844 169.921875 329.078125 170.101562 C 329.820312 170.457031 330.398438 170.882812 330.816406 171.386719 C 331.230469 171.886719 331.4375 172.5 331.4375 173.226562 C 331.4375 173.949219 331.289062 174.574219 330.992188 175.183594 C 330.695312 175.792969 330.296875 176.296875 329.800781 176.703125 C 329.277344 177.140625 328.691406 177.476562 328.039062 177.703125 C 327.390625 177.933594 326.675781 178.050781 325.894531 178.050781 "/><g clip-rule="nonzero" clip-path="url(#b1a4464b24)"><path style=" stroke:none;fill-rule:nonzero;fill:#000000;fill-opacity:1;" d="M 343.0625 171.5625 C 343.0625 172.449219 342.914062 173.285156 342.609375 174.078125 C 342.304688 174.871094 341.902344 175.554688 341.398438 176.140625 C 340.835938 176.78125 340.230469 177.253906 339.570312 177.5625 C 338.917969 177.871094 338.242188 178.027344 337.550781 178.027344 C 336.996094 178.027344 336.542969 177.960938 336.1875 177.820312 C 335.832031 177.679688 335.515625 177.511719 335.238281 177.304688 L 334.671875 179.902344 C 334.632812 180.070312 334.605469 180.222656 334.578125 180.367188 C 334.554688 180.515625 334.546875 180.628906 334.546875 180.714844 C 334.546875 180.890625 334.605469 181.035156 334.734375 181.140625 C 334.859375 181.246094 335.003906 181.324219 335.167969 181.371094 C 335.328125 181.421875 335.507812 181.460938 335.710938 181.488281 C 335.910156 181.515625 336.089844 181.535156 336.253906 181.550781 L 336.117188 182.15625 L 330.765625 182.15625 L 330.902344 181.550781 C 331.109375 181.535156 331.304688 181.515625 331.480469 181.5 C 331.664062 181.480469 331.832031 181.449219 331.996094 181.402344 C 332.195312 181.339844 332.355469 181.230469 332.476562 181.070312 C 332.597656 180.90625 332.679688 180.710938 332.730469 180.46875 L 334.753906 171.347656 C 334.808594 171.097656 334.859375 170.84375 334.902344 170.589844 C 334.949219 170.335938 334.96875 170.113281 334.96875 169.929688 C 334.96875 169.558594 334.914062 169.3125 334.800781 169.1875 C 334.6875 169.0625 334.445312 169 334.066406 169 C 333.925781 169 333.742188 169.027344 333.523438 169.085938 C 333.300781 169.144531 333.132812 169.1875 333.007812 169.222656 L 333.152344 168.589844 C 333.648438 168.363281 334.089844 168.1875 334.484375 168.070312 C 334.878906 167.945312 335.21875 167.886719 335.496094 167.886719 C 335.949219 167.886719 336.292969 168.003906 336.523438 168.238281 C 336.753906 168.472656 336.902344 168.800781 336.960938 169.21875 L 337.039062 169.21875 C 337.476562 168.800781 337.945312 168.460938 338.445312 168.1875 C 338.945312 167.917969 339.445312 167.785156 339.945312 167.785156 C 340.929688 167.785156 341.691406 168.125 342.238281 168.808594 C 342.785156 169.488281 343.054688 170.40625 343.054688 171.5625 M 340.050781 175.632812 C 340.382812 175.09375 340.632812 174.480469 340.8125 173.792969 C 340.988281 173.105469 341.078125 172.378906 341.078125 171.605469 C 341.078125 171.261719 341.046875 170.910156 340.988281 170.554688 C 340.925781 170.203125 340.828125 169.914062 340.6875 169.683594 C 340.546875 169.429688 340.351562 169.230469 340.105469 169.085938 C 339.859375 168.945312 339.535156 168.875 339.132812 168.875 C 338.835938 168.875 338.507812 168.96875 338.148438 169.148438 C 337.789062 169.332031 337.347656 169.675781 336.832031 170.183594 L 335.601562 175.773438 C 335.644531 176.148438 335.847656 176.503906 336.199219 176.824219 C 336.550781 177.148438 336.972656 177.3125 337.472656 177.3125 C 337.972656 177.3125 338.460938 177.160156 338.910156 176.859375 C 339.355469 176.558594 339.734375 176.144531 340.054688 175.628906 "/></g><path style=" stroke:none;fill-rule:nonzero;fill:#000000;fill-opacity:1;" d="M 352.730469 169.84375 C 352.730469 170.546875 352.515625 171.148438 352.085938 171.648438 C 351.65625 172.148438 351.027344 172.546875 350.203125 172.84375 C 349.601562 173.066406 348.988281 173.25 348.375 173.390625 C 347.757812 173.53125 347.078125 173.644531 346.332031 173.738281 C 346.332031 174.78125 346.519531 175.578125 346.902344 176.128906 C 347.28125 176.679688 347.839844 176.957031 348.574219 176.957031 C 349.222656 176.957031 349.796875 176.789062 350.292969 176.460938 C 350.789062 176.132812 351.277344 175.640625 351.761719 174.992188 L 352.316406 175.402344 C 351.796875 176.207031 351.148438 176.847656 350.367188 177.328125 C 349.589844 177.808594 348.785156 178.046875 347.949219 178.046875 C 346.796875 178.046875 345.925781 177.71875 345.316406 177.066406 C 344.707031 176.414062 344.40625 175.488281 344.40625 174.285156 C 344.40625 173.453125 344.535156 172.660156 344.789062 171.90625 C 345.046875 171.152344 345.421875 170.460938 345.914062 169.835938 C 346.394531 169.21875 346.980469 168.726562 347.671875 168.347656 C 348.371094 167.972656 349.140625 167.785156 349.980469 167.785156 C 350.914062 167.785156 351.605469 167.976562 352.054688 168.363281 C 352.5 168.75 352.726562 169.242188 352.726562 169.84375 M 350.964844 169.605469 C 350.964844 169.347656 350.929688 169.144531 350.855469 169 C 350.785156 168.851562 350.695312 168.742188 350.582031 168.667969 C 350.464844 168.589844 350.34375 168.539062 350.207031 168.519531 C 350.078125 168.5 349.945312 168.492188 349.808594 168.492188 C 349.027344 168.492188 348.304688 168.921875 347.644531 169.785156 C 346.984375 170.652344 346.566406 171.730469 346.394531 173.023438 C 346.847656 172.957031 347.359375 172.867188 347.933594 172.738281 C 348.507812 172.621094 348.980469 172.460938 349.359375 172.265625 C 349.898438 171.980469 350.304688 171.621094 350.566406 171.179688 C 350.828125 170.734375 350.960938 170.207031 350.960938 169.597656 "/><path style=" stroke:none;fill-rule:nonzero;fill:#000000;fill-opacity:1;" d="M 357.460938 178.046875 C 356.328125 178.046875 355.433594 177.710938 354.777344 177.039062 C 354.121094 176.367188 353.789062 175.410156 353.789062 174.167969 C 353.789062 173.34375 353.914062 172.554688 354.164062 171.800781 C 354.414062 171.042969 354.757812 170.371094 355.207031 169.785156 C 355.65625 169.195312 356.222656 168.71875 356.902344 168.34375 C 357.582031 167.96875 358.34375 167.785156 359.175781 167.785156 C 360.101562 167.785156 360.804688 167.980469 361.289062 168.382812 C 361.773438 168.78125 362.015625 169.28125 362.015625 169.882812 C 362.015625 170.339844 361.910156 170.738281 361.699219 171.078125 C 361.488281 171.421875 361.175781 171.59375 360.757812 171.59375 C 360.410156 171.59375 360.144531 171.503906 359.972656 171.328125 C 359.796875 171.152344 359.714844 170.953125 359.714844 170.738281 C 359.714844 170.523438 359.78125 170.246094 359.917969 169.882812 C 360.058594 169.515625 360.164062 169.226562 360.246094 169.003906 C 360.179688 168.828125 360.015625 168.699219 359.773438 168.617188 C 359.527344 168.535156 359.269531 168.496094 359.007812 168.496094 C 358.128906 168.496094 357.371094 169.019531 356.734375 170.0625 C 356.097656 171.105469 355.777344 172.386719 355.777344 173.90625 C 355.777344 174.839844 355.984375 175.582031 356.398438 176.132812 C 356.808594 176.683594 357.363281 176.960938 358.0625 176.960938 C 358.691406 176.960938 359.25 176.789062 359.738281 176.449219 C 360.230469 176.105469 360.699219 175.621094 361.140625 174.996094 L 361.695312 175.410156 C 361.25 176.128906 360.648438 176.746094 359.875 177.269531 C 359.109375 177.792969 358.304688 178.054688 357.464844 178.054688 "/><path style=" stroke:none;fill-rule:nonzero;fill:#000000;fill-opacity:1;" d="M 367.507812 176.691406 L 367.363281 177.316406 C 366.765625 177.5625 366.289062 177.730469 365.9375 177.820312 C 365.578125 177.917969 365.277344 177.964844 365.027344 177.964844 C 364.507812 177.964844 364.121094 177.828125 363.863281 177.554688 C 363.605469 177.28125 363.472656 176.949219 363.472656 176.542969 C 363.472656 176.394531 363.484375 176.234375 363.511719 176.070312 C 363.535156 175.90625 363.578125 175.695312 363.636719 175.449219 L 364.667969 171.257812 C 364.71875 171.027344 364.769531 170.785156 364.816406 170.519531 C 364.863281 170.257812 364.886719 170.035156 364.886719 169.851562 C 364.886719 169.480469 364.828125 169.238281 364.710938 169.113281 C 364.589844 168.992188 364.34375 168.933594 363.980469 168.933594 C 363.839844 168.933594 363.648438 168.953125 363.414062 169 C 363.175781 169.042969 363 169.082031 362.878906 169.113281 L 363.023438 168.464844 C 363.53125 168.230469 363.980469 168.058594 364.382812 167.945312 C 364.785156 167.835938 365.101562 167.777344 365.335938 167.777344 C 365.867188 167.777344 366.253906 167.902344 366.492188 168.160156 C 366.734375 168.414062 366.851562 168.761719 366.851562 169.199219 C 366.851562 169.316406 366.835938 169.476562 366.8125 169.683594 C 366.785156 169.882812 366.742188 170.09375 366.695312 170.296875 L 365.65625 174.5 C 365.59375 174.753906 365.535156 175.007812 365.488281 175.253906 C 365.4375 175.503906 365.414062 175.703125 365.414062 175.863281 C 365.414062 176.238281 365.496094 176.496094 365.660156 176.636719 C 365.824219 176.773438 366.089844 176.839844 366.457031 176.839844 C 366.578125 176.839844 366.753906 176.828125 366.980469 176.796875 C 367.210938 176.761719 367.382812 176.722656 367.507812 176.679688 M 368.203125 164.050781 C 368.203125 164.425781 368.078125 164.753906 367.839844 165.039062 C 367.601562 165.316406 367.296875 165.457031 366.941406 165.457031 C 366.609375 165.457031 366.324219 165.320312 366.082031 165.054688 C 365.839844 164.785156 365.71875 164.480469 365.71875 164.136719 C 365.71875 163.773438 365.839844 163.457031 366.082031 163.183594 C 366.320312 162.914062 366.609375 162.78125 366.941406 162.78125 C 367.3125 162.78125 367.617188 162.90625 367.851562 163.164062 C 368.085938 163.417969 368.203125 163.710938 368.203125 164.046875 "/><path style=" stroke:none;fill-rule:nonzero;fill:#000000;fill-opacity:1;" d="M 374.832031 176.453125 L 374.765625 176.453125 C 374.625 176.570312 374.453125 176.722656 374.253906 176.90625 C 374.058594 177.089844 373.824219 177.261719 373.558594 177.429688 C 373.304688 177.597656 373.03125 177.742188 372.730469 177.863281 C 372.433594 177.988281 372.109375 178.046875 371.761719 178.046875 C 370.816406 178.046875 370.082031 177.707031 369.546875 177.019531 C 369.011719 176.335938 368.746094 175.394531 368.746094 174.207031 C 368.746094 173.390625 368.894531 172.59375 369.195312 171.820312 C 369.488281 171.050781 369.902344 170.355469 370.425781 169.742188 C 370.925781 169.152344 371.515625 168.683594 372.203125 168.324219 C 372.890625 167.960938 373.597656 167.78125 374.320312 167.78125 C 374.78125 167.78125 375.21875 167.84375 375.636719 167.964844 C 376.054688 168.089844 376.378906 168.230469 376.621094 168.386719 L 378.402344 167.921875 L 378.519531 168.070312 L 377.054688 174.453125 C 377 174.660156 376.949219 174.90625 376.894531 175.199219 C 376.839844 175.496094 376.8125 175.710938 376.8125 175.847656 C 376.8125 176.226562 376.890625 176.476562 377.042969 176.613281 C 377.199219 176.742188 377.460938 176.808594 377.828125 176.808594 C 377.953125 176.808594 378.125 176.789062 378.355469 176.75 C 378.582031 176.710938 378.753906 176.671875 378.878906 176.628906 L 378.730469 177.253906 C 378.148438 177.488281 377.714844 177.660156 377.429688 177.761719 C 377.144531 177.867188 376.800781 177.921875 376.390625 177.921875 C 375.925781 177.921875 375.554688 177.78125 375.285156 177.503906 C 375.011719 177.230469 374.863281 176.878906 374.835938 176.445312 M 376.21875 170.210938 C 376.21875 169.996094 376.195312 169.789062 376.148438 169.589844 C 376.105469 169.390625 376.007812 169.207031 375.867188 169.035156 C 375.738281 168.871094 375.554688 168.738281 375.332031 168.640625 C 375.101562 168.539062 374.816406 168.492188 374.472656 168.492188 C 374 168.492188 373.539062 168.648438 373.085938 168.96875 C 372.640625 169.285156 372.238281 169.707031 371.878906 170.246094 C 371.539062 170.746094 371.261719 171.351562 371.050781 172.0625 C 370.835938 172.773438 370.730469 173.496094 370.730469 174.226562 C 370.730469 174.628906 370.75 174.984375 370.796875 175.292969 C 370.84375 175.605469 370.929688 175.890625 371.0625 176.148438 C 371.183594 176.398438 371.363281 176.59375 371.597656 176.730469 C 371.832031 176.867188 372.128906 176.9375 372.484375 176.9375 C 372.839844 176.9375 373.230469 176.832031 373.628906 176.625 C 374.035156 176.414062 374.484375 176.050781 374.984375 175.53125 L 376.214844 170.210938 Z M 376.21875 170.210938 "/><path style=" stroke:none;fill-rule:nonzero;fill:#000000;fill-opacity:1;" d="M 385.253906 162.609375 L 382.539062 174.511719 C 382.480469 174.757812 382.429688 175.011719 382.375 175.261719 C 382.324219 175.511719 382.296875 175.714844 382.296875 175.871094 C 382.296875 176.25 382.378906 176.507812 382.542969 176.644531 C 382.707031 176.78125 382.972656 176.851562 383.34375 176.851562 C 383.472656 176.851562 383.664062 176.839844 383.917969 176.804688 C 384.175781 176.769531 384.367188 176.734375 384.492188 176.691406 L 384.347656 177.316406 C 383.765625 177.550781 383.316406 177.71875 383.003906 177.820312 C 382.691406 177.914062 382.339844 177.964844 381.945312 177.964844 C 381.425781 177.964844 381.03125 177.828125 380.765625 177.554688 C 380.5 177.28125 380.363281 176.945312 380.363281 176.542969 C 380.363281 176.390625 380.375 176.230469 380.40625 176.066406 C 380.433594 175.902344 380.476562 175.695312 380.527344 175.445312 L 382.886719 165.039062 C 382.9375 164.835938 382.964844 164.691406 382.980469 164.609375 C 382.996094 164.535156 383.003906 164.433594 383.003906 164.316406 C 383.003906 164.078125 382.964844 163.898438 382.886719 163.769531 C 382.808594 163.636719 382.703125 163.542969 382.558594 163.476562 C 382.421875 163.417969 382.25 163.375 382.046875 163.359375 C 381.839844 163.335938 381.628906 163.316406 381.414062 163.289062 L 381.554688 162.679688 L 385.15625 162.460938 Z M 385.253906 162.609375 "/><path style=" stroke:none;fill-rule:nonzero;fill:#000000;fill-opacity:1;" d="M 390.453125 176.691406 L 390.308594 177.316406 C 389.714844 177.5625 389.242188 177.730469 388.882812 177.820312 C 388.527344 177.917969 388.226562 177.964844 387.972656 177.964844 C 387.457031 177.964844 387.066406 177.828125 386.808594 177.554688 C 386.554688 177.28125 386.421875 176.949219 386.421875 176.542969 C 386.421875 176.394531 386.4375 176.234375 386.464844 176.070312 C 386.488281 175.90625 386.53125 175.695312 386.589844 175.449219 L 387.617188 171.257812 C 387.667969 171.027344 387.71875 170.785156 387.765625 170.519531 C 387.816406 170.257812 387.839844 170.035156 387.839844 169.851562 C 387.839844 169.480469 387.78125 169.238281 387.664062 169.113281 C 387.546875 168.992188 387.300781 168.933594 386.933594 168.933594 C 386.789062 168.933594 386.601562 168.953125 386.367188 169 C 386.132812 169.042969 385.953125 169.082031 385.832031 169.113281 L 385.976562 168.464844 C 386.480469 168.230469 386.933594 168.058594 387.335938 167.945312 C 387.738281 167.835938 388.058594 167.777344 388.289062 167.777344 C 388.820312 167.777344 389.207031 167.902344 389.445312 168.160156 C 389.6875 168.414062 389.804688 168.761719 389.804688 169.199219 C 389.804688 169.316406 389.789062 169.476562 389.765625 169.683594 C 389.738281 169.882812 389.699219 170.09375 389.648438 170.296875 L 388.609375 174.5 C 388.546875 174.753906 388.488281 175.007812 388.441406 175.253906 C 388.390625 175.503906 388.371094 175.703125 388.371094 175.863281 C 388.371094 176.238281 388.453125 176.496094 388.613281 176.636719 C 388.78125 176.773438 389.042969 176.839844 389.410156 176.839844 C 389.53125 176.839844 389.703125 176.828125 389.933594 176.796875 C 390.164062 176.761719 390.335938 176.722656 390.460938 176.679688 M 391.148438 164.050781 C 391.148438 164.425781 391.027344 164.753906 390.789062 165.039062 C 390.546875 165.316406 390.246094 165.457031 389.890625 165.457031 C 389.558594 165.457031 389.269531 165.320312 389.027344 165.054688 C 388.789062 164.785156 388.664062 164.480469 388.664062 164.136719 C 388.664062 163.773438 388.789062 163.457031 389.027344 163.183594 C 389.269531 162.914062 389.554688 162.78125 389.890625 162.78125 C 390.261719 162.78125 390.5625 162.90625 390.796875 163.164062 C 391.03125 163.417969 391.148438 163.710938 391.148438 164.046875 "/><path style=" stroke:none;fill-rule:nonzero;fill:#000000;fill-opacity:1;" d="M 394.515625 178.066406 C 393.558594 178.066406 392.761719 177.894531 392.128906 177.550781 C 391.492188 177.207031 391.175781 176.75 391.175781 176.195312 C 391.175781 175.929688 391.269531 175.6875 391.453125 175.453125 C 391.644531 175.226562 391.871094 175.109375 392.140625 175.109375 C 392.398438 175.109375 392.605469 175.167969 392.761719 175.292969 C 392.921875 175.414062 393.046875 175.558594 393.136719 175.722656 C 393.234375 175.890625 393.320312 176.09375 393.390625 176.328125 C 393.46875 176.566406 393.527344 176.757812 393.578125 176.910156 C 393.675781 177.019531 393.808594 177.125 393.980469 177.21875 C 394.152344 177.3125 394.398438 177.359375 394.71875 177.359375 C 395.414062 177.359375 395.945312 177.183594 396.300781 176.824219 C 396.660156 176.46875 396.835938 175.988281 396.835938 175.382812 C 396.835938 174.933594 396.667969 174.574219 396.335938 174.308594 C 396 174.042969 395.5 173.792969 394.835938 173.570312 C 394.597656 173.492188 394.316406 173.371094 393.996094 173.210938 C 393.671875 173.046875 393.414062 172.875 393.222656 172.691406 C 392.988281 172.476562 392.804688 172.226562 392.660156 171.933594 C 392.519531 171.644531 392.445312 171.300781 392.445312 170.902344 C 392.445312 170.058594 392.816406 169.328125 393.558594 168.707031 C 394.296875 168.089844 395.210938 167.785156 396.289062 167.785156 C 396.539062 167.785156 396.8125 167.796875 397.101562 167.824219 C 397.398438 167.847656 397.714844 167.921875 398.066406 168.039062 C 398.371094 168.144531 398.632812 168.300781 398.84375 168.507812 C 399.054688 168.710938 399.160156 168.980469 399.160156 169.308594 C 399.160156 169.578125 399.074219 169.824219 398.894531 170.042969 C 398.71875 170.265625 398.480469 170.375 398.1875 170.375 C 397.949219 170.375 397.75 170.320312 397.59375 170.21875 C 397.4375 170.113281 397.308594 169.972656 397.203125 169.800781 C 397.101562 169.625 397.019531 169.429688 396.953125 169.230469 C 396.886719 169.027344 396.816406 168.828125 396.738281 168.628906 C 396.617188 168.578125 396.503906 168.539062 396.40625 168.523438 C 396.3125 168.5 396.179688 168.492188 396.019531 168.492188 C 395.382812 168.492188 394.898438 168.667969 394.570312 169.011719 C 394.242188 169.359375 394.082031 169.765625 394.082031 170.242188 C 394.082031 170.714844 394.226562 171.050781 394.523438 171.289062 C 394.816406 171.523438 395.304688 171.765625 395.988281 172.015625 C 396.871094 172.335938 397.511719 172.707031 397.910156 173.125 C 398.3125 173.539062 398.511719 174.054688 398.511719 174.671875 C 398.511719 175.675781 398.132812 176.492188 397.378906 177.121094 C 396.621094 177.753906 395.667969 178.066406 394.519531 178.066406 "/><path style=" stroke:none;fill-rule:nonzero;fill:#000000;fill-opacity:1;" d="M 402.503906 177.96875 C 401.890625 177.96875 401.441406 177.839844 401.15625 177.585938 C 400.871094 177.332031 400.730469 176.96875 400.730469 176.492188 C 400.730469 176.34375 400.738281 176.199219 400.757812 176.066406 C 400.78125 175.925781 400.808594 175.773438 400.835938 175.605469 L 402.347656 169 L 400.613281 169 L 400.816406 168.113281 L 402.585938 168.113281 L 403.257812 165.214844 L 405.007812 165.214844 L 404.351562 168.113281 L 407.046875 168.113281 L 406.84375 169 L 404.175781 169 L 402.921875 174.445312 C 402.863281 174.691406 402.816406 174.9375 402.777344 175.171875 C 402.738281 175.402344 402.71875 175.605469 402.71875 175.773438 C 402.71875 176.132812 402.808594 176.398438 402.984375 176.566406 C 403.164062 176.734375 403.484375 176.816406 403.949219 176.816406 C 404.117188 176.816406 404.351562 176.796875 404.652344 176.753906 C 404.957031 176.710938 405.191406 176.65625 405.359375 176.59375 L 405.191406 177.316406 C 404.738281 177.492188 404.316406 177.648438 403.914062 177.777344 C 403.515625 177.90625 403.042969 177.972656 402.503906 177.972656 "/><path style=" stroke:none;fill-rule:nonzero;fill:#000000;fill-opacity:1;" d="M 409.972656 178.066406 C 409.015625 178.066406 408.222656 177.894531 407.585938 177.550781 C 406.949219 177.207031 406.632812 176.75 406.632812 176.195312 C 406.632812 175.929688 406.726562 175.6875 406.914062 175.453125 C 407.097656 175.226562 407.332031 175.109375 407.601562 175.109375 C 407.871094 175.109375 408.0625 175.167969 408.222656 175.292969 C 408.378906 175.414062 408.507812 175.558594 408.59375 175.722656 C 408.691406 175.890625 408.777344 176.09375 408.847656 176.328125 C 408.925781 176.566406 408.988281 176.757812 409.039062 176.910156 C 409.136719 177.019531 409.265625 177.125 409.441406 177.21875 C 409.609375 177.3125 409.859375 177.359375 410.179688 177.359375 C 410.875 177.359375 411.402344 177.183594 411.757812 176.824219 C 412.117188 176.46875 412.296875 175.988281 412.296875 175.382812 C 412.296875 174.933594 412.128906 174.574219 411.792969 174.308594 C 411.457031 174.042969 410.960938 173.792969 410.292969 173.570312 C 410.054688 173.492188 409.773438 173.371094 409.453125 173.210938 C 409.132812 173.046875 408.871094 172.875 408.679688 172.691406 C 408.449219 172.476562 408.261719 172.226562 408.121094 171.933594 C 407.980469 171.644531 407.90625 171.300781 407.90625 170.902344 C 407.90625 170.058594 408.273438 169.328125 409.015625 168.707031 C 409.757812 168.089844 410.667969 167.785156 411.75 167.785156 C 412 167.785156 412.269531 167.796875 412.5625 167.824219 C 412.851562 167.847656 413.171875 167.921875 413.523438 168.039062 C 413.824219 168.144531 414.085938 168.300781 414.300781 168.507812 C 414.511719 168.710938 414.621094 168.980469 414.621094 169.308594 C 414.621094 169.578125 414.53125 169.824219 414.351562 170.042969 C 414.175781 170.265625 413.9375 170.375 413.644531 170.375 C 413.402344 170.375 413.207031 170.320312 413.050781 170.21875 C 412.890625 170.113281 412.765625 169.972656 412.660156 169.800781 C 412.554688 169.625 412.472656 169.429688 412.410156 169.230469 C 412.34375 169.027344 412.269531 168.828125 412.195312 168.628906 C 412.070312 168.578125 411.960938 168.539062 411.863281 168.523438 C 411.765625 168.5 411.632812 168.492188 411.472656 168.492188 C 410.835938 168.492188 410.355469 168.667969 410.027344 169.011719 C 409.699219 169.359375 409.535156 169.765625 409.535156 170.242188 C 409.535156 170.714844 409.683594 171.050781 409.976562 171.289062 C 410.273438 171.523438 410.757812 171.765625 411.445312 172.015625 C 412.324219 172.335938 412.96875 172.707031 413.371094 173.125 C 413.765625 173.539062 413.96875 174.054688 413.96875 174.671875 C 413.96875 175.675781 413.589844 176.492188 412.832031 177.121094 C 412.078125 177.753906 411.128906 178.066406 409.976562 178.066406 "/><path style=" stroke:none;fill-rule:nonzero;fill:#000000;fill-opacity:1;" d="M 423.835938 163.511719 C 423.835938 163.765625 423.660156 164.316406 423.300781 165.164062 C 422.945312 166.007812 422.550781 167.019531 422.121094 168.1875 L 421.53125 168.1875 C 421.5625 167.070312 421.578125 166.121094 421.578125 165.347656 C 421.578125 164.570312 421.601562 164.039062 421.65625 163.746094 C 421.707031 163.453125 421.851562 163.191406 422.082031 162.972656 C 422.316406 162.753906 422.601562 162.644531 422.945312 162.644531 C 423.246094 162.644531 423.472656 162.730469 423.617188 162.894531 C 423.761719 163.0625 423.835938 163.265625 423.835938 163.511719 M 420.183594 163.511719 C 420.183594 163.765625 420.003906 164.316406 419.644531 165.164062 C 419.289062 166.007812 418.898438 167.019531 418.46875 168.1875 L 417.878906 168.1875 C 417.910156 167.070312 417.925781 166.121094 417.925781 165.347656 C 417.925781 164.570312 417.953125 164.039062 418.003906 163.746094 C 418.054688 163.453125 418.199219 163.191406 418.429688 162.972656 C 418.660156 162.753906 418.949219 162.644531 419.292969 162.644531 C 419.59375 162.644531 419.816406 162.730469 419.964844 162.894531 C 420.109375 163.0625 420.183594 163.265625 420.183594 163.511719 "/></g></svg>