<svg width="189" height="69" viewBox="0 0 189 69" fill="none" xmlns="http://www.w3.org/2000/svg">
<g clip-path="url(#clip0_1636_7683)">
<path d="M55.5038 39.354H54.9858V44.9919H55.5038V39.354Z" fill="white"/>
<path d="M58.3728 40.913C57.802 40.9215 57.3226 41.1551 57.0307 41.5602V40.9837H56.5522V44.9919H57.0392V42.7659C57.0392 41.9765 57.5939 41.3991 58.3586 41.3915C58.7777 41.3915 59.1243 41.5065 59.356 41.7373C59.5849 41.9643 59.7007 42.2864 59.7007 42.6953V44.9919H60.1876V42.6877C60.1876 41.6101 59.4756 40.913 58.3737 40.913H58.3728Z" fill="white"/>
<path d="M63.177 44.438C62.967 44.5388 62.7673 44.5915 62.5969 44.5915C62.0384 44.5915 61.9263 44.2656 61.9263 43.739V41.4066H63.2552V40.9827H61.9263V39.7986L61.4479 39.8486V40.9827H60.6172V41.4066H61.4479V43.739C61.4479 44.6311 61.8133 45.0465 62.5969 45.0465C62.8239 45.0465 63.0715 44.9806 63.3541 44.844L63.3965 44.8233L63.2232 44.4154L63.1761 44.438H63.177Z" fill="white"/>
<path d="M65.8639 40.9205C64.7036 40.9205 63.8286 41.8088 63.8286 42.9873C63.8286 44.1657 64.6659 45.0465 65.8639 45.0465C66.5655 45.0465 67.2257 44.7507 67.5883 44.275L67.6175 44.2364L67.2634 43.9528L67.2323 43.9933C66.9328 44.3899 66.3291 44.567 65.8639 44.567C65.0332 44.567 64.422 44.0272 64.3287 43.2181H67.8389L67.8436 43.1738C67.9104 42.4937 67.756 41.9247 67.3962 41.5272C67.0411 41.1353 66.4968 40.9196 65.8639 40.9196V40.9205ZM67.3953 42.78H64.3278C64.4276 41.9379 65.0379 41.3755 65.8629 41.3755C66.7972 41.3755 67.367 41.8993 67.3943 42.78H67.3953Z" fill="white"/>
<path d="M71.3648 44.5246C71.9544 44.2091 72.3434 43.5581 72.3434 42.8686C72.3434 42.3222 72.1946 41.8983 71.8772 41.5385L72.2605 41.091L71.9328 40.8047L71.5494 41.2521C71.233 41.0392 70.8252 40.913 70.4503 40.913C69.323 40.913 68.5658 41.6996 68.5658 42.8695C68.5658 44.0395 69.3588 44.8101 70.4503 44.8101C71.1096 44.8101 71.88 45.104 71.88 45.931C71.88 46.9795 70.7856 47.0605 70.4503 47.0605C69.7977 47.0605 69.0357 46.7647 69.0357 45.931V45.8811H68.5488V45.931C68.5488 46.8928 69.3126 47.539 70.4494 47.539C71.5862 47.539 72.3575 46.923 72.3575 45.931C72.3575 45.2763 72.0147 44.7922 71.363 44.5246H71.3648ZM71.864 42.8686C71.864 43.657 71.217 44.3221 70.4503 44.3221C69.5321 44.3221 69.0518 43.5911 69.0518 42.8686C69.0518 41.7853 69.7741 41.3991 70.4503 41.3991C71.3093 41.3991 71.864 41.9756 71.864 42.8686Z" fill="white"/>
<path d="M74.7698 40.9441C74.2245 40.9441 73.7696 41.1664 73.5182 41.547L73.5059 40.9837H73.0444V44.9919H73.5313V42.6632C73.5313 41.9662 74.0767 41.4141 74.7717 41.4076C75.0072 41.4076 75.2219 41.466 75.4103 41.5818L75.4545 41.6091L75.6759 41.206L75.6354 41.1815C75.3632 41.0166 75.0731 40.9366 74.7708 40.945L74.7698 40.9441Z" fill="white"/>
<path d="M79.5138 41.7099C79.1832 41.222 78.6172 40.9366 77.9654 40.9366C76.8051 40.9366 75.9302 41.8183 75.9302 42.9882C75.9302 44.1582 76.8051 45.0559 77.9654 45.0559C78.6002 45.0559 79.1436 44.7799 79.5138 44.2741V44.9928H79.9997V40.9846H79.5138V41.7109V41.7099ZM79.5477 42.9911C79.5477 43.4074 79.4073 43.7946 79.1521 44.0819C78.8649 44.405 78.4552 44.5755 77.9654 44.5755C77.0679 44.5755 76.4171 43.9076 76.4171 42.9873C76.4171 42.067 77.0679 41.4066 77.9654 41.4066C79.0523 41.4066 79.5477 42.228 79.5477 42.9911Z" fill="white"/>
<path d="M83.0291 44.438C82.82 44.5388 82.6194 44.5915 82.4499 44.5915C81.8914 44.5915 81.7793 44.2656 81.7793 43.739V41.4066H83.1082V40.9827H81.7793V39.7986L81.3009 39.8486V40.9827H80.4702V41.4066H81.3009V43.739C81.3009 44.6311 81.6663 45.0465 82.4499 45.0465C82.6769 45.0465 82.9246 44.9806 83.2071 44.844L83.2495 44.8233L83.0762 44.4154L83.0291 44.438Z" fill="white"/>
<path d="M85.7154 40.9205C84.5551 40.9205 83.6802 41.8088 83.6802 42.9873C83.6802 44.1657 84.5174 45.0465 85.7154 45.0465C86.4171 45.0465 87.0773 44.7507 87.4399 44.275L87.4691 44.2364L87.115 43.9528L87.0848 43.9933C86.7863 44.3899 86.1816 44.567 85.7164 44.567C84.8848 44.567 84.2745 44.0272 84.1812 43.2181H87.6914L87.6961 43.1738C87.7629 42.4937 87.6085 41.9247 87.2487 41.5272C86.8936 41.1353 86.3493 40.9196 85.7173 40.9196L85.7154 40.9205ZM87.2468 42.78H84.1793C84.2792 41.9379 84.8895 41.3755 85.7145 41.3755C86.6488 41.3755 87.2186 41.8993 87.2459 42.78H87.2468Z" fill="white"/>
<path d="M91.9698 41.7015C91.6468 41.2022 91.0836 40.9205 90.3979 40.9205C89.1953 40.9205 88.3862 41.7514 88.3862 42.9873C88.3862 44.2232 89.1915 45.055 90.3895 45.055C91.0374 45.055 91.627 44.7526 91.9698 44.2543V44.9919H92.4483V39.354H91.9698V41.7015ZM91.9623 42.9797C91.9623 43.9048 91.3106 44.5755 90.414 44.5755C89.5173 44.5755 88.8656 43.9519 88.8656 42.9873C88.8656 41.8107 89.6652 41.3906 90.414 41.3906C91.3115 41.3906 91.9623 42.0585 91.9623 42.9788V42.9797Z" fill="white"/>
<path d="M99.6023 42.3637C99.9103 42.0528 100.078 41.6138 100.073 41.1278C100.066 40.2734 99.477 39.354 98.2046 39.354H95.7183V44.9919H96.2438V42.895H97.6838L99.5985 44.9919H100.295L98.3384 42.8686C98.8601 42.8469 99.2943 42.6736 99.6023 42.3637ZM98.1566 42.3919H96.2438V39.8476H98.2037C98.5908 39.8476 98.9204 39.9729 99.154 40.2103C99.3829 40.442 99.5109 40.7726 99.5072 41.1193C99.4987 41.9398 99.0193 42.3919 98.1566 42.3919Z" fill="white"/>
<path d="M102.586 40.9205C101.426 40.9205 100.551 41.8088 100.551 42.9873C100.551 44.1657 101.387 45.0465 102.586 45.0465C103.288 45.0465 103.948 44.7507 104.31 44.275L104.34 44.2364L103.986 43.9528L103.954 43.9933C103.655 44.3899 103.051 44.567 102.585 44.567C101.754 44.567 101.143 44.0272 101.05 43.2181H104.56L104.565 43.1738C104.632 42.4937 104.477 41.9247 104.117 41.5272C103.762 41.1353 103.218 40.9196 102.585 40.9196L102.586 40.9205ZM104.117 42.78H101.05C101.15 41.9379 101.76 41.3755 102.585 41.3755C103.519 41.3755 104.089 41.8993 104.116 42.78H104.117Z" fill="white"/>
<path d="M107.3 41.4076C107.734 41.4076 108.149 41.5724 108.436 41.8597L108.471 41.8946L108.796 41.5799L108.759 41.5441C108.364 41.157 107.846 40.9441 107.301 40.9441C106.089 40.9441 105.242 41.7844 105.242 42.9873C105.242 44.1902 106.108 45.0305 107.301 45.0305C107.855 45.0305 108.373 44.8176 108.76 44.4304L108.795 44.3956L108.463 44.0649L108.428 44.0998C108.131 44.3975 107.72 44.568 107.301 44.568C106.515 44.568 105.721 44.0791 105.721 42.9873C105.721 41.8955 106.515 41.4066 107.301 41.4066L107.3 41.4076Z" fill="white"/>
<path d="M111.397 40.913C110.217 40.913 109.361 41.7891 109.361 42.9958C109.361 44.2025 110.199 45.0474 111.397 45.0474C112.595 45.0474 113.432 44.2044 113.432 42.9958C113.432 41.7872 112.576 40.913 111.397 40.913ZM112.952 42.9958C112.952 43.9218 112.313 44.568 111.397 44.568C110.48 44.568 109.84 43.9218 109.84 42.9958C109.84 42.0698 110.494 41.3755 111.397 41.3755C112.299 41.3755 112.952 42.0566 112.952 42.9958Z" fill="white"/>
<path d="M115.676 44.3608L114.298 41.0148L114.285 40.9837H113.75L115.43 44.9919H115.922L117.602 40.9837H117.067L115.676 44.3608Z" fill="white"/>
<path d="M119.931 40.9205C118.771 40.9205 117.896 41.8088 117.896 42.9873C117.896 44.1657 118.732 45.0465 119.931 45.0465C120.633 45.0465 121.293 44.7507 121.656 44.275L121.685 44.2364L121.331 43.9528L121.301 43.9933C121.002 44.3899 120.397 44.567 119.932 44.567C119.102 44.567 118.49 44.0272 118.397 43.2181H121.907L121.912 43.1738C121.979 42.4937 121.823 41.9247 121.465 41.5272C121.109 41.1353 120.565 40.9196 119.933 40.9196L119.931 40.9205ZM121.463 42.78H118.395C118.495 41.9379 119.105 41.3755 119.93 41.3755C120.865 41.3755 121.434 41.8993 121.462 42.78H121.463Z" fill="white"/>
<path d="M124.542 40.9441C123.997 40.9441 123.542 41.1664 123.291 41.547L123.277 40.9837H122.816V44.9919H123.303V42.6632C123.303 41.9662 123.848 41.4141 124.543 41.4076C124.779 41.4076 124.993 41.466 125.182 41.5818L125.226 41.6091L125.448 41.206L125.408 41.1815C125.136 41.0166 124.845 40.9356 124.543 40.945L124.542 40.9441Z" fill="white"/>
<path d="M128.102 43.318L127.697 44.3419L127.285 43.3255L126.363 40.9837H125.836L127.422 44.8939L126.681 46.6216H127.2L129.594 41.0525L129.623 40.9837H129.097L128.102 43.318Z" fill="white"/>
<path d="M136.852 44.4182C136.686 44.2543 136.605 43.9519 136.605 43.4941V42.3326H137.112V41.8936H134.713C134.014 41.8936 133.196 41.6167 133.188 40.8348C133.186 40.5758 133.275 40.3459 133.449 40.1698C133.708 39.9079 134.14 39.7694 134.697 39.7694C135.373 39.7694 136.064 39.8844 136.064 40.7406V40.7906H136.535V40.7406C136.535 39.7864 135.937 39.322 134.706 39.322C133.475 39.322 132.686 39.9192 132.686 40.8433C132.686 41.4 133.053 41.8984 133.61 42.1188C133.084 42.3364 132.591 42.8178 132.591 43.4706C132.591 44.4832 133.356 45.0635 134.69 45.0635C135.215 45.0635 135.866 44.9806 136.302 44.3542C136.456 44.7978 136.825 45.0512 137.251 44.9919L137.294 44.9862V44.5604H137.244C137.085 44.5623 136.952 44.5171 136.852 44.4191V44.4182ZM136.159 42.3326V43.4941C136.159 44.5124 135.028 44.5925 134.681 44.5925C133.657 44.5925 133.093 44.194 133.093 43.4706C133.093 42.9054 133.641 42.3336 134.69 42.3336H136.159V42.3326Z" fill="white"/>
<path d="M142.844 39.354H140.366V44.9919H140.891V43.0768H142.844C143.415 43.0768 143.896 42.8752 144.234 42.4937C144.532 42.1555 144.697 41.7024 144.697 41.2154C144.697 40.3186 144.117 39.354 142.845 39.354H142.844ZM144.176 41.2191C144.176 41.579 144.058 41.9143 143.843 42.163C143.602 42.4419 143.256 42.5898 142.844 42.5898H140.891V39.8485H142.844C143.759 39.8485 144.176 40.5588 144.176 41.2191Z" fill="white"/>
<path d="M147.115 40.9205C145.955 40.9205 145.08 41.8088 145.08 42.9873C145.08 44.1657 145.916 45.0465 147.115 45.0465C147.816 45.0465 148.477 44.7507 148.839 44.275L148.868 44.2364L148.514 43.9528L148.484 43.9933C148.185 44.3899 147.581 44.567 147.115 44.567C146.284 44.567 145.673 44.0272 145.58 43.2181H149.09L149.095 43.1738C149.161 42.4937 149.007 41.9247 148.647 41.5272C148.292 41.1353 147.748 40.9196 147.115 40.9196V40.9205ZM148.647 42.78H145.58C145.679 41.9379 146.29 41.3755 147.115 41.3755C148.049 41.3755 148.619 41.8993 148.647 42.78Z" fill="white"/>
<path d="M151.726 40.9441C151.181 40.9441 150.726 41.1664 150.474 41.547L150.461 40.9837H150V44.9919H150.485V42.6632C150.485 41.9662 151.031 41.4141 151.726 41.4076C151.961 41.4076 152.176 41.466 152.364 41.5818L152.409 41.6091L152.631 41.206L152.59 41.1815C152.318 41.0166 152.03 40.9366 151.726 40.945V40.9441Z" fill="white"/>
<path d="M154.724 39.3305C153.925 39.3305 153.503 39.8099 153.503 40.7171V41.0157H152.705V41.4547H153.503V44.9919H153.982V41.4547H155.271V41.0157H153.982V40.7171C153.982 40.0897 154.219 39.7855 154.708 39.7855C154.925 39.7855 155.061 39.8448 155.284 39.9757L155.325 39.9993L155.567 39.6366L155.529 39.6084C155.282 39.4237 155.012 39.3295 154.724 39.3295V39.3305Z" fill="white"/>
<path d="M157.61 40.913C156.431 40.913 155.575 41.7891 155.575 42.9958C155.575 44.2025 156.412 45.0474 157.61 45.0474C158.809 45.0474 159.646 44.2044 159.646 42.9958C159.646 41.7872 158.79 40.913 157.61 40.913ZM159.166 42.9958C159.166 43.9218 158.527 44.568 157.61 44.568C156.694 44.568 156.054 43.9218 156.054 42.9958C156.054 42.0698 156.708 41.3755 157.61 41.3755C158.513 41.3755 159.166 42.0566 159.166 42.9958Z" fill="white"/>
<path d="M162.166 40.9441C161.62 40.9441 161.166 41.1664 160.914 41.547L160.901 40.9837H160.439V44.9919H160.926V42.6632C160.926 41.9662 161.472 41.4141 162.167 41.4076C162.402 41.4076 162.617 41.466 162.805 41.5818L162.85 41.6091L163.072 41.206L163.031 41.1815C162.759 41.0166 162.472 40.9366 162.167 40.945L162.166 40.9441Z" fill="white"/>
<path d="M168.13 40.9046C167.492 40.9046 166.938 41.2465 166.685 41.7853C166.45 41.2314 165.917 40.9046 165.234 40.9046C164.713 40.9046 164.275 41.1222 164.008 41.5084L164.001 40.9837H163.539V44.9919H164.026V42.6237C164.026 41.8889 164.519 41.3756 165.227 41.3756C165.934 41.3756 166.435 41.8889 166.435 42.6237V44.9919H166.922V42.6237C166.922 41.8842 167.419 41.368 168.13 41.368C168.841 41.368 169.331 41.8748 169.331 42.6002V44.9919H169.817V42.6002C169.817 41.6026 169.123 40.9055 168.13 40.9055V40.9046Z" fill="white"/>
<path d="M174.179 41.7099C173.848 41.222 173.283 40.9366 172.63 40.9366C171.47 40.9366 170.595 41.8183 170.595 42.9882C170.595 44.1582 171.47 45.0559 172.63 45.0559C173.265 45.0559 173.809 44.7799 174.179 44.2741V44.9928H174.666V40.9846H174.179V41.7109V41.7099ZM174.213 42.9911C174.213 43.4074 174.072 43.7946 173.817 44.0819C173.53 44.405 173.12 44.5755 172.63 44.5755C171.733 44.5755 171.082 43.9076 171.082 42.9873C171.082 42.067 171.733 41.4066 172.63 41.4066C173.717 41.4066 174.213 42.228 174.213 42.9911Z" fill="white"/>
<path d="M177.439 40.913C176.869 40.9215 176.389 41.1551 176.097 41.5602V40.9837H175.618V44.9919H176.104V42.7659C176.104 41.9765 176.659 41.3991 177.424 41.3915C177.43 41.3915 177.438 41.3915 177.444 41.3915C177.855 41.3915 178.193 41.5112 178.421 41.7373C178.65 41.9643 178.766 42.2864 178.766 42.6953V44.9919H179.253V42.6877C179.253 41.6101 178.541 40.913 177.439 40.913Z" fill="white"/>
<path d="M181.995 41.4076C182.429 41.4076 182.843 41.5724 183.131 41.8597L183.166 41.8946L183.49 41.5799L183.454 41.5441C183.059 41.157 182.541 40.9441 181.995 40.9441C180.783 40.9441 179.936 41.7844 179.936 42.9873C179.936 44.1902 180.802 45.0305 181.995 45.0305C182.549 45.0305 183.067 44.8176 183.454 44.4304L183.489 44.3956L183.158 44.0649L183.123 44.0998C182.826 44.3975 182.414 44.568 181.995 44.568C181.208 44.568 180.415 44.0791 180.415 42.9873C180.415 41.8955 181.209 41.4066 181.995 41.4066V41.4076Z" fill="white"/>
<path d="M187.663 41.5281C187.308 41.1363 186.763 40.9205 186.131 40.9205C184.971 40.9205 184.096 41.8089 184.096 42.9873C184.096 44.1657 184.933 45.0465 186.131 45.0465C186.833 45.0465 187.493 44.7507 187.856 44.275L187.885 44.2364L187.531 43.9528L187.501 43.9933C187.201 44.3899 186.598 44.567 186.132 44.567C185.302 44.567 184.69 44.0273 184.597 43.2181H188.107L188.112 43.1738C188.179 42.4937 188.024 41.9247 187.665 41.5272L187.663 41.5281ZM187.663 42.7801H184.595C184.694 41.9379 185.305 41.3755 186.131 41.3755C187.065 41.3755 187.635 41.8993 187.662 42.7801H187.663Z" fill="white"/>
<path d="M22.5686 14.312C27.0384 7.75566 35.9818 7.22437 41.3021 12.2254C46.2109 16.8394 46.4425 24.7983 41.7033 29.6958C38.9994 32.4897 35.6466 33.7473 31.7701 33.428C27.9039 33.1096 24.8882 31.2369 22.594 28.0557C19.4869 32.1779 15.4268 34.0648 10.3109 33.3055C7.17275 32.8402 4.60442 31.2689 2.65016 28.7707C-1.426 23.5605 -0.737534 16.2911 4.28421 11.8741C7.03995 9.44937 10.3175 8.52056 13.95 8.9812C17.5958 9.44372 20.4156 11.3164 22.5686 14.312ZM28.1629 25.2307C31.4828 28.7726 36.1015 27.2145 37.7939 24.7635C39.7632 21.9101 39.1152 18.0338 36.2719 16.1159C34.8762 15.1748 33.3335 14.8272 31.6778 15.1598C29.3439 15.6279 27.8305 17.0796 26.9687 19.2499H18.1948C16.7227 15.254 12.3292 14.0529 9.24285 15.887C6.17442 17.7107 5.27123 21.6784 7.26033 24.6014C8.2304 26.0267 9.57625 26.9159 11.2725 27.2023C13.5356 27.5847 15.4334 26.8274 16.9619 25.2194C20.7245 26.9461 24.4315 26.9414 28.1629 25.2307Z" fill="white"/>
<path d="M34.8416 6.63373C30.1062 6.0902 26.063 7.43914 22.5792 10.6438C19.1425 7.45798 15.088 6.09585 10.394 6.55932C12.9812 3.12667 16.3868 1.08159 20.6344 0.529576C27.0133 -0.299383 32.2601 2.95899 34.8416 6.63373Z" fill="white"/>
<path d="M22.502 68.5834C22.3692 67.6583 22.2524 66.7305 22.0998 65.8092C21.7448 63.6671 21.1119 61.6041 20.2944 59.5929C20.1606 59.2642 20.0768 58.8902 20.0768 58.5369C20.0636 52.7804 20.0674 47.0229 20.0674 41.2663C20.0674 40.1171 20.4573 39.7346 21.6261 39.7327C22.3419 39.7327 23.0586 39.7271 23.7744 39.7346C24.573 39.7431 25.0119 40.1425 25.0995 40.9357C25.1221 41.1401 25.1212 41.3483 25.1212 41.5546C25.1221 47.1519 25.1277 52.7502 25.1108 58.3476C25.1099 58.7621 25.0119 59.2011 24.8556 59.5873C23.748 62.3172 23.0096 65.1338 22.7459 68.0719C22.7299 68.248 22.6781 68.4213 22.6432 68.5966C22.5962 68.5918 22.5491 68.5871 22.502 68.5824V68.5834Z" fill="white"/>
<path d="M22.484 31.7945C23.6321 32.5783 24.6822 33.3809 25.8133 34.0478C27.5783 35.0896 29.5297 35.603 31.5649 35.8074C32.2835 35.88 32.7102 36.3142 32.6857 36.9171C32.6603 37.5445 32.1894 37.9364 31.4369 37.9364C25.5326 37.9382 19.6284 37.9382 13.7242 37.9364C12.9689 37.9364 12.4904 37.5464 12.4641 36.9256C12.4377 36.3199 12.8606 35.88 13.582 35.8074C16.9584 35.4702 19.9015 34.1731 22.3898 31.8605C22.435 31.8181 22.4915 31.7879 22.4849 31.7926L22.484 31.7945Z" fill="white"/>
<path d="M26.7656 56.9779V56.4834C26.7656 51.4135 26.7656 46.3446 26.7656 41.2748C26.7656 41.1316 26.7599 40.9884 26.7731 40.8462C26.8287 40.2188 27.325 39.7497 27.9372 39.7384C28.5277 39.728 29.0429 40.1576 29.138 40.7567C29.1653 40.9282 29.1578 41.1052 29.1578 41.2795C29.1587 45.1408 29.1662 49.003 29.1446 52.8642C29.1427 53.2005 29.0005 53.5688 28.8253 53.8656C28.2621 54.8236 27.6546 55.7562 27.0622 56.6972C26.9982 56.799 26.9285 56.8969 26.8616 56.9958C26.8287 56.9892 26.7966 56.9836 26.7637 56.977L26.7656 56.9779Z" fill="white"/>
<path d="M18.3259 57.1032C18.1177 56.7387 17.9821 56.4768 17.8248 56.2291C17.2955 55.3982 16.7483 54.5777 16.2303 53.7393C16.1041 53.5349 15.9958 53.2768 15.9949 53.0432C15.9808 49.068 15.9826 45.0937 15.9873 41.1184C15.9873 40.4251 16.2718 39.9937 16.8105 39.8043C17.2757 39.6404 17.8003 39.762 18.0923 40.1764C18.2468 40.3959 18.3664 40.6955 18.3673 40.9592C18.3833 46.2222 18.3796 51.4851 18.3786 56.7472C18.3786 56.8187 18.3579 56.8913 18.3259 57.1023V57.1032Z" fill="white"/>
<path d="M30.7983 52.1163V51.6142C30.7983 48.2127 30.7974 44.8111 30.8011 41.4095C30.8011 41.1571 30.8105 40.898 30.8661 40.6531C30.9989 40.0672 31.516 39.697 32.0933 39.7403C32.7045 39.7865 33.1491 40.232 33.1867 40.8585C33.2065 41.191 33.1962 41.5254 33.1962 41.8598C33.1962 44.3081 33.1905 46.7554 33.2018 49.2036C33.2037 49.5635 33.0982 49.8282 32.842 50.0872C32.2826 50.6515 31.7608 51.2515 31.2221 51.8365C31.1213 51.9458 31.0168 52.0522 30.9141 52.1596C30.8755 52.1455 30.8369 52.1304 30.7974 52.1163H30.7983Z" fill="white"/>
<path d="M14.3458 52.2642C13.4888 51.3391 12.7391 50.53 11.9828 49.7142C11.9734 49.6247 11.9555 49.5305 11.9545 49.4363C11.9527 46.6075 11.9498 43.7777 11.9555 40.9489C11.9564 40.3941 12.254 39.9871 12.7381 39.8119C13.1977 39.6452 13.76 39.7544 14.0246 40.1623C14.2036 40.4383 14.3213 40.8029 14.3307 41.1316C14.3656 42.3864 14.3449 43.643 14.3449 44.8987C14.3449 47.1397 14.3449 49.3807 14.3449 51.6217C14.3449 51.7875 14.3449 51.9543 14.3449 52.2642H14.3458Z" fill="white"/>
<path d="M188.63 32.6593H181.858C179.247 28.1461 176.649 23.6556 173.978 19.0379C171.293 23.6537 168.684 28.1386 166.051 32.664H159.326C164.206 24.6607 169.028 16.7526 173.957 8.67123C178.872 16.7065 183.713 24.6202 188.631 32.6593H188.63Z" fill="white"/>
<path d="M107.333 19.0398C104.62 23.7009 102.01 28.1848 99.4067 32.6574H92.6821C97.572 24.641 102.382 16.7545 107.31 8.67502C112.235 16.7253 117.068 24.625 121.979 32.6517H115.211C112.65 28.2281 110.051 23.7367 107.333 19.0408V19.0398Z" fill="white"/>
<path d="M79.0304 20.141C82.8664 24.1935 86.8484 28.3996 90.9801 32.7648H83.942C80.0485 28.6567 76.043 24.4309 72.2456 20.4236C76.0543 16.4267 79.798 12.4967 83.3976 8.7193H89.8603C86.2984 12.476 82.6922 16.2788 79.0295 20.142L79.0304 20.141Z" fill="white"/>
<path d="M139.729 20.3633C143.524 16.3871 147.249 12.4835 150.844 8.71645H157.803C153.909 12.5344 150.167 16.2025 146.37 19.9262C150.404 24.1916 154.4 28.4155 158.542 32.794H151.511C147.574 28.6397 143.569 24.4149 139.73 20.3633H139.729Z" fill="white"/>
<path d="M65.7544 32.794V8.75604H71.2235V32.7949H65.7544V32.794Z" fill="white"/>
<path d="M60.5283 32.8034H55.208V8.76073H60.5283V32.8043V32.8034Z" fill="white"/>
<path d="M123.714 8.72307H129.065V32.7836H123.714V8.72307Z" fill="white"/>
<path d="M133.312 8.72021H138.77V32.7902H133.312V8.72021Z" fill="white"/>
</g>
<defs>
<clipPath id="clip0_1636_7683">
<rect width="188.63" height="68.1979" fill="white" transform="translate(0 0.399536)"/>
</clipPath>
</defs>
</svg>
