<svg width="182" height="36" viewBox="0 0 182 36" fill="none" xmlns="http://www.w3.org/2000/svg">
<g clip-path="url(#clip0_1636_7684)">
<path d="M39.1652 15.3585C38.3677 15.7691 37.8657 16.5912 37.8657 17.4882V32.0299C37.8657 32.6113 38.2511 33.039 38.8712 33.039H44.8718C45.4882 33.039 45.8773 32.6113 45.8773 32.0299V14.9664C45.8773 13.5689 44.3981 12.6659 43.155 13.3053L39.1652 15.3578V15.3585Z" fill="white"/>
<path d="M41.8904 4.16431C39.6835 4.16431 37.8657 5.98211 37.8657 8.18902C37.8657 10.3959 39.6835 12.1751 41.8904 12.1751C44.0973 12.1751 45.8765 10.3959 45.8765 8.18902C45.8765 5.98211 44.136 4.16431 41.8904 4.16431Z" fill="white"/>
<path d="M128.075 15.3585C127.277 15.7691 126.775 16.5912 126.775 17.4882V32.0299C126.775 32.6113 127.161 33.039 127.781 33.039H133.782C134.398 33.039 134.787 32.6113 134.787 32.0299V14.9664C134.787 13.5689 133.308 12.6659 132.065 13.3053L128.075 15.3578V15.3585Z" fill="white"/>
<path d="M130.8 4.16431C128.593 4.16431 126.775 5.98211 126.775 8.18902C126.775 10.3959 128.593 12.1751 130.8 12.1751C133.007 12.1751 134.786 10.3959 134.786 8.18902C134.786 5.98211 133.046 4.16431 130.8 4.16431Z" fill="white"/>
<path d="M49.9655 9.80484C49.168 10.2155 48.666 11.0375 48.666 11.9345V32.0299C48.666 32.6113 49.0514 33.039 49.6714 33.039H55.6684C56.2885 33.039 56.6776 32.6113 56.6776 32.0299V9.41277C56.6776 8.01526 55.1984 7.1123 53.9553 7.75165L49.9655 9.8041V9.80484Z" fill="white"/>
<path d="M60.7992 4.2319C60.0017 4.64254 59.5005 5.46456 59.5005 6.36158V32.0306C59.5005 32.6121 59.8896 33.0398 60.5096 33.0398H66.5066C67.1266 33.0398 67.5157 32.6121 67.5157 32.0306V3.83686C67.5157 2.4386 66.0366 1.53639 64.7935 2.17648L60.8 4.2319H60.7992Z" fill="white"/>
<path d="M94.7477 15.3585C93.9502 15.7692 93.4482 16.5912 93.4482 17.4882V32.0299C93.4482 32.6113 93.8336 33.039 94.4537 33.039H100.454C101.071 33.039 101.46 32.6113 101.46 32.0299V14.9665C101.46 13.5689 99.9806 12.666 98.7376 13.3053L94.7477 15.3578V15.3585Z" fill="white"/>
<path d="M103.125 15.311C104.131 13.8786 106.491 12.4083 108.659 12.4083C110.943 12.4083 113.033 14.0338 113.033 19.0268V32.0314C113.033 32.6121 112.646 33.0376 112.027 33.0376H106.027C105.447 33.0376 105.021 32.6121 105.021 32.0314V19.0268C105.021 17.7882 104.905 16.4338 103.357 16.4338C102.854 16.4338 102.738 16.3179 102.738 16.0855C102.738 15.9311 102.815 15.66 103.125 15.3118V15.311Z" fill="white"/>
<path d="M114.311 15.311C115.317 13.8786 117.717 12.4083 119.885 12.4083C122.169 12.4083 124.258 14.0338 124.258 19.0268V32.0314C124.258 32.6121 123.871 33.0376 123.252 33.0376H117.253C116.634 33.0376 116.247 32.6121 116.247 32.0314V19.0268C116.247 17.7882 116.13 16.4338 114.583 16.4338C114.079 16.4338 113.963 16.3179 113.963 16.0855C113.963 15.9311 114.041 15.66 114.312 15.3118L114.311 15.311Z" fill="white"/>
<path d="M71.2298 12.9496H77.229C77.8483 12.9496 78.2352 13.3365 78.2352 13.9558V26.9225C78.2352 28.548 79.5896 29.5542 81.1379 29.5542C81.6027 29.5542 81.7186 29.6708 81.7186 29.9032C81.7186 30.0576 81.6413 30.2901 81.3317 30.7163C80.1703 32.0707 77.5 33.5418 75.0615 33.5418C72.6229 33.5418 70.2236 31.9163 70.2236 26.9233V13.9566C70.2236 13.3373 70.6105 12.9504 71.2298 12.9504V12.9496Z" fill="white"/>
<path d="M89.7086 30.6302C90.5062 30.2195 91.0081 29.3975 91.0081 28.5005V13.9588C91.0081 13.3774 90.6227 12.9496 90.0027 12.9496H84.002C83.3857 12.9496 82.9966 13.3774 82.9966 13.9588V31.0222C82.9966 32.4197 84.4758 33.3227 85.7188 32.6834L89.7086 30.6309V30.6302Z" fill="white"/>
<path d="M138.68 15.3585C137.882 15.7691 137.38 16.5912 137.38 17.4882V32.0299C137.38 32.6113 137.766 33.039 138.386 33.039H144.386C145.003 33.039 145.392 32.6113 145.392 32.0299V14.9664C145.392 13.5689 143.913 12.6659 142.67 13.3053L138.68 15.3578V15.3585Z" fill="white"/>
<path d="M146.67 16.0847C146.67 15.9303 146.747 15.6593 147.095 15.2716C148.257 13.9172 150.927 12.4462 153.326 12.4462C155.881 12.4462 158.165 14.0716 158.165 19.0261V32.0306C158.165 32.6113 157.778 33.0368 157.159 33.0368H151.159C150.579 33.0368 150.153 32.6113 150.153 32.0306V19.0261C150.153 17.4006 148.799 16.433 147.289 16.433C146.786 16.433 146.67 16.3172 146.67 16.0847Z" fill="white"/>
<path d="M163.586 22.6646C164.05 22.1611 164.321 22.0453 164.514 22.0453C164.669 22.0453 164.747 22.1611 164.747 22.2384C164.863 22.6639 164.476 23.3604 164.399 25.1411C164.128 30.4437 167.34 31.6823 168.27 32.3403C168.811 32.6885 168.811 33.0368 168.385 33.0368H161.109C158.284 33.0368 161.226 25.1797 163.586 22.6639L163.586 22.6646ZM160.76 12.9882H168.114C168.733 12.9882 169.314 13.2979 169.662 13.8399L180.848 32.1865C181.158 32.69 180.965 33.0383 180.345 33.0383H172.991C172.372 33.0383 171.791 32.69 171.443 32.1865L160.257 13.8399C159.947 13.2979 160.14 12.9882 160.76 12.9882ZM172.643 12.9882H179.919C182.744 12.9882 179.803 20.8453 177.442 23.3611C176.978 23.8646 176.707 23.9804 176.513 23.9804C176.358 23.9804 176.28 23.8639 176.242 23.7866C176.126 23.3611 176.551 22.6646 176.629 20.8839C176.9 15.5426 173.687 14.3427 172.72 13.6847C172.216 13.2979 172.216 12.9882 172.643 12.9882Z" fill="white"/>
<path fill-rule="evenodd" clip-rule="evenodd" d="M27.5666 2.71558V28.9215C27.5644 30.1549 26.227 30.9294 25.157 30.3116L20.6615 27.7163L20.6592 27.7141L20.6637 9.97788L5.30443 18.8471L5.29998 18.8449L0.802251 16.2496C-0.267788 15.6296 -0.267788 14.085 0.804478 13.4665L23.4951 0.367581C25.307 -0.676467 27.5644 0.628222 27.5666 2.71558Z" fill="white"/>
<path fill-rule="evenodd" clip-rule="evenodd" d="M20.6616 27.7163L7.70525 35.191C6.63744 35.811 5.29785 35.0365 5.29785 33.8031L5.30008 18.8456L5.30453 18.8478L9.42652 21.2293C10.1127 21.6265 10.5389 22.3617 10.5411 23.1577V27.5077L14.3082 25.3342C14.9987 24.9369 15.846 24.9347 16.5373 25.3342L20.6593 27.7156L20.6616 27.7178V27.7163Z" fill="white"/>
</g>
<defs>
<clipPath id="clip0_1636_7684">
<rect width="181.076" height="35.4093" fill="white"/>
</clipPath>
</defs>
</svg>
