<svg width="149" height="46" viewBox="0 0 149 46" fill="none" xmlns="http://www.w3.org/2000/svg">
<path id="Kmart_Australia_logo 1 (Traced)" fill-rule="evenodd" clip-rule="evenodd" d="M9.75067 22.5C4.40308 34.875 0.0155112 45.0457 0.000520911 45.1018C-0.0253926 45.1986 0.848112 45.2028 17.9658 45.1889L35.9583 45.1743L37.6652 41.0869C38.604 38.8388 39.3811 36.9905 39.3921 36.9795C39.4031 36.9685 40.302 36.8084 41.3897 36.6238L43.3673 36.288L56.2165 40.7457L69.0658 45.2034L105.596 45.1889L142.126 45.1743L117.716 36.8221L93.3072 28.47H86.4478H79.5884L79.4015 28.303C79.2594 28.1761 79.2152 28.0891 79.217 27.9399C79.2183 27.8184 79.5123 27.0798 79.9887 26.0006C80.4119 25.0419 80.7625 24.2353 80.7679 24.208C80.7733 24.1808 79.7998 23.8252 78.6047 23.4179C77.4097 23.0105 76.4554 22.663 76.484 22.6455C76.5127 22.6282 89.7399 17.5765 105.878 11.4196C122.015 5.26276 135.244 0.2008 135.274 0.170762C135.309 0.136772 123.381 0.116204 103.596 0.116204H71.863L61.5656 4.00735C55.902 6.14748 51.264 7.89269 51.2591 7.88566C51.2542 7.87857 52.1989 6.12104 53.3586 3.97998C54.5182 1.83893 55.4686 0.0675726 55.4706 0.0435765C55.4726 0.0195804 47.3741 0 37.4739 0H19.4736L9.75067 22.5ZM141.586 19.55C139.688 20.069 138.1 20.5169 138.058 20.5454C138.017 20.5738 137.535 21.643 136.988 22.9212C135.874 25.5227 135.83 25.6772 136.072 26.1451C136.241 26.4718 136.579 26.7088 136.985 26.7846C137.477 26.8767 146.258 26.8634 146.329 26.7705C146.374 26.7122 147.053 25.1532 147.194 24.785C147.226 24.7025 146.998 24.6933 144.905 24.6933H142.581L142.922 23.8944L143.262 23.0955L145.611 23.0804L147.96 23.0652L148.344 22.17C148.555 21.6776 148.728 21.2596 148.728 21.241C148.728 21.2224 147.682 21.2072 146.404 21.2072C145.126 21.2072 144.08 21.1922 144.08 21.1739C144.08 21.1556 144.315 20.5911 144.603 19.9194C145.122 18.7066 145.166 18.5864 145.082 18.5994C145.058 18.6032 143.485 19.0309 141.586 19.55ZM134.958 20.8371C134.094 20.9542 133.133 21.1783 132.256 21.4672C131.841 21.604 131.492 21.7085 131.482 21.6993C131.471 21.6903 131.504 21.6032 131.554 21.506C131.605 21.4088 131.646 21.3148 131.646 21.2973C131.646 21.2797 130.241 21.266 128.523 21.2669L125.4 21.2685L124.238 23.9672C123.599 25.4515 123.067 26.706 123.057 26.755C123.04 26.8344 123.38 26.8425 126.163 26.8291L129.288 26.8141L129.789 25.6441C130.064 25.0006 130.353 24.396 130.43 24.3004C130.777 23.8728 131.556 23.5067 132.551 23.3039C133.26 23.1594 134.612 23.051 135.388 23.0766L135.963 23.0955L136.477 21.9409C136.76 21.3058 136.991 20.7763 136.991 20.7643C136.991 20.7096 135.506 20.7628 134.958 20.8371ZM112.617 21.0107C110.015 21.1384 107.73 21.9278 106.621 23.0819C105.871 23.8633 105.684 24.6983 106.101 25.4091C106.688 26.4111 108.993 27.0322 111.794 26.9432C113.173 26.8993 114.214 26.6974 115.289 26.2651C115.514 26.175 115.705 26.1088 115.715 26.1178C115.725 26.1269 115.667 26.2668 115.585 26.4287C115.503 26.5906 115.435 26.75 115.435 26.7831C115.435 26.8778 121.563 26.8654 121.636 26.7705C121.694 26.6946 124.035 21.2992 124.035 21.2407C124.035 21.2223 122.642 21.2072 120.939 21.2072H117.844L117.701 21.4696C117.599 21.6563 117.532 21.7212 117.47 21.6946C116.391 21.2353 114.234 20.9313 112.617 21.0107ZM92.9327 21.1506C91.8279 21.2488 90.7714 21.5099 90.0902 21.8531C89.9073 21.9453 89.7455 22.0206 89.7306 22.0206C89.7157 22.0206 89.7804 21.8513 89.8742 21.6443C89.9681 21.4372 90.0449 21.2542 90.0449 21.2375C90.0449 21.2209 88.6626 21.2072 86.9733 21.2072H83.9016L82.6737 23.9605C81.9984 25.4749 81.4458 26.7432 81.4458 26.779C81.4458 26.8265 82.2773 26.84 84.5096 26.8291L87.5735 26.8141L88.2454 25.2744L88.9173 23.7346L89.2274 23.5483C89.6054 23.3212 90.0714 23.2173 90.5375 23.2562C90.9954 23.2945 91.2069 23.3936 91.2069 23.5699C91.2069 23.6448 90.9063 24.3902 90.5388 25.2262C90.1713 26.0623 89.8706 26.7682 89.8706 26.7948C89.8706 26.8213 91.2008 26.8431 92.8267 26.8431C95.1227 26.8431 95.7954 26.8269 95.8392 26.7705C95.8702 26.7306 96.1771 26.0442 96.5214 25.2453C96.8656 24.4464 97.2029 23.7452 97.271 23.6869C97.3391 23.6287 97.5386 23.5118 97.7143 23.4271C97.9906 23.2939 98.1094 23.2729 98.591 23.2715C99.2129 23.2697 99.4574 23.3511 99.4574 23.5601C99.4574 23.6291 99.1567 24.3812 98.7892 25.2315C98.4217 26.0819 98.1211 26.7923 98.1211 26.8103C98.1211 26.8283 99.454 26.8431 101.083 26.8431H104.045L104.155 26.6252C104.427 26.0856 105.663 23.1921 105.695 23.0209C105.747 22.7384 105.631 22.291 105.435 22.0208C104.88 21.2539 103.531 20.9671 101.346 21.1508C100.029 21.2615 98.8565 21.5367 97.8907 21.9616L97.3513 22.199L97.1581 21.9733C96.9106 21.6841 96.2949 21.364 95.7389 21.2354C95.2264 21.1169 93.7979 21.0737 92.9327 21.1506ZM115.9 23.3665C116.502 23.483 116.693 23.666 116.493 23.9352C116.319 24.1688 115.804 24.3993 115.23 24.4996C114.284 24.6649 112.818 24.5137 112.555 24.224C112.251 23.8873 112.949 23.4349 113.983 23.2996C114.423 23.2419 115.441 23.2774 115.9 23.3665Z" fill="white"/>
</svg>
