<?xml version="1.0" encoding="UTF-8"?>
<svg id="Layer_1" data-name="Layer 1" xmlns="http://www.w3.org/2000/svg" viewBox="0 0 2444.82 1033.98">
  <defs>
    <style>
      .cls-1 {
        fill: #000;
        stroke-width: 0px;
      }
    </style>
  </defs>
  <g>
    <polygon class="cls-1" points="2013.72 437.35 1510.36 437.35 1255.32 182.32 1000.29 437.35 429.81 437.35 456.66 410.51 953.31 410.51 1226.8 137.01 1300.62 137.01 1204.99 41.38 953.31 293.06 953.31 333.32 849.28 333.32 691.56 175.61 533.84 333.32 460.01 333.32 656.43 136.91 720.25 146.91 984.28 188.26 1122.77 49.77 1172.54 0 1236.36 10 1337.91 25.91 1360.89 29.5 1384.52 53.12 1510.12 178.73 1721.9 145.54 1785.73 135.54 1983.52 333.32 1909.69 333.32 1750.29 173.93 1627.81 296.41 1741.9 410.51 1986.87 410.51 2013.72 437.35"/>
    <g>
      <rect class="cls-1" x="659.68" y="281.31" width="26.85" height="26.85"/>
      <rect class="cls-1" x="696.59" y="281.31" width="26.85" height="26.85"/>
      <rect class="cls-1" x="659.68" y="318.22" width="26.85" height="26.85"/>
      <rect class="cls-1" x="696.59" y="318.22" width="26.85" height="26.85"/>
    </g>
    <g>
      <rect class="cls-1" x="1210.02" y="371.92" width="26.85" height="26.85"/>
      <rect class="cls-1" x="1246.93" y="371.92" width="26.85" height="26.85"/>
      <rect class="cls-1" x="1210.02" y="408.83" width="26.85" height="26.85"/>
      <rect class="cls-1" x="1246.93" y="408.83" width="26.85" height="26.85"/>
    </g>
    <g>
      <rect class="cls-1" x="1740.23" y="281.31" width="26.85" height="26.85"/>
      <rect class="cls-1" x="1777.14" y="281.31" width="26.85" height="26.85"/>
      <rect class="cls-1" x="1740.23" y="318.22" width="26.85" height="26.85"/>
      <rect class="cls-1" x="1777.14" y="318.22" width="26.85" height="26.85"/>
    </g>
  </g>
  <g>
    <path class="cls-1" d="M63.8,542.75l42.05,131.08,41.92-131.08h59.78v188.4h-45.55v-43.99l4.4-90.06-45.55,134.06h-30.02l-45.68-134.18,4.4,90.19v43.99H4.14v-188.4h59.65Z"/>
    <path class="cls-1" d="M343.42,695.95h-62.24l-10.87,35.2h-48.52l69.1-188.4h42.7l69.62,188.4h-48.78l-11-35.2ZM292.05,660.88h40.5l-20.31-65.35-20.19,65.35Z"/>
    <path class="cls-1" d="M562.49,542.75v123.31c0,13.98-2.98,26.07-8.93,36.3-5.95,10.22-14.49,18.01-25.62,23.36-11.13,5.35-24.29,8.02-39.47,8.02-22.95,0-41.02-5.95-54.22-17.86-13.2-11.9-19.92-28.21-20.18-48.91v-124.22h45.68v125.13c.52,20.62,10.09,30.93,28.73,30.93,9.4,0,16.52-2.59,21.35-7.76,4.83-5.18,7.25-13.59,7.25-25.23v-123.06h45.42Z"/>
    <path class="cls-1" d="M748.18,731.15h-45.16l-66.77-117.23v117.23h-45.42v-188.4h45.42l66.64,117.23v-117.23h45.29v188.4Z"/>
    <path class="cls-1" d="M776.9,731.15v-188.4h60.69c16.65,0,31.61,3.78,44.9,11.32,13.29,7.55,23.66,18.2,31.12,31.96,7.46,13.76,11.24,29.18,11.32,46.26v8.67c0,17.25-3.64,32.72-10.93,46.39-7.29,13.67-17.56,24.37-30.8,32.09-13.24,7.72-28.01,11.63-44.32,11.71h-61.98ZM822.32,577.81v118.4h15.79c13.02,0,23.03-4.64,30.02-13.91,6.99-9.27,10.48-23.05,10.48-41.34v-8.15c0-18.2-3.5-31.92-10.48-41.15-6.99-9.23-17.17-13.85-30.54-13.85h-15.27Z"/>
    <path class="cls-1" d="M1065.07,651.18h-71.43v45.03h84.37v34.94h-129.78v-188.4h130.04v35.07h-84.62v39.72h71.43v33.64Z"/>
    <path class="cls-1" d="M1166.51,664.51h-24.58v66.64h-45.42v-188.4h74.14c22.34,0,39.81,4.95,52.4,14.86,12.59,9.91,18.89,23.91,18.89,42.01,0,13.1-2.65,23.96-7.96,32.57-5.31,8.62-13.61,15.6-24.91,20.94l39.33,76.07v1.94h-48.65l-33.26-66.64ZM1141.93,629.57h28.73c8.63,0,15.12-2.27,19.47-6.81,4.36-4.54,6.53-10.87,6.53-19.01s-2.2-14.51-6.6-19.13c-4.4-4.63-10.87-6.94-19.41-6.94h-28.73v51.89Z"/>
    <path class="cls-1" d="M1492.32,736.18h-56.8l-33.26-66.64h-16.44v66.64h-55.48v-198.47h79.18c23.39,0,42.07,5.36,55.52,15.94,13.81,10.87,20.81,26.33,20.81,45.96,0,13.99-2.93,25.83-8.7,35.21-5.04,8.18-12.56,15.05-22.4,20.48l37.58,72.67v8.2ZM1441.75,726.11h38.27l-38.94-75.3,4.72-2.23c10.35-4.89,18.01-11.3,22.77-19.03,4.78-7.77,7.21-17.84,7.21-29.93,0-16.62-5.55-29.07-16.97-38.05-11.63-9.15-28.21-13.79-49.29-13.79h-69.11v178.33h35.35v-66.64h32.73l33.26,66.64ZM1409.52,634.6h-33.76v-61.95h33.76c9.93,0,17.69,2.86,23.05,8.51,5.3,5.57,7.99,13.17,7.99,22.6s-2.67,17-7.94,22.49c-5.32,5.54-13.09,8.36-23.11,8.36ZM1385.83,624.54h23.69c7.16,0,12.49-1.77,15.84-5.26,3.45-3.6,5.13-8.68,5.13-15.52s-1.71-11.97-5.21-15.66c-3.44-3.62-8.59-5.38-15.76-5.38h-23.69v41.82Z"/>
    <path class="cls-1" d="M1585.63,738.77c-16.89,0-32.12-3.96-45.27-11.77-13.21-7.84-23.62-19.18-30.97-33.69-7.26-14.33-11.12-30.95-11.48-49.41v-10.71c0-19.14,3.58-36.3,10.65-51.03,7.17-14.93,17.61-26.64,31.04-34.8,13.38-8.13,28.78-12.25,45.77-12.25s32.06,4.08,45.31,12.12c13.28,8.06,23.73,19.66,31.08,34.48,7.26,14.65,10.98,31.61,11.07,50.41v8.69c0,19.05-3.61,36.2-10.72,50.97-7.21,14.97-17.63,26.68-30.97,34.79-13.29,8.08-28.61,12.18-45.51,12.18ZM1585.37,545.19c-15.12,0-28.76,3.63-40.54,10.78-11.73,7.13-20.88,17.41-27.19,30.55-6.41,13.35-9.66,29.05-9.66,46.67v10.61c.33,16.83,3.82,31.99,10.39,44.96,6.47,12.78,15.6,22.73,27.13,29.58,11.58,6.87,25.08,10.36,40.13,10.36s28.59-3.61,40.28-10.72c11.65-7.09,20.77-17.37,27.13-30.56,6.45-13.4,9.72-29.07,9.72-46.6v-8.67c-.08-17.23-3.45-32.7-10.02-45.97-6.48-13.08-15.66-23.29-27.28-30.35-11.66-7.07-25.15-10.66-40.09-10.66ZM1585.63,703.31c-13.88,0-24.51-5.81-31.58-17.27-6.6-10.68-9.94-25.89-9.94-45.22l.13-13.89c.97-25.73,8.9-56.23,41.13-56.23,13.41,0,23.87,5.67,31.08,16.87,6.76,10.49,10.18,25.75,10.18,45.36v8.67c-.09,19.19-3.53,34.24-10.23,44.76-7.16,11.25-17.52,16.95-30.77,16.95ZM1585.37,580.77c-7.25,0-29.31,0-31.07,46.4l-.13,13.7c0,17.38,2.84,30.81,8.44,39.88,5.19,8.41,12.72,12.49,23.02,12.49,9.72,0,17.01-4.02,22.28-12.29,5.66-8.89,8.58-22.14,8.66-39.37v-8.65c0-17.65-2.89-31.08-8.58-39.91-5.31-8.24-12.71-12.25-22.62-12.25Z"/>
    <path class="cls-1" d="M1768.59,738.77c-16.89,0-32.12-3.96-45.27-11.77-13.21-7.84-23.62-19.18-30.97-33.69-7.26-14.33-11.12-30.95-11.48-49.41v-10.71c0-19.14,3.58-36.3,10.65-51.03,7.17-14.93,17.61-26.64,31.04-34.8,13.38-8.13,28.78-12.25,45.77-12.25s32.06,4.08,45.31,12.12c13.28,8.06,23.73,19.66,31.08,34.48,7.26,14.65,10.98,31.61,11.07,50.41v8.69c0,19.05-3.61,36.2-10.72,50.97-7.21,14.97-17.63,26.68-30.97,34.79-13.29,8.08-28.61,12.18-45.51,12.18ZM1768.34,545.19c-15.12,0-28.76,3.63-40.54,10.78-11.73,7.13-20.88,17.41-27.19,30.55-6.41,13.35-9.66,29.05-9.66,46.67v10.61c.33,16.83,3.82,31.99,10.39,44.96,6.47,12.78,15.6,22.73,27.13,29.58,11.58,6.87,25.08,10.36,40.13,10.36s28.59-3.61,40.28-10.72c11.65-7.09,20.77-17.37,27.13-30.56,6.45-13.4,9.72-29.07,9.72-46.6v-8.67c-.08-17.23-3.45-32.7-10.02-45.97-6.48-13.08-15.66-23.29-27.28-30.35-11.66-7.07-25.15-10.66-40.09-10.66ZM1768.59,703.31c-13.88,0-24.51-5.81-31.58-17.27-6.6-10.68-9.94-25.89-9.94-45.22l.13-13.89c.97-25.73,8.9-56.23,41.13-56.23,13.41,0,23.87,5.67,31.08,16.87,6.76,10.49,10.18,25.75,10.18,45.36v8.67c-.09,19.19-3.53,34.24-10.23,44.76-7.16,11.25-17.52,16.95-30.77,16.95ZM1768.34,580.77c-7.25,0-29.31,0-31.07,46.4l-.13,13.7c0,17.38,2.84,30.81,8.44,39.88,5.19,8.41,12.72,12.49,23.02,12.49,9.72,0,17.01-4.02,22.28-12.29,5.66-8.89,8.58-22.14,8.66-39.37v-8.65c0-17.65-2.89-31.08-8.58-39.91-5.31-8.24-12.71-12.25-22.62-12.25Z"/>
    <path class="cls-1" d="M1924.64,736.18h-55.48v-198.47h136.1v45.13h-80.61v33.28h73.24v45h-73.24v75.05ZM1879.22,726.11h35.35v-75.05h73.24v-24.87h-73.24v-53.41h80.61v-25h-115.96v178.33Z"/>
    <path class="cls-1" d="M2072.53,736.18h-55.36v-198.47h55.36v198.47ZM2027.24,726.11h35.22v-178.33h-35.22v178.33Z"/>
    <path class="cls-1" d="M2261.45,736.18h-53.12l-58.81-103.26v103.26h-55.48v-198.47h53.38l58.68,103.22v-103.22h55.36v198.47ZM2214.19,726.11h37.2v-178.33h-35.22v131.24l-74.6-131.24h-37.46v178.33h35.35v-131.21l74.73,131.21Z"/>
    <path class="cls-1" d="M2364.47,738.77c-25.96,0-47.07-8.13-62.74-24.16-15.58-15.95-24.03-38.27-25.11-66.34l-.13-16.46c0-19.25,3.47-36.33,10.32-50.78,6.95-14.68,17.06-26.15,30.07-34.1,12.95-7.92,28.1-11.93,45-11.93,24.55,0,44.02,5.81,57.88,17.27,13.98,11.56,22.23,28.87,24.51,51.44l.56,5.54h-53.65l-.64-4.3c-1.36-9.25-4.19-15.79-8.41-19.45-4.21-3.65-10.5-5.5-18.7-5.5-9.64,0-16.89,3.98-22.16,12.18-5.66,8.8-8.56,21.82-8.64,38.71v11.36c0,17.69,2.95,31,8.77,39.55,5.48,8.05,14.04,11.97,26.19,11.97,9.35,0,16.52-1.76,21.36-5.25v-21.82h-31.57v-41.25h87.06v84.34l-1.29,1.44c-7.52,8.36-18.54,15.14-32.73,20.14-13.94,4.91-29.39,7.4-45.93,7.4ZM2361.88,545.06c-15.03,0-28.4,3.52-39.75,10.45-11.3,6.91-20.12,16.94-26.22,29.82-6.21,13.1-9.35,28.72-9.35,46.44l.13,16.26c.97,25.35,8.46,45.43,22.24,59.54,13.7,14.02,32.39,21.13,55.54,21.13,15.39,0,29.72-2.3,42.58-6.83,11.77-4.15,20.94-9.53,27.3-16.01v-70.35h-66.92v21.12h31.57v36.5l-1.65,1.5c-6.71,6.11-16.73,9.2-29.78,9.2-15.51,0-27.12-5.51-34.51-16.37-7.07-10.39-10.51-25.18-10.51-45.21v-11.39c.09-18.85,3.54-33.69,10.24-44.13,7.17-11.15,17.48-16.8,30.63-16.8,10.69,0,19.2,2.68,25.29,7.96,5.32,4.61,9.01,11.75,11.01,21.29h33.8c-2.68-17.12-9.46-30.28-20.2-39.16-12-9.92-29.31-14.95-51.46-14.95Z"/>
  </g>
  <g>
    <path class="cls-1" d="M328.34,805.57l-18.14,90.68h-21.12l-29.93-49.75-9.98,49.75h-25.13l18.14-90.68h21.11l30.05,49.62,9.85-49.62h25.13Z"/>
    <path class="cls-1" d="M367.84,825.39l-2.98,15.29h40.29l-3.76,19.17h-40.42l-3.24,16.58h47.54l-4.15,19.82h-72.68l18.14-90.68h70.99l-4.02,19.82h-45.73Z"/>
    <path class="cls-1" d="M574.59,805.57l-47.54,90.68h-27.47l-6.61-54.67-28.89,54.67h-27.59l-11.14-90.68h25.26l6.99,57.91,30.58-57.91h23.71l6.48,58.69,30.83-58.69h25.39Z"/>
    <path class="cls-1" d="M675.48,848.97h22.67l-7.64,38.22c-9.33,6.99-22.03,10.88-35.76,10.88-27.72,0-45.6-16.19-45.6-39.9,0-31.48,23.19-54.41,57.65-54.41,18.14,0,31.35,5.83,39.51,16.71l-18.4,14.51c-5.96-7.38-12.95-9.97-22.28-9.97-18.66,0-30.58,13.34-30.58,31.48,0,12.18,8.29,20.34,23.19,20.34,4.15,0,8.16-.65,12.05-2.2l5.18-25.65Z"/>
    <path class="cls-1" d="M744.38,825.39l-2.98,15.29h40.29l-3.76,19.17h-40.42l-3.24,16.58h47.54l-4.15,19.82h-72.68l18.14-90.68h70.99l-4.02,19.82h-45.73Z"/>
    <path class="cls-1" d="M896.33,805.57l-18.14,90.68h-21.12l-29.92-49.75-9.98,49.75h-25.13l18.14-90.68h21.12l30.05,49.62,9.84-49.62h25.13Z"/>
    <path class="cls-1" d="M935.83,825.39l-2.98,15.29h40.29l-3.76,19.17h-40.42l-3.24,16.58h47.54l-4.15,19.82h-72.68l18.14-90.68h70.99l-4.01,19.82h-45.73Z"/>
    <path class="cls-1" d="M1051.76,869.05l15.42,27.2h-26.82l-13.47-24.1h-12.95l-4.79,24.1h-25.65l18.14-90.68h38.73c23.19,0,36.53,10.75,36.53,28.89,0,16.71-9.33,29.15-25.13,34.59ZM1036.74,825.78h-13.48l-5.44,26.56h15.29c11.27,0,17.88-5.44,17.88-15.42,0-7.64-5.44-11.14-14.25-11.14Z"/>
    <path class="cls-1" d="M1144.63,878.64h-38.6l-10.49,17.62h-27.08l58.16-90.68h25.26l21.89,90.68h-25.52l-3.63-17.62ZM1140.75,859.72l-6.09-29.41-17.36,29.41h23.45Z"/>
    <path class="cls-1" d="M1209.91,825.91h-27.85l4.15-20.34h81.23l-4.15,20.34h-27.72l-14.12,70.34h-25.65l14.12-70.34Z"/>
    <path class="cls-1" d="M1277.01,805.57h25.65l-18.14,90.68h-25.65l18.14-90.68Z"/>
    <path class="cls-1" d="M1306.67,858.17c0-31.48,23.32-54.41,56.61-54.41,27.85,0,45.08,16.45,45.08,39.9,0,31.48-23.32,54.41-56.61,54.41-27.86,0-45.08-16.45-45.08-39.9ZM1382.45,845.21c0-12.05-7.77-20.21-21.37-20.21-17.75,0-28.5,14.51-28.5,31.61,0,12.05,7.77,20.21,21.38,20.21,17.75,0,28.5-14.51,28.5-31.61Z"/>
    <path class="cls-1" d="M1516.65,805.57l-18.14,90.68h-21.12l-29.92-49.75-9.98,49.75h-25.13l18.14-90.68h21.12l30.05,49.62,9.84-49.62h25.13Z"/>
    <path class="cls-1" d="M1622.73,869.05l15.42,27.2h-26.82l-13.47-24.1h-12.95l-4.79,24.1h-25.65l18.14-90.68h38.74c23.19,0,36.53,10.75,36.53,28.89,0,16.71-9.33,29.15-25.13,34.59ZM1607.7,825.78h-13.47l-5.44,26.56h15.28c11.27,0,17.88-5.44,17.88-15.42,0-7.64-5.44-11.14-14.25-11.14Z"/>
    <path class="cls-1" d="M1654.2,858.17c0-31.48,23.32-54.41,56.61-54.41,27.85,0,45.08,16.45,45.08,39.9,0,31.48-23.32,54.41-56.61,54.41-27.86,0-45.08-16.45-45.08-39.9ZM1729.98,845.21c0-12.05-7.77-20.21-21.37-20.21-17.75,0-28.5,14.51-28.5,31.61,0,12.05,7.77,20.21,21.38,20.21,17.75,0,28.5-14.51,28.5-31.61Z"/>
    <path class="cls-1" d="M1763.78,858.17c0-31.48,23.32-54.41,56.61-54.41,27.85,0,45.08,16.45,45.08,39.9,0,31.48-23.32,54.41-56.61,54.41-27.86,0-45.08-16.45-45.08-39.9ZM1839.56,845.21c0-12.05-7.77-20.21-21.37-20.21-17.75,0-28.5,14.51-28.5,31.61,0,12.05,7.77,20.21,21.38,20.21,17.75,0,28.5-14.51,28.5-31.61Z"/>
    <path class="cls-1" d="M1909.25,825.39l-4.02,19.95h40.03l-4.02,19.82h-39.9l-6.22,31.09h-25.65l18.14-90.68h70.99l-4.01,19.82h-45.34Z"/>
    <path class="cls-1" d="M1992.02,825.39l-2.98,15.29h40.29l-3.76,19.17h-40.42l-3.24,16.58h47.54l-4.15,19.82h-72.68l18.14-90.68h70.99l-4.02,19.82h-45.73Z"/>
    <path class="cls-1" d="M2107.95,869.05l15.42,27.2h-26.82l-13.47-24.1h-12.95l-4.79,24.1h-25.65l18.14-90.68h38.74c23.19,0,36.53,10.75,36.53,28.89,0,16.71-9.33,29.15-25.13,34.59ZM2092.92,825.78h-13.47l-5.44,26.56h15.28c11.27,0,17.88-5.44,17.88-15.42,0-7.64-5.44-11.14-14.25-11.14Z"/>
    <path class="cls-1" d="M2131.51,888.35l10.1-19.17c9.2,5.83,19.82,8.94,30.19,8.94s15.55-3.11,15.55-8.03c0-12.18-44.05-5.44-44.05-33.94,0-19.56,16.71-32.39,43.53-32.39,12.82,0,24.48,2.72,32.64,7.77l-9.33,19.04c-7.12-4.53-15.93-6.87-24.87-6.87-10.62,0-16.32,3.89-16.32,8.81-.13,12.44,44.05,5.31,44.05,33.29,0,19.43-17.1,32.26-43.66,32.26-15.55,0-29.67-4.15-37.83-9.72Z"/>
  </g>
  <g>
    <polygon class="cls-1" points="238.23 1033.98 162.66 1033.98 120.37 991.68 53.55 991.68 14.19 1031.04 0 1016.85 45.23 971.61 128.68 971.61 170.98 1013.9 229.91 1013.9 269.27 974.55 283.46 988.74 238.23 1033.98"/>
    <polygon class="cls-1" points="692.14 1033.98 616.58 1033.98 571.35 988.74 585.54 974.55 624.89 1013.9 683.83 1013.9 723.18 974.55 737.38 988.74 692.14 1033.98"/>
    <polygon class="cls-1" points="919.09 1033.98 843.55 1033.98 798.32 988.74 812.51 974.55 851.87 1013.9 910.77 1013.9 950.13 974.55 964.32 988.74 919.09 1033.98"/>
    <polygon class="cls-1" points="1146.06 1033.98 1070.5 1033.98 1025.26 988.74 1039.46 974.55 1078.81 1013.9 1137.75 1013.9 1177.1 974.55 1191.29 988.74 1146.06 1033.98"/>
    <polygon class="cls-1" points="1373 1033.98 1297.47 1033.98 1252.24 988.74 1266.43 974.55 1305.78 1013.9 1364.69 1013.9 1404.05 974.55 1418.24 988.74 1373 1033.98"/>
    <polygon class="cls-1" points="2280.87 1033.98 2205.3 1033.98 2160.07 988.74 2174.26 974.55 2213.62 1013.9 2272.55 1013.9 2311.91 974.55 2326.1 988.74 2280.87 1033.98"/>
    <polygon class="cls-1" points="2053.89 1033.98 1978.36 1033.98 1936.07 991.68 1869.22 991.68 1826.92 1033.98 1751.39 1033.98 1709.09 991.68 1642.27 991.68 1599.98 1033.98 1524.44 1033.98 1479.21 988.74 1493.4 974.55 1532.76 1013.9 1591.66 1013.9 1633.96 971.61 1717.41 971.61 1759.7 1013.9 1818.61 1013.9 1860.9 971.61 1944.38 971.61 1986.67 1013.9 2045.58 1013.9 2084.94 974.55 2099.13 988.74 2053.89 1033.98"/>
    <polygon class="cls-1" points="465.17 1033.98 389.64 1033.98 347.34 991.68 280.52 991.68 241.17 1031.04 226.97 1016.85 272.21 971.61 355.66 971.61 397.95 1013.9 456.86 1013.9 496.21 974.55 510.4 988.74 465.17 1033.98"/>
    <polygon class="cls-1" points="613.64 1031.04 574.29 991.68 507.47 991.68 468.11 1031.04 453.92 1016.85 499.15 971.61 582.6 971.61 627.83 1016.85 613.64 1031.04"/>
    <polygon class="cls-1" points="840.61 1031.04 801.26 991.68 734.44 991.68 695.08 1031.04 680.89 1016.85 726.12 971.61 809.57 971.61 854.81 1016.85 840.61 1031.04"/>
    <polygon class="cls-1" points="1067.56 1031.04 1028.2 991.68 961.38 991.68 922.03 1031.04 907.83 1016.85 953.07 971.61 1036.52 971.61 1081.75 1016.85 1067.56 1031.04"/>
    <polygon class="cls-1" points="1294.53 1031.04 1255.18 991.68 1188.36 991.68 1149 1031.04 1134.81 1016.85 1180.04 971.61 1263.49 971.61 1308.72 1016.85 1294.53 1031.04"/>
    <polygon class="cls-1" points="1521.5 1031.04 1482.15 991.68 1415.3 991.68 1375.94 1031.04 1361.75 1016.85 1406.98 971.61 1490.46 971.61 1535.7 1016.85 1521.5 1031.04"/>
    <polygon class="cls-1" points="2202.37 1031.04 2163.01 991.68 2096.19 991.68 2056.83 1031.04 2042.64 1016.85 2087.87 971.61 2171.32 971.61 2216.56 1016.85 2202.37 1031.04"/>
    <polygon class="cls-1" points="2283.81 1031.04 2269.61 1016.84 2314.85 971.61 2398.3 971.61 2443.53 1016.85 2429.34 1031.04 2389.98 991.68 2323.16 991.68 2283.81 1031.04"/>
  </g>
</svg>