<svg width="144" height="41" viewBox="0 0 144 41" fill="none" xmlns="http://www.w3.org/2000/svg">
<g id="Nibblish">
<path id="Teal-Nibblish-Logo 1 (Traced)" fill-rule="evenodd" clip-rule="evenodd" d="M51.7293 1.10689C48.9932 2.49044 46.4881 7.80927 44.4549 16.5522C43.4858 20.7197 42.5449 26.4463 42.0806 31.005C41.7 34.741 41.8249 34.3925 40.5642 35.2363C38.0548 36.9161 37.1087 36.483 37.2848 33.7354C37.3874 32.1348 37.7878 30.2738 38.8581 26.4225C40.0054 22.2947 40.1283 21.679 39.9102 21.1537C39.818 20.9316 39.5859 20.6786 39.3945 20.5916C38.2315 20.0629 35.4149 20.9198 34.8491 21.9746C34.7697 22.1229 34.2069 24.2154 33.5987 26.6246C32.5772 30.6703 31.901 33.9626 31.9022 34.884C31.9024 35.2022 31.8188 35.2857 31.3763 35.4082C30.6272 35.6159 29.5693 35.59 29.1097 35.3528C28.4861 35.031 27.8635 34.222 27.6242 33.4223C26.8515 30.8402 27.1044 27.1676 28.6121 19.073C30.0856 11.1614 30.153 8.7981 28.9713 6.46255C28.4863 5.50411 27.4024 4.44583 26.6321 4.17881C26.3277 4.07337 25.6319 3.99188 25.0858 3.9979C19.9179 4.05433 15.3851 9.76928 11.0543 21.689C10.6494 22.8031 10.258 23.7347 10.1845 23.7592C10.1108 23.7837 10.2966 22.9667 10.5972 21.9435C13.2496 12.9154 13.4677 8.37607 11.3609 6.04935C9.96416 4.50674 6.90508 4.17419 4.95776 5.3533C3.11934 6.46647 1.53619 8.78563 0.408716 12.0175C-0.0597312 13.3603 -0.0783961 13.4773 0.117375 13.8548C0.428363 14.4551 1.18324 14.973 1.74319 14.9705C2.37485 14.9676 2.43617 14.9153 3.05422 13.8524C3.91968 12.3641 4.73532 11.3007 5.70758 10.3934C6.80797 9.3663 7.39584 9.16383 7.80886 9.66973C8.05347 9.96923 8.07101 10.1462 7.98751 11.4721C7.64845 16.8566 6.8453 21.8515 4.99354 30.0948C4.13019 33.9379 4.06493 34.3473 4.05553 35.9757C4.04627 37.5945 4.07195 37.7723 4.39641 38.3436C4.58937 38.6832 4.98498 39.1518 5.27562 39.3849C6.44828 40.3255 8.52346 39.9158 9.41881 38.5669C9.66609 38.1946 10.4285 36.1796 11.3376 33.4968C15.8738 20.1088 18.7055 13.6753 21.358 10.7314C22.4228 9.54959 23.706 9.05489 24.2636 9.6112C24.776 10.1224 24.9368 10.7914 24.9293 12.3822C24.9211 14.1956 24.6355 15.5456 23.3444 19.8733C22.8734 21.4521 22.2913 23.6889 22.0509 24.8441C21.6638 26.7028 21.6136 27.2101 21.6141 29.2547C21.6154 34.8102 23.2195 38.5045 26.2527 39.9382C27.1667 40.3701 27.2651 40.3861 28.9555 40.3785C30.4838 40.3715 30.8608 40.3206 31.8825 39.9825L33.0552 39.5947L33.7771 39.92C34.3748 40.1894 34.728 40.2441 35.832 40.2385C36.9599 40.2326 37.3705 40.1612 38.4982 39.7749C39.2313 39.5238 40.4343 39.0035 41.1714 38.6189L42.5117 37.9196L43.7344 38.6855C46.0751 40.1517 48.245 40.828 50.1465 40.6842C52.2303 40.5264 55.7226 39.5024 59.3516 37.9849L61.1891 37.2166L62.2987 38.0118C64.4248 39.5355 66.8205 40.5303 68.7345 40.6843C71.4499 40.9028 77.1671 38.8337 81.3444 36.1205C82.1785 35.5788 82.9105 35.1356 82.9711 35.1356C83.0318 35.1356 83.1607 35.4034 83.2577 35.7307C83.5303 36.6502 84.4962 38.4194 85.0984 39.1018C85.8545 39.9589 86.8606 40.3766 87.9064 40.2675C89.1108 40.1419 90.7912 39.5587 92.5796 38.6458L94.1956 37.8209L94.2798 38.2034C94.4054 38.7738 95.1136 39.552 95.8153 39.891C97.1337 40.5278 99.4598 40.3609 101.286 39.4985C101.757 39.2764 102.607 38.7516 103.177 38.3323L104.212 37.57L104.931 38.287C105.799 39.1529 107.107 39.8204 108.527 40.1219C111.152 40.6792 115.848 39.8341 119.922 38.0713L121.143 37.5431L121.294 38.2681C121.586 39.6744 122.436 40.4497 123.471 40.256C124.124 40.1338 124.504 39.636 125.719 37.3089C128.271 32.4202 130.829 28.7222 132.838 27.0149L133.361 26.5698L132.75 27.9473C131.993 29.6522 131.319 31.728 131.121 32.9678C130.791 35.0278 131.518 37.576 132.844 39.0119C133.913 40.1691 135.025 40.4894 136.666 40.1132C138.315 39.735 141.616 37.9747 143.079 36.6928C144.071 35.8237 144.275 34.4303 143.625 32.9634C143.11 31.803 142.529 31.8587 140.788 33.2352C138.69 34.8946 137.161 35.4207 136.659 34.6563C136.024 33.689 136.32 31.5303 137.639 27.5306C139.027 23.3201 139.165 21.6366 138.208 20.5948C137.77 20.1179 137.683 20.0834 136.918 20.0834C136.275 20.0834 135.901 20.1809 135.188 20.5352C133.613 21.3181 131.55 23.068 129.448 25.4041L128.566 26.3843L129.364 24.9141C130.627 22.5869 132.983 17.738 133.854 15.6727C137.016 8.17654 137.549 3.29094 135.412 1.41816C134.741 0.831052 133.971 0.649445 132.436 0.716235C131.296 0.765802 131.035 0.830632 130.084 1.29928C125.106 3.75385 122.248 12.2167 121.303 27.2944C121.223 28.5651 121.158 30.3736 121.158 31.3133L121.157 33.022L119.929 33.6061C119.254 33.9275 118.307 34.3396 117.824 34.5217L116.947 34.8532V33.8144C116.947 32.3587 116.725 30.928 116.237 29.2365C116.007 28.438 115.785 27.4379 115.744 27.0144L115.67 26.2443L116.663 25.1241C118.374 23.1945 118.727 21.9679 117.831 21.0734C117.11 20.3537 115.383 20.2102 114.211 20.7725C113.265 21.2262 113.007 21.4754 111.331 23.5589C107.175 28.7259 102.822 33.0645 100.905 33.9523C99.7536 34.4853 99.3098 34.1204 99.4715 32.7733C99.6209 31.5271 100.153 29.2934 101.093 25.9642C101.571 24.27 101.995 22.4953 102.035 22.0205C102.103 21.2203 102.08 21.1294 101.726 20.7762C101.359 20.41 101.301 20.3981 100.242 20.4705C98.6476 20.5796 97.0678 21.3934 96.8209 22.2328C96.5631 23.1088 95.0115 29.2938 94.7783 30.3749C94.6204 31.1065 94.4607 31.8396 94.4234 32.004C94.3396 32.3733 91.6298 34.1662 90.3003 34.7323C88.7181 35.406 88.4293 35.283 87.9794 33.7449C87.6882 32.7494 87.6988 32.1921 88.0344 30.8524C88.3309 29.6693 88.8433 28.6178 91.3508 24.0464C96.4704 14.713 98.1397 10.1576 98.1413 5.51559C98.1426 2.0715 97.1168 0.571453 94.8584 0.714835C90.666 0.981294 86.0841 8.12838 83.4775 18.4677C82.5896 21.9895 82.2607 24.2364 82.1798 27.3347L82.1074 30.1056L81.5091 30.5947C80.9284 31.0695 78.1856 32.7736 78.1153 32.7034C78.0961 32.6842 78.1998 32.3548 78.3459 31.9711C79.0195 30.2022 79.3103 26.608 78.9112 24.9841C78.2794 22.4137 76.5332 20.6614 74.4121 20.4695C73.4978 20.3868 72.9353 20.5446 71.8772 21.1803L71.1153 21.638L72.0234 20.4407C75.0546 16.4442 77.1435 12.2716 77.6678 9.16579C77.9014 7.78154 77.7513 4.93814 77.3821 3.75735C76.9879 2.4966 76.312 1.65059 75.3044 1.15702C74.5882 0.806128 74.3415 0.760482 73.1618 0.760482C71.9643 0.760482 71.7627 0.799127 71.1807 1.1405C68.6531 2.62304 66.3413 7.38543 64.3983 15.1126C63.2951 19.5 62.1511 26.095 61.7783 30.216L61.6091 32.0873L60.8948 32.5424C60.1625 33.009 58.6609 33.7934 58.0738 34.0161C57.7587 34.1356 57.7682 34.0919 58.2946 32.993C59.0477 31.4213 59.4009 29.9324 59.4976 27.9245C59.5571 26.6856 59.5219 25.981 59.3634 25.2421C58.7851 22.5445 57.0561 20.7 54.8993 20.4796C53.9392 20.3815 53.1594 20.594 52.2576 21.1995C51.443 21.7464 51.4484 21.7297 52.5561 20.2689C55.2306 16.7413 57.1842 13.0109 57.8913 10.0814C58.2197 8.7208 58.2751 6.09541 58.0068 4.61875C57.5479 2.09376 56.2079 0.855696 53.7964 0.728557C52.6728 0.669188 52.5509 0.691591 51.7293 1.10689ZM53.7968 5.20614C54.5622 6.45863 53.6877 10.1955 51.6754 14.2725C50.7477 16.1523 47.7607 21.484 47.7607 21.2602C47.7607 21.2167 47.9767 20.1149 48.2408 18.8118C50.3783 8.26294 52.4958 3.07727 53.7968 5.20614ZM73.2707 5.06766C73.7083 5.53239 73.78 6.32939 73.5197 7.83433C73.2049 9.65376 72.3321 12.1946 71.3324 14.2018C70.3445 16.185 67.4949 21.1737 67.4401 21.0156C67.3714 20.8173 68.5287 15.3725 69.1562 12.9423C70.2996 8.51259 71.2118 6.09387 72.0735 5.20614C72.5947 4.66916 72.8659 4.6378 73.2707 5.06766ZM132.214 6.01126C132.671 6.86833 132.07 9.86883 130.712 13.5024C130.065 15.2312 125.882 25.0538 125.818 24.9907C125.736 24.9085 126.239 20.9929 126.629 18.6729C127.676 12.4609 129.215 7.81809 130.763 6.20631C131.456 5.4852 131.9 5.42541 132.214 6.01126ZM93.5231 6.73433C94.1269 7.85982 92.3886 13.674 89.8582 18.9934C89.0242 20.7466 87.6361 23.1599 87.5252 23.0493C87.4207 22.945 87.7576 20.0251 88.047 18.5283C88.6478 15.4207 89.6244 12.5201 91.062 9.57395C91.8615 7.93515 92.9024 6.43132 93.2371 6.43132C93.305 6.43132 93.4337 6.5677 93.5231 6.73433ZM38.4976 9.77474C36.19 10.5265 35.1614 12.9373 36.3123 14.8966C36.8684 15.8434 37.836 16.2752 39.3991 16.2738C40.8057 16.2727 41.7595 15.9019 42.5465 15.05C43.2159 14.3254 43.4712 13.6217 43.4636 12.5222C43.455 11.2945 43.0016 10.5759 41.8665 9.99191C41.3247 9.71299 39.1228 9.57115 38.4976 9.77474ZM100.348 9.84503C98.7002 10.4564 97.7542 11.8623 97.8902 13.4979C97.9828 14.6119 98.5234 15.4243 99.4842 15.8934C100.576 16.4263 102.228 16.4396 103.346 15.9246C104.794 15.2573 105.491 14.175 105.491 12.5922C105.491 11.2942 105.059 10.5906 103.896 9.99191C103.243 9.65572 101.097 9.56695 100.348 9.84503ZM53.7103 25.5878C54.7001 26.1636 54.945 27.2223 54.6427 29.6185C54.2819 32.4788 53.483 34.5065 52.3114 35.5353C51.2675 36.4522 49.9729 36.6398 48.3017 36.1164C46.9085 35.6798 46.98 35.8166 47.174 33.961C47.6835 29.0835 48.4001 27.0826 50.0471 25.9378C51.1125 25.1973 52.7674 25.0392 53.7103 25.5878ZM73.3022 25.6C74.1161 26.0167 74.3496 26.5844 74.3285 28.0944C74.3052 29.7638 74.0798 31.1119 73.5612 32.6852C73.0371 34.2754 72.324 35.3455 71.418 35.9015C70.7869 36.2888 70.6218 36.3253 69.5234 36.3209C68.569 36.3168 68.146 36.2439 67.4781 35.9677L66.6361 35.6196L66.6768 34.9226C66.745 33.7541 67.2557 30.1996 67.4774 29.3501C68.0197 27.2726 69.3567 25.7276 70.963 25.3218C71.5819 25.1654 72.717 25.3005 73.3022 25.6ZM112.098 31.412C112.579 33.734 112.281 35.5096 111.307 36.1218C110.436 36.669 108.889 36.3196 107.689 35.3046L107.201 34.8925L107.942 34.0689C108.349 33.6159 109.355 32.4692 110.177 31.5207C111.858 29.5814 111.721 29.5891 112.098 31.412Z" fill="white"/>
</g>
</svg>
