<svg xmlns="http://www.w3.org/2000/svg" version="1.1" viewBox="81.92 80.83188405797101 860.16 192.35942028985508" style="max-height: 500px" width="860.16" height="192.35942028985508">
<path transform="translate(141.875,88.9375)" fill="#000000" d="M0 0 C2.17578125 1.421875 2.17578125 1.421875 4.125 3.0625 C5.13626953 3.90554687 5.13626953 3.90554687 6.16796875 4.765625 C14.44431118 12.89789184 19.59921368 25.15223416 23.125 36.0625 C23.99238989 38.03359654 24.89007047 39.99155278 25.8125 41.9375 C27.57022668 45.67588455 29.29010089 49.4137039 30.8984375 53.21875 C31.19661377 53.92016113 31.49479004 54.62157227 31.80200195 55.34423828 C32.3751361 56.69909138 32.94182171 58.05669816 33.50073242 59.41748047 C34.97499802 62.88493904 36.60541826 65.87033612 38.83984375 68.9140625 C41.125 72.0625 41.125 72.0625 41.125 74.0625 C41.764375 74.35125 42.40375 74.64 43.0625 74.9375 C45.125 76.0625 45.125 76.0625 46.125 78.0625 C47.775 77.7325 49.425 77.4025 51.125 77.0625 C51.91376725 75.28925144 51.91376725 75.28925144 52.125 73.0625 C50.93474164 70.8481803 50.93474164 70.8481803 49.10546875 68.65234375 C44.69529513 62.67907062 41.59169053 56.32625177 38.4375 49.625 C37.88255859 48.47451172 37.32761719 47.32402344 36.75585938 46.13867188 C33.83362458 40.00580099 31.24138809 33.88039038 29.00317383 27.4675293 C27.42284327 23.13952365 25.28228529 19.11342065 23.19921875 15.0078125 C21.99238639 11.6988976 21.83013475 10.31862559 23.125 7.0625 C25.015625 5.11328125 25.015625 5.11328125 27.375 3.375 C28.14328125 2.79363281 28.9115625 2.21226563 29.703125 1.61328125 C35.5958738 -2.15997887 40.59186746 -2.27388567 47.4375 -2.25 C48.34951172 -2.26611328 49.26152344 -2.28222656 50.20117188 -2.29882812 C58.47360198 -2.30475818 65.00137559 -0.79254439 71.125 5.0625 C73.0390625 7.47265625 73.0390625 7.47265625 74.75 10.125 C75.31976563 10.98222656 75.88953125 11.83945313 76.4765625 12.72265625 C80.7653614 21.41204739 81.56778245 30.04417831 81.52905273 39.61132812 C81.53591599 40.81446152 81.54277924 42.01759491 81.54985046 43.25718689 C81.56490422 46.52381316 81.56664378 49.79007692 81.56090808 53.05672264 C81.55779411 55.79757402 81.5639328 58.538375 81.56994683 61.27921915 C81.58393834 67.75080558 81.58247514 74.22225983 81.57104492 80.69384766 C81.55956186 87.34175019 81.57365449 93.98924936 81.6004414 100.63709879 C81.62267869 106.37335477 81.62921802 112.10948487 81.62336498 117.84578085 C81.62001414 121.25935132 81.62228451 124.67266322 81.63961601 128.0861969 C81.6545689 131.89565675 81.64381624 135.70423864 81.62670898 139.51367188 C81.64121094 141.18169106 81.64121094 141.18169106 81.65600586 142.88340759 C81.55580158 153.5924383 78.8228841 162.38352665 71.34375 170.18359375 C63.57914979 176.7588978 53.94485743 177.76203285 44.125 177.0625 C36.36212245 175.81815639 31.54011943 172.63032344 26.125 167.0625 C25.60292969 166.59585938 25.08085937 166.12921875 24.54296875 165.6484375 C18.9678432 160.14686242 16.74290498 152.3647472 13.97314453 145.21533203 C12.74165126 142.08945186 11.4045791 139.0176241 10.0625 135.9375 C8.07032281 131.31879445 6.16130931 126.67789389 4.3125 122 C3.54505904 120.08574065 2.77498503 118.17256249 2.00390625 116.25976562 C1.37216559 114.68041398 0.74806787 113.09799721 0.12890625 111.51367188 C-5.57377518 95.34888239 -5.57377518 95.34888239 -16.875 83.0625 C-19.58983249 83.23123247 -19.58983249 83.23123247 -21.875 84.0625 C-22.37 85.5475 -22.37 85.5475 -22.875 87.0625 C-21.76681685 88.92811515 -21.76681685 88.92811515 -20.0625 90.9375 C-11.49294414 102.68856762 -6.08347542 116.79088929 -1.29272461 130.43237305 C0.76440136 136.2624424 3.21361331 141.70629595 6.05859375 147.203125 C7.7029047 151.61204666 7.63899267 155.4862558 6.1875 159.9375 C0.40524385 168.69849416 -6.39280374 173.76028577 -16.3125 176.8125 C-24.97516899 177.65763844 -33.63695969 177.66947793 -41.0703125 172.55078125 C-43.12564014 170.81195844 -45.00815928 169.00145045 -46.875 167.0625 C-47.45507812 166.47984375 -48.03515625 165.8971875 -48.6328125 165.296875 C-55.38210603 158.05850222 -55.17310058 150.36574132 -55.16552734 140.87597656 C-55.17224457 139.66367371 -55.17896179 138.45137085 -55.18588257 137.20233154 C-55.20157921 133.89211863 -55.20823492 130.58215671 -55.20951414 127.27192402 C-55.21094067 125.19852195 -55.21521976 123.12514579 -55.22050858 121.05175018 C-55.23898658 113.80303796 -55.24718219 106.55439905 -55.24560547 99.30566406 C-55.24440541 92.57379346 -55.26548664 85.84224416 -55.2970928 79.1104548 C-55.32334242 73.31059918 -55.33396911 67.51084793 -55.33269465 61.71093345 C-55.33218746 58.25592718 -55.33773431 54.80120659 -55.35905075 51.34626007 C-55.38221815 47.48624921 -55.37285932 43.62667035 -55.36083984 39.76660156 C-55.37769836 38.07513 -55.37769836 38.07513 -55.39489746 36.3494873 C-55.31346267 26.00932245 -52.6565071 16.54716991 -45.75 8.625 C-33.82827163 -2.00088833 -15.30935121 -6.958796 0 0 Z"/>
<path transform="translate(345.8125,88.9375)" fill="#000000" d="M0 0 C6.92921197 4.38278778 10.96452692 10.21078071 13.125 18.0625 C13.51016868 20.05676155 13.86618518 22.05695997 14.1875 24.0625 C14.3834375 24.89394531 14.579375 25.72539063 14.78125 26.58203125 C15.17454215 29.20546868 15.24421052 30.61588195 14.1875 33.0625 C11.40816247 35.1263645 8.51196264 36.62224298 5.43359375 38.203125 C-3.42625085 43.2780781 -9.4953587 52.54035321 -12.8125 62.0625 C-13.01709583 65.30271754 -13.01709583 65.30271754 -12.8125 68.0625 C-11.4925 68.3925 -10.1725 68.7225 -8.8125 69.0625 C-8.38710938 68.33933594 -7.96171875 67.61617188 -7.5234375 66.87109375 C-0.22808301 54.89538626 8.19678553 43.04851006 22.140625 38.55859375 C33.05833361 35.91250789 43.87188532 37.06837571 53.75390625 42.5390625 C67.395714 51.07887795 76.19205901 63.05468872 80.0859375 78.6640625 C85.40526095 103.44700418 85.35567959 134.36132983 71.375 156.25 C68.05250592 161.04915811 64.6241156 165.26695501 60.1875 169.0625 C59.64609375 169.53300781 59.1046875 170.00351562 58.546875 170.48828125 C49.02240403 178.03219634 36.81741929 178.24321631 25.1875 177.0625 C17.39583511 175.40688813 10.80471888 171.36871619 4.1875 167.0625 C3.93871094 167.66707031 3.68992187 168.27164063 3.43359375 168.89453125 C1.98952545 171.40693848 0.72614187 172.28829242 -1.75 173.75 C-2.43964844 174.16636719 -3.12929688 174.58273437 -3.83984375 175.01171875 C-10.48033209 178.54892937 -19.47140665 177.87682115 -26.70703125 176.51953125 C-33.75408239 174.15571725 -38.79088762 169.22239299 -42.8125 163.0625 C-46.15069766 155.83828915 -46.24045667 148.81534699 -46.20068359 140.97460938 C-46.20594055 139.69052689 -46.21119751 138.4064444 -46.21661377 137.08345032 C-46.23020367 133.58546886 -46.22502355 130.08775506 -46.21547651 126.58976936 C-46.20783641 122.91445362 -46.21493753 119.2391595 -46.21963501 115.56384277 C-46.22507997 109.3939201 -46.21793416 103.22410546 -46.20361328 97.05419922 C-46.18728913 89.9394361 -46.19257854 82.82493096 -46.2090925 75.71017408 C-46.22274341 69.58164255 -46.22460948 63.45318831 -46.21677649 57.32464647 C-46.21211971 53.67306832 -46.21141974 50.02161109 -46.22138596 46.37004089 C-46.23172852 42.29667085 -46.21735964 38.22373968 -46.20068359 34.15039062 C-46.20675629 32.95323929 -46.21282898 31.75608795 -46.21908569 30.5226593 C-46.14558591 20.80506913 -44.85645134 13.46673358 -38.0625 6.1875 C-37.24265625 5.28257813 -36.4228125 4.37765625 -35.578125 3.4453125 C-26.79634679 -4.12090884 -10.49181565 -4.67922025 0 0 Z M21.46176147 86.32617188 C19.25314508 89.33566626 19.76199186 92.96816489 19.7890625 96.5625 C19.78619232 97.39458984 19.78332214 98.22667969 19.78036499 99.08398438 C19.77832438 100.84245484 19.78385407 102.60094801 19.79638672 104.359375 C19.81244098 107.05259913 19.79653855 109.7443226 19.77734375 112.4375 C19.77932618 114.14583665 19.78316986 115.85417236 19.7890625 117.5625 C19.78298981 118.36880859 19.77691711 119.17511719 19.7706604 120.00585938 C19.72200343 124.19255347 19.72200343 124.19255347 21.54769897 127.81054688 C23.19314906 129.35316464 23.19314906 129.35316464 25.8125 128.875 C28.35302003 128.31605766 28.35302003 128.31605766 29.1875 126.0625 C29.29883108 123.16901461 29.35161858 120.3003233 29.35546875 117.40625 C29.36046135 116.11914124 29.36046135 116.11914124 29.36555481 114.80603027 C29.37062138 112.99032122 29.37296322 111.17460284 29.37280273 109.35888672 C29.37499117 106.5737383 29.39315489 103.78898464 29.41210938 101.00390625 C29.4150429 99.24218886 29.41702797 97.48046958 29.41796875 95.71875 C29.42515427 94.88226929 29.43233978 94.04578857 29.43974304 93.18395996 C29.62419881 88.64787835 29.62419881 88.64787835 27.1875 85.0625 C23.36889205 84.66863661 23.36889205 84.66863661 21.46176147 86.32617188 Z"/>
<path transform="translate(463.25,86.6875)" fill="#000000" d="M0 0 C0.82113281 -0.02900391 1.64226562 -0.05800781 2.48828125 -0.08789062 C10.07329229 -0.16602465 14.8638806 2.31441734 21 6.5625 C27.04955495 12.61205495 28.88446443 19.77000986 29.5 28.125 C29.48828125 31.90234375 29.48828125 31.90234375 28.75 35.3125 C26.2462101 37.79856395 23.79936008 39.13077611 20.66015625 40.72265625 C15.92007416 43.31220445 12.17172141 47.46905717 9.75 52.3125 C9.09 52.3125 8.43 52.3125 7.75 52.3125 C7.5025 52.9725 7.255 53.6325 7 54.3125 C5.97381945 56.77533332 4.83887089 58.98058363 3.5625 61.3125 C2.11712732 64.12857667 1.7291614 65.06243681 2 68.3125 C2.37125 69.3025 2.37125 69.3025 2.75 70.3125 C4.4 70.6425 6.05 70.9725 7.75 71.3125 C8.07871094 70.49458984 8.07871094 70.49458984 8.4140625 69.66015625 C13.20659369 58.26328331 19.92386237 47.64924547 31.5 42.375 C43.63036179 37.8642122 56.05236178 38.45594672 67.8125 43.8125 C82.44570959 51.78903385 90.03354893 63.51394677 95.125 78.9375 C101.61644188 102.72030476 100.93754796 129.60793428 90.75 152.3125 C89.77499165 153.66421613 88.77762729 155.0003415 87.75 156.3125 C87.13905673 157.59133888 86.5551317 158.88346421 86 160.1875 C83.86628586 164.60379207 80.85569564 167.64278658 76.75 170.3125 C76.09 170.3125 75.43 170.3125 74.75 170.3125 C74.42 171.3025 74.09 172.2925 73.75 173.3125 C71.38671875 174.6640625 71.38671875 174.6640625 68.4375 175.9375 C67.47199219 176.36289062 66.50648438 176.78828125 65.51171875 177.2265625 C54.97392929 181.37013459 41.598325 180.53851062 31.1875 176.4609375 C28.05059516 174.98297272 25.41820771 173.53600642 22.75 171.3125 C22.75 170.6525 22.75 169.9925 22.75 169.3125 C19.60887676 170.09738731 19.60887676 170.09738731 17.5625 172.625 C11.81216858 178.11976114 7.26739678 179.57466926 -0.75 179.75 C-10.58958956 179.42850846 -15.62124362 177.22385415 -23.171875 171.03125 C-29.34509621 162.95500572 -29.83346108 153.65476551 -29.76757812 143.84570312 C-29.7745874 142.54503403 -29.78159668 141.24436493 -29.78881836 139.90428162 C-29.80689759 136.36902823 -29.80004894 132.83424701 -29.78730202 129.29898643 C-29.77709359 125.57923594 -29.78658926 121.85952279 -29.79284668 118.13977051 C-29.80010047 111.89600451 -29.79059535 105.65242848 -29.77148438 99.40869141 C-29.74971985 92.2154704 -29.75677285 85.02270308 -29.77879 77.82949305 C-29.79700907 71.62613909 -29.79947072 65.4229208 -29.78903532 59.2195487 C-29.78283593 55.5265444 -29.78186563 51.83375253 -29.79518127 48.14076233 C-29.80900453 44.02000565 -29.7897846 39.90001697 -29.76757812 35.77929688 C-29.77567505 34.5737767 -29.78377197 33.36825653 -29.79211426 32.12620544 C-29.70004394 22.8603552 -28.37825311 14.26013366 -21.8125 7.3125 C-14.81975815 1.06684596 -9.06771319 0.10478867 0 0 Z M36.75 88.3125 C36.72535426 94.27563166 36.707166 100.23873395 36.69506836 106.2019043 C36.69002722 108.23218298 36.68319443 110.26245802 36.67456055 112.29272461 C36.66248533 115.20427347 36.65676966 118.1157745 36.65234375 121.02734375 C36.64718246 121.9408812 36.64202118 122.85441864 36.63670349 123.79563904 C36.63650832 125.96825427 36.68788195 128.14077296 36.75 130.3125 C37.79862094 131.56406054 37.79862094 131.56406054 40.125 131.625 C42.79181159 131.56577088 42.79181159 131.56577088 44.38916016 129.81665039 C46.32103823 126.2617036 46.179182 122.87885779 46.1484375 118.93359375 C46.15130768 118.1251149 46.15417786 117.31663605 46.15713501 116.48365784 C46.1591727 114.77824196 46.15366342 113.07280256 46.14111328 111.36743164 C46.12503381 108.75549214 46.14098189 106.14509505 46.16015625 103.53320312 C46.15817417 101.87499658 46.15433124 100.216791 46.1484375 98.55859375 C46.15451019 97.77729599 46.16058289 96.99599823 46.1668396 96.19102478 C46.12198233 92.03124939 46.12198233 92.03124939 44.47509766 88.29711914 C41.74634161 86.73965054 39.50592679 86.93453661 36.75 88.3125 Z"/>
<path transform="translate(862,90)" fill="#000000" d="M0 0 C6.43322556 4.42763735 10.52272928 9.56818784 13 17 C13.19984833 19.82928132 13.32269627 22.6059663 13.375 25.4375 C13.43107422 26.5831543 13.43107422 26.5831543 13.48828125 27.75195312 C13.57682216 33.40381455 13.57682216 33.40381455 10.7890625 36.28515625 C9.86867188 36.85105469 8.94828125 37.41695312 8 38 C3.65299513 41.13576512 1.14166663 44.38155178 -1.625 48.875 C-2.0065625 49.47441406 -2.388125 50.07382813 -2.78125 50.69140625 C-7.45809734 57.53596785 -7.45809734 57.53596785 -8.6875 65.375 C-8.460625 66.24125 -8.23375 67.1075 -8 68 C-7.01 68.33 -6.02 68.66 -5 69 C-1.63597322 66.75731548 -1.46462208 66.09855429 -0.25 62.4375 C1.83745642 56.87904047 4.83380218 52.24829039 9 48 C9.66 48 10.32 48 11 48 C11.20625 47.41734375 11.4125 46.8346875 11.625 46.234375 C14.72971259 41.18921704 21.44917911 38.6310469 27 37 C38.99548706 35.11706127 48.74272255 37.22359014 58.79296875 44.140625 C69.77346636 53.39145131 73.2056324 67.39421237 75 81 C75.37817346 86.28038716 75.42516476 91.54093543 75.3984375 96.83203125 C75.40046782 98.28496953 75.40338711 99.73790681 75.40713501 101.19084167 C75.41150649 104.20341912 75.40529301 107.215726 75.39111328 110.22827148 C75.37394639 114.05853224 75.38394249 117.88816546 75.40183067 121.71840382 C75.41274438 124.70670688 75.40918903 127.69486445 75.4014473 130.68317223 C75.39947018 132.09474452 75.4018152 133.50633076 75.40888596 134.91788673 C75.45147162 145.79256078 74.98418848 156.16705574 68 165 C67.2575 166.03125 66.515 167.0625 65.75 168.125 C60.48738095 173.62682901 53.92920299 176.07873802 46.375 176.3125 C39.51073955 176.24152537 34.0498482 173.76213452 28.1875 170.375 C19.77610192 161.24262494 18.70533108 149.97921686 18.62109375 138.171875 C18.60409927 136.94591614 18.5871048 135.71995728 18.56959534 134.45684814 C18.51662268 130.55461725 18.4762257 126.65239624 18.4375 122.75 C18.39356041 118.83337414 18.34688522 114.91682997 18.29469299 111.00030518 C18.26275353 108.56640785 18.235858 106.13243814 18.21446228 103.69842529 C18.20097244 102.60008362 18.1874826 101.50174194 18.17358398 100.37011719 C18.16407211 99.40305847 18.15456024 98.43599976 18.14476013 97.43963623 C18.09758796 94.86029793 18.09758796 94.86029793 17 92 C14.98491642 91.26676204 14.98491642 91.26676204 13 91 C10.79123978 94.31314033 10.74983931 95.32886793 10.74462891 99.18310547 C10.73419052 100.77153763 10.73419052 100.77153763 10.72354126 102.39205933 C10.72453827 103.53885162 10.72553528 104.68564392 10.7265625 105.8671875 C10.7062529 108.30469192 10.68540176 110.74219188 10.6640625 113.1796875 C10.64157653 117.01501209 10.6250382 120.85015968 10.61914062 124.68554688 C10.60953278 128.39225225 10.57563213 132.09816296 10.5390625 135.8046875 C10.54410797 136.93123749 10.54915344 138.05778748 10.55435181 139.21847534 C10.42070977 150.20624577 8.21103263 160.66193487 0.93359375 169.19140625 C-4.76235889 174.51913569 -11.78083966 176.37361012 -19.42578125 176.28515625 C-26.12491348 175.54306725 -33.32568516 172.94927454 -38 168 C-45.25260367 158.60656754 -46.44847023 148.6445093 -46.38818359 137.07397461 C-46.39344055 135.81900681 -46.39869751 134.564039 -46.40411377 133.27104187 C-46.4149902 129.85772093 -46.41253309 126.44495172 -46.40297651 123.0316627 C-46.39532688 119.44310366 -46.40243998 115.85456654 -46.40713501 112.26600647 C-46.41257654 106.24329446 -46.40544254 100.2206932 -46.39111328 94.19799805 C-46.37478236 87.25419113 -46.38008483 80.31064847 -46.3965925 73.36684793 C-46.41024441 67.38266818 -46.41210922 61.39856757 -46.40427649 55.41437727 C-46.39962121 51.85000346 -46.39891569 48.28575351 -46.40888596 44.72138786 C-46.41923051 40.74636585 -46.40485785 36.77163552 -46.38818359 32.79663086 C-46.39425629 31.62910278 -46.40032898 30.46157471 -46.40658569 29.25866699 C-46.32154625 18.28366847 -43.949664 9.85846326 -36 2 C-26.69684021 -5.74962243 -10.39233335 -5.46427355 0 0 Z"/>
<path transform="translate(796,136)" fill="#000000" d="M0 0 C0.60457031 0.37769531 1.20914063 0.75539062 1.83203125 1.14453125 C6.97687439 4.83058342 10.32105581 11.03132624 11.37890625 17.21484375 C11.58334676 24.31574421 8.86482565 31.77893998 4 37 C-1.582355 40.11788021 -6.36986266 40.47938409 -12.6875 40.375 C-13.57526123 40.36484863 -14.46302246 40.35469727 -15.37768555 40.34423828 C-27.94806253 40.04846471 -38.57143234 35.82435438 -50 31 C-50.99 31.99 -51.98 32.98 -53 34 C-52.65458147 36.45002782 -52.65458147 36.45002782 -51 39 C-48.15282461 40.65332422 -45.11516204 41.64832563 -42 42.6875 C-41.13221924 42.98857666 -40.26443848 43.28965332 -39.37036133 43.59985352 C-28.05020313 47.44974868 -15.96023753 50.22451132 -4.0625 47.0625 C-0.50734962 46.98994591 0.00023152 47.39144123 2.5625 49.6875 C11.39084967 59.66910255 14.53066512 71.81540398 14.24609375 84.85546875 C13.45834883 94.92109826 10.61869584 102.68901241 5 111 C4.57460938 111.81339844 4.14921875 112.62679687 3.7109375 113.46484375 C1.51197238 116.72312769 -1.21881947 118.808583 -4.375 121.0625 C-4.92027344 121.48337891 -5.46554687 121.90425781 -6.02734375 122.33789062 C-16.36758914 129.79813478 -28.18525706 130.65581171 -40.48266602 130.52148438 C-42.80006668 130.50011465 -45.11433572 130.52135348 -47.43164062 130.546875 C-63.23909404 130.57507751 -79.3237472 128.01265486 -91.30078125 116.90625 C-95.98505977 111.65124329 -96.57631781 105.52016369 -96.33984375 98.671875 C-95.42064219 91.44504897 -91.60506307 87.15500437 -86.29296875 82.4453125 C-77.49175442 76.8976987 -65.57034681 78.00224941 -55.79394531 80.18237305 C-49.27772997 81.79274686 -43.26352527 83.95927226 -37.33203125 87.14453125 C-34.49311013 88.18594453 -32.86437988 87.82929648 -30 87 C-29.30840599 85.15274948 -29.30840599 85.15274948 -29 83 C-31.1730159 79.74047616 -31.73793664 79.4551106 -35.25390625 78.24609375 C-36.10919922 77.94896484 -36.96449219 77.65183594 -37.84570312 77.34570312 C-38.74224609 77.04599609 -39.63878906 76.74628906 -40.5625 76.4375 C-41.43197266 76.13392578 -42.30144531 75.83035156 -43.19726562 75.51757812 C-53.70309154 71.92162429 -62.44334872 70.72731385 -73.53515625 71.34179688 C-80.28331521 71.53222973 -80.28331521 71.53222973 -83.9140625 68.8359375 C-93.54350764 55.74421994 -97.4605752 43.30975645 -96 27 C-94.33293514 16.77028381 -88.56525286 8.83991939 -81 2 C-77.49537865 -0.50677777 -73.9608892 -2.32468204 -70 -4 C-69.154375 -4.38542969 -68.30875 -4.77085937 -67.4375 -5.16796875 C-46.25591701 -14.33562264 -19.32858446 -12.50287042 0 0 Z"/>
<path transform="translate(595.6875,86.6875)" fill="#000000" d="M0 0 C0.77794922 -0.02900391 1.55589844 -0.05800781 2.35742188 -0.08789062 C9.21201081 -0.16221061 13.96704547 1.85386614 19.44921875 5.8828125 C26.81641134 13.26856225 29.86388743 20.66773681 29.97903442 31.08746338 C29.96734222 32.30907166 29.95565002 33.53067993 29.94360352 34.78930664 C29.95075882 36.10279587 29.95791412 37.4162851 29.96528625 38.76957703 C29.98367368 42.34411723 29.97094399 45.9179038 29.95119596 49.49241185 C29.93470574 53.24913483 29.94363651 57.00581393 29.94871521 60.76255798 C29.95322412 67.0678194 29.93744009 73.372783 29.90942383 79.67797852 C29.87736325 86.94905077 29.87739687 94.21958657 29.8946386 101.49069697 C29.9105465 108.51094487 29.90374375 115.53099765 29.88670158 122.55123711 C29.87986125 125.52752367 29.88083219 128.50365242 29.88824654 131.4799366 C29.89738727 135.64195265 29.87328312 139.80315159 29.84594727 143.96508789 C29.85247314 145.1887204 29.85899902 146.41235291 29.86572266 147.67306519 C29.7866846 154.76812999 28.85254632 160.11297634 25.3125 166.3125 C24.6525 166.3125 23.9925 166.3125 23.3125 166.3125 C23.04566406 166.90933594 22.77882813 167.50617188 22.50390625 168.12109375 C19.81094102 173.07438389 15.21112475 176.23794801 10 178.1875 C0.780316 180.79272374 -7.11693568 179.42204504 -15.6875 175.3125 C-22.7538613 171.25754162 -26.11588587 163.8165476 -28.30776978 156.27391052 C-29.91122374 150.15426993 -30.11102444 144.35404181 -30.07568359 138.05493164 C-30.08094055 136.88266525 -30.08619751 135.71039886 -30.09161377 134.50260925 C-30.10472879 130.65915273 -30.09610493 126.8161164 -30.0859375 122.97265625 C-30.08660739 120.28185191 -30.09087065 117.59105483 -30.09463501 114.9002533 C-30.10007275 109.27273072 -30.09295414 103.64532677 -30.07861328 98.01782227 C-30.06229846 91.5415422 -30.06757465 85.06554573 -30.0840925 78.58927256 C-30.09777376 72.99822688 -30.09959459 67.40726582 -30.09177649 61.81620878 C-30.08713514 58.49037781 -30.08758007 55.16478491 -30.09638596 51.83894539 C-30.10406087 48.12559359 -30.09231086 44.41277528 -30.07568359 40.69946289 C-30.08175629 39.6190976 -30.08782898 38.5387323 -30.09408569 37.42562866 C-29.99725598 25.66883007 -27.84098422 15.12795026 -19.6875 6.3125 C-13.41529257 1.31775133 -7.95406877 0.09645193 0 0 Z"/>
<path transform="translate(234,148)" fill="#000000" d="M0 0 C3.27772582 0.67216036 5.90514138 1.91646299 8.875 3.4375 C18.72806485 7.95677241 29.59627753 9.46790749 40 6 C43.23237787 4.52790502 46.35681136 2.95375375 49.46875 1.2421875 C52 0 52 0 55 0 C57.54230983 3.83965316 57.28873592 7.81612023 57.2746582 12.25 C57.27976913 13.07986923 57.28488007 13.90973846 57.29014587 14.76475525 C57.30404956 17.5099102 57.30308325 20.254814 57.30078125 23 C57.30467031 24.91609795 57.30900541 26.83219504 57.31376648 28.74829102 C57.32123223 32.76988513 57.3209367 36.79139149 57.31567383 40.81298828 C57.30990608 45.93929966 57.32674294 51.06524657 57.3500185 56.1914978 C57.36483936 60.15348373 57.36561577 64.11538384 57.36250877 68.07739258 C57.3630187 69.9654207 57.36819411 71.85345405 57.37832069 73.74145508 C57.50504717 100.69469562 57.50504717 100.69469562 47.4140625 110.93359375 C40.89551136 116.51338914 34.07261989 118.31786592 25.66015625 118.21875 C17.45764389 117.54424091 10.5833162 113.86490343 4.875 108 C-3.41426553 97.41374824 -2.5645059 84.4333738 -2.4609375 71.71875 C-2.45854871 69.77250287 -2.45764867 67.82625341 -2.4581604 65.88000488 C-2.4550503 61.82545285 -2.43861376 57.77125892 -2.41162109 53.71679688 C-2.37746165 48.5204698 -2.3699987 43.32453142 -2.37151146 38.12810516 C-2.37096811 34.12012017 -2.36000959 30.11222008 -2.34550858 26.10426331 C-2.33915015 24.18730815 -2.33520392 22.27034342 -2.33372116 20.3533783 C-2.3293883 17.68268344 -2.31189296 15.01240277 -2.29052734 12.34179688 C-2.29143372 11.55216553 -2.29234009 10.76253418 -2.29327393 9.94897461 C-2.24891228 6.1597461 -2.13356977 3.2131204 0 0 Z"/>
<path transform="translate(691.125,148.25)" fill="#000000" d="M0 0 C1.875 0.75 1.875 0.75 2.875 2.75 C2.98910416 5.49349218 3.0428484 8.21217482 3.05200195 10.95654297 C3.06185875 12.23016945 3.06185875 12.23016945 3.07191467 13.52952576 C3.09168261 16.35041389 3.1033234 19.17124847 3.11328125 21.9921875 C3.11735678 22.9572736 3.1214323 23.9223597 3.12563133 24.91669083 C3.1465156 30.03332557 3.16080219 35.14993338 3.17016602 40.26660156 C3.18118299 45.52978421 3.21552127 50.79253851 3.25533772 56.0555706 C3.28161551 60.11877169 3.28986815 64.18187295 3.29344749 68.24515152 C3.29829151 70.18344105 3.30984245 72.12172678 3.32848549 74.05993271 C3.44048323 86.4847809 3.50601233 99.03346608 -4.6484375 109.2890625 C-10.52971975 115.10810896 -17.74152783 117.75563053 -25.9375 118.0625 C-35.20056848 117.79583591 -41.55109823 115.27655234 -48.21484375 108.77734375 C-58.12198386 98.26240363 -56.41521562 83.43296558 -56.35546875 69.8515625 C-56.35427389 68.04462721 -56.35382443 66.23769128 -56.3540802 64.43075562 C-56.35252591 60.66717571 -56.34431425 56.90369236 -56.33081055 53.14013672 C-56.31374869 48.3252182 -56.30999896 43.51040459 -56.31075573 38.69545937 C-56.31048354 34.97393805 -56.3049957 31.25243949 -56.29775429 27.53092575 C-56.29458266 25.7551732 -56.29260375 23.9794181 -56.29186058 22.20366287 C-56.28968513 19.72508617 -56.28091707 17.24661935 -56.27026367 14.76806641 C-56.27071686 14.04173004 -56.27117004 13.31539368 -56.27163696 12.56704712 C-56.24632797 8.52669156 -55.90391638 4.71481584 -55.125 0.75 C-51.33546807 1.13866994 -48.33221731 2.0450918 -44.9375 3.6875 C-35.03630102 8.22416977 -24.18450541 9.12531594 -13.8046875 5.6328125 C-9.92068998 4.0511364 -3.91469924 -0.46055285 0 0 Z"/>
<path transform="translate(681.9921875,90.39453125)" fill="#000000" d="M0 0 C7.60487233 6.08093877 12.29515998 13.21363683 13.38671875 23.00390625 C13.71483739 32.76278955 11.95524274 40.20899702 5.8828125 47.91796875 C-0.81809968 54.93121158 -8.33303821 57.32466527 -17.89453125 57.66015625 C-27.6006617 57.4887996 -33.66408703 54.01034397 -40.9921875 47.60546875 C-46.31874369 41.83738145 -48.00960112 34.35859163 -48.3671875 26.60546875 C-47.86578859 17.32958897 -45.64254217 10.12564449 -39.05078125 3.44921875 C-29.2017733 -5.37190412 -11.47425074 -7.13642424 0 0 Z"/>
<path transform="translate(276.75,89)" fill="#000000" d="M0 0 C7.87501782 4.86519426 12.34187438 11.58175926 14.9375 20.3125 C15.99429931 29.40097409 15.23182567 37.6188992 11.25 46 C8.6209678 49.31783864 5.76614661 51.6654622 2.25 54 C1.59386719 54.45246094 0.93773437 54.90492188 0.26171875 55.37109375 C-6.79506779 59.33111571 -15.90808644 59.23761269 -23.75 58 C-30.20875507 55.88456444 -36.78442791 52.64793601 -40.75 47 C-45.91712181 36.72348959 -47.69978147 27.33659281 -44.1875 16.25 C-40.93720295 8.39039667 -35.78782786 2.38438863 -27.953125 -1.1484375 C-19.23057773 -3.4673586 -8.33114461 -3.75668177 0 0 Z"/>
<path transform="translate(929.13671875,87.73046875)" fill="#000000" d="M0 0 C3.88480156 2.39742162 5.96920643 5.91242491 7.55078125 10.08203125 C8.49125785 16.66536743 8.14806843 21.37956803 4.86328125 27.26953125 C-0.62441212 32.47580444 -5.01640208 33.72833209 -12.4453125 33.58984375 C-17.92040694 32.93823599 -21.63249098 29.29290388 -25.13671875 25.26953125 C-26.92677086 19.89937491 -27.14130946 13.50718359 -25.453125 8.06640625 C-20.42672785 -1.52754682 -9.8236638 -3.35836404 0 0 Z M-13.13671875 4.26953125 C-13.13671875 4.59953125 -13.13671875 4.92953125 -13.13671875 5.26953125 C-10.82671875 5.26953125 -8.51671875 5.26953125 -6.13671875 5.26953125 C-6.13671875 4.93953125 -6.13671875 4.60953125 -6.13671875 4.26953125 C-8.44671875 4.26953125 -10.75671875 4.26953125 -13.13671875 4.26953125 Z M-1.13671875 9.26953125 C-1.55517884 10.84703549 -1.94568264 12.43197373 -2.32421875 14.01953125 C-2.54464844 14.90125 -2.76507812 15.78296875 -2.9921875 16.69140625 C-3.3897313 19.36051148 -3.3897313 19.36051148 -1.6875 21.59765625 C-1.17574219 22.149375 -0.66398438 22.70109375 -0.13671875 23.26953125 C2.0886097 18.94977603 1.92761693 15.97034716 0.86328125 11.26953125 C0.20328125 10.60953125 -0.45671875 9.94953125 -1.13671875 9.26953125 Z M-19.13671875 10.26953125 C-20.25117373 12.4984412 -20.30152161 13.80008231 -20.32421875 16.26953125 C-20.33839844 16.97078125 -20.35257813 17.67203125 -20.3671875 18.39453125 C-20.30184198 20.51478063 -20.30184198 20.51478063 -18.13671875 22.26953125 C-18.13671875 18.30953125 -18.13671875 14.34953125 -18.13671875 10.26953125 C-18.46671875 10.26953125 -18.79671875 10.26953125 -19.13671875 10.26953125 Z M-10.13671875 20.26953125 C-10.13671875 22.24953125 -10.13671875 24.22953125 -10.13671875 26.26953125 C-11.12671875 26.59953125 -12.11671875 26.92953125 -13.13671875 27.26953125 C-10.49671875 27.26953125 -7.85671875 27.26953125 -5.13671875 27.26953125 C-6.65877884 24.64051837 -7.98037839 22.42587161 -10.13671875 20.26953125 Z"/>
</svg>