<?xml version="1.0" encoding="UTF-8"?>
<svg id="Layer_1" data-name="Layer 1" xmlns="http://www.w3.org/2000/svg" viewBox="0 0 1752.87 1368.6">
  <defs>
    <style>
      .cls-1 {
        fill: gray;
      }
    </style>
  </defs>
  <polygon class="cls-1" points="1467.61 1159.5 1453.78 1211.13 1527.46 1211.13 1486.73 1363.25 1565.65 1363.25 1606.44 1211.13 1680.38 1211.13 1694.22 1159.5 1467.61 1159.5"/>
  <polygon class="cls-1" points="1340.11 1159.5 1308.65 1276.85 1261.43 1159.5 1168.01 1159.5 1113.43 1363.25 1187.81 1363.25 1219.76 1243.96 1273.39 1363.25 1361.96 1363.25 1416.52 1159.5 1340.11 1159.5"/>
  <polygon class="cls-1" points="892.13 1159.5 837.57 1363.25 1060.18 1363.25 1074.2 1310.74 930.56 1310.74 937.72 1284.02 1048.6 1284.02 1062.06 1233.75 951.17 1233.75 957.66 1209.51 1094.63 1209.51 1108.01 1159.5 892.13 1159.5"/>
  <polygon class="cls-1" points="614.45 1159.5 600.62 1211.13 674.3 1211.13 633.57 1363.25 712.49 1363.25 753.23 1211.13 827.22 1211.13 841.06 1159.5 614.45 1159.5"/>
  <polygon points="359.07 1159.5 345.36 1210.64 457.79 1210.64 309.55 1318.08 297.47 1363.25 520.08 1363.25 534.41 1309.68 419.67 1309.68 566.23 1205.78 578.63 1159.5 359.07 1159.5"/>
  <path d="M170.7,1154.14c-45.27,0-81.85,9.03-109.75,27.03-27.9,18.06-46.59,44.85-56.05,80.3-9.54,35.31-5.12,62.04,13.08,80.1,18.25,18,49.95,27.03,95.24,27.03s81.85-9.03,109.75-27.03c27.9-18.05,46.59-44.79,56.06-80.1,9.46-35.45,5.11-62.23-13.09-80.3-18.24-18-49.95-27.03-95.24-27.03m-43.41,162.01c-16.89,0-28.59-4.73-35-14.07-6.48-9.34-7.29-22.92-2.56-40.61,4.8-17.82,12.89-31.46,24.41-40.93,11.47-9.46,25.67-14.2,42.55-14.2s28.59,4.74,35,14.2c6.41,9.47,7.23,23.11,2.43,40.93-4.74,17.69-12.83,31.27-24.3,40.61-11.46,9.34-25.66,14.07-42.54,14.07"/>
  <g id="Register_Icon" data-name="Register Icon">
    <path class="cls-1" d="M1729.29,1161.37c-13.01,0-23.6,10.59-23.6,23.6s10.59,23.6,23.6,23.6,23.58-10.59,23.58-23.6-10.58-23.6-23.58-23.6m0,44.23c-11.39,0-20.64-9.25-20.64-20.64s9.25-20.65,20.64-20.65,20.64,9.26,20.64,20.65-9.26,20.64-20.64,20.64"/>
    <path class="cls-1" d="M1721.87,1172.5c1.63-.29,4.07-.49,6.58-.49,3.44,0,5.77,.56,7.36,1.91,1.31,1.1,2.05,2.76,2.05,4.77,0,3.08-2.08,5.17-4.32,5.99v.11c1.7,.63,2.73,2.29,3.32,4.59,.75,2.97,1.38,5.73,1.88,6.65h-4.48c-.36-.7-.93-2.65-1.59-5.62-.68-3.11-1.81-4.1-4.29-4.18h-2.19v9.8h-4.32v-23.52h0Zm4.32,10.53h2.58c2.94,0,4.78-1.56,4.78-3.92,0-2.63-1.84-3.82-4.67-3.82-1.37,0-2.26,.1-2.69,.21v7.54h0Z"/>
  </g>
  <polygon id="Icon" points="1445.18 0 1436.84 .13 1428.62 1.56 1420.64 4.24 891.13 228.29 879.41 233.64 868.03 239.7 857 246.35 846.41 253.71 836.25 261.61 826.6 270.16 817.45 279.18 808.86 288.77 241.41 957.38 236.49 964.1 232.62 971.58 230 979.49 228.58 987.71 228.39 996.06 229.44 1004.34 231.76 1012.37 235.29 1019.97 239.91 1026.95 245.52 1033.11 251.99 1038.41 259.21 1042.65 267 1045.7 275.11 1047.63 283.44 1048.25 1387.01 1048.25 1398.53 1047.63 1409.92 1045.82 1421.07 1042.83 1431.85 1038.73 1442.19 1033.5 1451.85 1027.2 1460.82 1019.92 1468.98 1011.76 1476.26 1002.78 1482.56 993.07 1487.79 982.79 1491.96 972 1494.95 960.86 1496.75 949.4 1497.32 937.89 1497.32 55.07 1496.69 46.72 1494.82 38.56 1491.71 30.85 1487.47 23.62 1482.24 17.14 1476.03 11.54 1469.1 6.92 1461.51 3.37 1453.47 1.07 1445.18 0"/>
</svg>