<?xml version="1.0" encoding="UTF-8"?>
<svg id="Layer_1" data-name="Layer 1" xmlns="http://www.w3.org/2000/svg" viewBox="0 0 1920 543.45">
  <defs>
    <style>
      .cls-1 {
        fill: #fff;
      }
    </style>
  </defs>
  <path class="cls-1" d="M1193.4,0h-98.66c-56.27,143.91-180.91,466.2-183.44,473.87h85.88c4.6-11.85,21.61-54.82,39.36-100.21h215.07c17.74,45.39,34.76,88.36,39.36,100.21h85.88c-2.53-7.68-127.18-329.97-183.44-473.87Zm-49.33,298.28h-78.92l78.92-207.98,78.92,207.98h-78.92Z"/>
  <path class="cls-1" d="M209.19,0H0V473.64H79.63v-167.43H215.22c63.48-3,119.86-49.31,136.82-109.12C379.94,98.75,312.06,3.42,209.19,0Zm64.91,175.63c-8.39,29.57-36.26,52.47-67.64,53.95H80.41V78.19h123.08c50.86,1.69,84.42,48.82,70.62,97.44Z"/>
  <path class="cls-1" d="M1920,247.06c0-136.45-111.84-247.06-249.79-247.06s-249.79,110.61-249.79,247.06,111.84,247.06,249.79,247.06c36.33,0,70.82-7.74,101.97-21.53,16.87,24.21,33.43,48.08,48.94,70.87,21.67-14.75,41.47-28.23,60.95-41.5-18.93-27.81-33.94-49.5-47.5-68.94,52.34-45.29,85.44-111.78,85.44-185.96Zm-249.79,166.82c-93.15,0-168.66-74.69-168.66-166.82s75.51-166.82,168.66-166.82,168.66,74.69,168.66,166.82c0,46.81-19.52,89.09-50.91,119.38-12.7-18.23-26.7-38.48-44.01-63.91l-60.95,41.5c13.43,19.73,27.56,40.16,41.93,60.82-17.17,5.82-35.56,9.03-54.72,9.03Z"/>
  <g>
    <path class="cls-1" d="M462.92,84.23c0-12.55,0-41.76,0-41.76,51.77,0,75.94-.25,118.39-7.91,26.88-4.85,52.58-13.69,78.7-21.36C704.96,0,725.95,.51,759.59,0h62.64V84h-52.73c-46.08,0-66.88,5.16-108.13,14.42-53.31,11.97-96.87,28.18-163.06,28.11h-35.38s0-29.76,0-42.3Z"/>
    <path class="cls-1" d="M462.92,257.83c0-11.92,0-29.82,0-41.73,43.28,0,86.77-2.08,129.01-12.18,42.46-10.15,84.35-21.85,127.8-27.75,18.95-2.57,54.27-2.57,54.27-2.57,0,0,0,83.9,0,83.9,0,0-6.09,.3-13.54,.67-22.96,1.13-45.86,3.63-68.48,7.66-31.42,5.59-60.16,12.47-90.94,19.85-45.89,11-75.82,14.45-138.11,14.45,0,0,0-42.3,0-42.3Z"/>
    <path class="cls-1" d="M462.92,431.42c0-12.55,0-41.76,0-41.76,51.77,0,75.94-.25,118.39-7.91,26.88-4.85,52.58-13.69,78.7-21.36,44.95-13.2,65.94-12.69,99.58-13.2h62.64v84h-52.73c-46.08,0-66.88,5.16-108.13,14.42-53.31,11.97-96.87,28.18-163.06,28.11h-35.38s0-29.76,0-42.3Z"/>
  </g>
</svg>