<svg width="159" height="51" viewBox="0 0 159 51" fill="none" xmlns="http://www.w3.org/2000/svg">
<g id="Remarkable Cream">
<path id="RemarkableCream_Logo_Colour 1 (Traced)" fill-rule="evenodd" clip-rule="evenodd" d="M0.277535 1.64932V2.59124H0.706256C1.03172 2.59124 1.15382 2.66839 1.21321 2.9121C1.25621 3.08865 1.27362 9.29732 1.2519 16.7093L1.21235 30.1856L0.744943 30.2303L0.277535 30.2751V31.1929C0.277535 32.2892 -0.107321 32.2263 3.87298 31.781L6.67742 31.4671L6.71999 30.5858L6.76256 29.7045L6.21663 29.6598L5.6707 29.6152L5.63345 22.2353L5.5962 14.8554L5.99299 14.8539C6.21116 14.853 6.62723 14.8133 6.9176 14.7657L7.44541 14.6792L8.04642 16.5855C8.37691 17.634 9.65171 21.6364 10.8791 25.4796C12.1064 29.3229 13.143 32.5797 13.1827 32.7169C13.2381 32.9091 13.1683 32.9665 12.8784 32.9665C12.5107 32.9665 12.502 32.988 12.502 33.9021V34.8379L13.1852 34.7435C14.0347 34.626 15.0667 34.1491 16.0975 33.3977C16.6667 32.9827 17.1304 32.7762 17.7514 32.6613C18.226 32.5734 18.6953 32.4798 18.7941 32.4532C18.9101 32.4221 18.9738 32.1278 18.9738 31.623V30.8409L18.075 30.7986L17.1761 30.7561L16.6998 29.33C15.5628 25.926 11.9268 14.6034 11.9268 14.4668C11.9268 14.3842 12.1487 14.2754 12.4201 14.225C13.9893 13.933 16.1648 12.2707 16.8833 10.8145C17.2899 9.99039 17.6731 8.39077 17.677 7.50176C17.6875 5.04892 16.3296 2.71445 14.3245 1.73817C12.6699 0.932581 11.9731 0.853433 5.85047 0.776996L0.277535 0.707403V1.64932ZM20.5558 1.45039C20.5558 2.11593 20.5798 2.16342 20.9154 2.16342H21.2749V11.9203C21.2749 17.2866 21.2357 21.7787 21.1876 21.9028C21.1396 22.0268 20.9778 22.1284 20.8281 22.1284C20.5968 22.1284 20.5558 22.237 20.5558 22.8501V23.5717L21.5266 23.4874C22.548 23.3987 29.221 22.9857 29.6511 22.9847C29.8256 22.9841 30.141 22.5105 30.6911 21.4232L31.4805 19.8622L31.0318 19.5453L30.5829 19.2285L30.2076 19.6658C30.0011 19.9063 29.6832 20.1776 29.5013 20.2689C29.2177 20.4111 26.0546 20.6899 24.6187 20.6993L24.1513 20.7023V15.5685V10.4346L25.4456 10.4069C26.1575 10.3917 26.9494 10.3756 27.2054 10.3713C27.5612 10.3652 27.6831 10.4305 27.7227 10.6485C27.8038 11.0939 27.9568 11.175 28.519 11.0704L29.0411 10.9732V8.99271V7.01205H28.4034C27.8147 7.01205 27.7624 7.04214 27.7203 7.40422L27.6748 7.79638L25.913 7.83646L24.1513 7.87653V5.577V3.27746L26.2486 3.32652L28.346 3.37558L28.7526 3.82707C29.139 4.25603 29.1883 4.27129 29.7389 4.13268L30.3186 3.98679L29.5029 2.36207L28.6873 0.737351H24.6216H20.5558V1.45039ZM63.4135 1.35612C63.4135 1.83856 63.3335 2.08356 63.1083 2.29162L62.803 2.57356L63.8422 9.39187C64.4137 13.142 64.924 16.499 64.9762 16.8519C65.0398 17.2827 65.1413 17.4936 65.2849 17.4936C65.4149 17.4936 65.4849 17.3816 65.4633 17.2084C65.3772 16.5176 63.5355 4.43486 63.4044 3.70172C63.2726 2.96344 63.2864 2.85991 63.552 2.59652C63.9115 2.24 63.9604 1.15262 63.6292 0.879958C63.4428 0.726513 63.4135 0.791257 63.4135 1.35612ZM68.5909 1.29779C68.5909 1.77054 68.6417 1.86551 68.9145 1.90387L69.2381 1.94951V9.72158V17.4936L68.9145 17.5393C68.6417 17.5776 68.5909 17.6726 68.5909 18.1454V18.7058H70.7482H72.9055V18.1354C72.9055 17.622 72.8695 17.5649 72.5459 17.5649H72.1864V13.2867V9.00854H72.7616C73.078 9.00854 73.3369 9.03407 73.3369 9.06516C73.3369 9.09639 73.9841 10.9992 74.7751 13.2939C75.5661 15.5884 76.2133 17.4881 76.2133 17.5153C76.2133 17.5427 76.0838 17.5649 75.9256 17.5649C75.6859 17.5649 75.638 17.6601 75.638 18.1354V18.7058H77.7953H79.9525V18.1354C79.9525 17.688 79.8982 17.5645 79.7008 17.5628C79.5625 17.5615 79.3708 17.5112 79.275 17.4509C79.1791 17.3904 78.4787 15.5234 77.7185 13.302C76.9582 11.0805 76.3059 9.18466 76.2688 9.08883C76.2275 8.9823 76.4411 8.84354 76.8186 8.73174C78.3979 8.26385 79.3611 7.38739 79.7487 6.06557C80.3418 4.04269 79.4828 2.1262 77.6168 1.30892C76.6663 0.89265 75.0463 0.739632 71.5751 0.738492L68.5909 0.737351V1.29779ZM94.7036 0.891793C94.6642 1.00288 94.6136 1.35056 94.591 1.6643C94.5516 2.21276 94.5251 2.24071 93.9028 2.38916C93.3366 2.52421 93.0989 2.72058 92.003 3.95784C91.3141 4.73562 90.5831 5.60452 90.3783 5.88859L90.0062 6.40511L90.3671 7.31466C90.8769 8.59997 93.6834 16.1035 93.8899 16.7336C94.0974 17.3669 94.4781 17.7509 94.4781 17.3269C94.4781 17.1769 93.6418 14.8427 92.6196 12.14C91.5973 9.43722 90.723 7.06553 90.6766 6.86944C90.6074 6.57767 90.7913 6.26664 91.6886 5.15816C93.2611 3.21529 93.4715 3.01849 94.1742 2.83182C94.9611 2.6229 95.2651 2.20592 95.1489 1.49559C95.0514 0.899638 94.8145 0.578486 94.7036 0.891793ZM109.39 0.830045C109.336 0.883665 109.291 1.20196 109.291 1.53738C109.291 1.97261 109.214 2.20107 109.021 2.33498C108.759 2.51666 108.789 2.77092 109.92 10.1488C110.908 16.5908 111.126 17.7821 111.33 17.8209C111.497 17.8529 111.553 17.7887 111.513 17.6089C111.482 17.4671 110.961 14.102 110.357 10.131L109.257 2.91096L109.582 2.47487C109.838 2.13233 109.889 1.92498 109.82 1.50743C109.728 0.944701 109.553 0.668471 109.39 0.830045ZM114.613 1.28068C114.613 1.77125 114.661 1.86523 114.936 1.90387L115.26 1.94951L115.297 10.0424L115.334 18.1354H114.973C114.651 18.1354 114.613 18.1934 114.613 18.6836V19.2319L116.662 19.3249C120.123 19.4819 122.542 19.4401 123.323 19.2099C124.963 18.7269 125.998 17.6558 126.561 15.8597C127.445 13.0365 126.815 9.72243 125.064 7.98591C124.481 7.40807 124.427 7.30396 124.622 7.14325C125.02 6.81525 125.401 5.89316 125.491 5.03752C125.684 3.21172 124.685 1.73902 122.86 1.15576C121.983 0.875538 121.478 0.833611 118.244 0.772148L114.613 0.703125V1.28068ZM134.54 0.891793C134.501 1.00288 134.45 1.41416 134.428 1.80576C134.393 2.42311 134.335 2.54247 133.993 2.70447L133.598 2.89128L133.681 11.5472C133.727 16.308 133.789 20.2835 133.82 20.3814C133.85 20.4795 133.942 20.5597 134.024 20.5597C134.124 20.5597 134.172 17.7817 134.172 11.9892V3.41864L134.621 3.0028C135.041 2.61391 135.066 2.53548 135.004 1.79963C134.937 0.996754 134.682 0.497058 134.54 0.891793ZM141.506 1.59299V2.44863H141.993H142.479L142.577 9.32941C142.632 13.1139 142.655 18.7771 142.631 21.9145L142.585 27.6187L142.118 27.6634L141.65 27.7081V28.538V29.3678L142.765 29.4666C144.136 29.5881 153.7 30.5058 154.76 30.6175L155.529 30.6985L156.638 28.8021L157.747 26.9057L157.213 26.4444C156.919 26.1907 156.631 25.982 156.573 25.9809C156.514 25.9797 156.173 26.2008 155.814 26.472C155.456 26.7433 154.922 27.0101 154.628 27.0647C154.178 27.1485 150.828 26.9241 147.655 26.5974L146.828 26.5124V19.8639V13.2154L148.59 13.2615C149.558 13.2867 150.772 13.3509 151.286 13.4041C152.212 13.4998 152.221 13.5048 152.266 13.9641C152.309 14.4058 152.339 14.4277 152.913 14.4296C153.244 14.4306 153.661 14.4702 153.839 14.5174L154.162 14.6034V11.8774C154.162 9.31443 154.146 9.15115 153.895 9.15115C153.748 9.15115 153.327 9.11036 152.96 9.06045L152.293 8.96975V9.47301C152.293 9.76735 152.211 10.0074 152.096 10.0511C151.988 10.0924 150.758 10.0895 149.363 10.0449L146.828 9.96358V6.97226V3.98094L149.668 4.04768C152.816 4.12184 153.282 4.22751 153.897 5.00714L154.256 5.46106L155.036 5.25912C155.562 5.12294 155.801 4.99259 155.769 4.8594C155.743 4.75073 155.225 3.78001 154.618 2.70219L153.515 0.742628L147.511 0.739919L141.506 0.737351V1.59299ZM33.883 0.975078C33.8302 1.02727 33.7871 1.28396 33.7871 1.5455C33.7871 1.95778 33.8348 2.02081 34.1478 2.02081H34.5084L34.4713 10.2564L34.4342 18.4919L34.1106 18.5375C33.8378 18.5759 33.7871 18.6709 33.7871 19.1436V19.704L34.7578 19.7032C35.2917 19.7028 36.2624 19.6611 36.9151 19.6108L38.1016 19.5192V18.9699C38.1016 18.4791 38.0633 18.4206 37.742 18.4206H37.3825V12.2647C37.3825 8.87906 37.4156 6.14172 37.4561 6.18193C37.4965 6.22201 38.2966 7.46511 39.2339 8.94423C40.1711 10.4233 40.9956 11.6526 41.066 11.6759C41.1364 11.6991 41.9967 10.434 42.978 8.86437C43.9591 7.29484 44.7716 6.02749 44.7831 6.04788C44.7947 6.06842 44.7777 8.79278 44.7454 12.1023L44.6867 18.1195L44.3784 18.163C44.1352 18.1974 44.0605 18.3205 44.0251 18.7452L43.9803 19.2838L46.1824 19.2443L48.3845 19.2049V18.6372C48.3845 18.1274 48.3479 18.0692 48.025 18.0668C47.6964 18.0644 47.6611 18.0026 47.6161 17.351C47.5891 16.9589 47.613 13.3492 47.6692 9.32941L47.7716 2.02081H48.114C48.4176 2.02081 48.4565 1.95621 48.4565 1.45039V0.879958H46.747H45.0376L43.2035 3.69644C42.1946 5.24558 41.2975 6.58779 41.2096 6.6792C41.0905 6.80313 40.5558 6.0871 39.1083 3.86571L37.1668 0.885949L35.5728 0.882952C34.6961 0.881384 33.9356 0.922741 33.883 0.975078ZM48.8858 1.41473C48.8832 2.01497 48.7846 2.21447 48.4254 2.34567C48.1972 2.4291 48.1756 3.00337 48.1378 9.96486C48.1153 14.1056 48.1211 17.5766 48.1506 17.6779C48.18 17.7793 48.2771 17.8382 48.3663 17.8087C48.4831 17.77 48.5387 15.6631 48.5656 10.2608C48.6016 3.01678 48.6119 2.76408 48.8778 2.69506C49.3901 2.56229 49.5838 0.879958 49.0868 0.879958C48.9532 0.879958 48.8872 1.05551 48.8858 1.41473ZM54.4509 0.972937C54.3971 1.02641 54.353 1.28396 54.353 1.5455C54.353 1.92569 54.4105 2.02081 54.6406 2.02081C54.8335 2.02081 54.9283 2.11593 54.9283 2.3093C54.9283 2.77506 52.6466 17.7037 52.5522 17.855C52.5051 17.9307 52.3085 17.9928 52.1153 17.9928C51.8017 17.9928 51.7643 18.0535 51.7643 18.5632V19.1336L53.4541 19.1321C54.3835 19.1312 55.3901 19.0901 55.6908 19.0409C56.2171 18.9546 56.236 18.9321 56.1941 18.4364C56.1596 18.027 56.0844 17.9121 55.8271 17.8758C55.6492 17.8509 55.5035 17.8004 55.5035 17.7639C55.5035 17.6223 56.8056 9.20463 56.8744 8.90159C56.9449 8.59085 57.0011 8.58072 58.6638 8.58072H60.3802L60.4621 9.04419C60.5955 9.80015 61.6628 16.8861 61.7131 17.351C61.7514 17.7031 61.7024 17.787 61.436 17.8245C61.1609 17.8631 61.1124 17.957 61.1124 18.4518V19.0337L62.4289 18.9411C63.1529 18.89 64.1237 18.8484 64.5862 18.8484H65.4269V18.278C65.4269 17.7657 65.3906 17.7076 65.0701 17.7076C64.8186 17.7076 64.6907 17.6129 64.6368 17.3867C64.5948 17.2101 64.0748 13.8572 63.4814 9.93549C62.888 6.0138 62.3659 2.6286 62.3212 2.41298C62.249 2.06388 62.2818 2.02081 62.6198 2.02081C62.9705 2.02081 62.996 1.98017 62.9547 1.48604L62.9101 0.951262L58.7295 0.913471C56.4303 0.892793 54.5049 0.919459 54.4509 0.972937ZM83.2603 1.45039C83.2603 1.96434 83.2961 2.02081 83.6212 2.02081H83.9819L83.9448 9.82853L83.9075 17.6362L83.5839 17.6819C83.3111 17.7202 83.2603 17.8152 83.2603 18.288V18.8484H85.4176H87.5749V18.278C87.5749 17.7646 87.5389 17.7076 87.2153 17.7076H86.8558V13.3802C86.8558 9.24912 86.8687 9.0412 87.1404 8.79734C87.4144 8.55149 87.4287 8.55206 87.5227 8.81089C87.5764 8.95877 87.745 9.40071 87.8974 9.79288C88.5924 11.5813 90.7389 17.4626 90.7389 17.5784C90.7389 17.6494 90.6418 17.7076 90.5231 17.7076C90.3674 17.7076 90.3074 17.866 90.3074 18.278V18.8484H92.4647H94.6219V18.278C94.6219 17.7667 94.5851 17.7076 94.2674 17.7076C94.0725 17.7076 93.8528 17.5952 93.7793 17.458C93.3322 16.6227 89.5872 6.27278 89.6778 6.12275C89.9336 5.69893 92.6341 2.59195 92.9834 2.31943C93.1941 2.15515 93.5518 2.02081 93.7784 2.02081C94.1633 2.02081 94.1905 1.98316 94.1905 1.45039V0.879958H91.8894H89.5883V1.49659C89.5883 2.05761 89.4901 2.22759 88.4965 3.38613C86.6806 5.50313 86.8558 5.47803 86.8558 3.62114V2.02081H87.2153C87.5389 2.02081 87.5749 1.96377 87.5749 1.45039V0.879958H85.4176H83.2603V1.45039ZM88.0063 1.42814C88.0063 1.86836 87.9235 2.06473 87.6468 2.2805C87.3607 2.50368 87.2877 2.68793 87.2894 3.1822C87.2907 3.52389 87.3449 3.88668 87.41 3.98836C87.6212 4.31849 87.8913 3.81538 87.7906 3.27946C87.7149 2.87617 87.7513 2.78376 88.0336 2.66254C88.3221 2.53876 88.3659 2.41826 88.3659 1.74743C88.3659 1.2563 88.3004 0.953401 88.1861 0.91561C88.0623 0.874682 88.0063 1.03397 88.0063 1.42814ZM100.375 1.45039C100.375 1.92569 100.423 2.02081 100.662 2.02081C100.82 2.02081 100.949 2.06901 100.947 2.12777C100.937 2.56044 98.6544 17.5833 98.5814 17.7006C98.53 17.7828 98.3261 17.8502 98.1283 17.8502C97.8006 17.8502 97.7725 17.8976 97.8132 18.3849L97.8578 18.9197L100.06 18.9591L102.262 18.9986L102.217 18.4599C102.181 18.0229 102.11 17.9128 101.842 17.875C101.533 17.8316 101.518 17.783 101.61 17.1619C101.665 16.7953 101.976 14.7306 102.302 12.5737L102.893 8.65203L104.534 8.61153C105.437 8.58914 106.228 8.6235 106.293 8.68768C106.357 8.75185 106.704 10.7272 107.062 13.0777C107.421 15.428 107.747 17.4954 107.787 17.6719C107.847 17.9386 107.797 17.9928 107.496 17.9928C107.172 17.9928 107.134 18.0501 107.134 18.5417V19.0906L108.536 19.1827C109.307 19.2333 110.278 19.2751 110.694 19.2755L111.449 19.2762V18.7158C111.449 18.2516 111.396 18.1474 111.14 18.1097C110.97 18.0846 110.779 17.9678 110.716 17.8502C110.617 17.6643 108.285 2.64628 108.285 2.19165C108.285 2.09768 108.414 2.02081 108.572 2.02081C108.812 2.02081 108.86 1.92569 108.86 1.45039V0.879958H104.617H100.375V1.45039ZM129.138 1.58957C129.138 2.24941 129.165 2.30603 129.481 2.30603H129.824L129.922 7.76073C129.976 10.7609 130 15.1395 129.975 17.4909L129.929 21.7666L129.57 21.7691C129.243 21.7716 129.206 21.8342 129.166 22.4492C129.126 23.0738 129.148 23.1266 129.454 23.1273C129.998 23.1283 136.623 23.5397 137.499 23.6269L138.31 23.7076L139.119 22.2725C139.563 21.4832 139.943 20.778 139.962 20.7056C139.981 20.633 139.775 20.4214 139.504 20.2351L139.012 19.8967L138.641 20.307C138.043 20.969 137.014 21.0671 133.92 20.7573L133.165 20.6818V11.4939V2.30603H133.604C134.039 2.30603 134.043 2.29847 134 1.62864L133.956 0.951262L131.547 0.912187L129.138 0.873112V1.58957ZM68.4471 2.44863C68.4471 2.52707 68.5766 2.59124 68.7347 2.59124C68.893 2.59124 69.0224 2.52707 69.0224 2.44863C69.0224 2.3702 68.893 2.30603 68.7347 2.30603C68.5766 2.30603 68.4471 2.3702 68.4471 2.44863ZM83.1165 2.50953C83.1165 2.64172 83.2395 2.73385 83.4161 2.73385C83.7666 2.73385 83.7171 2.40057 83.3563 2.33127C83.2143 2.30389 83.1165 2.37662 83.1165 2.50953ZM114.5 2.47059C114.535 2.57627 114.68 2.68465 114.821 2.71188C114.985 2.74326 115.054 2.69192 115.013 2.56928C114.977 2.4636 114.833 2.35523 114.692 2.32799C114.528 2.29661 114.459 2.34795 114.5 2.47059ZM33.6432 2.57598C33.6432 2.646 33.7456 2.74226 33.8708 2.78989C34.1922 2.91225 34.2185 2.90255 34.2185 2.66254C34.2185 2.54375 34.0907 2.44863 33.9309 2.44863C33.7727 2.44863 33.6432 2.50596 33.6432 2.57598ZM20.4787 2.74226C20.4218 2.83367 20.4644 2.9643 20.5734 3.03275C20.8774 3.2237 21.013 3.18577 20.9618 2.92394C20.904 2.62803 20.6171 2.52008 20.4787 2.74226ZM128.994 2.93735C128.994 3.06954 129.117 3.16167 129.294 3.16167C129.644 3.16167 129.595 2.82839 129.234 2.75909C129.092 2.73171 128.994 2.80444 128.994 2.93735ZM75.9728 3.07097C76.6121 3.33579 76.9825 3.94215 76.9945 4.74303C77.0067 5.56359 76.7366 6.07626 76.0785 6.48198C75.642 6.75108 75.3156 6.80541 73.8762 6.84862L72.1864 6.89953V4.88792V2.87645H73.8449C74.9201 2.87645 75.6685 2.9449 75.9728 3.07097ZM121.148 3.00908C122.446 3.22028 123.015 4.31493 122.445 5.50541C122.172 6.07669 121.572 6.41552 119.682 7.06567L118.208 7.57292V5.22462V2.87645L119.323 2.88501C119.936 2.88957 120.757 2.94547 121.148 3.00908ZM59.5402 3.05471C59.5457 3.07425 59.6639 3.84432 59.8028 4.76599L60.0558 6.44162H58.6265H57.1973L57.2798 5.97815C57.3253 5.72331 57.4393 4.95323 57.5334 4.26687L57.7044 3.01906H58.6175C59.1195 3.01906 59.5349 3.03517 59.5402 3.05471ZM80.1824 3.13899C80.1396 3.20759 80.1675 3.48096 80.2443 3.7465C80.835 5.78877 79.7903 7.88651 77.7234 8.80861C77.2488 9.02024 76.841 9.20862 76.8173 9.22702C76.7936 9.24541 77.3189 10.8563 77.985 12.8067C78.651 14.757 79.2583 16.5453 79.3344 16.7806C79.4106 17.0159 79.5773 17.2285 79.7047 17.2531C79.8844 17.2876 79.6472 16.4384 78.6501 13.4768C77.9427 11.3755 77.365 9.62275 77.3663 9.58196C77.3676 9.54103 77.7262 9.35422 78.1631 9.16655C79.8005 8.46364 80.8163 6.91237 80.8146 5.11709C80.8134 3.84932 80.4494 2.71046 80.1824 3.13899ZM105.555 3.12601C105.556 3.18477 105.652 3.84261 105.768 4.58773C106.084 6.62444 106.198 6.44162 104.617 6.44162C103.476 6.44162 103.251 6.40497 103.251 6.21944C103.251 6.01295 103.448 4.55707 103.621 3.48253L103.696 3.01906H104.624C105.134 3.01906 105.553 3.06726 105.555 3.12601ZM125.783 3.48253C125.849 3.73737 125.9 4.39521 125.898 4.94425C125.895 5.78264 125.826 6.06172 125.469 6.68633C125.123 7.29284 125.078 7.46397 125.229 7.61328C125.38 7.76244 125.466 7.73022 125.694 7.43987C126.359 6.59193 126.64 4.30922 126.186 3.43975C125.885 2.86148 125.63 2.88843 125.783 3.48253ZM73.656 3.26363L72.6088 3.31697L72.6493 4.97463C72.6778 6.14429 72.7427 6.64968 72.8695 6.69147C73.0061 6.73639 73.0493 6.36789 73.0493 5.1546V3.55868L74.4875 3.66079C75.4604 3.72981 75.9256 3.71441 75.9256 3.6133C75.9256 3.29372 75.2147 3.1842 73.656 3.26363ZM141.363 3.36602C141.363 3.57437 141.895 3.82179 142.038 3.6799C142.082 3.63697 142.079 3.50278 142.032 3.38171C141.925 3.10434 141.363 3.09108 141.363 3.36602ZM0.0482909 3.46855C-0.0810012 3.67605 0.381803 4.02344 0.65103 3.9209C0.933056 3.81366 0.902422 3.62585 0.574662 3.45187C0.223459 3.26548 0.173844 3.26705 0.0482909 3.46855ZM58.1847 3.4138C58.0799 3.58221 57.8071 5.27367 57.8058 5.76424C57.805 6.00738 57.8817 6.15641 58.0077 6.15641C58.2066 6.15641 58.2487 5.99526 58.4643 4.40947C58.5507 3.77388 58.5828 3.73209 58.9835 3.73209C59.5967 3.73209 59.4187 3.38627 58.7777 3.33208C58.4945 3.30827 58.2277 3.34492 58.1847 3.4138ZM104.154 3.4898C103.978 3.75805 103.708 5.92838 103.833 6.06557C104.058 6.31242 104.24 5.99084 104.327 5.19153C104.482 3.77345 104.515 3.69359 104.902 3.78999C105.26 3.87912 105.526 3.67819 105.263 3.51718C104.971 3.3385 104.264 3.32096 104.154 3.4898ZM118.671 5.18212C118.7 6.52847 118.762 7.07679 118.891 7.11915C119.028 7.16435 119.071 6.76648 119.071 5.43582V3.69316L120.443 3.76432C121.394 3.81366 121.798 3.78799 121.762 3.68075C121.681 3.43961 121.115 3.33394 119.822 3.31853L118.631 3.30427L118.671 5.18212ZM30.6231 3.93759C30.6231 4.34773 30.5107 4.43029 29.6621 4.64506C28.8796 4.843 28.7937 5.07217 29.4806 5.1295C30.465 5.21149 31.3419 4.54766 31.1287 3.88169C30.9966 3.46898 30.6231 3.5102 30.6231 3.93759ZM24.6144 5.68124C24.6431 6.97041 24.7061 7.50475 24.8344 7.54711C24.9713 7.59217 25.0142 7.21027 25.0142 5.94378V4.28127L26.6672 4.3165C27.5764 4.33589 28.3674 4.30509 28.4248 4.24804C28.6739 4.00119 27.9873 3.87898 26.3402 3.87684L24.5741 3.8747L24.6144 5.68124ZM11.4338 4.45639C12.9413 4.92286 13.6983 7.34475 12.8807 9.08569C12.1566 10.6277 11.017 11.1133 7.81459 11.2442L5.59879 11.3349V7.82377V4.3125L7.07292 4.25945C8.93608 4.19243 10.8617 4.27942 11.4338 4.45639ZM17.9723 4.68428C17.975 4.74888 18.0711 5.18668 18.1857 5.65728C18.7807 8.10042 18.1475 10.8378 16.5903 12.5552C15.9163 13.2986 14.5028 14.2637 13.5134 14.6563C13.1836 14.7871 12.9335 14.9822 12.9335 15.1084C12.9335 15.2306 13.9043 18.3275 15.0908 21.9905C16.2773 25.6535 17.248 28.6886 17.248 28.7353C17.248 28.782 17.3821 29.1756 17.546 29.6098C17.8288 30.3592 18.2547 30.6906 18.2547 30.1614C18.2547 29.9853 13.9401 16.5159 13.5502 15.475C13.5161 15.3841 13.6802 15.2686 13.9166 15.2171C14.1522 15.1657 14.723 14.8991 15.1852 14.6244C17.326 13.3522 18.6222 11.3661 18.9809 8.80889C19.2088 7.18418 18.7607 4.71836 18.2188 4.61483C18.0804 4.58845 17.9694 4.61968 17.9723 4.68428ZM156.559 4.68285C156.507 4.73505 156.464 4.92614 156.464 5.10739C156.464 5.54776 155.962 5.85094 154.97 6.01123C153.931 6.1788 153.753 6.28561 154.096 6.53474C154.936 7.14382 157.183 6.25723 157.183 5.3166C157.183 4.79908 156.817 4.4273 156.559 4.68285ZM147.579 7.09918C147.615 9.25796 147.645 9.50895 147.87 9.55202C148.101 9.59594 148.122 9.42096 148.122 7.45484V5.30961L150.231 5.37435C151.391 5.40986 152.458 5.47603 152.601 5.52124C152.745 5.56644 152.971 5.5432 153.103 5.46976C153.315 5.35239 153.295 5.30447 152.944 5.07659C152.608 4.85797 152.151 4.80749 150.042 4.75572L147.54 4.69426L147.579 7.09918ZM7.95812 4.97905L6.50642 5.02511L6.42545 7.26632C6.33355 9.81185 6.42358 10.7911 6.74933 10.7911C6.93184 10.7911 6.9711 10.3881 7.00432 8.17586L7.04358 5.56045L9.27319 5.60894C11.1949 5.65058 11.497 5.62776 11.4614 5.44337C11.4086 5.17142 10.5683 4.88236 9.91332 4.91102C9.63647 4.92314 8.75659 4.95381 7.95812 4.97905ZM29.5265 9.00826C29.5142 10.4841 29.453 11.213 29.3291 11.361C29.2144 11.4982 28.8971 11.5755 28.4483 11.5755C27.9489 11.5755 27.7467 11.6319 27.7467 11.7715C27.7467 12.1828 29.3881 12.1438 29.8137 11.7222C29.9923 11.5454 30.1362 7.80851 29.9871 7.2194C29.9384 7.02688 29.8188 6.86958 29.7215 6.86958C29.59 6.86973 29.5398 7.4199 29.5265 9.00826ZM37.8139 13.0015C37.8139 17.4698 37.8419 18.1354 38.0297 18.1354C38.2175 18.1354 38.2454 17.4698 38.2454 13.0015C38.2454 8.53323 38.2175 7.86769 38.0297 7.86769C37.8419 7.86769 37.8139 8.53323 37.8139 13.0015ZM43.5222 8.83028C43.1824 9.35964 42.5933 10.2907 42.213 10.8992C41.7491 11.6422 41.409 12.0338 41.178 12.0913C40.7563 12.1962 40.7343 12.3805 41.1288 12.5047C41.5628 12.6412 42.013 12.2808 42.5857 11.3385C42.864 10.8805 43.425 9.96586 43.8324 9.30588C44.6345 8.00673 44.6853 7.86769 44.3567 7.86769C44.2376 7.86769 43.8621 8.30093 43.5222 8.83028ZM122.733 9.27037C124.29 10.1725 124.545 14.5485 123.147 16.3886C122.507 17.2314 122.085 17.3378 119.538 17.2997L118.208 17.2797V13.5838V9.888L119.682 9.38189C121.282 8.83271 121.935 8.80889 122.733 9.27037ZM154.986 8.95307C154.928 9.00968 154.882 10.2997 154.882 11.8196C154.882 14.5813 154.881 14.5835 154.52 14.9417C154.179 15.2794 154.1 15.2944 153.154 15.202C152.292 15.1177 152.149 15.1358 152.149 15.3294C152.149 15.4686 152.356 15.6119 152.688 15.7035C153.831 16.0182 155.221 15.7955 155.389 15.2707C155.46 15.0475 155.523 10.7311 155.471 9.64186C155.454 9.27807 155.126 8.8136 154.986 8.95307ZM57.3005 9.1868C57.245 9.34224 56.1234 16.5959 56.0387 17.3475C56.0205 17.5078 56.1044 17.6485 56.2331 17.6739C56.4234 17.7117 56.5599 17.0628 57.0937 13.5827L57.7284 9.44649L58.9413 9.40585C59.7532 9.37847 60.1741 9.30616 60.214 9.1868C60.259 9.05204 59.9184 9.00854 58.8188 9.00854C57.7849 9.00854 57.3457 9.06017 57.3005 9.1868ZM103.334 9.13375C103.232 9.29675 102.101 16.8031 102.101 17.3154C102.1 17.5689 102.177 17.7076 102.316 17.7076C102.435 17.7076 102.532 17.6441 102.532 17.5665C102.532 17.4889 102.791 15.7082 103.107 13.6092C103.423 11.5103 103.682 9.71273 103.682 9.61462C103.682 9.48528 104.037 9.43636 104.977 9.43636C106.176 9.43636 106.591 9.30359 106.044 9.0951C105.691 8.96077 103.421 8.99314 103.334 9.13375ZM72.6178 13.2867C72.6178 16.703 72.6483 17.2797 72.8291 17.2797C73.0086 17.2797 73.0463 16.6978 73.0808 13.3937C73.119 9.71345 73.0835 9.30317 72.7257 9.2959C72.6663 9.29476 72.6178 11.0906 72.6178 13.2867ZM121.156 9.39058C120.998 9.42566 120.367 9.61604 119.754 9.81356L118.639 10.1728V13.4949C118.639 16.2552 118.675 16.8466 118.852 16.9922C119.039 17.1461 119.07 16.7615 119.104 13.8499L119.143 10.5322L120.15 10.1873C120.703 9.99766 121.448 9.81812 121.803 9.78846C122.159 9.75865 122.483 9.72942 122.523 9.72343C122.562 9.71744 122.469 9.61833 122.315 9.5031C122.04 9.29661 121.72 9.26566 121.156 9.39058ZM87.3207 13.6671C87.3486 16.3288 87.4056 17.3428 87.5293 17.3836C87.6563 17.4255 87.7109 16.578 87.745 14.0441C87.7953 10.2979 87.7765 10.0068 87.4838 10.0068C87.3154 10.0068 87.2887 10.6063 87.3207 13.6671ZM126.981 10.1137C126.981 10.1726 127.077 10.6701 127.194 11.2189C127.744 13.7927 127.153 16.7284 125.783 18.2326C124.46 19.6841 123.149 19.9443 118.086 19.7601C116.16 19.6901 114.558 19.6764 114.524 19.7299C114.371 19.9766 115.063 20.0671 118.208 20.212C122.003 20.3867 123.356 20.2933 124.495 19.7781C126.119 19.0441 127.32 17.4302 127.706 15.4656C127.947 14.2329 127.822 11.4063 127.491 10.6129C127.269 10.0834 126.981 9.80101 126.981 10.1137ZM24.648 11.042C24.6099 11.1407 24.5957 13.2691 24.6167 15.7718C24.6456 19.23 24.6973 20.3362 24.8324 20.3809C24.9705 20.4264 25.0186 19.4272 25.0481 15.9006L25.0861 11.3616H26.2602C27.4479 11.3616 27.7089 11.2905 27.5369 11.0146C27.3954 10.7876 24.7368 10.8128 24.648 11.042ZM147.547 19.9607C147.547 25.8564 147.577 26.264 148.007 26.264C148.07 26.264 148.122 23.6257 148.122 20.4011V14.5384L149.992 14.6415C151.669 14.7341 151.861 14.7207 151.861 14.5113C151.861 14.1288 151.224 13.9998 149.335 13.9998H147.547V19.9607ZM6.43236 21.8979C6.3941 25.3791 6.39281 28.4306 6.42962 28.6789C6.47723 29.0002 6.56409 29.1175 6.73078 29.0857C6.94248 29.0452 6.96865 28.4229 7.00245 22.6312C7.02359 19.0192 7.09723 16.1647 7.17101 16.0915C7.38299 15.8813 7.17661 15.5685 6.82599 15.5685H6.50182L6.43236 21.8979ZM73.3369 18.0467C73.3369 19.0004 73.201 19.0545 70.6541 19.1132C68.6364 19.1597 68.0351 19.2718 68.6988 19.4777C68.8372 19.5207 69.7918 19.5261 70.8201 19.4897C71.8484 19.4533 72.8307 19.4225 73.0031 19.4213C73.1754 19.42 73.418 19.318 73.5424 19.1948C73.8847 18.8552 73.8224 17.4223 73.4653 17.4223C73.3947 17.4223 73.3369 17.7033 73.3369 18.0467ZM80.47 17.8145C80.5133 18.0301 80.4809 18.3832 80.3981 18.5988L80.2474 18.991H78.0983C76.9162 18.991 75.8471 19.0298 75.7226 19.0773C75.1138 19.3089 75.8739 19.4188 78.0832 19.4188C80.4294 19.4188 80.519 19.4081 80.7353 19.1018C81.1036 18.5805 81.002 17.4223 80.5879 17.4223C80.4501 17.4223 80.4148 17.5397 80.47 17.8145ZM65.9535 17.7704C65.9011 17.9056 65.8584 18.26 65.8584 18.5582C65.8584 19.2538 65.7889 19.2718 63.078 19.2742C61.436 19.2758 60.9584 19.3173 61.0044 19.4545C61.0942 19.722 65.6959 19.7821 66.0567 19.5204C66.4052 19.2678 66.5305 18.1622 66.2523 17.7945C66.0632 17.5444 66.0416 17.5427 65.9535 17.7704ZM88.0063 18.1118C88.0063 19.1716 88.1007 19.1336 85.4622 19.1336C83.6305 19.1336 83.1062 19.1741 83.1523 19.3119C83.236 19.5614 87.9501 19.6426 88.2455 19.3996C88.5046 19.1862 88.4553 17.688 88.1861 17.6C88.0624 17.5595 88.0063 17.719 88.0063 18.1118ZM95.0534 18.3443C95.0534 19.2496 94.884 19.3056 92.3111 19.2507C90.7949 19.2183 90.1633 19.2518 90.1634 19.3645C90.1634 19.4523 90.4063 19.5639 90.7029 19.6125C91.5559 19.7524 94.7091 19.7183 95.1159 19.565C95.4556 19.4369 95.4848 19.3578 95.4848 18.5668C95.4848 17.8981 95.4369 17.7076 95.2691 17.7076C95.1096 17.7076 95.0534 17.8734 95.0534 18.3443ZM56.6541 18.3985C56.6541 19.2888 56.4276 19.4161 54.8102 19.4355C54.0445 19.4446 52.9975 19.4931 52.4834 19.543C51.6141 19.6276 51.5721 19.6473 51.8848 19.8234C52.1474 19.9713 52.7086 19.9903 54.4472 19.9101C56.5494 19.8133 56.6853 19.7895 56.8882 19.4822C57.1413 19.0993 57.1029 17.9728 56.8338 17.885C56.71 17.8446 56.6541 18.0046 56.6541 18.3985ZM102.676 18.4749C102.676 19.422 102.501 19.4776 99.9174 19.3557C98.1166 19.2707 97.7859 19.2868 97.7859 19.4592C97.7859 19.7132 98.9254 19.8467 101.093 19.8467C102.947 19.8467 103.151 19.7212 103.08 18.6251C103.02 17.7123 102.676 17.5842 102.676 18.4749ZM48.8879 18.5241C48.8879 19.5738 48.7678 19.6269 46.2752 19.6779C44.1383 19.7219 43.3821 19.8663 44.2105 20.0725C44.4293 20.1269 45.5551 20.128 46.7121 20.075C48.6174 19.9877 48.8404 19.9499 49.0746 19.6745C49.2587 19.4579 49.3208 19.1855 49.2903 18.7283C49.2357 17.9101 48.8879 17.7335 48.8879 18.5241ZM111.981 18.2781C111.944 18.4742 111.913 18.8152 111.912 19.0359C111.911 19.2567 111.865 19.4813 111.81 19.5351C111.756 19.5888 110.649 19.6122 109.351 19.5871C107.768 19.5566 106.99 19.5908 106.99 19.6914C106.99 19.91 107.399 19.9626 109.763 20.0474C111.743 20.1186 111.908 20.1046 112.172 19.8427C112.51 19.507 112.554 18.6085 112.251 18.1984C112.054 17.9309 112.045 17.9336 111.981 18.2781ZM38.533 18.974C38.533 19.5177 38.4705 19.7271 38.2776 19.8295C38.1373 19.9041 37.0347 20.0117 35.8275 20.0687C34.3233 20.1396 33.6501 20.222 33.688 20.3302C33.7261 20.4398 34.4462 20.474 36.0302 20.4415C38.8733 20.3831 38.9974 20.3289 38.9354 19.1727C38.8789 18.1161 38.533 17.9454 38.533 18.974ZM31.9174 19.7641C31.9174 19.8756 31.5518 20.7151 31.1049 21.6297C30.5608 22.7431 30.1926 23.3278 29.9903 23.3994C29.8242 23.4583 27.6496 23.6222 25.158 23.7636C22.6664 23.9052 20.5636 24.0791 20.4851 24.1501C20.2135 24.3961 20.7609 24.5684 21.5754 24.4934C22.0176 24.4526 24.1209 24.3144 26.2494 24.1862C29.0733 24.016 30.21 23.8964 30.4536 23.7437C30.9485 23.4335 32.411 20.3968 32.2921 19.9267C32.1943 19.5405 31.9174 19.4203 31.9174 19.7641ZM140.5 20.6336C140.5 20.9353 138.987 23.7477 138.696 23.9874C138.524 24.1287 137.829 24.1296 135.283 23.9912C133.525 23.8957 131.439 23.7652 130.648 23.7013C129.857 23.6374 129.186 23.6075 129.156 23.6349C129.127 23.6622 129.139 23.7779 129.183 23.8917C129.273 24.1236 129.385 24.135 135.045 24.4811C137.068 24.6047 138.822 24.6679 138.945 24.6214C139.067 24.5749 139.568 23.8359 140.058 22.979C140.735 21.7958 140.939 21.3117 140.905 20.9658C140.858 20.4974 140.5 20.2033 140.5 20.6336ZM68.5909 22.9127C68.5909 23.6895 68.5951 23.697 69.0232 23.697H69.4556L69.4187 34.5694L69.3819 45.4417L68.9505 45.5153C68.5406 45.585 68.5169 45.6272 68.4747 46.3591L68.4306 47.1296L70.403 47.0358C71.488 46.9841 74.2909 46.9402 76.6315 46.9382L80.8873 46.9344L81.8581 45.3089C82.392 44.4149 82.8289 43.6489 82.8289 43.6066C82.8289 43.5643 82.5924 43.3703 82.3035 43.1755L81.778 42.8216L81.1983 43.3136C80.8794 43.5843 80.3877 43.8693 80.1057 43.9469C79.8237 44.0246 78.1529 44.0885 76.393 44.0889L73.1931 44.0898V38.3855V32.6813H75.4105C76.6301 32.6813 77.7303 32.7202 77.8554 32.7678C77.9805 32.8155 78.0829 33.008 78.0829 33.1956C78.0829 33.5142 78.1355 33.5369 78.8739 33.5369H79.6649V31.2552V28.9735H78.8739C78.0974 28.9735 78.0829 28.981 78.0829 29.386C78.0829 29.6308 77.9903 29.8338 77.8554 29.8852C77.7303 29.9328 76.6301 29.9717 75.4105 29.9717H73.1931V27.4968V25.022L75.1054 24.9236C76.8173 24.8356 77.6358 24.8673 78.6031 25.0588C78.7706 25.0919 79.1057 25.32 79.3479 25.5656C79.7854 26.0093 79.7929 26.011 80.5242 25.837C80.929 25.7407 81.241 25.6152 81.2176 25.5581C81.1941 25.5009 80.7235 24.7058 80.1719 23.7913L79.1686 22.1284H73.8798H68.5909V22.9127ZM88.294 23.091C88.294 23.7944 88.3157 23.8396 88.6535 23.8396C88.8521 23.8396 89.013 23.9224 89.013 24.0245C89.013 24.445 85.9966 45.3946 85.9178 45.5209C85.8706 45.5966 85.6418 45.6585 85.4091 45.6585C84.9991 45.6585 84.9861 45.6797 84.9861 46.3504V47.0423L86.1726 47.1339C86.8253 47.1842 88.0873 47.2259 88.9771 47.2263L90.595 47.2271V46.4428C90.595 45.659 90.5946 45.6585 90.1447 45.6585C89.7176 45.6585 89.6983 45.6348 89.7681 45.195C89.8086 44.94 90.2204 42.0845 90.6832 38.849L91.5247 32.9665H93.8643C95.151 32.9665 96.2039 33.0188 96.2039 33.0828C96.2039 33.2829 97.9231 45.1381 98.012 45.5515C98.0897 45.9126 98.0612 45.9437 97.6535 45.9437C97.2138 45.9437 97.2106 45.9491 97.2106 46.7108V47.4778L99.332 47.5705C100.499 47.6216 101.761 47.6996 102.136 47.7438L102.82 47.8244V47.0266C102.82 46.234 102.817 46.2289 102.385 46.2289C102.07 46.2289 101.913 46.1405 101.815 45.908C101.679 45.5835 98.6457 24.8962 98.6477 24.3031C98.6485 24.0563 98.7317 23.9822 99.0084 23.9822C99.343 23.9822 99.3679 23.9338 99.3679 23.2829V22.5836L97.8938 22.4981C97.0829 22.4512 94.5913 22.3969 92.3568 22.3775L88.2938 22.3423L88.294 23.091ZM52.3036 22.5202L50.3261 22.5642V23.3445C50.3261 24.1169 50.3305 24.1249 50.7584 24.1249H51.1907L51.1539 35.2111L51.1171 46.2973L50.6856 46.3709C50.2776 46.4404 50.2519 46.4852 50.2107 47.1923C50.1735 47.8335 50.2043 47.9403 50.4265 47.941C50.569 47.9415 51.8343 47.8667 53.2384 47.7749L55.7912 47.6079V46.8471C55.7912 46.0968 55.7851 46.0863 55.3597 46.0863H54.9283V40.0255V33.9647H55.7122H56.496L57.4301 36.8525C59.6259 43.6419 60.2486 45.5927 60.2491 45.6841C60.2494 45.7376 60.1038 45.8018 59.9259 45.8267C59.6433 45.8667 59.5967 45.9685 59.5585 46.6322L59.5146 47.3919L62.2191 47.2987C63.7066 47.2474 65.0046 47.1802 65.1034 47.1494C65.2158 47.1145 65.2831 46.825 65.2831 46.3759V45.6585H64.7973C64.5302 45.6585 64.2459 45.5783 64.1657 45.4802C64.0319 45.3168 60.4726 34.4576 60.3673 33.892C60.3338 33.7119 60.477 33.5981 60.8967 33.4719C63.7825 32.6033 65.2598 30.5037 65.1051 27.4912C65.0258 25.9498 64.715 25.1486 63.8242 24.1905C62.1912 22.4337 61.3919 22.3177 52.3036 22.5202ZM100.087 23.212C100.087 23.9014 100.032 24.062 99.6842 24.3885L99.2813 24.7666L100.811 35.2251C101.919 42.7992 102.397 45.7185 102.544 45.8099C102.694 45.903 102.758 45.8531 102.788 45.6191C102.827 45.3108 100.012 25.7286 99.8575 25.2301C99.8068 25.0671 99.8569 24.9805 100.002 24.9805C100.513 24.9805 100.839 23.6051 100.522 22.7794C100.287 22.1657 100.087 22.3644 100.087 23.212ZM105.868 23.3755C105.908 24.0032 105.943 24.0574 106.343 24.1256L106.775 24.199L106.811 35.2853L106.848 46.3715H106.416C105.988 46.3715 105.984 46.3791 105.984 47.1558V47.9402L106.595 47.9517C106.931 47.958 108.193 48.0387 109.399 48.131L111.592 48.2987V47.5454C111.592 46.8179 111.577 46.7892 111.149 46.7042C110.905 46.6557 110.677 46.5451 110.644 46.4582C110.61 46.3714 110.6 42.5803 110.62 38.0337L110.658 29.7672L113.015 33.8268C114.312 36.0596 115.403 37.9185 115.44 37.9577C115.535 38.0592 115.725 37.7689 118.172 33.7778L120.365 30.2003V38.8564V47.5124H119.934C119.509 47.5124 119.502 47.5238 119.502 48.2652V49.0181L122.055 49.2731C123.459 49.4134 124.721 49.5603 124.86 49.5994C125.079 49.6616 125.111 49.5619 125.111 48.8145V47.9583L124.644 47.9135L124.176 47.8689V36.389V24.9092L124.572 24.9503C124.961 24.9906 124.967 24.9779 124.967 24.2016V23.4118H124.271C123.888 23.4118 122.901 23.3732 122.078 23.3258L120.581 23.2398L118.064 27.2407C116.681 29.4412 115.497 31.1906 115.434 31.1283C115.371 31.066 114.198 29.192 112.828 26.9637L110.336 22.9127L109.418 22.8224C108.913 22.7728 107.898 22.7246 107.162 22.7155L105.824 22.6988L105.868 23.3755ZM39.5898 23.1865C36.3277 23.9711 34.1791 26.8124 33.2013 31.635C32.7529 33.8462 32.6454 38.5421 32.9929 40.7394C33.67 45.0212 35.0213 47.4736 37.2759 48.5126C39.0084 49.3111 40.9884 49.3778 43.1421 48.7103C44.4147 48.3158 45.3624 47.7301 46.1335 46.8614C46.6251 46.3076 46.6989 46.1264 46.7804 45.27C46.9055 43.9566 46.8982 42.4076 46.7666 42.3397C46.7072 42.3092 46.3513 42.3119 45.9756 42.3457C45.3923 42.3982 45.2923 42.4521 45.2912 42.7138C45.2887 43.2625 44.4701 44.4639 43.7329 45.0005C42.8194 45.6653 42.0068 45.9444 40.9958 45.9406C38.8927 45.9324 37.7045 44.4413 36.9072 40.8098C36.6578 39.6744 36.6082 38.9354 36.6006 36.2464C36.5908 32.8036 36.6985 31.8704 37.3398 29.8414C38.1222 27.3657 39.5587 25.9763 41.3312 25.981C42.4547 25.9842 43.2193 26.394 43.6942 27.2477C44.3505 28.4273 44.0483 30.1125 43.0748 30.701C42.5001 31.0486 41.9138 31.0423 41.5532 30.6848C41.1328 30.2679 41.1883 29.728 41.697 29.2854C42.0334 28.9926 42.1285 28.7914 42.1285 28.3713V27.8326L41.1577 27.8467C40.6239 27.8545 39.8365 27.9027 39.4082 27.9537C38.6797 28.0406 38.6177 28.0788 38.4483 28.5457C38.1631 29.3319 38.2024 31.2188 38.5182 31.9085C39.1781 33.3489 40.6088 34.0795 42.4397 33.9107C45.133 33.6625 46.9971 31.9672 47.4572 29.3478C47.9849 26.3431 46.3328 23.8038 43.4168 23.1374C42.5549 22.9405 40.5031 22.9667 39.5898 23.1865ZM125.685 24.0892C125.682 25.0909 125.565 25.3728 125.083 25.5394L124.652 25.6883L124.691 36.4221C124.712 42.3554 124.787 47.2714 124.858 47.4141C124.929 47.5561 125.049 47.6518 125.125 47.6267C125.211 47.5984 125.26 43.5632 125.257 36.8514C125.252 27.6062 125.28 26.1213 125.459 26.1213C125.573 26.1213 125.8 25.9522 125.964 25.7456C126.429 25.1589 126.326 23.4118 125.825 23.4118C125.749 23.4118 125.686 23.7166 125.685 24.0892ZM68.3669 24.2809C68.2415 24.4819 68.4352 24.6953 68.7432 24.6953C68.8968 24.6953 69.0224 24.6064 69.0224 24.4981C69.0224 24.2682 68.4857 24.0903 68.3669 24.2809ZM50.1823 24.8992C50.1823 25.0448 50.3121 25.1231 50.5538 25.1231C51.0043 25.1231 50.955 24.7883 50.4946 24.721C50.2871 24.6907 50.1823 24.7506 50.1823 24.8992ZM105.727 24.8616C105.762 24.9662 105.938 25.0732 106.119 25.0994C106.342 25.1318 106.427 25.0862 106.384 24.9568C106.349 24.8522 106.173 24.7452 105.992 24.719C105.769 24.6866 105.684 24.7322 105.727 24.8616ZM95.018 25.3333C95.0681 25.3725 95.6287 29.3929 95.6287 29.7135C95.6287 29.9495 95.4676 29.9717 93.7563 29.9717C91.8888 29.9717 91.8841 29.9709 91.9567 29.6509C91.9967 29.4743 92.1296 28.5599 92.252 27.6187C92.3742 26.6775 92.51 25.7299 92.5534 25.513L92.6324 25.1184L93.8069 25.2117C94.4529 25.263 94.9979 25.3178 95.018 25.3333ZM60.3473 25.6306C61.6734 26.5905 61.7295 29.1027 60.4474 30.1028C59.5872 30.7739 59.2117 30.8563 56.1867 31.0384L54.9283 31.1143V28.1807V25.2473L57.435 25.2922C59.697 25.3326 59.9814 25.3657 60.3473 25.6306ZM81.7744 25.6804C81.6844 26.1272 81.3125 26.311 80.1323 26.492C79.4805 26.5918 79.2707 26.9609 79.8447 26.9977C81.4435 27.1002 82.5555 26.48 82.335 25.609C82.2151 25.1349 81.8758 25.1781 81.7744 25.6804ZM65.4839 25.7292C65.5337 25.9057 65.6497 26.5141 65.7418 27.0812C66.1692 29.7149 64.7952 32.3253 62.3543 33.5168C61.8496 33.7632 61.3637 33.9647 61.2745 33.9647C61.1853 33.9647 61.1124 34.0506 61.1124 34.1555C61.1124 34.3612 64.5045 44.8771 64.642 45.0977C64.6876 45.1709 64.8128 45.2307 64.9204 45.2307C65.1366 45.2307 64.9676 44.6096 63.6983 40.7357C62.5487 37.2276 61.6864 34.4881 61.7242 34.4641C61.7436 34.4519 61.9861 34.3549 62.263 34.2486C65.1015 33.1598 66.7892 30.1992 66.3108 27.148C66.142 26.071 65.8524 25.4083 65.5506 25.4083C65.4566 25.4083 65.4298 25.5374 65.4839 25.7292ZM75.3863 25.515L73.7684 25.5603V27.4633C73.7684 28.8814 73.8176 29.4069 73.9614 29.5252C74.0675 29.6125 74.1969 29.6419 74.249 29.5903C74.3011 29.5386 74.3436 28.6957 74.3436 27.7171V25.9378L76.5751 26.0121C78.7061 26.0831 79.26 26.0068 78.6982 25.7198C78.3285 25.531 77.2335 25.4632 75.3863 25.515ZM55.6183 28.1198C55.5947 29.3758 55.597 30.4667 55.6233 30.5442C55.6498 30.6215 55.763 30.6848 55.875 30.6848C56.0394 30.6848 56.0833 30.3197 56.1015 28.7952C56.1142 27.7559 56.1149 26.7933 56.1032 26.6561C56.0841 26.4298 56.2625 26.4066 58.0221 26.4066C59.0889 26.4066 59.9619 26.3552 59.9619 26.2925C59.9619 25.9213 59.5288 25.8361 57.6389 25.8361H55.661L55.6183 28.1198ZM93.1687 25.8644C93.1603 25.888 93.0399 26.6775 92.901 27.6187C92.7261 28.8032 92.6938 29.387 92.7959 29.5154C93.0803 29.8732 93.3129 29.3625 93.4648 28.0465C93.5462 27.3406 93.6133 26.6507 93.6141 26.5135C93.6149 26.3167 93.7395 26.264 94.2024 26.264C95.0859 26.264 94.8476 25.9177 93.9274 25.8644C93.5184 25.8406 93.177 25.8406 93.1687 25.8644ZM47.9731 26.5135C48.0411 26.8077 48.0933 27.69 48.0889 28.4744C48.0825 29.5933 48.0131 30.0694 47.7663 30.6848C47.0765 32.405 45.6139 33.7297 43.8017 34.2756C42.9888 34.5205 42.588 34.5594 41.5956 34.4899C40.6823 34.4261 40.3971 34.4474 40.4401 34.5771C40.6863 35.3175 43.2928 35.2522 45.0985 34.4604C45.9966 34.0665 47.3214 32.8779 47.8398 32.0007C48.4183 31.0217 48.7441 29.7821 48.7441 28.5588C48.7441 27.2636 48.411 25.9787 48.0753 25.9787C47.8878 25.9787 47.8704 26.0702 47.9731 26.5135ZM40.4567 26.704C39.915 26.8598 39.577 27.2136 39.7788 27.4137C39.8703 27.5044 40.1355 27.4773 40.5386 27.3362C40.8793 27.2171 41.441 27.1196 41.7871 27.1196C42.2289 27.1196 42.4161 27.0604 42.4161 26.9209C42.4161 26.5449 41.4011 26.4325 40.4567 26.704ZM158.429 26.9676C158.305 27.5804 156.305 30.9634 155.912 31.2237C155.608 31.4256 155.381 31.4243 153.467 31.2101C151.852 31.0293 144.966 30.3583 141.809 30.074C141.324 30.0303 141.262 30.3687 141.724 30.5427C141.935 30.6224 143.51 30.819 145.223 30.9792C146.936 31.1395 150.021 31.453 152.077 31.6757C155.199 32.0139 155.888 32.0515 156.25 31.9032C156.581 31.7676 156.92 31.3265 157.688 30.0332C159.026 27.779 159.132 27.5129 158.907 26.9744C158.683 26.4371 158.536 26.4349 158.429 26.9676ZM42.8077 27.6346C42.7505 27.6912 42.7038 28.0686 42.7038 28.4732C42.7038 29.0736 42.6376 29.2705 42.3442 29.5439C41.9686 29.8937 41.8756 30.3158 42.1385 30.4771C42.2233 30.5289 42.5145 30.3241 42.7857 30.0221C43.2093 29.55 43.2789 29.3708 43.2789 28.7512C43.279 28.0487 43.0167 27.4272 42.8077 27.6346ZM80.3818 31.0769C80.3791 33.9863 80.3623 34.022 78.978 34.0779C78.1902 34.1098 77.9391 34.1694 77.9391 34.3248C77.9391 34.6069 78.5076 34.7228 79.5307 34.6495C80.858 34.5543 80.8794 34.5108 80.9162 31.8573C80.9457 29.731 80.8251 28.8309 80.5104 28.8309C80.4408 28.8309 80.383 29.8415 80.3818 31.0769ZM7.46842 30.3086C7.46842 31.3673 7.3108 31.8892 6.92982 32.0914C6.78414 32.1686 5.69702 32.3329 4.51397 32.4564C0.030313 32.9241 -0.547691 33.056 0.370729 33.4023C0.640962 33.5042 1.25665 33.4801 2.49204 33.3191C3.44929 33.1945 4.78262 33.0315 5.45497 32.9571C7.74196 32.7036 7.89153 32.6027 8.06224 31.1971C8.18866 30.1556 8.05678 29.4929 7.70974 29.4265C7.5038 29.3872 7.46842 29.5165 7.46842 30.3086ZM19.7888 30.6373C19.7361 30.6895 19.6929 31.1109 19.6929 31.5735C19.6929 32.8809 19.5048 33.0627 17.8129 33.391C17.2741 33.4957 16.7734 33.724 16.2846 34.0882C15.3118 34.8129 14.3538 35.2436 13.3008 35.4296C12.2642 35.6127 12.2682 35.6104 12.4992 35.8865C12.943 36.4168 14.6911 36.0024 16.1723 35.0157C17.3867 34.2066 18.1115 33.8839 18.9902 33.7608C19.9183 33.6309 20.2734 33.2176 20.3661 32.1599C20.4619 31.0682 20.1592 30.2699 19.7888 30.6373ZM37.4793 31.7413C37.4366 31.8517 37.3268 32.9725 37.2357 34.2315C37.1108 35.9524 37.1104 36.968 37.2336 38.3202C37.3996 40.1414 37.951 42.6686 38.264 43.0424C38.6252 43.474 38.6454 42.9686 38.317 41.7182C37.7609 39.6011 37.5936 37.1664 37.8119 34.3683C37.9139 33.0609 37.9582 31.8896 37.9102 31.7657C37.802 31.4862 37.5828 31.4738 37.4793 31.7413ZM111.231 32.3988C111.078 32.6446 111.321 46.2222 111.481 46.3199C111.556 46.3659 111.671 46.3483 111.736 46.2807C111.929 46.0793 111.696 32.3585 111.498 32.2932C111.406 32.2631 111.286 32.3105 111.231 32.3988ZM119.562 32.9368C119.477 32.9923 118.71 34.1802 117.856 35.5765C117.002 36.9727 116.209 38.208 116.095 38.3216C115.98 38.4352 115.724 38.5281 115.525 38.5281C115.065 38.5281 115.148 38.8375 115.656 39.0153C116.155 39.1903 116.671 38.8481 117.175 38.0079C117.387 37.6535 118.065 36.5508 118.681 35.5572C119.297 34.5637 119.84 33.6018 119.886 33.4195C119.98 33.0508 119.799 32.7811 119.562 32.9368ZM73.9421 33.376C73.8056 33.4596 73.7734 34.6663 73.8025 38.6071C73.8375 43.3549 73.8587 43.733 74.092 43.7775C74.3278 43.8224 74.3436 43.5105 74.3436 38.8238V33.8221H75.9975C77.3372 33.8221 77.6514 33.7833 77.6514 33.6178C77.6514 33.5054 77.5381 33.3799 77.3998 33.3387C77.01 33.2229 74.1414 33.2538 73.9421 33.376ZM92.1071 33.7152C91.9576 34.1527 90.4478 45.0159 90.5129 45.1844C90.5945 45.3949 91.0265 45.446 91.0265 45.2452C91.0265 45.1747 91.3824 42.6713 91.8175 39.6818C92.2525 36.6924 92.6085 34.1855 92.6085 34.1109C92.6085 34.0278 93.2499 34.0092 94.2624 34.0631C95.4381 34.1256 95.9163 34.1049 95.9163 33.9915C95.9163 33.664 95.3148 33.5369 93.7639 33.5369C92.6155 33.5369 92.1508 33.587 92.1071 33.7152ZM55.5691 34.714C55.5311 34.8122 55.5169 37.298 55.5378 40.238C55.5727 45.1983 55.5936 45.5867 55.8271 45.6314C56.0631 45.6764 56.0788 45.3522 56.0788 40.421C56.0788 36.75 56.1271 35.1147 56.2389 35.0039C56.3269 34.9166 56.3554 34.7754 56.3023 34.6902C56.1698 34.4777 55.6541 34.4944 55.5691 34.714ZM47.4466 43.9828C47.4428 46.2423 47.2884 46.6891 46.1649 47.6908C44.5788 49.1047 42.6838 49.7179 39.9353 49.7066C38.9268 49.7025 38.1016 49.7546 38.1016 49.8223C38.1016 50.007 38.3774 50.08 39.5518 50.2063C41.6044 50.4274 44.0495 49.9123 45.5844 48.9357C46.4006 48.4163 47.6821 47.1045 47.8816 46.5841C48.0361 46.1816 48.082 42.6914 47.9377 42.3189C47.8897 42.1948 47.7602 42.0933 47.6501 42.0933C47.4891 42.0933 47.4492 42.4644 47.4466 43.9828ZM83.4473 43.6339C83.2785 44.2545 81.9627 46.4987 81.4626 47.0188L81.0312 47.4676L74.8144 47.5507C71.3952 47.5965 68.5258 47.6781 68.4379 47.7318C67.9022 48.0603 68.8981 48.1187 74.6572 48.0973C78.0047 48.0849 80.9496 48.0381 81.2016 47.9934C81.7715 47.892 81.8524 47.7983 83.0249 45.8782C83.9866 44.3036 84.1649 43.7069 83.7709 43.3826C83.5987 43.241 83.5422 43.2849 83.4473 43.6339ZM65.8584 46.3611C65.8584 47.739 65.8525 47.7417 62.5171 47.8656C59.6077 47.9738 59.0997 48.0631 59.6702 48.3659C59.9182 48.4975 60.6607 48.5013 62.8896 48.3824C65.7462 48.23 65.7911 48.2225 66.1163 47.8549C66.4013 47.5327 66.4404 47.3535 66.4039 46.5361C66.3697 45.7684 66.3143 45.5812 66.1101 45.5425C65.8928 45.5015 65.8584 45.6131 65.8584 46.3611ZM91.2713 45.8489C91.2281 45.9601 91.2277 46.3083 91.2703 46.6226C91.3325 47.0837 91.2868 47.2542 91.0332 47.5057C90.7275 47.8088 90.6403 47.816 87.7927 47.7718C86.1833 47.7467 84.8271 47.7652 84.779 47.8128C84.4834 48.1059 85.3174 48.2327 88.1068 48.3188C91.0452 48.4095 91.1341 48.4039 91.4277 48.1127C91.8038 47.7398 91.9698 46.9146 91.8017 46.2539C91.6652 45.7179 91.4003 45.5156 91.2713 45.8489ZM56.5082 46.5542C56.5041 48.1475 56.4517 48.1736 52.8479 48.3818C51.4214 48.4643 50.19 48.5937 50.1115 48.6696C49.8188 48.953 50.3932 49.0977 51.4766 49.0137C52.0699 48.9677 53.2995 48.8914 54.2092 48.8442C56.0879 48.7466 56.7358 48.5487 56.9426 48.0091C57.2191 47.288 57.0819 46.0275 56.7117 45.8868C56.555 45.827 56.5098 45.9751 56.5082 46.5542ZM103.514 46.234C103.501 46.3488 103.484 46.7768 103.478 47.1849C103.471 47.5931 103.385 48.0072 103.286 48.1053C103.068 48.3208 102.058 48.3356 99.1125 48.1664C97.1397 48.053 96.9245 48.0631 97.0024 48.2648C97.0503 48.3882 97.327 48.5286 97.6174 48.5766C98.6076 48.7405 103.322 48.8996 103.563 48.7773C104.13 48.4895 104.27 46.7498 103.765 46.25C103.572 46.0583 103.535 46.0561 103.514 46.234ZM112.252 46.8897C112.202 47.0179 112.2 47.3234 112.246 47.5687C112.293 47.8138 112.263 48.1903 112.181 48.4051C112.038 48.7776 111.986 48.796 111.057 48.7977C110.521 48.7988 109.161 48.7229 108.035 48.6291C106.909 48.5353 105.939 48.5076 105.878 48.5675C105.622 48.8213 106.372 49.0611 107.684 49.1451C108.449 49.1941 109.675 49.2922 110.408 49.3633C111.904 49.5083 112.549 49.3758 112.735 48.8852C112.859 48.5574 112.811 47.0241 112.669 46.7962C112.538 46.5866 112.353 46.6281 112.252 46.8897ZM125.774 48.1658C125.726 48.2898 125.687 48.7312 125.687 49.1465C125.687 50.2989 125.688 50.2986 122.685 49.9505C119.781 49.6138 119.359 49.5933 119.359 49.7891C119.359 50.0858 120.003 50.2232 122.723 50.5055C125.822 50.8273 125.985 50.8069 126.247 50.061C126.444 49.4999 126.446 49.1582 126.254 48.475C126.096 47.9082 125.918 47.7939 125.774 48.1658Z" fill="white"/>
</g>
</svg>
