<svg width="137" height="55" viewBox="0 0 137 55" fill="none" xmlns="http://www.w3.org/2000/svg">
<g id="Rinse_White 1 (Traced)">
<path id="Layer 1" fill-rule="evenodd" clip-rule="evenodd" d="M0 24.2932V47.8833H0.556889C2.005 47.8833 3.90329 48.2156 5.64748 48.7746C7.19564 49.2707 8.29367 49.7553 11.7629 51.4733C14.1111 52.6362 15.0411 53.0574 16.2442 53.5028C20.3582 55.026 24.5272 55.0997 28.6705 53.7225C30.1466 53.2319 31.0775 52.8248 34.1051 51.3457C37.3657 49.7527 38.3464 49.3253 39.8778 48.8298C41.8749 48.1837 43.5695 47.912 45.6023 47.912C47.6349 47.912 49.3295 48.1837 51.3267 48.8298C52.864 49.3271 53.808 49.7349 56.7854 51.188C60.2781 52.8924 61.6568 53.4748 63.3634 53.9668C65.1434 54.48 66.5807 54.6813 68.4758 54.6829C70.5905 54.6847 72.1823 54.4356 74.1977 53.7874C75.7803 53.2784 76.8296 52.8218 80.1421 51.2009C83.4249 49.5944 84.5562 49.1183 86.2545 48.6288C88.0187 48.1202 89.48 47.9129 91.3011 47.9129C93.4675 47.9129 95.0864 48.1846 97.2671 48.9142C98.8024 49.4278 100.037 49.9704 102.797 51.344C107.138 53.5049 109.284 54.2535 112.122 54.5974C113.106 54.7167 115.216 54.7161 116.155 54.5964C117.55 54.4186 118.692 54.1642 119.946 53.7519C121.484 53.2464 122.694 52.7143 125.769 51.1911C127.911 50.1298 128.717 49.7575 129.802 49.3271C132.146 48.3973 134.51 47.8833 136.443 47.8833H137V24.2932V0.703125L136.215 0.732934C134.175 0.810388 132.189 1.2366 130.027 2.06077C128.905 2.48843 128.235 2.79425 125.696 4.03574C124.407 4.66591 123.027 5.32665 122.629 5.50406C119.428 6.92877 116.957 7.50985 114.102 7.50884C112.521 7.50831 111.223 7.34739 109.706 6.96368C107.764 6.47236 106.203 5.83782 102.822 4.16497C99.3228 2.43328 97.7624 1.79331 95.8304 1.29704C94.1521 0.865967 93.1919 0.748271 91.3253 0.744857C89.562 0.741636 88.6148 0.844284 87.0984 1.203C85.0668 1.68354 83.643 2.25616 79.7556 4.15613C77.2426 5.38434 76.5248 5.71344 75.4563 6.12735C73.6379 6.8317 71.8564 7.27037 70.07 7.4536C69.3697 7.52547 67.5625 7.52543 66.8334 7.45355C64.8234 7.25547 62.9839 6.77381 60.8433 5.88503C59.8551 5.47478 58.8255 4.99101 56.8923 4.02867C54.8851 3.0295 54.0729 2.653 52.9877 2.21885C51.0848 1.45743 49.4911 1.04049 47.5829 0.804859C46.8131 0.709808 44.3456 0.725289 43.5492 0.830197C41.3803 1.11593 39.5321 1.6596 37.1529 2.7117C36.6589 2.93017 35.2331 3.60712 33.9843 4.21613C30.6984 5.81859 29.5533 6.29615 27.7814 6.80309C24.2467 7.81443 20.7244 7.75659 17.1733 6.62895C15.6687 6.1512 14.4062 5.5994 11.3281 4.0743C10.1856 3.50822 8.94654 2.90892 8.57458 2.74247C5.66618 1.44103 3.29955 0.830677 0.784996 0.733463L0 0.703125V24.2932ZM47.6553 2.59362C48.9193 2.75517 49.8715 2.98142 51.2062 3.4374C52.4362 3.85761 53.4757 4.31998 56.2782 5.69354C57.6997 6.39019 59.1453 7.08378 59.4907 7.23479C62.927 8.73744 65.7695 9.34549 68.9589 9.26029C70.9897 9.20601 72.7526 8.8998 74.7317 8.25752C76.368 7.72644 77.2647 7.33903 80.3836 5.81532C83.0103 4.5321 83.571 4.27214 84.6105 3.85544C87.0348 2.88373 88.994 2.47982 91.277 2.48097C92.7869 2.4817 93.8522 2.6141 95.3035 2.98133C97.1649 3.45235 98.255 3.90107 102.074 5.76811C105.74 7.56062 107.289 8.18429 109.344 8.69465C111.007 9.10769 112.226 9.24899 114.126 9.24866C116.032 9.24832 117.135 9.11981 118.885 8.69417C120.937 8.19482 122.688 7.491 126.203 5.75157C128.979 4.37815 130.22 3.83193 131.618 3.36783C132.687 3.01316 133.926 2.72555 135.031 2.57574L135.213 2.55122V24.368V46.1848L134.67 46.2434C133.47 46.373 131.961 46.7093 130.64 47.1416C129.109 47.6424 127.706 48.2529 125.081 49.5597C121.436 51.374 119.872 52.0194 118.026 52.4703C116.623 52.8134 115.619 52.9315 114.109 52.9315C112.255 52.9315 110.651 52.6676 108.834 52.0638C107.411 51.5906 106.24 51.0763 103.499 49.7195C101.362 48.662 100.243 48.1456 99.174 47.7235C97.2295 46.9558 95.5498 46.5165 93.5957 46.2646C92.6282 46.1399 90.0224 46.1399 89.0548 46.2646C86.1427 46.64 83.7489 47.4335 80.2043 49.1983C78.5013 50.0462 76.4313 51.0328 75.722 51.3346C73.9355 52.0947 72.318 52.5638 70.6014 52.8198C69.7698 52.9438 67.235 52.9441 66.3986 52.8204C64.5876 52.5525 63.0221 52.0935 61.0857 51.2626C60.6867 51.0913 59.4254 50.4961 58.283 49.9398C54.6746 48.1827 53.804 47.8004 52.1721 47.2561C49.8009 46.4654 47.9424 46.1534 45.6023 46.1534C43.3634 46.1534 41.4638 46.4584 39.2804 47.1685C37.666 47.6935 36.6561 48.1318 33.4771 49.6871C30.3624 51.2108 29.4471 51.6115 27.9907 52.0888C26.0343 52.73 24.4835 52.96 22.3978 52.9181C20.7243 52.8845 19.7141 52.7296 18.0989 52.2586C16.6203 51.8274 15.4024 51.3052 12.3426 49.7904C8.95823 48.1149 7.86074 47.6335 6.19983 47.0959C4.93316 46.6859 3.19308 46.3115 2.13761 46.2219L1.73907 46.1881V24.3645V2.54078L1.89607 2.56622C1.98239 2.58016 2.33567 2.63709 2.68106 2.69266C3.92049 2.89205 5.45667 3.34721 6.88382 3.9379C7.80919 4.32094 8.97543 4.87163 11.0866 5.92239C14.8082 7.77476 16.7755 8.50849 19.2264 8.95822C20.5155 9.19476 21.1718 9.24885 22.7528 9.24885C24.637 9.24885 25.7534 9.12322 27.4145 8.72427C29.4838 8.22723 31.0878 7.59471 34.5157 5.92398C37.2583 4.5873 37.992 4.24892 39.0807 3.81886C41.1205 3.01301 42.8439 2.6143 44.8776 2.47771C45.429 2.44064 46.9579 2.50444 47.6553 2.59362ZM90.1901 15.4042C89.1706 15.6205 88.4652 16.1267 88.0692 16.9263C87.8139 17.4417 87.7281 17.8577 87.7281 18.5794C87.7281 19.2953 87.8139 19.7174 88.0606 20.214C88.2849 20.6654 88.6325 21.0703 89.0474 21.3631C89.4175 21.6244 89.7296 21.7799 90.649 22.1612C91.604 22.5573 91.8014 22.6595 92.0488 22.8865C92.3541 23.1666 92.4776 23.487 92.4493 23.9256C92.4314 24.204 92.3979 24.3222 92.2853 24.5032C91.9362 25.0653 91.1152 25.2351 90.4316 24.8867C90.0128 24.6732 89.6871 24.0767 89.6261 23.4113C89.6103 23.2394 89.584 23.0758 89.5677 23.0476C89.5473 23.0126 89.2117 23.0399 88.5005 23.1346C87.9299 23.2106 87.4568 23.2789 87.4492 23.2864C87.4185 23.3171 87.5481 24.0828 87.657 24.5137C87.9984 25.8649 88.7514 26.6181 90.021 26.8786C90.4342 26.9634 90.6228 26.9744 91.3253 26.9546C92.2332 26.9289 92.5086 26.8739 93.0643 26.6073C93.8511 26.2298 94.3769 25.5884 94.6201 24.7094C94.7399 24.2765 94.7398 23.0885 94.62 22.642C94.3216 21.5304 93.6114 20.8856 91.9683 20.2346C91.2943 19.9676 90.589 19.6019 90.342 19.3915C89.9777 19.0812 89.8278 18.6076 89.9449 18.1373C90.0822 17.5862 90.4459 17.3025 91.0608 17.2671C91.3872 17.2483 91.4703 17.2612 91.7032 17.3673C92.146 17.5691 92.4119 18.0612 92.4905 18.8243C92.5201 19.1126 92.5315 19.1372 92.6245 19.116C92.6805 19.1033 93.1581 19.0329 93.6861 18.9597L94.6459 18.8265L94.6155 18.5346C94.5622 18.0211 94.3956 17.4381 94.1701 16.9754C93.7909 16.1977 93.1588 15.6843 92.2914 15.4493C91.8925 15.3412 90.6159 15.3138 90.1901 15.4042ZM43.67 21.1516V26.8729H44.8052H45.9404V21.1516V15.4302H44.8052H43.67V21.1516ZM19.1298 32.5187V38.2195H20.265H21.4002V36.126V34.0326L21.7714 34.0466L22.1426 34.0607L23.1119 36.1389L24.0813 38.2171L25.3252 38.2183C26.1266 38.219 26.5691 38.2023 26.5691 38.1712C26.5691 38.1446 26.0691 37.1278 25.458 35.9117C24.847 34.6955 24.347 33.6908 24.347 33.6791C24.347 33.6673 24.4829 33.586 24.6489 33.4986C25.032 33.2967 25.5342 32.799 25.7311 32.426C26.0866 31.7526 26.2373 30.8222 26.1413 29.8936C26.1103 29.5941 26.0511 29.2192 26.0097 29.0605C25.7973 28.2461 25.2264 27.5215 24.5395 27.1943C23.849 26.8653 23.796 26.8594 21.3398 26.8376L19.1298 26.818V32.5187ZM64.2006 32.5221V38.2195H65.239H66.2772L66.2896 34.6209L66.302 31.0223L67.6029 34.2242C68.3185 35.9853 68.9782 37.6046 69.0691 37.8228L69.2343 38.2195H70.3888H71.5434V32.5221V26.8248H70.5051H69.4668L69.4544 30.4425L69.442 34.0601L68.4111 31.5122C67.844 30.1109 67.1839 28.4829 66.9441 27.8946L66.508 26.8248H65.3544H64.2006V32.5221ZM112.122 32.5221V38.2195H115.02H117.919V37.2338V36.2482H116.155H114.392V34.8299V33.4116H115.89H117.387V32.402V31.3923H115.89H114.392V30.1182V28.8441H116.107H117.822V27.8345V26.8248H114.972H112.122V32.5221ZM23.1876 28.91C23.5741 29.1143 23.7673 29.3935 23.8654 29.8901C23.9301 30.2175 23.906 30.8759 23.8188 31.1604C23.7233 31.4724 23.4732 31.7818 23.1876 31.9412C22.9271 32.0865 22.9069 32.0898 22.1611 32.1065L21.4002 32.1236V30.4557V28.7879L22.2094 28.8043C22.8838 28.8179 23.0467 28.8355 23.1876 28.91Z" fill="white"/>
<path id="Layer 2" fill-rule="evenodd" clip-rule="evenodd" d="M0 24.2932V47.8833H0.556889C2.005 47.8833 3.90329 48.2156 5.64748 48.7746C7.19564 49.2707 8.29367 49.7553 11.7629 51.4733C14.1111 52.6362 15.0411 53.0574 16.2442 53.5028C20.3582 55.026 24.5272 55.0997 28.6705 53.7225C30.1466 53.2319 31.0775 52.8248 34.1051 51.3457C37.3657 49.7527 38.3464 49.3253 39.8778 48.8298C41.8749 48.1837 43.5695 47.912 45.6023 47.912C47.6349 47.912 49.3295 48.1837 51.3267 48.8298C52.864 49.3271 53.808 49.7349 56.7854 51.188C60.2781 52.8924 61.6568 53.4748 63.3634 53.9668C65.1434 54.48 66.5807 54.6813 68.4758 54.6829C70.5905 54.6847 72.1823 54.4356 74.1977 53.7874C75.7803 53.2784 76.8296 52.8218 80.1421 51.2009C83.4249 49.5944 84.5562 49.1183 86.2545 48.6288C88.0187 48.1202 89.48 47.9129 91.3011 47.9129C93.4675 47.9129 95.0864 48.1846 97.2671 48.9142C98.8024 49.4278 100.037 49.9704 102.797 51.344C107.138 53.5049 109.284 54.2535 112.122 54.5974C113.106 54.7167 115.216 54.7161 116.155 54.5964C117.55 54.4186 118.692 54.1642 119.946 53.7519C121.484 53.2464 122.694 52.7143 125.769 51.1911C127.911 50.1298 128.717 49.7575 129.802 49.3271C132.146 48.3973 134.51 47.8833 136.443 47.8833H137V24.2932V0.703125L136.215 0.732934C134.175 0.810388 132.189 1.2366 130.027 2.06077C128.905 2.48843 128.235 2.79425 125.696 4.03574C124.407 4.66591 123.027 5.32665 122.629 5.50406C119.428 6.92877 116.957 7.50985 114.102 7.50884C112.521 7.50831 111.223 7.34739 109.706 6.96368C107.764 6.47236 106.203 5.83782 102.822 4.16497C99.3228 2.43328 97.7624 1.79331 95.8304 1.29704C94.1521 0.865967 93.1919 0.748271 91.3253 0.744857C89.562 0.741636 88.6148 0.844284 87.0984 1.203C85.0668 1.68354 83.643 2.25616 79.7556 4.15613C77.2426 5.38434 76.5248 5.71344 75.4563 6.12735C73.6379 6.8317 71.8564 7.27037 70.07 7.4536C69.3697 7.52547 67.5625 7.52543 66.8334 7.45355C64.8234 7.25547 62.9839 6.77381 60.8433 5.88503C59.8551 5.47478 58.8255 4.99101 56.8923 4.02867C54.8851 3.0295 54.0729 2.653 52.9877 2.21885C51.0848 1.45743 49.4911 1.04049 47.5829 0.804859C46.8131 0.709808 44.3456 0.725289 43.5492 0.830197C41.3803 1.11593 39.5321 1.6596 37.1529 2.7117C36.6589 2.93017 35.2331 3.60712 33.9843 4.21613C30.6984 5.81859 29.5533 6.29615 27.7814 6.80309C24.2467 7.81443 20.7244 7.75659 17.1733 6.62895C15.6687 6.1512 14.4062 5.5994 11.3281 4.0743C10.1856 3.50822 8.94654 2.90892 8.57458 2.74247C5.66618 1.44103 3.29955 0.830677 0.784996 0.733463L0 0.703125V24.2932ZM47.6553 2.59362C48.9193 2.75517 49.8715 2.98142 51.2062 3.4374C52.4362 3.85761 53.4757 4.31998 56.2782 5.69354C57.6997 6.39019 59.1453 7.08378 59.4907 7.23479C62.927 8.73744 65.7695 9.34549 68.9589 9.26029C70.9897 9.20601 72.7526 8.8998 74.7317 8.25752C76.368 7.72644 77.2647 7.33903 80.3836 5.81532C83.0103 4.5321 83.571 4.27214 84.6105 3.85544C87.0348 2.88373 88.994 2.47982 91.277 2.48097C92.7869 2.4817 93.8522 2.6141 95.3035 2.98133C97.1649 3.45235 98.255 3.90107 102.074 5.76811C105.74 7.56062 107.289 8.18429 109.344 8.69465C111.007 9.10769 112.226 9.24899 114.126 9.24866C116.032 9.24832 117.135 9.11981 118.885 8.69417C120.937 8.19482 122.688 7.491 126.203 5.75157C128.979 4.37815 130.22 3.83193 131.618 3.36783C132.687 3.01316 133.926 2.72555 135.031 2.57574L135.213 2.55122V24.368V46.1848L134.67 46.2434C133.47 46.373 131.961 46.7093 130.64 47.1416C129.109 47.6424 127.706 48.2529 125.081 49.5597C121.436 51.374 119.872 52.0194 118.026 52.4703C116.623 52.8134 115.619 52.9315 114.109 52.9315C112.255 52.9315 110.651 52.6676 108.834 52.0638C107.411 51.5906 106.24 51.0763 103.499 49.7195C101.362 48.662 100.243 48.1456 99.174 47.7235C97.2295 46.9558 95.5498 46.5165 93.5957 46.2646C92.6282 46.1399 90.0224 46.1399 89.0548 46.2646C86.1427 46.64 83.7489 47.4335 80.2043 49.1983C78.5013 50.0462 76.4313 51.0328 75.722 51.3346C73.9355 52.0947 72.318 52.5638 70.6014 52.8198C69.7698 52.9438 67.235 52.9441 66.3986 52.8204C64.5876 52.5525 63.0221 52.0935 61.0857 51.2626C60.6867 51.0913 59.4254 50.4961 58.283 49.9398C54.6746 48.1827 53.804 47.8004 52.1721 47.2561C49.8009 46.4654 47.9424 46.1534 45.6023 46.1534C43.3634 46.1534 41.4638 46.4584 39.2804 47.1685C37.666 47.6935 36.6561 48.1318 33.4771 49.6871C30.3624 51.2108 29.4471 51.6115 27.9907 52.0888C26.0343 52.73 24.4835 52.96 22.3978 52.9181C20.7243 52.8845 19.7141 52.7296 18.0989 52.2586C16.6203 51.8274 15.4024 51.3052 12.3426 49.7904C8.95823 48.1149 7.86074 47.6335 6.19983 47.0959C4.93316 46.6859 3.19308 46.3115 2.13761 46.2219L1.73907 46.1881V24.3645V2.54078L1.89607 2.56622C1.98239 2.58016 2.33567 2.63709 2.68106 2.69266C3.92049 2.89205 5.45667 3.34721 6.88382 3.9379C7.80919 4.32094 8.97543 4.87163 11.0866 5.92239C14.8082 7.77476 16.7755 8.50849 19.2264 8.95822C20.5155 9.19476 21.1718 9.24885 22.7528 9.24885C24.637 9.24885 25.7534 9.12322 27.4145 8.72427C29.4838 8.22723 31.0878 7.59471 34.5157 5.92398C37.2583 4.5873 37.992 4.24892 39.0807 3.81886C41.1205 3.01301 42.8439 2.6143 44.8776 2.47771C45.429 2.44064 46.9579 2.50444 47.6553 2.59362ZM90.1901 15.4042C89.1706 15.6205 88.4652 16.1267 88.0692 16.9263C87.8139 17.4417 87.7281 17.8577 87.7281 18.5794C87.7281 19.2953 87.8139 19.7174 88.0606 20.214C88.2849 20.6654 88.6325 21.0703 89.0474 21.3631C89.4175 21.6244 89.7296 21.7799 90.649 22.1612C91.604 22.5573 91.8014 22.6595 92.0488 22.8865C92.3541 23.1666 92.4776 23.487 92.4493 23.9256C92.4314 24.204 92.3979 24.3222 92.2853 24.5032C91.9362 25.0653 91.1152 25.2351 90.4316 24.8867C90.0128 24.6732 89.6871 24.0767 89.6261 23.4113C89.6103 23.2394 89.584 23.0758 89.5677 23.0476C89.5473 23.0126 89.2117 23.0399 88.5005 23.1346C87.9299 23.2106 87.4568 23.2789 87.4492 23.2864C87.4185 23.3171 87.5481 24.0828 87.657 24.5137C87.9984 25.8649 88.7514 26.6181 90.021 26.8786C90.4342 26.9634 90.6228 26.9744 91.3253 26.9546C92.2332 26.9289 92.5086 26.8739 93.0643 26.6073C93.8511 26.2298 94.3769 25.5884 94.6201 24.7094C94.7399 24.2765 94.7398 23.0885 94.62 22.642C94.3216 21.5304 93.6114 20.8856 91.9683 20.2346C91.2943 19.9676 90.589 19.6019 90.342 19.3915C89.9777 19.0812 89.8278 18.6076 89.9449 18.1373C90.0822 17.5862 90.4459 17.3025 91.0608 17.2671C91.3872 17.2483 91.4703 17.2612 91.7032 17.3673C92.146 17.5691 92.4119 18.0612 92.4905 18.8243C92.5201 19.1126 92.5315 19.1372 92.6245 19.116C92.6805 19.1033 93.1581 19.0329 93.6861 18.9597L94.6459 18.8265L94.6155 18.5346C94.5622 18.0211 94.3956 17.4381 94.1701 16.9754C93.7909 16.1977 93.1588 15.6843 92.2914 15.4493C91.8925 15.3412 90.6159 15.3138 90.1901 15.4042ZM43.67 21.1516V26.8729H44.8052H45.9404V21.1516V15.4302H44.8052H43.67V21.1516ZM19.1298 32.5187V38.2195H20.265H21.4002V36.126V34.0326L21.7714 34.0466L22.1426 34.0607L23.1119 36.1389L24.0813 38.2171L25.3252 38.2183C26.1266 38.219 26.5691 38.2023 26.5691 38.1712C26.5691 38.1446 26.0691 37.1278 25.458 35.9117C24.847 34.6955 24.347 33.6908 24.347 33.6791C24.347 33.6673 24.4829 33.586 24.6489 33.4986C25.032 33.2967 25.5342 32.799 25.7311 32.426C26.0866 31.7526 26.2373 30.8222 26.1413 29.8936C26.1103 29.5941 26.0511 29.2192 26.0097 29.0605C25.7973 28.2461 25.2264 27.5215 24.5395 27.1943C23.849 26.8653 23.796 26.8594 21.3398 26.8376L19.1298 26.818V32.5187ZM64.2006 32.5221V38.2195H65.239H66.2772L66.2896 34.6209L66.302 31.0223L67.6029 34.2242C68.3185 35.9853 68.9782 37.6046 69.0691 37.8228L69.2343 38.2195H70.3888H71.5434V32.5221V26.8248H70.5051H69.4668L69.4544 30.4425L69.442 34.0601L68.4111 31.5122C67.844 30.1109 67.1839 28.4829 66.9441 27.8946L66.508 26.8248H65.3544H64.2006V32.5221ZM112.122 32.5221V38.2195H115.02H117.919V37.2338V36.2482H116.155H114.392V34.8299V33.4116H115.89H117.387V32.402V31.3923H115.89H114.392V30.1182V28.8441H116.107H117.822V27.8345V26.8248H114.972H112.122V32.5221ZM23.1876 28.91C23.5741 29.1143 23.7673 29.3935 23.8654 29.8901C23.9301 30.2175 23.906 30.8759 23.8188 31.1604C23.7233 31.4724 23.4732 31.7818 23.1876 31.9412C22.9271 32.0865 22.9069 32.0898 22.1611 32.1065L21.4002 32.1236V30.4557V28.7879L22.2094 28.8043C22.8838 28.8179 23.0467 28.8355 23.1876 28.91Z" fill="white"/>
<path id="Layer 3" fill-rule="evenodd" clip-rule="evenodd" d="M0 24.2932V47.8833H0.556889C2.005 47.8833 3.90329 48.2156 5.64748 48.7746C7.19564 49.2707 8.29367 49.7553 11.7629 51.4733C14.1111 52.6362 15.0411 53.0574 16.2442 53.5028C20.3582 55.026 24.5272 55.0997 28.6705 53.7225C30.1466 53.2319 31.0775 52.8248 34.1051 51.3457C37.3657 49.7527 38.3464 49.3253 39.8778 48.8298C41.8749 48.1837 43.5695 47.912 45.6023 47.912C47.6349 47.912 49.3295 48.1837 51.3267 48.8298C52.864 49.3271 53.808 49.7349 56.7854 51.188C60.2781 52.8924 61.6568 53.4748 63.3634 53.9668C65.1434 54.48 66.5807 54.6813 68.4758 54.6829C70.5905 54.6847 72.1823 54.4356 74.1977 53.7874C75.7803 53.2784 76.8296 52.8218 80.1421 51.2009C83.4249 49.5944 84.5562 49.1183 86.2545 48.6288C88.0187 48.1202 89.48 47.9129 91.3011 47.9129C93.4675 47.9129 95.0864 48.1846 97.2671 48.9142C98.8024 49.4278 100.037 49.9704 102.797 51.344C107.138 53.5049 109.284 54.2535 112.122 54.5974C113.106 54.7167 115.216 54.7161 116.155 54.5964C117.55 54.4186 118.692 54.1642 119.946 53.7519C121.484 53.2464 122.694 52.7143 125.769 51.1911C127.911 50.1298 128.717 49.7575 129.802 49.3271C132.146 48.3973 134.51 47.8833 136.443 47.8833H137V24.2932V0.703125L136.215 0.732934C134.175 0.810388 132.189 1.2366 130.027 2.06077C128.905 2.48843 128.235 2.79425 125.696 4.03574C124.407 4.66591 123.027 5.32665 122.629 5.50406C119.428 6.92877 116.957 7.50985 114.102 7.50884C112.521 7.50831 111.223 7.34739 109.706 6.96368C107.764 6.47236 106.203 5.83782 102.822 4.16497C99.3228 2.43328 97.7624 1.79331 95.8304 1.29704C94.1521 0.865967 93.1919 0.748271 91.3253 0.744857C89.562 0.741636 88.6148 0.844284 87.0984 1.203C85.0668 1.68354 83.643 2.25616 79.7556 4.15613C77.2426 5.38434 76.5248 5.71344 75.4563 6.12735C73.6379 6.8317 71.8564 7.27037 70.07 7.4536C69.3697 7.52547 67.5625 7.52543 66.8334 7.45355C64.8234 7.25547 62.9839 6.77381 60.8433 5.88503C59.8551 5.47478 58.8255 4.99101 56.8923 4.02867C54.8851 3.0295 54.0729 2.653 52.9877 2.21885C51.0848 1.45743 49.4911 1.04049 47.5829 0.804859C46.8131 0.709808 44.3456 0.725289 43.5492 0.830197C41.3803 1.11593 39.5321 1.6596 37.1529 2.7117C36.6589 2.93017 35.2331 3.60712 33.9843 4.21613C30.6984 5.81859 29.5533 6.29615 27.7814 6.80309C24.2467 7.81443 20.7244 7.75659 17.1733 6.62895C15.6687 6.1512 14.4062 5.5994 11.3281 4.0743C10.1856 3.50822 8.94654 2.90892 8.57458 2.74247C5.66618 1.44103 3.29955 0.830677 0.784996 0.733463L0 0.703125V24.2932ZM47.6553 2.59362C48.9193 2.75517 49.8715 2.98142 51.2062 3.4374C52.4362 3.85761 53.4757 4.31998 56.2782 5.69354C57.6997 6.39019 59.1453 7.08378 59.4907 7.23479C62.927 8.73744 65.7695 9.34549 68.9589 9.26029C70.9897 9.20601 72.7526 8.8998 74.7317 8.25752C76.368 7.72644 77.2647 7.33903 80.3836 5.81532C83.0103 4.5321 83.571 4.27214 84.6105 3.85544C87.0348 2.88373 88.994 2.47982 91.277 2.48097C92.7869 2.4817 93.8522 2.6141 95.3035 2.98133C97.1649 3.45235 98.255 3.90107 102.074 5.76811C105.74 7.56062 107.289 8.18429 109.344 8.69465C111.007 9.10769 112.226 9.24899 114.126 9.24866C116.032 9.24832 117.135 9.11981 118.885 8.69417C120.937 8.19482 122.688 7.491 126.203 5.75157C128.979 4.37815 130.22 3.83193 131.618 3.36783C132.687 3.01316 133.926 2.72555 135.031 2.57574L135.213 2.55122V24.368V46.1848L134.67 46.2434C133.47 46.373 131.961 46.7093 130.64 47.1416C129.109 47.6424 127.706 48.2529 125.081 49.5597C121.436 51.374 119.872 52.0194 118.026 52.4703C116.623 52.8134 115.619 52.9315 114.109 52.9315C112.255 52.9315 110.651 52.6676 108.834 52.0638C107.411 51.5906 106.24 51.0763 103.499 49.7195C101.362 48.662 100.243 48.1456 99.174 47.7235C97.2295 46.9558 95.5498 46.5165 93.5957 46.2646C92.6282 46.1399 90.0224 46.1399 89.0548 46.2646C86.1427 46.64 83.7489 47.4335 80.2043 49.1983C78.5013 50.0462 76.4313 51.0328 75.722 51.3346C73.9355 52.0947 72.318 52.5638 70.6014 52.8198C69.7698 52.9438 67.235 52.9441 66.3986 52.8204C64.5876 52.5525 63.0221 52.0935 61.0857 51.2626C60.6867 51.0913 59.4254 50.4961 58.283 49.9398C54.6746 48.1827 53.804 47.8004 52.1721 47.2561C49.8009 46.4654 47.9424 46.1534 45.6023 46.1534C43.3634 46.1534 41.4638 46.4584 39.2804 47.1685C37.666 47.6935 36.6561 48.1318 33.4771 49.6871C30.3624 51.2108 29.4471 51.6115 27.9907 52.0888C26.0343 52.73 24.4835 52.96 22.3978 52.9181C20.7243 52.8845 19.7141 52.7296 18.0989 52.2586C16.6203 51.8274 15.4024 51.3052 12.3426 49.7904C8.95823 48.1149 7.86074 47.6335 6.19983 47.0959C4.93316 46.6859 3.19308 46.3115 2.13761 46.2219L1.73907 46.1881V24.3645V2.54078L1.89607 2.56622C1.98239 2.58016 2.33567 2.63709 2.68106 2.69266C3.92049 2.89205 5.45667 3.34721 6.88382 3.9379C7.80919 4.32094 8.97543 4.87163 11.0866 5.92239C14.8082 7.77476 16.7755 8.50849 19.2264 8.95822C20.5155 9.19476 21.1718 9.24885 22.7528 9.24885C24.637 9.24885 25.7534 9.12322 27.4145 8.72427C29.4838 8.22723 31.0878 7.59471 34.5157 5.92398C37.2583 4.5873 37.992 4.24892 39.0807 3.81886C41.1205 3.01301 42.8439 2.6143 44.8776 2.47771C45.429 2.44064 46.9579 2.50444 47.6553 2.59362ZM90.1901 15.4042C89.1706 15.6205 88.4652 16.1267 88.0692 16.9263C87.8139 17.4417 87.7281 17.8577 87.7281 18.5794C87.7281 19.2953 87.8139 19.7174 88.0606 20.214C88.2849 20.6654 88.6325 21.0703 89.0474 21.3631C89.4175 21.6244 89.7296 21.7799 90.649 22.1612C91.604 22.5573 91.8014 22.6595 92.0488 22.8865C92.3541 23.1666 92.4776 23.487 92.4493 23.9256C92.4314 24.204 92.3979 24.3222 92.2853 24.5032C91.9362 25.0653 91.1152 25.2351 90.4316 24.8867C90.0128 24.6732 89.6871 24.0767 89.6261 23.4113C89.6103 23.2394 89.584 23.0758 89.5677 23.0476C89.5473 23.0126 89.2117 23.0399 88.5005 23.1346C87.9299 23.2106 87.4568 23.2789 87.4492 23.2864C87.4185 23.3171 87.5481 24.0828 87.657 24.5137C87.9984 25.8649 88.7514 26.6181 90.021 26.8786C90.4342 26.9634 90.6228 26.9744 91.3253 26.9546C92.2332 26.9289 92.5086 26.8739 93.0643 26.6073C93.8511 26.2298 94.3769 25.5884 94.6201 24.7094C94.7399 24.2765 94.7398 23.0885 94.62 22.642C94.3216 21.5304 93.6114 20.8856 91.9683 20.2346C91.2943 19.9676 90.589 19.6019 90.342 19.3915C89.9777 19.0812 89.8278 18.6076 89.9449 18.1373C90.0822 17.5862 90.4459 17.3025 91.0608 17.2671C91.3872 17.2483 91.4703 17.2612 91.7032 17.3673C92.146 17.5691 92.4119 18.0612 92.4905 18.8243C92.5201 19.1126 92.5315 19.1372 92.6245 19.116C92.6805 19.1033 93.1581 19.0329 93.6861 18.9597L94.6459 18.8265L94.6155 18.5346C94.5622 18.0211 94.3956 17.4381 94.1701 16.9754C93.7909 16.1977 93.1588 15.6843 92.2914 15.4493C91.8925 15.3412 90.6159 15.3138 90.1901 15.4042ZM43.67 21.1516V26.8729H44.8052H45.9404V21.1516V15.4302H44.8052H43.67V21.1516ZM19.1298 32.5187V38.2195H20.265H21.4002V36.126V34.0326L21.7714 34.0466L22.1426 34.0607L23.1119 36.1389L24.0813 38.2171L25.3252 38.2183C26.1266 38.219 26.5691 38.2023 26.5691 38.1712C26.5691 38.1446 26.0691 37.1278 25.458 35.9117C24.847 34.6955 24.347 33.6908 24.347 33.6791C24.347 33.6673 24.4829 33.586 24.6489 33.4986C25.032 33.2967 25.5342 32.799 25.7311 32.426C26.0866 31.7526 26.2373 30.8222 26.1413 29.8936C26.1103 29.5941 26.0511 29.2192 26.0097 29.0605C25.7973 28.2461 25.2264 27.5215 24.5395 27.1943C23.849 26.8653 23.796 26.8594 21.3398 26.8376L19.1298 26.818V32.5187ZM64.2006 32.5221V38.2195H65.239H66.2772L66.2896 34.6209L66.302 31.0223L67.6029 34.2242C68.3185 35.9853 68.9782 37.6046 69.0691 37.8228L69.2343 38.2195H70.3888H71.5434V32.5221V26.8248H70.5051H69.4668L69.4544 30.4425L69.442 34.0601L68.4111 31.5122C67.844 30.1109 67.1839 28.4829 66.9441 27.8946L66.508 26.8248H65.3544H64.2006V32.5221ZM112.122 32.5221V38.2195H115.02H117.919V37.2338V36.2482H116.155H114.392V34.8299V33.4116H115.89H117.387V32.402V31.3923H115.89H114.392V30.1182V28.8441H116.107H117.822V27.8345V26.8248H114.972H112.122V32.5221ZM23.1876 28.91C23.5741 29.1143 23.7673 29.3935 23.8654 29.8901C23.9301 30.2175 23.906 30.8759 23.8188 31.1604C23.7233 31.4724 23.4732 31.7818 23.1876 31.9412C22.9271 32.0865 22.9069 32.0898 22.1611 32.1065L21.4002 32.1236V30.4557V28.7879L22.2094 28.8043C22.8838 28.8179 23.0467 28.8355 23.1876 28.91Z" fill="white"/>
<path id="Layer 4" fill-rule="evenodd" clip-rule="evenodd" d="M0 24.2932V47.8833H0.556889C2.005 47.8833 3.90329 48.2156 5.64748 48.7746C7.19564 49.2707 8.29367 49.7553 11.7629 51.4733C14.1111 52.6362 15.0411 53.0574 16.2442 53.5028C20.3582 55.026 24.5272 55.0997 28.6705 53.7225C30.1466 53.2319 31.0775 52.8248 34.1051 51.3457C37.3657 49.7527 38.3464 49.3253 39.8778 48.8298C41.8749 48.1837 43.5695 47.912 45.6023 47.912C47.6349 47.912 49.3295 48.1837 51.3267 48.8298C52.864 49.3271 53.808 49.7349 56.7854 51.188C60.2781 52.8924 61.6568 53.4748 63.3634 53.9668C65.1434 54.48 66.5807 54.6813 68.4758 54.6829C70.5905 54.6847 72.1823 54.4356 74.1977 53.7874C75.7803 53.2784 76.8296 52.8218 80.1421 51.2009C83.4249 49.5944 84.5562 49.1183 86.2545 48.6288C88.0187 48.1202 89.48 47.9129 91.3011 47.9129C93.4675 47.9129 95.0864 48.1846 97.2671 48.9142C98.8024 49.4278 100.037 49.9704 102.797 51.344C107.138 53.5049 109.284 54.2535 112.122 54.5974C113.106 54.7167 115.216 54.7161 116.155 54.5964C117.55 54.4186 118.692 54.1642 119.946 53.7519C121.484 53.2464 122.694 52.7143 125.769 51.1911C127.911 50.1298 128.717 49.7575 129.802 49.3271C132.146 48.3973 134.51 47.8833 136.443 47.8833H137V24.2932V0.703125L136.215 0.732934C134.175 0.810388 132.189 1.2366 130.027 2.06077C128.905 2.48843 128.235 2.79425 125.696 4.03574C124.407 4.66591 123.027 5.32665 122.629 5.50406C119.428 6.92877 116.957 7.50985 114.102 7.50884C112.521 7.50831 111.223 7.34739 109.706 6.96368C107.764 6.47236 106.203 5.83782 102.822 4.16497C99.3228 2.43328 97.7624 1.79331 95.8304 1.29704C94.1521 0.865967 93.1919 0.748271 91.3253 0.744857C89.562 0.741636 88.6148 0.844284 87.0984 1.203C85.0668 1.68354 83.643 2.25616 79.7556 4.15613C77.2426 5.38434 76.5248 5.71344 75.4563 6.12735C73.6379 6.8317 71.8564 7.27037 70.07 7.4536C69.3697 7.52547 67.5625 7.52543 66.8334 7.45355C64.8234 7.25547 62.9839 6.77381 60.8433 5.88503C59.8551 5.47478 58.8255 4.99101 56.8923 4.02867C54.8851 3.0295 54.0729 2.653 52.9877 2.21885C51.0848 1.45743 49.4911 1.04049 47.5829 0.804859C46.8131 0.709808 44.3456 0.725289 43.5492 0.830197C41.3803 1.11593 39.5321 1.6596 37.1529 2.7117C36.6589 2.93017 35.2331 3.60712 33.9843 4.21613C30.6984 5.81859 29.5533 6.29615 27.7814 6.80309C24.2467 7.81443 20.7244 7.75659 17.1733 6.62895C15.6687 6.1512 14.4062 5.5994 11.3281 4.0743C10.1856 3.50822 8.94654 2.90892 8.57458 2.74247C5.66618 1.44103 3.29955 0.830677 0.784996 0.733463L0 0.703125V24.2932ZM47.6553 2.59362C48.9193 2.75517 49.8715 2.98142 51.2062 3.4374C52.4362 3.85761 53.4757 4.31998 56.2782 5.69354C57.6997 6.39019 59.1453 7.08378 59.4907 7.23479C62.927 8.73744 65.7695 9.34549 68.9589 9.26029C70.9897 9.20601 72.7526 8.8998 74.7317 8.25752C76.368 7.72644 77.2647 7.33903 80.3836 5.81532C83.0103 4.5321 83.571 4.27214 84.6105 3.85544C87.0348 2.88373 88.994 2.47982 91.277 2.48097C92.7869 2.4817 93.8522 2.6141 95.3035 2.98133C97.1649 3.45235 98.255 3.90107 102.074 5.76811C105.74 7.56062 107.289 8.18429 109.344 8.69465C111.007 9.10769 112.226 9.24899 114.126 9.24866C116.032 9.24832 117.135 9.11981 118.885 8.69417C120.937 8.19482 122.688 7.491 126.203 5.75157C128.979 4.37815 130.22 3.83193 131.618 3.36783C132.687 3.01316 133.926 2.72555 135.031 2.57574L135.213 2.55122V24.368V46.1848L134.67 46.2434C133.47 46.373 131.961 46.7093 130.64 47.1416C129.109 47.6424 127.706 48.2529 125.081 49.5597C121.436 51.374 119.872 52.0194 118.026 52.4703C116.623 52.8134 115.619 52.9315 114.109 52.9315C112.255 52.9315 110.651 52.6676 108.834 52.0638C107.411 51.5906 106.24 51.0763 103.499 49.7195C101.362 48.662 100.243 48.1456 99.174 47.7235C97.2295 46.9558 95.5498 46.5165 93.5957 46.2646C92.6282 46.1399 90.0224 46.1399 89.0548 46.2646C86.1427 46.64 83.7489 47.4335 80.2043 49.1983C78.5013 50.0462 76.4313 51.0328 75.722 51.3346C73.9355 52.0947 72.318 52.5638 70.6014 52.8198C69.7698 52.9438 67.235 52.9441 66.3986 52.8204C64.5876 52.5525 63.0221 52.0935 61.0857 51.2626C60.6867 51.0913 59.4254 50.4961 58.283 49.9398C54.6746 48.1827 53.804 47.8004 52.1721 47.2561C49.8009 46.4654 47.9424 46.1534 45.6023 46.1534C43.3634 46.1534 41.4638 46.4584 39.2804 47.1685C37.666 47.6935 36.6561 48.1318 33.4771 49.6871C30.3624 51.2108 29.4471 51.6115 27.9907 52.0888C26.0343 52.73 24.4835 52.96 22.3978 52.9181C20.7243 52.8845 19.7141 52.7296 18.0989 52.2586C16.6203 51.8274 15.4024 51.3052 12.3426 49.7904C8.95823 48.1149 7.86074 47.6335 6.19983 47.0959C4.93316 46.6859 3.19308 46.3115 2.13761 46.2219L1.73907 46.1881V24.3645V2.54078L1.89607 2.56622C1.98239 2.58016 2.33567 2.63709 2.68106 2.69266C3.92049 2.89205 5.45667 3.34721 6.88382 3.9379C7.80919 4.32094 8.97543 4.87163 11.0866 5.92239C14.8082 7.77476 16.7755 8.50849 19.2264 8.95822C20.5155 9.19476 21.1718 9.24885 22.7528 9.24885C24.637 9.24885 25.7534 9.12322 27.4145 8.72427C29.4838 8.22723 31.0878 7.59471 34.5157 5.92398C37.2583 4.5873 37.992 4.24892 39.0807 3.81886C41.1205 3.01301 42.8439 2.6143 44.8776 2.47771C45.429 2.44064 46.9579 2.50444 47.6553 2.59362ZM90.1901 15.4042C89.1706 15.6205 88.4652 16.1267 88.0692 16.9263C87.8139 17.4417 87.7281 17.8577 87.7281 18.5794C87.7281 19.2953 87.8139 19.7174 88.0606 20.214C88.2849 20.6654 88.6325 21.0703 89.0474 21.3631C89.4175 21.6244 89.7296 21.7799 90.649 22.1612C91.604 22.5573 91.8014 22.6595 92.0488 22.8865C92.3541 23.1666 92.4776 23.487 92.4493 23.9256C92.4314 24.204 92.3979 24.3222 92.2853 24.5032C91.9362 25.0653 91.1152 25.2351 90.4316 24.8867C90.0128 24.6732 89.6871 24.0767 89.6261 23.4113C89.6103 23.2394 89.584 23.0758 89.5677 23.0476C89.5473 23.0126 89.2117 23.0399 88.5005 23.1346C87.9299 23.2106 87.4568 23.2789 87.4492 23.2864C87.4185 23.3171 87.5481 24.0828 87.657 24.5137C87.9984 25.8649 88.7514 26.6181 90.021 26.8786C90.4342 26.9634 90.6228 26.9744 91.3253 26.9546C92.2332 26.9289 92.5086 26.8739 93.0643 26.6073C93.8511 26.2298 94.3769 25.5884 94.6201 24.7094C94.7399 24.2765 94.7398 23.0885 94.62 22.642C94.3216 21.5304 93.6114 20.8856 91.9683 20.2346C91.2943 19.9676 90.589 19.6019 90.342 19.3915C89.9777 19.0812 89.8278 18.6076 89.9449 18.1373C90.0822 17.5862 90.4459 17.3025 91.0608 17.2671C91.3872 17.2483 91.4703 17.2612 91.7032 17.3673C92.146 17.5691 92.4119 18.0612 92.4905 18.8243C92.5201 19.1126 92.5315 19.1372 92.6245 19.116C92.6805 19.1033 93.1581 19.0329 93.6861 18.9597L94.6459 18.8265L94.6155 18.5346C94.5622 18.0211 94.3956 17.4381 94.1701 16.9754C93.7909 16.1977 93.1588 15.6843 92.2914 15.4493C91.8925 15.3412 90.6159 15.3138 90.1901 15.4042ZM43.67 21.1516V26.8729H44.8052H45.9404V21.1516V15.4302H44.8052H43.67V21.1516ZM19.1298 32.5187V38.2195H20.265H21.4002V36.126V34.0326L21.7714 34.0466L22.1426 34.0607L23.1119 36.1389L24.0813 38.2171L25.3252 38.2183C26.1266 38.219 26.5691 38.2023 26.5691 38.1712C26.5691 38.1446 26.0691 37.1278 25.458 35.9117C24.847 34.6955 24.347 33.6908 24.347 33.6791C24.347 33.6673 24.4829 33.586 24.6489 33.4986C25.032 33.2967 25.5342 32.799 25.7311 32.426C26.0866 31.7526 26.2373 30.8222 26.1413 29.8936C26.1103 29.5941 26.0511 29.2192 26.0097 29.0605C25.7973 28.2461 25.2264 27.5215 24.5395 27.1943C23.849 26.8653 23.796 26.8594 21.3398 26.8376L19.1298 26.818V32.5187ZM64.2006 32.5221V38.2195H65.239H66.2772L66.2896 34.6209L66.302 31.0223L67.6029 34.2242C68.3185 35.9853 68.9782 37.6046 69.0691 37.8228L69.2343 38.2195H70.3888H71.5434V32.5221V26.8248H70.5051H69.4668L69.4544 30.4425L69.442 34.0601L68.4111 31.5122C67.844 30.1109 67.1839 28.4829 66.9441 27.8946L66.508 26.8248H65.3544H64.2006V32.5221ZM112.122 32.5221V38.2195H115.02H117.919V37.2338V36.2482H116.155H114.392V34.8299V33.4116H115.89H117.387V32.402V31.3923H115.89H114.392V30.1182V28.8441H116.107H117.822V27.8345V26.8248H114.972H112.122V32.5221ZM23.1876 28.91C23.5741 29.1143 23.7673 29.3935 23.8654 29.8901C23.9301 30.2175 23.906 30.8759 23.8188 31.1604C23.7233 31.4724 23.4732 31.7818 23.1876 31.9412C22.9271 32.0865 22.9069 32.0898 22.1611 32.1065L21.4002 32.1236V30.4557V28.7879L22.2094 28.8043C22.8838 28.8179 23.0467 28.8355 23.1876 28.91Z" fill="white"/>
<path id="Layer 5" fill-rule="evenodd" clip-rule="evenodd" d="M0 24.2932V47.8833H0.556889C2.005 47.8833 3.90329 48.2156 5.64748 48.7746C7.19564 49.2707 8.29367 49.7553 11.7629 51.4733C14.1111 52.6362 15.0411 53.0574 16.2442 53.5028C20.3582 55.026 24.5272 55.0997 28.6705 53.7225C30.1466 53.2319 31.0775 52.8248 34.1051 51.3457C37.3657 49.7527 38.3464 49.3253 39.8778 48.8298C41.8749 48.1837 43.5695 47.912 45.6023 47.912C47.6349 47.912 49.3295 48.1837 51.3267 48.8298C52.864 49.3271 53.808 49.7349 56.7854 51.188C60.2781 52.8924 61.6568 53.4748 63.3634 53.9668C65.1434 54.48 66.5807 54.6813 68.4758 54.6829C70.5905 54.6847 72.1823 54.4356 74.1977 53.7874C75.7803 53.2784 76.8296 52.8218 80.1421 51.2009C83.4249 49.5944 84.5562 49.1183 86.2545 48.6288C88.0187 48.1202 89.48 47.9129 91.3011 47.9129C93.4675 47.9129 95.0864 48.1846 97.2671 48.9142C98.8024 49.4278 100.037 49.9704 102.797 51.344C107.138 53.5049 109.284 54.2535 112.122 54.5974C113.106 54.7167 115.216 54.7161 116.155 54.5964C117.55 54.4186 118.692 54.1642 119.946 53.7519C121.484 53.2464 122.694 52.7143 125.769 51.1911C127.911 50.1298 128.717 49.7575 129.802 49.3271C132.146 48.3973 134.51 47.8833 136.443 47.8833H137V24.2932V0.703125L136.215 0.732934C134.175 0.810388 132.189 1.2366 130.027 2.06077C128.905 2.48843 128.235 2.79425 125.696 4.03574C124.407 4.66591 123.027 5.32665 122.629 5.50406C119.428 6.92877 116.957 7.50985 114.102 7.50884C112.521 7.50831 111.223 7.34739 109.706 6.96368C107.764 6.47236 106.203 5.83782 102.822 4.16497C99.3228 2.43328 97.7624 1.79331 95.8304 1.29704C94.1521 0.865967 93.1919 0.748271 91.3253 0.744857C89.562 0.741636 88.6148 0.844284 87.0984 1.203C85.0668 1.68354 83.643 2.25616 79.7556 4.15613C77.2426 5.38434 76.5248 5.71344 75.4563 6.12735C73.6379 6.8317 71.8564 7.27037 70.07 7.4536C69.3697 7.52547 67.5625 7.52543 66.8334 7.45355C64.8234 7.25547 62.9839 6.77381 60.8433 5.88503C59.8551 5.47478 58.8255 4.99101 56.8923 4.02867C54.8851 3.0295 54.0729 2.653 52.9877 2.21885C51.0848 1.45743 49.4911 1.04049 47.5829 0.804859C46.8131 0.709808 44.3456 0.725289 43.5492 0.830197C41.3803 1.11593 39.5321 1.6596 37.1529 2.7117C36.6589 2.93017 35.2331 3.60712 33.9843 4.21613C30.6984 5.81859 29.5533 6.29615 27.7814 6.80309C24.2467 7.81443 20.7244 7.75659 17.1733 6.62895C15.6687 6.1512 14.4062 5.5994 11.3281 4.0743C10.1856 3.50822 8.94654 2.90892 8.57458 2.74247C5.66618 1.44103 3.29955 0.830677 0.784996 0.733463L0 0.703125V24.2932ZM47.6553 2.59362C48.9193 2.75517 49.8715 2.98142 51.2062 3.4374C52.4362 3.85761 53.4757 4.31998 56.2782 5.69354C57.6997 6.39019 59.1453 7.08378 59.4907 7.23479C62.927 8.73744 65.7695 9.34549 68.9589 9.26029C70.9897 9.20601 72.7526 8.8998 74.7317 8.25752C76.368 7.72644 77.2647 7.33903 80.3836 5.81532C83.0103 4.5321 83.571 4.27214 84.6105 3.85544C87.0348 2.88373 88.994 2.47982 91.277 2.48097C92.7869 2.4817 93.8522 2.6141 95.3035 2.98133C97.1649 3.45235 98.255 3.90107 102.074 5.76811C105.74 7.56062 107.289 8.18429 109.344 8.69465C111.007 9.10769 112.226 9.24899 114.126 9.24866C116.032 9.24832 117.135 9.11981 118.885 8.69417C120.937 8.19482 122.688 7.491 126.203 5.75157C128.979 4.37815 130.22 3.83193 131.618 3.36783C132.687 3.01316 133.926 2.72555 135.031 2.57574L135.213 2.55122V24.368V46.1848L134.67 46.2434C133.47 46.373 131.961 46.7093 130.64 47.1416C129.109 47.6424 127.706 48.2529 125.081 49.5597C121.436 51.374 119.872 52.0194 118.026 52.4703C116.623 52.8134 115.619 52.9315 114.109 52.9315C112.255 52.9315 110.651 52.6676 108.834 52.0638C107.411 51.5906 106.24 51.0763 103.499 49.7195C101.362 48.662 100.243 48.1456 99.174 47.7235C97.2295 46.9558 95.5498 46.5165 93.5957 46.2646C92.6282 46.1399 90.0224 46.1399 89.0548 46.2646C86.1427 46.64 83.7489 47.4335 80.2043 49.1983C78.5013 50.0462 76.4313 51.0328 75.722 51.3346C73.9355 52.0947 72.318 52.5638 70.6014 52.8198C69.7698 52.9438 67.235 52.9441 66.3986 52.8204C64.5876 52.5525 63.0221 52.0935 61.0857 51.2626C60.6867 51.0913 59.4254 50.4961 58.283 49.9398C54.6746 48.1827 53.804 47.8004 52.1721 47.2561C49.8009 46.4654 47.9424 46.1534 45.6023 46.1534C43.3634 46.1534 41.4638 46.4584 39.2804 47.1685C37.666 47.6935 36.6561 48.1318 33.4771 49.6871C30.3624 51.2108 29.4471 51.6115 27.9907 52.0888C26.0343 52.73 24.4835 52.96 22.3978 52.9181C20.7243 52.8845 19.7141 52.7296 18.0989 52.2586C16.6203 51.8274 15.4024 51.3052 12.3426 49.7904C8.95823 48.1149 7.86074 47.6335 6.19983 47.0959C4.93316 46.6859 3.19308 46.3115 2.13761 46.2219L1.73907 46.1881V24.3645V2.54078L1.89607 2.56622C1.98239 2.58016 2.33567 2.63709 2.68106 2.69266C3.92049 2.89205 5.45667 3.34721 6.88382 3.9379C7.80919 4.32094 8.97543 4.87163 11.0866 5.92239C14.8082 7.77476 16.7755 8.50849 19.2264 8.95822C20.5155 9.19476 21.1718 9.24885 22.7528 9.24885C24.637 9.24885 25.7534 9.12322 27.4145 8.72427C29.4838 8.22723 31.0878 7.59471 34.5157 5.92398C37.2583 4.5873 37.992 4.24892 39.0807 3.81886C41.1205 3.01301 42.8439 2.6143 44.8776 2.47771C45.429 2.44064 46.9579 2.50444 47.6553 2.59362ZM90.1901 15.4042C89.1706 15.6205 88.4652 16.1267 88.0692 16.9263C87.8139 17.4417 87.7281 17.8577 87.7281 18.5794C87.7281 19.2953 87.8139 19.7174 88.0606 20.214C88.2849 20.6654 88.6325 21.0703 89.0474 21.3631C89.4175 21.6244 89.7296 21.7799 90.649 22.1612C91.604 22.5573 91.8014 22.6595 92.0488 22.8865C92.3541 23.1666 92.4776 23.487 92.4493 23.9256C92.4314 24.204 92.3979 24.3222 92.2853 24.5032C91.9362 25.0653 91.1152 25.2351 90.4316 24.8867C90.0128 24.6732 89.6871 24.0767 89.6261 23.4113C89.6103 23.2394 89.584 23.0758 89.5677 23.0476C89.5473 23.0126 89.2117 23.0399 88.5005 23.1346C87.9299 23.2106 87.4568 23.2789 87.4492 23.2864C87.4185 23.3171 87.5481 24.0828 87.657 24.5137C87.9984 25.8649 88.7514 26.6181 90.021 26.8786C90.4342 26.9634 90.6228 26.9744 91.3253 26.9546C92.2332 26.9289 92.5086 26.8739 93.0643 26.6073C93.8511 26.2298 94.3769 25.5884 94.6201 24.7094C94.7399 24.2765 94.7398 23.0885 94.62 22.642C94.3216 21.5304 93.6114 20.8856 91.9683 20.2346C91.2943 19.9676 90.589 19.6019 90.342 19.3915C89.9777 19.0812 89.8278 18.6076 89.9449 18.1373C90.0822 17.5862 90.4459 17.3025 91.0608 17.2671C91.3872 17.2483 91.4703 17.2612 91.7032 17.3673C92.146 17.5691 92.4119 18.0612 92.4905 18.8243C92.5201 19.1126 92.5315 19.1372 92.6245 19.116C92.6805 19.1033 93.1581 19.0329 93.6861 18.9597L94.6459 18.8265L94.6155 18.5346C94.5622 18.0211 94.3956 17.4381 94.1701 16.9754C93.7909 16.1977 93.1588 15.6843 92.2914 15.4493C91.8925 15.3412 90.6159 15.3138 90.1901 15.4042ZM43.67 21.1516V26.8729H44.8052H45.9404V21.1516V15.4302H44.8052H43.67V21.1516ZM19.1298 32.5187V38.2195H20.265H21.4002V36.126V34.0326L21.7714 34.0466L22.1426 34.0607L23.1119 36.1389L24.0813 38.2171L25.3252 38.2183C26.1266 38.219 26.5691 38.2023 26.5691 38.1712C26.5691 38.1446 26.0691 37.1278 25.458 35.9117C24.847 34.6955 24.347 33.6908 24.347 33.6791C24.347 33.6673 24.4829 33.586 24.6489 33.4986C25.032 33.2967 25.5342 32.799 25.7311 32.426C26.0866 31.7526 26.2373 30.8222 26.1413 29.8936C26.1103 29.5941 26.0511 29.2192 26.0097 29.0605C25.7973 28.2461 25.2264 27.5215 24.5395 27.1943C23.849 26.8653 23.796 26.8594 21.3398 26.8376L19.1298 26.818V32.5187ZM64.2006 32.5221V38.2195H65.239H66.2772L66.2896 34.6209L66.302 31.0223L67.6029 34.2242C68.3185 35.9853 68.9782 37.6046 69.0691 37.8228L69.2343 38.2195H70.3888H71.5434V32.5221V26.8248H70.5051H69.4668L69.4544 30.4425L69.442 34.0601L68.4111 31.5122C67.844 30.1109 67.1839 28.4829 66.9441 27.8946L66.508 26.8248H65.3544H64.2006V32.5221ZM112.122 32.5221V38.2195H115.02H117.919V37.2338V36.2482H116.155H114.392V34.8299V33.4116H115.89H117.387V32.402V31.3923H115.89H114.392V30.1182V28.8441H116.107H117.822V27.8345V26.8248H114.972H112.122V32.5221ZM23.1876 28.91C23.5741 29.1143 23.7673 29.3935 23.8654 29.8901C23.9301 30.2175 23.906 30.8759 23.8188 31.1604C23.7233 31.4724 23.4732 31.7818 23.1876 31.9412C22.9271 32.0865 22.9069 32.0898 22.1611 32.1065L21.4002 32.1236V30.4557V28.7879L22.2094 28.8043C22.8838 28.8179 23.0467 28.8355 23.1876 28.91Z" fill="white"/>
<path id="Layer 6" fill-rule="evenodd" clip-rule="evenodd" d="M0 24.2932V47.8833H0.556889C2.005 47.8833 3.90329 48.2156 5.64748 48.7746C7.19564 49.2707 8.29367 49.7553 11.7629 51.4733C14.1111 52.6362 15.0411 53.0574 16.2442 53.5028C20.3582 55.026 24.5272 55.0997 28.6705 53.7225C30.1466 53.2319 31.0775 52.8248 34.1051 51.3457C37.3657 49.7527 38.3464 49.3253 39.8778 48.8298C41.8749 48.1837 43.5695 47.912 45.6023 47.912C47.6349 47.912 49.3295 48.1837 51.3267 48.8298C52.864 49.3271 53.808 49.7349 56.7854 51.188C60.2781 52.8924 61.6568 53.4748 63.3634 53.9668C65.1434 54.48 66.5807 54.6813 68.4758 54.6829C70.5905 54.6847 72.1823 54.4356 74.1977 53.7874C75.7803 53.2784 76.8296 52.8218 80.1421 51.2009C83.4249 49.5944 84.5562 49.1183 86.2545 48.6288C88.0187 48.1202 89.48 47.9129 91.3011 47.9129C93.4675 47.9129 95.0864 48.1846 97.2671 48.9142C98.8024 49.4278 100.037 49.9704 102.797 51.344C107.138 53.5049 109.284 54.2535 112.122 54.5974C113.106 54.7167 115.216 54.7161 116.155 54.5964C117.55 54.4186 118.692 54.1642 119.946 53.7519C121.484 53.2464 122.694 52.7143 125.769 51.1911C127.911 50.1298 128.717 49.7575 129.802 49.3271C132.146 48.3973 134.51 47.8833 136.443 47.8833H137V24.2932V0.703125L136.215 0.732934C134.175 0.810388 132.189 1.2366 130.027 2.06077C128.905 2.48843 128.235 2.79425 125.696 4.03574C124.407 4.66591 123.027 5.32665 122.629 5.50406C119.428 6.92877 116.957 7.50985 114.102 7.50884C112.521 7.50831 111.223 7.34739 109.706 6.96368C107.764 6.47236 106.203 5.83782 102.822 4.16497C99.3228 2.43328 97.7624 1.79331 95.8304 1.29704C94.1521 0.865967 93.1919 0.748271 91.3253 0.744857C89.562 0.741636 88.6148 0.844284 87.0984 1.203C85.0668 1.68354 83.643 2.25616 79.7556 4.15613C77.2426 5.38434 76.5248 5.71344 75.4563 6.12735C73.6379 6.8317 71.8564 7.27037 70.07 7.4536C69.3697 7.52547 67.5625 7.52543 66.8334 7.45355C64.8234 7.25547 62.9839 6.77381 60.8433 5.88503C59.8551 5.47478 58.8255 4.99101 56.8923 4.02867C54.8851 3.0295 54.0729 2.653 52.9877 2.21885C51.0848 1.45743 49.4911 1.04049 47.5829 0.804859C46.8131 0.709808 44.3456 0.725289 43.5492 0.830197C41.3803 1.11593 39.5321 1.6596 37.1529 2.7117C36.6589 2.93017 35.2331 3.60712 33.9843 4.21613C30.6984 5.81859 29.5533 6.29615 27.7814 6.80309C24.2467 7.81443 20.7244 7.75659 17.1733 6.62895C15.6687 6.1512 14.4062 5.5994 11.3281 4.0743C10.1856 3.50822 8.94654 2.90892 8.57458 2.74247C5.66618 1.44103 3.29955 0.830677 0.784996 0.733463L0 0.703125V24.2932ZM47.6553 2.59362C48.9193 2.75517 49.8715 2.98142 51.2062 3.4374C52.4362 3.85761 53.4757 4.31998 56.2782 5.69354C57.6997 6.39019 59.1453 7.08378 59.4907 7.23479C62.927 8.73744 65.7695 9.34549 68.9589 9.26029C70.9897 9.20601 72.7526 8.8998 74.7317 8.25752C76.368 7.72644 77.2647 7.33903 80.3836 5.81532C83.0103 4.5321 83.571 4.27214 84.6105 3.85544C87.0348 2.88373 88.994 2.47982 91.277 2.48097C92.7869 2.4817 93.8522 2.6141 95.3035 2.98133C97.1649 3.45235 98.255 3.90107 102.074 5.76811C105.74 7.56062 107.289 8.18429 109.344 8.69465C111.007 9.10769 112.226 9.24899 114.126 9.24866C116.032 9.24832 117.135 9.11981 118.885 8.69417C120.937 8.19482 122.688 7.491 126.203 5.75157C128.979 4.37815 130.22 3.83193 131.618 3.36783C132.687 3.01316 133.926 2.72555 135.031 2.57574L135.213 2.55122V24.368V46.1848L134.67 46.2434C133.47 46.373 131.961 46.7093 130.64 47.1416C129.109 47.6424 127.706 48.2529 125.081 49.5597C121.436 51.374 119.872 52.0194 118.026 52.4703C116.623 52.8134 115.619 52.9315 114.109 52.9315C112.255 52.9315 110.651 52.6676 108.834 52.0638C107.411 51.5906 106.24 51.0763 103.499 49.7195C101.362 48.662 100.243 48.1456 99.174 47.7235C97.2295 46.9558 95.5498 46.5165 93.5957 46.2646C92.6282 46.1399 90.0224 46.1399 89.0548 46.2646C86.1427 46.64 83.7489 47.4335 80.2043 49.1983C78.5013 50.0462 76.4313 51.0328 75.722 51.3346C73.9355 52.0947 72.318 52.5638 70.6014 52.8198C69.7698 52.9438 67.235 52.9441 66.3986 52.8204C64.5876 52.5525 63.0221 52.0935 61.0857 51.2626C60.6867 51.0913 59.4254 50.4961 58.283 49.9398C54.6746 48.1827 53.804 47.8004 52.1721 47.2561C49.8009 46.4654 47.9424 46.1534 45.6023 46.1534C43.3634 46.1534 41.4638 46.4584 39.2804 47.1685C37.666 47.6935 36.6561 48.1318 33.4771 49.6871C30.3624 51.2108 29.4471 51.6115 27.9907 52.0888C26.0343 52.73 24.4835 52.96 22.3978 52.9181C20.7243 52.8845 19.7141 52.7296 18.0989 52.2586C16.6203 51.8274 15.4024 51.3052 12.3426 49.7904C8.95823 48.1149 7.86074 47.6335 6.19983 47.0959C4.93316 46.6859 3.19308 46.3115 2.13761 46.2219L1.73907 46.1881V24.3645V2.54078L1.89607 2.56622C1.98239 2.58016 2.33567 2.63709 2.68106 2.69266C3.92049 2.89205 5.45667 3.34721 6.88382 3.9379C7.80919 4.32094 8.97543 4.87163 11.0866 5.92239C14.8082 7.77476 16.7755 8.50849 19.2264 8.95822C20.5155 9.19476 21.1718 9.24885 22.7528 9.24885C24.637 9.24885 25.7534 9.12322 27.4145 8.72427C29.4838 8.22723 31.0878 7.59471 34.5157 5.92398C37.2583 4.5873 37.992 4.24892 39.0807 3.81886C41.1205 3.01301 42.8439 2.6143 44.8776 2.47771C45.429 2.44064 46.9579 2.50444 47.6553 2.59362ZM90.1901 15.4042C89.1706 15.6205 88.4652 16.1267 88.0692 16.9263C87.8139 17.4417 87.7281 17.8577 87.7281 18.5794C87.7281 19.2953 87.8139 19.7174 88.0606 20.214C88.2849 20.6654 88.6325 21.0703 89.0474 21.3631C89.4175 21.6244 89.7296 21.7799 90.649 22.1612C91.604 22.5573 91.8014 22.6595 92.0488 22.8865C92.3541 23.1666 92.4776 23.487 92.4493 23.9256C92.4314 24.204 92.3979 24.3222 92.2853 24.5032C91.9362 25.0653 91.1152 25.2351 90.4316 24.8867C90.0128 24.6732 89.6871 24.0767 89.6261 23.4113C89.6103 23.2394 89.584 23.0758 89.5677 23.0476C89.5473 23.0126 89.2117 23.0399 88.5005 23.1346C87.9299 23.2106 87.4568 23.2789 87.4492 23.2864C87.4185 23.3171 87.5481 24.0828 87.657 24.5137C87.9984 25.8649 88.7514 26.6181 90.021 26.8786C90.4342 26.9634 90.6228 26.9744 91.3253 26.9546C92.2332 26.9289 92.5086 26.8739 93.0643 26.6073C93.8511 26.2298 94.3769 25.5884 94.6201 24.7094C94.7399 24.2765 94.7398 23.0885 94.62 22.642C94.3216 21.5304 93.6114 20.8856 91.9683 20.2346C91.2943 19.9676 90.589 19.6019 90.342 19.3915C89.9777 19.0812 89.8278 18.6076 89.9449 18.1373C90.0822 17.5862 90.4459 17.3025 91.0608 17.2671C91.3872 17.2483 91.4703 17.2612 91.7032 17.3673C92.146 17.5691 92.4119 18.0612 92.4905 18.8243C92.5201 19.1126 92.5315 19.1372 92.6245 19.116C92.6805 19.1033 93.1581 19.0329 93.6861 18.9597L94.6459 18.8265L94.6155 18.5346C94.5622 18.0211 94.3956 17.4381 94.1701 16.9754C93.7909 16.1977 93.1588 15.6843 92.2914 15.4493C91.8925 15.3412 90.6159 15.3138 90.1901 15.4042ZM43.67 21.1516V26.8729H44.8052H45.9404V21.1516V15.4302H44.8052H43.67V21.1516ZM19.1298 32.5187V38.2195H20.265H21.4002V36.126V34.0326L21.7714 34.0466L22.1426 34.0607L23.1119 36.1389L24.0813 38.2171L25.3252 38.2183C26.1266 38.219 26.5691 38.2023 26.5691 38.1712C26.5691 38.1446 26.0691 37.1278 25.458 35.9117C24.847 34.6955 24.347 33.6908 24.347 33.6791C24.347 33.6673 24.4829 33.586 24.6489 33.4986C25.032 33.2967 25.5342 32.799 25.7311 32.426C26.0866 31.7526 26.2373 30.8222 26.1413 29.8936C26.1103 29.5941 26.0511 29.2192 26.0097 29.0605C25.7973 28.2461 25.2264 27.5215 24.5395 27.1943C23.849 26.8653 23.796 26.8594 21.3398 26.8376L19.1298 26.818V32.5187ZM64.2006 32.5221V38.2195H65.239H66.2772L66.2896 34.6209L66.302 31.0223L67.6029 34.2242C68.3185 35.9853 68.9782 37.6046 69.0691 37.8228L69.2343 38.2195H70.3888H71.5434V32.5221V26.8248H70.5051H69.4668L69.4544 30.4425L69.442 34.0601L68.4111 31.5122C67.844 30.1109 67.1839 28.4829 66.9441 27.8946L66.508 26.8248H65.3544H64.2006V32.5221ZM112.122 32.5221V38.2195H115.02H117.919V37.2338V36.2482H116.155H114.392V34.8299V33.4116H115.89H117.387V32.402V31.3923H115.89H114.392V30.1182V28.8441H116.107H117.822V27.8345V26.8248H114.972H112.122V32.5221ZM23.1876 28.91C23.5741 29.1143 23.7673 29.3935 23.8654 29.8901C23.9301 30.2175 23.906 30.8759 23.8188 31.1604C23.7233 31.4724 23.4732 31.7818 23.1876 31.9412C22.9271 32.0865 22.9069 32.0898 22.1611 32.1065L21.4002 32.1236V30.4557V28.7879L22.2094 28.8043C22.8838 28.8179 23.0467 28.8355 23.1876 28.91Z" fill="white"/>
<path id="Layer 7" fill-rule="evenodd" clip-rule="evenodd" d="M0 24.2932V47.8833H0.556889C2.005 47.8833 3.90329 48.2156 5.64748 48.7746C7.19564 49.2707 8.29367 49.7553 11.7629 51.4733C14.1111 52.6362 15.0411 53.0574 16.2442 53.5028C20.3582 55.026 24.5272 55.0997 28.6705 53.7225C30.1466 53.2319 31.0775 52.8248 34.1051 51.3457C37.3657 49.7527 38.3464 49.3253 39.8778 48.8298C41.8749 48.1837 43.5695 47.912 45.6023 47.912C47.6349 47.912 49.3295 48.1837 51.3267 48.8298C52.864 49.3271 53.808 49.7349 56.7854 51.188C60.2781 52.8924 61.6568 53.4748 63.3634 53.9668C65.1434 54.48 66.5807 54.6813 68.4758 54.6829C70.5905 54.6847 72.1823 54.4356 74.1977 53.7874C75.7803 53.2784 76.8296 52.8218 80.1421 51.2009C83.4249 49.5944 84.5562 49.1183 86.2545 48.6288C88.0187 48.1202 89.48 47.9129 91.3011 47.9129C93.4675 47.9129 95.0864 48.1846 97.2671 48.9142C98.8024 49.4278 100.037 49.9704 102.797 51.344C107.138 53.5049 109.284 54.2535 112.122 54.5974C113.106 54.7167 115.216 54.7161 116.155 54.5964C117.55 54.4186 118.692 54.1642 119.946 53.7519C121.484 53.2464 122.694 52.7143 125.769 51.1911C127.911 50.1298 128.717 49.7575 129.802 49.3271C132.146 48.3973 134.51 47.8833 136.443 47.8833H137V24.2932V0.703125L136.215 0.732934C134.175 0.810388 132.189 1.2366 130.027 2.06077C128.905 2.48843 128.235 2.79425 125.696 4.03574C124.407 4.66591 123.027 5.32665 122.629 5.50406C119.428 6.92877 116.957 7.50985 114.102 7.50884C112.521 7.50831 111.223 7.34739 109.706 6.96368C107.764 6.47236 106.203 5.83782 102.822 4.16497C99.3228 2.43328 97.7624 1.79331 95.8304 1.29704C94.1521 0.865967 93.1919 0.748271 91.3253 0.744857C89.562 0.741636 88.6148 0.844284 87.0984 1.203C85.0668 1.68354 83.643 2.25616 79.7556 4.15613C77.2426 5.38434 76.5248 5.71344 75.4563 6.12735C73.6379 6.8317 71.8564 7.27037 70.07 7.4536C69.3697 7.52547 67.5625 7.52543 66.8334 7.45355C64.8234 7.25547 62.9839 6.77381 60.8433 5.88503C59.8551 5.47478 58.8255 4.99101 56.8923 4.02867C54.8851 3.0295 54.0729 2.653 52.9877 2.21885C51.0848 1.45743 49.4911 1.04049 47.5829 0.804859C46.8131 0.709808 44.3456 0.725289 43.5492 0.830197C41.3803 1.11593 39.5321 1.6596 37.1529 2.7117C36.6589 2.93017 35.2331 3.60712 33.9843 4.21613C30.6984 5.81859 29.5533 6.29615 27.7814 6.80309C24.2467 7.81443 20.7244 7.75659 17.1733 6.62895C15.6687 6.1512 14.4062 5.5994 11.3281 4.0743C10.1856 3.50822 8.94654 2.90892 8.57458 2.74247C5.66618 1.44103 3.29955 0.830677 0.784996 0.733463L0 0.703125V24.2932ZM47.6553 2.59362C48.9193 2.75517 49.8715 2.98142 51.2062 3.4374C52.4362 3.85761 53.4757 4.31998 56.2782 5.69354C57.6997 6.39019 59.1453 7.08378 59.4907 7.23479C62.927 8.73744 65.7695 9.34549 68.9589 9.26029C70.9897 9.20601 72.7526 8.8998 74.7317 8.25752C76.368 7.72644 77.2647 7.33903 80.3836 5.81532C83.0103 4.5321 83.571 4.27214 84.6105 3.85544C87.0348 2.88373 88.994 2.47982 91.277 2.48097C92.7869 2.4817 93.8522 2.6141 95.3035 2.98133C97.1649 3.45235 98.255 3.90107 102.074 5.76811C105.74 7.56062 107.289 8.18429 109.344 8.69465C111.007 9.10769 112.226 9.24899 114.126 9.24866C116.032 9.24832 117.135 9.11981 118.885 8.69417C120.937 8.19482 122.688 7.491 126.203 5.75157C128.979 4.37815 130.22 3.83193 131.618 3.36783C132.687 3.01316 133.926 2.72555 135.031 2.57574L135.213 2.55122V24.368V46.1848L134.67 46.2434C133.47 46.373 131.961 46.7093 130.64 47.1416C129.109 47.6424 127.706 48.2529 125.081 49.5597C121.436 51.374 119.872 52.0194 118.026 52.4703C116.623 52.8134 115.619 52.9315 114.109 52.9315C112.255 52.9315 110.651 52.6676 108.834 52.0638C107.411 51.5906 106.24 51.0763 103.499 49.7195C101.362 48.662 100.243 48.1456 99.174 47.7235C97.2295 46.9558 95.5498 46.5165 93.5957 46.2646C92.6282 46.1399 90.0224 46.1399 89.0548 46.2646C86.1427 46.64 83.7489 47.4335 80.2043 49.1983C78.5013 50.0462 76.4313 51.0328 75.722 51.3346C73.9355 52.0947 72.318 52.5638 70.6014 52.8198C69.7698 52.9438 67.235 52.9441 66.3986 52.8204C64.5876 52.5525 63.0221 52.0935 61.0857 51.2626C60.6867 51.0913 59.4254 50.4961 58.283 49.9398C54.6746 48.1827 53.804 47.8004 52.1721 47.2561C49.8009 46.4654 47.9424 46.1534 45.6023 46.1534C43.3634 46.1534 41.4638 46.4584 39.2804 47.1685C37.666 47.6935 36.6561 48.1318 33.4771 49.6871C30.3624 51.2108 29.4471 51.6115 27.9907 52.0888C26.0343 52.73 24.4835 52.96 22.3978 52.9181C20.7243 52.8845 19.7141 52.7296 18.0989 52.2586C16.6203 51.8274 15.4024 51.3052 12.3426 49.7904C8.95823 48.1149 7.86074 47.6335 6.19983 47.0959C4.93316 46.6859 3.19308 46.3115 2.13761 46.2219L1.73907 46.1881V24.3645V2.54078L1.89607 2.56622C1.98239 2.58016 2.33567 2.63709 2.68106 2.69266C3.92049 2.89205 5.45667 3.34721 6.88382 3.9379C7.80919 4.32094 8.97543 4.87163 11.0866 5.92239C14.8082 7.77476 16.7755 8.50849 19.2264 8.95822C20.5155 9.19476 21.1718 9.24885 22.7528 9.24885C24.637 9.24885 25.7534 9.12322 27.4145 8.72427C29.4838 8.22723 31.0878 7.59471 34.5157 5.92398C37.2583 4.5873 37.992 4.24892 39.0807 3.81886C41.1205 3.01301 42.8439 2.6143 44.8776 2.47771C45.429 2.44064 46.9579 2.50444 47.6553 2.59362ZM90.1901 15.4042C89.1706 15.6205 88.4652 16.1267 88.0692 16.9263C87.8139 17.4417 87.7281 17.8577 87.7281 18.5794C87.7281 19.2953 87.8139 19.7174 88.0606 20.214C88.2849 20.6654 88.6325 21.0703 89.0474 21.3631C89.4175 21.6244 89.7296 21.7799 90.649 22.1612C91.604 22.5573 91.8014 22.6595 92.0488 22.8865C92.3541 23.1666 92.4776 23.487 92.4493 23.9256C92.4314 24.204 92.3979 24.3222 92.2853 24.5032C91.9362 25.0653 91.1152 25.2351 90.4316 24.8867C90.0128 24.6732 89.6871 24.0767 89.6261 23.4113C89.6103 23.2394 89.584 23.0758 89.5677 23.0476C89.5473 23.0126 89.2117 23.0399 88.5005 23.1346C87.9299 23.2106 87.4568 23.2789 87.4492 23.2864C87.4185 23.3171 87.5481 24.0828 87.657 24.5137C87.9984 25.8649 88.7514 26.6181 90.021 26.8786C90.4342 26.9634 90.6228 26.9744 91.3253 26.9546C92.2332 26.9289 92.5086 26.8739 93.0643 26.6073C93.8511 26.2298 94.3769 25.5884 94.6201 24.7094C94.7399 24.2765 94.7398 23.0885 94.62 22.642C94.3216 21.5304 93.6114 20.8856 91.9683 20.2346C91.2943 19.9676 90.589 19.6019 90.342 19.3915C89.9777 19.0812 89.8278 18.6076 89.9449 18.1373C90.0822 17.5862 90.4459 17.3025 91.0608 17.2671C91.3872 17.2483 91.4703 17.2612 91.7032 17.3673C92.146 17.5691 92.4119 18.0612 92.4905 18.8243C92.5201 19.1126 92.5315 19.1372 92.6245 19.116C92.6805 19.1033 93.1581 19.0329 93.6861 18.9597L94.6459 18.8265L94.6155 18.5346C94.5622 18.0211 94.3956 17.4381 94.1701 16.9754C93.7909 16.1977 93.1588 15.6843 92.2914 15.4493C91.8925 15.3412 90.6159 15.3138 90.1901 15.4042ZM43.67 21.1516V26.8729H44.8052H45.9404V21.1516V15.4302H44.8052H43.67V21.1516ZM19.1298 32.5187V38.2195H20.265H21.4002V36.126V34.0326L21.7714 34.0466L22.1426 34.0607L23.1119 36.1389L24.0813 38.2171L25.3252 38.2183C26.1266 38.219 26.5691 38.2023 26.5691 38.1712C26.5691 38.1446 26.0691 37.1278 25.458 35.9117C24.847 34.6955 24.347 33.6908 24.347 33.6791C24.347 33.6673 24.4829 33.586 24.6489 33.4986C25.032 33.2967 25.5342 32.799 25.7311 32.426C26.0866 31.7526 26.2373 30.8222 26.1413 29.8936C26.1103 29.5941 26.0511 29.2192 26.0097 29.0605C25.7973 28.2461 25.2264 27.5215 24.5395 27.1943C23.849 26.8653 23.796 26.8594 21.3398 26.8376L19.1298 26.818V32.5187ZM64.2006 32.5221V38.2195H65.239H66.2772L66.2896 34.6209L66.302 31.0223L67.6029 34.2242C68.3185 35.9853 68.9782 37.6046 69.0691 37.8228L69.2343 38.2195H70.3888H71.5434V32.5221V26.8248H70.5051H69.4668L69.4544 30.4425L69.442 34.0601L68.4111 31.5122C67.844 30.1109 67.1839 28.4829 66.9441 27.8946L66.508 26.8248H65.3544H64.2006V32.5221ZM112.122 32.5221V38.2195H115.02H117.919V37.2338V36.2482H116.155H114.392V34.8299V33.4116H115.89H117.387V32.402V31.3923H115.89H114.392V30.1182V28.8441H116.107H117.822V27.8345V26.8248H114.972H112.122V32.5221ZM23.1876 28.91C23.5741 29.1143 23.7673 29.3935 23.8654 29.8901C23.9301 30.2175 23.906 30.8759 23.8188 31.1604C23.7233 31.4724 23.4732 31.7818 23.1876 31.9412C22.9271 32.0865 22.9069 32.0898 22.1611 32.1065L21.4002 32.1236V30.4557V28.7879L22.2094 28.8043C22.8838 28.8179 23.0467 28.8355 23.1876 28.91Z" fill="white"/>
<path id="Layer 8" fill-rule="evenodd" clip-rule="evenodd" d="M0 24.2932V47.8833H0.556889C2.005 47.8833 3.90329 48.2156 5.64748 48.7746C7.19564 49.2707 8.29367 49.7553 11.7629 51.4733C14.1111 52.6362 15.0411 53.0574 16.2442 53.5028C20.3582 55.026 24.5272 55.0997 28.6705 53.7225C30.1466 53.2319 31.0775 52.8248 34.1051 51.3457C37.3657 49.7527 38.3464 49.3253 39.8778 48.8298C41.8749 48.1837 43.5695 47.912 45.6023 47.912C47.6349 47.912 49.3295 48.1837 51.3267 48.8298C52.864 49.3271 53.808 49.7349 56.7854 51.188C60.2781 52.8924 61.6568 53.4748 63.3634 53.9668C65.1434 54.48 66.5807 54.6813 68.4758 54.6829C70.5905 54.6847 72.1823 54.4356 74.1977 53.7874C75.7803 53.2784 76.8296 52.8218 80.1421 51.2009C83.4249 49.5944 84.5562 49.1183 86.2545 48.6288C88.0187 48.1202 89.48 47.9129 91.3011 47.9129C93.4675 47.9129 95.0864 48.1846 97.2671 48.9142C98.8024 49.4278 100.037 49.9704 102.797 51.344C107.138 53.5049 109.284 54.2535 112.122 54.5974C113.106 54.7167 115.216 54.7161 116.155 54.5964C117.55 54.4186 118.692 54.1642 119.946 53.7519C121.484 53.2464 122.694 52.7143 125.769 51.1911C127.911 50.1298 128.717 49.7575 129.802 49.3271C132.146 48.3973 134.51 47.8833 136.443 47.8833H137V24.2932V0.703125L136.215 0.732934C134.175 0.810388 132.189 1.2366 130.027 2.06077C128.905 2.48843 128.235 2.79425 125.696 4.03574C124.407 4.66591 123.027 5.32665 122.629 5.50406C119.428 6.92877 116.957 7.50985 114.102 7.50884C112.521 7.50831 111.223 7.34739 109.706 6.96368C107.764 6.47236 106.203 5.83782 102.822 4.16497C99.3228 2.43328 97.7624 1.79331 95.8304 1.29704C94.1521 0.865967 93.1919 0.748271 91.3253 0.744857C89.562 0.741636 88.6148 0.844284 87.0984 1.203C85.0668 1.68354 83.643 2.25616 79.7556 4.15613C77.2426 5.38434 76.5248 5.71344 75.4563 6.12735C73.6379 6.8317 71.8564 7.27037 70.07 7.4536C69.3697 7.52547 67.5625 7.52543 66.8334 7.45355C64.8234 7.25547 62.9839 6.77381 60.8433 5.88503C59.8551 5.47478 58.8255 4.99101 56.8923 4.02867C54.8851 3.0295 54.0729 2.653 52.9877 2.21885C51.0848 1.45743 49.4911 1.04049 47.5829 0.804859C46.8131 0.709808 44.3456 0.725289 43.5492 0.830197C41.3803 1.11593 39.5321 1.6596 37.1529 2.7117C36.6589 2.93017 35.2331 3.60712 33.9843 4.21613C30.6984 5.81859 29.5533 6.29615 27.7814 6.80309C24.2467 7.81443 20.7244 7.75659 17.1733 6.62895C15.6687 6.1512 14.4062 5.5994 11.3281 4.0743C10.1856 3.50822 8.94654 2.90892 8.57458 2.74247C5.66618 1.44103 3.29955 0.830677 0.784996 0.733463L0 0.703125V24.2932ZM47.6553 2.59362C48.9193 2.75517 49.8715 2.98142 51.2062 3.4374C52.4362 3.85761 53.4757 4.31998 56.2782 5.69354C57.6997 6.39019 59.1453 7.08378 59.4907 7.23479C62.927 8.73744 65.7695 9.34549 68.9589 9.26029C70.9897 9.20601 72.7526 8.8998 74.7317 8.25752C76.368 7.72644 77.2647 7.33903 80.3836 5.81532C83.0103 4.5321 83.571 4.27214 84.6105 3.85544C87.0348 2.88373 88.994 2.47982 91.277 2.48097C92.7869 2.4817 93.8522 2.6141 95.3035 2.98133C97.1649 3.45235 98.255 3.90107 102.074 5.76811C105.74 7.56062 107.289 8.18429 109.344 8.69465C111.007 9.10769 112.226 9.24899 114.126 9.24866C116.032 9.24832 117.135 9.11981 118.885 8.69417C120.937 8.19482 122.688 7.491 126.203 5.75157C128.979 4.37815 130.22 3.83193 131.618 3.36783C132.687 3.01316 133.926 2.72555 135.031 2.57574L135.213 2.55122V24.368V46.1848L134.67 46.2434C133.47 46.373 131.961 46.7093 130.64 47.1416C129.109 47.6424 127.706 48.2529 125.081 49.5597C121.436 51.374 119.872 52.0194 118.026 52.4703C116.623 52.8134 115.619 52.9315 114.109 52.9315C112.255 52.9315 110.651 52.6676 108.834 52.0638C107.411 51.5906 106.24 51.0763 103.499 49.7195C101.362 48.662 100.243 48.1456 99.174 47.7235C97.2295 46.9558 95.5498 46.5165 93.5957 46.2646C92.6282 46.1399 90.0224 46.1399 89.0548 46.2646C86.1427 46.64 83.7489 47.4335 80.2043 49.1983C78.5013 50.0462 76.4313 51.0328 75.722 51.3346C73.9355 52.0947 72.318 52.5638 70.6014 52.8198C69.7698 52.9438 67.235 52.9441 66.3986 52.8204C64.5876 52.5525 63.0221 52.0935 61.0857 51.2626C60.6867 51.0913 59.4254 50.4961 58.283 49.9398C54.6746 48.1827 53.804 47.8004 52.1721 47.2561C49.8009 46.4654 47.9424 46.1534 45.6023 46.1534C43.3634 46.1534 41.4638 46.4584 39.2804 47.1685C37.666 47.6935 36.6561 48.1318 33.4771 49.6871C30.3624 51.2108 29.4471 51.6115 27.9907 52.0888C26.0343 52.73 24.4835 52.96 22.3978 52.9181C20.7243 52.8845 19.7141 52.7296 18.0989 52.2586C16.6203 51.8274 15.4024 51.3052 12.3426 49.7904C8.95823 48.1149 7.86074 47.6335 6.19983 47.0959C4.93316 46.6859 3.19308 46.3115 2.13761 46.2219L1.73907 46.1881V24.3645V2.54078L1.89607 2.56622C1.98239 2.58016 2.33567 2.63709 2.68106 2.69266C3.92049 2.89205 5.45667 3.34721 6.88382 3.9379C7.80919 4.32094 8.97543 4.87163 11.0866 5.92239C14.8082 7.77476 16.7755 8.50849 19.2264 8.95822C20.5155 9.19476 21.1718 9.24885 22.7528 9.24885C24.637 9.24885 25.7534 9.12322 27.4145 8.72427C29.4838 8.22723 31.0878 7.59471 34.5157 5.92398C37.2583 4.5873 37.992 4.24892 39.0807 3.81886C41.1205 3.01301 42.8439 2.6143 44.8776 2.47771C45.429 2.44064 46.9579 2.50444 47.6553 2.59362ZM90.1901 15.4042C89.1706 15.6205 88.4652 16.1267 88.0692 16.9263C87.8139 17.4417 87.7281 17.8577 87.7281 18.5794C87.7281 19.2953 87.8139 19.7174 88.0606 20.214C88.2849 20.6654 88.6325 21.0703 89.0474 21.3631C89.4175 21.6244 89.7296 21.7799 90.649 22.1612C91.604 22.5573 91.8014 22.6595 92.0488 22.8865C92.3541 23.1666 92.4776 23.487 92.4493 23.9256C92.4314 24.204 92.3979 24.3222 92.2853 24.5032C91.9362 25.0653 91.1152 25.2351 90.4316 24.8867C90.0128 24.6732 89.6871 24.0767 89.6261 23.4113C89.6103 23.2394 89.584 23.0758 89.5677 23.0476C89.5473 23.0126 89.2117 23.0399 88.5005 23.1346C87.9299 23.2106 87.4568 23.2789 87.4492 23.2864C87.4185 23.3171 87.5481 24.0828 87.657 24.5137C87.9984 25.8649 88.7514 26.6181 90.021 26.8786C90.4342 26.9634 90.6228 26.9744 91.3253 26.9546C92.2332 26.9289 92.5086 26.8739 93.0643 26.6073C93.8511 26.2298 94.3769 25.5884 94.6201 24.7094C94.7399 24.2765 94.7398 23.0885 94.62 22.642C94.3216 21.5304 93.6114 20.8856 91.9683 20.2346C91.2943 19.9676 90.589 19.6019 90.342 19.3915C89.9777 19.0812 89.8278 18.6076 89.9449 18.1373C90.0822 17.5862 90.4459 17.3025 91.0608 17.2671C91.3872 17.2483 91.4703 17.2612 91.7032 17.3673C92.146 17.5691 92.4119 18.0612 92.4905 18.8243C92.5201 19.1126 92.5315 19.1372 92.6245 19.116C92.6805 19.1033 93.1581 19.0329 93.6861 18.9597L94.6459 18.8265L94.6155 18.5346C94.5622 18.0211 94.3956 17.4381 94.1701 16.9754C93.7909 16.1977 93.1588 15.6843 92.2914 15.4493C91.8925 15.3412 90.6159 15.3138 90.1901 15.4042ZM43.67 21.1516V26.8729H44.8052H45.9404V21.1516V15.4302H44.8052H43.67V21.1516ZM19.1298 32.5187V38.2195H20.265H21.4002V36.126V34.0326L21.7714 34.0466L22.1426 34.0607L23.1119 36.1389L24.0813 38.2171L25.3252 38.2183C26.1266 38.219 26.5691 38.2023 26.5691 38.1712C26.5691 38.1446 26.0691 37.1278 25.458 35.9117C24.847 34.6955 24.347 33.6908 24.347 33.6791C24.347 33.6673 24.4829 33.586 24.6489 33.4986C25.032 33.2967 25.5342 32.799 25.7311 32.426C26.0866 31.7526 26.2373 30.8222 26.1413 29.8936C26.1103 29.5941 26.0511 29.2192 26.0097 29.0605C25.7973 28.2461 25.2264 27.5215 24.5395 27.1943C23.849 26.8653 23.796 26.8594 21.3398 26.8376L19.1298 26.818V32.5187ZM64.2006 32.5221V38.2195H65.239H66.2772L66.2896 34.6209L66.302 31.0223L67.6029 34.2242C68.3185 35.9853 68.9782 37.6046 69.0691 37.8228L69.2343 38.2195H70.3888H71.5434V32.5221V26.8248H70.5051H69.4668L69.4544 30.4425L69.442 34.0601L68.4111 31.5122C67.844 30.1109 67.1839 28.4829 66.9441 27.8946L66.508 26.8248H65.3544H64.2006V32.5221ZM112.122 32.5221V38.2195H115.02H117.919V37.2338V36.2482H116.155H114.392V34.8299V33.4116H115.89H117.387V32.402V31.3923H115.89H114.392V30.1182V28.8441H116.107H117.822V27.8345V26.8248H114.972H112.122V32.5221ZM23.1876 28.91C23.5741 29.1143 23.7673 29.3935 23.8654 29.8901C23.9301 30.2175 23.906 30.8759 23.8188 31.1604C23.7233 31.4724 23.4732 31.7818 23.1876 31.9412C22.9271 32.0865 22.9069 32.0898 22.1611 32.1065L21.4002 32.1236V30.4557V28.7879L22.2094 28.8043C22.8838 28.8179 23.0467 28.8355 23.1876 28.91Z" fill="white"/>
</g>
</svg>
