<svg width="116" height="54" viewBox="0 0 116 54" fill="none" xmlns="http://www.w3.org/2000/svg">
<g id="Robert">
<path id="Layer 3" fill-rule="evenodd" clip-rule="evenodd" d="M64.8105 0.233785C63.8863 0.637151 60.544 3.87345 52.8857 11.7804C45.7741 19.1229 44.4938 20.342 43.2025 21.0008C42.2101 21.507 42.1061 21.4041 42.4935 20.2991C42.9332 19.0454 43.0856 17.0056 42.8147 15.9998C42.5105 14.8697 41.4201 13.8798 40.1712 13.5997C37.8487 13.0788 35.0217 14.2123 32.3146 16.7493C27.3301 21.4213 25.8083 28.0872 29.3331 29.8096C30.4391 30.35 32.2672 30.3419 33.7202 29.7899C35.8272 28.9896 38.3641 26.9803 39.9228 24.8776C40.6834 23.8514 40.6921 23.8458 41.5618 23.839C42.7678 23.8296 44.4729 23.2681 45.5994 22.5093C46.1188 22.1596 48.5526 19.8797 51.0078 17.4432C53.463 15.0066 55.7394 12.8238 56.0666 12.5926L56.6613 12.1722L55.8144 13.3623C51.0062 20.1189 49.3176 23.2476 48.8951 26.1824C48.6584 27.8265 48.9623 29.0706 49.8148 29.9479C50.5561 30.7107 51.2567 30.9834 52.4746 30.9834C54.779 30.9834 56.8505 29.8803 59.1605 27.4226L60.5698 25.9234L61.9293 25.8364C62.7856 25.7816 63.5964 25.6137 64.1201 25.3825C64.5772 25.1807 64.9794 25.0438 65.0139 25.0784C65.0484 25.1129 64.9495 25.4788 64.7941 25.8914C64.609 26.3821 64.5055 27.2009 64.4948 28.2591C64.4751 30.1937 64.7679 30.9463 65.8091 31.6371C66.3903 32.0228 66.7113 32.0989 67.9676 32.1488C69.8676 32.2242 71.1328 31.9005 73.2002 30.8099C75.4272 29.6352 77.3582 28.301 79.4839 26.4677C82.1004 24.2115 86.902 19.4179 88.4345 17.5322C89.856 15.7831 90.1949 15.4512 90.4183 15.5896C90.8741 15.8718 90.3517 17.0434 88.5477 19.7842C87.0874 22.0026 86.7153 22.7164 86.4872 23.736C86.241 24.8376 86.5307 25.8565 87.3583 26.7986C88.7448 28.3768 90.3736 28.2416 92.9424 26.3353C94.2524 25.3632 96.9926 22.965 99.1317 20.9187L100.944 19.1848L100.578 20.1038C98.9603 24.1611 98.6568 27.1003 99.7309 28.3048C100.138 28.7618 100.319 28.8353 101.034 28.8352C102.035 28.8346 103.483 28.2104 104.832 27.198C105.349 26.81 107.284 24.998 109.132 23.1713C111.675 20.6565 112.536 19.6989 112.677 19.2271C112.943 18.3388 112.666 17.8728 111.873 17.8728C111.022 17.8728 110.782 18.036 108.406 20.2296C105.81 22.6277 103.936 24.1366 103.381 24.2762C102.853 24.409 102.459 24.0893 102.459 23.5282C102.459 22.5066 104.744 16.7088 106.232 13.9566C106.612 13.2542 107.458 11.8693 108.112 10.879L109.302 9.07822L112.165 8.91067C114.807 8.75607 115.061 8.71248 115.449 8.34708C116.025 7.80478 116.167 6.75575 115.792 5.81638C115.397 4.82729 115.127 4.71798 113.689 4.96504C113.033 5.07776 112.454 5.1285 112.403 5.07758C112.352 5.02667 112.465 4.63523 112.654 4.20785C113.823 1.56001 112.666 -0.394506 110.715 0.932056C110.37 1.16669 109.898 1.56886 109.666 1.82597C109.142 2.4059 107.699 4.49748 107.339 5.19745L107.072 5.71797L104.383 5.92859C98.9691 6.35239 95.5769 6.92142 95.0616 7.49182C94.631 7.96857 94.5241 9.40956 94.8791 9.95254C95.2197 10.4732 95.4676 10.4812 97.5739 10.0406C100.122 9.50729 105.178 8.98184 105.178 9.25019C105.178 9.2839 104.899 9.91594 104.559 10.6549C104.052 11.7574 103.546 12.433 101.744 14.419C97.1999 19.4256 93.365 23.037 91.5803 23.99C90.7269 24.4458 90.5769 24.4795 90.3925 24.2568C90.0837 23.8839 91.2308 21.5865 93.0365 18.9615C94.7404 16.4842 95.1427 15.6668 95.1478 14.672C95.152 13.8294 94.6213 13.1931 93.7786 13.0307C92.0033 12.6884 92.1438 12.9013 92.6256 11.2823C92.8176 10.637 92.8061 10.5301 92.5089 10.201C92.0099 9.64861 90.382 9.7879 89.2674 10.4783C87.6523 11.4788 86.5722 13.4887 86.9634 14.7659L87.1525 15.3829L83.6323 18.8947C77.8515 24.662 74.2492 27.2408 70.9987 27.9392C69.4382 28.2746 68.2945 27.5139 68.3095 26.1504C68.3246 24.7705 68.5668 24.504 70.2015 24.0693C73.8157 23.108 76.406 21.6958 78.5834 19.4998C80.2761 17.7926 80.9278 16.5784 81.0189 14.9622C81.1265 13.0564 80.4896 12.2123 78.6911 11.8773C77.8319 11.7172 77.55 11.7402 76.5287 12.0537C74.4214 12.7005 71.777 14.8049 69.742 17.4541C67.7094 20.1002 64.5444 22.6403 63.2799 22.6403H62.8969L63.4167 21.4058C63.7744 20.5562 63.9614 19.7896 64.0168 18.9465C64.0888 17.8469 64.0506 17.6424 63.6438 16.9468C63.1292 16.0669 62.4787 15.6593 61.5894 15.6593C60.2893 15.6593 59.5585 16.3647 58.8559 18.2984C58.4378 19.4489 58.3551 19.9502 58.3236 21.5238C58.2879 23.299 58.2618 23.4211 57.7708 24.1063C56.8523 25.3877 54.6578 26.7092 53.8968 26.439C52.4131 25.9122 52.785 23.7077 54.9941 19.9332C56.3347 17.6429 57.1648 16.427 61.2251 10.8066C66.9232 2.91909 67.3524 2.17604 66.9383 0.918606C66.6378 0.00647704 65.8859 -0.235645 64.8105 0.233785ZM76.5189 1.87705C75.8252 2.08631 74.9798 2.88385 74.8338 3.4665C74.6069 4.37233 75.5859 6.19318 77.2995 8.05286C78.5457 9.40513 79.553 10.0404 80.4515 10.0404C81.7143 10.0404 81.8601 9.48294 80.9805 8.01948C80.493 7.2085 79.1338 3.99178 78.7683 2.7839C78.5202 1.96406 77.54 1.56886 76.5189 1.87705ZM17.9162 2.15833C16.3032 2.24704 13.0736 2.70694 12.0829 2.98907C10.0252 3.57497 8.11033 6.42935 8.65854 8.09355C8.90223 8.83354 9.30531 8.94081 10.6629 8.62649C11.2407 8.49283 11.7136 8.42251 11.7136 8.47053C11.7136 8.51854 11.185 9.44685 10.5389 10.5335C7.27782 16.0187 1.06909 27.986 0.329873 30.2118C-0.188257 31.7718 -0.0946233 33.2773 0.600919 34.5712C1.11599 35.5294 1.98963 36.2618 2.6177 36.2618C3.0665 36.2618 3.5916 35.7041 3.90054 34.8996C4.65607 32.9313 10.5258 20.4268 10.6942 20.4268C10.8696 20.4268 13.4045 23.3665 15.5054 26.0063C16.5161 27.2762 18.8653 30.3986 20.7258 32.9451C24.0325 37.4708 25.0577 38.6639 25.923 38.9937C27.5128 39.5992 30.1254 38.4719 30.122 37.1817C30.1208 36.7891 28.9875 35.2682 24.6132 29.79C21.5841 25.9964 18.4702 22.1356 17.6936 21.2102C16.9169 20.285 16.3433 19.4728 16.4191 19.4055C16.4947 19.3383 17.0538 19.1833 17.6613 19.0614C19.5423 18.6837 22.7172 17.7306 24.3826 17.0436C28.9373 15.1645 31.4762 12.7797 31.8585 10.0212C31.9822 9.12861 31.6364 7.54546 31.078 6.44876C29.898 4.13123 26.7924 2.6264 22.3345 2.2118C20.5247 2.04357 20.0955 2.03846 17.9162 2.15833ZM24.863 6.81109C27.6204 7.21054 28.2099 8.25939 26.6374 9.96872C25.4171 11.2951 22.6698 12.8095 18.9652 14.1975C16.8455 14.9918 13.2593 16.0301 13.0607 15.907C12.8998 15.8072 14.5469 12.4398 16.3464 9.18974L17.4302 7.23216L18.2903 7.10821C21.2121 6.68696 23.3411 6.59059 24.863 6.81109ZM77.7438 15.5557C77.8817 16.1066 77.4516 16.8895 76.395 18.0117C74.9607 19.5347 73.2593 20.5747 71.2276 21.1702L70.3298 21.4334L71.0575 20.3767C72.1622 18.7721 74.8504 16.1457 75.9397 15.6065C77.1111 15.0267 77.6078 15.0128 77.7438 15.5557ZM37.7118 16.9788C37.7107 17.049 37.5914 17.4897 37.4467 17.9579C37.0869 19.1208 37.0793 21.1874 37.4315 22.0171C37.7056 22.6628 37.7031 22.6794 37.22 23.383C36.6294 24.243 35.396 25.4063 34.6827 25.7758C33.4449 26.4172 32.0986 25.9217 31.7715 24.7043C31.3175 23.0147 33.1483 19.5594 35.402 17.8527C36.3735 17.1171 37.7172 16.6087 37.7118 16.9788ZM66.3476 35.9091C64.7023 36.3069 64.5626 36.7048 64.5658 40.9813C64.5686 44.6892 64.6234 44.941 65.5679 45.5789C66.3382 46.099 68.1215 46.128 68.9308 45.6333C69.9215 45.0282 70.0012 44.6666 70.0012 40.7798V37.2784L69.4489 36.6759C68.7141 35.8744 67.6151 35.6026 66.3476 35.9091ZM108.746 35.9429C107.67 36.2643 107.047 37.1615 107.047 38.3901C107.047 39.3966 107.438 40.0336 108.977 41.536C110.079 42.6118 110.446 43.0805 110.446 43.4129C110.446 43.8356 110.178 44.2644 109.914 44.2644C109.583 44.2644 109.256 43.6662 109.256 43.0604V42.3914H108.132H107.009L107.075 43.5709C107.175 45.3435 107.922 45.9671 109.947 45.9671C111.806 45.9671 112.702 45.1976 112.722 43.5833C112.738 42.2782 112.526 41.8902 110.847 40.1541C109.23 38.4814 109.04 38.1058 109.624 37.7371C110.066 37.4586 110.446 37.8883 110.446 38.6663V39.3266H111.574H112.703L112.593 38.2742C112.469 37.0831 112.187 36.5509 111.49 36.1896C110.835 35.8499 109.469 35.7271 108.746 35.9429ZM34.3149 40.859V45.7968H36.779H39.243V44.8603V43.9239H37.8836H36.5241V42.8171V41.7104H37.6287H38.7332V40.7739V39.8374H37.6287H36.5241V38.8158V37.7942H37.7136H38.9032V36.8577V35.9212H36.609H34.3149V40.859ZM40.7724 40.859V45.7968H41.877H42.9816L42.995 43.3705C43.0023 42.0361 43.0348 41.0208 43.0669 41.1144C43.099 41.2081 43.2951 42.2998 43.5026 43.5407L43.88 45.7968H44.6046H45.3292L45.6195 44.1367C46.1368 41.1778 46.1752 41.1381 46.1934 43.5407L46.2103 45.7968H47.3149H48.4195V40.859V35.9212H46.9083C45.8166 35.9212 45.3733 35.9834 45.3114 36.145C45.2642 36.2681 45.1306 36.9769 45.0145 37.7199C44.8985 38.4632 44.7516 39.171 44.6881 39.2929C44.6245 39.4148 44.477 38.8784 44.3604 38.101C44.0003 35.7011 44.2014 35.9212 42.3685 35.9212H40.7724V40.859ZM50.2888 40.859V45.7968H52.405C53.5942 45.7968 54.7027 45.7141 54.9353 45.6078C55.6166 45.2967 55.8116 44.7042 55.8116 42.9465C55.8116 41.5008 55.7746 41.3095 55.441 41.039C55.0944 40.7577 55.0887 40.7199 55.355 40.4531C55.7884 40.0187 55.8424 37.7307 55.438 36.9428C55.0279 36.1443 54.366 35.9427 52.1156 35.9308L50.2888 35.9212V40.859ZM57.426 40.859V45.7968H58.5306H59.6352V43.7536C59.6352 42.0964 59.6811 41.7104 59.878 41.7104C60.4911 41.7104 60.6548 42.197 60.6548 44.0211V45.7968H61.803H62.9513L62.8928 43.7961C62.8483 42.2721 62.7627 41.6712 62.5334 41.2734C62.243 40.7695 62.244 40.7371 62.5637 40.3414C62.8473 39.9906 62.8865 39.7192 62.8369 38.4548C62.7494 36.2231 62.3157 35.924 59.1679 35.9222L57.426 35.9212V40.859ZM71.7005 40.859V45.7968H72.8901H74.0796V40.859V35.9212H72.8901H71.7005V40.859ZM75.779 40.8542V45.8232L78.0882 45.7673C80.3626 45.7125 80.4034 45.7047 80.7963 45.2467C81.3329 44.6208 81.4267 43.815 81.3581 40.4207C81.274 36.2527 81.1338 36.078 77.7757 35.9571L75.779 35.8853V40.8542ZM83.0862 40.859V45.7968H85.5502H88.0143V44.8603V43.9239H86.6548H85.2953V42.8171V41.7104H86.3999H87.5045V40.7739V39.8374H86.3999H85.2953V38.8158V37.7942H86.4848H87.6744V36.8577V35.9212H85.3803H83.0862V40.859ZM89.5437 40.859V45.7968H90.6482H91.7528V43.7536C91.7528 42.0964 91.7987 41.7104 91.9957 41.7104C92.6088 41.7104 92.7724 42.197 92.7724 44.0211V45.7968H93.9207H95.0689L95.0066 43.7961C94.9466 41.8771 94.7036 40.859 94.3052 40.859C94.2184 40.859 94.335 40.6709 94.5644 40.441C94.9362 40.0686 94.9816 39.8784 94.9809 38.6958C94.9799 36.3334 94.4342 35.924 91.2855 35.9222L89.5437 35.9212V40.859ZM96.6809 40.859V45.7968H97.7855H98.8901V40.859V35.9212H97.7855H96.6809V40.859ZM100.759 40.859V45.7968H103.223H105.687V44.8603V43.9239H104.328H102.969V42.8171V41.7104H104.073H105.178V40.7739V39.8374H104.073H102.969V38.8158V37.7942H104.158H105.348V36.8577V35.9212H103.053H100.759V40.859ZM67.7963 38.0606C67.978 38.5394 68.0203 42.4417 67.8546 43.4452C67.7431 44.1208 67.3822 44.3892 67.0058 44.0762C66.8241 43.925 66.7724 43.2157 66.7724 40.8665C66.7724 39.2079 66.8234 37.7998 66.8858 37.7375C67.1482 37.4746 67.6401 37.6493 67.7963 38.0606ZM78.9228 37.9919C79.1445 38.1999 79.2536 42.6451 79.0558 43.4149C78.9348 43.8854 78.8081 44.0202 78.4456 44.0628L77.9881 44.1168V40.8588V37.6009L78.3705 37.7167C78.5807 37.7804 78.8293 37.9042 78.9228 37.9919ZM53.3417 38.1235C53.7503 38.8888 53.3935 40.0077 52.7408 40.0077C52.5552 40.0077 52.4979 39.7466 52.4979 38.9009C52.4979 37.9142 52.5341 37.7942 52.8319 37.7942C53.0154 37.7942 53.2448 37.9423 53.3417 38.1235ZM60.6222 38.7014C60.6786 39.5881 60.4641 40.0077 59.9543 40.0077C59.6744 40.0077 59.6352 39.8699 59.6352 38.8897V37.7715L60.1025 37.8255C60.5318 37.8749 60.5741 37.9464 60.6222 38.7014ZM92.7398 38.7014C92.7962 39.5881 92.5818 40.0077 92.072 40.0077C91.7921 40.0077 91.7528 39.8699 91.7528 38.8897V37.7715L92.2201 37.8255C92.6494 37.8749 92.6917 37.9464 92.7398 38.7014ZM53.318 41.8587C53.6285 42.056 53.7682 43.2843 53.5306 43.7291C53.4122 43.9507 53.171 44.0941 52.9168 44.0941C52.5115 44.0941 52.4979 44.0555 52.4979 42.9022C52.4979 41.8796 52.5402 41.7107 52.7953 41.7129C52.9588 41.7144 53.1941 41.78 53.318 41.8587ZM81.8116 48.3324C80.9817 48.6949 80.5857 49.5948 80.8727 50.4663C81.0743 51.078 81.6438 51.4448 82.7463 51.6733C83.9328 51.9192 84.368 52.4924 83.5283 52.7036C82.864 52.8706 82.3327 52.7184 82.1537 52.3096C82.0174 51.9985 81.8497 51.9265 81.2616 51.9265C80.8631 51.9265 80.5371 52.0055 80.5371 52.1022C80.5371 52.5972 81.0792 53.4669 81.535 53.7031C82.1908 54.0429 83.8014 54.0482 84.449 53.7126C85.0897 53.3806 85.2953 52.9765 85.2953 52.0492C85.2953 51.0755 84.9407 50.755 83.4639 50.3942C82.5444 50.1696 82.3214 50.0511 82.3214 49.7864C82.3214 49.5163 82.4428 49.4576 83.0012 49.4576C83.5431 49.4576 83.7149 49.5352 83.8486 49.8407C83.9812 50.1434 84.1549 50.2238 84.6771 50.2238C85.3318 50.2238 85.3368 50.2188 85.2275 49.6704C85.0368 48.7144 84.4433 48.2897 83.218 48.2332C82.6314 48.2061 81.9986 48.2509 81.8116 48.3324ZM100.33 48.4183C99.8533 48.6265 99.3985 49.2848 99.4009 49.7635C99.4016 49.8763 99.5151 50.1856 99.6534 50.4513C99.8691 50.8657 99.8709 50.968 99.6662 51.1732C99.0068 51.8338 99.3125 53.3794 100.181 53.7758C101.864 54.5443 103.724 53.2134 103.135 51.6615C103.032 51.3896 102.873 51.1214 102.783 51.0654C102.683 51.0036 102.72 50.7678 102.877 50.4659C103.2 49.8458 103.202 49.6484 102.889 49.042C102.487 48.2642 101.33 47.9819 100.33 48.4183ZM104.838 48.4789C104.093 48.8514 103.78 49.7923 104.189 50.425C104.42 50.7816 104.414 50.8691 104.132 51.3305C103.314 52.6695 104.195 53.9697 105.921 53.9697C107.056 53.9697 107.727 53.3528 107.727 52.3079C107.727 51.824 107.621 51.4106 107.448 51.2193C107.255 51.0058 107.222 50.8449 107.339 50.6953C107.915 49.9575 107.622 48.7722 106.775 48.4176C106.026 48.1041 105.557 48.1189 104.838 48.4789ZM109.462 48.4372C109.1 48.5947 108.816 48.8899 108.655 49.2762C108.255 50.2357 108.316 50.3941 109.086 50.3941C109.638 50.3941 109.766 50.3338 109.766 50.0743C109.766 49.6335 110.189 49.3219 110.607 49.455C110.843 49.5301 110.955 49.7116 110.955 50.0195C110.955 50.3632 110.665 50.7423 109.757 51.5829C108.788 52.4793 108.539 52.8154 108.46 53.3312L108.362 53.9697H110.423H112.485V53.3816V52.7933L111.35 52.7431L110.214 52.6927L111.173 51.9685C111.88 51.4349 112.182 51.0746 112.325 50.5982C112.822 48.9347 111.175 47.6914 109.462 48.4372ZM75.9489 51.1603V53.9697H78.0731H80.1973V53.2886V52.6075H78.7528H77.3084V52.0967V51.5859H78.4979H79.6875V50.99V50.3941H78.4979C77.3424 50.3941 77.3084 50.382 77.3084 49.9684C77.3084 49.5499 77.331 49.5427 78.6679 49.5427H80.0273V48.9468V48.3508H77.9881H75.9489V51.1603ZM85.6352 48.9468V49.5427H86.4848H87.3345V51.7562V53.9697H88.0143H88.694V51.7562V49.5427H89.5437H90.3933V48.9468V48.3508H88.0143H85.6352V48.9468ZM96.3964 48.7796C96.1533 49.0576 95.8482 49.2022 95.5043 49.2022C95.0368 49.2022 94.9816 49.2561 94.9816 49.713C94.9816 50.2049 95.01 50.2238 95.7463 50.2238H96.511V52.0967V53.9697H97.1907H97.8705V51.1603V48.3508L97.3182 48.3539C96.9453 48.3559 96.6459 48.4942 96.3964 48.7796ZM101.575 49.4065C102.043 49.8758 101.631 50.5224 101.014 50.2854C100.596 50.1245 100.813 49.2022 101.269 49.2022C101.325 49.2022 101.463 49.2941 101.575 49.4065ZM106.367 49.7833C106.367 50.1146 105.904 50.4485 105.605 50.3333C105.301 50.2165 105.266 49.6927 105.544 49.4145C105.782 49.1758 106.367 49.438 106.367 49.7833ZM101.745 51.62C102.322 52.1979 101.644 53.1607 100.929 52.7778C100.329 52.4562 100.589 51.4157 101.269 51.4157C101.419 51.4157 101.633 51.5076 101.745 51.62ZM106.365 51.6689C106.625 51.983 106.463 52.7044 106.101 52.8435C105.695 52.9997 105.178 52.6447 105.178 52.21C105.178 51.4885 105.931 51.1451 106.365 51.6689ZM90.2234 53.2886V53.9697H90.9031H91.5829V53.2886V52.6075H90.9031H90.2234V53.2886Z" fill="white"/>
</g>
</svg>
