<svg width="168" height="54" viewBox="0 0 168 54" fill="none" xmlns="http://www.w3.org/2000/svg">
<g id="Steve&#39;s" clip-path="url(#clip0_2048_1044)">
<path id="Vector" d="M30.8193 23.4265L32.1449 26.1475C32.8775 26.3808 33.5269 26.7969 34.0441 27.3497C35.3741 20.5614 38.3908 16.4019 40.9617 16.5773C43.0615 16.7214 45.0573 19.7753 45.9326 24.6466L50.0014 24.3078C48.8081 17.2044 45.5076 12.1087 41.2916 11.8189C36.9895 11.5232 32.9444 16.3157 30.8208 23.4265H30.8193Z" fill="white"/>
<path id="Vector_2" d="M24.731 10.5483L25.2705 11.0491C25.1649 11.1591 25.0609 11.2765 24.9569 11.3894L28.9455 19.5791C31.8745 12.2796 36.2093 10.5186 36.2093 10.5186C36.2093 10.5186 28.2114 9.87959 24.7697 9.73099C24.5824 9.72355 24.3714 9.72058 24.1455 9.72504L24.6106 10.6791C24.6508 10.6375 24.6894 10.5914 24.731 10.5483ZM30.378 11.0506L30.9502 11.5172C30.1789 12.4178 29.4552 13.3897 28.7969 14.4032L28.1683 14.0153C28.8444 12.9736 29.5875 11.9749 30.3795 11.0506H30.378Z" fill="white"/>
<path id="Vector_3" d="M26.4492 31.6341C26.1699 30.6473 26.2323 29.6026 26.638 28.6575L20.8587 10.2407C16.4064 11.5351 10.3522 15.7689 8.63435 28.4569C6.29826 45.713 16.9801 52.3111 22.2615 52.6737C27.5356 53.0378 33.9598 53.4791 33.9598 53.4791C33.9598 53.4791 25.351 48.8337 26.4492 31.6326V31.6341ZM12.938 23.8203L13.6632 23.9868C13.3957 25.1043 13.1787 26.2917 13.0123 27.5162L12.2752 27.4196C12.4431 26.1728 12.666 24.9602 12.938 23.8203ZM11.9379 31.0589L12.6809 31.0961C12.6185 32.3162 12.6125 33.5243 12.6616 34.6879L11.9185 34.7161C11.868 33.5303 11.8754 32.2998 11.9379 31.0589ZM13.0346 41.9562C12.7106 40.806 12.452 39.5964 12.2663 38.3629L13.0019 38.2589C13.1847 39.4641 13.4358 40.644 13.7523 41.7645L13.0361 41.9547L13.0346 41.9562ZM20.3861 11.3434L20.829 11.9274C19.9031 12.5932 19.0249 13.4135 18.2194 14.3631L17.6458 13.8994C18.4899 12.9037 19.4127 12.0448 20.3876 11.3434H20.3861ZM15.5371 16.9547L16.1895 17.304C15.6292 18.3026 15.1269 19.3963 14.696 20.5555L13.9975 20.3058C14.4419 19.1125 14.959 17.9861 15.5371 16.9547ZM16.023 48.6955C15.3677 47.6761 14.7792 46.5779 14.2739 45.4277L14.956 45.1423C15.4464 46.2569 16.0171 47.3224 16.6516 48.3091L16.023 48.694V48.6955ZM17.6711 30.9757L18.4126 31.0144C18.3517 32.2374 18.3398 33.447 18.374 34.6106L17.631 34.6285C17.5953 33.4456 17.6102 32.2166 17.6711 30.9757ZM18.5508 41.8879C18.2759 40.7347 18.0589 39.5191 17.9059 38.2767L18.6445 38.192C18.7945 39.4091 19.0071 40.598 19.276 41.7259L18.5523 41.8879H18.5508ZM18.7173 27.424L17.9787 27.3379C18.1273 26.0925 18.319 24.8784 18.5479 23.7297L19.2775 23.8709C19.0516 25.0003 18.8629 26.198 18.7173 27.424ZM20.6982 16.7303L21.3818 17.0186C20.9196 18.0678 20.5035 19.2002 20.1454 20.3846L19.4321 20.1765C19.7991 18.9654 20.2241 17.8048 20.6982 16.7289V16.7303ZM21.2109 48.752C20.615 47.7147 20.0844 46.5898 19.6327 45.4069L20.3282 45.1557C20.7665 46.303 21.2822 47.3952 21.8588 48.3998L21.2109 48.7535V48.752ZM23.914 24.1309L24.6377 24.3003C24.3628 25.4342 24.1325 26.6216 23.9541 27.8282L23.2185 27.7227C23.4013 26.4953 23.6346 25.2871 23.914 24.1324V24.1309ZM22.8039 31.7381L22.8277 31.3517L23.5707 31.4022L23.547 31.7812C23.4801 32.8734 23.4519 33.9553 23.4652 34.997L22.7207 35.0029C22.7073 33.9419 22.7356 32.8437 22.8039 31.7366V31.7381ZM23.5262 42.2728C23.2661 41.1151 23.067 39.898 22.9332 38.6542L23.6718 38.5799C23.8026 39.797 23.9987 40.9873 24.2514 42.1197L23.5262 42.2728ZM26.0911 49.1666C25.5086 48.11 24.9944 46.9776 24.5605 45.8036L25.2604 45.5614C25.6809 46.7012 26.1803 47.7994 26.7465 48.8248L26.0911 49.1681V49.1666Z" fill="white"/>
<path id="Vector_4" d="M50.4488 28.647L48.6566 28.7986L35.2271 29.9265C35.4307 31.8005 34.432 33.6803 32.6235 34.5021L32.5537 34.5304L33.3695 34.462V34.4546L46.2537 33.3727C45.4883 42.4511 41.8311 48.2987 38.7951 48.0892C36.5289 47.9331 34.386 44.3889 33.6429 38.8236L29.5815 39.1654C30.5921 46.887 34.0204 52.5414 38.4682 52.8475C44.2742 53.2473 49.6136 44.3859 50.3938 33.0562C50.4978 31.5478 50.5127 30.0752 50.4518 28.6485L50.4488 28.647Z" fill="white"/>
<path id="Vector_5" d="M5.89958 20.0115C6.70502 18.4422 7.64867 16.9428 8.70674 15.5281L5.94119 13.3718C4.6602 15.0451 3.53971 16.8403 2.60498 18.7246L5.89958 20.0115Z" fill="white"/>
<path id="Vector_6" d="M35.0382 2.2234L34.585 3.99627C36.4693 4.34104 38.2407 4.94141 39.8679 5.76914L40.4252 4.84184C38.8009 3.71095 36.9939 2.82823 35.0397 2.2234" fill="white"/>
<path id="Vector_7" d="M33.3904 1.78648C31.4644 1.36444 29.4181 1.20692 27.2856 1.3362L27.3852 3.9056C29.2859 3.62325 31.1271 3.57718 32.8866 3.74957L33.3904 1.785V1.78648Z" fill="white"/>
<path id="Vector_8" d="M12.7695 6.71425L14.7059 9.43375C16.0834 8.37418 17.5472 7.43351 19.0779 6.63698L18.0599 3.65297C16.2053 4.48516 14.4324 5.51798 12.7695 6.71425Z" fill="white"/>
<path id="Vector_9" d="M41.354 6.6043C43.1031 7.70695 44.6501 9.09196 45.9459 10.7162C44.8195 8.86162 43.4122 7.24033 41.7879 5.88058L41.354 6.6043Z" fill="white"/>
<path id="Vector_10" d="M11.4144 7.75156C9.81988 9.037 8.34423 10.477 7.01123 12.0448L9.76787 14.1936C10.8735 12.871 12.0846 11.6391 13.3849 10.5201L11.4144 7.75304" fill="white"/>
<path id="Vector_11" d="M18.7051 0.743286L28.2827 28.7644C27.7329 29.5951 27.6021 30.6755 28.045 31.6504C28.5458 32.7515 29.6306 33.4024 30.7674 33.4024C31.1806 33.4024 31.6011 33.3162 32.0023 33.1335C33.5033 32.4499 34.169 30.68 33.4869 29.1776C33.0441 28.2042 32.142 27.589 31.1553 27.4582L21.0278 5.72753C22.5347 5.08407 24.092 4.57138 25.691 4.22067L25.5855 1.50118C25.3953 1.52495 25.2066 1.53981 25.0149 1.56805C23.2093 1.84743 21.4469 2.32594 19.7409 2.96495L18.7051 0.743286Z" fill="white"/>
<path id="Vector_12" d="M63.3194 13.1563C60.3741 13.1563 58.4214 13.2277 57.4599 13.3688C56.4984 13.5115 55.7851 13.837 55.3229 14.3496C54.7151 15.0065 54.4105 16.1329 54.4105 17.7304C54.4105 19.1541 54.6765 20.1705 55.2085 20.7798C55.5191 21.1469 55.9545 21.4114 56.5103 21.5734C57.0676 21.7369 57.8641 21.8349 58.9014 21.8691C59.4349 21.884 60.5821 21.9315 62.3446 22.0147C64.0654 22.098 65.1933 22.1396 65.7254 22.1396C66.4164 22.1544 66.8741 22.2317 67.0985 22.3744C67.3229 22.5156 67.4358 22.7964 67.4358 23.2185C67.4358 23.7995 67.2768 24.1547 66.9588 24.2869C66.7448 24.3776 66.4535 24.4311 66.0865 24.4474C65.7209 24.4653 64.6257 24.4771 62.7993 24.4846C61.0576 24.4712 60.0219 24.4519 59.6934 24.4281C59.365 24.4028 59.0975 24.3271 58.8895 24.1948C58.5982 23.9942 58.457 23.5454 58.4645 22.8469H54.2842V23.5112C54.2842 24.5277 54.3867 25.2841 54.5903 25.7819C54.7939 26.2797 55.1624 26.6795 55.6944 26.9841C56.2071 27.268 56.9695 27.4656 57.986 27.5756C59.0024 27.6856 60.5747 27.742 62.7057 27.742C65.2498 27.742 66.9885 27.7004 67.9218 27.6172C68.7926 27.534 69.4687 27.375 69.9487 27.1402C70.4287 26.9054 70.8047 26.5487 71.0737 26.0717C71.4333 25.4223 71.6131 24.4296 71.6131 23.0951C71.6131 22.0801 71.5061 21.3 71.2921 20.7561C71.0781 20.2136 70.7111 19.7871 70.1925 19.4751C69.7362 19.212 69.1225 19.0337 68.3512 18.9401C67.58 18.8465 66.0508 18.7662 63.7623 18.6964C61.0443 18.6132 59.5211 18.527 59.1882 18.4378C58.7869 18.3278 58.5863 18.0232 58.5863 17.5254C58.5863 17.0275 58.7855 16.6902 59.1882 16.5773C59.5894 16.4628 60.7054 16.4064 62.5378 16.4064C64.058 16.4064 65.0537 16.4227 65.5247 16.4524C65.9958 16.4836 66.3228 16.555 66.51 16.6649C66.6631 16.7541 66.7641 16.873 66.8161 17.0171C66.8667 17.1628 66.9008 17.4332 66.9142 17.827H71.093C71.1004 17.5016 71.1034 17.2802 71.1034 17.1628C71.1034 15.8773 70.8612 14.9619 70.3782 14.4195C69.8938 13.8771 69.0021 13.516 67.7018 13.3362C66.8592 13.2188 65.3955 13.1593 63.315 13.1593" fill="white"/>
<path id="Vector_13" d="M89.4116 13.3748H72.2788V16.9844H78.5842V27.531H83.1166V16.9844H89.4116V13.3748Z" fill="white"/>
<path id="Vector_14" d="M106.087 13.3748H90.4058V27.531H106.168V24.1294H94.6589V21.8572H105.506V18.7469H94.6589V16.7051H106.087V13.3748Z" fill="white"/>
<path id="Vector_15" d="M126.776 13.3748H122.067L116.955 23.9734H116.146L110.982 13.3748H106.243L113.243 27.531H119.869L126.776 13.3748Z" fill="white"/>
<path id="Vector_16" d="M143.172 13.3748H127.491V27.531H143.253V24.1294H131.744V21.8572H142.591V18.7469H131.744V16.7051H143.172V13.3748Z" fill="white"/>
<path id="Vector_17" d="M158.799 13.1563C155.854 13.1563 153.899 13.2277 152.939 13.3688C151.978 13.5115 151.266 13.837 150.802 14.3496C150.195 15.0065 149.891 16.1329 149.891 17.7304C149.891 19.1541 150.157 20.1705 150.688 20.7798C151 21.1469 151.434 21.4114 151.991 21.5734C152.547 21.7369 153.344 21.8349 154.381 21.8691C154.913 21.884 156.06 21.9315 157.824 22.0147C159.545 22.098 160.673 22.1396 161.205 22.1396C161.897 22.1544 162.355 22.2317 162.579 22.3744C162.804 22.5156 162.915 22.7964 162.915 23.2185C162.915 23.7995 162.756 24.1547 162.44 24.2869C162.224 24.3776 161.934 24.4311 161.567 24.4474C161.2 24.4653 160.105 24.4771 158.28 24.4846C156.537 24.4712 155.503 24.4519 155.174 24.4281C154.847 24.4028 154.578 24.3271 154.37 24.1948C154.081 23.9942 153.938 23.5454 153.945 22.8469H149.767V23.5112C149.767 24.5277 149.869 25.2841 150.073 25.7819C150.276 26.2797 150.645 26.6795 151.177 26.9841C151.688 27.268 152.452 27.4656 153.468 27.5756C154.485 27.6856 156.059 27.742 158.187 27.742C160.731 27.742 162.471 27.7004 163.404 27.6172C164.275 27.534 164.951 27.375 165.431 27.1402C165.913 26.9054 166.287 26.5487 166.556 26.0717C166.916 25.4223 167.096 24.4296 167.096 23.0951C167.096 22.0801 166.989 21.3 166.775 20.7561C166.561 20.2136 166.194 19.7871 165.673 19.4751C165.217 19.212 164.605 19.0337 163.834 18.9401C163.062 18.8465 161.532 18.7662 159.243 18.6964C156.527 18.6132 155.002 18.527 154.671 18.4378C154.269 18.3278 154.069 18.0232 154.069 17.5254C154.069 17.0275 154.269 16.6902 154.671 16.5773C155.07 16.4628 156.188 16.4064 158.02 16.4064C159.54 16.4064 160.536 16.4227 161.006 16.4524C161.477 16.4836 161.805 16.555 161.991 16.6649C162.143 16.7541 162.245 16.873 162.297 17.0171C162.349 17.1628 162.382 17.4332 162.395 17.827H166.574C166.581 17.5016 166.584 17.2802 166.584 17.1628C166.584 15.8773 166.342 14.9619 165.859 14.4195C165.375 13.8771 164.483 13.516 163.183 13.3362C162.34 13.2188 160.876 13.1593 158.796 13.1593" fill="white"/>
<path id="Vector_18" d="M54.2603 31.3695H64.0816V33.4396H60.4735V39.4849H57.8758V33.4396H54.2603V31.3695Z" fill="white"/>
<path id="Vector_19" d="M64.333 31.3695H67.586L70.2312 34.621L72.7634 31.3695H75.9867L71.5449 36.6138V39.4849H68.9888V36.6138L64.333 31.3695Z" fill="white"/>
<path id="Vector_20" d="M78.7863 35.3952H82.2652C82.87 35.3819 83.2326 35.37 83.3485 35.3611C83.4659 35.3521 83.5655 35.3194 83.6487 35.2689C83.7557 35.202 83.8315 35.101 83.8746 34.9687C83.9177 34.8365 83.94 34.6359 83.94 34.3669C83.94 34.0979 83.9147 33.9017 83.8657 33.771C83.8166 33.6402 83.7304 33.5451 83.6071 33.4856C83.5194 33.4455 83.4169 33.4217 83.295 33.4143C83.1746 33.4069 82.8284 33.4009 82.2592 33.3965H78.7863V35.3952ZM76.312 39.4849V31.3695H82.2889C83.6918 31.3725 84.5314 31.3888 84.8078 31.4141C85.0857 31.4393 85.3532 31.5315 85.6118 31.6905C85.9209 31.8777 86.1319 32.1333 86.2478 32.4603C86.3622 32.7872 86.4202 33.3014 86.4202 34.0028C86.4202 34.5942 86.383 35.0282 86.3102 35.3046C86.2374 35.5825 86.0992 35.8039 85.8971 35.9703C85.6801 36.1487 85.3502 36.272 84.9104 36.3389C85.429 36.379 85.802 36.5276 86.0279 36.7847C86.1586 36.9392 86.2419 37.1265 86.2775 37.3464C86.3117 37.5649 86.331 38.027 86.331 38.7285V39.4834H83.8939V39.0495C83.8939 38.5977 83.8775 38.2752 83.8434 38.0835C83.8107 37.8918 83.7468 37.7432 83.6576 37.6407C83.5655 37.5456 83.4392 37.4846 83.2801 37.4594C83.1196 37.4341 82.7838 37.4207 82.2726 37.4207H78.7878V39.4834H76.3135L76.312 39.4849Z" fill="white"/>
<path id="Vector_21" d="M87.2705 31.3695H96.2597V33.2776H89.7091V34.4501H95.9268V36.2334H89.7091V37.5352H96.3072V39.4849H87.2705V31.3695Z" fill="white"/>
<path id="Vector_22" d="M99.8394 36.7981H102.235C102.23 37.1979 102.312 37.455 102.479 37.5709C102.597 37.6467 102.752 37.6912 102.939 37.7046C103.128 37.718 103.722 37.7299 104.721 37.7373C105.767 37.7343 106.394 37.7254 106.605 37.7165C106.816 37.7061 106.981 37.6764 107.105 37.6244C107.288 37.5501 107.378 37.345 107.378 37.0121C107.378 36.7699 107.313 36.6079 107.183 36.5262C107.054 36.4459 106.793 36.4013 106.396 36.3939C106.09 36.3939 105.445 36.3701 104.458 36.3241C103.448 36.275 102.789 36.2483 102.483 36.2408C101.889 36.22 101.431 36.1651 101.111 36.0699C100.793 35.9763 100.544 35.8262 100.367 35.6152C100.061 35.266 99.9092 34.6835 99.9092 33.8661C99.9092 32.9507 100.085 32.3043 100.432 31.9268C100.697 31.6355 101.107 31.4468 101.657 31.3651C102.208 31.2848 103.327 31.2432 105.017 31.2432C106.209 31.2432 107.047 31.2774 107.53 31.3443C108.274 31.4483 108.785 31.6534 109.063 31.9655C109.341 32.276 109.479 32.8006 109.479 33.5377C109.479 33.6061 109.476 33.7324 109.474 33.9181H107.076C107.068 33.6923 107.051 33.5377 107.022 33.4545C106.992 33.3713 106.935 33.3044 106.846 33.2524C106.739 33.19 106.55 33.1484 106.281 33.1305C106.012 33.1127 105.44 33.1023 104.568 33.1023C103.519 33.1023 102.878 33.135 102.648 33.2004C102.419 33.2658 102.303 33.4456 102.303 33.7458C102.303 34.0459 102.419 34.2049 102.648 34.2688C102.838 34.3209 103.712 34.3699 105.269 34.4175C106.58 34.4576 107.458 34.5036 107.9 34.5571C108.341 34.6106 108.693 34.7132 108.956 34.8633C109.254 35.0416 109.463 35.2868 109.586 35.5974C109.708 35.9095 109.771 36.3553 109.771 36.9393C109.771 37.7046 109.667 38.2723 109.462 38.6453C109.307 38.9187 109.093 39.1223 108.817 39.2576C108.542 39.3913 108.155 39.4834 107.655 39.5295C107.12 39.5771 106.122 39.6008 104.665 39.6008C103.443 39.6008 102.541 39.5681 101.96 39.5057C101.376 39.4433 100.939 39.3289 100.646 39.1669C100.34 38.993 100.129 38.7627 100.013 38.4774C99.8944 38.192 99.8379 37.7581 99.8379 37.1756V36.7951L99.8394 36.7981Z" fill="white"/>
<path id="Vector_23" d="M110.63 31.3695H119.619V33.2776H113.067V34.4501H119.286V36.2334H113.067V37.5352H119.667V39.4849H110.63V31.3695Z" fill="white"/>
<path id="Vector_24" d="M122.914 35.3952H126.391C126.997 35.3819 127.36 35.37 127.476 35.3611C127.592 35.3521 127.691 35.3194 127.776 35.2689C127.883 35.202 127.959 35.101 128.002 34.9687C128.045 34.8365 128.067 34.6359 128.067 34.3669C128.067 34.0979 128.042 33.9017 127.993 33.771C127.943 33.6402 127.856 33.5451 127.735 33.4856C127.648 33.4455 127.543 33.4217 127.422 33.4143C127.301 33.4069 126.956 33.4009 126.384 33.3965H122.914V35.3952ZM120.439 39.4849V31.3695H126.413C127.818 31.3725 128.657 31.3888 128.935 31.4141C129.212 31.4393 129.481 31.5315 129.738 31.6905C130.047 31.8777 130.258 32.1333 130.374 32.4603C130.49 32.7872 130.548 33.3014 130.548 34.0028C130.548 34.5942 130.51 35.0282 130.436 35.3046C130.363 35.5825 130.225 35.8039 130.025 35.9703C129.806 36.1487 129.476 36.272 129.038 36.3389C129.556 36.379 129.929 36.5276 130.155 36.7847C130.286 36.9392 130.369 37.1265 130.405 37.3464C130.441 37.5649 130.458 38.027 130.458 38.7285V39.4834H128.02V39.0495C128.02 38.5977 128.003 38.2752 127.971 38.0835C127.937 37.8918 127.874 37.7432 127.784 37.6407C127.691 37.5456 127.567 37.4846 127.406 37.4594C127.246 37.4341 126.908 37.4207 126.397 37.4207H122.914V39.4834H120.439V39.4849Z" fill="white"/>
<path id="Vector_25" d="M130.665 31.3695H133.383L136.343 37.446H136.808L139.739 31.3695H142.438L138.477 39.4849H134.679L130.665 31.3695Z" fill="white"/>
<path id="Vector_26" d="M145.447 31.3695H142.848V39.4849H145.447V31.3695Z" fill="white"/>
<path id="Vector_27" d="M154.299 36.3523H156.772C156.788 36.7491 156.796 37.0047 156.796 37.1191C156.796 37.7447 156.702 38.2366 156.516 38.5888C156.311 38.9841 155.909 39.2545 155.31 39.3972C154.711 39.5399 153.676 39.6097 152.205 39.6097C150.658 39.6097 149.557 39.5815 148.903 39.522C148.248 39.4611 147.752 39.3482 147.419 39.1773C147.121 39.0227 146.9 38.8147 146.753 38.5531C146.606 38.2901 146.511 37.932 146.468 37.4772C146.43 37.1087 146.414 36.4429 146.414 35.48C146.414 34.517 146.43 33.8631 146.468 33.4455C146.503 33.0294 146.573 32.707 146.676 32.4766C146.901 31.961 147.359 31.6281 148.049 31.475C148.738 31.3234 150.131 31.2462 152.223 31.2462C153.269 31.2462 154.03 31.2699 154.506 31.3175C154.983 31.3651 155.36 31.4542 155.641 31.5835C156.01 31.7589 156.27 32.0174 156.42 32.3607C156.571 32.704 156.646 33.2063 156.646 33.8735C156.646 33.9092 156.644 34.0444 156.64 34.2777H154.167C154.155 34.0073 154.139 33.8275 154.116 33.7368C154.096 33.6447 154.049 33.5704 153.983 33.5094C153.887 33.4262 153.647 33.3653 153.265 33.3296C152.878 33.291 152.297 33.2717 151.517 33.2717C150.737 33.2717 150.209 33.288 149.911 33.3237C149.614 33.3564 149.404 33.4232 149.281 33.5228C149.134 33.6417 149.032 33.8423 148.973 34.1232C148.917 34.4055 148.888 34.8528 148.888 35.4666C148.888 36.0803 148.914 36.5143 148.966 36.7654C149.018 37.0165 149.116 37.1978 149.263 37.3078C149.401 37.4163 149.622 37.4876 149.926 37.5218C150.229 37.5575 150.764 37.5753 151.532 37.5753C152.479 37.5753 153.112 37.5604 153.425 37.5277C153.74 37.4965 153.954 37.4267 154.064 37.3197C154.211 37.18 154.289 36.8575 154.296 36.3508" fill="white"/>
<path id="Vector_28" d="M157.652 31.3695H166.643V33.2776H160.09V34.4501H166.31V36.2334H160.09V37.5352H166.69V39.4849H157.652V31.3695Z" fill="white"/>
<path id="Vector_29" d="M149.115 9.69086H145.472V12.073L146.15 14.4552H148.435L149.115 12.073V9.69086Z" fill="white"/>
<path id="Vector_30" d="M69.7053 45.9998H66.647V49.1472H67.0809V47.6998H69.6042V47.3506H67.0809V46.346H69.7053V45.9998Z" fill="white"/>
<path id="Vector_31" d="M71.4706 48.8337C71.0545 48.8337 70.7172 48.7118 70.7172 48.1635V46.9806C70.7172 46.4322 71.0545 46.3103 71.4706 46.3103H73.2316C73.6477 46.3103 73.985 46.4322 73.985 46.9806V48.1635C73.985 48.7118 73.6477 48.8337 73.2316 48.8337H71.4706ZM73.2747 45.9641H71.426C70.5567 45.9641 70.2817 46.346 70.2817 47.141V48.003C70.2817 48.7995 70.5567 49.1814 71.426 49.1814H73.2747C74.144 49.1814 74.4189 48.7995 74.4189 48.003V47.141C74.4189 46.346 74.144 45.9641 73.2747 45.9641Z" fill="white"/>
<path id="Vector_32" d="M75.5932 47.5557V46.346H77.5711C78.2101 46.346 78.3647 46.4589 78.3647 46.8126V47.0994C78.3647 47.4293 78.1611 47.5557 77.6766 47.5557H75.5917M77.7242 45.9997H75.1562V49.1472H75.5902V47.9034H77.7108C78.1061 47.9034 78.3498 47.9643 78.3498 48.4562V49.1472H78.7585V48.3433C78.7585 48.0565 78.6515 47.8306 78.2086 47.7518V47.7429C78.5415 47.7117 78.7986 47.5913 78.7986 47.147V46.8899C78.7986 46.2984 78.653 45.9983 77.7257 45.9983" fill="white"/>
<path id="Vector_33" d="M82.4395 48.1338L83.5169 46.346L84.5943 48.1338H82.4395ZM83.7874 45.9998H83.2465L81.3398 49.1472H81.8317L82.23 48.4815H84.8024L85.2021 49.1472H85.694L83.7874 45.9998Z" fill="white"/>
<path id="Vector_34" d="M88.7582 48.7995V47.6998H90.9887C91.3825 47.6998 91.604 47.7607 91.604 48.1516V48.3775C91.604 48.6554 91.4583 48.7995 91.0541 48.7995H88.7582ZM88.7582 47.3521V46.3475H91.0244C91.1567 46.3475 91.4806 46.3906 91.4806 46.6789V46.9657C91.4806 47.2793 91.2369 47.3521 91.0021 47.3521H88.7582ZM91.0645 45.9998H88.3242V49.1472H91.1091C91.6411 49.1472 92.0394 48.9169 92.0394 48.477V48.1025C92.0394 47.624 91.7377 47.4992 91.3974 47.4814V47.4635C91.7882 47.4249 91.916 47.1946 91.916 46.9687V46.6997C91.916 46.3386 91.7288 45.9998 91.0645 45.9998Z" fill="white"/>
<path id="Vector_35" d="M95.9625 45.9998H92.8105V49.1472H95.9803V48.7995H93.2445V47.6998H95.8555V47.3506H93.2445V46.346H95.9625V45.9998Z" fill="white"/>
<path id="Vector_36" d="M99.972 45.9998H96.291V46.3475H97.9138V49.1472H98.3477V46.3475H99.972V45.9998Z" fill="white"/>
<path id="Vector_37" d="M103.801 45.9998H100.122V46.3475H101.744V49.1472H102.178V46.3475H103.801V45.9998Z" fill="white"/>
<path id="Vector_38" d="M107.456 45.9998H104.302V49.1472H107.474V48.7995H104.736V47.6998H107.349V47.3506H104.736V46.346H107.456V45.9998Z" fill="white"/>
<path id="Vector_39" d="M108.542 47.5557V46.346H110.52C111.159 46.346 111.313 46.4589 111.313 46.8126V47.0994C111.313 47.4293 111.11 47.5557 110.625 47.5557H108.54M110.673 45.9997H108.105V49.1472H108.539V47.9034H110.66C111.053 47.9034 111.297 47.9643 111.297 48.4562V49.1472H111.706V48.3433C111.706 48.0565 111.599 47.8306 111.156 47.7518V47.7429C111.489 47.7117 111.746 47.5913 111.746 47.147V46.8899C111.746 46.2984 111.6 45.9983 110.673 45.9983" fill="white"/>
<path id="Vector_40" d="M117.347 45.9641H115.706C114.837 45.9641 114.562 46.346 114.562 47.1425V48.0044C114.562 48.7995 114.837 49.1829 115.706 49.1829H117.498C118.301 49.1829 118.585 48.8782 118.585 48.0223V47.5869H116.506V47.9346H118.151V48.2526C118.151 48.688 117.885 48.8352 117.449 48.8352H115.751C115.335 48.8352 114.997 48.7133 114.997 48.1649V46.982C114.997 46.4337 115.335 46.3118 115.751 46.3118H116.877C117.95 46.3118 118.133 46.3549 118.133 46.9419H118.542V46.829C118.542 46.1023 117.925 45.9641 117.348 45.9641" fill="white"/>
<path id="Vector_41" d="M119.759 47.5557V46.346H121.737C122.376 46.346 122.53 46.4589 122.53 46.8126V47.0994C122.53 47.4293 122.327 47.5557 121.844 47.5557H119.759ZM121.891 45.9997H119.325V49.1472H119.759V47.9034H121.878C122.273 47.9034 122.517 47.9643 122.517 48.4562V49.1472H122.925V48.3433C122.925 48.0565 122.818 47.8306 122.376 47.7518V47.7429C122.708 47.7117 122.966 47.5913 122.966 47.147V46.8899C122.966 46.2984 122.82 45.9983 121.893 45.9983" fill="white"/>
<path id="Vector_42" d="M124.175 45.9998H123.74V49.1472H124.175V45.9998Z" fill="white"/>
<path id="Vector_43" d="M125.474 47.5601V46.346H127.58C127.957 46.346 128.165 46.4382 128.165 46.8126V47.1128C128.165 47.4383 127.962 47.5601 127.615 47.5601H125.474ZM127.682 45.9998H125.039V49.1472H125.474V47.9079H127.598C128.543 47.9079 128.601 47.5557 128.601 46.8557C128.601 46.1216 128.268 45.9998 127.682 45.9998Z" fill="white"/>
<path id="Vector_44" d="M132.444 48.8337C132.026 48.8337 131.69 48.7118 131.69 48.1635V46.9806C131.69 46.4322 132.026 46.3103 132.444 46.3103H134.205C134.621 46.3103 134.958 46.4322 134.958 46.9806V48.1635C134.958 48.7118 134.621 48.8337 134.205 48.8337H132.444ZM134.248 45.9641H132.399C131.53 45.9641 131.255 46.346 131.255 47.141V48.003C131.255 48.7995 131.53 49.1814 132.399 49.1814H134.248C135.117 49.1814 135.392 48.7995 135.392 48.003V47.141C135.392 46.346 135.117 45.9641 134.248 45.9641Z" fill="white"/>
<path id="Vector_45" d="M140.155 45.9998H139.719V48.7653L136.78 45.9998H136.132V49.1472H136.567V46.3817L139.507 49.1472H140.155V45.9998Z" fill="white"/>
<path id="Vector_46" d="M143.55 45.9998H143.115V49.1472H146.042V48.7995H143.55V45.9998Z" fill="white"/>
<path id="Vector_47" d="M146.955 45.9998H146.521V49.1472H146.955V45.9998Z" fill="white"/>
<path id="Vector_48" d="M150.88 45.9998H147.82V49.1472H148.254V47.6998H150.777V47.3506H148.254V46.346H150.88V45.9998Z" fill="white"/>
<path id="Vector_49" d="M154.693 45.9998H151.54V49.1472H154.711V48.7995H151.973V47.6998H154.586V47.3506H151.973V46.346H154.693V45.9998Z" fill="white"/>
<path id="Vector_50" d="M1.67628 20.8646C0.989716 22.9584 0.212507 25.1177 0 27.3052L3.76271 27.2829C4.01979 25.4372 4.45967 23.6182 5.0645 21.8513L1.67776 20.8646" fill="white"/>
</g>
<defs>
<clipPath id="clip0_2048_1044">
<rect width="167.096" height="52.7373" fill="white" transform="translate(0 0.743286)"/>
</clipPath>
</defs>
</svg>
