<svg viewBox="0 0 1082 181.18987730061352" xmlns="http://www.w3.org/2000/svg" data-name="Layer 1" id="Layer_1" style="max-height: 500px" width="1082" height="181.18987730061352">
  <defs>
    <style>
      .cls-1 {
        fill: #231f20;
      }
    </style>
  </defs>
  <path d="M885.38,100.52c-4.66,1.02-8.8,1.93-13.17,2.89-.2,.65-.47,1.42-.67,2.21-1.42,5.59-3.42,10.94-6.33,15.93-4.01,6.88-9.2,12.64-16.08,16.74-9.25,5.52-19.16,6.84-29.53,4.17-8.91-2.29-13.19-8.15-13.1-17.35,.04-3.68,.8-7.25,1.83-10.76,3.06-10.4,8.16-19.62,16.01-27.19,9.37-9.03,20.63-13.11,33.61-12.33,1.75,.11,3.52,.5,5.2,1,5.26,1.57,8.49,5.16,9.66,10.48,.44,2.02,.5,4.13,.66,6.2,.09,1.13,.02,2.28,.02,3.3,.75,.85,1.61,.74,2.43,.67,3.96-.34,7.83-1.12,11.69-2.59,.33-.82,.7-1.66,1.01-2.54,2.89-8.15,5.72-16.33,8.68-24.46,1.07-2.93,2.22-5.87,3.72-8.6,5.01-9.14,12.76-14.32,23.15-15.61,3.67-.46,7.29-.51,10.86,.45,3.94,1.06,7.31,3.02,9.62,6.52,.17,.26,.35,.5,.62,.88,.81-.59,1.46-1.07,2.11-1.56,7.47-5.68,15.9-7.52,25.08-6.14,2.71,.41,5.22,1.46,7.45,3.08,3.85,2.8,5.73,6.51,5.16,11.34-.19,1.64-.27,3.31-1.14,4.97-2.32,.23-4.66,.36-7.15-.13,.18-1.04,.37-1.95,.48-2.87,.26-2.31-.68-3.76-2.91-4.54-2.77-.97-5.35-.35-7.81,1.02-1.77,.99-3.13,2.44-4.17,4.16-.75,1.24-1.49,2.52-2.01,3.87-1.4,3.59-2.69,7.23-4.01,10.85-.1,.28-.07,.6-.11,1.12,1.21,.38,2.44,.19,3.64,.22,1.25,.03,2.5,0,3.75,0h7.67c-.05,2.03-.89,3.54-1.72,5.25-5.09,.03-10.18,.06-15.41,.09-.43,1.07-.84,2.01-1.18,2.97-7.93,22.51-15.83,45.04-23.79,67.54-1.07,3.04-2.25,6.08-3.78,8.91-5.66,10.46-14.69,15.58-26.45,16.09-2.39,.1-4.78,.04-7.17-.42-4.52-.88-8.25-2.85-10.54-7.03-.1-.17-.3-.28-.58-.53-.45,.33-.94,.67-1.39,1.05-5.23,4.41-11.37,6.44-18.1,6.89-2.71,.18-5.42,.15-8.09-.52-1.94-.49-3.79-1.15-5.51-2.17-5.62-3.33-7.71-8.76-5.77-15,.89-2.87,2.52-5.24,4.78-7.21,2.22-1.94,4.76-3.35,7.45-4.54,4.12-1.82,8.43-3.03,12.75-4.22,1.2-.33,2.41-.64,3.83-1.01,1.84-4.44,3.3-9.1,4.94-13.69,1.62-4.52,3.2-9.04,4.8-13.56,1.63-4.62,3.25-9.23,5.03-14.31h0Zm-24.64-9.98c0-1.06,.1-2-.02-2.91-.48-3.58-2.46-5.14-6.05-4.6-1.41,.21-2.84,.75-4.08,1.46-1.43,.82-2.82,1.84-3.96,3.02-1.8,1.87-3.54,3.84-5.03,5.96-4.54,6.45-7.77,13.56-9.88,21.15-.93,3.32-1.53,6.72-1.41,10.19,.03,.93,.14,1.87,.34,2.78,.45,2.03,1.72,3.2,3.77,3.7,3.28,.79,6.2,.04,8.92-1.77,2.82-1.88,5.02-4.38,6.96-7.12,3.71-5.25,6.24-11.06,8.05-17.2,.11-.38,.1-.81,.16-1.35-.44-.27-.87-.55-1.31-.8-1.43-.78-2-2.05-2.07-3.61-.14-3.26,1-5.92,3.76-7.77,.52-.35,1.06-.65,1.86-1.13h0Zm34.87,47.21c.19,.07,.4,.22,.58,.19,4.84-.66,9.68-1.34,14.52-2.02,.68-.1,1.11-.55,1.35-1.16,.27-.68,.51-1.36,.75-2.05,2.25-6.38,4.5-12.76,6.74-19.13,3.49-9.91,6.97-19.83,10.45-29.74,.27-.76,.79-1.51,.23-2.35-3.23-.43-12.68-.35-14.87,.13-1.32,2.7-19.3,53.78-19.75,56.13h0Zm-9.68,24.28c.7,1.38,1.85,1.86,3.06,2.19,.9,.25,1.83,.38,2.76,.52,4.47,.71,8.01-.84,10.45-4.61,1.18-1.82,2.19-3.79,2.96-5.81,1.67-4.37,3.15-8.81,4.68-13.23,.18-.52,.66-1.07-.02-1.88-5.19,.73-10.51,1.45-15.75,2.47-2.75,6.94-4.42,14.08-8.13,20.35h0Zm46.68-86.31c.17-.31,.42-.64,.56-1.02,1.61-4.4,3.23-8.8,4.8-13.22,.31-.87,.49-1.82,.54-2.74,.12-1.87-.77-3.2-2.52-3.9-1.48-.59-3.02-.76-4.61-.46-2.67,.5-4.85,1.83-6.6,3.89-1.57,1.85-2.69,3.97-3.53,6.23-1.17,3.12-2.29,6.26-3.41,9.41-.2,.56-.28,1.16-.42,1.76,2.59,.36,12.14,.4,15.19,.07h0Zm-62.93,71.04c-4.87,1.28-9.26,2.78-13.15,5.45-1.1,.76-2.09,1.71-3.01,2.69-1.01,1.06-1.68,2.36-2.08,3.79-.68,2.41-.08,3.99,2.09,5.22,2.39,1.35,4.76,1.21,7.11-.14,1.95-1.12,3.33-2.79,4.5-4.66,1.54-2.47,3.79-8.49,4.54-12.34h0Z" class="cls-1"/>
  <path d="M704.06,111.42c-.12-32.96,19.81-65.26,44.52-85.81,14.47-12.04,31.72-20.89,50.31-24.36,7.31-1.36,14.91-1.9,22.13-.15,7.22,1.75,14.07,6.03,17.68,12.52,4.38,7.87,3.47,17.63,1.14,26.33-3.26,12.15-9.04,23.6-16.88,33.43-5.51,6.92-12.15,13.11-20.09,17.02-7.94,3.91-17.28,5.38-25.77,2.9-5.51-1.61-10.71-5.06-13.2-10.23-2.64-5.49-1.88-11.99-.33-17.87,4.36-16.55,14.63-31.48,28.53-41.47,5.12-3.68,10.82-6.74,17.01-7.96,3.16-.62,6.61-.71,9.4,.9,5.24,3.04,5.75,10.4,4.71,16.37-2.18,12.46-8.44,24.18-17.58,32.92-3.42,3.27-7.42,6.22-12.07,7.07-1.69,.31-3.87,.06-4.48-1.55-.54-1.44,.57-2.93,1.61-4.06,8.84-9.66,18.56-20.25,19.15-33.33,.12-2.7-.48-5.9-2.91-7.08-2.22-1.07-4.84,.08-6.95,1.36-13.39,8.14-22.75,22.59-24.7,38.13-.66,5.24-.22,11.27,3.78,14.72,4.28,3.7,10.82,2.9,16.11,.89,17.72-6.74,29.57-24.04,35.28-42.12,1.52-4.83,2.71-9.86,2.38-14.92-.33-5.05-2.34-10.17-6.26-13.38-3.98-3.26-9.42-4.18-14.56-3.99-9.63,.36-18.91,4.25-26.77,9.83-7.86,5.58-14.42,12.81-20.35,20.41-17.97,23.03-30.98,51.31-29.77,80.5,.26,6.1,1.34,12.63,5.61,16.99,4.12,4.21,10.47,5.51,16.35,5.1,11.01-.78,21.47-7.19,27.18-16.64,2.19-3.62,3.85-7.8,7.3-10.25,1-.71,2.19-1.26,3.41-1.17,2.15,.15,3.76,2.28,3.99,4.43,.24,2.15-.58,4.27-1.5,6.22-8.41,17.7-27.31,28.86-46.69,31.76-7.69,1.15-15.77,1.13-23-1.72-14.53-5.73-22.7-21.96-23.57-37.55-.08-1.39-.12-2.79-.12-4.18h0Z" class="cls-1"/>
  <path d="M1017.71,128.27c-.89,.66-1.56,1.1-2.17,1.61-3.1,2.65-6.38,5.05-9.91,7.09-9.9,5.71-20.51,8-31.88,6.66-2.92-.35-5.73-1.11-8.35-2.49-4.67-2.47-7.31-6.37-8.1-11.57-.65-4.2-.16-8.34,.81-12.41,2.24-9.36,6.23-17.9,12.29-25.41,5.91-7.33,13.2-12.71,22.34-15.33,6.41-1.83,12.92-2.32,19.49-.98,1.51,.31,3.01,.9,4.37,1.63,2.87,1.55,4.38,4.08,4.63,7.33,.3,3.85-.58,7.46-2.3,10.88-1.85,3.69-4.46,6.79-7.6,9.45-6.1,5.17-13.17,8.37-20.92,10.08-2.74,.6-5.54,.93-8.3,1.38-1.36,3.16-1.79,7.9-1.07,11,.57,2.46,2.02,4.08,4.43,4.79,.89,.26,1.83,.43,2.75,.52,7.06,.64,13.74-.68,19.87-4.23,2.88-1.67,5.51-3.75,8.27-5.61,1.21-.81,1.78-1.91,2.03-3.33,.8-4.54,2.23-8.89,4.06-13.12,2.81-6.47,6.47-12.38,11.32-17.52,6.17-6.55,13.55-11.05,22.39-12.96,5.56-1.2,11.17-1.48,16.76-.28,1.51,.32,3.01,.89,4.37,1.63,2.87,1.55,4.38,4.07,4.64,7.33,.26,3.29-.35,6.44-1.63,9.46-1.91,4.53-4.95,8.19-8.7,11.29-6,4.94-12.91,8.01-20.45,9.66-2.74,.6-5.54,.93-8.48,1.4-.95,1.48-.89,3.28-1.01,5.02-.12,1.77-.04,3.54,.6,5.24,1.09,2.87,3.34,4.24,6.21,4.54,1.74,.18,3.56,.09,5.29-.19,4.47-.72,8.6-2.45,12.55-4.63,.9-.5,1.8-.99,2.97-1.62-.04,.63,.04,1.05-.09,1.38-3.58,9.27-10.15,15.1-19.94,17.11-5.89,1.21-11.81,1.25-17.7-.01-1.22-.26-2.42-.65-3.58-1.1-5.37-2.09-8.68-5.96-9.86-11.62-.12-.58-.23-1.16-.41-2.06h0Zm-33.63-19.19c.41,.1,.7,.26,.99,.23,.83-.07,1.67-.13,2.47-.32,7.27-1.75,13.13-5.63,17.52-11.7,1.47-2.04,2.67-4.25,3.25-6.7,.4-1.71,.76-3.49,.71-5.22-.08-2.71-1.77-3.89-4.43-3.43-2,.35-3.73,1.28-5.31,2.5-2.24,1.73-4.11,3.83-5.79,6.09-3.88,5.21-6.76,10.97-9.08,17.02-.18,.46-.21,.98-.32,1.53h0Zm60.58,.33c1.34-.14,2.48-.14,3.57-.4,7.28-1.7,13.15-5.55,17.52-11.62,1.53-2.13,2.7-4.45,3.35-6.99,.47-1.81,.92-3.64,.59-5.54-.38-2.19-1.8-3.26-3.98-2.98-1.68,.21-3.19,.89-4.59,1.84-1.99,1.36-3.7,3.03-5.22,4.88-4.88,5.91-8.43,12.58-11.15,19.72-.07,.18-.04,.41-.09,1.08h0Z" class="cls-1"/>
  <path d="M290.31,130.96c-1.17,.94-2.22,1.78-3.26,2.63-6.15,4.96-12.87,8.85-20.48,11.13-6.89,2.06-13.91,2.66-21.04,1.76-2.49-.32-4.91-.96-7.19-2.05-5.26-2.52-8.07-6.74-8.53-12.53-.27-3.35,0-6.68,.81-9.94,3.01-12.1,8.64-22.77,17.61-31.53,7.24-7.08,15.9-11.38,25.99-12.55,4.14-.48,8.33-.53,12.45,.39,6.79,1.51,9.64,5.74,8.53,12.55-.71,4.34-2.57,8.12-5.26,11.53-2.28,2.89-4.98,5.33-8.01,7.41-6.82,4.7-14.37,7.51-22.56,8.65-1.44,.2-2.88,.4-4.46,.62-1.25,3.63-1.76,7.29-1.22,11.05,.32,2.22,1.61,3.84,3.78,4.58,.97,.33,2.01,.57,3.04,.67,6.71,.65,13.07-.57,19.09-3.61,3.75-1.89,7.12-4.33,10.43-6.88,1.11-.86,1.44-1.98,1.73-3.2,1.79-7.7,5-14.79,9.34-21.38,3.59-5.45,7.91-10.22,13.18-14.1,9.05-6.65,19.23-9.33,30.35-8.39,2.05,.17,4.13,.71,6.04,1.46,3.77,1.47,5.69,4.37,5.76,8.47,.05,3.42-.8,6.61-2.29,9.64-1.96,4-4.81,7.31-8.21,10.13-6.31,5.23-13.58,8.5-21.55,10.21-2.74,.59-5.54,.92-8.46,1.39-1,3.05-1.63,6.2-1.44,9.44,.24,4.09,2.32,6.27,6.44,6.74,6.47,.74,12.67-.26,18.59-3.01,5.26-2.44,9.79-5.94,14.21-9.61,.95-.79,1.33-1.84,1.75-2.9,2.79-7.08,5.56-14.17,8.34-21.25,1.41-3.59,2.83-7.17,4.23-10.77,.38-.96,.7-1.94,1.12-3.11-.58-.2-1.02-.42-1.48-.49-1-.16-2.08,.23-3.11-.46,.32-1.62,.96-3.13,1.75-4.72,1.67-.09,3.31-.17,5.1-.26,2.63-6.04,4.81-12.22,7.39-18.27,2.59-.76,5.2-.79,7.77-1.09,2.69-.32,5.37-.78,8.07-.94,2.56-.15,5.09-1,7.91-.55-2.51,6.98-5.44,13.64-7.96,20.62,1.03,.53,1.96,.34,2.85,.37,1.04,.03,2.09,0,3.13,.01,.93,.02,1.85,.07,2.91,.11-.05,1.85-.9,3.28-1.58,4.9-3.05,.65-6.19-.02-9.37,.44-.29,.55-.62,1.06-.84,1.62-5.11,13-10.22,26-15.3,39.01-.49,1.25-.88,2.58-1.1,3.9-.46,2.72,.6,4.17,3.26,4.71,3.34,.68,6.44-.05,9.32-1.71,4.59-2.65,7.82-6.5,9.76-11.43,2.33-5.92,4.63-11.84,6.94-17.77,2.73-6.99,5.46-13.98,8.2-20.97,.34-.86,.74-1.71,1.08-2.48,2.47-.41,18.66-.49,22.37-.13,.46,1.08-.3,1.97-.64,2.86-4.37,11.27-8.78,22.53-13.19,33.79-1.1,2.81-2.24,5.61-3.29,8.45-.47,1.26-.78,2.59-1.11,3.9-.12,.5-.14,1.04-.12,1.55,.13,2.9,1.79,4.39,4.69,4.16,3.27-.25,5.97-1.74,8.26-4.02,2.7-2.69,4.68-5.85,6.07-9.39,1.98-5.05,3.93-10.1,5.9-15.15,3.07-7.87,6.16-15.72,9.24-23.58,.34-.86,.71-1.71,1.09-2.62,.6-.06,1.11-.15,1.62-.15,6.78,.01,13.56,.03,20.34,.07,.17,0,.33,.19,.64,.38-.36,1.03-.71,2.1-1.12,3.15-5.3,13.59-10.63,27.18-15.92,40.78-.72,1.84-1.39,3.72-1.86,5.63-.65,2.69,.42,4.19,3.09,4.75,2.02,.43,3.94-.03,5.84-.61,2.12-.65,4-1.77,5.78-3.06,2.46-1.78,4.66-3.86,6.61-6.18,7.64-9.07,13.01-19.34,16.21-30.75,.28-.99,.42-2.02,.66-3.23-.66,0-1.14-.04-1.62,0-1.03,.12-2.06,.32-3.09,.41-2.35,.21-4.26-1.2-4.94-3.87-.87-3.4,.55-6.83,3.66-8.57,3.35-1.87,6.97-2.1,10.61-1.09,2.25,.63,3.68,2.28,4.42,4.51,.74,2.23,.73,4.51,.38,6.8-.73,4.75-1.91,9.39-3.5,13.93-3.59,10.23-8.64,19.64-15.78,27.87-3.57,4.12-7.61,7.72-12.25,10.62-8.06,5.04-16.8,7.22-26.27,6.15-2.04-.23-4.11-.76-6.03-1.51-3.37-1.31-5.74-3.71-6.75-7.3-.14-.49-.36-.95-.63-1.65-.6,.48-1.06,.84-1.51,1.2-2.13,1.67-4.14,3.52-6.41,4.98-6.01,3.9-12.67,5.22-19.74,4.27-1.52-.21-3.06-.69-4.48-1.3-3.15-1.35-5.22-3.73-6.17-7.05-.25-.86-.46-1.74-.76-2.89-.97,.79-1.76,1.42-2.53,2.09-5.16,4.45-11,7.49-17.73,8.78-3.61,.69-7.25,.91-10.89,.35-1.23-.19-2.46-.51-3.61-.96-4.52-1.78-6.93-5.19-7.38-9.97-.14-1.44-.02-2.91-.02-4.67-.64,.29-1.12,.42-1.47,.69-2.23,1.71-4.37,3.55-6.68,5.17-6.83,4.8-14.32,8.11-22.6,9.43-5.81,.93-11.63,1.12-17.4-.29-1.71-.42-3.41-1.02-4.98-1.79-4.19-2.06-6.76-5.45-7.68-10.05-.16-.82-.32-1.64-.49-2.45-.02-.1-.1-.18-.35-.64h0Zm-32.99-18.84c.88,0,1.39,.05,1.89-.01,.72-.09,1.44-.23,2.14-.4,6.8-1.68,12.36-5.32,16.77-10.73,2.26-2.78,3.94-5.89,4.64-9.42,.28-1.41,.32-2.89,.25-4.33-.06-1.26-.91-2.1-2.15-2.35-.69-.14-1.45-.15-2.15-.04-1.88,.31-3.54,1.18-5.06,2.3-2.29,1.67-4.22,3.71-5.96,5.92-4.22,5.34-7.44,11.26-10.01,17.55-.15,.37-.19,.79-.36,1.52h0Zm60.98,.19c1.49-.19,2.63-.24,3.72-.5,7.26-1.74,13.15-5.61,17.68-11.54,1.72-2.25,3.07-4.73,3.78-7.48,.39-1.5,.71-3.07,.7-4.61-.01-2.54-1.63-3.79-4.13-3.41-1.88,.29-3.57,1.09-5.12,2.19-2.06,1.45-3.83,3.21-5.43,5.14-4.7,5.66-8.2,12.03-10.92,18.84-.11,.28-.13,.59-.29,1.36h0Z" class="cls-1"/>
  <path d="M134.46,3.8c2.15-.02,4.3,.05,6.44,.21,7.69,.57,16.24,2.93,19.92,9.72,3.73,6.88,.82,15.64-4.03,21.78-7.4,9.39-19.26,15.11-31.22,15.06-4.8-.02-9.94-1.1-13.24-4.59-4.97-5.24-3.83-14.2,.71-19.83,4.53-5.62,11.51-8.62,18.33-11.01,1.41-.5,3.42-.74,4,.65,.5,1.18-.6,2.37-1.54,3.24-4.54,4.17-7.93,9.57-9.71,15.46-.9,2.96-1.1,6.79,1.46,8.51,.94,.63,2.09,.85,3.22,.93,5.44,.37,10.82-2.2,14.6-6.12,3.78-3.92,6.11-9.06,7.46-14.34,.58-2.28,.99-4.75,.16-6.95-1.38-3.66-5.61-5.34-9.49-5.84-6.57-.86-13.26,.46-19.56,2.51-8.55,2.78-17.35,7.66-20.47,16.09-2.31,6.22-1.05,13.23,1.31,19.44,4.78,12.64,13.8,23.41,17.93,36.28,4.68,14.57,2.36,31.35-6.57,43.79-9.29,12.95-24.49,20.35-39.71,25.08-15.18,4.71-31.35,7.27-47.02,4.57-10.24-1.77-20.95-6.57-25.34-15.99-6.2-13.29,2.49-27.91,11.88-37.1,9.73-9.52,22.59-15.89,36.13-17.52,8.68-1.05,18.19,.02,24.8,5.73,8.51,7.34,9.71,20.99,4.37,30.88-5.33,9.89-15.94,16.14-26.94,18.44-7.61,1.59-16.94,.79-21.11-5.76-2.18-3.42-2.44-7.77-1.8-11.77,1.26-7.81,5.83-15.03,12.35-19.5,1.76-1.21,4.4-2.11,5.79-.49,1.38,1.61,.12,4.03-.99,5.83-3.06,5.01-4.8,10.82-4.99,16.69-.06,1.88,.07,3.88,1.11,5.44,2.32,3.48,7.62,2.99,11.43,1.28,8.96-4.03,15.6-12.85,17-22.58,.58-4.06,.24-8.44-2.02-11.88-4.71-7.17-15.44-7.21-23.38-3.97-11.89,4.86-21.31,15.41-24.8,27.77-1.8,6.39-1.9,13.79,2.13,19.07,4.04,5.29,11.18,7.14,17.83,7.43,14.68,.66,29.54-4.83,40.28-14.86,4.43-4.14,8.22-9.11,10.11-14.87,4.19-12.78-1.62-26.52-7.83-38.44-6.21-11.93-13.18-24.67-11.34-38,1.91-13.84,13.13-24.75,25.49-31.26,11.32-5.96,24.09-9.13,36.88-9.22h0Z" class="cls-1"/>
  <path d="M573.47,77.3c11.04-1.56,21.44-2.6,23.66-2.35,0,.79,.06,1.6,0,2.4-1.11,12.36-1.89,24.75-2.39,37.15-.18,4.47-.53,8.93-1.66,13.29,.72,.5,1.24,0,1.71-.24,1.96-.98,3.87-2.05,5.83-3.02,1.41-.69,2.11-1.69,2.5-3.28,2.43-9.75,6.8-18.58,13.23-26.33,5.7-6.88,12.6-12.13,21.15-15.01,6.94-2.33,14.04-3.02,21.27-1.65,1.41,.27,2.83,.78,4.11,1.42,2.81,1.4,4.41,3.73,4.73,6.9,.29,2.86-.19,5.61-1.14,8.29-1.27,3.6-3.34,6.7-5.92,9.49-3.52,3.79-7.7,6.7-12.32,8.98-5.37,2.65-11.02,4.41-16.98,5.12-1.34,.16-2.67,.39-4.04,.59-1.19,2.83-1.41,5.72-1.07,8.63,.37,3.1,2.08,5.15,5.17,5.96,2.17,.57,4.35,.46,6.51,.07,4.77-.86,9.19-2.69,13.41-5.02,.68-.38,1.4-.68,2.55-1.23-.29,.95-.39,1.43-.58,1.87-3.63,8.37-9.77,13.9-18.66,16.2-6.46,1.67-13.01,1.77-19.52,.32-1.91-.43-3.8-1.17-5.53-2.09-4.13-2.21-6.46-5.78-7.22-10.39-.18-1.12-.34-2.24-.54-3.62-.72,.35-1.27,.55-1.75,.86-4.32,2.74-8.8,5.19-13.41,7.4-.93,.45-1.84,.99-2.69,1.58-5.89,4.09-12.5,6.15-19.54,6.91-4.47,.49-8.95,.53-13.38-.54-4.73-1.15-8.74-3.36-11.32-7.68-.15-.25-.43-.42-.77-.74-.76,.55-1.5,1.07-2.23,1.61-4.66,3.5-9.8,5.92-15.54,7-3.61,.69-7.24,.87-10.89,.37-1.78-.24-3.45-.79-5.03-1.64-3.97-2.12-5.7-5.63-6.04-9.95-.2-2.52,.21-5,.89-7.42,.5-1.81,1.06-3.61,1.74-5.35,5.32-13.7,10.69-27.38,16.04-41.07,.26-.67,.58-1.33,.86-1.97,2.59-.44,19.95-.44,22.68,.03-.38,1.1-.71,2.17-1.12,3.22-5.31,13.59-10.65,27.17-15.93,40.78-.71,1.83-1.34,3.74-1.71,5.67-.54,2.77,.52,4.16,3.22,4.68,4.3,.83,8.03-.56,11.39-3.11,.52-.4,.93-1.15,1.08-1.81,1.19-5,4.18-8.57,8.67-10.89,1.27-.66,2.12-1.64,2.96-2.7,6.27-7.97,11.78-16.44,16.76-25.27,1.84-3.27,3.59-6.59,5.38-9.89,.45-.82,.9-1.63,1.41-2.55h0Zm-17.25,39.73c.46,.43,.83,.77,1.2,1.1,1.61,1.43,1.86,3.14,1.13,5.1-1.15,3.07-4.15,5.23-7.46,5.22-1.22,0-2.44-.26-3.79-.42-.16,.32-.46,.67-.49,1.04-.27,3.5,1.66,6.12,5.11,6.75,2.9,.53,5.82,.43,8.68-.34,5.44-1.47,8.8-4.94,9.97-10.47,.26-1.22,.46-2.46,.51-3.71,.39-9.05,.75-18.11,1.09-27.17,0-.22-.19-.44-.36-.8-2.58,4.16-4.95,8.19-7.52,12.09-2.57,3.9-5.33,7.67-8.08,11.6h0Zm73.21-5.01c.53,.07,.93,.19,1.32,.16,.83-.06,1.66-.13,2.47-.33,7.47-1.78,13.52-5.74,18.06-11.95,2.06-2.81,3.44-5.93,4-9.37,.17-1.01,.22-2.08,.09-3.1-.2-1.64-1.3-2.59-2.94-2.7-.51-.03-1.04,.05-1.54,.15-1.66,.33-3.13,1.09-4.5,2.06-2.31,1.64-4.25,3.66-6.02,5.85-4.35,5.37-7.69,11.34-10.46,17.65-.2,.46-.3,.97-.48,1.58h0Z" class="cls-1"/>
  <path d="M186.45,145.78c-3.78,.36-20.13,.29-22.53-.08,.2-2.26,1.69-4.18,2.09-6.81-1.04,.64-1.73,1.03-2.39,1.47-5.85,3.94-12.26,6.16-19.33,6.42-2.72,.1-5.42-.03-8.04-.87-5.16-1.66-8.1-5.47-8.41-10.85-.16-2.74,.17-5.42,.97-8.03,.62-1.99,1.28-3.97,2.04-5.91,4.32-11.07,8.67-22.13,13.01-33.19,.41-1.05,.78-2.11,1.17-3.19-1.41-1.16-3.03-.22-4.49-1.02,.09-1.71,1.05-3.17,1.59-4.87h5.02c.43-.9,.87-1.71,1.21-2.56,1.74-4.36,3.45-8.72,5.18-13.08,.38-.96,.8-1.91,1.25-2.98,7.78-1.08,15.54-1.77,23.62-2.76-.32,1.12-.48,1.88-.76,2.61-2.04,5.24-4.12,10.48-6.17,15.72-.33,.85-.6,1.73-.97,2.79,3.07,.52,5.99-.09,8.91,.43-.16,1.8-.93,3.27-1.66,4.84-3.07,.6-6.21-.06-9.38,.43-.36,.78-.75,1.51-1.05,2.27-4.96,12.61-9.93,25.22-14.84,37.84-.6,1.54-1.08,3.17-1.32,4.8-.36,2.4,.71,3.74,3.08,4.26,3.44,.76,6.64,.01,9.62-1.72,4.49-2.6,7.68-6.37,9.6-11.18,2.77-6.97,5.47-13.98,8.2-20.97,2.31-5.92,4.62-11.85,6.94-17.77,.38-.96,.8-1.9,1.16-2.75,2.75-.35,19.61-.36,22.47-.03-.09,2.51-1.84,4.54-2.1,6.98,.79,.44,1.18-.25,1.66-.51,2.74-1.49,5.4-3.16,8.21-4.51,3.33-1.6,6.88-2.42,10.61-2.18,.83,.05,1.68,.1,2.47,.32,5.95,1.66,7.28,7.01,5.81,11.61-.59,1.83-1.67,3.36-3.1,4.62-2.99,2.64-6.56,3.57-10.45,3.19-2.74-.27-3.82-1.43-4.27-4.15-.13-.82-.19-1.66-.37-2.47-.38-1.7-1.1-2.29-2.88-2.11-1.34,.13-2.68,.4-3.97,.79-2.53,.77-4.66,2.29-6.81,3.78-.94,.65-1.19,1.68-1.56,2.64-2.31,5.92-4.61,11.85-6.91,17.78-3.63,9.33-7.25,18.65-10.88,27.98-.38,.97-.79,1.92-1.22,2.97h0Z" class="cls-1"/>
  <path d="M535.44,71.48c-2.1,.11-4.22-.37-6.18-1.43-4.31-2.31-5.99-6.89-4.21-11.45,.19-.48,.41-.96,.66-1.41,3.43-6.13,12.2-8.88,18.54-5.82,5.44,2.63,7.13,8.59,3.85,13.67-2.77,4.31-8.23,6.61-12.67,6.43h0Z" class="cls-1"/>
</svg>