<?xml version="1.0" encoding="UTF-8"?>
<svg id="Layer_1" data-name="Layer 1" xmlns="http://www.w3.org/2000/svg" viewBox="0 0 437.71 110.77">
  <defs>
    <style>
      .cls-1 {
        fill: none;
      }

      .cls-2 {
        fill: gray;
      }

      .cls-3 {
        opacity: .1;
      }

      .cls-3, .cls-4 {
        isolation: isolate;
      }

      .cls-4 {
        fill: #fff;
      }
    </style>
  </defs>
  <path d="M125.48,110.65c.38,.12,.78-.1,.9-.48,.07-.24,.01-.51-.16-.7C98.3,78.28,77.13,41.64,64.07,1.86l-.14-.43c-.13-.38-.53-.58-.91-.46-.22,.07-.39,.24-.46,.46l-.24,.72C49.27,41.83,28.14,78.37,.27,109.48c-.27,.3-.24,.75,.05,1.02,.19,.17,.45,.23,.69,.15,2.29-.69,4.6-1.33,6.9-1.94,36.26-9.59,74.39-9.59,110.65,0,2.31,.61,4.61,1.25,6.91,1.94"/>
  <path class="cls-4" d="M63.25,64c-10.97,0-16.59,10.94-40.86,32.81-2.65,2.39-9.28,8.39-18.97,13.12,1.5-.43,3-.84,4.5-1.24,36.26-9.59,74.39-9.59,110.65,0,1.5,.4,3,.81,4.5,1.24-9.69-4.73-16.31-10.73-18.97-13.12-24.26-21.88-30-32.81-40.85-32.81"/>
  <path d="M63.25,78.3c-9.9,0-14.99,7.15-36.92,21.44-5.53,3.68-11.5,6.64-17.78,8.8,35.86-9.37,73.53-9.37,109.39,0-6.28-2.16-12.25-5.12-17.78-8.8-21.93-14.3-27.11-21.44-36.92-21.44"/>
  <path class="cls-3" d="M19.59,104.92c-1.55,.59-4.39,1.67-8.35,2.87,34.17-8.41,69.87-8.36,104.02,.14-4.21-1.26-7.22-2.41-8.83-3.02-25.79-9.78-31.89-14.66-43.42-14.66s-17.63,4.89-43.42,14.67"/>
  <path d="M193,1.14l-23.36,36.65c-1.25,1.96-1.91,4.23-1.91,6.55v30.52h15.28V42L209.97,1.14h-16.97Z"/>
  <path d="M230.59,63.39c2.81,0,5.33-.72,7.58-2.16,2.24-1.43,4.05-3.45,5.22-5.84,1.23-2.46,1.85-5.27,1.85-8.42s-.62-5.96-1.85-8.42c-1.16-2.38-2.97-4.39-5.22-5.79-2.25-1.4-4.77-2.11-7.58-2.11s-5.44,.7-7.69,2.11-4.07,3.41-5.26,5.79c-1.26,2.46-1.89,5.27-1.9,8.42,0,3.15,.63,5.96,1.9,8.42,1.2,2.39,3.02,4.4,5.26,5.84,2.25,1.43,4.81,2.15,7.69,2.15h0Zm0,12.54c-5.69,0-10.74-1.25-15.17-3.74-4.34-2.41-7.95-5.96-10.42-10.27-2.53-4.35-3.79-9.34-3.79-14.95s1.26-10.5,3.79-14.85c2.48-4.31,6.08-7.86,10.42-10.27,4.42-2.49,9.48-3.74,15.17-3.74s10.53,1.25,14.95,3.74c4.34,2.41,7.95,5.96,10.42,10.27,2.53,4.35,3.79,9.3,3.79,14.85s-1.26,10.6-3.79,14.95c-2.48,4.31-6.08,7.86-10.42,10.27-4.42,2.49-9.41,3.74-14.95,3.74"/>
  <path d="M286.2,75.92c-6.11,0-10.9-1.98-14.37-5.95-3.48-3.97-5.21-9.43-5.2-16.38V19.26h14.32v31.7c0,4,.97,7.14,2.9,9.43,1.93,2.28,4.58,3.42,7.95,3.42s6.16-1.05,8.37-3.16,3.32-4.81,3.32-8.11V19.26h14.32v55.6h-13.69l-.32-7.79c-1.9,2.67-4.4,4.81-7.53,6.42-3.11,1.61-6.56,2.45-10.06,2.43"/>
  <path d="M328.53,74.86V19.26h13.9l.21,7.9c1.96-2.66,4.48-4.87,7.37-6.48,2.82-1.62,6.02-2.47,9.27-2.48,4,0,7.33,.86,10,2.58s4.85,4.44,6.53,8.16c2.03-3.29,4.88-5.99,8.27-7.84,3.48-1.93,7.07-2.9,10.79-2.9,12.71,0,19.06,7.65,19.06,22.96v33.7h-14.44V42.21c0-7.72-3.16-11.58-9.48-11.58-3.37,0-6.16,1.05-8.37,3.16-2.21,2.11-3.32,4.74-3.32,7.9v33.17h-14.44V42c0-3.65-.81-6.46-2.42-8.42-1.62-1.97-3.93-2.95-6.95-2.95-3.3,0-6.06,1.05-8.27,3.16s-3.32,4.67-3.32,7.69v33.38h-14.39Z"/>
  <path d="M429.31,76.02c-2.6,0-4.64-.75-6.11-2.26-1.47-1.51-2.21-3.67-2.21-6.48,0-2.6,.77-4.72,2.32-6.38,1.54-1.66,3.55-2.48,6-2.48,2.67,0,4.72,.77,6.16,2.32,1.44,1.54,2.16,3.72,2.16,6.53,0,2.52-.75,4.61-2.26,6.27-1.51,1.65-3.53,2.48-6.05,2.48"/>
  <path class="cls-2" d="M156.17,1.14h-17.67l27.44,38.78c2.53-4.9,5.26-16.48,1.36-22.75L156.18,1.14h-.01Z"/>
  <rect class="cls-1" width="437.71" height="110.77"/>
  <polygon points="207.14 91.45 203.25 100.51 203.25 105.35 201.64 105.35 201.64 100.51 197.77 91.45 199.47 91.45 202.79 99.51 202.12 99.51 205.44 91.45 207.14 91.45"/>
  <rect class="cls-1" width="437.71" height="110.77"/>
  <g>
    <path d="M212.64,104.06c.64,.01,1.27-.15,1.83-.46,.53-.31,.96-.76,1.24-1.3,.31-.61,.46-1.28,.45-1.96,.02-.68-.14-1.34-.45-1.95-.28-.53-.71-.97-1.24-1.27-1.14-.6-2.51-.6-3.65,0-.53,.3-.96,.74-1.24,1.27-.31,.6-.47,1.27-.45,1.95-.02,.68,.14,1.36,.45,1.96,.28,.54,.71,.99,1.24,1.3,.56,.31,1.19,.47,1.82,.46m0,1.46c-.93,.02-1.85-.21-2.66-.67-.76-.44-1.38-1.08-1.81-1.85-.45-.82-.67-1.74-.66-2.67-.02-.93,.21-1.84,.66-2.65,.42-.76,1.05-1.39,1.81-1.82,1.67-.88,3.66-.88,5.32,0,.76,.43,1.39,1.06,1.81,1.82,.45,.81,.67,1.73,.65,2.65,.02,.93-.21,1.85-.65,2.67-.42,.77-1.05,1.41-1.81,1.85-.81,.46-1.73,.69-2.66,.67"/>
    <path d="M227.17,95.34h1.6v10.01h-1.6v-10.01Zm-3.22,10.18c-.62,.02-1.23-.11-1.79-.37-.45-.23-.84-.56-1.14-.97-.28-.39-.48-.82-.59-1.29-.11-.44-.17-.88-.17-1.33v-6.23h1.61v5.84c0,.48,.07,.96,.21,1.41,.13,.42,.39,.79,.74,1.05,.35,.27,.83,.4,1.45,.4,.55,0,1.08-.18,1.51-.52,.44-.35,.78-.8,1.02-1.31,.24-.49,.36-1.03,.37-1.57l.93,.39c0,.55-.1,1.1-.29,1.62-.19,.53-.48,1.02-.84,1.45s-.81,.78-1.31,1.03c-.53,.26-1.12,.4-1.71,.39"/>
    <path d="M231.56,105.35v-10.01h1.6v3.07l-.53-.19c.04-.38,.14-.75,.28-1.1,.15-.36,.36-.69,.63-.98,.28-.3,.63-.54,1.01-.7,.45-.18,.93-.27,1.41-.26,.33,0,.66,.03,.98,.1,.16,.04,.32,.09,.48,.16l-.41,1.57c-.12-.07-.25-.13-.38-.17-.26-.08-.54-.11-.82-.1-.45-.02-.89,.08-1.3,.28-.33,.18-.61,.43-.81,.75-.2,.31-.34,.65-.42,1.01-.08,.35-.12,.72-.12,1.08v5.47h-1.61v.02Z"/>
  </g>
  <polygon points="253.49 91.45 256.26 91.45 256.26 105.35 254.73 105.35 254.73 92.73 254.78 92.75 251.24 105.34 248.94 105.34 245.38 92.74 245.43 92.72 245.43 105.35 243.9 105.35 243.9 91.45 246.67 91.45 250.08 104.05 250.06 104.05 253.49 91.45"/>
  <rect class="cls-1" width="437.71" height="110.77"/>
  <g>
    <path d="M263.93,104.06c.64,.01,1.27-.15,1.83-.46,.53-.31,.96-.76,1.24-1.3,.31-.61,.47-1.28,.45-1.96,.02-.68-.14-1.34-.45-1.95-.28-.53-.71-.98-1.24-1.27-1.14-.6-2.51-.6-3.65,0-.53,.3-.96,.74-1.24,1.27-.31,.6-.46,1.27-.45,1.95-.02,.68,.14,1.36,.45,1.96,.28,.54,.71,.99,1.24,1.3,.55,.31,1.18,.47,1.82,.46m0,1.46c-.93,.02-1.85-.21-2.66-.67-.76-.44-1.39-1.08-1.81-1.85-.45-.82-.67-1.74-.65-2.67-.02-.93,.21-1.84,.65-2.65,.42-.76,1.05-1.39,1.81-1.82,1.67-.88,3.66-.88,5.32,0,.76,.43,1.39,1.06,1.81,1.82,.45,.81,.67,1.73,.65,2.65,.02,.93-.21,1.85-.65,2.67-.42,.77-1.05,1.41-1.81,1.85-.81,.46-1.73,.69-2.66,.67"/>
    <path d="M271.55,105.35v-10.01h1.6v3.07l-.53-.19c.04-.38,.14-.75,.28-1.1,.15-.36,.36-.69,.63-.98,.28-.3,.63-.54,1.01-.7,.45-.18,.93-.27,1.41-.26,.33,0,.66,.03,.99,.1,.16,.03,.32,.09,.48,.16l-.41,1.57c-.12-.07-.25-.13-.38-.17-.26-.08-.54-.11-.82-.1-.45-.02-.89,.08-1.29,.28-.33,.18-.61,.43-.81,.75-.2,.31-.34,.65-.42,1.01-.08,.35-.12,.72-.12,1.08v5.47h-1.61v.02Z"/>
    <path d="M283.1,105.5c-.3,0-.61-.04-.9-.1-.29-.07-.56-.19-.8-.37-.25-.2-.44-.46-.56-.76-.15-.41-.22-.84-.21-1.28v-6.23h-2.44v-1.41h1.56c.17,0,.34,0,.5-.02,.1,0,.19-.05,.26-.12,.06-.09,.1-.2,.1-.31,.01-.14,.02-.34,.02-.59v-2.27h1.61v3.32h3.13v1.41h-3.13v5.62c-.02,.43,.05,.85,.19,1.25,.13,.3,.42,.45,.87,.45,.17,0,.35-.01,.52-.05,.13-.02,.25-.05,.37-.09v1.39c-.15,.05-.3,.08-.45,.11-.21,.04-.43,.05-.65,.05"/>
    <path d="M291.6,101.77c.54,.01,1.07-.09,1.57-.3,.42-.18,.77-.49,1.01-.88,.25-.42,.37-.9,.35-1.39,.01-.48-.11-.96-.35-1.37-.24-.39-.59-.7-1.01-.89-.49-.22-1.02-.33-1.56-.32-.53-.01-1.05,.1-1.53,.33-.89,.41-1.44,1.31-1.41,2.29-.01,.48,.11,.96,.35,1.37,.24,.39,.59,.69,1.01,.87,.5,.21,1.03,.32,1.57,.3m3.59-6.44h1.51l-.62,3.94c-.1,.7-.35,1.38-.71,1.99-.36,.59-.86,1.08-1.46,1.41-.71,.37-1.5,.55-2.29,.52-.84,.02-1.67-.15-2.43-.52-.64-.31-1.18-.81-1.54-1.42-.72-1.27-.72-2.84,.02-4.1,.38-.62,.92-1.12,1.56-1.45,1.35-.66,2.92-.71,4.31-.13,.53,.23,.99,.57,1.37,1.01,.31,.34,.5,.76,.56,1.22l-.6,.04,.33-2.51h0Zm-1.38,9.39c.49,.03,.97,.13,1.43,.3,.38,.13,.71,.36,.97,.67,.25,.34,.37,.75,.35,1.18,0,.52-.19,1.03-.55,1.42-.36,.41-.92,.73-1.66,.97-.91,.25-1.85,.37-2.8,.35-1.59,0-2.79-.23-3.6-.69s-1.22-1.09-1.22-1.89c0-.23,.03-.45,.09-.67,.05-.16,.11-.32,.2-.47l1.53,.23c-.06,.1-.11,.2-.15,.32-.05,.16-.07,.33-.07,.49,0,.5,.29,.85,.86,1.06s1.38,.31,2.43,.31c.65,.01,1.29-.04,1.93-.16,.4-.06,.79-.22,1.12-.46,.22-.16,.35-.42,.36-.7,0-.41-.17-.66-.51-.76-.41-.11-.84-.18-1.27-.2l-3.81-.28c-.57-.03-1.11-.23-1.55-.59-.38-.3-.6-.76-.6-1.25,0-.3,.08-.6,.22-.86,.13-.25,.31-.49,.52-.68,.15-.15,.33-.27,.53-.34l1.26,.57c-.22,.06-.42,.17-.58,.33-.21,.16-.33,.41-.34,.67,0,.22,.1,.44,.27,.57,.18,.15,.54,.24,1.08,.29l3.53,.29,.03-.02Z"/>
    <path d="M302.17,104.09c.6,0,1.19-.09,1.75-.3,.49-.17,.92-.48,1.25-.88,.31-.42,.48-.93,.46-1.45v-1.99l.36,.6c-.49,.18-.99,.31-1.5,.38-.6,.1-1.23,.18-1.88,.24-.95,.09-1.66,.26-2.14,.5-.47,.23-.76,.72-.73,1.24-.03,.49,.2,.95,.59,1.24,.4,.27,1.01,.41,1.84,.41m-.25,1.45c-.68,.01-1.36-.11-1.99-.36-.53-.21-.99-.57-1.32-1.03-.32-.48-.49-1.04-.47-1.62-.02-.59,.16-1.16,.5-1.63,.38-.46,.87-.82,1.43-1.02,.69-.26,1.41-.43,2.15-.49,.88-.08,1.76-.2,2.63-.37,.52-.12,.78-.32,.78-.6v-.03c.03-.53-.25-1.03-.71-1.3-.47-.29-1.15-.43-2.05-.43s-1.65,.17-2.17,.49c-.51,.32-.77,.84-.77,1.57h-1.58c-.02-.68,.18-1.35,.57-1.91,.41-.54,.96-.96,1.6-1.2,1.48-.54,3.1-.56,4.58-.04,.61,.22,1.15,.6,1.56,1.1,.4,.52,.6,1.15,.58,1.8v4.99c0,.22,0,.43,.03,.64,.01,.18,.05,.37,.09,.55,.04,.16,.11,.31,.19,.46,.05,.09,.1,.17,.17,.24h-1.61c-.05-.07-.1-.14-.14-.22-.07-.13-.13-.27-.18-.41-.05-.15-.09-.31-.1-.48-.03-.2-.04-.4-.04-.6l.26,.18c-.21,.36-.5,.67-.85,.89-.41,.28-.87,.48-1.35,.6-.59,.15-1.19,.23-1.79,.22"/>
    <path d="M314.08,101.77c.54,.01,1.07-.09,1.57-.3,.42-.18,.77-.49,1.01-.88,.25-.42,.37-.9,.35-1.39,.01-.48-.11-.96-.35-1.37-.24-.39-.59-.7-1.01-.89-.49-.22-1.02-.33-1.56-.32-.53-.01-1.05,.1-1.53,.33-.89,.41-1.44,1.31-1.41,2.29-.01,.48,.11,.96,.35,1.37,.24,.39,.59,.69,1.01,.87,.5,.21,1.03,.32,1.57,.3m3.59-6.44h1.51l-.62,3.94c-.1,.7-.35,1.38-.71,1.99-.36,.59-.86,1.08-1.46,1.41-.71,.37-1.5,.55-2.29,.52-.84,.02-1.67-.15-2.43-.52-.64-.31-1.18-.81-1.54-1.42-.72-1.27-.72-2.84,.02-4.1,.38-.62,.92-1.12,1.56-1.45,1.35-.66,2.92-.71,4.31-.13,.53,.23,.99,.57,1.37,1.01,.31,.34,.5,.76,.56,1.22l-.6,.04,.33-2.51h0Zm-1.39,9.39c.49,.03,.97,.13,1.43,.3,.38,.13,.71,.36,.97,.67,.25,.34,.37,.75,.35,1.18,0,.52-.19,1.03-.55,1.42-.36,.41-.92,.73-1.66,.97-.91,.25-1.85,.37-2.8,.35-1.59,0-2.79-.23-3.6-.69s-1.22-1.09-1.22-1.89c0-.23,.03-.45,.09-.67,.05-.16,.12-.32,.2-.47l1.53,.23c-.06,.1-.11,.2-.15,.32-.05,.16-.07,.33-.07,.49,0,.5,.29,.85,.86,1.06s1.38,.31,2.43,.31c.65,.01,1.29-.04,1.93-.16,.4-.06,.79-.22,1.12-.46,.23-.17,.36-.43,.37-.71,0-.41-.17-.66-.51-.76-.42-.11-.84-.18-1.27-.2l-3.8-.28c-.57-.03-1.11-.23-1.55-.59-.38-.3-.6-.76-.6-1.25,0-.3,.08-.6,.22-.86,.14-.25,.31-.49,.52-.68,.15-.15,.33-.27,.53-.34l1.26,.57c-.22,.06-.42,.17-.58,.33-.21,.16-.34,.41-.34,.67,0,.22,.1,.44,.27,.57,.18,.15,.54,.24,1.08,.29l3.53,.3v-.02Z"/>
    <path d="M321.42,100.98v-1.43h7.73l-.28,.47v-.21c0-.55-.12-1.09-.36-1.59-.24-.48-.61-.88-1.07-1.16-.54-.31-1.15-.46-1.77-.44-.65-.01-1.3,.14-1.87,.45-.53,.3-.97,.74-1.26,1.28-.31,.61-.47,1.28-.45,1.96-.02,.69,.13,1.38,.44,2,.28,.54,.72,.99,1.25,1.29,.59,.31,1.26,.47,1.92,.45,.46,0,.93-.05,1.37-.17,.35-.09,.67-.24,.97-.44,.23-.16,.43-.37,.58-.61,.12-.2,.2-.43,.23-.66h1.6c-.04,.42-.17,.83-.38,1.19-.24,.42-.55,.78-.93,1.08-.44,.35-.94,.61-1.48,.78-.65,.2-1.33,.3-2.01,.29-.93,.02-1.85-.21-2.66-.66-.76-.43-1.38-1.06-1.81-1.83-.87-1.69-.87-3.69,0-5.38,.43-.76,1.06-1.39,1.82-1.82,.81-.45,1.72-.68,2.65-.66,.92-.02,1.83,.2,2.63,.66,.73,.43,1.32,1.05,1.71,1.8,.41,.8,.62,1.7,.6,2.61,0,.1,0,.23-.01,.39,0,.11-.01,.23-.03,.34h-9.13v.02Z"/>
  </g>
  <path d="M339.06,100.25h6.2v1.41h-6.2v-1.41Zm-1.98,5.1l3.83-13.93h2.51l3.8,13.93h-1.65l-3.4-12.89h.02l-3.43,12.89h-1.68Z"/>
  <rect class="cls-1" width="437.71" height="110.77"/>
  <path d="M356.64,90.62h1.61v14.73h-1.61v-14.73Zm-3.27,14.91c-.79,0-1.57-.2-2.26-.6-.7-.42-1.27-1.03-1.64-1.76-.41-.78-.61-1.72-.61-2.84s.21-2.03,.62-2.8c.75-1.46,2.26-2.37,3.89-2.35,.76,0,1.51,.19,2.17,.55,.67,.36,1.23,.89,1.63,1.53,.42,.68,.64,1.47,.62,2.27v.11l-1.15,.05v-.12c0-.53-.14-1.04-.43-1.48-.28-.44-.67-.8-1.12-1.05-.46-.26-.97-.39-1.5-.39-.83-.03-1.63,.3-2.21,.9s-.87,1.53-.88,2.77c0,1.25,.29,2.17,.88,2.77,.58,.6,1.38,.93,2.21,.91,.54,.01,1.07-.13,1.54-.39,.45-.26,.84-.64,1.11-1.09,.28-.46,.42-.99,.41-1.53l1.15,.03c.01,.81-.19,1.6-.59,2.3-.38,.67-.93,1.23-1.6,1.62-.68,.4-1.46,.6-2.24,.59"/>
  <polygon points="369.06 95.34 365.7 105.35 363.6 105.35 360.18 95.34 361.84 95.34 364.79 104.5 364.54 104.5 367.41 95.34 369.06 95.34"/>
  <rect class="cls-1" width="437.71" height="110.77"/>
  <g>
    <path d="M371.17,95.34h1.59v10.01h-1.59v-10.01Zm.8-2.3c-.28,0-.55-.08-.77-.25-.38-.3-.43-.85-.13-1.23,.04-.05,.08-.09,.13-.13,.22-.17,.49-.25,.77-.25s.54,.08,.76,.25c.38,.31,.43,.86,.12,1.24-.04,.04-.08,.08-.12,.12-.22,.17-.49,.26-.76,.25"/>
    <path d="M379.56,105.53c-.56,0-1.13-.06-1.68-.19-.48-.11-.93-.3-1.34-.57-.36-.23-.67-.55-.88-.92-.22-.38-.33-.81-.32-1.25v-.29h1.61v.21c-.01,.49,.26,.95,.71,1.17,.47,.27,1.12,.4,1.93,.4,.45,0,.9-.05,1.34-.15,.35-.08,.67-.23,.94-.46,.23-.2,.35-.48,.35-.78,.02-.49-.27-.94-.73-1.12-.7-.28-1.43-.48-2.18-.58-.49-.08-.97-.2-1.45-.34-.43-.13-.84-.31-1.22-.55-.34-.21-.63-.5-.84-.84-.21-.37-.32-.79-.31-1.21-.01-.57,.18-1.12,.54-1.55,.4-.45,.9-.78,1.47-.97,.66-.23,1.36-.34,2.05-.34s1.37,.11,2.01,.35c.57,.2,1.08,.55,1.48,1.01,.38,.46,.58,1.04,.56,1.63v.19h-1.6v-.14c.01-.34-.11-.66-.35-.9-.25-.25-.56-.43-.9-.53-.39-.12-.79-.17-1.19-.17s-.79,.04-1.18,.13c-.34,.07-.67,.21-.95,.42-.25,.19-.39,.49-.38,.8-.01,.31,.12,.61,.35,.82,.29,.24,.63,.41,1,.5,.5,.15,1.01,.26,1.52,.35,.5,.09,.99,.21,1.48,.35,.43,.13,.84,.31,1.23,.54,.34,.21,.63,.5,.84,.84,.21,.37,.32,.8,.3,1.23,.01,.45-.1,.89-.34,1.28-.23,.37-.55,.69-.92,.91-.42,.26-.88,.44-1.36,.55-.53,.12-1.07,.18-1.61,.17"/>
    <path d="M386.83,100.98v-1.43h7.73l-.28,.47v-.21c0-.55-.12-1.09-.36-1.59-.24-.48-.61-.88-1.08-1.15-.54-.31-1.15-.46-1.77-.44-.65-.01-1.3,.14-1.88,.45-.53,.3-.97,.74-1.26,1.28-.32,.6-.47,1.28-.45,1.96-.02,.69,.13,1.38,.44,2,.28,.54,.71,.99,1.25,1.29,.59,.31,1.25,.47,1.92,.45,.47,0,.93-.05,1.38-.17,.35-.09,.67-.24,.97-.44,.23-.16,.43-.37,.58-.61,.13-.2,.2-.42,.23-.66h1.6c-.04,.42-.17,.83-.38,1.19-.24,.42-.55,.78-.93,1.08-.44,.34-.94,.61-1.48,.78-.65,.2-1.33,.3-2.01,.29-.93,.02-1.85-.21-2.66-.66-.76-.43-1.38-1.06-1.8-1.83-.88-1.69-.88-3.7,0-5.38,.43-.76,1.06-1.39,1.82-1.82,.81-.45,1.72-.68,2.65-.66,.92-.02,1.83,.2,2.63,.66,.73,.43,1.32,1.05,1.72,1.8,.41,.81,.62,1.7,.6,2.61,0,.1,0,.23-.01,.39,0,.11,0,.23-.03,.34h-9.14Z"/>
    <path d="M398.49,105.35v-10.01h1.6v3.07l-.53-.19c.04-.38,.14-.75,.28-1.1,.15-.36,.36-.69,.63-.98,.28-.3,.63-.54,1.01-.7,.45-.18,.93-.27,1.41-.26,.33,0,.66,.03,.99,.1,.16,.04,.32,.09,.48,.16l-.41,1.57c-.12-.07-.25-.13-.38-.17-.26-.08-.54-.11-.82-.1-.45-.02-.89,.08-1.3,.28-.33,.18-.61,.43-.81,.75-.2,.31-.34,.65-.42,1.01-.08,.35-.12,.72-.12,1.08v5.47h-1.61v.02Z"/>
    <path d="M409.71,105.53c-.56,0-1.13-.06-1.68-.19-.48-.11-.93-.3-1.34-.57-.36-.23-.67-.55-.88-.92-.21-.38-.32-.81-.31-1.25v-.29h1.61v.21c-.01,.49,.26,.95,.7,1.17,.47,.27,1.12,.4,1.93,.4,.45,0,.9-.05,1.34-.15,.35-.08,.67-.23,.94-.46,.23-.2,.35-.48,.34-.78,.02-.49-.27-.94-.73-1.12-.7-.28-1.43-.48-2.18-.58-.49-.08-.98-.2-1.45-.34-.43-.13-.84-.31-1.22-.55-.34-.21-.63-.5-.84-.84-.48-.88-.39-1.97,.24-2.76,.39-.45,.9-.78,1.46-.97,.66-.23,1.36-.34,2.06-.34s1.37,.11,2.01,.35c.57,.2,1.08,.55,1.48,1.01,.38,.46,.58,1.04,.56,1.63v.19h-1.6v-.14c.01-.33-.11-.66-.35-.9-.25-.25-.56-.43-.9-.53-.39-.12-.79-.17-1.19-.17s-.79,.04-1.18,.13c-.34,.07-.67,.21-.95,.42-.25,.19-.39,.49-.38,.8-.01,.31,.12,.61,.35,.82,.29,.24,.63,.41,1,.5,.5,.15,1.01,.26,1.52,.35,.5,.09,.99,.21,1.48,.35,.43,.13,.84,.31,1.23,.54,.34,.21,.63,.5,.84,.84,.21,.37,.32,.8,.31,1.23,0,.45-.11,.89-.34,1.28-.23,.36-.53,.67-.89,.9-.42,.25-.88,.44-1.36,.55-.54,.13-1.09,.19-1.64,.19"/>
  </g>
</svg>