<svg width="187" height="187" viewBox="0 0 187 187" fill="none" xmlns="http://www.w3.org/2000/svg">
<circle cx="93.5" cy="93.5" r="93" fill="white" fill-opacity="0.2" stroke="white"/>
<path d="M82.7893 158.526L78.4874 157.728L78.7296 156.423L84.6358 157.519L82.3548 169.808L80.7504 169.51L82.7893 158.526Z" fill="#E8E8E8"/>
<path d="M65.7253 154.781L70.7605 156.87L72.753 154.688L74.3431 155.347L65.4074 165.094L63.6683 164.372L64.2728 151.17L65.8628 151.829L65.7253 154.781ZM65.6475 156.186L65.3157 162.881L69.8213 157.917L65.6475 156.186Z" fill="#E8E8E8"/>
<path d="M46.0523 154.044L46.8228 152.964L49.5966 154.942L56.0832 145.847L57.4118 146.795L50.9252 155.89L53.7136 157.879L52.9431 158.959L46.0523 154.044Z" fill="#E8E8E8"/>
<path d="M39.7298 146.397L42.7952 143.558L39.7003 140.216L40.687 139.302L43.7819 142.644L46.9393 139.72L43.4789 135.983L44.4656 135.069L49.0348 140.003L39.8519 148.508L35.2827 143.574L36.2694 142.66L39.7298 146.397Z" fill="#E8E8E8"/>
<path d="M38.8986 126.823C39.3209 127.532 39.577 128.242 39.6671 128.953C39.7408 129.661 39.6517 130.305 39.3998 130.887C39.1377 131.475 38.717 131.948 38.1377 132.307L37.2474 130.813C37.72 130.462 38.0238 130.002 38.1588 129.435C38.2774 128.863 38.1286 128.228 37.7125 127.53C37.3148 126.862 36.8384 126.436 36.2833 126.252C35.7119 126.064 35.1643 126.126 34.6406 126.438C34.2298 126.683 33.9633 126.995 33.8412 127.373C33.7191 127.752 33.6923 128.151 33.7607 128.569C33.8291 128.988 33.9577 129.531 34.1463 130.197C34.3837 131.016 34.5384 131.696 34.6106 132.238C34.6766 132.769 34.6063 133.305 34.3996 133.846C34.1766 134.382 33.7313 134.849 33.0638 135.247C32.4784 135.596 31.8711 135.756 31.2418 135.727C30.6124 135.699 30.0154 135.491 29.4508 135.104C28.88 134.706 28.3865 134.158 27.9704 133.46C27.3707 132.454 27.1328 131.482 27.2566 130.545C27.3743 129.599 27.8246 128.836 28.6075 128.259L29.5254 129.799C29.1452 130.095 28.9143 130.525 28.8326 131.088C28.7406 131.658 28.8813 132.256 29.2546 132.883C29.6034 133.468 30.042 133.854 30.5703 134.04C31.0884 134.232 31.6196 134.166 32.1639 133.842C32.5542 133.609 32.8083 133.312 32.9262 132.949C33.0381 132.576 33.0659 132.191 33.0097 131.793C32.9371 131.391 32.8086 130.848 32.6241 130.165C32.397 129.34 32.2525 128.654 32.1906 128.106C32.1185 127.565 32.1909 127.021 32.4078 126.474C32.6145 125.934 33.0567 125.461 33.7345 125.057C34.2582 124.745 34.8338 124.59 35.4611 124.592C36.0885 124.594 36.7081 124.782 37.32 125.154C37.9318 125.527 38.4581 126.084 38.8986 126.823Z" fill="#E8E8E8"/>
<path d="M19.9001 114.459L21.1588 114.039L22.2374 117.271L32.8342 113.734L33.3508 115.282L22.7541 118.819L23.8384 122.068L22.5797 122.488L19.9001 114.459Z" fill="#E8E8E8"/>
<path d="M18.1492 79.7929L30.3148 84.4112L30.1673 86.2343L19.9061 88.3185L29.6901 92.1325L29.5619 93.9391L16.8044 96.4151L16.9447 94.6813L27.7276 92.8192L17.4074 88.9619L17.5549 87.1388L28.3136 85.1308L18.0075 81.5445L18.1492 79.7929Z" fill="#E8E8E8"/>
<path d="M34.4842 70.2115C34.0495 71.2865 33.4036 72.1665 32.5463 72.8515C31.678 73.5319 30.6897 73.9511 29.5814 74.109C28.4665 74.2513 27.3438 74.0939 26.2133 73.6368C25.0829 73.1797 24.1719 72.5148 23.4804 71.642C22.7822 70.7536 22.363 69.7653 22.2228 68.677C22.0715 67.5843 22.2132 66.5004 22.6479 65.4254C23.0871 64.3393 23.7409 63.456 24.6092 62.7755C25.4664 62.0905 26.447 61.6747 27.5508 61.5279C28.6547 61.3811 29.7773 61.5384 30.9188 62C32.0604 62.4616 32.9769 63.1288 33.6684 64.0016C34.36 64.8744 34.7814 65.8572 34.9327 66.9499C35.0729 68.0382 34.9234 69.1254 34.4842 70.2115ZM33.1709 69.6805C33.4981 68.8714 33.6032 68.0693 33.4863 67.2742C33.3739 66.4679 33.0426 65.7408 32.4922 65.0927C31.9464 64.4336 31.2135 63.918 30.2937 63.5461C29.3627 63.1696 28.4775 63.0309 27.638 63.1298C26.7919 63.2132 26.0505 63.5002 25.4138 63.9906C24.777 64.481 24.2929 65.1363 23.9612 65.9564C23.6296 66.7765 23.5223 67.5842 23.6391 68.3793C23.756 69.1745 24.0874 69.9016 24.6332 70.5608C25.1725 71.2044 25.9076 71.7144 26.8385 72.0908C27.7584 72.4628 28.6413 72.607 29.4874 72.5236C30.338 72.4292 31.0817 72.1367 31.7184 71.6463C32.3596 71.1448 32.8438 70.4895 33.1709 69.6805Z" fill="#E8E8E8"/>
<path d="M43.6746 54.1156L37.7966 53.4622L36.6216 55.0465L40.7265 58.0908L39.7544 59.4015L29.7156 51.9563L32.119 48.7156C32.6815 47.9571 33.2847 47.4147 33.9285 47.0884C34.5794 46.7526 35.2219 46.6188 35.8558 46.6872C36.4898 46.7555 37.09 46.9997 37.6566 47.4199C38.3479 47.9326 38.8081 48.5864 39.0371 49.3814C39.2732 50.1667 39.1822 51.022 38.764 51.9471L44.839 52.5456L43.6746 54.1156ZM35.5702 54.2667L37.0016 52.3367C37.5285 51.6262 37.7509 50.9651 37.6687 50.3535C37.5769 49.7347 37.2382 49.2081 36.6525 48.7737C36.0571 48.3322 35.4645 48.1681 34.8746 48.2812C34.2917 48.3848 33.7333 48.7966 33.1992 49.5168L31.7678 51.4468L35.5702 54.2667Z" fill="#E8E8E8"/>
<path d="M54.3374 43.5265L46.7212 42.5293L50.4226 46.867L49.1813 47.9262L41.0686 38.4187L42.3099 37.3595L46.0694 41.7654L46.2384 34.0073L47.8071 32.6688L47.5588 41.1074L55.9607 42.1414L54.3374 43.5265Z" fill="#E8E8E8"/>
<path d="M63.9299 37.5355C63.2004 37.9206 62.4779 38.1397 61.7625 38.1929C61.0521 38.2299 60.4131 38.1076 59.8454 37.826C59.2722 37.5338 58.8212 37.0892 58.4926 36.4921L60.0308 35.6802C60.3571 36.1704 60.8001 36.4975 61.3599 36.6616C61.9246 36.8096 62.5664 36.6939 63.2853 36.3145C63.9725 35.9518 64.4224 35.498 64.635 34.9532C64.8526 34.3923 64.8191 33.8423 64.5346 33.3031C64.3114 32.8802 64.0137 32.598 63.6416 32.4564C63.2695 32.3149 62.8728 32.2675 62.4513 32.3142C62.0299 32.3609 61.4813 32.4612 60.8056 32.6151C59.9757 32.8098 59.2885 32.9292 58.744 32.9733C58.2101 33.0118 57.6785 32.9139 57.1493 32.6795C56.6251 32.429 56.1816 31.9602 55.8189 31.273C55.5009 30.6704 55.3724 30.0556 55.4334 29.4286C55.4945 28.8016 55.7329 28.2161 56.1488 27.6722C56.5752 27.1227 57.1478 26.6583 57.8667 26.2788C58.9028 25.732 59.8853 25.5446 60.8142 25.7167C61.7537 25.8831 62.4917 26.3722 63.0283 27.1839L61.4424 28.021C61.1664 27.626 60.749 27.3731 60.1905 27.2624C59.6263 27.1412 59.0218 27.2507 58.3769 27.5911C57.7743 27.9092 57.3664 28.3272 57.1532 28.8453C56.9344 29.3528 56.9729 29.8867 57.2686 30.447C57.4807 30.8487 57.7647 31.1179 58.1206 31.2544C58.4871 31.3854 58.8705 31.4331 59.2708 31.3976C59.6761 31.3459 60.2247 31.2456 60.9166 31.0966C61.7521 30.9125 62.4448 30.8037 62.9949 30.7702C63.5394 30.7261 64.079 30.8265 64.6138 31.0714C65.143 31.3058 65.5917 31.7718 65.96 32.4696C66.2446 33.0088 66.3697 33.5916 66.3354 34.218C66.3011 34.8444 66.0819 35.4535 65.6778 36.0452C65.2737 36.637 64.6911 37.1338 63.9299 37.5355Z" fill="#E8E8E8"/>
<path d="M83.0985 27.0663C82.4961 27.1601 81.9501 27.0335 81.4605 26.6863C80.9808 26.3254 80.6941 25.8438 80.6002 25.2414C80.5046 24.6272 80.6312 24.0812 80.9803 23.6033C81.3393 23.1119 81.82 22.8192 82.4224 22.7254C83.0366 22.6297 83.5894 22.7614 84.0809 23.1204C84.5705 23.4676 84.8632 23.9483 84.9589 24.5625C85.0527 25.1649 84.9201 25.7118 84.5611 26.2033C84.2003 26.683 83.7128 26.9706 83.0985 27.0663Z" fill="#E8E8E8"/>
<path d="M102.95 29.3088L107.273 29.9822L107.069 31.2933L101.133 30.3687L103.057 18.0193L104.669 18.2704L102.95 29.3088Z" fill="#E8E8E8"/>
<path d="M120.115 32.5578L115.022 30.6159L113.093 32.8552L111.485 32.242L120.134 22.2403L121.893 22.9111L121.672 36.1258L120.064 35.5126L120.115 32.5578ZM120.152 31.1518L120.29 24.4491L115.93 29.5421L120.152 31.1518Z" fill="#E8E8E8"/>
<path d="M139.802 32.7236L139.063 33.8259L136.233 31.9289L130.013 41.2086L128.657 40.3L134.877 31.0204L132.032 29.1134L132.771 28.0112L139.802 32.7236Z" fill="#E8E8E8"/>
<path d="M146.343 40.1849L143.361 43.1116L146.552 46.3621L145.592 47.3041L142.402 44.0537L139.33 47.0684L142.898 50.7027L141.938 51.6448L137.228 46.8459L146.16 38.0783L150.87 42.8771L149.911 43.8192L146.343 40.1849Z" fill="#E8E8E8"/>
<path d="M147.742 59.7257C147.299 59.0296 147.023 58.3272 146.912 57.6184C146.818 56.9133 146.888 56.2665 147.123 55.678C147.368 55.083 147.775 54.5977 148.343 54.222L149.277 55.6897C148.814 56.0545 148.524 56.5224 148.406 57.0936C148.304 57.6684 148.471 58.2988 148.907 58.9848C149.324 59.6405 149.812 60.0524 150.373 60.2203C150.949 60.392 151.495 60.3143 152.009 59.9871C152.413 59.7305 152.67 59.4111 152.781 59.0288C152.892 58.6465 152.908 58.2472 152.827 57.8309C152.746 57.4146 152.602 56.8759 152.394 56.2148C152.133 55.4033 151.959 54.728 151.871 54.1888C151.79 53.6597 151.844 53.122 152.035 52.5756C152.243 52.0329 152.674 51.5531 153.33 51.1362C153.905 50.7705 154.507 50.5929 155.137 50.6032C155.767 50.6135 156.37 50.8039 156.946 51.1745C157.528 51.5552 158.037 52.0886 158.473 52.7746C159.102 53.7631 159.368 54.7273 159.271 55.6671C159.181 56.6169 158.753 57.392 157.987 57.9923L157.025 56.4791C157.396 56.1721 157.615 55.7357 157.68 55.17C157.755 54.5979 157.597 54.0042 157.206 53.3889C156.84 52.8139 156.391 52.441 155.857 52.2703C155.334 52.0931 154.805 52.1746 154.27 52.5145C153.887 52.7583 153.641 53.0631 153.534 53.4288C153.433 53.8047 153.416 54.1907 153.484 54.5868C153.568 54.9866 153.713 55.5253 153.917 56.203C154.168 57.0209 154.332 57.7026 154.41 58.2482C154.498 58.7873 154.441 59.3333 154.24 59.8861C154.049 60.4325 153.621 60.9174 152.955 61.3407C152.441 61.6679 151.87 61.8396 151.243 61.8559C150.615 61.8722 149.991 61.7028 149.368 61.3477C148.746 60.9927 148.204 60.452 147.742 59.7257Z" fill="#E8E8E8"/>
<path d="M167.091 71.5332L165.845 71.9897L164.673 68.7906L154.183 72.6333L153.622 71.1011L164.112 67.2584L162.934 64.0424L164.18 63.586L167.091 71.5332Z" fill="#E8E8E8"/>
<path d="M169.847 106.134L157.552 101.871L157.647 100.044L167.843 97.6632L157.953 94.1347L158.028 92.3251L170.709 89.4801L170.619 91.2172L159.894 93.3913L170.322 96.9476L170.228 98.7742L159.532 101.093L169.937 104.379L169.847 106.134Z" fill="#E8E8E8"/>
<path d="M153.796 116.186C154.199 115.098 154.82 114.2 155.657 113.49C156.505 112.785 157.481 112.337 158.584 112.147C159.694 111.973 160.821 112.098 161.964 112.522C163.107 112.946 164.037 113.584 164.754 114.436C165.478 115.304 165.925 116.28 166.097 117.364C166.28 118.452 166.17 119.539 165.766 120.626C165.359 121.725 164.731 122.627 163.883 123.332C163.046 124.042 162.078 124.486 160.979 124.664C159.879 124.843 158.753 124.718 157.598 124.29C156.444 123.862 155.508 123.222 154.792 122.369C154.075 121.517 153.625 120.547 153.442 119.459C153.271 118.375 153.389 117.284 153.796 116.186ZM155.124 116.678C154.821 117.496 154.739 118.301 154.879 119.093C155.015 119.895 155.367 120.613 155.936 121.244C156.501 121.887 157.248 122.382 158.178 122.727C159.12 123.076 160.009 123.189 160.845 123.066C161.688 122.958 162.421 122.649 163.043 122.141C163.665 121.632 164.13 120.963 164.438 120.134C164.746 119.304 164.83 118.494 164.69 117.702C164.55 116.911 164.198 116.194 163.633 115.551C163.075 114.923 162.326 114.435 161.384 114.085C160.454 113.74 159.567 113.622 158.724 113.729C157.876 113.849 157.141 114.162 156.519 114.671C155.893 115.191 155.428 115.86 155.124 116.678Z" fill="#E8E8E8"/>
<path d="M145.077 132.541L150.971 133.024L152.1 131.406L147.908 128.482L148.842 127.144L159.093 134.295L156.784 137.604C156.244 138.378 155.657 138.938 155.023 139.283C154.382 139.637 153.744 139.789 153.108 139.74C152.472 139.69 151.865 139.463 151.287 139.059C150.581 138.567 150.102 137.927 149.85 137.139C149.591 136.361 149.657 135.503 150.048 134.566L143.959 134.144L145.077 132.541ZM153.173 132.155L151.799 134.126C151.293 134.851 151.089 135.518 151.189 136.127C151.299 136.743 151.653 137.26 152.251 137.677C152.859 138.101 153.456 138.248 154.042 138.118C154.622 137.997 155.168 137.569 155.681 136.834L157.056 134.863L153.173 132.155Z" fill="#E8E8E8"/>
<path d="M134.726 143.435L142.368 144.211L138.542 139.982L139.752 138.888L148.137 148.156L146.927 149.251L143.041 144.956L143.097 152.715L141.568 154.099L141.572 145.657L133.143 144.867L134.726 143.435Z" fill="#E8E8E8"/>
<path d="M125.311 149.702C126.029 149.296 126.745 149.056 127.458 148.982C128.167 148.924 128.81 149.028 129.385 149.293C129.967 149.568 130.431 150 130.776 150.587L129.262 151.443C128.922 150.963 128.47 150.649 127.905 150.501C127.337 150.369 126.698 150.503 125.991 150.904C125.314 151.286 124.878 151.753 124.681 152.303C124.48 152.87 124.529 153.419 124.829 153.95C125.065 154.366 125.371 154.64 125.747 154.77C126.123 154.901 126.521 154.937 126.94 154.878C127.36 154.819 127.906 154.703 128.577 154.529C129.401 154.311 130.084 154.171 130.627 154.112C131.16 154.058 131.694 154.14 132.23 154.359C132.761 154.594 133.218 155.05 133.6 155.726C133.936 156.32 134.082 156.93 134.039 157.559C133.996 158.187 133.775 158.779 133.375 159.335C132.965 159.897 132.406 160.378 131.698 160.778C130.678 161.355 129.702 161.57 128.768 161.425C127.824 161.286 127.072 160.819 126.513 160.023L128.073 159.14C128.361 159.527 128.785 159.768 129.347 159.862C129.914 159.967 130.515 159.84 131.15 159.481C131.743 159.146 132.139 158.716 132.337 158.192C132.541 157.678 132.487 157.146 132.175 156.594C131.952 156.199 131.66 155.938 131.3 155.812C130.93 155.691 130.545 155.655 130.146 155.702C129.743 155.765 129.197 155.882 128.51 156.051C127.68 156.259 126.991 156.388 126.442 156.437C125.899 156.497 125.357 156.412 124.815 156.183C124.279 155.964 123.817 155.511 123.429 154.824C123.129 154.294 122.987 153.715 123.003 153.088C123.019 152.461 123.22 151.845 123.607 151.242C123.994 150.639 124.562 150.125 125.311 149.702Z" fill="#E8E8E8"/>
<path d="M106.454 160.722C107.053 160.611 107.603 160.722 108.102 161.055C108.592 161.402 108.893 161.875 109.004 162.474C109.118 163.085 109.007 163.635 108.672 164.122C108.327 164.624 107.855 164.931 107.256 165.042C106.645 165.155 106.088 165.04 105.586 164.695C105.087 164.362 104.781 163.89 104.667 163.279C104.556 162.68 104.672 162.129 105.017 161.628C105.364 161.138 105.843 160.836 106.454 160.722Z" fill="#E8E8E8"/>
</svg>
