<svg width="82" height="26" viewBox="0 0 82 26" fill="none" xmlns="http://www.w3.org/2000/svg">
<path id="Vector 12" d="M0.657971 4.96442C0.657971 2.39757 2.73881 0.316726 5.30566 0.316726C7.87251 0.316725 9.95335 2.39757 9.95335 4.96442C9.95335 7.53127 7.87251 9.61211 5.30566 9.61211C2.73881 9.61211 0.657971 7.53127 0.657971 4.96442ZM76.7639 4.96441L76.7639 4.09297L77.6354 4.09297L77.6354 4.96441L76.7639 4.96441ZM76.7639 25.879L71.7326 17.1646L81.7952 17.1646L76.7639 25.879ZM5.30566 4.09297L76.7639 4.09297L76.7639 5.83585L5.30566 5.83586L5.30566 4.09297ZM77.6354 4.96441L77.6354 18.036L75.8925 18.036L75.8925 4.96441L77.6354 4.96441Z" fill="white"/>
</svg>
