<?xml version="1.0" encoding="UTF-8"?>
<svg version="1.1" xmlns="http://www.w3.org/2000/svg" width="80" height="80">
<path d="M0 0 C1.31419922 -0.01224609 2.62839844 -0.02449219 3.98242188 -0.03710938 C5.23474609 -0.03904297 6.48707031 -0.04097656 7.77734375 -0.04296875 C8.93355225 -0.04707764 10.08976074 -0.05118652 11.28100586 -0.05541992 C14.0625 0.1875 14.0625 0.1875 16.0625 2.1875 C15.6875 4.8125 15.6875 4.8125 15.0625 7.1875 C10.96908501 7.21219575 6.87569879 7.23035793 2.78222656 7.24243164 C1.38931523 7.2474643 -0.0035908 7.25429098 -1.39648438 7.26293945 C-3.39711246 7.27505152 -5.39777888 7.28020412 -7.3984375 7.28515625 C-8.60290527 7.29039307 -9.80737305 7.29562988 -11.04833984 7.30102539 C-13.9375 7.1875 -13.9375 7.1875 -15.9375 6.1875 C-14.34789831 -2.66885227 -7.95725693 0.00389108 0 0 Z " fill="#FF6947" transform="translate(39.9375,33.8125)"/>
<path d="M0 0 C1.25159912 0.00523682 2.50319824 0.01047363 3.79272461 0.01586914 C4.78942421 0.01799156 4.78942421 0.01799156 5.80625916 0.02015686 C7.93590735 0.02577021 10.06545175 0.03832485 12.19506836 0.05102539 C13.63582205 0.05603868 15.07657739 0.06060188 16.51733398 0.06469727 C20.05577938 0.07574394 23.59416375 0.09301747 27.13256836 0.11352539 C27.51475603 1.76967196 27.84651938 3.43809563 28.13256836 5.11352539 C27.13256836 6.11352539 27.13256836 6.11352539 24.26513672 6.22705078 C23.0135376 6.22181396 21.76193848 6.21657715 20.47241211 6.21118164 C19.47571251 6.20905922 19.47571251 6.20905922 18.45887756 6.20689392 C16.32922937 6.20128057 14.19968496 6.18872593 12.07006836 6.17602539 C10.62931467 6.1710121 9.18855933 6.1664489 7.74780273 6.16235352 C4.20935734 6.15130684 0.67097297 6.13403331 -2.86743164 6.11352539 C-3.24961931 4.45737882 -3.58138266 2.78895515 -3.86743164 1.11352539 C-2.86743164 0.11352539 -2.86743164 0.11352539 0 0 Z " fill="#FF6947" transform="translate(27.867431640625,52.886474609375)"/>
<path d="M0 0 C1.25159912 0.00523682 2.50319824 0.01047363 3.79272461 0.01586914 C4.78942421 0.01799156 4.78942421 0.01799156 5.80625916 0.02015686 C7.93590735 0.02577021 10.06545175 0.03832485 12.19506836 0.05102539 C13.63582205 0.05603868 15.07657739 0.06060188 16.51733398 0.06469727 C20.05577938 0.07574394 23.59416375 0.09301747 27.13256836 0.11352539 C27.51475603 1.76967196 27.84651938 3.43809563 28.13256836 5.11352539 C27.13256836 6.11352539 27.13256836 6.11352539 24.26513672 6.22705078 C23.0135376 6.22181396 21.76193848 6.21657715 20.47241211 6.21118164 C19.47571251 6.20905922 19.47571251 6.20905922 18.45887756 6.20689392 C16.32922937 6.20128057 14.19968496 6.18872593 12.07006836 6.17602539 C10.62931467 6.1710121 9.18855933 6.1664489 7.74780273 6.16235352 C4.20935734 6.15130684 0.67097297 6.13403331 -2.86743164 6.11352539 C-3.24961931 4.45737882 -3.58138266 2.78895515 -3.86743164 1.11352539 C-2.86743164 0.11352539 -2.86743164 0.11352539 0 0 Z " fill="#FF6947" transform="translate(27.867431640625,15.886474609375)"/>
</svg>
