<svg width="32" height="33" viewBox="0 0 32 33" fill="none" xmlns="http://www.w3.org/2000/svg">
<g id="x-close">
<path id="Solid" d="M24.9431 9.44265C25.4638 8.92195 25.4638 8.07773 24.9431 7.55703C24.4224 7.03633 23.5782 7.03633 23.0575 7.55703L16.0003 14.6142L8.94313 7.55703C8.42244 7.03633 7.57822 7.03633 7.05752 7.55703C6.53682 8.07773 6.53682 8.92195 7.05752 9.44265L14.1147 16.4998L7.05752 23.557C6.53682 24.0777 6.53682 24.9219 7.05752 25.4426C7.57822 25.9633 8.42244 25.9633 8.94313 25.4426L16.0003 18.3855L23.0575 25.4426C23.5782 25.9633 24.4224 25.9633 24.9431 25.4426C25.4638 24.9219 25.4638 24.0777 24.9431 23.557L17.8859 16.4998L24.9431 9.44265Z" fill="white"/>
</g>
</svg>
